<?xml version="1.0" encoding="utf-8" standalone="no"?>
<!DOCTYPE svg PUBLIC "-//W3C//DTD SVG 1.1//EN"
  "http://www.w3.org/Graphics/SVG/1.1/DTD/svg11.dtd">
<!-- Created with matplotlib (https://matplotlib.org/) -->
<svg height="656.951094pt" version="1.1" viewBox="0 0 951.804687 656.951094" width="951.804687pt" xmlns="http://www.w3.org/2000/svg" xmlns:xlink="http://www.w3.org/1999/xlink">
 <defs>
  <style type="text/css">
*{stroke-linecap:butt;stroke-linejoin:round;}
  </style>
 </defs>
 <g id="figure_1">
  <g id="patch_1">
   <path d="M 0 656.951094 
L 951.804687 656.951094 
L 951.804687 0 
L 0 0 
z
" style="fill:#ffffff;"/>
  </g>
  <g id="axes_1">
   <g id="patch_2">
    <path d="M 51.804688 459.477656 
L 944.604687 459.477656 
L 944.604687 24.597656 
L 51.804688 24.597656 
z
" style="fill:#ffffff;"/>
   </g>
   <g id="patch_3">
    <path clip-path="url(#p386b9eb5c2)" d="M 63.552056 459.477656 
L 71.383635 459.477656 
L 71.383635 177.670292 
L 63.552056 177.670292 
z
" style="fill:#1f77b4;opacity:0.8;"/>
   </g>
   <g id="patch_4">
    <path clip-path="url(#p386b9eb5c2)" d="M 110.54153 459.477656 
L 118.373109 459.477656 
L 118.373109 327.113591 
L 110.54153 327.113591 
z
" style="fill:#1f77b4;opacity:0.8;"/>
   </g>
   <g id="patch_5">
    <path clip-path="url(#p386b9eb5c2)" d="M 157.531003 459.477656 
L 165.362582 459.477656 
L 165.362582 186.20991 
L 157.531003 186.20991 
z
" style="fill:#1f77b4;opacity:0.8;"/>
   </g>
   <g id="patch_6">
    <path clip-path="url(#p386b9eb5c2)" d="M 204.520477 459.477656 
L 212.352056 459.477656 
L 212.352056 378.351294 
L 204.520477 378.351294 
z
" style="fill:#1f77b4;opacity:0.8;"/>
   </g>
   <g id="patch_7">
    <path clip-path="url(#p386b9eb5c2)" d="M 251.509951 459.477656 
L 259.34153 459.477656 
L 259.34153 105.083547 
L 251.509951 105.083547 
z
" style="fill:#1f77b4;opacity:0.8;"/>
   </g>
   <g id="patch_8">
    <path clip-path="url(#p386b9eb5c2)" d="M 298.499424 459.477656 
L 306.331003 459.477656 
L 306.331003 156.32125 
L 298.499424 156.32125 
z
" style="fill:#1f77b4;opacity:0.8;"/>
   </g>
   <g id="patch_9">
    <path clip-path="url(#p386b9eb5c2)" d="M 345.488898 459.477656 
L 353.320477 459.477656 
L 353.320477 203.289144 
L 345.488898 203.289144 
z
" style="fill:#1f77b4;opacity:0.8;"/>
   </g>
   <g id="patch_10">
    <path clip-path="url(#p386b9eb5c2)" d="M 392.478372 459.477656 
L 400.309951 459.477656 
L 400.309951 224.638186 
L 392.478372 224.638186 
z
" style="fill:#1f77b4;opacity:0.8;"/>
   </g>
   <g id="patch_11">
    <path clip-path="url(#p386b9eb5c2)" d="M 439.467845 459.477656 
L 447.299424 459.477656 
L 447.299424 391.16072 
L 439.467845 391.16072 
z
" style="fill:#1f77b4;opacity:0.8;"/>
   </g>
   <g id="patch_12">
    <path clip-path="url(#p386b9eb5c2)" d="M 486.457319 459.477656 
L 494.288898 459.477656 
L 494.288898 378.351294 
L 486.457319 378.351294 
z
" style="fill:#1f77b4;opacity:0.8;"/>
   </g>
   <g id="patch_13">
    <path clip-path="url(#p386b9eb5c2)" d="M 533.446793 459.477656 
L 541.278372 459.477656 
L 541.278372 75.194887 
L 533.446793 75.194887 
z
" style="fill:#1f77b4;opacity:0.8;"/>
   </g>
   <g id="patch_14">
    <path clip-path="url(#p386b9eb5c2)" d="M 580.436266 459.477656 
L 588.267845 459.477656 
L 588.267845 79.464696 
L 580.436266 79.464696 
z
" style="fill:#1f77b4;opacity:0.8;"/>
   </g>
   <g id="patch_15">
    <path clip-path="url(#p386b9eb5c2)" d="M 627.42574 459.477656 
L 635.257319 459.477656 
L 635.257319 267.336272 
L 627.42574 267.336272 
z
" style="fill:#1f77b4;opacity:0.8;"/>
   </g>
   <g id="patch_16">
    <path clip-path="url(#p386b9eb5c2)" d="M 674.415214 459.477656 
L 682.246793 459.477656 
L 682.246793 169.130675 
L 674.415214 169.130675 
z
" style="fill:#1f77b4;opacity:0.8;"/>
   </g>
   <g id="patch_17">
    <path clip-path="url(#p386b9eb5c2)" d="M 721.404687 459.477656 
L 729.236266 459.477656 
L 729.236266 194.749527 
L 721.404687 194.749527 
z
" style="fill:#1f77b4;opacity:0.8;"/>
   </g>
   <g id="patch_18">
    <path clip-path="url(#p386b9eb5c2)" d="M 768.394161 459.477656 
L 776.22574 459.477656 
L 776.22574 425.319188 
L 768.394161 425.319188 
z
" style="fill:#1f77b4;opacity:0.8;"/>
   </g>
   <g id="patch_19">
    <path clip-path="url(#p386b9eb5c2)" d="M 815.383635 459.477656 
L 823.215214 459.477656 
L 823.215214 339.923017 
L 815.383635 339.923017 
z
" style="fill:#1f77b4;opacity:0.8;"/>
   </g>
   <g id="patch_20">
    <path clip-path="url(#p386b9eb5c2)" d="M 862.373109 459.477656 
L 870.204687 459.477656 
L 870.204687 45.306228 
L 862.373109 45.306228 
z
" style="fill:#1f77b4;opacity:0.8;"/>
   </g>
   <g id="patch_21">
    <path clip-path="url(#p386b9eb5c2)" d="M 909.362582 459.477656 
L 917.194161 459.477656 
L 917.194161 139.242016 
L 909.362582 139.242016 
z
" style="fill:#1f77b4;opacity:0.8;"/>
   </g>
   <g id="patch_22">
    <path clip-path="url(#p386b9eb5c2)" d="M 71.383635 459.477656 
L 79.215214 459.477656 
L 79.215214 199.019335 
L 71.383635 199.019335 
z
" style="fill:#ff7f0e;opacity:0.8;"/>
   </g>
   <g id="patch_23">
    <path clip-path="url(#p386b9eb5c2)" d="M 118.373109 459.477656 
L 126.204688 459.477656 
L 126.204688 292.955123 
L 118.373109 292.955123 
z
" style="fill:#ff7f0e;opacity:0.8;"/>
   </g>
   <g id="patch_24">
    <path clip-path="url(#p386b9eb5c2)" d="M 165.362582 459.477656 
L 173.194161 459.477656 
L 173.194161 211.828761 
L 165.362582 211.828761 
z
" style="fill:#ff7f0e;opacity:0.8;"/>
   </g>
   <g id="patch_25">
    <path clip-path="url(#p386b9eb5c2)" d="M 212.352056 459.477656 
L 220.183635 459.477656 
L 220.183635 408.239954 
L 212.352056 408.239954 
z
" style="fill:#ff7f0e;opacity:0.8;"/>
   </g>
   <g id="patch_26">
    <path clip-path="url(#p386b9eb5c2)" d="M 259.34153 459.477656 
L 267.173109 459.477656 
L 267.173109 109.353356 
L 259.34153 109.353356 
z
" style="fill:#ff7f0e;opacity:0.8;"/>
   </g>
   <g id="patch_27">
    <path clip-path="url(#p386b9eb5c2)" d="M 306.331003 459.477656 
L 314.162582 459.477656 
L 314.162582 156.32125 
L 306.331003 156.32125 
z
" style="fill:#ff7f0e;opacity:0.8;"/>
   </g>
   <g id="patch_28">
    <path clip-path="url(#p386b9eb5c2)" d="M 353.320477 459.477656 
L 361.152056 459.477656 
L 361.152056 241.717421 
L 353.320477 241.717421 
z
" style="fill:#ff7f0e;opacity:0.8;"/>
   </g>
   <g id="patch_29">
    <path clip-path="url(#p386b9eb5c2)" d="M 400.309951 459.477656 
L 408.14153 459.477656 
L 408.14153 245.987229 
L 400.309951 245.987229 
z
" style="fill:#ff7f0e;opacity:0.8;"/>
   </g>
   <g id="patch_30">
    <path clip-path="url(#p386b9eb5c2)" d="M 447.299424 459.477656 
L 455.131003 459.477656 
L 455.131003 395.430528 
L 447.299424 395.430528 
z
" style="fill:#ff7f0e;opacity:0.8;"/>
   </g>
   <g id="patch_31">
    <path clip-path="url(#p386b9eb5c2)" d="M 494.288898 459.477656 
L 502.120477 459.477656 
L 502.120477 391.16072 
L 494.288898 391.16072 
z
" style="fill:#ff7f0e;opacity:0.8;"/>
   </g>
   <g id="patch_32">
    <path clip-path="url(#p386b9eb5c2)" d="M 541.278372 459.477656 
L 549.109951 459.477656 
L 549.109951 117.892973 
L 541.278372 117.892973 
z
" style="fill:#ff7f0e;opacity:0.8;"/>
   </g>
   <g id="patch_33">
    <path clip-path="url(#p386b9eb5c2)" d="M 588.267845 459.477656 
L 596.099424 459.477656 
L 596.099424 177.670292 
L 588.267845 177.670292 
z
" style="fill:#ff7f0e;opacity:0.8;"/>
   </g>
   <g id="patch_34">
    <path clip-path="url(#p386b9eb5c2)" d="M 635.257319 459.477656 
L 643.088898 459.477656 
L 643.088898 254.526846 
L 635.257319 254.526846 
z
" style="fill:#ff7f0e;opacity:0.8;"/>
   </g>
   <g id="patch_35">
    <path clip-path="url(#p386b9eb5c2)" d="M 682.246793 459.477656 
L 690.078372 459.477656 
L 690.078372 190.479718 
L 682.246793 190.479718 
z
" style="fill:#ff7f0e;opacity:0.8;"/>
   </g>
   <g id="patch_36">
    <path clip-path="url(#p386b9eb5c2)" d="M 729.236266 459.477656 
L 737.067845 459.477656 
L 737.067845 267.336272 
L 729.236266 267.336272 
z
" style="fill:#ff7f0e;opacity:0.8;"/>
   </g>
   <g id="patch_37">
    <path clip-path="url(#p386b9eb5c2)" d="M 776.22574 459.477656 
L 784.057319 459.477656 
L 784.057319 421.049379 
L 776.22574 421.049379 
z
" style="fill:#ff7f0e;opacity:0.8;"/>
   </g>
   <g id="patch_38">
    <path clip-path="url(#p386b9eb5c2)" d="M 823.215214 459.477656 
L 831.046793 459.477656 
L 831.046793 331.3834 
L 823.215214 331.3834 
z
" style="fill:#ff7f0e;opacity:0.8;"/>
   </g>
   <g id="patch_39">
    <path clip-path="url(#p386b9eb5c2)" d="M 870.204688 459.477656 
L 878.036266 459.477656 
L 878.036266 53.845845 
L 870.204688 53.845845 
z
" style="fill:#ff7f0e;opacity:0.8;"/>
   </g>
   <g id="patch_40">
    <path clip-path="url(#p386b9eb5c2)" d="M 917.194161 459.477656 
L 925.02574 459.477656 
L 925.02574 190.479718 
L 917.194161 190.479718 
z
" style="fill:#ff7f0e;opacity:0.8;"/>
   </g>
   <g id="patch_41">
    <path clip-path="url(#p386b9eb5c2)" d="M 79.215214 459.477656 
L 87.046793 459.477656 
L 87.046793 179.805197 
L 79.215214 179.805197 
z
" style="fill:#2ca02c;opacity:0.8;"/>
   </g>
   <g id="patch_42">
    <path clip-path="url(#p386b9eb5c2)" d="M 126.204688 459.477656 
L 134.036266 459.477656 
L 134.036266 270.325138 
L 126.204688 270.325138 
z
" style="fill:#2ca02c;opacity:0.8;"/>
   </g>
   <g id="patch_43">
    <path clip-path="url(#p386b9eb5c2)" d="M 173.194161 459.477656 
L 181.02574 459.477656 
L 181.02574 175.962369 
L 173.194161 175.962369 
z
" style="fill:#2ca02c;opacity:0.8;"/>
   </g>
   <g id="patch_44">
    <path clip-path="url(#p386b9eb5c2)" d="M 220.183635 459.477656 
L 228.015214 459.477656 
L 228.015214 362.979983 
L 220.183635 362.979983 
z
" style="fill:#2ca02c;opacity:0.8;"/>
   </g>
   <g id="patch_45">
    <path clip-path="url(#p386b9eb5c2)" d="M 267.173109 459.477656 
L 275.004688 459.477656 
L 275.004688 91.847141 
L 267.173109 91.847141 
z
" style="fill:#2ca02c;opacity:0.8;"/>
   </g>
   <g id="patch_46">
    <path clip-path="url(#p386b9eb5c2)" d="M 314.162582 459.477656 
L 321.994161 459.477656 
L 321.994161 158.029173 
L 314.162582 158.029173 
z
" style="fill:#2ca02c;opacity:0.8;"/>
   </g>
   <g id="patch_47">
    <path clip-path="url(#p386b9eb5c2)" d="M 361.152056 459.477656 
L 368.983635 459.477656 
L 368.983635 193.895565 
L 361.152056 193.895565 
z
" style="fill:#2ca02c;opacity:0.8;"/>
   </g>
   <g id="patch_48">
    <path clip-path="url(#p386b9eb5c2)" d="M 408.14153 459.477656 
L 415.973109 459.477656 
L 415.973109 228.481014 
L 408.14153 228.481014 
z
" style="fill:#2ca02c;opacity:0.8;"/>
   </g>
   <g id="patch_49">
    <path clip-path="url(#p386b9eb5c2)" d="M 455.131003 459.477656 
L 462.962582 459.477656 
L 462.962582 346.32773 
L 455.131003 346.32773 
z
" style="fill:#2ca02c;opacity:0.8;"/>
   </g>
   <g id="patch_50">
    <path clip-path="url(#p386b9eb5c2)" d="M 502.120477 459.477656 
L 509.952056 459.477656 
L 509.952056 359.137156 
L 502.120477 359.137156 
z
" style="fill:#2ca02c;opacity:0.8;"/>
   </g>
   <g id="patch_51">
    <path clip-path="url(#p386b9eb5c2)" d="M 549.109951 459.477656 
L 556.94153 459.477656 
L 556.94153 73.913945 
L 549.109951 73.913945 
z
" style="fill:#2ca02c;opacity:0.8;"/>
   </g>
   <g id="patch_52">
    <path clip-path="url(#p386b9eb5c2)" d="M 596.099424 459.477656 
L 603.931003 459.477656 
L 603.931003 122.589762 
L 596.099424 122.589762 
z
" style="fill:#2ca02c;opacity:0.8;"/>
   </g>
   <g id="patch_53">
    <path clip-path="url(#p386b9eb5c2)" d="M 643.088898 459.477656 
L 650.920477 459.477656 
L 650.920477 248.549114 
L 643.088898 248.549114 
z
" style="fill:#2ca02c;opacity:0.8;"/>
   </g>
   <g id="patch_54">
    <path clip-path="url(#p386b9eb5c2)" d="M 690.078372 459.477656 
L 697.909951 459.477656 
L 697.909951 176.816331 
L 690.078372 176.816331 
z
" style="fill:#2ca02c;opacity:0.8;"/>
   </g>
   <g id="patch_55">
    <path clip-path="url(#p386b9eb5c2)" d="M 737.067845 459.477656 
L 744.899424 459.477656 
L 744.899424 178.524254 
L 737.067845 178.524254 
z
" style="fill:#2ca02c;opacity:0.8;"/>
   </g>
   <g id="patch_56">
    <path clip-path="url(#p386b9eb5c2)" d="M 784.057319 459.477656 
L 791.888898 459.477656 
L 791.888898 401.835241 
L 784.057319 401.835241 
z
" style="fill:#2ca02c;opacity:0.8;"/>
   </g>
   <g id="patch_57">
    <path clip-path="url(#p386b9eb5c2)" d="M 831.046793 459.477656 
L 838.878372 459.477656 
L 838.878372 292.955123 
L 831.046793 292.955123 
z
" style="fill:#2ca02c;opacity:0.8;"/>
   </g>
   <g id="patch_58">
    <path clip-path="url(#p386b9eb5c2)" d="M 878.036266 459.477656 
L 885.867845 459.477656 
L 885.867845 46.160189 
L 878.036266 46.160189 
z
" style="fill:#2ca02c;opacity:0.8;"/>
   </g>
   <g id="patch_59">
    <path clip-path="url(#p386b9eb5c2)" d="M 925.02574 459.477656 
L 932.857319 459.477656 
L 932.857319 141.37692 
L 925.02574 141.37692 
z
" style="fill:#2ca02c;opacity:0.8;"/>
   </g>
   <g id="matplotlib.axis_1">
    <g id="xtick_1">
     <g id="line2d_1">
      <defs>
       <path d="M 0 0 
L 0 3.5 
" id="mf6e5968022" style="stroke:#000000;stroke-width:0.8;"/>
      </defs>
      <g>
       <use style="stroke:#000000;stroke-width:0.8;" x="75.299424" xlink:href="#mf6e5968022" y="459.477656"/>
      </g>
     </g>
     <g id="text_1">
      <!-- All Cancer Sites Combined -->
      <defs>
       <path d="M 34.1875 63.1875 
L 20.796875 26.90625 
L 47.609375 26.90625 
z
M 28.609375 72.90625 
L 39.796875 72.90625 
L 67.578125 0 
L 57.328125 0 
L 50.6875 18.703125 
L 17.828125 18.703125 
L 11.1875 0 
L 0.78125 0 
z
" id="DejaVuSans-65"/>
       <path d="M 9.421875 75.984375 
L 18.40625 75.984375 
L 18.40625 0 
L 9.421875 0 
z
" id="DejaVuSans-108"/>
       <path id="DejaVuSans-32"/>
       <path d="M 64.40625 67.28125 
L 64.40625 56.890625 
Q 59.421875 61.53125 53.78125 63.8125 
Q 48.140625 66.109375 41.796875 66.109375 
Q 29.296875 66.109375 22.65625 58.46875 
Q 16.015625 50.828125 16.015625 36.375 
Q 16.015625 21.96875 22.65625 14.328125 
Q 29.296875 6.6875 41.796875 6.6875 
Q 48.140625 6.6875 53.78125 8.984375 
Q 59.421875 11.28125 64.40625 15.921875 
L 64.40625 5.609375 
Q 59.234375 2.09375 53.4375 0.328125 
Q 47.65625 -1.421875 41.21875 -1.421875 
Q 24.65625 -1.421875 15.125 8.703125 
Q 5.609375 18.84375 5.609375 36.375 
Q 5.609375 53.953125 15.125 64.078125 
Q 24.65625 74.21875 41.21875 74.21875 
Q 47.75 74.21875 53.53125 72.484375 
Q 59.328125 70.75 64.40625 67.28125 
z
" id="DejaVuSans-67"/>
       <path d="M 34.28125 27.484375 
Q 23.390625 27.484375 19.1875 25 
Q 14.984375 22.515625 14.984375 16.5 
Q 14.984375 11.71875 18.140625 8.90625 
Q 21.296875 6.109375 26.703125 6.109375 
Q 34.1875 6.109375 38.703125 11.40625 
Q 43.21875 16.703125 43.21875 25.484375 
L 43.21875 27.484375 
z
M 52.203125 31.203125 
L 52.203125 0 
L 43.21875 0 
L 43.21875 8.296875 
Q 40.140625 3.328125 35.546875 0.953125 
Q 30.953125 -1.421875 24.3125 -1.421875 
Q 15.921875 -1.421875 10.953125 3.296875 
Q 6 8.015625 6 15.921875 
Q 6 25.140625 12.171875 29.828125 
Q 18.359375 34.515625 30.609375 34.515625 
L 43.21875 34.515625 
L 43.21875 35.40625 
Q 43.21875 41.609375 39.140625 45 
Q 35.0625 48.390625 27.6875 48.390625 
Q 23 48.390625 18.546875 47.265625 
Q 14.109375 46.140625 10.015625 43.890625 
L 10.015625 52.203125 
Q 14.9375 54.109375 19.578125 55.046875 
Q 24.21875 56 28.609375 56 
Q 40.484375 56 46.34375 49.84375 
Q 52.203125 43.703125 52.203125 31.203125 
z
" id="DejaVuSans-97"/>
       <path d="M 54.890625 33.015625 
L 54.890625 0 
L 45.90625 0 
L 45.90625 32.71875 
Q 45.90625 40.484375 42.875 44.328125 
Q 39.84375 48.1875 33.796875 48.1875 
Q 26.515625 48.1875 22.3125 43.546875 
Q 18.109375 38.921875 18.109375 30.90625 
L 18.109375 0 
L 9.078125 0 
L 9.078125 54.6875 
L 18.109375 54.6875 
L 18.109375 46.1875 
Q 21.34375 51.125 25.703125 53.5625 
Q 30.078125 56 35.796875 56 
Q 45.21875 56 50.046875 50.171875 
Q 54.890625 44.34375 54.890625 33.015625 
z
" id="DejaVuSans-110"/>
       <path d="M 48.78125 52.59375 
L 48.78125 44.1875 
Q 44.96875 46.296875 41.140625 47.34375 
Q 37.3125 48.390625 33.40625 48.390625 
Q 24.65625 48.390625 19.8125 42.84375 
Q 14.984375 37.3125 14.984375 27.296875 
Q 14.984375 17.28125 19.8125 11.734375 
Q 24.65625 6.203125 33.40625 6.203125 
Q 37.3125 6.203125 41.140625 7.25 
Q 44.96875 8.296875 48.78125 10.40625 
L 48.78125 2.09375 
Q 45.015625 0.34375 40.984375 -0.53125 
Q 36.96875 -1.421875 32.421875 -1.421875 
Q 20.0625 -1.421875 12.78125 6.34375 
Q 5.515625 14.109375 5.515625 27.296875 
Q 5.515625 40.671875 12.859375 48.328125 
Q 20.21875 56 33.015625 56 
Q 37.15625 56 41.109375 55.140625 
Q 45.0625 54.296875 48.78125 52.59375 
z
" id="DejaVuSans-99"/>
       <path d="M 56.203125 29.59375 
L 56.203125 25.203125 
L 14.890625 25.203125 
Q 15.484375 15.921875 20.484375 11.0625 
Q 25.484375 6.203125 34.421875 6.203125 
Q 39.59375 6.203125 44.453125 7.46875 
Q 49.3125 8.734375 54.109375 11.28125 
L 54.109375 2.78125 
Q 49.265625 0.734375 44.1875 -0.34375 
Q 39.109375 -1.421875 33.890625 -1.421875 
Q 20.796875 -1.421875 13.15625 6.1875 
Q 5.515625 13.8125 5.515625 26.8125 
Q 5.515625 40.234375 12.765625 48.109375 
Q 20.015625 56 32.328125 56 
Q 43.359375 56 49.78125 48.890625 
Q 56.203125 41.796875 56.203125 29.59375 
z
M 47.21875 32.234375 
Q 47.125 39.59375 43.09375 43.984375 
Q 39.0625 48.390625 32.421875 48.390625 
Q 24.90625 48.390625 20.390625 44.140625 
Q 15.875 39.890625 15.1875 32.171875 
z
" id="DejaVuSans-101"/>
       <path d="M 41.109375 46.296875 
Q 39.59375 47.171875 37.8125 47.578125 
Q 36.03125 48 33.890625 48 
Q 26.265625 48 22.1875 43.046875 
Q 18.109375 38.09375 18.109375 28.8125 
L 18.109375 0 
L 9.078125 0 
L 9.078125 54.6875 
L 18.109375 54.6875 
L 18.109375 46.1875 
Q 20.953125 51.171875 25.484375 53.578125 
Q 30.03125 56 36.53125 56 
Q 37.453125 56 38.578125 55.875 
Q 39.703125 55.765625 41.0625 55.515625 
z
" id="DejaVuSans-114"/>
       <path d="M 53.515625 70.515625 
L 53.515625 60.890625 
Q 47.90625 63.578125 42.921875 64.890625 
Q 37.9375 66.21875 33.296875 66.21875 
Q 25.25 66.21875 20.875 63.09375 
Q 16.5 59.96875 16.5 54.203125 
Q 16.5 49.359375 19.40625 46.890625 
Q 22.3125 44.4375 30.421875 42.921875 
L 36.375 41.703125 
Q 47.40625 39.59375 52.65625 34.296875 
Q 57.90625 29 57.90625 20.125 
Q 57.90625 9.515625 50.796875 4.046875 
Q 43.703125 -1.421875 29.984375 -1.421875 
Q 24.8125 -1.421875 18.96875 -0.25 
Q 13.140625 0.921875 6.890625 3.21875 
L 6.890625 13.375 
Q 12.890625 10.015625 18.65625 8.296875 
Q 24.421875 6.59375 29.984375 6.59375 
Q 38.421875 6.59375 43.015625 9.90625 
Q 47.609375 13.234375 47.609375 19.390625 
Q 47.609375 24.75 44.3125 27.78125 
Q 41.015625 30.8125 33.5 32.328125 
L 27.484375 33.5 
Q 16.453125 35.6875 11.515625 40.375 
Q 6.59375 45.0625 6.59375 53.421875 
Q 6.59375 63.09375 13.40625 68.65625 
Q 20.21875 74.21875 32.171875 74.21875 
Q 37.3125 74.21875 42.625 73.28125 
Q 47.953125 72.359375 53.515625 70.515625 
z
" id="DejaVuSans-83"/>
       <path d="M 9.421875 54.6875 
L 18.40625 54.6875 
L 18.40625 0 
L 9.421875 0 
z
M 9.421875 75.984375 
L 18.40625 75.984375 
L 18.40625 64.59375 
L 9.421875 64.59375 
z
" id="DejaVuSans-105"/>
       <path d="M 18.3125 70.21875 
L 18.3125 54.6875 
L 36.8125 54.6875 
L 36.8125 47.703125 
L 18.3125 47.703125 
L 18.3125 18.015625 
Q 18.3125 11.328125 20.140625 9.421875 
Q 21.96875 7.515625 27.59375 7.515625 
L 36.8125 7.515625 
L 36.8125 0 
L 27.59375 0 
Q 17.1875 0 13.234375 3.875 
Q 9.28125 7.765625 9.28125 18.015625 
L 9.28125 47.703125 
L 2.6875 47.703125 
L 2.6875 54.6875 
L 9.28125 54.6875 
L 9.28125 70.21875 
z
" id="DejaVuSans-116"/>
       <path d="M 44.28125 53.078125 
L 44.28125 44.578125 
Q 40.484375 46.53125 36.375 47.5 
Q 32.28125 48.484375 27.875 48.484375 
Q 21.1875 48.484375 17.84375 46.4375 
Q 14.5 44.390625 14.5 40.28125 
Q 14.5 37.15625 16.890625 35.375 
Q 19.28125 33.59375 26.515625 31.984375 
L 29.59375 31.296875 
Q 39.15625 29.25 43.1875 25.515625 
Q 47.21875 21.78125 47.21875 15.09375 
Q 47.21875 7.46875 41.1875 3.015625 
Q 35.15625 -1.421875 24.609375 -1.421875 
Q 20.21875 -1.421875 15.453125 -0.5625 
Q 10.6875 0.296875 5.421875 2 
L 5.421875 11.28125 
Q 10.40625 8.6875 15.234375 7.390625 
Q 20.0625 6.109375 24.8125 6.109375 
Q 31.15625 6.109375 34.5625 8.28125 
Q 37.984375 10.453125 37.984375 14.40625 
Q 37.984375 18.0625 35.515625 20.015625 
Q 33.0625 21.96875 24.703125 23.78125 
L 21.578125 24.515625 
Q 13.234375 26.265625 9.515625 29.90625 
Q 5.8125 33.546875 5.8125 39.890625 
Q 5.8125 47.609375 11.28125 51.796875 
Q 16.75 56 26.8125 56 
Q 31.78125 56 36.171875 55.265625 
Q 40.578125 54.546875 44.28125 53.078125 
z
" id="DejaVuSans-115"/>
       <path d="M 30.609375 48.390625 
Q 23.390625 48.390625 19.1875 42.75 
Q 14.984375 37.109375 14.984375 27.296875 
Q 14.984375 17.484375 19.15625 11.84375 
Q 23.34375 6.203125 30.609375 6.203125 
Q 37.796875 6.203125 41.984375 11.859375 
Q 46.1875 17.53125 46.1875 27.296875 
Q 46.1875 37.015625 41.984375 42.703125 
Q 37.796875 48.390625 30.609375 48.390625 
z
M 30.609375 56 
Q 42.328125 56 49.015625 48.375 
Q 55.71875 40.765625 55.71875 27.296875 
Q 55.71875 13.875 49.015625 6.21875 
Q 42.328125 -1.421875 30.609375 -1.421875 
Q 18.84375 -1.421875 12.171875 6.21875 
Q 5.515625 13.875 5.515625 27.296875 
Q 5.515625 40.765625 12.171875 48.375 
Q 18.84375 56 30.609375 56 
z
" id="DejaVuSans-111"/>
       <path d="M 52 44.1875 
Q 55.375 50.25 60.0625 53.125 
Q 64.75 56 71.09375 56 
Q 79.640625 56 84.28125 50.015625 
Q 88.921875 44.046875 88.921875 33.015625 
L 88.921875 0 
L 79.890625 0 
L 79.890625 32.71875 
Q 79.890625 40.578125 77.09375 44.375 
Q 74.3125 48.1875 68.609375 48.1875 
Q 61.625 48.1875 57.5625 43.546875 
Q 53.515625 38.921875 53.515625 30.90625 
L 53.515625 0 
L 44.484375 0 
L 44.484375 32.71875 
Q 44.484375 40.625 41.703125 44.40625 
Q 38.921875 48.1875 33.109375 48.1875 
Q 26.21875 48.1875 22.15625 43.53125 
Q 18.109375 38.875 18.109375 30.90625 
L 18.109375 0 
L 9.078125 0 
L 9.078125 54.6875 
L 18.109375 54.6875 
L 18.109375 46.1875 
Q 21.1875 51.21875 25.484375 53.609375 
Q 29.78125 56 35.6875 56 
Q 41.65625 56 45.828125 52.96875 
Q 50 49.953125 52 44.1875 
z
" id="DejaVuSans-109"/>
       <path d="M 48.6875 27.296875 
Q 48.6875 37.203125 44.609375 42.84375 
Q 40.53125 48.484375 33.40625 48.484375 
Q 26.265625 48.484375 22.1875 42.84375 
Q 18.109375 37.203125 18.109375 27.296875 
Q 18.109375 17.390625 22.1875 11.75 
Q 26.265625 6.109375 33.40625 6.109375 
Q 40.53125 6.109375 44.609375 11.75 
Q 48.6875 17.390625 48.6875 27.296875 
z
M 18.109375 46.390625 
Q 20.953125 51.265625 25.265625 53.625 
Q 29.59375 56 35.59375 56 
Q 45.5625 56 51.78125 48.09375 
Q 58.015625 40.1875 58.015625 27.296875 
Q 58.015625 14.40625 51.78125 6.484375 
Q 45.5625 -1.421875 35.59375 -1.421875 
Q 29.59375 -1.421875 25.265625 0.953125 
Q 20.953125 3.328125 18.109375 8.203125 
L 18.109375 0 
L 9.078125 0 
L 9.078125 75.984375 
L 18.109375 75.984375 
z
" id="DejaVuSans-98"/>
       <path d="M 45.40625 46.390625 
L 45.40625 75.984375 
L 54.390625 75.984375 
L 54.390625 0 
L 45.40625 0 
L 45.40625 8.203125 
Q 42.578125 3.328125 38.25 0.953125 
Q 33.9375 -1.421875 27.875 -1.421875 
Q 17.96875 -1.421875 11.734375 6.484375 
Q 5.515625 14.40625 5.515625 27.296875 
Q 5.515625 40.1875 11.734375 48.09375 
Q 17.96875 56 27.875 56 
Q 33.9375 56 38.25 53.625 
Q 42.578125 51.265625 45.40625 46.390625 
z
M 14.796875 27.296875 
Q 14.796875 17.390625 18.875 11.75 
Q 22.953125 6.109375 30.078125 6.109375 
Q 37.203125 6.109375 41.296875 11.75 
Q 45.40625 17.390625 45.40625 27.296875 
Q 45.40625 37.203125 41.296875 42.84375 
Q 37.203125 48.484375 30.078125 48.484375 
Q 22.953125 48.484375 18.875 42.84375 
Q 14.796875 37.203125 14.796875 27.296875 
z
" id="DejaVuSans-100"/>
      </defs>
      <g transform="translate(78.058799 598.837031)rotate(-90)scale(0.1 -0.1)">
       <use xlink:href="#DejaVuSans-65"/>
       <use x="68.408203" xlink:href="#DejaVuSans-108"/>
       <use x="96.191406" xlink:href="#DejaVuSans-108"/>
       <use x="123.974609" xlink:href="#DejaVuSans-32"/>
       <use x="155.761719" xlink:href="#DejaVuSans-67"/>
       <use x="225.585938" xlink:href="#DejaVuSans-97"/>
       <use x="286.865234" xlink:href="#DejaVuSans-110"/>
       <use x="350.244141" xlink:href="#DejaVuSans-99"/>
       <use x="405.224609" xlink:href="#DejaVuSans-101"/>
       <use x="466.748047" xlink:href="#DejaVuSans-114"/>
       <use x="507.861328" xlink:href="#DejaVuSans-32"/>
       <use x="539.648438" xlink:href="#DejaVuSans-83"/>
       <use x="603.125" xlink:href="#DejaVuSans-105"/>
       <use x="630.908203" xlink:href="#DejaVuSans-116"/>
       <use x="670.117188" xlink:href="#DejaVuSans-101"/>
       <use x="731.640625" xlink:href="#DejaVuSans-115"/>
       <use x="783.740234" xlink:href="#DejaVuSans-32"/>
       <use x="815.527344" xlink:href="#DejaVuSans-67"/>
       <use x="885.351562" xlink:href="#DejaVuSans-111"/>
       <use x="946.533203" xlink:href="#DejaVuSans-109"/>
       <use x="1043.945312" xlink:href="#DejaVuSans-98"/>
       <use x="1107.421875" xlink:href="#DejaVuSans-105"/>
       <use x="1135.205078" xlink:href="#DejaVuSans-110"/>
       <use x="1198.583984" xlink:href="#DejaVuSans-101"/>
       <use x="1260.107422" xlink:href="#DejaVuSans-100"/>
      </g>
     </g>
    </g>
    <g id="xtick_2">
     <g id="line2d_2">
      <g>
       <use style="stroke:#000000;stroke-width:0.8;" x="122.288898" xlink:href="#mf6e5968022" y="459.477656"/>
      </g>
     </g>
     <g id="text_2">
      <!-- Brain and Other Nervous System -->
      <defs>
       <path d="M 19.671875 34.8125 
L 19.671875 8.109375 
L 35.5 8.109375 
Q 43.453125 8.109375 47.28125 11.40625 
Q 51.125 14.703125 51.125 21.484375 
Q 51.125 28.328125 47.28125 31.5625 
Q 43.453125 34.8125 35.5 34.8125 
z
M 19.671875 64.796875 
L 19.671875 42.828125 
L 34.28125 42.828125 
Q 41.5 42.828125 45.03125 45.53125 
Q 48.578125 48.25 48.578125 53.8125 
Q 48.578125 59.328125 45.03125 62.0625 
Q 41.5 64.796875 34.28125 64.796875 
z
M 9.8125 72.90625 
L 35.015625 72.90625 
Q 46.296875 72.90625 52.390625 68.21875 
Q 58.5 63.53125 58.5 54.890625 
Q 58.5 48.1875 55.375 44.234375 
Q 52.25 40.28125 46.1875 39.3125 
Q 53.46875 37.75 57.5 32.78125 
Q 61.53125 27.828125 61.53125 20.40625 
Q 61.53125 10.640625 54.890625 5.3125 
Q 48.25 0 35.984375 0 
L 9.8125 0 
z
" id="DejaVuSans-66"/>
       <path d="M 39.40625 66.21875 
Q 28.65625 66.21875 22.328125 58.203125 
Q 16.015625 50.203125 16.015625 36.375 
Q 16.015625 22.609375 22.328125 14.59375 
Q 28.65625 6.59375 39.40625 6.59375 
Q 50.140625 6.59375 56.421875 14.59375 
Q 62.703125 22.609375 62.703125 36.375 
Q 62.703125 50.203125 56.421875 58.203125 
Q 50.140625 66.21875 39.40625 66.21875 
z
M 39.40625 74.21875 
Q 54.734375 74.21875 63.90625 63.9375 
Q 73.09375 53.65625 73.09375 36.375 
Q 73.09375 19.140625 63.90625 8.859375 
Q 54.734375 -1.421875 39.40625 -1.421875 
Q 24.03125 -1.421875 14.8125 8.828125 
Q 5.609375 19.09375 5.609375 36.375 
Q 5.609375 53.65625 14.8125 63.9375 
Q 24.03125 74.21875 39.40625 74.21875 
z
" id="DejaVuSans-79"/>
       <path d="M 54.890625 33.015625 
L 54.890625 0 
L 45.90625 0 
L 45.90625 32.71875 
Q 45.90625 40.484375 42.875 44.328125 
Q 39.84375 48.1875 33.796875 48.1875 
Q 26.515625 48.1875 22.3125 43.546875 
Q 18.109375 38.921875 18.109375 30.90625 
L 18.109375 0 
L 9.078125 0 
L 9.078125 75.984375 
L 18.109375 75.984375 
L 18.109375 46.1875 
Q 21.34375 51.125 25.703125 53.5625 
Q 30.078125 56 35.796875 56 
Q 45.21875 56 50.046875 50.171875 
Q 54.890625 44.34375 54.890625 33.015625 
z
" id="DejaVuSans-104"/>
       <path d="M 9.8125 72.90625 
L 23.09375 72.90625 
L 55.421875 11.921875 
L 55.421875 72.90625 
L 64.984375 72.90625 
L 64.984375 0 
L 51.703125 0 
L 19.390625 60.984375 
L 19.390625 0 
L 9.8125 0 
z
" id="DejaVuSans-78"/>
       <path d="M 2.984375 54.6875 
L 12.5 54.6875 
L 29.59375 8.796875 
L 46.6875 54.6875 
L 56.203125 54.6875 
L 35.6875 0 
L 23.484375 0 
z
" id="DejaVuSans-118"/>
       <path d="M 8.5 21.578125 
L 8.5 54.6875 
L 17.484375 54.6875 
L 17.484375 21.921875 
Q 17.484375 14.15625 20.5 10.265625 
Q 23.53125 6.390625 29.59375 6.390625 
Q 36.859375 6.390625 41.078125 11.03125 
Q 45.3125 15.671875 45.3125 23.6875 
L 45.3125 54.6875 
L 54.296875 54.6875 
L 54.296875 0 
L 45.3125 0 
L 45.3125 8.40625 
Q 42.046875 3.421875 37.71875 1 
Q 33.40625 -1.421875 27.6875 -1.421875 
Q 18.265625 -1.421875 13.375 4.4375 
Q 8.5 10.296875 8.5 21.578125 
z
M 31.109375 56 
z
" id="DejaVuSans-117"/>
       <path d="M 32.171875 -5.078125 
Q 28.375 -14.84375 24.75 -17.8125 
Q 21.140625 -20.796875 15.09375 -20.796875 
L 7.90625 -20.796875 
L 7.90625 -13.28125 
L 13.1875 -13.28125 
Q 16.890625 -13.28125 18.9375 -11.515625 
Q 21 -9.765625 23.484375 -3.21875 
L 25.09375 0.875 
L 2.984375 54.6875 
L 12.5 54.6875 
L 29.59375 11.921875 
L 46.6875 54.6875 
L 56.203125 54.6875 
z
" id="DejaVuSans-121"/>
      </defs>
      <g transform="translate(125.048273 631.233906)rotate(-90)scale(0.1 -0.1)">
       <use xlink:href="#DejaVuSans-66"/>
       <use x="68.603516" xlink:href="#DejaVuSans-114"/>
       <use x="109.716797" xlink:href="#DejaVuSans-97"/>
       <use x="170.996094" xlink:href="#DejaVuSans-105"/>
       <use x="198.779297" xlink:href="#DejaVuSans-110"/>
       <use x="262.158203" xlink:href="#DejaVuSans-32"/>
       <use x="293.945312" xlink:href="#DejaVuSans-97"/>
       <use x="355.224609" xlink:href="#DejaVuSans-110"/>
       <use x="418.603516" xlink:href="#DejaVuSans-100"/>
       <use x="482.080078" xlink:href="#DejaVuSans-32"/>
       <use x="513.867188" xlink:href="#DejaVuSans-79"/>
       <use x="592.578125" xlink:href="#DejaVuSans-116"/>
       <use x="631.787109" xlink:href="#DejaVuSans-104"/>
       <use x="695.166016" xlink:href="#DejaVuSans-101"/>
       <use x="756.689453" xlink:href="#DejaVuSans-114"/>
       <use x="797.802734" xlink:href="#DejaVuSans-32"/>
       <use x="829.589844" xlink:href="#DejaVuSans-78"/>
       <use x="904.394531" xlink:href="#DejaVuSans-101"/>
       <use x="965.917969" xlink:href="#DejaVuSans-114"/>
       <use x="1007.03125" xlink:href="#DejaVuSans-118"/>
       <use x="1066.210938" xlink:href="#DejaVuSans-111"/>
       <use x="1127.392578" xlink:href="#DejaVuSans-117"/>
       <use x="1190.771484" xlink:href="#DejaVuSans-115"/>
       <use x="1242.871094" xlink:href="#DejaVuSans-32"/>
       <use x="1274.658203" xlink:href="#DejaVuSans-83"/>
       <use x="1338.134766" xlink:href="#DejaVuSans-121"/>
       <use x="1397.314453" xlink:href="#DejaVuSans-115"/>
       <use x="1449.414062" xlink:href="#DejaVuSans-116"/>
       <use x="1488.623047" xlink:href="#DejaVuSans-101"/>
       <use x="1550.146484" xlink:href="#DejaVuSans-109"/>
      </g>
     </g>
    </g>
    <g id="xtick_3">
     <g id="line2d_3">
      <g>
       <use style="stroke:#000000;stroke-width:0.8;" x="169.278372" xlink:href="#mf6e5968022" y="459.477656"/>
      </g>
     </g>
     <g id="text_3">
      <!-- Colon and Rectum -->
      <defs>
       <path d="M 44.390625 34.1875 
Q 47.5625 33.109375 50.5625 29.59375 
Q 53.5625 26.078125 56.59375 19.921875 
L 66.609375 0 
L 56 0 
L 46.6875 18.703125 
Q 43.0625 26.03125 39.671875 28.421875 
Q 36.28125 30.8125 30.421875 30.8125 
L 19.671875 30.8125 
L 19.671875 0 
L 9.8125 0 
L 9.8125 72.90625 
L 32.078125 72.90625 
Q 44.578125 72.90625 50.734375 67.671875 
Q 56.890625 62.453125 56.890625 51.90625 
Q 56.890625 45.015625 53.6875 40.46875 
Q 50.484375 35.9375 44.390625 34.1875 
z
M 19.671875 64.796875 
L 19.671875 38.921875 
L 32.078125 38.921875 
Q 39.203125 38.921875 42.84375 42.21875 
Q 46.484375 45.515625 46.484375 51.90625 
Q 46.484375 58.296875 42.84375 61.546875 
Q 39.203125 64.796875 32.078125 64.796875 
z
" id="DejaVuSans-82"/>
      </defs>
      <g transform="translate(172.037747 558.132344)rotate(-90)scale(0.1 -0.1)">
       <use xlink:href="#DejaVuSans-67"/>
       <use x="69.824219" xlink:href="#DejaVuSans-111"/>
       <use x="131.005859" xlink:href="#DejaVuSans-108"/>
       <use x="158.789062" xlink:href="#DejaVuSans-111"/>
       <use x="219.970703" xlink:href="#DejaVuSans-110"/>
       <use x="283.349609" xlink:href="#DejaVuSans-32"/>
       <use x="315.136719" xlink:href="#DejaVuSans-97"/>
       <use x="376.416016" xlink:href="#DejaVuSans-110"/>
       <use x="439.794922" xlink:href="#DejaVuSans-100"/>
       <use x="503.271484" xlink:href="#DejaVuSans-32"/>
       <use x="535.058594" xlink:href="#DejaVuSans-82"/>
       <use x="600.041016" xlink:href="#DejaVuSans-101"/>
       <use x="661.564453" xlink:href="#DejaVuSans-99"/>
       <use x="716.544922" xlink:href="#DejaVuSans-116"/>
       <use x="755.753906" xlink:href="#DejaVuSans-117"/>
       <use x="819.132812" xlink:href="#DejaVuSans-109"/>
      </g>
     </g>
    </g>
    <g id="xtick_4">
     <g id="line2d_4">
      <g>
       <use style="stroke:#000000;stroke-width:0.8;" x="216.267845" xlink:href="#mf6e5968022" y="459.477656"/>
      </g>
     </g>
     <g id="text_4">
      <!-- Esophagus -->
      <defs>
       <path d="M 9.8125 72.90625 
L 55.90625 72.90625 
L 55.90625 64.59375 
L 19.671875 64.59375 
L 19.671875 43.015625 
L 54.390625 43.015625 
L 54.390625 34.71875 
L 19.671875 34.71875 
L 19.671875 8.296875 
L 56.78125 8.296875 
L 56.78125 0 
L 9.8125 0 
z
" id="DejaVuSans-69"/>
       <path d="M 18.109375 8.203125 
L 18.109375 -20.796875 
L 9.078125 -20.796875 
L 9.078125 54.6875 
L 18.109375 54.6875 
L 18.109375 46.390625 
Q 20.953125 51.265625 25.265625 53.625 
Q 29.59375 56 35.59375 56 
Q 45.5625 56 51.78125 48.09375 
Q 58.015625 40.1875 58.015625 27.296875 
Q 58.015625 14.40625 51.78125 6.484375 
Q 45.5625 -1.421875 35.59375 -1.421875 
Q 29.59375 -1.421875 25.265625 0.953125 
Q 20.953125 3.328125 18.109375 8.203125 
z
M 48.6875 27.296875 
Q 48.6875 37.203125 44.609375 42.84375 
Q 40.53125 48.484375 33.40625 48.484375 
Q 26.265625 48.484375 22.1875 42.84375 
Q 18.109375 37.203125 18.109375 27.296875 
Q 18.109375 17.390625 22.1875 11.75 
Q 26.265625 6.109375 33.40625 6.109375 
Q 40.53125 6.109375 44.609375 11.75 
Q 48.6875 17.390625 48.6875 27.296875 
z
" id="DejaVuSans-112"/>
       <path d="M 45.40625 27.984375 
Q 45.40625 37.75 41.375 43.109375 
Q 37.359375 48.484375 30.078125 48.484375 
Q 22.859375 48.484375 18.828125 43.109375 
Q 14.796875 37.75 14.796875 27.984375 
Q 14.796875 18.265625 18.828125 12.890625 
Q 22.859375 7.515625 30.078125 7.515625 
Q 37.359375 7.515625 41.375 12.890625 
Q 45.40625 18.265625 45.40625 27.984375 
z
M 54.390625 6.78125 
Q 54.390625 -7.171875 48.1875 -13.984375 
Q 42 -20.796875 29.203125 -20.796875 
Q 24.46875 -20.796875 20.265625 -20.09375 
Q 16.0625 -19.390625 12.109375 -17.921875 
L 12.109375 -9.1875 
Q 16.0625 -11.328125 19.921875 -12.34375 
Q 23.78125 -13.375 27.78125 -13.375 
Q 36.625 -13.375 41.015625 -8.765625 
Q 45.40625 -4.15625 45.40625 5.171875 
L 45.40625 9.625 
Q 42.625 4.78125 38.28125 2.390625 
Q 33.9375 0 27.875 0 
Q 17.828125 0 11.671875 7.65625 
Q 5.515625 15.328125 5.515625 27.984375 
Q 5.515625 40.671875 11.671875 48.328125 
Q 17.828125 56 27.875 56 
Q 33.9375 56 38.28125 53.609375 
Q 42.625 51.21875 45.40625 46.390625 
L 45.40625 54.6875 
L 54.390625 54.6875 
z
" id="DejaVuSans-103"/>
      </defs>
      <g transform="translate(219.02722 520.833906)rotate(-90)scale(0.1 -0.1)">
       <use xlink:href="#DejaVuSans-69"/>
       <use x="63.183594" xlink:href="#DejaVuSans-115"/>
       <use x="115.283203" xlink:href="#DejaVuSans-111"/>
       <use x="176.464844" xlink:href="#DejaVuSans-112"/>
       <use x="239.941406" xlink:href="#DejaVuSans-104"/>
       <use x="303.320312" xlink:href="#DejaVuSans-97"/>
       <use x="364.599609" xlink:href="#DejaVuSans-103"/>
       <use x="428.076172" xlink:href="#DejaVuSans-117"/>
       <use x="491.455078" xlink:href="#DejaVuSans-115"/>
      </g>
     </g>
    </g>
    <g id="xtick_5">
     <g id="line2d_5">
      <g>
       <use style="stroke:#000000;stroke-width:0.8;" x="263.257319" xlink:href="#mf6e5968022" y="459.477656"/>
      </g>
     </g>
     <g id="text_5">
      <!-- Hodgkin Lymphoma -->
      <defs>
       <path d="M 9.8125 72.90625 
L 19.671875 72.90625 
L 19.671875 43.015625 
L 55.515625 43.015625 
L 55.515625 72.90625 
L 65.375 72.90625 
L 65.375 0 
L 55.515625 0 
L 55.515625 34.71875 
L 19.671875 34.71875 
L 19.671875 0 
L 9.8125 0 
z
" id="DejaVuSans-72"/>
       <path d="M 9.078125 75.984375 
L 18.109375 75.984375 
L 18.109375 31.109375 
L 44.921875 54.6875 
L 56.390625 54.6875 
L 27.390625 29.109375 
L 57.625 0 
L 45.90625 0 
L 18.109375 26.703125 
L 18.109375 0 
L 9.078125 0 
z
" id="DejaVuSans-107"/>
       <path d="M 9.8125 72.90625 
L 19.671875 72.90625 
L 19.671875 8.296875 
L 55.171875 8.296875 
L 55.171875 0 
L 9.8125 0 
z
" id="DejaVuSans-76"/>
      </defs>
      <g transform="translate(266.016694 565.890156)rotate(-90)scale(0.1 -0.1)">
       <use xlink:href="#DejaVuSans-72"/>
       <use x="75.195312" xlink:href="#DejaVuSans-111"/>
       <use x="136.376953" xlink:href="#DejaVuSans-100"/>
       <use x="199.853516" xlink:href="#DejaVuSans-103"/>
       <use x="263.330078" xlink:href="#DejaVuSans-107"/>
       <use x="321.240234" xlink:href="#DejaVuSans-105"/>
       <use x="349.023438" xlink:href="#DejaVuSans-110"/>
       <use x="412.402344" xlink:href="#DejaVuSans-32"/>
       <use x="444.189453" xlink:href="#DejaVuSans-76"/>
       <use x="490.777344" xlink:href="#DejaVuSans-121"/>
       <use x="549.957031" xlink:href="#DejaVuSans-109"/>
       <use x="647.369141" xlink:href="#DejaVuSans-112"/>
       <use x="710.845703" xlink:href="#DejaVuSans-104"/>
       <use x="774.224609" xlink:href="#DejaVuSans-111"/>
       <use x="835.40625" xlink:href="#DejaVuSans-109"/>
       <use x="932.818359" xlink:href="#DejaVuSans-97"/>
      </g>
     </g>
    </g>
    <g id="xtick_6">
     <g id="line2d_6">
      <g>
       <use style="stroke:#000000;stroke-width:0.8;" x="310.246793" xlink:href="#mf6e5968022" y="459.477656"/>
      </g>
     </g>
     <g id="text_6">
      <!-- Kidney and Renal Pelvis -->
      <defs>
       <path d="M 9.8125 72.90625 
L 19.671875 72.90625 
L 19.671875 42.09375 
L 52.390625 72.90625 
L 65.09375 72.90625 
L 28.90625 38.921875 
L 67.671875 0 
L 54.6875 0 
L 19.671875 35.109375 
L 19.671875 0 
L 9.8125 0 
z
" id="DejaVuSans-75"/>
       <path d="M 19.671875 64.796875 
L 19.671875 37.40625 
L 32.078125 37.40625 
Q 38.96875 37.40625 42.71875 40.96875 
Q 46.484375 44.53125 46.484375 51.125 
Q 46.484375 57.671875 42.71875 61.234375 
Q 38.96875 64.796875 32.078125 64.796875 
z
M 9.8125 72.90625 
L 32.078125 72.90625 
Q 44.34375 72.90625 50.609375 67.359375 
Q 56.890625 61.8125 56.890625 51.125 
Q 56.890625 40.328125 50.609375 34.8125 
Q 44.34375 29.296875 32.078125 29.296875 
L 19.671875 29.296875 
L 19.671875 0 
L 9.8125 0 
z
" id="DejaVuSans-80"/>
      </defs>
      <g transform="translate(313.006168 585.319844)rotate(-90)scale(0.1 -0.1)">
       <use xlink:href="#DejaVuSans-75"/>
       <use x="65.576172" xlink:href="#DejaVuSans-105"/>
       <use x="93.359375" xlink:href="#DejaVuSans-100"/>
       <use x="156.835938" xlink:href="#DejaVuSans-110"/>
       <use x="220.214844" xlink:href="#DejaVuSans-101"/>
       <use x="281.738281" xlink:href="#DejaVuSans-121"/>
       <use x="340.917969" xlink:href="#DejaVuSans-32"/>
       <use x="372.705078" xlink:href="#DejaVuSans-97"/>
       <use x="433.984375" xlink:href="#DejaVuSans-110"/>
       <use x="497.363281" xlink:href="#DejaVuSans-100"/>
       <use x="560.839844" xlink:href="#DejaVuSans-32"/>
       <use x="592.626953" xlink:href="#DejaVuSans-82"/>
       <use x="657.609375" xlink:href="#DejaVuSans-101"/>
       <use x="719.132812" xlink:href="#DejaVuSans-110"/>
       <use x="782.511719" xlink:href="#DejaVuSans-97"/>
       <use x="843.791016" xlink:href="#DejaVuSans-108"/>
       <use x="871.574219" xlink:href="#DejaVuSans-32"/>
       <use x="903.361328" xlink:href="#DejaVuSans-80"/>
       <use x="960.039062" xlink:href="#DejaVuSans-101"/>
       <use x="1021.5625" xlink:href="#DejaVuSans-108"/>
       <use x="1049.345703" xlink:href="#DejaVuSans-118"/>
       <use x="1108.525391" xlink:href="#DejaVuSans-105"/>
       <use x="1136.308594" xlink:href="#DejaVuSans-115"/>
      </g>
     </g>
    </g>
    <g id="xtick_7">
     <g id="line2d_7">
      <g>
       <use style="stroke:#000000;stroke-width:0.8;" x="357.236266" xlink:href="#mf6e5968022" y="459.477656"/>
      </g>
     </g>
     <g id="text_7">
      <!-- Larynx -->
      <defs>
       <path d="M 54.890625 54.6875 
L 35.109375 28.078125 
L 55.90625 0 
L 45.3125 0 
L 29.390625 21.484375 
L 13.484375 0 
L 2.875 0 
L 24.125 28.609375 
L 4.6875 54.6875 
L 15.28125 54.6875 
L 29.78125 35.203125 
L 44.28125 54.6875 
z
" id="DejaVuSans-120"/>
      </defs>
      <g transform="translate(359.995641 500.463594)rotate(-90)scale(0.1 -0.1)">
       <use xlink:href="#DejaVuSans-76"/>
       <use x="55.712891" xlink:href="#DejaVuSans-97"/>
       <use x="116.992188" xlink:href="#DejaVuSans-114"/>
       <use x="158.105469" xlink:href="#DejaVuSans-121"/>
       <use x="217.285156" xlink:href="#DejaVuSans-110"/>
       <use x="280.664062" xlink:href="#DejaVuSans-120"/>
      </g>
     </g>
    </g>
    <g id="xtick_8">
     <g id="line2d_8">
      <g>
       <use style="stroke:#000000;stroke-width:0.8;" x="404.22574" xlink:href="#mf6e5968022" y="459.477656"/>
      </g>
     </g>
     <g id="text_8">
      <!-- Leukemias -->
      <g transform="translate(406.985115 519.802656)rotate(-90)scale(0.1 -0.1)">
       <use xlink:href="#DejaVuSans-76"/>
       <use x="53.962891" xlink:href="#DejaVuSans-101"/>
       <use x="115.486328" xlink:href="#DejaVuSans-117"/>
       <use x="178.865234" xlink:href="#DejaVuSans-107"/>
       <use x="233.150391" xlink:href="#DejaVuSans-101"/>
       <use x="294.673828" xlink:href="#DejaVuSans-109"/>
       <use x="392.085938" xlink:href="#DejaVuSans-105"/>
       <use x="419.869141" xlink:href="#DejaVuSans-97"/>
       <use x="481.148438" xlink:href="#DejaVuSans-115"/>
      </g>
     </g>
    </g>
    <g id="xtick_9">
     <g id="line2d_9">
      <g>
       <use style="stroke:#000000;stroke-width:0.8;" x="451.215214" xlink:href="#mf6e5968022" y="459.477656"/>
      </g>
     </g>
     <g id="text_9">
      <!-- Liver and Intrahepatic Bile Duct -->
      <defs>
       <path d="M 9.8125 72.90625 
L 19.671875 72.90625 
L 19.671875 0 
L 9.8125 0 
z
" id="DejaVuSans-73"/>
       <path d="M 19.671875 64.796875 
L 19.671875 8.109375 
L 31.59375 8.109375 
Q 46.6875 8.109375 53.6875 14.9375 
Q 60.6875 21.78125 60.6875 36.53125 
Q 60.6875 51.171875 53.6875 57.984375 
Q 46.6875 64.796875 31.59375 64.796875 
z
M 9.8125 72.90625 
L 30.078125 72.90625 
Q 51.265625 72.90625 61.171875 64.09375 
Q 71.09375 55.28125 71.09375 36.53125 
Q 71.09375 17.671875 61.125 8.828125 
Q 51.171875 0 30.078125 0 
L 9.8125 0 
z
" id="DejaVuSans-68"/>
      </defs>
      <g transform="translate(453.974589 625.174531)rotate(-90)scale(0.1 -0.1)">
       <use xlink:href="#DejaVuSans-76"/>
       <use x="55.712891" xlink:href="#DejaVuSans-105"/>
       <use x="83.496094" xlink:href="#DejaVuSans-118"/>
       <use x="142.675781" xlink:href="#DejaVuSans-101"/>
       <use x="204.199219" xlink:href="#DejaVuSans-114"/>
       <use x="245.3125" xlink:href="#DejaVuSans-32"/>
       <use x="277.099609" xlink:href="#DejaVuSans-97"/>
       <use x="338.378906" xlink:href="#DejaVuSans-110"/>
       <use x="401.757812" xlink:href="#DejaVuSans-100"/>
       <use x="465.234375" xlink:href="#DejaVuSans-32"/>
       <use x="497.021484" xlink:href="#DejaVuSans-73"/>
       <use x="526.513672" xlink:href="#DejaVuSans-110"/>
       <use x="589.892578" xlink:href="#DejaVuSans-116"/>
       <use x="629.101562" xlink:href="#DejaVuSans-114"/>
       <use x="670.214844" xlink:href="#DejaVuSans-97"/>
       <use x="731.494141" xlink:href="#DejaVuSans-104"/>
       <use x="794.873047" xlink:href="#DejaVuSans-101"/>
       <use x="856.396484" xlink:href="#DejaVuSans-112"/>
       <use x="919.873047" xlink:href="#DejaVuSans-97"/>
       <use x="981.152344" xlink:href="#DejaVuSans-116"/>
       <use x="1020.361328" xlink:href="#DejaVuSans-105"/>
       <use x="1048.144531" xlink:href="#DejaVuSans-99"/>
       <use x="1103.125" xlink:href="#DejaVuSans-32"/>
       <use x="1134.912109" xlink:href="#DejaVuSans-66"/>
       <use x="1203.515625" xlink:href="#DejaVuSans-105"/>
       <use x="1231.298828" xlink:href="#DejaVuSans-108"/>
       <use x="1259.082031" xlink:href="#DejaVuSans-101"/>
       <use x="1320.605469" xlink:href="#DejaVuSans-32"/>
       <use x="1352.392578" xlink:href="#DejaVuSans-68"/>
       <use x="1429.394531" xlink:href="#DejaVuSans-117"/>
       <use x="1492.773438" xlink:href="#DejaVuSans-99"/>
       <use x="1547.753906" xlink:href="#DejaVuSans-116"/>
      </g>
     </g>
    </g>
    <g id="xtick_10">
     <g id="line2d_10">
      <g>
       <use style="stroke:#000000;stroke-width:0.8;" x="498.204687" xlink:href="#mf6e5968022" y="459.477656"/>
      </g>
     </g>
     <g id="text_10">
      <!-- Lung and Bronchus -->
      <g transform="translate(500.964062 562.654219)rotate(-90)scale(0.1 -0.1)">
       <use xlink:href="#DejaVuSans-76"/>
       <use x="53.962891" xlink:href="#DejaVuSans-117"/>
       <use x="117.341797" xlink:href="#DejaVuSans-110"/>
       <use x="180.720703" xlink:href="#DejaVuSans-103"/>
       <use x="244.197266" xlink:href="#DejaVuSans-32"/>
       <use x="275.984375" xlink:href="#DejaVuSans-97"/>
       <use x="337.263672" xlink:href="#DejaVuSans-110"/>
       <use x="400.642578" xlink:href="#DejaVuSans-100"/>
       <use x="464.119141" xlink:href="#DejaVuSans-32"/>
       <use x="495.90625" xlink:href="#DejaVuSans-66"/>
       <use x="564.509766" xlink:href="#DejaVuSans-114"/>
       <use x="603.373047" xlink:href="#DejaVuSans-111"/>
       <use x="664.554688" xlink:href="#DejaVuSans-110"/>
       <use x="727.933594" xlink:href="#DejaVuSans-99"/>
       <use x="782.914062" xlink:href="#DejaVuSans-104"/>
       <use x="846.292969" xlink:href="#DejaVuSans-117"/>
       <use x="909.671875" xlink:href="#DejaVuSans-115"/>
      </g>
     </g>
    </g>
    <g id="xtick_11">
     <g id="line2d_11">
      <g>
       <use style="stroke:#000000;stroke-width:0.8;" x="545.194161" xlink:href="#mf6e5968022" y="459.477656"/>
      </g>
     </g>
     <g id="text_11">
      <!-- Male and Female Breast -->
      <defs>
       <path d="M 9.8125 72.90625 
L 24.515625 72.90625 
L 43.109375 23.296875 
L 61.8125 72.90625 
L 76.515625 72.90625 
L 76.515625 0 
L 66.890625 0 
L 66.890625 64.015625 
L 48.09375 14.015625 
L 38.1875 14.015625 
L 19.390625 64.015625 
L 19.390625 0 
L 9.8125 0 
z
" id="DejaVuSans-77"/>
       <path d="M 9.8125 72.90625 
L 51.703125 72.90625 
L 51.703125 64.59375 
L 19.671875 64.59375 
L 19.671875 43.109375 
L 48.578125 43.109375 
L 48.578125 34.8125 
L 19.671875 34.8125 
L 19.671875 0 
L 9.8125 0 
z
" id="DejaVuSans-70"/>
      </defs>
      <g transform="translate(547.953536 586.826094)rotate(-90)scale(0.1 -0.1)">
       <use xlink:href="#DejaVuSans-77"/>
       <use x="86.279297" xlink:href="#DejaVuSans-97"/>
       <use x="147.558594" xlink:href="#DejaVuSans-108"/>
       <use x="175.341797" xlink:href="#DejaVuSans-101"/>
       <use x="236.865234" xlink:href="#DejaVuSans-32"/>
       <use x="268.652344" xlink:href="#DejaVuSans-97"/>
       <use x="329.931641" xlink:href="#DejaVuSans-110"/>
       <use x="393.310547" xlink:href="#DejaVuSans-100"/>
       <use x="456.787109" xlink:href="#DejaVuSans-32"/>
       <use x="488.574219" xlink:href="#DejaVuSans-70"/>
       <use x="540.59375" xlink:href="#DejaVuSans-101"/>
       <use x="602.117188" xlink:href="#DejaVuSans-109"/>
       <use x="699.529297" xlink:href="#DejaVuSans-97"/>
       <use x="760.808594" xlink:href="#DejaVuSans-108"/>
       <use x="788.591797" xlink:href="#DejaVuSans-101"/>
       <use x="850.115234" xlink:href="#DejaVuSans-32"/>
       <use x="881.902344" xlink:href="#DejaVuSans-66"/>
       <use x="950.505859" xlink:href="#DejaVuSans-114"/>
       <use x="989.369141" xlink:href="#DejaVuSans-101"/>
       <use x="1050.892578" xlink:href="#DejaVuSans-97"/>
       <use x="1112.171875" xlink:href="#DejaVuSans-115"/>
       <use x="1164.271484" xlink:href="#DejaVuSans-116"/>
      </g>
     </g>
    </g>
    <g id="xtick_12">
     <g id="line2d_12">
      <g>
       <use style="stroke:#000000;stroke-width:0.8;" x="592.183635" xlink:href="#mf6e5968022" y="459.477656"/>
      </g>
     </g>
     <g id="text_12">
      <!-- Melanomas of the Skin -->
      <defs>
       <path d="M 37.109375 75.984375 
L 37.109375 68.5 
L 28.515625 68.5 
Q 23.6875 68.5 21.796875 66.546875 
Q 19.921875 64.59375 19.921875 59.515625 
L 19.921875 54.6875 
L 34.71875 54.6875 
L 34.71875 47.703125 
L 19.921875 47.703125 
L 19.921875 0 
L 10.890625 0 
L 10.890625 47.703125 
L 2.296875 47.703125 
L 2.296875 54.6875 
L 10.890625 54.6875 
L 10.890625 58.5 
Q 10.890625 67.625 15.140625 71.796875 
Q 19.390625 75.984375 28.609375 75.984375 
z
" id="DejaVuSans-102"/>
      </defs>
      <g transform="translate(594.94301 580.538594)rotate(-90)scale(0.1 -0.1)">
       <use xlink:href="#DejaVuSans-77"/>
       <use x="86.279297" xlink:href="#DejaVuSans-101"/>
       <use x="147.802734" xlink:href="#DejaVuSans-108"/>
       <use x="175.585938" xlink:href="#DejaVuSans-97"/>
       <use x="236.865234" xlink:href="#DejaVuSans-110"/>
       <use x="300.244141" xlink:href="#DejaVuSans-111"/>
       <use x="361.425781" xlink:href="#DejaVuSans-109"/>
       <use x="458.837891" xlink:href="#DejaVuSans-97"/>
       <use x="520.117188" xlink:href="#DejaVuSans-115"/>
       <use x="572.216797" xlink:href="#DejaVuSans-32"/>
       <use x="604.003906" xlink:href="#DejaVuSans-111"/>
       <use x="665.185547" xlink:href="#DejaVuSans-102"/>
       <use x="700.390625" xlink:href="#DejaVuSans-32"/>
       <use x="732.177734" xlink:href="#DejaVuSans-116"/>
       <use x="771.386719" xlink:href="#DejaVuSans-104"/>
       <use x="834.765625" xlink:href="#DejaVuSans-101"/>
       <use x="896.289062" xlink:href="#DejaVuSans-32"/>
       <use x="928.076172" xlink:href="#DejaVuSans-83"/>
       <use x="991.552734" xlink:href="#DejaVuSans-107"/>
       <use x="1049.462891" xlink:href="#DejaVuSans-105"/>
       <use x="1077.246094" xlink:href="#DejaVuSans-110"/>
      </g>
     </g>
    </g>
    <g id="xtick_13">
     <g id="line2d_13">
      <g>
       <use style="stroke:#000000;stroke-width:0.8;" x="639.173109" xlink:href="#mf6e5968022" y="459.477656"/>
      </g>
     </g>
     <g id="text_13">
      <!-- Myeloma -->
      <g transform="translate(641.932484 511.943281)rotate(-90)scale(0.1 -0.1)">
       <use xlink:href="#DejaVuSans-77"/>
       <use x="86.279297" xlink:href="#DejaVuSans-121"/>
       <use x="145.458984" xlink:href="#DejaVuSans-101"/>
       <use x="206.982422" xlink:href="#DejaVuSans-108"/>
       <use x="234.765625" xlink:href="#DejaVuSans-111"/>
       <use x="295.947266" xlink:href="#DejaVuSans-109"/>
       <use x="393.359375" xlink:href="#DejaVuSans-97"/>
      </g>
     </g>
    </g>
    <g id="xtick_14">
     <g id="line2d_14">
      <g>
       <use style="stroke:#000000;stroke-width:0.8;" x="686.162582" xlink:href="#mf6e5968022" y="459.477656"/>
      </g>
     </g>
     <g id="text_14">
      <!-- Non-Hodgkin Lymphoma -->
      <defs>
       <path d="M 4.890625 31.390625 
L 31.203125 31.390625 
L 31.203125 23.390625 
L 4.890625 23.390625 
z
" id="DejaVuSans-45"/>
      </defs>
      <g transform="translate(688.921957 589.435469)rotate(-90)scale(0.1 -0.1)">
       <use xlink:href="#DejaVuSans-78"/>
       <use x="74.804688" xlink:href="#DejaVuSans-111"/>
       <use x="135.986328" xlink:href="#DejaVuSans-110"/>
       <use x="199.365234" xlink:href="#DejaVuSans-45"/>
       <use x="235.449219" xlink:href="#DejaVuSans-72"/>
       <use x="310.644531" xlink:href="#DejaVuSans-111"/>
       <use x="371.826172" xlink:href="#DejaVuSans-100"/>
       <use x="435.302734" xlink:href="#DejaVuSans-103"/>
       <use x="498.779297" xlink:href="#DejaVuSans-107"/>
       <use x="556.689453" xlink:href="#DejaVuSans-105"/>
       <use x="584.472656" xlink:href="#DejaVuSans-110"/>
       <use x="647.851562" xlink:href="#DejaVuSans-32"/>
       <use x="679.638672" xlink:href="#DejaVuSans-76"/>
       <use x="726.226562" xlink:href="#DejaVuSans-121"/>
       <use x="785.40625" xlink:href="#DejaVuSans-109"/>
       <use x="882.818359" xlink:href="#DejaVuSans-112"/>
       <use x="946.294922" xlink:href="#DejaVuSans-104"/>
       <use x="1009.673828" xlink:href="#DejaVuSans-111"/>
       <use x="1070.855469" xlink:href="#DejaVuSans-109"/>
       <use x="1168.267578" xlink:href="#DejaVuSans-97"/>
      </g>
     </g>
    </g>
    <g id="xtick_15">
     <g id="line2d_15">
      <g>
       <use style="stroke:#000000;stroke-width:0.8;" x="733.152056" xlink:href="#mf6e5968022" y="459.477656"/>
      </g>
     </g>
     <g id="text_15">
      <!-- Oral Cavity and Pharynx -->
      <g transform="translate(735.911431 588.143281)rotate(-90)scale(0.1 -0.1)">
       <use xlink:href="#DejaVuSans-79"/>
       <use x="78.710938" xlink:href="#DejaVuSans-114"/>
       <use x="119.824219" xlink:href="#DejaVuSans-97"/>
       <use x="181.103516" xlink:href="#DejaVuSans-108"/>
       <use x="208.886719" xlink:href="#DejaVuSans-32"/>
       <use x="240.673828" xlink:href="#DejaVuSans-67"/>
       <use x="310.498047" xlink:href="#DejaVuSans-97"/>
       <use x="371.777344" xlink:href="#DejaVuSans-118"/>
       <use x="430.957031" xlink:href="#DejaVuSans-105"/>
       <use x="458.740234" xlink:href="#DejaVuSans-116"/>
       <use x="497.949219" xlink:href="#DejaVuSans-121"/>
       <use x="557.128906" xlink:href="#DejaVuSans-32"/>
       <use x="588.916016" xlink:href="#DejaVuSans-97"/>
       <use x="650.195312" xlink:href="#DejaVuSans-110"/>
       <use x="713.574219" xlink:href="#DejaVuSans-100"/>
       <use x="777.050781" xlink:href="#DejaVuSans-32"/>
       <use x="808.837891" xlink:href="#DejaVuSans-80"/>
       <use x="869.140625" xlink:href="#DejaVuSans-104"/>
       <use x="932.519531" xlink:href="#DejaVuSans-97"/>
       <use x="993.798828" xlink:href="#DejaVuSans-114"/>
       <use x="1034.912109" xlink:href="#DejaVuSans-121"/>
       <use x="1094.091797" xlink:href="#DejaVuSans-110"/>
       <use x="1157.470703" xlink:href="#DejaVuSans-120"/>
      </g>
     </g>
    </g>
    <g id="xtick_16">
     <g id="line2d_16">
      <g>
       <use style="stroke:#000000;stroke-width:0.8;" x="780.14153" xlink:href="#mf6e5968022" y="459.477656"/>
      </g>
     </g>
     <g id="text_16">
      <!-- Pancreas -->
      <g transform="translate(782.900905 511.397969)rotate(-90)scale(0.1 -0.1)">
       <use xlink:href="#DejaVuSans-80"/>
       <use x="55.802734" xlink:href="#DejaVuSans-97"/>
       <use x="117.082031" xlink:href="#DejaVuSans-110"/>
       <use x="180.460938" xlink:href="#DejaVuSans-99"/>
       <use x="235.441406" xlink:href="#DejaVuSans-114"/>
       <use x="274.304688" xlink:href="#DejaVuSans-101"/>
       <use x="335.828125" xlink:href="#DejaVuSans-97"/>
       <use x="397.107422" xlink:href="#DejaVuSans-115"/>
      </g>
     </g>
    </g>
    <g id="xtick_17">
     <g id="line2d_17">
      <g>
       <use style="stroke:#000000;stroke-width:0.8;" x="827.131003" xlink:href="#mf6e5968022" y="459.477656"/>
      </g>
     </g>
     <g id="text_17">
      <!-- Stomach -->
      <g transform="translate(829.890378 510.569844)rotate(-90)scale(0.1 -0.1)">
       <use xlink:href="#DejaVuSans-83"/>
       <use x="63.476562" xlink:href="#DejaVuSans-116"/>
       <use x="102.685547" xlink:href="#DejaVuSans-111"/>
       <use x="163.867188" xlink:href="#DejaVuSans-109"/>
       <use x="261.279297" xlink:href="#DejaVuSans-97"/>
       <use x="322.558594" xlink:href="#DejaVuSans-99"/>
       <use x="377.539062" xlink:href="#DejaVuSans-104"/>
      </g>
     </g>
    </g>
    <g id="xtick_18">
     <g id="line2d_18">
      <g>
       <use style="stroke:#000000;stroke-width:0.8;" x="874.120477" xlink:href="#mf6e5968022" y="459.477656"/>
      </g>
     </g>
     <g id="text_18">
      <!-- Thyroid -->
      <defs>
       <path d="M -0.296875 72.90625 
L 61.375 72.90625 
L 61.375 64.59375 
L 35.5 64.59375 
L 35.5 0 
L 25.59375 0 
L 25.59375 64.59375 
L -0.296875 64.59375 
z
" id="DejaVuSans-84"/>
      </defs>
      <g transform="translate(876.879852 503.972969)rotate(-90)scale(0.1 -0.1)">
       <use xlink:href="#DejaVuSans-84"/>
       <use x="61.083984" xlink:href="#DejaVuSans-104"/>
       <use x="124.462891" xlink:href="#DejaVuSans-121"/>
       <use x="183.642578" xlink:href="#DejaVuSans-114"/>
       <use x="222.505859" xlink:href="#DejaVuSans-111"/>
       <use x="283.6875" xlink:href="#DejaVuSans-105"/>
       <use x="311.470703" xlink:href="#DejaVuSans-100"/>
      </g>
     </g>
    </g>
    <g id="xtick_19">
     <g id="line2d_19">
      <g>
       <use style="stroke:#000000;stroke-width:0.8;" x="921.109951" xlink:href="#mf6e5968022" y="459.477656"/>
      </g>
     </g>
     <g id="text_19">
      <!-- Urinary Bladder -->
      <defs>
       <path d="M 8.6875 72.90625 
L 18.609375 72.90625 
L 18.609375 28.609375 
Q 18.609375 16.890625 22.84375 11.734375 
Q 27.09375 6.59375 36.625 6.59375 
Q 46.09375 6.59375 50.34375 11.734375 
Q 54.59375 16.890625 54.59375 28.609375 
L 54.59375 72.90625 
L 64.5 72.90625 
L 64.5 27.390625 
Q 64.5 13.140625 57.4375 5.859375 
Q 50.390625 -1.421875 36.625 -1.421875 
Q 22.796875 -1.421875 15.734375 5.859375 
Q 8.6875 13.140625 8.6875 27.390625 
z
" id="DejaVuSans-85"/>
      </defs>
      <g transform="translate(923.869326 545.087031)rotate(-90)scale(0.1 -0.1)">
       <use xlink:href="#DejaVuSans-85"/>
       <use x="73.193359" xlink:href="#DejaVuSans-114"/>
       <use x="114.306641" xlink:href="#DejaVuSans-105"/>
       <use x="142.089844" xlink:href="#DejaVuSans-110"/>
       <use x="205.46875" xlink:href="#DejaVuSans-97"/>
       <use x="266.748047" xlink:href="#DejaVuSans-114"/>
       <use x="307.861328" xlink:href="#DejaVuSans-121"/>
       <use x="367.041016" xlink:href="#DejaVuSans-32"/>
       <use x="398.828125" xlink:href="#DejaVuSans-66"/>
       <use x="467.431641" xlink:href="#DejaVuSans-108"/>
       <use x="495.214844" xlink:href="#DejaVuSans-97"/>
       <use x="556.494141" xlink:href="#DejaVuSans-100"/>
       <use x="619.970703" xlink:href="#DejaVuSans-100"/>
       <use x="683.447266" xlink:href="#DejaVuSans-101"/>
       <use x="744.970703" xlink:href="#DejaVuSans-114"/>
      </g>
     </g>
    </g>
    <g id="text_20">
     <!-- Race -->
     <defs>
      <path d="M 35.890625 40.578125 
Q 41.796875 40.578125 44.359375 42.765625 
Q 46.921875 44.96875 46.921875 50 
Q 46.921875 54.984375 44.359375 57.125 
Q 41.796875 59.28125 35.890625 59.28125 
L 27.984375 59.28125 
L 27.984375 40.578125 
z
M 27.984375 27.59375 
L 27.984375 0 
L 9.1875 0 
L 9.1875 72.90625 
L 37.890625 72.90625 
Q 52.296875 72.90625 59 68.0625 
Q 65.71875 63.234375 65.71875 52.78125 
Q 65.71875 45.5625 62.21875 40.921875 
Q 58.734375 36.28125 51.703125 34.078125 
Q 55.5625 33.203125 58.609375 30.09375 
Q 61.671875 27 64.796875 20.703125 
L 75 0 
L 54.984375 0 
L 46.09375 18.109375 
Q 43.40625 23.578125 40.640625 25.578125 
Q 37.890625 27.59375 33.296875 27.59375 
z
" id="DejaVuSans-Bold-82"/>
      <path d="M 32.90625 24.609375 
Q 27.4375 24.609375 24.671875 22.75 
Q 21.921875 20.90625 21.921875 17.28125 
Q 21.921875 13.96875 24.140625 12.078125 
Q 26.375 10.203125 30.328125 10.203125 
Q 35.25 10.203125 38.625 13.734375 
Q 42 17.28125 42 22.609375 
L 42 24.609375 
z
M 59.625 31.203125 
L 59.625 0 
L 42 0 
L 42 8.109375 
Q 38.484375 3.125 34.078125 0.84375 
Q 29.6875 -1.421875 23.390625 -1.421875 
Q 14.890625 -1.421875 9.59375 3.53125 
Q 4.296875 8.5 4.296875 16.40625 
Q 4.296875 26.03125 10.90625 30.515625 
Q 17.53125 35.015625 31.6875 35.015625 
L 42 35.015625 
L 42 36.375 
Q 42 40.53125 38.71875 42.453125 
Q 35.453125 44.390625 28.515625 44.390625 
Q 22.90625 44.390625 18.0625 43.265625 
Q 13.234375 42.140625 9.078125 39.890625 
L 9.078125 53.21875 
Q 14.703125 54.59375 20.359375 55.296875 
Q 26.03125 56 31.6875 56 
Q 46.484375 56 53.046875 50.171875 
Q 59.625 44.34375 59.625 31.203125 
z
" id="DejaVuSans-Bold-97"/>
      <path d="M 52.59375 52.984375 
L 52.59375 38.71875 
Q 49.03125 41.15625 45.4375 42.328125 
Q 41.84375 43.5 37.984375 43.5 
Q 30.671875 43.5 26.59375 39.234375 
Q 22.515625 34.96875 22.515625 27.296875 
Q 22.515625 19.625 26.59375 15.34375 
Q 30.671875 11.078125 37.984375 11.078125 
Q 42.09375 11.078125 45.78125 12.296875 
Q 49.46875 13.53125 52.59375 15.921875 
L 52.59375 1.609375 
Q 48.484375 0.09375 44.265625 -0.65625 
Q 40.046875 -1.421875 35.796875 -1.421875 
Q 21 -1.421875 12.640625 6.171875 
Q 4.296875 13.765625 4.296875 27.296875 
Q 4.296875 40.828125 12.640625 48.40625 
Q 21 56 35.796875 56 
Q 40.09375 56 44.265625 55.25 
Q 48.4375 54.5 52.59375 52.984375 
z
" id="DejaVuSans-Bold-99"/>
      <path d="M 62.984375 27.484375 
L 62.984375 22.515625 
L 22.125 22.515625 
Q 22.75 16.359375 26.5625 13.28125 
Q 30.375 10.203125 37.203125 10.203125 
Q 42.71875 10.203125 48.5 11.84375 
Q 54.296875 13.484375 60.40625 16.796875 
L 60.40625 3.328125 
Q 54.203125 0.984375 48 -0.21875 
Q 41.796875 -1.421875 35.59375 -1.421875 
Q 20.75 -1.421875 12.515625 6.125 
Q 4.296875 13.671875 4.296875 27.296875 
Q 4.296875 40.671875 12.375 48.328125 
Q 20.453125 56 34.625 56 
Q 47.515625 56 55.25 48.234375 
Q 62.984375 40.484375 62.984375 27.484375 
z
M 45.015625 33.296875 
Q 45.015625 38.28125 42.109375 41.328125 
Q 39.203125 44.390625 34.515625 44.390625 
Q 29.4375 44.390625 26.265625 41.53125 
Q 23.09375 38.671875 22.3125 33.296875 
z
" id="DejaVuSans-Bold-101"/>
     </defs>
     <g transform="translate(477.835156 646.631562)scale(0.15 -0.15)">
      <use xlink:href="#DejaVuSans-Bold-82"/>
      <use x="77.001953" xlink:href="#DejaVuSans-Bold-97"/>
      <use x="144.482422" xlink:href="#DejaVuSans-Bold-99"/>
      <use x="203.759766" xlink:href="#DejaVuSans-Bold-101"/>
     </g>
    </g>
   </g>
   <g id="matplotlib.axis_2">
    <g id="ytick_1">
     <g id="line2d_20">
      <defs>
       <path d="M 0 0 
L -3.5 0 
" id="mca64b41868" style="stroke:#000000;stroke-width:0.8;"/>
      </defs>
      <g>
       <use style="stroke:#000000;stroke-width:0.8;" x="51.804688" xlink:href="#mca64b41868" y="459.477656"/>
      </g>
     </g>
     <g id="text_21">
      <!-- 0 -->
      <defs>
       <path d="M 31.78125 66.40625 
Q 24.171875 66.40625 20.328125 58.90625 
Q 16.5 51.421875 16.5 36.375 
Q 16.5 21.390625 20.328125 13.890625 
Q 24.171875 6.390625 31.78125 6.390625 
Q 39.453125 6.390625 43.28125 13.890625 
Q 47.125 21.390625 47.125 36.375 
Q 47.125 51.421875 43.28125 58.90625 
Q 39.453125 66.40625 31.78125 66.40625 
z
M 31.78125 74.21875 
Q 44.046875 74.21875 50.515625 64.515625 
Q 56.984375 54.828125 56.984375 36.375 
Q 56.984375 17.96875 50.515625 8.265625 
Q 44.046875 -1.421875 31.78125 -1.421875 
Q 19.53125 -1.421875 13.0625 8.265625 
Q 6.59375 17.96875 6.59375 36.375 
Q 6.59375 54.828125 13.0625 64.515625 
Q 19.53125 74.21875 31.78125 74.21875 
z
" id="DejaVuSans-48"/>
      </defs>
      <g transform="translate(38.442188 463.276875)scale(0.1 -0.1)">
       <use xlink:href="#DejaVuSans-48"/>
      </g>
     </g>
    </g>
    <g id="ytick_2">
     <g id="line2d_21">
      <g>
       <use style="stroke:#000000;stroke-width:0.8;" x="51.804688" xlink:href="#mca64b41868" y="374.081485"/>
      </g>
     </g>
     <g id="text_22">
      <!-- 20 -->
      <defs>
       <path d="M 19.1875 8.296875 
L 53.609375 8.296875 
L 53.609375 0 
L 7.328125 0 
L 7.328125 8.296875 
Q 12.9375 14.109375 22.625 23.890625 
Q 32.328125 33.6875 34.8125 36.53125 
Q 39.546875 41.84375 41.421875 45.53125 
Q 43.3125 49.21875 43.3125 52.78125 
Q 43.3125 58.59375 39.234375 62.25 
Q 35.15625 65.921875 28.609375 65.921875 
Q 23.96875 65.921875 18.8125 64.3125 
Q 13.671875 62.703125 7.8125 59.421875 
L 7.8125 69.390625 
Q 13.765625 71.78125 18.9375 73 
Q 24.125 74.21875 28.421875 74.21875 
Q 39.75 74.21875 46.484375 68.546875 
Q 53.21875 62.890625 53.21875 53.421875 
Q 53.21875 48.921875 51.53125 44.890625 
Q 49.859375 40.875 45.40625 35.40625 
Q 44.1875 33.984375 37.640625 27.21875 
Q 31.109375 20.453125 19.1875 8.296875 
z
" id="DejaVuSans-50"/>
      </defs>
      <g transform="translate(32.079688 377.880704)scale(0.1 -0.1)">
       <use xlink:href="#DejaVuSans-50"/>
       <use x="63.623047" xlink:href="#DejaVuSans-48"/>
      </g>
     </g>
    </g>
    <g id="ytick_3">
     <g id="line2d_22">
      <g>
       <use style="stroke:#000000;stroke-width:0.8;" x="51.804688" xlink:href="#mca64b41868" y="288.685315"/>
      </g>
     </g>
     <g id="text_23">
      <!-- 40 -->
      <defs>
       <path d="M 37.796875 64.3125 
L 12.890625 25.390625 
L 37.796875 25.390625 
z
M 35.203125 72.90625 
L 47.609375 72.90625 
L 47.609375 25.390625 
L 58.015625 25.390625 
L 58.015625 17.1875 
L 47.609375 17.1875 
L 47.609375 0 
L 37.796875 0 
L 37.796875 17.1875 
L 4.890625 17.1875 
L 4.890625 26.703125 
z
" id="DejaVuSans-52"/>
      </defs>
      <g transform="translate(32.079688 292.484533)scale(0.1 -0.1)">
       <use xlink:href="#DejaVuSans-52"/>
       <use x="63.623047" xlink:href="#DejaVuSans-48"/>
      </g>
     </g>
    </g>
    <g id="ytick_4">
     <g id="line2d_23">
      <g>
       <use style="stroke:#000000;stroke-width:0.8;" x="51.804688" xlink:href="#mca64b41868" y="203.289144"/>
      </g>
     </g>
     <g id="text_24">
      <!-- 60 -->
      <defs>
       <path d="M 33.015625 40.375 
Q 26.375 40.375 22.484375 35.828125 
Q 18.609375 31.296875 18.609375 23.390625 
Q 18.609375 15.53125 22.484375 10.953125 
Q 26.375 6.390625 33.015625 6.390625 
Q 39.65625 6.390625 43.53125 10.953125 
Q 47.40625 15.53125 47.40625 23.390625 
Q 47.40625 31.296875 43.53125 35.828125 
Q 39.65625 40.375 33.015625 40.375 
z
M 52.59375 71.296875 
L 52.59375 62.3125 
Q 48.875 64.0625 45.09375 64.984375 
Q 41.3125 65.921875 37.59375 65.921875 
Q 27.828125 65.921875 22.671875 59.328125 
Q 17.53125 52.734375 16.796875 39.40625 
Q 19.671875 43.65625 24.015625 45.921875 
Q 28.375 48.1875 33.59375 48.1875 
Q 44.578125 48.1875 50.953125 41.515625 
Q 57.328125 34.859375 57.328125 23.390625 
Q 57.328125 12.15625 50.6875 5.359375 
Q 44.046875 -1.421875 33.015625 -1.421875 
Q 20.359375 -1.421875 13.671875 8.265625 
Q 6.984375 17.96875 6.984375 36.375 
Q 6.984375 53.65625 15.1875 63.9375 
Q 23.390625 74.21875 37.203125 74.21875 
Q 40.921875 74.21875 44.703125 73.484375 
Q 48.484375 72.75 52.59375 71.296875 
z
" id="DejaVuSans-54"/>
      </defs>
      <g transform="translate(32.079688 207.088362)scale(0.1 -0.1)">
       <use xlink:href="#DejaVuSans-54"/>
       <use x="63.623047" xlink:href="#DejaVuSans-48"/>
      </g>
     </g>
    </g>
    <g id="ytick_5">
     <g id="line2d_24">
      <g>
       <use style="stroke:#000000;stroke-width:0.8;" x="51.804688" xlink:href="#mca64b41868" y="117.892973"/>
      </g>
     </g>
     <g id="text_25">
      <!-- 80 -->
      <defs>
       <path d="M 31.78125 34.625 
Q 24.75 34.625 20.71875 30.859375 
Q 16.703125 27.09375 16.703125 20.515625 
Q 16.703125 13.921875 20.71875 10.15625 
Q 24.75 6.390625 31.78125 6.390625 
Q 38.8125 6.390625 42.859375 10.171875 
Q 46.921875 13.96875 46.921875 20.515625 
Q 46.921875 27.09375 42.890625 30.859375 
Q 38.875 34.625 31.78125 34.625 
z
M 21.921875 38.8125 
Q 15.578125 40.375 12.03125 44.71875 
Q 8.5 49.078125 8.5 55.328125 
Q 8.5 64.0625 14.71875 69.140625 
Q 20.953125 74.21875 31.78125 74.21875 
Q 42.671875 74.21875 48.875 69.140625 
Q 55.078125 64.0625 55.078125 55.328125 
Q 55.078125 49.078125 51.53125 44.71875 
Q 48 40.375 41.703125 38.8125 
Q 48.828125 37.15625 52.796875 32.3125 
Q 56.78125 27.484375 56.78125 20.515625 
Q 56.78125 9.90625 50.3125 4.234375 
Q 43.84375 -1.421875 31.78125 -1.421875 
Q 19.734375 -1.421875 13.25 4.234375 
Q 6.78125 9.90625 6.78125 20.515625 
Q 6.78125 27.484375 10.78125 32.3125 
Q 14.796875 37.15625 21.921875 38.8125 
z
M 18.3125 54.390625 
Q 18.3125 48.734375 21.84375 45.5625 
Q 25.390625 42.390625 31.78125 42.390625 
Q 38.140625 42.390625 41.71875 45.5625 
Q 45.3125 48.734375 45.3125 54.390625 
Q 45.3125 60.0625 41.71875 63.234375 
Q 38.140625 66.40625 31.78125 66.40625 
Q 25.390625 66.40625 21.84375 63.234375 
Q 18.3125 60.0625 18.3125 54.390625 
z
" id="DejaVuSans-56"/>
      </defs>
      <g transform="translate(32.079688 121.692192)scale(0.1 -0.1)">
       <use xlink:href="#DejaVuSans-56"/>
       <use x="63.623047" xlink:href="#DejaVuSans-48"/>
      </g>
     </g>
    </g>
    <g id="ytick_6">
     <g id="line2d_25">
      <g>
       <use style="stroke:#000000;stroke-width:0.8;" x="51.804688" xlink:href="#mca64b41868" y="32.496802"/>
      </g>
     </g>
     <g id="text_26">
      <!-- 100 -->
      <defs>
       <path d="M 12.40625 8.296875 
L 28.515625 8.296875 
L 28.515625 63.921875 
L 10.984375 60.40625 
L 10.984375 69.390625 
L 28.421875 72.90625 
L 38.28125 72.90625 
L 38.28125 8.296875 
L 54.390625 8.296875 
L 54.390625 0 
L 12.40625 0 
z
" id="DejaVuSans-49"/>
      </defs>
      <g transform="translate(25.717188 36.296021)scale(0.1 -0.1)">
       <use xlink:href="#DejaVuSans-49"/>
       <use x="63.623047" xlink:href="#DejaVuSans-48"/>
       <use x="127.246094" xlink:href="#DejaVuSans-48"/>
      </g>
     </g>
    </g>
    <g id="text_27">
     <!-- 5-Year Relative Survival Rates (%) -->
     <defs>
      <path d="M 10.59375 72.90625 
L 57.328125 72.90625 
L 57.328125 59.078125 
L 25.59375 59.078125 
L 25.59375 47.796875 
Q 27.734375 48.390625 29.90625 48.703125 
Q 32.078125 49.03125 34.421875 49.03125 
Q 47.75 49.03125 55.171875 42.359375 
Q 62.59375 35.6875 62.59375 23.78125 
Q 62.59375 11.96875 54.515625 5.265625 
Q 46.4375 -1.421875 32.078125 -1.421875 
Q 25.875 -1.421875 19.796875 -0.21875 
Q 13.71875 0.984375 7.71875 3.421875 
L 7.71875 18.21875 
Q 13.671875 14.796875 19.015625 13.078125 
Q 24.359375 11.375 29.109375 11.375 
Q 35.9375 11.375 39.859375 14.71875 
Q 43.796875 18.0625 43.796875 23.78125 
Q 43.796875 29.546875 39.859375 32.859375 
Q 35.9375 36.1875 29.109375 36.1875 
Q 25.046875 36.1875 20.453125 35.125 
Q 15.875 34.078125 10.59375 31.890625 
z
" id="DejaVuSans-Bold-53"/>
      <path d="M 5.421875 35.890625 
L 36.078125 35.890625 
L 36.078125 21.6875 
L 5.421875 21.6875 
z
" id="DejaVuSans-Bold-45"/>
      <path d="M -0.984375 72.90625 
L 19.578125 72.90625 
L 36.1875 46.921875 
L 52.78125 72.90625 
L 73.390625 72.90625 
L 45.609375 30.71875 
L 45.609375 0 
L 26.8125 0 
L 26.8125 30.71875 
z
" id="DejaVuSans-Bold-89"/>
      <path d="M 49.03125 39.796875 
Q 46.734375 40.875 44.453125 41.375 
Q 42.1875 41.890625 39.890625 41.890625 
Q 33.15625 41.890625 29.515625 37.5625 
Q 25.875 33.25 25.875 25.203125 
L 25.875 0 
L 8.40625 0 
L 8.40625 54.6875 
L 25.875 54.6875 
L 25.875 45.703125 
Q 29.25 51.078125 33.609375 53.53125 
Q 37.984375 56 44.09375 56 
Q 44.96875 56 45.984375 55.921875 
Q 47.015625 55.859375 48.96875 55.609375 
z
" id="DejaVuSans-Bold-114"/>
      <path id="DejaVuSans-Bold-32"/>
      <path d="M 8.40625 75.984375 
L 25.875 75.984375 
L 25.875 0 
L 8.40625 0 
z
" id="DejaVuSans-Bold-108"/>
      <path d="M 27.484375 70.21875 
L 27.484375 54.6875 
L 45.515625 54.6875 
L 45.515625 42.1875 
L 27.484375 42.1875 
L 27.484375 19 
Q 27.484375 15.1875 29 13.84375 
Q 30.515625 12.5 35.015625 12.5 
L 44 12.5 
L 44 0 
L 29 0 
Q 18.65625 0 14.328125 4.3125 
Q 10.015625 8.640625 10.015625 19 
L 10.015625 42.1875 
L 1.3125 42.1875 
L 1.3125 54.6875 
L 10.015625 54.6875 
L 10.015625 70.21875 
z
" id="DejaVuSans-Bold-116"/>
      <path d="M 8.40625 54.6875 
L 25.875 54.6875 
L 25.875 0 
L 8.40625 0 
z
M 8.40625 75.984375 
L 25.875 75.984375 
L 25.875 61.71875 
L 8.40625 61.71875 
z
" id="DejaVuSans-Bold-105"/>
      <path d="M 1.515625 54.6875 
L 19 54.6875 
L 32.625 16.890625 
L 46.1875 54.6875 
L 63.71875 54.6875 
L 42.1875 0 
L 23 0 
z
" id="DejaVuSans-Bold-118"/>
      <path d="M 59.90625 70.609375 
L 59.90625 55.171875 
Q 53.90625 57.859375 48.1875 59.21875 
Q 42.484375 60.59375 37.40625 60.59375 
Q 30.671875 60.59375 27.4375 58.734375 
Q 24.21875 56.890625 24.21875 52.984375 
Q 24.21875 50.046875 26.390625 48.40625 
Q 28.5625 46.78125 34.28125 45.609375 
L 42.28125 44 
Q 54.4375 41.546875 59.5625 36.5625 
Q 64.703125 31.59375 64.703125 22.40625 
Q 64.703125 10.359375 57.546875 4.46875 
Q 50.390625 -1.421875 35.6875 -1.421875 
Q 28.765625 -1.421875 21.78125 -0.09375 
Q 14.796875 1.21875 7.8125 3.8125 
L 7.8125 19.671875 
Q 14.796875 15.96875 21.3125 14.078125 
Q 27.828125 12.203125 33.890625 12.203125 
Q 40.046875 12.203125 43.3125 14.25 
Q 46.578125 16.3125 46.578125 20.125 
Q 46.578125 23.53125 44.359375 25.390625 
Q 42.140625 27.25 35.5 28.71875 
L 28.21875 30.328125 
Q 17.28125 32.671875 12.21875 37.796875 
Q 7.171875 42.921875 7.171875 51.609375 
Q 7.171875 62.5 14.203125 68.359375 
Q 21.234375 74.21875 34.421875 74.21875 
Q 40.4375 74.21875 46.78125 73.3125 
Q 53.125 72.40625 59.90625 70.609375 
z
" id="DejaVuSans-Bold-83"/>
      <path d="M 7.8125 21.296875 
L 7.8125 54.6875 
L 25.390625 54.6875 
L 25.390625 49.21875 
Q 25.390625 44.78125 25.34375 38.0625 
Q 25.296875 31.34375 25.296875 29.109375 
Q 25.296875 22.515625 25.640625 19.609375 
Q 25.984375 16.703125 26.8125 15.375 
Q 27.875 13.671875 29.609375 12.734375 
Q 31.34375 11.8125 33.59375 11.8125 
Q 39.0625 11.8125 42.1875 16.015625 
Q 45.3125 20.21875 45.3125 27.6875 
L 45.3125 54.6875 
L 62.796875 54.6875 
L 62.796875 0 
L 45.3125 0 
L 45.3125 7.90625 
Q 41.359375 3.125 36.9375 0.84375 
Q 32.515625 -1.421875 27.203125 -1.421875 
Q 17.71875 -1.421875 12.765625 4.390625 
Q 7.8125 10.203125 7.8125 21.296875 
z
" id="DejaVuSans-Bold-117"/>
      <path d="M 51.125 52.984375 
L 51.125 39.703125 
Q 45.515625 42.046875 40.28125 43.21875 
Q 35.0625 44.390625 30.421875 44.390625 
Q 25.4375 44.390625 23.015625 43.140625 
Q 20.609375 41.890625 20.609375 39.3125 
Q 20.609375 37.203125 22.4375 36.078125 
Q 24.265625 34.96875 29 34.421875 
L 32.078125 33.984375 
Q 45.515625 32.28125 50.140625 28.375 
Q 54.78125 24.46875 54.78125 16.109375 
Q 54.78125 7.375 48.328125 2.96875 
Q 41.890625 -1.421875 29.109375 -1.421875 
Q 23.6875 -1.421875 17.890625 -0.5625 
Q 12.109375 0.296875 6 2 
L 6 15.28125 
Q 11.234375 12.75 16.71875 11.46875 
Q 22.21875 10.203125 27.875 10.203125 
Q 33.015625 10.203125 35.59375 11.609375 
Q 38.1875 13.03125 38.1875 15.828125 
Q 38.1875 18.171875 36.40625 19.3125 
Q 34.625 20.453125 29.296875 21.09375 
L 26.21875 21.484375 
Q 14.546875 22.953125 9.859375 26.90625 
Q 5.171875 30.859375 5.171875 38.921875 
Q 5.171875 47.609375 11.125 51.796875 
Q 17.09375 56 29.390625 56 
Q 34.234375 56 39.546875 55.265625 
Q 44.875 54.546875 51.125 52.984375 
z
" id="DejaVuSans-Bold-115"/>
      <path d="M 37.703125 -13.1875 
L 23.1875 -13.1875 
Q 15.71875 -1.125 12.15625 9.734375 
Q 8.59375 20.609375 8.59375 31.296875 
Q 8.59375 42 12.171875 52.953125 
Q 15.765625 63.921875 23.1875 75.875 
L 37.703125 75.875 
Q 31.453125 64.3125 28.328125 53.25 
Q 25.203125 42.1875 25.203125 31.390625 
Q 25.203125 20.609375 28.296875 9.515625 
Q 31.390625 -1.5625 37.703125 -13.1875 
z
" id="DejaVuSans-Bold-40"/>
      <path d="M 77.484375 30.078125 
Q 74.03125 30.078125 72.125 27.078125 
Q 70.21875 24.078125 70.21875 18.5 
Q 70.21875 12.890625 72.09375 9.890625 
Q 73.96875 6.890625 77.484375 6.890625 
Q 81 6.890625 82.859375 9.890625 
Q 84.71875 12.890625 84.71875 18.5 
Q 84.71875 24.078125 82.828125 27.078125 
Q 80.953125 30.078125 77.484375 30.078125 
z
M 77.484375 38.28125 
Q 86.578125 38.28125 91.796875 33 
Q 97.015625 27.734375 97.015625 18.5 
Q 97.015625 9.28125 91.796875 3.921875 
Q 86.578125 -1.421875 77.484375 -1.421875 
Q 68.40625 -1.421875 63.15625 3.921875 
Q 57.90625 9.28125 57.90625 18.5 
Q 57.90625 27.6875 63.15625 32.984375 
Q 68.40625 38.28125 77.484375 38.28125 
z
M 32.71875 -1.421875 
L 21.921875 -1.421875 
L 67.484375 74.21875 
L 78.328125 74.21875 
z
M 22.703125 74.21875 
Q 31.78125 74.21875 36.984375 68.921875 
Q 42.1875 63.625 42.1875 54.390625 
Q 42.1875 45.171875 36.984375 39.84375 
Q 31.78125 34.515625 22.703125 34.515625 
Q 13.625 34.515625 8.421875 39.84375 
Q 3.21875 45.171875 3.21875 54.390625 
Q 3.21875 63.625 8.421875 68.921875 
Q 13.625 74.21875 22.703125 74.21875 
z
M 22.703125 66.015625 
Q 19.1875 66.015625 17.28125 62.984375 
Q 15.375 59.96875 15.375 54.390625 
Q 15.375 48.78125 17.28125 45.71875 
Q 19.1875 42.671875 22.703125 42.671875 
Q 26.21875 42.671875 28.09375 45.71875 
Q 29.984375 48.78125 29.984375 54.390625 
Q 29.984375 59.96875 28.078125 62.984375 
Q 26.171875 66.015625 22.703125 66.015625 
z
" id="DejaVuSans-Bold-37"/>
      <path d="M 8.015625 -13.1875 
Q 14.265625 -1.5625 17.390625 9.515625 
Q 20.515625 20.609375 20.515625 31.390625 
Q 20.515625 42.1875 17.390625 53.25 
Q 14.265625 64.3125 8.015625 75.875 
L 22.515625 75.875 
Q 29.9375 63.921875 33.515625 52.953125 
Q 37.109375 42 37.109375 31.296875 
Q 37.109375 20.609375 33.546875 9.734375 
Q 29.984375 -1.125 22.515625 -13.1875 
z
" id="DejaVuSans-Bold-41"/>
     </defs>
     <g transform="translate(18.597656 385.688437)rotate(-90)scale(0.15 -0.15)">
      <use xlink:href="#DejaVuSans-Bold-53"/>
      <use x="69.580078" xlink:href="#DejaVuSans-Bold-45"/>
      <use x="96.333984" xlink:href="#DejaVuSans-Bold-89"/>
      <use x="159.621094" xlink:href="#DejaVuSans-Bold-101"/>
      <use x="227.443359" xlink:href="#DejaVuSans-Bold-97"/>
      <use x="294.923828" xlink:href="#DejaVuSans-Bold-114"/>
      <use x="344.240234" xlink:href="#DejaVuSans-Bold-32"/>
      <use x="379.054688" xlink:href="#DejaVuSans-Bold-82"/>
      <use x="456.056641" xlink:href="#DejaVuSans-Bold-101"/>
      <use x="523.878906" xlink:href="#DejaVuSans-Bold-108"/>
      <use x="558.15625" xlink:href="#DejaVuSans-Bold-97"/>
      <use x="625.636719" xlink:href="#DejaVuSans-Bold-116"/>
      <use x="673.439453" xlink:href="#DejaVuSans-Bold-105"/>
      <use x="707.716797" xlink:href="#DejaVuSans-Bold-118"/>
      <use x="772.902344" xlink:href="#DejaVuSans-Bold-101"/>
      <use x="840.724609" xlink:href="#DejaVuSans-Bold-32"/>
      <use x="875.539062" xlink:href="#DejaVuSans-Bold-83"/>
      <use x="947.560547" xlink:href="#DejaVuSans-Bold-117"/>
      <use x="1018.751953" xlink:href="#DejaVuSans-Bold-114"/>
      <use x="1068.068359" xlink:href="#DejaVuSans-Bold-118"/>
      <use x="1133.253906" xlink:href="#DejaVuSans-Bold-105"/>
      <use x="1167.53125" xlink:href="#DejaVuSans-Bold-118"/>
      <use x="1232.716797" xlink:href="#DejaVuSans-Bold-97"/>
      <use x="1300.197266" xlink:href="#DejaVuSans-Bold-108"/>
      <use x="1334.474609" xlink:href="#DejaVuSans-Bold-32"/>
      <use x="1369.289062" xlink:href="#DejaVuSans-Bold-82"/>
      <use x="1446.291016" xlink:href="#DejaVuSans-Bold-97"/>
      <use x="1513.771484" xlink:href="#DejaVuSans-Bold-116"/>
      <use x="1561.574219" xlink:href="#DejaVuSans-Bold-101"/>
      <use x="1629.396484" xlink:href="#DejaVuSans-Bold-115"/>
      <use x="1688.917969" xlink:href="#DejaVuSans-Bold-32"/>
      <use x="1723.732422" xlink:href="#DejaVuSans-Bold-40"/>
      <use x="1769.435547" xlink:href="#DejaVuSans-Bold-37"/>
      <use x="1869.630859" xlink:href="#DejaVuSans-Bold-41"/>
     </g>
    </g>
   </g>
   <g id="patch_60">
    <path d="M 51.804688 459.477656 
L 51.804688 24.597656 
" style="fill:none;stroke:#000000;stroke-linecap:square;stroke-linejoin:miter;stroke-width:0.8;"/>
   </g>
   <g id="patch_61">
    <path d="M 51.804688 459.477656 
L 944.604687 459.477656 
" style="fill:none;stroke:#000000;stroke-linecap:square;stroke-linejoin:miter;stroke-width:0.8;"/>
   </g>
   <g id="text_28">
    <!-- Cancer 5-Year Relative Survival Rates by Race -->
    <defs>
     <path d="M 67 4 
Q 61.8125 1.3125 56.203125 -0.046875 
Q 50.59375 -1.421875 44.484375 -1.421875 
Q 26.265625 -1.421875 15.625 8.765625 
Q 4.984375 18.953125 4.984375 36.375 
Q 4.984375 53.859375 15.625 64.03125 
Q 26.265625 74.21875 44.484375 74.21875 
Q 50.59375 74.21875 56.203125 72.84375 
Q 61.8125 71.484375 67 68.796875 
L 67 53.71875 
Q 61.765625 57.28125 56.6875 58.9375 
Q 51.609375 60.59375 46 60.59375 
Q 35.9375 60.59375 30.171875 54.140625 
Q 24.421875 47.703125 24.421875 36.375 
Q 24.421875 25.09375 30.171875 18.640625 
Q 35.9375 12.203125 46 12.203125 
Q 51.609375 12.203125 56.6875 13.859375 
Q 61.765625 15.53125 67 19.09375 
z
" id="DejaVuSans-Bold-67"/>
     <path d="M 63.375 33.296875 
L 63.375 0 
L 45.796875 0 
L 45.796875 5.421875 
L 45.796875 25.484375 
Q 45.796875 32.5625 45.484375 35.25 
Q 45.171875 37.9375 44.390625 39.203125 
Q 43.359375 40.921875 41.59375 41.875 
Q 39.84375 42.828125 37.59375 42.828125 
Q 32.125 42.828125 29 38.59375 
Q 25.875 34.375 25.875 26.90625 
L 25.875 0 
L 8.40625 0 
L 8.40625 54.6875 
L 25.875 54.6875 
L 25.875 46.6875 
Q 29.828125 51.46875 34.265625 53.734375 
Q 38.71875 56 44.09375 56 
Q 53.5625 56 58.46875 50.1875 
Q 63.375 44.390625 63.375 33.296875 
z
" id="DejaVuSans-Bold-110"/>
     <path d="M 37.5 11.28125 
Q 43.109375 11.28125 46.0625 15.375 
Q 49.03125 19.484375 49.03125 27.296875 
Q 49.03125 35.109375 46.0625 39.203125 
Q 43.109375 43.3125 37.5 43.3125 
Q 31.890625 43.3125 28.875 39.1875 
Q 25.875 35.0625 25.875 27.296875 
Q 25.875 19.53125 28.875 15.40625 
Q 31.890625 11.28125 37.5 11.28125 
z
M 25.875 46.6875 
Q 29.5 51.46875 33.890625 53.734375 
Q 38.28125 56 44 56 
Q 54.109375 56 60.59375 47.96875 
Q 67.09375 39.9375 67.09375 27.296875 
Q 67.09375 14.65625 60.59375 6.609375 
Q 54.109375 -1.421875 44 -1.421875 
Q 38.28125 -1.421875 33.890625 0.84375 
Q 29.5 3.125 25.875 7.90625 
L 25.875 0 
L 8.40625 0 
L 8.40625 75.984375 
L 25.875 75.984375 
z
" id="DejaVuSans-Bold-98"/>
     <path d="M 1.21875 54.6875 
L 18.703125 54.6875 
L 33.40625 17.578125 
L 45.90625 54.6875 
L 63.375 54.6875 
L 40.375 -5.171875 
Q 36.921875 -14.3125 32.296875 -17.9375 
Q 27.6875 -21.578125 20.125 -21.578125 
L 10.015625 -21.578125 
L 10.015625 -10.109375 
L 15.484375 -10.109375 
Q 19.921875 -10.109375 21.9375 -8.6875 
Q 23.96875 -7.28125 25.09375 -3.609375 
L 25.59375 -2.09375 
z
" id="DejaVuSans-Bold-121"/>
    </defs>
    <g transform="translate(303.939453 18.597656)scale(0.15 -0.15)">
     <use xlink:href="#DejaVuSans-Bold-67"/>
     <use x="73.388672" xlink:href="#DejaVuSans-Bold-97"/>
     <use x="140.869141" xlink:href="#DejaVuSans-Bold-110"/>
     <use x="212.060547" xlink:href="#DejaVuSans-Bold-99"/>
     <use x="271.337891" xlink:href="#DejaVuSans-Bold-101"/>
     <use x="339.160156" xlink:href="#DejaVuSans-Bold-114"/>
     <use x="388.476562" xlink:href="#DejaVuSans-Bold-32"/>
     <use x="423.291016" xlink:href="#DejaVuSans-Bold-53"/>
     <use x="492.871094" xlink:href="#DejaVuSans-Bold-45"/>
     <use x="519.625" xlink:href="#DejaVuSans-Bold-89"/>
     <use x="582.912109" xlink:href="#DejaVuSans-Bold-101"/>
     <use x="650.734375" xlink:href="#DejaVuSans-Bold-97"/>
     <use x="718.214844" xlink:href="#DejaVuSans-Bold-114"/>
     <use x="767.53125" xlink:href="#DejaVuSans-Bold-32"/>
     <use x="802.345703" xlink:href="#DejaVuSans-Bold-82"/>
     <use x="879.347656" xlink:href="#DejaVuSans-Bold-101"/>
     <use x="947.169922" xlink:href="#DejaVuSans-Bold-108"/>
     <use x="981.447266" xlink:href="#DejaVuSans-Bold-97"/>
     <use x="1048.927734" xlink:href="#DejaVuSans-Bold-116"/>
     <use x="1096.730469" xlink:href="#DejaVuSans-Bold-105"/>
     <use x="1131.007812" xlink:href="#DejaVuSans-Bold-118"/>
     <use x="1196.193359" xlink:href="#DejaVuSans-Bold-101"/>
     <use x="1264.015625" xlink:href="#DejaVuSans-Bold-32"/>
     <use x="1298.830078" xlink:href="#DejaVuSans-Bold-83"/>
     <use x="1370.851562" xlink:href="#DejaVuSans-Bold-117"/>
     <use x="1442.042969" xlink:href="#DejaVuSans-Bold-114"/>
     <use x="1491.359375" xlink:href="#DejaVuSans-Bold-118"/>
     <use x="1556.544922" xlink:href="#DejaVuSans-Bold-105"/>
     <use x="1590.822266" xlink:href="#DejaVuSans-Bold-118"/>
     <use x="1656.007812" xlink:href="#DejaVuSans-Bold-97"/>
     <use x="1723.488281" xlink:href="#DejaVuSans-Bold-108"/>
     <use x="1757.765625" xlink:href="#DejaVuSans-Bold-32"/>
     <use x="1792.580078" xlink:href="#DejaVuSans-Bold-82"/>
     <use x="1869.582031" xlink:href="#DejaVuSans-Bold-97"/>
     <use x="1937.0625" xlink:href="#DejaVuSans-Bold-116"/>
     <use x="1984.865234" xlink:href="#DejaVuSans-Bold-101"/>
     <use x="2052.6875" xlink:href="#DejaVuSans-Bold-115"/>
     <use x="2112.208984" xlink:href="#DejaVuSans-Bold-32"/>
     <use x="2147.023438" xlink:href="#DejaVuSans-Bold-98"/>
     <use x="2218.605469" xlink:href="#DejaVuSans-Bold-121"/>
     <use x="2283.791016" xlink:href="#DejaVuSans-Bold-32"/>
     <use x="2318.605469" xlink:href="#DejaVuSans-Bold-82"/>
     <use x="2395.607422" xlink:href="#DejaVuSans-Bold-97"/>
     <use x="2463.087891" xlink:href="#DejaVuSans-Bold-99"/>
     <use x="2522.365234" xlink:href="#DejaVuSans-Bold-101"/>
    </g>
   </g>
   <g id="legend_1">
    <g id="patch_62">
     <path d="M 728.992813 108.782906 
L 802.284688 108.782906 
Q 804.684687 108.782906 804.684687 106.382906 
L 804.684687 54.741656 
Q 804.684687 52.341656 802.284688 52.341656 
L 728.992813 52.341656 
Q 726.592813 52.341656 726.592813 54.741656 
L 726.592813 106.382906 
Q 726.592813 108.782906 728.992813 108.782906 
z
" style="fill:#ffffff;opacity:0.8;stroke:#cccccc;stroke-linejoin:miter;"/>
    </g>
    <g id="patch_63">
     <path d="M 731.392812 66.259781 
L 755.392812 66.259781 
L 755.392812 57.859781 
L 731.392812 57.859781 
z
" style="fill:#1f77b4;opacity:0.8;"/>
    </g>
    <g id="text_29">
     <!-- White -->
     <defs>
      <path d="M 3.328125 72.90625 
L 13.28125 72.90625 
L 28.609375 11.28125 
L 43.890625 72.90625 
L 54.984375 72.90625 
L 70.3125 11.28125 
L 85.59375 72.90625 
L 95.609375 72.90625 
L 77.296875 0 
L 64.890625 0 
L 49.515625 63.28125 
L 33.984375 0 
L 21.578125 0 
z
" id="DejaVuSans-87"/>
     </defs>
     <g transform="translate(764.992813 66.259781)scale(0.12 -0.12)">
      <use xlink:href="#DejaVuSans-87"/>
      <use x="98.876953" xlink:href="#DejaVuSans-104"/>
      <use x="162.255859" xlink:href="#DejaVuSans-105"/>
      <use x="190.039062" xlink:href="#DejaVuSans-116"/>
      <use x="229.248047" xlink:href="#DejaVuSans-101"/>
     </g>
    </g>
    <g id="patch_64">
     <path d="M 731.392812 83.873531 
L 755.392812 83.873531 
L 755.392812 75.473531 
L 731.392812 75.473531 
z
" style="fill:#ff7f0e;opacity:0.8;"/>
    </g>
    <g id="text_30">
     <!-- Black -->
     <g transform="translate(764.992813 83.873531)scale(0.12 -0.12)">
      <use xlink:href="#DejaVuSans-66"/>
      <use x="68.603516" xlink:href="#DejaVuSans-108"/>
      <use x="96.386719" xlink:href="#DejaVuSans-97"/>
      <use x="157.666016" xlink:href="#DejaVuSans-99"/>
      <use x="212.646484" xlink:href="#DejaVuSans-107"/>
     </g>
    </g>
    <g id="patch_65">
     <path d="M 731.392812 101.487281 
L 755.392812 101.487281 
L 755.392812 93.087281 
L 731.392812 93.087281 
z
" style="fill:#2ca02c;opacity:0.8;"/>
    </g>
    <g id="text_31">
     <!-- Other -->
     <g transform="translate(764.992813 101.487281)scale(0.12 -0.12)">
      <use xlink:href="#DejaVuSans-79"/>
      <use x="78.710938" xlink:href="#DejaVuSans-116"/>
      <use x="117.919922" xlink:href="#DejaVuSans-104"/>
      <use x="181.298828" xlink:href="#DejaVuSans-101"/>
      <use x="242.822266" xlink:href="#DejaVuSans-114"/>
     </g>
    </g>
   </g>
  </g>
 </g>
 <defs>
  <clipPath id="p386b9eb5c2">
   <rect height="434.88" width="892.8" x="51.804688" y="24.597656"/>
  </clipPath>
 </defs>
</svg>
