<?xml version="1.0" encoding="utf-8" standalone="no"?>
<!DOCTYPE svg PUBLIC "-//W3C//DTD SVG 1.1//EN"
  "http://www.w3.org/Graphics/SVG/1.1/DTD/svg11.dtd">
<!-- Created with matplotlib (https://matplotlib.org/) -->
<svg height="575.304219pt" version="1.1" viewBox="0 0 899.3 575.304219" width="899.3pt" xmlns="http://www.w3.org/2000/svg" xmlns:xlink="http://www.w3.org/1999/xlink">
 <defs>
  <style type="text/css">
*{stroke-linecap:butt;stroke-linejoin:round;}
  </style>
 </defs>
 <g id="figure_1">
  <g id="patch_1">
   <path d="M 0 575.304219 
L 899.3 575.304219 
L 899.3 0 
L 0 0 
z
" style="fill:#ffffff;"/>
  </g>
  <g id="axes_1">
   <g id="patch_2">
    <path d="M 55.1 459.477656 
L 892.1 459.477656 
L 892.1 24.597656 
L 55.1 24.597656 
z
" style="fill:#ffffff;"/>
   </g>
   <g id="patch_3">
    <path clip-path="url(#pc41cc08564)" d="M 65.064286 459.477656 
L 75.028571 459.477656 
L 75.028571 452.174084 
L 65.064286 452.174084 
z
" style="fill:#1f77b4;opacity:0.8;"/>
   </g>
   <g id="patch_4">
    <path clip-path="url(#pc41cc08564)" d="M 104.921429 459.477656 
L 114.885714 459.477656 
L 114.885714 259.599306 
L 104.921429 259.599306 
z
" style="fill:#1f77b4;opacity:0.8;"/>
   </g>
   <g id="patch_5">
    <path clip-path="url(#pc41cc08564)" d="M 144.778571 459.477656 
L 154.742857 459.477656 
L 154.742857 390.660481 
L 144.778571 390.660481 
z
" style="fill:#1f77b4;opacity:0.8;"/>
   </g>
   <g id="patch_6">
    <path clip-path="url(#pc41cc08564)" d="M 184.635714 459.477656 
L 194.6 459.477656 
L 194.6 316.554565 
L 184.635714 316.554565 
z
" style="fill:#1f77b4;opacity:0.8;"/>
   </g>
   <g id="patch_7">
    <path clip-path="url(#pc41cc08564)" d="M 224.492857 459.477656 
L 234.457143 459.477656 
L 234.457143 416.248244 
L 224.492857 416.248244 
z
" style="fill:#1f77b4;opacity:0.8;"/>
   </g>
   <g id="patch_8">
    <path clip-path="url(#pc41cc08564)" d="M 264.35 459.477656 
L 274.314286 459.477656 
L 274.314286 417.699688 
L 264.35 417.699688 
z
" style="fill:#1f77b4;opacity:0.8;"/>
   </g>
   <g id="patch_9">
    <path clip-path="url(#pc41cc08564)" d="M 304.207143 459.477656 
L 314.171429 459.477656 
L 314.171429 420.281276 
L 304.207143 420.281276 
z
" style="fill:#1f77b4;opacity:0.8;"/>
   </g>
   <g id="patch_10">
    <path clip-path="url(#pc41cc08564)" d="M 344.064286 459.477656 
L 354.028571 459.477656 
L 354.028571 424.255013 
L 344.064286 424.255013 
z
" style="fill:#1f77b4;opacity:0.8;"/>
   </g>
   <g id="patch_11">
    <path clip-path="url(#pc41cc08564)" d="M 383.921429 459.477656 
L 393.885714 459.477656 
L 393.885714 302.865377 
L 383.921429 302.865377 
z
" style="fill:#1f77b4;opacity:0.8;"/>
   </g>
   <g id="patch_12">
    <path clip-path="url(#pc41cc08564)" d="M 423.778571 459.477656 
L 433.742857 459.477656 
L 433.742857 390.87197 
L 423.778571 390.87197 
z
" style="fill:#1f77b4;opacity:0.8;"/>
   </g>
   <g id="patch_13">
    <path clip-path="url(#pc41cc08564)" d="M 463.635714 459.477656 
L 473.6 459.477656 
L 473.6 430.602335 
L 463.635714 430.602335 
z
" style="fill:#1f77b4;opacity:0.8;"/>
   </g>
   <g id="patch_14">
    <path clip-path="url(#pc41cc08564)" d="M 503.492857 459.477656 
L 513.457143 459.477656 
L 513.457143 404.697739 
L 503.492857 404.697739 
z
" style="fill:#1f77b4;opacity:0.8;"/>
   </g>
   <g id="patch_15">
    <path clip-path="url(#pc41cc08564)" d="M 543.35 459.477656 
L 553.314286 459.477656 
L 553.314286 416.910388 
L 543.35 416.910388 
z
" style="fill:#1f77b4;opacity:0.8;"/>
   </g>
   <g id="patch_16">
    <path clip-path="url(#pc41cc08564)" d="M 583.207143 459.477656 
L 593.171429 459.477656 
L 593.171429 450.807098 
L 583.207143 450.807098 
z
" style="fill:#1f77b4;opacity:0.8;"/>
   </g>
   <g id="patch_17">
    <path clip-path="url(#pc41cc08564)" d="M 623.064286 459.477656 
L 633.028571 459.477656 
L 633.028571 342.491833 
L 623.064286 342.491833 
z
" style="fill:#1f77b4;opacity:0.8;"/>
   </g>
   <g id="patch_18">
    <path clip-path="url(#pc41cc08564)" d="M 662.921429 459.477656 
L 672.885714 459.477656 
L 672.885714 408.174996 
L 662.921429 408.174996 
z
" style="fill:#1f77b4;opacity:0.8;"/>
   </g>
   <g id="patch_19">
    <path clip-path="url(#pc41cc08564)" d="M 702.778571 459.477656 
L 712.742857 459.477656 
L 712.742857 428.019954 
L 702.778571 428.019954 
z
" style="fill:#1f77b4;opacity:0.8;"/>
   </g>
   <g id="patch_20">
    <path clip-path="url(#pc41cc08564)" d="M 742.635714 459.477656 
L 752.6 459.477656 
L 752.6 425.253083 
L 742.635714 425.253083 
z
" style="fill:#1f77b4;opacity:0.8;"/>
   </g>
   <g id="patch_21">
    <path clip-path="url(#pc41cc08564)" d="M 782.492857 459.477656 
L 792.457143 459.477656 
L 792.457143 443.739658 
L 782.492857 443.739658 
z
" style="fill:#1f77b4;opacity:0.8;"/>
   </g>
   <g id="patch_22">
    <path clip-path="url(#pc41cc08564)" d="M 822.35 459.477656 
L 832.314286 459.477656 
L 832.314286 442.544205 
L 822.35 442.544205 
z
" style="fill:#1f77b4;opacity:0.8;"/>
   </g>
   <g id="patch_23">
    <path clip-path="url(#pc41cc08564)" d="M 862.207143 459.477656 
L 872.171429 459.477656 
L 872.171429 452.03206 
L 862.207143 452.03206 
z
" style="fill:#1f77b4;opacity:0.8;"/>
   </g>
   <g id="patch_24">
    <path clip-path="url(#pc41cc08564)" d="M 75.028571 459.477656 
L 84.992857 459.477656 
L 84.992857 424.387671 
L 75.028571 424.387671 
z
" style="fill:#ff7f0e;opacity:0.8;"/>
   </g>
   <g id="patch_25">
    <path clip-path="url(#pc41cc08564)" d="M 114.885714 459.477656 
L 124.85 459.477656 
L 124.85 124.5217 
L 114.885714 124.5217 
z
" style="fill:#ff7f0e;opacity:0.8;"/>
   </g>
   <g id="patch_26">
    <path clip-path="url(#pc41cc08564)" d="M 154.742857 459.477656 
L 164.707143 459.477656 
L 164.707143 101.860987 
L 154.742857 101.860987 
z
" style="fill:#ff7f0e;opacity:0.8;"/>
   </g>
   <g id="patch_27">
    <path clip-path="url(#pc41cc08564)" d="M 194.6 459.477656 
L 204.564286 459.477656 
L 204.564286 45.306228 
L 194.6 45.306228 
z
" style="fill:#ff7f0e;opacity:0.8;"/>
   </g>
   <g id="patch_28">
    <path clip-path="url(#pc41cc08564)" d="M 234.457143 459.477656 
L 244.421429 459.477656 
L 244.421429 339.500678 
L 234.457143 339.500678 
z
" style="fill:#ff7f0e;opacity:0.8;"/>
   </g>
   <g id="patch_29">
    <path clip-path="url(#pc41cc08564)" d="M 274.314286 459.477656 
L 284.278571 459.477656 
L 284.278571 411.533836 
L 274.314286 411.533836 
z
" style="fill:#ff7f0e;opacity:0.8;"/>
   </g>
   <g id="patch_30">
    <path clip-path="url(#pc41cc08564)" d="M 314.171429 459.477656 
L 324.135714 459.477656 
L 324.135714 207.373665 
L 314.171429 207.373665 
z
" style="fill:#ff7f0e;opacity:0.8;"/>
   </g>
   <g id="patch_31">
    <path clip-path="url(#pc41cc08564)" d="M 354.028571 459.477656 
L 363.992857 459.477656 
L 363.992857 302.164257 
L 354.028571 302.164257 
z
" style="fill:#ff7f0e;opacity:0.8;"/>
   </g>
   <g id="patch_32">
    <path clip-path="url(#pc41cc08564)" d="M 393.885714 459.477656 
L 403.85 459.477656 
L 403.85 150.770759 
L 393.885714 150.770759 
z
" style="fill:#ff7f0e;opacity:0.8;"/>
   </g>
   <g id="patch_33">
    <path clip-path="url(#pc41cc08564)" d="M 433.742857 459.477656 
L 443.707143 459.477656 
L 443.707143 371.970033 
L 433.742857 371.970033 
z
" style="fill:#ff7f0e;opacity:0.8;"/>
   </g>
   <g id="patch_34">
    <path clip-path="url(#pc41cc08564)" d="M 473.6 459.477656 
L 483.564286 459.477656 
L 483.564286 418.629999 
L 473.6 418.629999 
z
" style="fill:#ff7f0e;opacity:0.8;"/>
   </g>
   <g id="patch_35">
    <path clip-path="url(#pc41cc08564)" d="M 513.457143 459.477656 
L 523.421429 459.477656 
L 523.421429 355.678714 
L 513.457143 355.678714 
z
" style="fill:#ff7f0e;opacity:0.8;"/>
   </g>
   <g id="patch_36">
    <path clip-path="url(#pc41cc08564)" d="M 553.314286 459.477656 
L 563.278571 459.477656 
L 563.278571 321.434176 
L 553.314286 321.434176 
z
" style="fill:#ff7f0e;opacity:0.8;"/>
   </g>
   <g id="patch_37">
    <path clip-path="url(#pc41cc08564)" d="M 593.171429 459.477656 
L 603.135714 459.477656 
L 603.135714 419.271794 
L 593.171429 419.271794 
z
" style="fill:#ff7f0e;opacity:0.8;"/>
   </g>
   <g id="patch_38">
    <path clip-path="url(#pc41cc08564)" d="M 633.028571 459.477656 
L 642.992857 459.477656 
L 642.992857 274.665396 
L 633.028571 274.665396 
z
" style="fill:#ff7f0e;opacity:0.8;"/>
   </g>
   <g id="patch_39">
    <path clip-path="url(#pc41cc08564)" d="M 672.885714 459.477656 
L 682.85 459.477656 
L 682.85 399.33644 
L 672.885714 399.33644 
z
" style="fill:#ff7f0e;opacity:0.8;"/>
   </g>
   <g id="patch_40">
    <path clip-path="url(#pc41cc08564)" d="M 712.742857 459.477656 
L 722.707143 459.477656 
L 722.707143 245.771399 
L 712.742857 245.771399 
z
" style="fill:#ff7f0e;opacity:0.8;"/>
   </g>
   <g id="patch_41">
    <path clip-path="url(#pc41cc08564)" d="M 752.6 459.477656 
L 762.564286 459.477656 
L 762.564286 191.463843 
L 752.6 191.463843 
z
" style="fill:#ff7f0e;opacity:0.8;"/>
   </g>
   <g id="patch_42">
    <path clip-path="url(#pc41cc08564)" d="M 792.457143 459.477656 
L 802.421429 459.477656 
L 802.421429 428.210109 
L 792.457143 428.210109 
z
" style="fill:#ff7f0e;opacity:0.8;"/>
   </g>
   <g id="patch_43">
    <path clip-path="url(#pc41cc08564)" d="M 832.314286 459.477656 
L 842.278571 459.477656 
L 842.278571 49.204312 
L 832.314286 49.204312 
z
" style="fill:#ff7f0e;opacity:0.8;"/>
   </g>
   <g id="patch_44">
    <path clip-path="url(#pc41cc08564)" d="M 872.171429 459.477656 
L 882.135714 459.477656 
L 882.135714 418.765696 
L 872.171429 418.765696 
z
" style="fill:#ff7f0e;opacity:0.8;"/>
   </g>
   <g id="matplotlib.axis_1">
    <g id="xtick_1">
     <g id="line2d_1">
      <defs>
       <path d="M 0 0 
L 0 3.5 
" id="m9f3a218bc0" style="stroke:#000000;stroke-width:0.8;"/>
      </defs>
      <g>
       <use style="stroke:#000000;stroke-width:0.8;" x="75.028571" xlink:href="#m9f3a218bc0" y="459.477656"/>
      </g>
     </g>
     <g id="text_1">
      <!-- Bladder -->
      <defs>
       <path d="M 19.671875 34.8125 
L 19.671875 8.109375 
L 35.5 8.109375 
Q 43.453125 8.109375 47.28125 11.40625 
Q 51.125 14.703125 51.125 21.484375 
Q 51.125 28.328125 47.28125 31.5625 
Q 43.453125 34.8125 35.5 34.8125 
z
M 19.671875 64.796875 
L 19.671875 42.828125 
L 34.28125 42.828125 
Q 41.5 42.828125 45.03125 45.53125 
Q 48.578125 48.25 48.578125 53.8125 
Q 48.578125 59.328125 45.03125 62.0625 
Q 41.5 64.796875 34.28125 64.796875 
z
M 9.8125 72.90625 
L 35.015625 72.90625 
Q 46.296875 72.90625 52.390625 68.21875 
Q 58.5 63.53125 58.5 54.890625 
Q 58.5 48.1875 55.375 44.234375 
Q 52.25 40.28125 46.1875 39.3125 
Q 53.46875 37.75 57.5 32.78125 
Q 61.53125 27.828125 61.53125 20.40625 
Q 61.53125 10.640625 54.890625 5.3125 
Q 48.25 0 35.984375 0 
L 9.8125 0 
z
" id="DejaVuSans-66"/>
       <path d="M 9.421875 75.984375 
L 18.40625 75.984375 
L 18.40625 0 
L 9.421875 0 
z
" id="DejaVuSans-108"/>
       <path d="M 34.28125 27.484375 
Q 23.390625 27.484375 19.1875 25 
Q 14.984375 22.515625 14.984375 16.5 
Q 14.984375 11.71875 18.140625 8.90625 
Q 21.296875 6.109375 26.703125 6.109375 
Q 34.1875 6.109375 38.703125 11.40625 
Q 43.21875 16.703125 43.21875 25.484375 
L 43.21875 27.484375 
z
M 52.203125 31.203125 
L 52.203125 0 
L 43.21875 0 
L 43.21875 8.296875 
Q 40.140625 3.328125 35.546875 0.953125 
Q 30.953125 -1.421875 24.3125 -1.421875 
Q 15.921875 -1.421875 10.953125 3.296875 
Q 6 8.015625 6 15.921875 
Q 6 25.140625 12.171875 29.828125 
Q 18.359375 34.515625 30.609375 34.515625 
L 43.21875 34.515625 
L 43.21875 35.40625 
Q 43.21875 41.609375 39.140625 45 
Q 35.0625 48.390625 27.6875 48.390625 
Q 23 48.390625 18.546875 47.265625 
Q 14.109375 46.140625 10.015625 43.890625 
L 10.015625 52.203125 
Q 14.9375 54.109375 19.578125 55.046875 
Q 24.21875 56 28.609375 56 
Q 40.484375 56 46.34375 49.84375 
Q 52.203125 43.703125 52.203125 31.203125 
z
" id="DejaVuSans-97"/>
       <path d="M 45.40625 46.390625 
L 45.40625 75.984375 
L 54.390625 75.984375 
L 54.390625 0 
L 45.40625 0 
L 45.40625 8.203125 
Q 42.578125 3.328125 38.25 0.953125 
Q 33.9375 -1.421875 27.875 -1.421875 
Q 17.96875 -1.421875 11.734375 6.484375 
Q 5.515625 14.40625 5.515625 27.296875 
Q 5.515625 40.1875 11.734375 48.09375 
Q 17.96875 56 27.875 56 
Q 33.9375 56 38.25 53.625 
Q 42.578125 51.265625 45.40625 46.390625 
z
M 14.796875 27.296875 
Q 14.796875 17.390625 18.875 11.75 
Q 22.953125 6.109375 30.078125 6.109375 
Q 37.203125 6.109375 41.296875 11.75 
Q 45.40625 17.390625 45.40625 27.296875 
Q 45.40625 37.203125 41.296875 42.84375 
Q 37.203125 48.484375 30.078125 48.484375 
Q 22.953125 48.484375 18.875 42.84375 
Q 14.796875 37.203125 14.796875 27.296875 
z
" id="DejaVuSans-100"/>
       <path d="M 56.203125 29.59375 
L 56.203125 25.203125 
L 14.890625 25.203125 
Q 15.484375 15.921875 20.484375 11.0625 
Q 25.484375 6.203125 34.421875 6.203125 
Q 39.59375 6.203125 44.453125 7.46875 
Q 49.3125 8.734375 54.109375 11.28125 
L 54.109375 2.78125 
Q 49.265625 0.734375 44.1875 -0.34375 
Q 39.109375 -1.421875 33.890625 -1.421875 
Q 20.796875 -1.421875 13.15625 6.1875 
Q 5.515625 13.8125 5.515625 26.8125 
Q 5.515625 40.234375 12.765625 48.109375 
Q 20.015625 56 32.328125 56 
Q 43.359375 56 49.78125 48.890625 
Q 56.203125 41.796875 56.203125 29.59375 
z
M 47.21875 32.234375 
Q 47.125 39.59375 43.09375 43.984375 
Q 39.0625 48.390625 32.421875 48.390625 
Q 24.90625 48.390625 20.390625 44.140625 
Q 15.875 39.890625 15.1875 32.171875 
z
" id="DejaVuSans-101"/>
       <path d="M 41.109375 46.296875 
Q 39.59375 47.171875 37.8125 47.578125 
Q 36.03125 48 33.890625 48 
Q 26.265625 48 22.1875 43.046875 
Q 18.109375 38.09375 18.109375 28.8125 
L 18.109375 0 
L 9.078125 0 
L 9.078125 54.6875 
L 18.109375 54.6875 
L 18.109375 46.1875 
Q 20.953125 51.171875 25.484375 53.578125 
Q 30.03125 56 36.53125 56 
Q 37.453125 56 38.578125 55.875 
Q 39.703125 55.765625 41.0625 55.515625 
z
" id="DejaVuSans-114"/>
      </defs>
      <g transform="translate(77.787946 505.205781)rotate(-90)scale(0.1 -0.1)">
       <use xlink:href="#DejaVuSans-66"/>
       <use x="68.603516" xlink:href="#DejaVuSans-108"/>
       <use x="96.386719" xlink:href="#DejaVuSans-97"/>
       <use x="157.666016" xlink:href="#DejaVuSans-100"/>
       <use x="221.142578" xlink:href="#DejaVuSans-100"/>
       <use x="284.619141" xlink:href="#DejaVuSans-101"/>
       <use x="346.142578" xlink:href="#DejaVuSans-114"/>
      </g>
     </g>
    </g>
    <g id="xtick_2">
     <g id="line2d_2">
      <g>
       <use style="stroke:#000000;stroke-width:0.8;" x="114.885714" xlink:href="#m9f3a218bc0" y="459.477656"/>
      </g>
     </g>
     <g id="text_2">
      <!-- Brain, ONS -->
      <defs>
       <path d="M 9.421875 54.6875 
L 18.40625 54.6875 
L 18.40625 0 
L 9.421875 0 
z
M 9.421875 75.984375 
L 18.40625 75.984375 
L 18.40625 64.59375 
L 9.421875 64.59375 
z
" id="DejaVuSans-105"/>
       <path d="M 54.890625 33.015625 
L 54.890625 0 
L 45.90625 0 
L 45.90625 32.71875 
Q 45.90625 40.484375 42.875 44.328125 
Q 39.84375 48.1875 33.796875 48.1875 
Q 26.515625 48.1875 22.3125 43.546875 
Q 18.109375 38.921875 18.109375 30.90625 
L 18.109375 0 
L 9.078125 0 
L 9.078125 54.6875 
L 18.109375 54.6875 
L 18.109375 46.1875 
Q 21.34375 51.125 25.703125 53.5625 
Q 30.078125 56 35.796875 56 
Q 45.21875 56 50.046875 50.171875 
Q 54.890625 44.34375 54.890625 33.015625 
z
" id="DejaVuSans-110"/>
       <path d="M 11.71875 12.40625 
L 22.015625 12.40625 
L 22.015625 4 
L 14.015625 -11.625 
L 7.71875 -11.625 
L 11.71875 4 
z
" id="DejaVuSans-44"/>
       <path id="DejaVuSans-32"/>
       <path d="M 39.40625 66.21875 
Q 28.65625 66.21875 22.328125 58.203125 
Q 16.015625 50.203125 16.015625 36.375 
Q 16.015625 22.609375 22.328125 14.59375 
Q 28.65625 6.59375 39.40625 6.59375 
Q 50.140625 6.59375 56.421875 14.59375 
Q 62.703125 22.609375 62.703125 36.375 
Q 62.703125 50.203125 56.421875 58.203125 
Q 50.140625 66.21875 39.40625 66.21875 
z
M 39.40625 74.21875 
Q 54.734375 74.21875 63.90625 63.9375 
Q 73.09375 53.65625 73.09375 36.375 
Q 73.09375 19.140625 63.90625 8.859375 
Q 54.734375 -1.421875 39.40625 -1.421875 
Q 24.03125 -1.421875 14.8125 8.828125 
Q 5.609375 19.09375 5.609375 36.375 
Q 5.609375 53.65625 14.8125 63.9375 
Q 24.03125 74.21875 39.40625 74.21875 
z
" id="DejaVuSans-79"/>
       <path d="M 9.8125 72.90625 
L 23.09375 72.90625 
L 55.421875 11.921875 
L 55.421875 72.90625 
L 64.984375 72.90625 
L 64.984375 0 
L 51.703125 0 
L 19.390625 60.984375 
L 19.390625 0 
L 9.8125 0 
z
" id="DejaVuSans-78"/>
       <path d="M 53.515625 70.515625 
L 53.515625 60.890625 
Q 47.90625 63.578125 42.921875 64.890625 
Q 37.9375 66.21875 33.296875 66.21875 
Q 25.25 66.21875 20.875 63.09375 
Q 16.5 59.96875 16.5 54.203125 
Q 16.5 49.359375 19.40625 46.890625 
Q 22.3125 44.4375 30.421875 42.921875 
L 36.375 41.703125 
Q 47.40625 39.59375 52.65625 34.296875 
Q 57.90625 29 57.90625 20.125 
Q 57.90625 9.515625 50.796875 4.046875 
Q 43.703125 -1.421875 29.984375 -1.421875 
Q 24.8125 -1.421875 18.96875 -0.25 
Q 13.140625 0.921875 6.890625 3.21875 
L 6.890625 13.375 
Q 12.890625 10.015625 18.65625 8.296875 
Q 24.421875 6.59375 29.984375 6.59375 
Q 38.421875 6.59375 43.015625 9.90625 
Q 47.609375 13.234375 47.609375 19.390625 
Q 47.609375 24.75 44.3125 27.78125 
Q 41.015625 30.8125 33.5 32.328125 
L 27.484375 33.5 
Q 16.453125 35.6875 11.515625 40.375 
Q 6.59375 45.0625 6.59375 53.421875 
Q 6.59375 63.09375 13.40625 68.65625 
Q 20.21875 74.21875 32.171875 74.21875 
Q 37.3125 74.21875 42.625 73.28125 
Q 47.953125 72.359375 53.515625 70.515625 
z
" id="DejaVuSans-83"/>
      </defs>
      <g transform="translate(117.645089 520.751094)rotate(-90)scale(0.1 -0.1)">
       <use xlink:href="#DejaVuSans-66"/>
       <use x="68.603516" xlink:href="#DejaVuSans-114"/>
       <use x="109.716797" xlink:href="#DejaVuSans-97"/>
       <use x="170.996094" xlink:href="#DejaVuSans-105"/>
       <use x="198.779297" xlink:href="#DejaVuSans-110"/>
       <use x="262.158203" xlink:href="#DejaVuSans-44"/>
       <use x="293.945312" xlink:href="#DejaVuSans-32"/>
       <use x="325.732422" xlink:href="#DejaVuSans-79"/>
       <use x="404.443359" xlink:href="#DejaVuSans-78"/>
       <use x="479.248047" xlink:href="#DejaVuSans-83"/>
      </g>
     </g>
    </g>
    <g id="xtick_3">
     <g id="line2d_3">
      <g>
       <use style="stroke:#000000;stroke-width:0.8;" x="154.742857" xlink:href="#m9f3a218bc0" y="459.477656"/>
      </g>
     </g>
     <g id="text_3">
      <!-- Breast -->
      <defs>
       <path d="M 44.28125 53.078125 
L 44.28125 44.578125 
Q 40.484375 46.53125 36.375 47.5 
Q 32.28125 48.484375 27.875 48.484375 
Q 21.1875 48.484375 17.84375 46.4375 
Q 14.5 44.390625 14.5 40.28125 
Q 14.5 37.15625 16.890625 35.375 
Q 19.28125 33.59375 26.515625 31.984375 
L 29.59375 31.296875 
Q 39.15625 29.25 43.1875 25.515625 
Q 47.21875 21.78125 47.21875 15.09375 
Q 47.21875 7.46875 41.1875 3.015625 
Q 35.15625 -1.421875 24.609375 -1.421875 
Q 20.21875 -1.421875 15.453125 -0.5625 
Q 10.6875 0.296875 5.421875 2 
L 5.421875 11.28125 
Q 10.40625 8.6875 15.234375 7.390625 
Q 20.0625 6.109375 24.8125 6.109375 
Q 31.15625 6.109375 34.5625 8.28125 
Q 37.984375 10.453125 37.984375 14.40625 
Q 37.984375 18.0625 35.515625 20.015625 
Q 33.0625 21.96875 24.703125 23.78125 
L 21.578125 24.515625 
Q 13.234375 26.265625 9.515625 29.90625 
Q 5.8125 33.546875 5.8125 39.890625 
Q 5.8125 47.609375 11.28125 51.796875 
Q 16.75 56 26.8125 56 
Q 31.78125 56 36.171875 55.265625 
Q 40.578125 54.546875 44.28125 53.078125 
z
" id="DejaVuSans-115"/>
       <path d="M 18.3125 70.21875 
L 18.3125 54.6875 
L 36.8125 54.6875 
L 36.8125 47.703125 
L 18.3125 47.703125 
L 18.3125 18.015625 
Q 18.3125 11.328125 20.140625 9.421875 
Q 21.96875 7.515625 27.59375 7.515625 
L 36.8125 7.515625 
L 36.8125 0 
L 27.59375 0 
Q 17.1875 0 13.234375 3.875 
Q 9.28125 7.765625 9.28125 18.015625 
L 9.28125 47.703125 
L 2.6875 47.703125 
L 2.6875 54.6875 
L 9.28125 54.6875 
L 9.28125 70.21875 
z
" id="DejaVuSans-116"/>
      </defs>
      <g transform="translate(157.502232 498.635469)rotate(-90)scale(0.1 -0.1)">
       <use xlink:href="#DejaVuSans-66"/>
       <use x="68.603516" xlink:href="#DejaVuSans-114"/>
       <use x="107.466797" xlink:href="#DejaVuSans-101"/>
       <use x="168.990234" xlink:href="#DejaVuSans-97"/>
       <use x="230.269531" xlink:href="#DejaVuSans-115"/>
       <use x="282.369141" xlink:href="#DejaVuSans-116"/>
      </g>
     </g>
    </g>
    <g id="xtick_4">
     <g id="line2d_4">
      <g>
       <use style="stroke:#000000;stroke-width:0.8;" x="194.6" xlink:href="#m9f3a218bc0" y="459.477656"/>
      </g>
     </g>
     <g id="text_4">
      <!-- Cervix -->
      <defs>
       <path d="M 64.40625 67.28125 
L 64.40625 56.890625 
Q 59.421875 61.53125 53.78125 63.8125 
Q 48.140625 66.109375 41.796875 66.109375 
Q 29.296875 66.109375 22.65625 58.46875 
Q 16.015625 50.828125 16.015625 36.375 
Q 16.015625 21.96875 22.65625 14.328125 
Q 29.296875 6.6875 41.796875 6.6875 
Q 48.140625 6.6875 53.78125 8.984375 
Q 59.421875 11.28125 64.40625 15.921875 
L 64.40625 5.609375 
Q 59.234375 2.09375 53.4375 0.328125 
Q 47.65625 -1.421875 41.21875 -1.421875 
Q 24.65625 -1.421875 15.125 8.703125 
Q 5.609375 18.84375 5.609375 36.375 
Q 5.609375 53.953125 15.125 64.078125 
Q 24.65625 74.21875 41.21875 74.21875 
Q 47.75 74.21875 53.53125 72.484375 
Q 59.328125 70.75 64.40625 67.28125 
z
" id="DejaVuSans-67"/>
       <path d="M 2.984375 54.6875 
L 12.5 54.6875 
L 29.59375 8.796875 
L 46.6875 54.6875 
L 56.203125 54.6875 
L 35.6875 0 
L 23.484375 0 
z
" id="DejaVuSans-118"/>
       <path d="M 54.890625 54.6875 
L 35.109375 28.078125 
L 55.90625 0 
L 45.3125 0 
L 29.390625 21.484375 
L 13.484375 0 
L 2.875 0 
L 24.125 28.609375 
L 4.6875 54.6875 
L 15.28125 54.6875 
L 29.78125 35.203125 
L 44.28125 54.6875 
z
" id="DejaVuSans-120"/>
      </defs>
      <g transform="translate(197.359375 498.340156)rotate(-90)scale(0.1 -0.1)">
       <use xlink:href="#DejaVuSans-67"/>
       <use x="69.824219" xlink:href="#DejaVuSans-101"/>
       <use x="131.347656" xlink:href="#DejaVuSans-114"/>
       <use x="172.460938" xlink:href="#DejaVuSans-118"/>
       <use x="231.640625" xlink:href="#DejaVuSans-105"/>
       <use x="259.423828" xlink:href="#DejaVuSans-120"/>
      </g>
     </g>
    </g>
    <g id="xtick_5">
     <g id="line2d_5">
      <g>
       <use style="stroke:#000000;stroke-width:0.8;" x="234.457143" xlink:href="#m9f3a218bc0" y="459.477656"/>
      </g>
     </g>
     <g id="text_5">
      <!-- Colon/rectum -->
      <defs>
       <path d="M 30.609375 48.390625 
Q 23.390625 48.390625 19.1875 42.75 
Q 14.984375 37.109375 14.984375 27.296875 
Q 14.984375 17.484375 19.15625 11.84375 
Q 23.34375 6.203125 30.609375 6.203125 
Q 37.796875 6.203125 41.984375 11.859375 
Q 46.1875 17.53125 46.1875 27.296875 
Q 46.1875 37.015625 41.984375 42.703125 
Q 37.796875 48.390625 30.609375 48.390625 
z
M 30.609375 56 
Q 42.328125 56 49.015625 48.375 
Q 55.71875 40.765625 55.71875 27.296875 
Q 55.71875 13.875 49.015625 6.21875 
Q 42.328125 -1.421875 30.609375 -1.421875 
Q 18.84375 -1.421875 12.171875 6.21875 
Q 5.515625 13.875 5.515625 27.296875 
Q 5.515625 40.765625 12.171875 48.375 
Q 18.84375 56 30.609375 56 
z
" id="DejaVuSans-111"/>
       <path d="M 25.390625 72.90625 
L 33.6875 72.90625 
L 8.296875 -9.28125 
L 0 -9.28125 
z
" id="DejaVuSans-47"/>
       <path d="M 48.78125 52.59375 
L 48.78125 44.1875 
Q 44.96875 46.296875 41.140625 47.34375 
Q 37.3125 48.390625 33.40625 48.390625 
Q 24.65625 48.390625 19.8125 42.84375 
Q 14.984375 37.3125 14.984375 27.296875 
Q 14.984375 17.28125 19.8125 11.734375 
Q 24.65625 6.203125 33.40625 6.203125 
Q 37.3125 6.203125 41.140625 7.25 
Q 44.96875 8.296875 48.78125 10.40625 
L 48.78125 2.09375 
Q 45.015625 0.34375 40.984375 -0.53125 
Q 36.96875 -1.421875 32.421875 -1.421875 
Q 20.0625 -1.421875 12.78125 6.34375 
Q 5.515625 14.109375 5.515625 27.296875 
Q 5.515625 40.671875 12.859375 48.328125 
Q 20.21875 56 33.015625 56 
Q 37.15625 56 41.109375 55.140625 
Q 45.0625 54.296875 48.78125 52.59375 
z
" id="DejaVuSans-99"/>
       <path d="M 8.5 21.578125 
L 8.5 54.6875 
L 17.484375 54.6875 
L 17.484375 21.921875 
Q 17.484375 14.15625 20.5 10.265625 
Q 23.53125 6.390625 29.59375 6.390625 
Q 36.859375 6.390625 41.078125 11.03125 
Q 45.3125 15.671875 45.3125 23.6875 
L 45.3125 54.6875 
L 54.296875 54.6875 
L 54.296875 0 
L 45.3125 0 
L 45.3125 8.40625 
Q 42.046875 3.421875 37.71875 1 
Q 33.40625 -1.421875 27.6875 -1.421875 
Q 18.265625 -1.421875 13.375 4.4375 
Q 8.5 10.296875 8.5 21.578125 
z
M 31.109375 56 
z
" id="DejaVuSans-117"/>
       <path d="M 52 44.1875 
Q 55.375 50.25 60.0625 53.125 
Q 64.75 56 71.09375 56 
Q 79.640625 56 84.28125 50.015625 
Q 88.921875 44.046875 88.921875 33.015625 
L 88.921875 0 
L 79.890625 0 
L 79.890625 32.71875 
Q 79.890625 40.578125 77.09375 44.375 
Q 74.3125 48.1875 68.609375 48.1875 
Q 61.625 48.1875 57.5625 43.546875 
Q 53.515625 38.921875 53.515625 30.90625 
L 53.515625 0 
L 44.484375 0 
L 44.484375 32.71875 
Q 44.484375 40.625 41.703125 44.40625 
Q 38.921875 48.1875 33.109375 48.1875 
Q 26.21875 48.1875 22.15625 43.53125 
Q 18.109375 38.875 18.109375 30.90625 
L 18.109375 0 
L 9.078125 0 
L 9.078125 54.6875 
L 18.109375 54.6875 
L 18.109375 46.1875 
Q 21.1875 51.21875 25.484375 53.609375 
Q 29.78125 56 35.6875 56 
Q 41.65625 56 45.828125 52.96875 
Q 50 49.953125 52 44.1875 
z
" id="DejaVuSans-109"/>
      </defs>
      <g transform="translate(237.216518 533.718281)rotate(-90)scale(0.1 -0.1)">
       <use xlink:href="#DejaVuSans-67"/>
       <use x="69.824219" xlink:href="#DejaVuSans-111"/>
       <use x="131.005859" xlink:href="#DejaVuSans-108"/>
       <use x="158.789062" xlink:href="#DejaVuSans-111"/>
       <use x="219.970703" xlink:href="#DejaVuSans-110"/>
       <use x="283.349609" xlink:href="#DejaVuSans-47"/>
       <use x="317.041016" xlink:href="#DejaVuSans-114"/>
       <use x="355.904297" xlink:href="#DejaVuSans-101"/>
       <use x="417.427734" xlink:href="#DejaVuSans-99"/>
       <use x="472.408203" xlink:href="#DejaVuSans-116"/>
       <use x="511.617188" xlink:href="#DejaVuSans-117"/>
       <use x="574.996094" xlink:href="#DejaVuSans-109"/>
      </g>
     </g>
    </g>
    <g id="xtick_6">
     <g id="line2d_6">
      <g>
       <use style="stroke:#000000;stroke-width:0.8;" x="274.314286" xlink:href="#m9f3a218bc0" y="459.477656"/>
      </g>
     </g>
     <g id="text_6">
      <!-- Esophogus -->
      <defs>
       <path d="M 9.8125 72.90625 
L 55.90625 72.90625 
L 55.90625 64.59375 
L 19.671875 64.59375 
L 19.671875 43.015625 
L 54.390625 43.015625 
L 54.390625 34.71875 
L 19.671875 34.71875 
L 19.671875 8.296875 
L 56.78125 8.296875 
L 56.78125 0 
L 9.8125 0 
z
" id="DejaVuSans-69"/>
       <path d="M 18.109375 8.203125 
L 18.109375 -20.796875 
L 9.078125 -20.796875 
L 9.078125 54.6875 
L 18.109375 54.6875 
L 18.109375 46.390625 
Q 20.953125 51.265625 25.265625 53.625 
Q 29.59375 56 35.59375 56 
Q 45.5625 56 51.78125 48.09375 
Q 58.015625 40.1875 58.015625 27.296875 
Q 58.015625 14.40625 51.78125 6.484375 
Q 45.5625 -1.421875 35.59375 -1.421875 
Q 29.59375 -1.421875 25.265625 0.953125 
Q 20.953125 3.328125 18.109375 8.203125 
z
M 48.6875 27.296875 
Q 48.6875 37.203125 44.609375 42.84375 
Q 40.53125 48.484375 33.40625 48.484375 
Q 26.265625 48.484375 22.1875 42.84375 
Q 18.109375 37.203125 18.109375 27.296875 
Q 18.109375 17.390625 22.1875 11.75 
Q 26.265625 6.109375 33.40625 6.109375 
Q 40.53125 6.109375 44.609375 11.75 
Q 48.6875 17.390625 48.6875 27.296875 
z
" id="DejaVuSans-112"/>
       <path d="M 54.890625 33.015625 
L 54.890625 0 
L 45.90625 0 
L 45.90625 32.71875 
Q 45.90625 40.484375 42.875 44.328125 
Q 39.84375 48.1875 33.796875 48.1875 
Q 26.515625 48.1875 22.3125 43.546875 
Q 18.109375 38.921875 18.109375 30.90625 
L 18.109375 0 
L 9.078125 0 
L 9.078125 75.984375 
L 18.109375 75.984375 
L 18.109375 46.1875 
Q 21.34375 51.125 25.703125 53.5625 
Q 30.078125 56 35.796875 56 
Q 45.21875 56 50.046875 50.171875 
Q 54.890625 44.34375 54.890625 33.015625 
z
" id="DejaVuSans-104"/>
       <path d="M 45.40625 27.984375 
Q 45.40625 37.75 41.375 43.109375 
Q 37.359375 48.484375 30.078125 48.484375 
Q 22.859375 48.484375 18.828125 43.109375 
Q 14.796875 37.75 14.796875 27.984375 
Q 14.796875 18.265625 18.828125 12.890625 
Q 22.859375 7.515625 30.078125 7.515625 
Q 37.359375 7.515625 41.375 12.890625 
Q 45.40625 18.265625 45.40625 27.984375 
z
M 54.390625 6.78125 
Q 54.390625 -7.171875 48.1875 -13.984375 
Q 42 -20.796875 29.203125 -20.796875 
Q 24.46875 -20.796875 20.265625 -20.09375 
Q 16.0625 -19.390625 12.109375 -17.921875 
L 12.109375 -9.1875 
Q 16.0625 -11.328125 19.921875 -12.34375 
Q 23.78125 -13.375 27.78125 -13.375 
Q 36.625 -13.375 41.015625 -8.765625 
Q 45.40625 -4.15625 45.40625 5.171875 
L 45.40625 9.625 
Q 42.625 4.78125 38.28125 2.390625 
Q 33.9375 0 27.875 0 
Q 17.828125 0 11.671875 7.65625 
Q 5.515625 15.328125 5.515625 27.984375 
Q 5.515625 40.671875 11.671875 48.328125 
Q 17.828125 56 27.875 56 
Q 33.9375 56 38.28125 53.609375 
Q 42.625 51.21875 45.40625 46.390625 
L 45.40625 54.6875 
L 54.390625 54.6875 
z
" id="DejaVuSans-103"/>
      </defs>
      <g transform="translate(277.073661 520.824531)rotate(-90)scale(0.1 -0.1)">
       <use xlink:href="#DejaVuSans-69"/>
       <use x="63.183594" xlink:href="#DejaVuSans-115"/>
       <use x="115.283203" xlink:href="#DejaVuSans-111"/>
       <use x="176.464844" xlink:href="#DejaVuSans-112"/>
       <use x="239.941406" xlink:href="#DejaVuSans-104"/>
       <use x="303.320312" xlink:href="#DejaVuSans-111"/>
       <use x="364.501953" xlink:href="#DejaVuSans-103"/>
       <use x="427.978516" xlink:href="#DejaVuSans-117"/>
       <use x="491.357422" xlink:href="#DejaVuSans-115"/>
      </g>
     </g>
    </g>
    <g id="xtick_7">
     <g id="line2d_7">
      <g>
       <use style="stroke:#000000;stroke-width:0.8;" x="314.171429" xlink:href="#m9f3a218bc0" y="459.477656"/>
      </g>
     </g>
     <g id="text_7">
      <!-- Hogkin lymph. -->
      <defs>
       <path d="M 9.8125 72.90625 
L 19.671875 72.90625 
L 19.671875 43.015625 
L 55.515625 43.015625 
L 55.515625 72.90625 
L 65.375 72.90625 
L 65.375 0 
L 55.515625 0 
L 55.515625 34.71875 
L 19.671875 34.71875 
L 19.671875 0 
L 9.8125 0 
z
" id="DejaVuSans-72"/>
       <path d="M 9.078125 75.984375 
L 18.109375 75.984375 
L 18.109375 31.109375 
L 44.921875 54.6875 
L 56.390625 54.6875 
L 27.390625 29.109375 
L 57.625 0 
L 45.90625 0 
L 18.109375 26.703125 
L 18.109375 0 
L 9.078125 0 
z
" id="DejaVuSans-107"/>
       <path d="M 32.171875 -5.078125 
Q 28.375 -14.84375 24.75 -17.8125 
Q 21.140625 -20.796875 15.09375 -20.796875 
L 7.90625 -20.796875 
L 7.90625 -13.28125 
L 13.1875 -13.28125 
Q 16.890625 -13.28125 18.9375 -11.515625 
Q 21 -9.765625 23.484375 -3.21875 
L 25.09375 0.875 
L 2.984375 54.6875 
L 12.5 54.6875 
L 29.59375 11.921875 
L 46.6875 54.6875 
L 56.203125 54.6875 
z
" id="DejaVuSans-121"/>
       <path d="M 10.6875 12.40625 
L 21 12.40625 
L 21 0 
L 10.6875 0 
z
" id="DejaVuSans-46"/>
      </defs>
      <g transform="translate(316.930804 538.851094)rotate(-90)scale(0.1 -0.1)">
       <use xlink:href="#DejaVuSans-72"/>
       <use x="75.195312" xlink:href="#DejaVuSans-111"/>
       <use x="136.376953" xlink:href="#DejaVuSans-103"/>
       <use x="199.853516" xlink:href="#DejaVuSans-107"/>
       <use x="257.763672" xlink:href="#DejaVuSans-105"/>
       <use x="285.546875" xlink:href="#DejaVuSans-110"/>
       <use x="348.925781" xlink:href="#DejaVuSans-32"/>
       <use x="380.712891" xlink:href="#DejaVuSans-108"/>
       <use x="408.496094" xlink:href="#DejaVuSans-121"/>
       <use x="467.675781" xlink:href="#DejaVuSans-109"/>
       <use x="565.087891" xlink:href="#DejaVuSans-112"/>
       <use x="628.564453" xlink:href="#DejaVuSans-104"/>
       <use x="691.943359" xlink:href="#DejaVuSans-46"/>
      </g>
     </g>
    </g>
    <g id="xtick_8">
     <g id="line2d_8">
      <g>
       <use style="stroke:#000000;stroke-width:0.8;" x="354.028571" xlink:href="#m9f3a218bc0" y="459.477656"/>
      </g>
     </g>
     <g id="text_8">
      <!-- Kidney -->
      <defs>
       <path d="M 9.8125 72.90625 
L 19.671875 72.90625 
L 19.671875 42.09375 
L 52.390625 72.90625 
L 65.09375 72.90625 
L 28.90625 38.921875 
L 67.671875 0 
L 54.6875 0 
L 19.671875 35.109375 
L 19.671875 0 
L 9.8125 0 
z
" id="DejaVuSans-75"/>
      </defs>
      <g transform="translate(356.787946 500.571406)rotate(-90)scale(0.1 -0.1)">
       <use xlink:href="#DejaVuSans-75"/>
       <use x="65.576172" xlink:href="#DejaVuSans-105"/>
       <use x="93.359375" xlink:href="#DejaVuSans-100"/>
       <use x="156.835938" xlink:href="#DejaVuSans-110"/>
       <use x="220.214844" xlink:href="#DejaVuSans-101"/>
       <use x="281.738281" xlink:href="#DejaVuSans-121"/>
      </g>
     </g>
    </g>
    <g id="xtick_9">
     <g id="line2d_9">
      <g>
       <use style="stroke:#000000;stroke-width:0.8;" x="393.885714" xlink:href="#m9f3a218bc0" y="459.477656"/>
      </g>
     </g>
     <g id="text_9">
      <!-- Leukemia -->
      <defs>
       <path d="M 9.8125 72.90625 
L 19.671875 72.90625 
L 19.671875 8.296875 
L 55.171875 8.296875 
L 55.171875 0 
L 9.8125 0 
z
" id="DejaVuSans-76"/>
      </defs>
      <g transform="translate(396.645089 514.593281)rotate(-90)scale(0.1 -0.1)">
       <use xlink:href="#DejaVuSans-76"/>
       <use x="53.962891" xlink:href="#DejaVuSans-101"/>
       <use x="115.486328" xlink:href="#DejaVuSans-117"/>
       <use x="178.865234" xlink:href="#DejaVuSans-107"/>
       <use x="233.150391" xlink:href="#DejaVuSans-101"/>
       <use x="294.673828" xlink:href="#DejaVuSans-109"/>
       <use x="392.085938" xlink:href="#DejaVuSans-105"/>
       <use x="419.869141" xlink:href="#DejaVuSans-97"/>
      </g>
     </g>
    </g>
    <g id="xtick_10">
     <g id="line2d_10">
      <g>
       <use style="stroke:#000000;stroke-width:0.8;" x="433.742857" xlink:href="#m9f3a218bc0" y="459.477656"/>
      </g>
     </g>
     <g id="text_10">
      <!-- Liver -->
      <g transform="translate(436.502232 491.010469)rotate(-90)scale(0.1 -0.1)">
       <use xlink:href="#DejaVuSans-76"/>
       <use x="55.712891" xlink:href="#DejaVuSans-105"/>
       <use x="83.496094" xlink:href="#DejaVuSans-118"/>
       <use x="142.675781" xlink:href="#DejaVuSans-101"/>
       <use x="204.199219" xlink:href="#DejaVuSans-114"/>
      </g>
     </g>
    </g>
    <g id="xtick_11">
     <g id="line2d_11">
      <g>
       <use style="stroke:#000000;stroke-width:0.8;" x="473.6" xlink:href="#m9f3a218bc0" y="459.477656"/>
      </g>
     </g>
     <g id="text_11">
      <!-- Lung -->
      <g transform="translate(476.359375 490.897969)rotate(-90)scale(0.1 -0.1)">
       <use xlink:href="#DejaVuSans-76"/>
       <use x="53.962891" xlink:href="#DejaVuSans-117"/>
       <use x="117.341797" xlink:href="#DejaVuSans-110"/>
       <use x="180.720703" xlink:href="#DejaVuSans-103"/>
      </g>
     </g>
    </g>
    <g id="xtick_12">
     <g id="line2d_12">
      <g>
       <use style="stroke:#000000;stroke-width:0.8;" x="513.457143" xlink:href="#m9f3a218bc0" y="459.477656"/>
      </g>
     </g>
     <g id="text_12">
      <!-- Myeloma -->
      <defs>
       <path d="M 9.8125 72.90625 
L 24.515625 72.90625 
L 43.109375 23.296875 
L 61.8125 72.90625 
L 76.515625 72.90625 
L 76.515625 0 
L 66.890625 0 
L 66.890625 64.015625 
L 48.09375 14.015625 
L 38.1875 14.015625 
L 19.390625 64.015625 
L 19.390625 0 
L 9.8125 0 
z
" id="DejaVuSans-77"/>
      </defs>
      <g transform="translate(516.216518 511.943281)rotate(-90)scale(0.1 -0.1)">
       <use xlink:href="#DejaVuSans-77"/>
       <use x="86.279297" xlink:href="#DejaVuSans-121"/>
       <use x="145.458984" xlink:href="#DejaVuSans-101"/>
       <use x="206.982422" xlink:href="#DejaVuSans-108"/>
       <use x="234.765625" xlink:href="#DejaVuSans-111"/>
       <use x="295.947266" xlink:href="#DejaVuSans-109"/>
       <use x="393.359375" xlink:href="#DejaVuSans-97"/>
      </g>
     </g>
    </g>
    <g id="xtick_13">
     <g id="line2d_13">
      <g>
       <use style="stroke:#000000;stroke-width:0.8;" x="553.314286" xlink:href="#m9f3a218bc0" y="459.477656"/>
      </g>
     </g>
     <g id="text_13">
      <!-- NH Lymphoma -->
      <g transform="translate(556.073661 539.649531)rotate(-90)scale(0.1 -0.1)">
       <use xlink:href="#DejaVuSans-78"/>
       <use x="74.804688" xlink:href="#DejaVuSans-72"/>
       <use x="150" xlink:href="#DejaVuSans-32"/>
       <use x="181.787109" xlink:href="#DejaVuSans-76"/>
       <use x="228.375" xlink:href="#DejaVuSans-121"/>
       <use x="287.554688" xlink:href="#DejaVuSans-109"/>
       <use x="384.966797" xlink:href="#DejaVuSans-112"/>
       <use x="448.443359" xlink:href="#DejaVuSans-104"/>
       <use x="511.822266" xlink:href="#DejaVuSans-111"/>
       <use x="573.003906" xlink:href="#DejaVuSans-109"/>
       <use x="670.416016" xlink:href="#DejaVuSans-97"/>
      </g>
     </g>
    </g>
    <g id="xtick_14">
     <g id="line2d_14">
      <g>
       <use style="stroke:#000000;stroke-width:0.8;" x="593.171429" xlink:href="#m9f3a218bc0" y="459.477656"/>
      </g>
     </g>
     <g id="text_14">
      <!-- Oral,pharnyx -->
      <g transform="translate(595.930804 531.469844)rotate(-90)scale(0.1 -0.1)">
       <use xlink:href="#DejaVuSans-79"/>
       <use x="78.710938" xlink:href="#DejaVuSans-114"/>
       <use x="119.824219" xlink:href="#DejaVuSans-97"/>
       <use x="181.103516" xlink:href="#DejaVuSans-108"/>
       <use x="208.886719" xlink:href="#DejaVuSans-44"/>
       <use x="240.673828" xlink:href="#DejaVuSans-112"/>
       <use x="304.150391" xlink:href="#DejaVuSans-104"/>
       <use x="367.529297" xlink:href="#DejaVuSans-97"/>
       <use x="428.808594" xlink:href="#DejaVuSans-114"/>
       <use x="468.171875" xlink:href="#DejaVuSans-110"/>
       <use x="531.550781" xlink:href="#DejaVuSans-121"/>
       <use x="590.730469" xlink:href="#DejaVuSans-120"/>
      </g>
     </g>
    </g>
    <g id="xtick_15">
     <g id="line2d_15">
      <g>
       <use style="stroke:#000000;stroke-width:0.8;" x="633.028571" xlink:href="#m9f3a218bc0" y="459.477656"/>
      </g>
     </g>
     <g id="text_15">
      <!-- Ovary -->
      <g transform="translate(635.787946 496.426094)rotate(-90)scale(0.1 -0.1)">
       <use xlink:href="#DejaVuSans-79"/>
       <use x="78.710938" xlink:href="#DejaVuSans-118"/>
       <use x="137.890625" xlink:href="#DejaVuSans-97"/>
       <use x="199.169922" xlink:href="#DejaVuSans-114"/>
       <use x="240.283203" xlink:href="#DejaVuSans-121"/>
      </g>
     </g>
    </g>
    <g id="xtick_16">
     <g id="line2d_16">
      <g>
       <use style="stroke:#000000;stroke-width:0.8;" x="672.885714" xlink:href="#m9f3a218bc0" y="459.477656"/>
      </g>
     </g>
     <g id="text_16">
      <!-- Pancreas -->
      <defs>
       <path d="M 19.671875 64.796875 
L 19.671875 37.40625 
L 32.078125 37.40625 
Q 38.96875 37.40625 42.71875 40.96875 
Q 46.484375 44.53125 46.484375 51.125 
Q 46.484375 57.671875 42.71875 61.234375 
Q 38.96875 64.796875 32.078125 64.796875 
z
M 9.8125 72.90625 
L 32.078125 72.90625 
Q 44.34375 72.90625 50.609375 67.359375 
Q 56.890625 61.8125 56.890625 51.125 
Q 56.890625 40.328125 50.609375 34.8125 
Q 44.34375 29.296875 32.078125 29.296875 
L 19.671875 29.296875 
L 19.671875 0 
L 9.8125 0 
z
" id="DejaVuSans-80"/>
      </defs>
      <g transform="translate(675.645089 511.397969)rotate(-90)scale(0.1 -0.1)">
       <use xlink:href="#DejaVuSans-80"/>
       <use x="55.802734" xlink:href="#DejaVuSans-97"/>
       <use x="117.082031" xlink:href="#DejaVuSans-110"/>
       <use x="180.460938" xlink:href="#DejaVuSans-99"/>
       <use x="235.441406" xlink:href="#DejaVuSans-114"/>
       <use x="274.304688" xlink:href="#DejaVuSans-101"/>
       <use x="335.828125" xlink:href="#DejaVuSans-97"/>
       <use x="397.107422" xlink:href="#DejaVuSans-115"/>
      </g>
     </g>
    </g>
    <g id="xtick_17">
     <g id="line2d_17">
      <g>
       <use style="stroke:#000000;stroke-width:0.8;" x="712.742857" xlink:href="#m9f3a218bc0" y="459.477656"/>
      </g>
     </g>
     <g id="text_17">
      <!-- Prostate -->
      <g transform="translate(715.502232 507.668281)rotate(-90)scale(0.1 -0.1)">
       <use xlink:href="#DejaVuSans-80"/>
       <use x="58.552734" xlink:href="#DejaVuSans-114"/>
       <use x="97.416016" xlink:href="#DejaVuSans-111"/>
       <use x="158.597656" xlink:href="#DejaVuSans-115"/>
       <use x="210.697266" xlink:href="#DejaVuSans-116"/>
       <use x="249.90625" xlink:href="#DejaVuSans-97"/>
       <use x="311.185547" xlink:href="#DejaVuSans-116"/>
       <use x="350.394531" xlink:href="#DejaVuSans-101"/>
      </g>
     </g>
    </g>
    <g id="xtick_18">
     <g id="line2d_18">
      <g>
       <use style="stroke:#000000;stroke-width:0.8;" x="752.6" xlink:href="#m9f3a218bc0" y="459.477656"/>
      </g>
     </g>
     <g id="text_18">
      <!-- Melanoma (skin) -->
      <defs>
       <path d="M 31 75.875 
Q 24.46875 64.65625 21.28125 53.65625 
Q 18.109375 42.671875 18.109375 31.390625 
Q 18.109375 20.125 21.3125 9.0625 
Q 24.515625 -2 31 -13.1875 
L 23.1875 -13.1875 
Q 15.875 -1.703125 12.234375 9.375 
Q 8.59375 20.453125 8.59375 31.390625 
Q 8.59375 42.28125 12.203125 53.3125 
Q 15.828125 64.359375 23.1875 75.875 
z
" id="DejaVuSans-40"/>
       <path d="M 8.015625 75.875 
L 15.828125 75.875 
Q 23.140625 64.359375 26.78125 53.3125 
Q 30.421875 42.28125 30.421875 31.390625 
Q 30.421875 20.453125 26.78125 9.375 
Q 23.140625 -1.703125 15.828125 -13.1875 
L 8.015625 -13.1875 
Q 14.5 -2 17.703125 9.0625 
Q 20.90625 20.125 20.90625 31.390625 
Q 20.90625 42.671875 17.703125 53.65625 
Q 14.5 64.65625 8.015625 75.875 
z
" id="DejaVuSans-41"/>
      </defs>
      <g transform="translate(755.359375 549.587031)rotate(-90)scale(0.1 -0.1)">
       <use xlink:href="#DejaVuSans-77"/>
       <use x="86.279297" xlink:href="#DejaVuSans-101"/>
       <use x="147.802734" xlink:href="#DejaVuSans-108"/>
       <use x="175.585938" xlink:href="#DejaVuSans-97"/>
       <use x="236.865234" xlink:href="#DejaVuSans-110"/>
       <use x="300.244141" xlink:href="#DejaVuSans-111"/>
       <use x="361.425781" xlink:href="#DejaVuSans-109"/>
       <use x="458.837891" xlink:href="#DejaVuSans-97"/>
       <use x="520.117188" xlink:href="#DejaVuSans-32"/>
       <use x="551.904297" xlink:href="#DejaVuSans-40"/>
       <use x="590.917969" xlink:href="#DejaVuSans-115"/>
       <use x="643.017578" xlink:href="#DejaVuSans-107"/>
       <use x="700.927734" xlink:href="#DejaVuSans-105"/>
       <use x="728.710938" xlink:href="#DejaVuSans-110"/>
       <use x="792.089844" xlink:href="#DejaVuSans-41"/>
      </g>
     </g>
    </g>
    <g id="xtick_19">
     <g id="line2d_19">
      <g>
       <use style="stroke:#000000;stroke-width:0.8;" x="792.457143" xlink:href="#m9f3a218bc0" y="459.477656"/>
      </g>
     </g>
     <g id="text_19">
      <!-- Stomach -->
      <g transform="translate(795.216518 510.569844)rotate(-90)scale(0.1 -0.1)">
       <use xlink:href="#DejaVuSans-83"/>
       <use x="63.476562" xlink:href="#DejaVuSans-116"/>
       <use x="102.685547" xlink:href="#DejaVuSans-111"/>
       <use x="163.867188" xlink:href="#DejaVuSans-109"/>
       <use x="261.279297" xlink:href="#DejaVuSans-97"/>
       <use x="322.558594" xlink:href="#DejaVuSans-99"/>
       <use x="377.539062" xlink:href="#DejaVuSans-104"/>
      </g>
     </g>
    </g>
    <g id="xtick_20">
     <g id="line2d_20">
      <g>
       <use style="stroke:#000000;stroke-width:0.8;" x="832.314286" xlink:href="#m9f3a218bc0" y="459.477656"/>
      </g>
     </g>
     <g id="text_20">
      <!-- Testes -->
      <defs>
       <path d="M -0.296875 72.90625 
L 61.375 72.90625 
L 61.375 64.59375 
L 35.5 64.59375 
L 35.5 0 
L 25.59375 0 
L 25.59375 64.59375 
L -0.296875 64.59375 
z
" id="DejaVuSans-84"/>
      </defs>
      <g transform="translate(835.073661 497.530781)rotate(-90)scale(0.1 -0.1)">
       <use xlink:href="#DejaVuSans-84"/>
       <use x="44.083984" xlink:href="#DejaVuSans-101"/>
       <use x="105.607422" xlink:href="#DejaVuSans-115"/>
       <use x="157.707031" xlink:href="#DejaVuSans-116"/>
       <use x="196.916016" xlink:href="#DejaVuSans-101"/>
       <use x="258.439453" xlink:href="#DejaVuSans-115"/>
      </g>
     </g>
    </g>
    <g id="xtick_21">
     <g id="line2d_21">
      <g>
       <use style="stroke:#000000;stroke-width:0.8;" x="872.171429" xlink:href="#m9f3a218bc0" y="459.477656"/>
      </g>
     </g>
     <g id="text_21">
      <!-- Uterus -->
      <defs>
       <path d="M 8.6875 72.90625 
L 18.609375 72.90625 
L 18.609375 28.609375 
Q 18.609375 16.890625 22.84375 11.734375 
Q 27.09375 6.59375 36.625 6.59375 
Q 46.09375 6.59375 50.34375 11.734375 
Q 54.59375 16.890625 54.59375 28.609375 
L 54.59375 72.90625 
L 64.5 72.90625 
L 64.5 27.390625 
Q 64.5 13.140625 57.4375 5.859375 
Q 50.390625 -1.421875 36.625 -1.421875 
Q 22.796875 -1.421875 15.734375 5.859375 
Q 8.6875 13.140625 8.6875 27.390625 
z
" id="DejaVuSans-85"/>
      </defs>
      <g transform="translate(874.930804 499.527656)rotate(-90)scale(0.1 -0.1)">
       <use xlink:href="#DejaVuSans-85"/>
       <use x="73.193359" xlink:href="#DejaVuSans-116"/>
       <use x="112.402344" xlink:href="#DejaVuSans-101"/>
       <use x="173.925781" xlink:href="#DejaVuSans-114"/>
       <use x="215.039062" xlink:href="#DejaVuSans-117"/>
       <use x="278.417969" xlink:href="#DejaVuSans-115"/>
      </g>
     </g>
    </g>
    <g id="text_22">
     <!-- Cancer Site -->
     <defs>
      <path d="M 67 4 
Q 61.8125 1.3125 56.203125 -0.046875 
Q 50.59375 -1.421875 44.484375 -1.421875 
Q 26.265625 -1.421875 15.625 8.765625 
Q 4.984375 18.953125 4.984375 36.375 
Q 4.984375 53.859375 15.625 64.03125 
Q 26.265625 74.21875 44.484375 74.21875 
Q 50.59375 74.21875 56.203125 72.84375 
Q 61.8125 71.484375 67 68.796875 
L 67 53.71875 
Q 61.765625 57.28125 56.6875 58.9375 
Q 51.609375 60.59375 46 60.59375 
Q 35.9375 60.59375 30.171875 54.140625 
Q 24.421875 47.703125 24.421875 36.375 
Q 24.421875 25.09375 30.171875 18.640625 
Q 35.9375 12.203125 46 12.203125 
Q 51.609375 12.203125 56.6875 13.859375 
Q 61.765625 15.53125 67 19.09375 
z
" id="DejaVuSans-Bold-67"/>
      <path d="M 32.90625 24.609375 
Q 27.4375 24.609375 24.671875 22.75 
Q 21.921875 20.90625 21.921875 17.28125 
Q 21.921875 13.96875 24.140625 12.078125 
Q 26.375 10.203125 30.328125 10.203125 
Q 35.25 10.203125 38.625 13.734375 
Q 42 17.28125 42 22.609375 
L 42 24.609375 
z
M 59.625 31.203125 
L 59.625 0 
L 42 0 
L 42 8.109375 
Q 38.484375 3.125 34.078125 0.84375 
Q 29.6875 -1.421875 23.390625 -1.421875 
Q 14.890625 -1.421875 9.59375 3.53125 
Q 4.296875 8.5 4.296875 16.40625 
Q 4.296875 26.03125 10.90625 30.515625 
Q 17.53125 35.015625 31.6875 35.015625 
L 42 35.015625 
L 42 36.375 
Q 42 40.53125 38.71875 42.453125 
Q 35.453125 44.390625 28.515625 44.390625 
Q 22.90625 44.390625 18.0625 43.265625 
Q 13.234375 42.140625 9.078125 39.890625 
L 9.078125 53.21875 
Q 14.703125 54.59375 20.359375 55.296875 
Q 26.03125 56 31.6875 56 
Q 46.484375 56 53.046875 50.171875 
Q 59.625 44.34375 59.625 31.203125 
z
" id="DejaVuSans-Bold-97"/>
      <path d="M 63.375 33.296875 
L 63.375 0 
L 45.796875 0 
L 45.796875 5.421875 
L 45.796875 25.484375 
Q 45.796875 32.5625 45.484375 35.25 
Q 45.171875 37.9375 44.390625 39.203125 
Q 43.359375 40.921875 41.59375 41.875 
Q 39.84375 42.828125 37.59375 42.828125 
Q 32.125 42.828125 29 38.59375 
Q 25.875 34.375 25.875 26.90625 
L 25.875 0 
L 8.40625 0 
L 8.40625 54.6875 
L 25.875 54.6875 
L 25.875 46.6875 
Q 29.828125 51.46875 34.265625 53.734375 
Q 38.71875 56 44.09375 56 
Q 53.5625 56 58.46875 50.1875 
Q 63.375 44.390625 63.375 33.296875 
z
" id="DejaVuSans-Bold-110"/>
      <path d="M 52.59375 52.984375 
L 52.59375 38.71875 
Q 49.03125 41.15625 45.4375 42.328125 
Q 41.84375 43.5 37.984375 43.5 
Q 30.671875 43.5 26.59375 39.234375 
Q 22.515625 34.96875 22.515625 27.296875 
Q 22.515625 19.625 26.59375 15.34375 
Q 30.671875 11.078125 37.984375 11.078125 
Q 42.09375 11.078125 45.78125 12.296875 
Q 49.46875 13.53125 52.59375 15.921875 
L 52.59375 1.609375 
Q 48.484375 0.09375 44.265625 -0.65625 
Q 40.046875 -1.421875 35.796875 -1.421875 
Q 21 -1.421875 12.640625 6.171875 
Q 4.296875 13.765625 4.296875 27.296875 
Q 4.296875 40.828125 12.640625 48.40625 
Q 21 56 35.796875 56 
Q 40.09375 56 44.265625 55.25 
Q 48.4375 54.5 52.59375 52.984375 
z
" id="DejaVuSans-Bold-99"/>
      <path d="M 62.984375 27.484375 
L 62.984375 22.515625 
L 22.125 22.515625 
Q 22.75 16.359375 26.5625 13.28125 
Q 30.375 10.203125 37.203125 10.203125 
Q 42.71875 10.203125 48.5 11.84375 
Q 54.296875 13.484375 60.40625 16.796875 
L 60.40625 3.328125 
Q 54.203125 0.984375 48 -0.21875 
Q 41.796875 -1.421875 35.59375 -1.421875 
Q 20.75 -1.421875 12.515625 6.125 
Q 4.296875 13.671875 4.296875 27.296875 
Q 4.296875 40.671875 12.375 48.328125 
Q 20.453125 56 34.625 56 
Q 47.515625 56 55.25 48.234375 
Q 62.984375 40.484375 62.984375 27.484375 
z
M 45.015625 33.296875 
Q 45.015625 38.28125 42.109375 41.328125 
Q 39.203125 44.390625 34.515625 44.390625 
Q 29.4375 44.390625 26.265625 41.53125 
Q 23.09375 38.671875 22.3125 33.296875 
z
" id="DejaVuSans-Bold-101"/>
      <path d="M 49.03125 39.796875 
Q 46.734375 40.875 44.453125 41.375 
Q 42.1875 41.890625 39.890625 41.890625 
Q 33.15625 41.890625 29.515625 37.5625 
Q 25.875 33.25 25.875 25.203125 
L 25.875 0 
L 8.40625 0 
L 8.40625 54.6875 
L 25.875 54.6875 
L 25.875 45.703125 
Q 29.25 51.078125 33.609375 53.53125 
Q 37.984375 56 44.09375 56 
Q 44.96875 56 45.984375 55.921875 
Q 47.015625 55.859375 48.96875 55.609375 
z
" id="DejaVuSans-Bold-114"/>
      <path id="DejaVuSans-Bold-32"/>
      <path d="M 59.90625 70.609375 
L 59.90625 55.171875 
Q 53.90625 57.859375 48.1875 59.21875 
Q 42.484375 60.59375 37.40625 60.59375 
Q 30.671875 60.59375 27.4375 58.734375 
Q 24.21875 56.890625 24.21875 52.984375 
Q 24.21875 50.046875 26.390625 48.40625 
Q 28.5625 46.78125 34.28125 45.609375 
L 42.28125 44 
Q 54.4375 41.546875 59.5625 36.5625 
Q 64.703125 31.59375 64.703125 22.40625 
Q 64.703125 10.359375 57.546875 4.46875 
Q 50.390625 -1.421875 35.6875 -1.421875 
Q 28.765625 -1.421875 21.78125 -0.09375 
Q 14.796875 1.21875 7.8125 3.8125 
L 7.8125 19.671875 
Q 14.796875 15.96875 21.3125 14.078125 
Q 27.828125 12.203125 33.890625 12.203125 
Q 40.046875 12.203125 43.3125 14.25 
Q 46.578125 16.3125 46.578125 20.125 
Q 46.578125 23.53125 44.359375 25.390625 
Q 42.140625 27.25 35.5 28.71875 
L 28.21875 30.328125 
Q 17.28125 32.671875 12.21875 37.796875 
Q 7.171875 42.921875 7.171875 51.609375 
Q 7.171875 62.5 14.203125 68.359375 
Q 21.234375 74.21875 34.421875 74.21875 
Q 40.4375 74.21875 46.78125 73.3125 
Q 53.125 72.40625 59.90625 70.609375 
z
" id="DejaVuSans-Bold-83"/>
      <path d="M 8.40625 54.6875 
L 25.875 54.6875 
L 25.875 0 
L 8.40625 0 
z
M 8.40625 75.984375 
L 25.875 75.984375 
L 25.875 61.71875 
L 8.40625 61.71875 
z
" id="DejaVuSans-Bold-105"/>
      <path d="M 27.484375 70.21875 
L 27.484375 54.6875 
L 45.515625 54.6875 
L 45.515625 42.1875 
L 27.484375 42.1875 
L 27.484375 19 
Q 27.484375 15.1875 29 13.84375 
Q 30.515625 12.5 35.015625 12.5 
L 44 12.5 
L 44 0 
L 29 0 
Q 18.65625 0 14.328125 4.3125 
Q 10.015625 8.640625 10.015625 19 
L 10.015625 42.1875 
L 1.3125 42.1875 
L 1.3125 54.6875 
L 10.015625 54.6875 
L 10.015625 70.21875 
z
" id="DejaVuSans-Bold-116"/>
     </defs>
     <g transform="translate(425.208594 564.984687)scale(0.15 -0.15)">
      <use xlink:href="#DejaVuSans-Bold-67"/>
      <use x="73.388672" xlink:href="#DejaVuSans-Bold-97"/>
      <use x="140.869141" xlink:href="#DejaVuSans-Bold-110"/>
      <use x="212.060547" xlink:href="#DejaVuSans-Bold-99"/>
      <use x="271.337891" xlink:href="#DejaVuSans-Bold-101"/>
      <use x="339.160156" xlink:href="#DejaVuSans-Bold-114"/>
      <use x="388.476562" xlink:href="#DejaVuSans-Bold-32"/>
      <use x="423.291016" xlink:href="#DejaVuSans-Bold-83"/>
      <use x="495.3125" xlink:href="#DejaVuSans-Bold-105"/>
      <use x="529.589844" xlink:href="#DejaVuSans-Bold-116"/>
      <use x="577.392578" xlink:href="#DejaVuSans-Bold-101"/>
     </g>
    </g>
   </g>
   <g id="matplotlib.axis_2">
    <g id="ytick_1">
     <g id="line2d_22">
      <defs>
       <path d="M 0 0 
L -3.5 0 
" id="mcd4cc9eb40" style="stroke:#000000;stroke-width:0.8;"/>
      </defs>
      <g>
       <use style="stroke:#000000;stroke-width:0.8;" x="55.1" xlink:href="#mcd4cc9eb40" y="459.477656"/>
      </g>
     </g>
     <g id="text_23">
      <!-- 0.0 -->
      <defs>
       <path d="M 31.78125 66.40625 
Q 24.171875 66.40625 20.328125 58.90625 
Q 16.5 51.421875 16.5 36.375 
Q 16.5 21.390625 20.328125 13.890625 
Q 24.171875 6.390625 31.78125 6.390625 
Q 39.453125 6.390625 43.28125 13.890625 
Q 47.125 21.390625 47.125 36.375 
Q 47.125 51.421875 43.28125 58.90625 
Q 39.453125 66.40625 31.78125 66.40625 
z
M 31.78125 74.21875 
Q 44.046875 74.21875 50.515625 64.515625 
Q 56.984375 54.828125 56.984375 36.375 
Q 56.984375 17.96875 50.515625 8.265625 
Q 44.046875 -1.421875 31.78125 -1.421875 
Q 19.53125 -1.421875 13.0625 8.265625 
Q 6.59375 17.96875 6.59375 36.375 
Q 6.59375 54.828125 13.0625 64.515625 
Q 19.53125 74.21875 31.78125 74.21875 
z
" id="DejaVuSans-48"/>
      </defs>
      <g transform="translate(32.196875 463.276875)scale(0.1 -0.1)">
       <use xlink:href="#DejaVuSans-48"/>
       <use x="63.623047" xlink:href="#DejaVuSans-46"/>
       <use x="95.410156" xlink:href="#DejaVuSans-48"/>
      </g>
     </g>
    </g>
    <g id="ytick_2">
     <g id="line2d_23">
      <g>
       <use style="stroke:#000000;stroke-width:0.8;" x="55.1" xlink:href="#mcd4cc9eb40" y="402.495247"/>
      </g>
     </g>
     <g id="text_24">
      <!-- 2.5 -->
      <defs>
       <path d="M 19.1875 8.296875 
L 53.609375 8.296875 
L 53.609375 0 
L 7.328125 0 
L 7.328125 8.296875 
Q 12.9375 14.109375 22.625 23.890625 
Q 32.328125 33.6875 34.8125 36.53125 
Q 39.546875 41.84375 41.421875 45.53125 
Q 43.3125 49.21875 43.3125 52.78125 
Q 43.3125 58.59375 39.234375 62.25 
Q 35.15625 65.921875 28.609375 65.921875 
Q 23.96875 65.921875 18.8125 64.3125 
Q 13.671875 62.703125 7.8125 59.421875 
L 7.8125 69.390625 
Q 13.765625 71.78125 18.9375 73 
Q 24.125 74.21875 28.421875 74.21875 
Q 39.75 74.21875 46.484375 68.546875 
Q 53.21875 62.890625 53.21875 53.421875 
Q 53.21875 48.921875 51.53125 44.890625 
Q 49.859375 40.875 45.40625 35.40625 
Q 44.1875 33.984375 37.640625 27.21875 
Q 31.109375 20.453125 19.1875 8.296875 
z
" id="DejaVuSans-50"/>
       <path d="M 10.796875 72.90625 
L 49.515625 72.90625 
L 49.515625 64.59375 
L 19.828125 64.59375 
L 19.828125 46.734375 
Q 21.96875 47.46875 24.109375 47.828125 
Q 26.265625 48.1875 28.421875 48.1875 
Q 40.625 48.1875 47.75 41.5 
Q 54.890625 34.8125 54.890625 23.390625 
Q 54.890625 11.625 47.5625 5.09375 
Q 40.234375 -1.421875 26.90625 -1.421875 
Q 22.3125 -1.421875 17.546875 -0.640625 
Q 12.796875 0.140625 7.71875 1.703125 
L 7.71875 11.625 
Q 12.109375 9.234375 16.796875 8.0625 
Q 21.484375 6.890625 26.703125 6.890625 
Q 35.15625 6.890625 40.078125 11.328125 
Q 45.015625 15.765625 45.015625 23.390625 
Q 45.015625 31 40.078125 35.4375 
Q 35.15625 39.890625 26.703125 39.890625 
Q 22.75 39.890625 18.8125 39.015625 
Q 14.890625 38.140625 10.796875 36.28125 
z
" id="DejaVuSans-53"/>
      </defs>
      <g transform="translate(32.196875 406.294466)scale(0.1 -0.1)">
       <use xlink:href="#DejaVuSans-50"/>
       <use x="63.623047" xlink:href="#DejaVuSans-46"/>
       <use x="95.410156" xlink:href="#DejaVuSans-53"/>
      </g>
     </g>
    </g>
    <g id="ytick_3">
     <g id="line2d_24">
      <g>
       <use style="stroke:#000000;stroke-width:0.8;" x="55.1" xlink:href="#mcd4cc9eb40" y="345.512838"/>
      </g>
     </g>
     <g id="text_25">
      <!-- 5.0 -->
      <g transform="translate(32.196875 349.312057)scale(0.1 -0.1)">
       <use xlink:href="#DejaVuSans-53"/>
       <use x="63.623047" xlink:href="#DejaVuSans-46"/>
       <use x="95.410156" xlink:href="#DejaVuSans-48"/>
      </g>
     </g>
    </g>
    <g id="ytick_4">
     <g id="line2d_25">
      <g>
       <use style="stroke:#000000;stroke-width:0.8;" x="55.1" xlink:href="#mcd4cc9eb40" y="288.530429"/>
      </g>
     </g>
     <g id="text_26">
      <!-- 7.5 -->
      <defs>
       <path d="M 8.203125 72.90625 
L 55.078125 72.90625 
L 55.078125 68.703125 
L 28.609375 0 
L 18.3125 0 
L 43.21875 64.59375 
L 8.203125 64.59375 
z
" id="DejaVuSans-55"/>
      </defs>
      <g transform="translate(32.196875 292.329648)scale(0.1 -0.1)">
       <use xlink:href="#DejaVuSans-55"/>
       <use x="63.623047" xlink:href="#DejaVuSans-46"/>
       <use x="95.410156" xlink:href="#DejaVuSans-53"/>
      </g>
     </g>
    </g>
    <g id="ytick_5">
     <g id="line2d_26">
      <g>
       <use style="stroke:#000000;stroke-width:0.8;" x="55.1" xlink:href="#mcd4cc9eb40" y="231.54802"/>
      </g>
     </g>
     <g id="text_27">
      <!-- 10.0 -->
      <defs>
       <path d="M 12.40625 8.296875 
L 28.515625 8.296875 
L 28.515625 63.921875 
L 10.984375 60.40625 
L 10.984375 69.390625 
L 28.421875 72.90625 
L 38.28125 72.90625 
L 38.28125 8.296875 
L 54.390625 8.296875 
L 54.390625 0 
L 12.40625 0 
z
" id="DejaVuSans-49"/>
      </defs>
      <g transform="translate(25.834375 235.347239)scale(0.1 -0.1)">
       <use xlink:href="#DejaVuSans-49"/>
       <use x="63.623047" xlink:href="#DejaVuSans-48"/>
       <use x="127.246094" xlink:href="#DejaVuSans-46"/>
       <use x="159.033203" xlink:href="#DejaVuSans-48"/>
      </g>
     </g>
    </g>
    <g id="ytick_6">
     <g id="line2d_27">
      <g>
       <use style="stroke:#000000;stroke-width:0.8;" x="55.1" xlink:href="#mcd4cc9eb40" y="174.565611"/>
      </g>
     </g>
     <g id="text_28">
      <!-- 12.5 -->
      <g transform="translate(25.834375 178.36483)scale(0.1 -0.1)">
       <use xlink:href="#DejaVuSans-49"/>
       <use x="63.623047" xlink:href="#DejaVuSans-50"/>
       <use x="127.246094" xlink:href="#DejaVuSans-46"/>
       <use x="159.033203" xlink:href="#DejaVuSans-53"/>
      </g>
     </g>
    </g>
    <g id="ytick_7">
     <g id="line2d_28">
      <g>
       <use style="stroke:#000000;stroke-width:0.8;" x="55.1" xlink:href="#mcd4cc9eb40" y="117.583202"/>
      </g>
     </g>
     <g id="text_29">
      <!-- 15.0 -->
      <g transform="translate(25.834375 121.382421)scale(0.1 -0.1)">
       <use xlink:href="#DejaVuSans-49"/>
       <use x="63.623047" xlink:href="#DejaVuSans-53"/>
       <use x="127.246094" xlink:href="#DejaVuSans-46"/>
       <use x="159.033203" xlink:href="#DejaVuSans-48"/>
      </g>
     </g>
    </g>
    <g id="ytick_8">
     <g id="line2d_29">
      <g>
       <use style="stroke:#000000;stroke-width:0.8;" x="55.1" xlink:href="#mcd4cc9eb40" y="60.600794"/>
      </g>
     </g>
     <g id="text_30">
      <!-- 17.5 -->
      <g transform="translate(25.834375 64.400012)scale(0.1 -0.1)">
       <use xlink:href="#DejaVuSans-49"/>
       <use x="63.623047" xlink:href="#DejaVuSans-55"/>
       <use x="127.246094" xlink:href="#DejaVuSans-46"/>
       <use x="159.033203" xlink:href="#DejaVuSans-53"/>
      </g>
     </g>
    </g>
    <g id="text_31">
     <!-- NCI funding $ per incident or mortality (thousands) -->
     <defs>
      <path d="M 9.1875 72.90625 
L 30.171875 72.90625 
L 56.6875 22.90625 
L 56.6875 72.90625 
L 74.515625 72.90625 
L 74.515625 0 
L 53.515625 0 
L 27 50 
L 27 0 
L 9.1875 0 
z
" id="DejaVuSans-Bold-78"/>
      <path d="M 9.1875 72.90625 
L 27.984375 72.90625 
L 27.984375 0 
L 9.1875 0 
z
" id="DejaVuSans-Bold-73"/>
      <path d="M 44.390625 75.984375 
L 44.390625 64.5 
L 34.71875 64.5 
Q 31 64.5 29.53125 63.15625 
Q 28.078125 61.8125 28.078125 58.5 
L 28.078125 54.6875 
L 43.015625 54.6875 
L 43.015625 42.1875 
L 28.078125 42.1875 
L 28.078125 0 
L 10.59375 0 
L 10.59375 42.1875 
L 1.90625 42.1875 
L 1.90625 54.6875 
L 10.59375 54.6875 
L 10.59375 58.5 
Q 10.59375 67.4375 15.578125 71.703125 
Q 20.5625 75.984375 31 75.984375 
z
" id="DejaVuSans-Bold-102"/>
      <path d="M 7.8125 21.296875 
L 7.8125 54.6875 
L 25.390625 54.6875 
L 25.390625 49.21875 
Q 25.390625 44.78125 25.34375 38.0625 
Q 25.296875 31.34375 25.296875 29.109375 
Q 25.296875 22.515625 25.640625 19.609375 
Q 25.984375 16.703125 26.8125 15.375 
Q 27.875 13.671875 29.609375 12.734375 
Q 31.34375 11.8125 33.59375 11.8125 
Q 39.0625 11.8125 42.1875 16.015625 
Q 45.3125 20.21875 45.3125 27.6875 
L 45.3125 54.6875 
L 62.796875 54.6875 
L 62.796875 0 
L 45.3125 0 
L 45.3125 7.90625 
Q 41.359375 3.125 36.9375 0.84375 
Q 32.515625 -1.421875 27.203125 -1.421875 
Q 17.71875 -1.421875 12.765625 4.390625 
Q 7.8125 10.203125 7.8125 21.296875 
z
" id="DejaVuSans-Bold-117"/>
      <path d="M 45.609375 46.6875 
L 45.609375 75.984375 
L 63.1875 75.984375 
L 63.1875 0 
L 45.609375 0 
L 45.609375 7.90625 
Q 42 3.078125 37.640625 0.828125 
Q 33.296875 -1.421875 27.59375 -1.421875 
Q 17.484375 -1.421875 10.984375 6.609375 
Q 4.5 14.65625 4.5 27.296875 
Q 4.5 39.9375 10.984375 47.96875 
Q 17.484375 56 27.59375 56 
Q 33.25 56 37.625 53.734375 
Q 42 51.46875 45.609375 46.6875 
z
M 34.078125 11.28125 
Q 39.703125 11.28125 42.65625 15.375 
Q 45.609375 19.484375 45.609375 27.296875 
Q 45.609375 35.109375 42.65625 39.203125 
Q 39.703125 43.3125 34.078125 43.3125 
Q 28.515625 43.3125 25.5625 39.203125 
Q 22.609375 35.109375 22.609375 27.296875 
Q 22.609375 19.484375 25.5625 15.375 
Q 28.515625 11.28125 34.078125 11.28125 
z
" id="DejaVuSans-Bold-100"/>
      <path d="M 45.609375 9.28125 
Q 42 4.5 37.640625 2.25 
Q 33.296875 0 27.59375 0 
Q 17.578125 0 11.03125 7.875 
Q 4.5 15.765625 4.5 27.984375 
Q 4.5 40.234375 11.03125 48.0625 
Q 17.578125 55.90625 27.59375 55.90625 
Q 33.296875 55.90625 37.640625 53.65625 
Q 42 51.421875 45.609375 46.578125 
L 45.609375 54.6875 
L 63.1875 54.6875 
L 63.1875 5.515625 
Q 63.1875 -7.671875 54.859375 -14.625 
Q 46.53125 -21.578125 30.71875 -21.578125 
Q 25.59375 -21.578125 20.796875 -20.796875 
Q 16.015625 -20.015625 11.1875 -18.40625 
L 11.1875 -4.78125 
Q 15.765625 -7.421875 20.15625 -8.71875 
Q 24.5625 -10.015625 29 -10.015625 
Q 37.59375 -10.015625 41.59375 -6.25 
Q 45.609375 -2.484375 45.609375 5.515625 
z
M 34.078125 43.3125 
Q 28.65625 43.3125 25.625 39.296875 
Q 22.609375 35.296875 22.609375 27.984375 
Q 22.609375 20.453125 25.53125 16.578125 
Q 28.46875 12.703125 34.078125 12.703125 
Q 39.546875 12.703125 42.578125 16.703125 
Q 45.609375 20.703125 45.609375 27.984375 
Q 45.609375 35.296875 42.578125 39.296875 
Q 39.546875 43.3125 34.078125 43.3125 
z
" id="DejaVuSans-Bold-103"/>
      <path d="M 38.8125 -14.703125 
L 30.90625 -14.703125 
L 30.859375 0 
Q 24.75 0.25 19.03125 1.359375 
Q 13.328125 2.484375 7.90625 4.5 
L 7.90625 17.28125 
Q 13.53125 14.40625 19.265625 12.859375 
Q 25 11.328125 30.90625 11.140625 
L 30.90625 26.3125 
L 29.296875 26.609375 
Q 17.625 28.65625 12.71875 33.046875 
Q 7.8125 37.453125 7.8125 45.703125 
Q 7.8125 54.4375 13.796875 59.34375 
Q 19.78125 64.265625 30.859375 64.703125 
L 30.90625 75.984375 
L 38.8125 75.984375 
L 38.8125 64.890625 
Q 43.703125 64.5 48.578125 63.671875 
Q 53.46875 62.84375 58.40625 61.53125 
L 58.40625 49.125 
Q 53.515625 51.171875 48.625 52.3125 
Q 43.75 53.46875 38.8125 53.71875 
L 38.8125 39.703125 
L 40.375 39.40625 
Q 52.78125 37.453125 57.78125 32.890625 
Q 62.796875 28.328125 62.796875 19.390625 
Q 62.796875 10.40625 56.828125 5.59375 
Q 50.875 0.78125 38.8125 0.09375 
z
M 30.90625 40.828125 
L 30.90625 53.5625 
Q 27.4375 53.375 25.359375 51.6875 
Q 23.296875 50 23.296875 47.40625 
Q 23.296875 44.53125 25.1875 42.890625 
Q 27.09375 41.265625 30.90625 40.828125 
z
M 38.8125 24.90625 
L 38.8125 11.328125 
Q 43.0625 11.375 45.1875 12.984375 
Q 47.3125 14.59375 47.3125 17.828125 
Q 47.3125 21.140625 45.359375 22.78125 
Q 43.40625 24.421875 38.8125 24.90625 
z
" id="DejaVuSans-Bold-36"/>
      <path d="M 25.875 7.90625 
L 25.875 -20.796875 
L 8.40625 -20.796875 
L 8.40625 54.6875 
L 25.875 54.6875 
L 25.875 46.6875 
Q 29.5 51.46875 33.890625 53.734375 
Q 38.28125 56 44 56 
Q 54.109375 56 60.59375 47.96875 
Q 67.09375 39.9375 67.09375 27.296875 
Q 67.09375 14.65625 60.59375 6.609375 
Q 54.109375 -1.421875 44 -1.421875 
Q 38.28125 -1.421875 33.890625 0.84375 
Q 29.5 3.125 25.875 7.90625 
z
M 37.5 43.3125 
Q 31.890625 43.3125 28.875 39.1875 
Q 25.875 35.0625 25.875 27.296875 
Q 25.875 19.53125 28.875 15.40625 
Q 31.890625 11.28125 37.5 11.28125 
Q 43.109375 11.28125 46.0625 15.375 
Q 49.03125 19.484375 49.03125 27.296875 
Q 49.03125 35.109375 46.0625 39.203125 
Q 43.109375 43.3125 37.5 43.3125 
z
" id="DejaVuSans-Bold-112"/>
      <path d="M 34.421875 43.5 
Q 28.609375 43.5 25.5625 39.328125 
Q 22.515625 35.15625 22.515625 27.296875 
Q 22.515625 19.4375 25.5625 15.25 
Q 28.609375 11.078125 34.421875 11.078125 
Q 40.140625 11.078125 43.15625 15.25 
Q 46.1875 19.4375 46.1875 27.296875 
Q 46.1875 35.15625 43.15625 39.328125 
Q 40.140625 43.5 34.421875 43.5 
z
M 34.421875 56 
Q 48.53125 56 56.46875 48.375 
Q 64.40625 40.765625 64.40625 27.296875 
Q 64.40625 13.8125 56.46875 6.1875 
Q 48.53125 -1.421875 34.421875 -1.421875 
Q 20.265625 -1.421875 12.28125 6.1875 
Q 4.296875 13.8125 4.296875 27.296875 
Q 4.296875 40.765625 12.28125 48.375 
Q 20.265625 56 34.421875 56 
z
" id="DejaVuSans-Bold-111"/>
      <path d="M 59.078125 45.609375 
Q 62.40625 50.6875 66.96875 53.34375 
Q 71.53125 56 77 56 
Q 86.421875 56 91.359375 50.1875 
Q 96.296875 44.390625 96.296875 33.296875 
L 96.296875 0 
L 78.71875 0 
L 78.71875 28.515625 
Q 78.765625 29.15625 78.78125 29.828125 
Q 78.8125 30.515625 78.8125 31.78125 
Q 78.8125 37.59375 77.09375 40.203125 
Q 75.390625 42.828125 71.578125 42.828125 
Q 66.609375 42.828125 63.890625 38.71875 
Q 61.1875 34.625 61.078125 26.859375 
L 61.078125 0 
L 43.5 0 
L 43.5 28.515625 
Q 43.5 37.59375 41.9375 40.203125 
Q 40.375 42.828125 36.375 42.828125 
Q 31.34375 42.828125 28.609375 38.703125 
Q 25.875 34.578125 25.875 26.90625 
L 25.875 0 
L 8.296875 0 
L 8.296875 54.6875 
L 25.875 54.6875 
L 25.875 46.6875 
Q 29.109375 51.3125 33.28125 53.65625 
Q 37.453125 56 42.484375 56 
Q 48.140625 56 52.484375 53.265625 
Q 56.84375 50.53125 59.078125 45.609375 
z
" id="DejaVuSans-Bold-109"/>
      <path d="M 8.40625 75.984375 
L 25.875 75.984375 
L 25.875 0 
L 8.40625 0 
z
" id="DejaVuSans-Bold-108"/>
      <path d="M 1.21875 54.6875 
L 18.703125 54.6875 
L 33.40625 17.578125 
L 45.90625 54.6875 
L 63.375 54.6875 
L 40.375 -5.171875 
Q 36.921875 -14.3125 32.296875 -17.9375 
Q 27.6875 -21.578125 20.125 -21.578125 
L 10.015625 -21.578125 
L 10.015625 -10.109375 
L 15.484375 -10.109375 
Q 19.921875 -10.109375 21.9375 -8.6875 
Q 23.96875 -7.28125 25.09375 -3.609375 
L 25.59375 -2.09375 
z
" id="DejaVuSans-Bold-121"/>
      <path d="M 37.703125 -13.1875 
L 23.1875 -13.1875 
Q 15.71875 -1.125 12.15625 9.734375 
Q 8.59375 20.609375 8.59375 31.296875 
Q 8.59375 42 12.171875 52.953125 
Q 15.765625 63.921875 23.1875 75.875 
L 37.703125 75.875 
Q 31.453125 64.3125 28.328125 53.25 
Q 25.203125 42.1875 25.203125 31.390625 
Q 25.203125 20.609375 28.296875 9.515625 
Q 31.390625 -1.5625 37.703125 -13.1875 
z
" id="DejaVuSans-Bold-40"/>
      <path d="M 63.375 33.296875 
L 63.375 0 
L 45.796875 0 
L 45.796875 5.421875 
L 45.796875 25.390625 
Q 45.796875 32.5625 45.484375 35.25 
Q 45.171875 37.9375 44.390625 39.203125 
Q 43.359375 40.921875 41.59375 41.875 
Q 39.84375 42.828125 37.59375 42.828125 
Q 32.125 42.828125 29 38.59375 
Q 25.875 34.375 25.875 26.90625 
L 25.875 0 
L 8.40625 0 
L 8.40625 75.984375 
L 25.875 75.984375 
L 25.875 46.6875 
Q 29.828125 51.46875 34.265625 53.734375 
Q 38.71875 56 44.09375 56 
Q 53.5625 56 58.46875 50.1875 
Q 63.375 44.390625 63.375 33.296875 
z
" id="DejaVuSans-Bold-104"/>
      <path d="M 51.125 52.984375 
L 51.125 39.703125 
Q 45.515625 42.046875 40.28125 43.21875 
Q 35.0625 44.390625 30.421875 44.390625 
Q 25.4375 44.390625 23.015625 43.140625 
Q 20.609375 41.890625 20.609375 39.3125 
Q 20.609375 37.203125 22.4375 36.078125 
Q 24.265625 34.96875 29 34.421875 
L 32.078125 33.984375 
Q 45.515625 32.28125 50.140625 28.375 
Q 54.78125 24.46875 54.78125 16.109375 
Q 54.78125 7.375 48.328125 2.96875 
Q 41.890625 -1.421875 29.109375 -1.421875 
Q 23.6875 -1.421875 17.890625 -0.5625 
Q 12.109375 0.296875 6 2 
L 6 15.28125 
Q 11.234375 12.75 16.71875 11.46875 
Q 22.21875 10.203125 27.875 10.203125 
Q 33.015625 10.203125 35.59375 11.609375 
Q 38.1875 13.03125 38.1875 15.828125 
Q 38.1875 18.171875 36.40625 19.3125 
Q 34.625 20.453125 29.296875 21.09375 
L 26.21875 21.484375 
Q 14.546875 22.953125 9.859375 26.90625 
Q 5.171875 30.859375 5.171875 38.921875 
Q 5.171875 47.609375 11.125 51.796875 
Q 17.09375 56 29.390625 56 
Q 34.234375 56 39.546875 55.265625 
Q 44.875 54.546875 51.125 52.984375 
z
" id="DejaVuSans-Bold-115"/>
      <path d="M 8.015625 -13.1875 
Q 14.265625 -1.5625 17.390625 9.515625 
Q 20.515625 20.609375 20.515625 31.390625 
Q 20.515625 42.1875 17.390625 53.25 
Q 14.265625 64.3125 8.015625 75.875 
L 22.515625 75.875 
Q 29.9375 63.921875 33.515625 52.953125 
Q 37.109375 42 37.109375 31.296875 
Q 37.109375 20.609375 33.546875 9.734375 
Q 29.984375 -1.125 22.515625 -13.1875 
z
" id="DejaVuSans-Bold-41"/>
     </defs>
     <g transform="translate(18.597656 459.898594)rotate(-90)scale(0.15 -0.15)">
      <use xlink:href="#DejaVuSans-Bold-78"/>
      <use x="83.691406" xlink:href="#DejaVuSans-Bold-67"/>
      <use x="157.080078" xlink:href="#DejaVuSans-Bold-73"/>
      <use x="194.287109" xlink:href="#DejaVuSans-Bold-32"/>
      <use x="229.101562" xlink:href="#DejaVuSans-Bold-102"/>
      <use x="272.607422" xlink:href="#DejaVuSans-Bold-117"/>
      <use x="343.798828" xlink:href="#DejaVuSans-Bold-110"/>
      <use x="414.990234" xlink:href="#DejaVuSans-Bold-100"/>
      <use x="486.572266" xlink:href="#DejaVuSans-Bold-105"/>
      <use x="520.849609" xlink:href="#DejaVuSans-Bold-110"/>
      <use x="592.041016" xlink:href="#DejaVuSans-Bold-103"/>
      <use x="663.623047" xlink:href="#DejaVuSans-Bold-32"/>
      <use x="698.4375" xlink:href="#DejaVuSans-Bold-36"/>
      <use x="768.017578" xlink:href="#DejaVuSans-Bold-32"/>
      <use x="802.832031" xlink:href="#DejaVuSans-Bold-112"/>
      <use x="874.414062" xlink:href="#DejaVuSans-Bold-101"/>
      <use x="942.236328" xlink:href="#DejaVuSans-Bold-114"/>
      <use x="991.552734" xlink:href="#DejaVuSans-Bold-32"/>
      <use x="1026.367188" xlink:href="#DejaVuSans-Bold-105"/>
      <use x="1060.644531" xlink:href="#DejaVuSans-Bold-110"/>
      <use x="1131.835938" xlink:href="#DejaVuSans-Bold-99"/>
      <use x="1191.113281" xlink:href="#DejaVuSans-Bold-105"/>
      <use x="1225.390625" xlink:href="#DejaVuSans-Bold-100"/>
      <use x="1296.972656" xlink:href="#DejaVuSans-Bold-101"/>
      <use x="1364.794922" xlink:href="#DejaVuSans-Bold-110"/>
      <use x="1435.986328" xlink:href="#DejaVuSans-Bold-116"/>
      <use x="1483.789062" xlink:href="#DejaVuSans-Bold-32"/>
      <use x="1518.603516" xlink:href="#DejaVuSans-Bold-111"/>
      <use x="1587.304688" xlink:href="#DejaVuSans-Bold-114"/>
      <use x="1636.621094" xlink:href="#DejaVuSans-Bold-32"/>
      <use x="1671.435547" xlink:href="#DejaVuSans-Bold-109"/>
      <use x="1775.634766" xlink:href="#DejaVuSans-Bold-111"/>
      <use x="1844.335938" xlink:href="#DejaVuSans-Bold-114"/>
      <use x="1893.652344" xlink:href="#DejaVuSans-Bold-116"/>
      <use x="1941.455078" xlink:href="#DejaVuSans-Bold-97"/>
      <use x="2008.935547" xlink:href="#DejaVuSans-Bold-108"/>
      <use x="2043.212891" xlink:href="#DejaVuSans-Bold-105"/>
      <use x="2077.490234" xlink:href="#DejaVuSans-Bold-116"/>
      <use x="2125.292969" xlink:href="#DejaVuSans-Bold-121"/>
      <use x="2190.478516" xlink:href="#DejaVuSans-Bold-32"/>
      <use x="2225.292969" xlink:href="#DejaVuSans-Bold-40"/>
      <use x="2270.996094" xlink:href="#DejaVuSans-Bold-116"/>
      <use x="2318.798828" xlink:href="#DejaVuSans-Bold-104"/>
      <use x="2389.990234" xlink:href="#DejaVuSans-Bold-111"/>
      <use x="2458.691406" xlink:href="#DejaVuSans-Bold-117"/>
      <use x="2529.882812" xlink:href="#DejaVuSans-Bold-115"/>
      <use x="2589.404297" xlink:href="#DejaVuSans-Bold-97"/>
      <use x="2656.884766" xlink:href="#DejaVuSans-Bold-110"/>
      <use x="2728.076172" xlink:href="#DejaVuSans-Bold-100"/>
      <use x="2799.658203" xlink:href="#DejaVuSans-Bold-115"/>
      <use x="2859.179688" xlink:href="#DejaVuSans-Bold-41"/>
     </g>
    </g>
   </g>
   <g id="line2d_30">
    <path clip-path="url(#pc41cc08564)" d="M 55.1 417.699688 
L 892.1 417.699688 
" style="fill:none;stroke:#1f77b4;stroke-dasharray:7.5,3,1.5,3;stroke-dashoffset:0;stroke-opacity:0.7;stroke-width:1.5;"/>
   </g>
   <g id="line2d_31">
    <path clip-path="url(#pc41cc08564)" d="M 55.1 321.434176 
L 892.1 321.434176 
" style="fill:none;stroke:#ff7f0e;stroke-dasharray:7.5,3,1.5,3;stroke-dashoffset:0;stroke-opacity:0.7;stroke-width:1.5;"/>
   </g>
   <g id="patch_45">
    <path d="M 55.1 459.477656 
L 55.1 24.597656 
" style="fill:none;stroke:#000000;stroke-linecap:square;stroke-linejoin:miter;stroke-width:0.8;"/>
   </g>
   <g id="patch_46">
    <path d="M 55.1 459.477656 
L 892.1 459.477656 
" style="fill:none;stroke:#000000;stroke-linecap:square;stroke-linejoin:miter;stroke-width:0.8;"/>
   </g>
   <g id="text_32">
    <!-- NCI Funding per Incident and Mortality for Leading Cancers -->
    <defs>
     <path d="M 9.1875 72.90625 
L 59.90625 72.90625 
L 59.90625 58.6875 
L 27.984375 58.6875 
L 27.984375 45.125 
L 58.015625 45.125 
L 58.015625 30.90625 
L 27.984375 30.90625 
L 27.984375 0 
L 9.1875 0 
z
" id="DejaVuSans-Bold-70"/>
     <path d="M 9.1875 72.90625 
L 33.109375 72.90625 
L 49.703125 33.890625 
L 66.40625 72.90625 
L 90.28125 72.90625 
L 90.28125 0 
L 72.515625 0 
L 72.515625 53.328125 
L 55.71875 14.015625 
L 43.796875 14.015625 
L 27 53.328125 
L 27 0 
L 9.1875 0 
z
" id="DejaVuSans-Bold-77"/>
     <path d="M 9.1875 72.90625 
L 27.984375 72.90625 
L 27.984375 14.203125 
L 60.984375 14.203125 
L 60.984375 0 
L 9.1875 0 
z
" id="DejaVuSans-Bold-76"/>
    </defs>
    <g transform="translate(221.754688 18.597656)scale(0.15 -0.15)">
     <use xlink:href="#DejaVuSans-Bold-78"/>
     <use x="83.691406" xlink:href="#DejaVuSans-Bold-67"/>
     <use x="157.080078" xlink:href="#DejaVuSans-Bold-73"/>
     <use x="194.287109" xlink:href="#DejaVuSans-Bold-32"/>
     <use x="229.101562" xlink:href="#DejaVuSans-Bold-70"/>
     <use x="292.412109" xlink:href="#DejaVuSans-Bold-117"/>
     <use x="363.603516" xlink:href="#DejaVuSans-Bold-110"/>
     <use x="434.794922" xlink:href="#DejaVuSans-Bold-100"/>
     <use x="506.376953" xlink:href="#DejaVuSans-Bold-105"/>
     <use x="540.654297" xlink:href="#DejaVuSans-Bold-110"/>
     <use x="611.845703" xlink:href="#DejaVuSans-Bold-103"/>
     <use x="683.427734" xlink:href="#DejaVuSans-Bold-32"/>
     <use x="718.242188" xlink:href="#DejaVuSans-Bold-112"/>
     <use x="789.824219" xlink:href="#DejaVuSans-Bold-101"/>
     <use x="857.646484" xlink:href="#DejaVuSans-Bold-114"/>
     <use x="906.962891" xlink:href="#DejaVuSans-Bold-32"/>
     <use x="941.777344" xlink:href="#DejaVuSans-Bold-73"/>
     <use x="978.984375" xlink:href="#DejaVuSans-Bold-110"/>
     <use x="1050.175781" xlink:href="#DejaVuSans-Bold-99"/>
     <use x="1109.453125" xlink:href="#DejaVuSans-Bold-105"/>
     <use x="1143.730469" xlink:href="#DejaVuSans-Bold-100"/>
     <use x="1215.3125" xlink:href="#DejaVuSans-Bold-101"/>
     <use x="1283.134766" xlink:href="#DejaVuSans-Bold-110"/>
     <use x="1354.326172" xlink:href="#DejaVuSans-Bold-116"/>
     <use x="1402.128906" xlink:href="#DejaVuSans-Bold-32"/>
     <use x="1436.943359" xlink:href="#DejaVuSans-Bold-97"/>
     <use x="1504.423828" xlink:href="#DejaVuSans-Bold-110"/>
     <use x="1575.615234" xlink:href="#DejaVuSans-Bold-100"/>
     <use x="1647.197266" xlink:href="#DejaVuSans-Bold-32"/>
     <use x="1682.011719" xlink:href="#DejaVuSans-Bold-77"/>
     <use x="1781.523438" xlink:href="#DejaVuSans-Bold-111"/>
     <use x="1850.224609" xlink:href="#DejaVuSans-Bold-114"/>
     <use x="1899.541016" xlink:href="#DejaVuSans-Bold-116"/>
     <use x="1947.34375" xlink:href="#DejaVuSans-Bold-97"/>
     <use x="2014.824219" xlink:href="#DejaVuSans-Bold-108"/>
     <use x="2049.101562" xlink:href="#DejaVuSans-Bold-105"/>
     <use x="2083.378906" xlink:href="#DejaVuSans-Bold-116"/>
     <use x="2131.181641" xlink:href="#DejaVuSans-Bold-121"/>
     <use x="2196.367188" xlink:href="#DejaVuSans-Bold-32"/>
     <use x="2231.181641" xlink:href="#DejaVuSans-Bold-102"/>
     <use x="2274.6875" xlink:href="#DejaVuSans-Bold-111"/>
     <use x="2343.388672" xlink:href="#DejaVuSans-Bold-114"/>
     <use x="2392.705078" xlink:href="#DejaVuSans-Bold-32"/>
     <use x="2427.519531" xlink:href="#DejaVuSans-Bold-76"/>
     <use x="2491.240234" xlink:href="#DejaVuSans-Bold-101"/>
     <use x="2559.0625" xlink:href="#DejaVuSans-Bold-97"/>
     <use x="2626.542969" xlink:href="#DejaVuSans-Bold-100"/>
     <use x="2698.125" xlink:href="#DejaVuSans-Bold-105"/>
     <use x="2732.402344" xlink:href="#DejaVuSans-Bold-110"/>
     <use x="2803.59375" xlink:href="#DejaVuSans-Bold-103"/>
     <use x="2875.175781" xlink:href="#DejaVuSans-Bold-32"/>
     <use x="2909.990234" xlink:href="#DejaVuSans-Bold-67"/>
     <use x="2983.378906" xlink:href="#DejaVuSans-Bold-97"/>
     <use x="3050.859375" xlink:href="#DejaVuSans-Bold-110"/>
     <use x="3122.050781" xlink:href="#DejaVuSans-Bold-99"/>
     <use x="3181.328125" xlink:href="#DejaVuSans-Bold-101"/>
     <use x="3249.150391" xlink:href="#DejaVuSans-Bold-114"/>
     <use x="3298.466797" xlink:href="#DejaVuSans-Bold-115"/>
    </g>
   </g>
   <g id="legend_1">
    <g id="patch_47">
     <path d="M 522.258125 91.169156 
L 800 91.169156 
Q 802.4 91.169156 802.4 88.769156 
L 802.4 54.741656 
Q 802.4 52.341656 800 52.341656 
L 522.258125 52.341656 
Q 519.858125 52.341656 519.858125 54.741656 
L 519.858125 88.769156 
Q 519.858125 91.169156 522.258125 91.169156 
z
" style="fill:#ffffff;opacity:0.8;stroke:#cccccc;stroke-linejoin:miter;"/>
    </g>
    <g id="patch_48">
     <path d="M 524.658125 66.259781 
L 548.658125 66.259781 
L 548.658125 57.859781 
L 524.658125 57.859781 
z
" style="fill:#1f77b4;opacity:0.8;"/>
    </g>
    <g id="text_33">
     <!-- NCI funding $ per incident (thousands) -->
     <defs>
      <path d="M 9.8125 72.90625 
L 19.671875 72.90625 
L 19.671875 0 
L 9.8125 0 
z
" id="DejaVuSans-73"/>
      <path d="M 37.109375 75.984375 
L 37.109375 68.5 
L 28.515625 68.5 
Q 23.6875 68.5 21.796875 66.546875 
Q 19.921875 64.59375 19.921875 59.515625 
L 19.921875 54.6875 
L 34.71875 54.6875 
L 34.71875 47.703125 
L 19.921875 47.703125 
L 19.921875 0 
L 10.890625 0 
L 10.890625 47.703125 
L 2.296875 47.703125 
L 2.296875 54.6875 
L 10.890625 54.6875 
L 10.890625 58.5 
Q 10.890625 67.625 15.140625 71.796875 
Q 19.390625 75.984375 28.609375 75.984375 
z
" id="DejaVuSans-102"/>
      <path d="M 33.796875 -14.703125 
L 28.90625 -14.703125 
L 28.859375 0 
Q 23.734375 0.09375 18.609375 1.1875 
Q 13.484375 2.296875 8.296875 4.5 
L 8.296875 13.28125 
Q 13.28125 10.15625 18.375 8.5625 
Q 23.484375 6.984375 28.90625 6.9375 
L 28.90625 29.203125 
Q 18.109375 30.953125 13.203125 35.15625 
Q 8.296875 39.359375 8.296875 46.6875 
Q 8.296875 54.640625 13.625 59.21875 
Q 18.953125 63.8125 28.90625 64.5 
L 28.90625 75.984375 
L 33.796875 75.984375 
L 33.796875 64.65625 
Q 38.328125 64.453125 42.578125 63.6875 
Q 46.828125 62.9375 50.875 61.625 
L 50.875 53.078125 
Q 46.828125 55.125 42.546875 56.25 
Q 38.28125 57.375 33.796875 57.5625 
L 33.796875 36.71875 
Q 44.875 35.015625 50.09375 30.609375 
Q 55.328125 26.21875 55.328125 18.609375 
Q 55.328125 10.359375 49.78125 5.59375 
Q 44.234375 0.828125 33.796875 0.09375 
z
M 28.90625 37.59375 
L 28.90625 57.625 
Q 23.25 56.984375 20.265625 54.390625 
Q 17.28125 51.8125 17.28125 47.515625 
Q 17.28125 43.3125 20.03125 40.96875 
Q 22.796875 38.625 28.90625 37.59375 
z
M 33.796875 28.21875 
L 33.796875 7.078125 
Q 39.984375 7.90625 43.140625 10.59375 
Q 46.296875 13.28125 46.296875 17.671875 
Q 46.296875 21.96875 43.28125 24.5 
Q 40.28125 27.046875 33.796875 28.21875 
z
" id="DejaVuSans-36"/>
     </defs>
     <g transform="translate(558.258125 66.259781)scale(0.12 -0.12)">
      <use xlink:href="#DejaVuSans-78"/>
      <use x="74.804688" xlink:href="#DejaVuSans-67"/>
      <use x="144.628906" xlink:href="#DejaVuSans-73"/>
      <use x="174.121094" xlink:href="#DejaVuSans-32"/>
      <use x="205.908203" xlink:href="#DejaVuSans-102"/>
      <use x="241.113281" xlink:href="#DejaVuSans-117"/>
      <use x="304.492188" xlink:href="#DejaVuSans-110"/>
      <use x="367.871094" xlink:href="#DejaVuSans-100"/>
      <use x="431.347656" xlink:href="#DejaVuSans-105"/>
      <use x="459.130859" xlink:href="#DejaVuSans-110"/>
      <use x="522.509766" xlink:href="#DejaVuSans-103"/>
      <use x="585.986328" xlink:href="#DejaVuSans-32"/>
      <use x="617.773438" xlink:href="#DejaVuSans-36"/>
      <use x="681.396484" xlink:href="#DejaVuSans-32"/>
      <use x="713.183594" xlink:href="#DejaVuSans-112"/>
      <use x="776.660156" xlink:href="#DejaVuSans-101"/>
      <use x="838.183594" xlink:href="#DejaVuSans-114"/>
      <use x="879.296875" xlink:href="#DejaVuSans-32"/>
      <use x="911.083984" xlink:href="#DejaVuSans-105"/>
      <use x="938.867188" xlink:href="#DejaVuSans-110"/>
      <use x="1002.246094" xlink:href="#DejaVuSans-99"/>
      <use x="1057.226562" xlink:href="#DejaVuSans-105"/>
      <use x="1085.009766" xlink:href="#DejaVuSans-100"/>
      <use x="1148.486328" xlink:href="#DejaVuSans-101"/>
      <use x="1210.009766" xlink:href="#DejaVuSans-110"/>
      <use x="1273.388672" xlink:href="#DejaVuSans-116"/>
      <use x="1312.597656" xlink:href="#DejaVuSans-32"/>
      <use x="1344.384766" xlink:href="#DejaVuSans-40"/>
      <use x="1383.398438" xlink:href="#DejaVuSans-116"/>
      <use x="1422.607422" xlink:href="#DejaVuSans-104"/>
      <use x="1485.986328" xlink:href="#DejaVuSans-111"/>
      <use x="1547.167969" xlink:href="#DejaVuSans-117"/>
      <use x="1610.546875" xlink:href="#DejaVuSans-115"/>
      <use x="1662.646484" xlink:href="#DejaVuSans-97"/>
      <use x="1723.925781" xlink:href="#DejaVuSans-110"/>
      <use x="1787.304688" xlink:href="#DejaVuSans-100"/>
      <use x="1850.78125" xlink:href="#DejaVuSans-115"/>
      <use x="1902.880859" xlink:href="#DejaVuSans-41"/>
     </g>
    </g>
    <g id="patch_49">
     <path d="M 524.658125 83.873531 
L 548.658125 83.873531 
L 548.658125 75.473531 
L 524.658125 75.473531 
z
" style="fill:#ff7f0e;opacity:0.8;"/>
    </g>
    <g id="text_34">
     <!-- NCI funding $ per mortality (thousands) -->
     <g transform="translate(558.258125 83.873531)scale(0.12 -0.12)">
      <use xlink:href="#DejaVuSans-78"/>
      <use x="74.804688" xlink:href="#DejaVuSans-67"/>
      <use x="144.628906" xlink:href="#DejaVuSans-73"/>
      <use x="174.121094" xlink:href="#DejaVuSans-32"/>
      <use x="205.908203" xlink:href="#DejaVuSans-102"/>
      <use x="241.113281" xlink:href="#DejaVuSans-117"/>
      <use x="304.492188" xlink:href="#DejaVuSans-110"/>
      <use x="367.871094" xlink:href="#DejaVuSans-100"/>
      <use x="431.347656" xlink:href="#DejaVuSans-105"/>
      <use x="459.130859" xlink:href="#DejaVuSans-110"/>
      <use x="522.509766" xlink:href="#DejaVuSans-103"/>
      <use x="585.986328" xlink:href="#DejaVuSans-32"/>
      <use x="617.773438" xlink:href="#DejaVuSans-36"/>
      <use x="681.396484" xlink:href="#DejaVuSans-32"/>
      <use x="713.183594" xlink:href="#DejaVuSans-112"/>
      <use x="776.660156" xlink:href="#DejaVuSans-101"/>
      <use x="838.183594" xlink:href="#DejaVuSans-114"/>
      <use x="879.296875" xlink:href="#DejaVuSans-32"/>
      <use x="911.083984" xlink:href="#DejaVuSans-109"/>
      <use x="1008.496094" xlink:href="#DejaVuSans-111"/>
      <use x="1069.677734" xlink:href="#DejaVuSans-114"/>
      <use x="1110.791016" xlink:href="#DejaVuSans-116"/>
      <use x="1150" xlink:href="#DejaVuSans-97"/>
      <use x="1211.279297" xlink:href="#DejaVuSans-108"/>
      <use x="1239.0625" xlink:href="#DejaVuSans-105"/>
      <use x="1266.845703" xlink:href="#DejaVuSans-116"/>
      <use x="1306.054688" xlink:href="#DejaVuSans-121"/>
      <use x="1365.234375" xlink:href="#DejaVuSans-32"/>
      <use x="1397.021484" xlink:href="#DejaVuSans-40"/>
      <use x="1436.035156" xlink:href="#DejaVuSans-116"/>
      <use x="1475.244141" xlink:href="#DejaVuSans-104"/>
      <use x="1538.623047" xlink:href="#DejaVuSans-111"/>
      <use x="1599.804688" xlink:href="#DejaVuSans-117"/>
      <use x="1663.183594" xlink:href="#DejaVuSans-115"/>
      <use x="1715.283203" xlink:href="#DejaVuSans-97"/>
      <use x="1776.5625" xlink:href="#DejaVuSans-110"/>
      <use x="1839.941406" xlink:href="#DejaVuSans-100"/>
      <use x="1903.417969" xlink:href="#DejaVuSans-115"/>
      <use x="1955.517578" xlink:href="#DejaVuSans-41"/>
     </g>
    </g>
   </g>
  </g>
 </g>
 <defs>
  <clipPath id="pc41cc08564">
   <rect height="434.88" width="837" x="55.1" y="24.597656"/>
  </clipPath>
 </defs>
</svg>
