<?xml version="1.0" encoding="utf-8" standalone="no"?>
<!DOCTYPE svg PUBLIC "-//W3C//DTD SVG 1.1//EN"
  "http://www.w3.org/Graphics/SVG/1.1/DTD/svg11.dtd">
<!-- Created with matplotlib (https://matplotlib.org/) -->
<svg height="501.774375pt" version="1.1" viewBox="0 0 813.52375 501.774375" width="813.52375pt" xmlns="http://www.w3.org/2000/svg" xmlns:xlink="http://www.w3.org/1999/xlink">
 <defs>
  <style type="text/css">
*{stroke-linecap:butt;stroke-linejoin:round;}
  </style>
 </defs>
 <g id="figure_1">
  <g id="patch_1">
   <path d="M 0 501.774375 
L 813.52375 501.774375 
L 813.52375 0 
L 0 0 
z
" style="fill:#ffffff;"/>
  </g>
  <g id="axes_1">
   <g id="patch_2">
    <path d="M 53.44375 460.2375 
L 499.84375 460.2375 
L 499.84375 25.3575 
L 53.44375 25.3575 
z
" style="fill:#ffffff;"/>
   </g>
   <g id="line2d_1">
    <path clip-path="url(#pf8911bde82)" d="M 92.18094 250.832161 
L 461.10656 271.040618 
" style="fill:none;stroke:#000000;stroke-dasharray:7.5,3,1.5,3;stroke-dashoffset:0;stroke-opacity:0.5;stroke-width:1.5;"/>
   </g>
   <g id="line2d_2">
    <path clip-path="url(#pf8911bde82)" d="M 73.734659 376.387987 
L 479.552841 390.757334 
" style="fill:none;stroke:#ff0000;stroke-dasharray:7.5,3,1.5,3;stroke-dashoffset:0;stroke-opacity:0.5;stroke-width:1.5;"/>
   </g>
   <g id="PathCollection_1">
    <path clip-path="url(#pf8911bde82)" d="M 117.698577 323.51968 
L 113.825594 331.265647 
L 121.571561 331.265647 
z
" style="fill:#0000ff;stroke:#0000ff;"/>
    <path clip-path="url(#pf8911bde82)" d="M 209.206772 182.203155 
L 205.333789 189.949122 
L 213.079756 189.949122 
z
" style="fill:#008000;stroke:#008000;"/>
    <path clip-path="url(#pf8911bde82)" d="M 444.337214 221.275166 
L 440.46423 229.021133 
L 448.210197 229.021133 
z
" style="fill:#ff0000;stroke:#ff0000;"/>
    <path clip-path="url(#pf8911bde82)" d="M 146.626974 148.851969 
L 142.753991 156.597935 
L 150.499958 156.597935 
z
" style="fill:#bf00bf;stroke:#bf00bf;"/>
    <path clip-path="url(#pf8911bde82)" d="M 250.694065 270.449909 
L 246.821082 278.195875 
L 254.567049 278.195875 
z
" style="fill:#bfbf00;stroke:#bfbf00;"/>
    <path clip-path="url(#pf8911bde82)" d="M 121.938546 271.788825 
L 118.065563 279.534791 
L 125.81153 279.534791 
z
" style="fill:#00bfbf;stroke:#00bfbf;"/>
    <path clip-path="url(#pf8911bde82)" d="M 113.404938 176.725771 
L 109.531954 184.471737 
L 117.277921 184.471737 
z
" style="fill:#ff8c00;stroke:#ff8c00;"/>
    <path clip-path="url(#pf8911bde82)" d="M 153.872491 268.867553 
L 149.999508 276.61352 
L 157.745475 276.61352 
z
" style="stroke:#000000;"/>
    <path clip-path="url(#pf8911bde82)" d="M 264.326371 253.652595 
L 260.453388 261.398562 
L 268.199355 261.398562 
z
" style="fill:#b22222;stroke:#b22222;"/>
    <path clip-path="url(#pf8911bde82)" d="M 144.533825 263.511888 
L 140.660842 271.257855 
L 148.406808 271.257855 
z
" style="fill:#ffc0cb;stroke:#ffc0cb;"/>
    <path clip-path="url(#pf8911bde82)" d="M 256.866172 268.258955 
L 252.993189 276.004921 
L 260.739156 276.004921 
z
" style="fill:#808080;stroke:#808080;"/>
    <path clip-path="url(#pf8911bde82)" d="M 131.599236 282.256715 
L 127.726252 290.002682 
L 135.472219 290.002682 
z
" style="fill:#f08080;stroke:#f08080;"/>
    <path clip-path="url(#pf8911bde82)" d="M 171.261732 275.440415 
L 167.388749 283.186381 
L 175.134715 283.186381 
z
" style="fill:#808000;stroke:#808000;"/>
    <path clip-path="url(#pf8911bde82)" d="M 113.029244 238.437638 
L 109.156261 246.183605 
L 116.902227 246.183605 
z
" style="fill:#7fffd4;stroke:#7fffd4;"/>
    <path clip-path="url(#pf8911bde82)" d="M 165.841012 232.960253 
L 161.968028 240.70622 
L 169.713995 240.70622 
z
" style="fill:#000080;stroke:#000080;"/>
    <path clip-path="url(#pf8911bde82)" d="M 157.683096 286.760343 
L 153.810113 294.50631 
L 161.55608 294.50631 
z
" style="fill:#dda0dd;stroke:#dda0dd;"/>
    <path clip-path="url(#pf8911bde82)" d="M 266.848885 350.054566 
L 262.975901 357.800533 
L 270.721868 357.800533 
z
" style="fill:#1e90ff;stroke:#1e90ff;"/>
    <path clip-path="url(#pf8911bde82)" d="M 160.473962 240.750312 
L 156.600979 248.496278 
L 164.346946 248.496278 
z
" style="fill:#8b0000;stroke:#8b0000;"/>
    <path clip-path="url(#pf8911bde82)" d="M 113.351267 248.905529 
L 109.478284 256.651495 
L 117.22425 256.651495 
z
" style="fill:#b8860b;stroke:#b8860b;"/>
    <path clip-path="url(#pf8911bde82)" d="M 108.950286 41.251789 
L 105.077303 48.997756 
L 112.82327 48.997756 
z
" style="fill:#9370db;stroke:#9370db;"/>
    <path clip-path="url(#pf8911bde82)" d="M 113.190256 263.511888 
L 109.317272 271.257855 
L 117.063239 271.257855 
z
" style="fill:#4169e1;stroke:#4169e1;"/>
   </g>
   <g id="PathCollection_2">
    <defs>
     <path d="M 0 3.872983 
C 1.027127 3.872983 2.012324 3.464901 2.738613 2.738613 
C 3.464901 2.012324 3.872983 1.027127 3.872983 0 
C 3.872983 -1.027127 3.464901 -2.012324 2.738613 -2.738613 
C 2.012324 -3.464901 1.027127 -3.872983 0 -3.872983 
C -1.027127 -3.872983 -2.012324 -3.464901 -2.738613 -2.738613 
C -3.464901 -2.012324 -3.872983 -1.027127 -3.872983 0 
C -3.872983 1.027127 -3.464901 2.012324 -2.738613 2.738613 
C -2.012324 3.464901 -1.027127 3.872983 0 3.872983 
z
" id="C0_0_51a6f6cfb3"/>
    </defs>
    <g clip-path="url(#pf8911bde82)">
     <use style="fill:#0000ff;stroke:#0000ff;" x="117.698577" xlink:href="#C0_0_51a6f6cfb3" y="428.78514"/>
    </g>
    <g clip-path="url(#pf8911bde82)">
     <use style="fill:#008000;stroke:#008000;" x="209.206772" xlink:href="#C0_0_51a6f6cfb3" y="294.650075"/>
    </g>
    <g clip-path="url(#pf8911bde82)">
     <use style="fill:#ff0000;stroke:#ff0000;" x="444.337214" xlink:href="#C0_0_51a6f6cfb3" y="411.135789"/>
    </g>
    <g clip-path="url(#pf8911bde82)">
     <use style="fill:#bf00bf;stroke:#bf00bf;" x="146.626974" xlink:href="#C0_0_51a6f6cfb3" y="351.006277"/>
    </g>
    <g clip-path="url(#pf8911bde82)">
     <use style="fill:#bfbf00;stroke:#bfbf00;" x="250.694065" xlink:href="#C0_0_51a6f6cfb3" y="390.200008"/>
    </g>
    <g clip-path="url(#pf8911bde82)">
     <use style="fill:#00bfbf;stroke:#00bfbf;" x="121.938546" xlink:href="#C0_0_51a6f6cfb3" y="298.788543"/>
    </g>
    <g clip-path="url(#pf8911bde82)">
     <use style="fill:#ff8c00;stroke:#ff8c00;" x="113.404938" xlink:href="#C0_0_51a6f6cfb3" y="412.718145"/>
    </g>
    <g clip-path="url(#pf8911bde82)">
     <use style="stroke:#000000;" x="153.872491" xlink:href="#C0_0_51a6f6cfb3" y="414.54394"/>
    </g>
    <g clip-path="url(#pf8911bde82)">
     <use style="fill:#b22222;stroke:#b22222;" x="264.326371" xlink:href="#C0_0_51a6f6cfb3" y="355.023026"/>
    </g>
    <g clip-path="url(#pf8911bde82)">
     <use style="fill:#ffc0cb;stroke:#ffc0cb;" x="144.533825" xlink:href="#C0_0_51a6f6cfb3" y="308.039238"/>
    </g>
    <g clip-path="url(#pf8911bde82)">
     <use style="fill:#808080;stroke:#808080;" x="256.866172" xlink:href="#C0_0_51a6f6cfb3" y="325.810308"/>
    </g>
    <g clip-path="url(#pf8911bde82)">
     <use style="fill:#f08080;stroke:#f08080;" x="131.599236" xlink:href="#C0_0_51a6f6cfb3" y="366.099515"/>
    </g>
    <g clip-path="url(#pf8911bde82)">
     <use style="fill:#808000;stroke:#808000;" x="171.261732" xlink:href="#C0_0_51a6f6cfb3" y="401.154777"/>
    </g>
    <g clip-path="url(#pf8911bde82)">
     <use style="fill:#7fffd4;stroke:#7fffd4;" x="113.029244" xlink:href="#C0_0_51a6f6cfb3" y="409.431714"/>
    </g>
    <g clip-path="url(#pf8911bde82)">
     <use style="fill:#000080;stroke:#000080;" x="165.841012" xlink:href="#C0_0_51a6f6cfb3" y="317.046492"/>
    </g>
    <g clip-path="url(#pf8911bde82)">
     <use style="fill:#dda0dd;stroke:#dda0dd;" x="157.683096" xlink:href="#C0_0_51a6f6cfb3" y="314.855539"/>
    </g>
    <g clip-path="url(#pf8911bde82)">
     <use style="fill:#1e90ff;stroke:#1e90ff;" x="266.848885" xlink:href="#C0_0_51a6f6cfb3" y="440.470227"/>
    </g>
    <g clip-path="url(#pf8911bde82)">
     <use style="fill:#8b0000;stroke:#8b0000;" x="160.473962" xlink:href="#C0_0_51a6f6cfb3" y="428.541701"/>
    </g>
    <g clip-path="url(#pf8911bde82)">
     <use style="fill:#b8860b;stroke:#b8860b;" x="113.351267" xlink:href="#C0_0_51a6f6cfb3" y="353.440671"/>
    </g>
    <g clip-path="url(#pf8911bde82)">
     <use style="fill:#9370db;stroke:#9370db;" x="108.950286" xlink:href="#C0_0_51a6f6cfb3" y="438.522713"/>
    </g>
    <g clip-path="url(#pf8911bde82)">
     <use style="fill:#4169e1;stroke:#4169e1;" x="113.190256" xlink:href="#C0_0_51a6f6cfb3" y="421.116801"/>
    </g>
   </g>
   <g id="matplotlib.axis_1">
    <g id="xtick_1">
     <g id="line2d_3">
      <defs>
       <path d="M 0 0 
L 0 3.5 
" id="m5a9075d454" style="stroke:#000000;stroke-width:0.8;"/>
      </defs>
      <g>
       <use style="stroke:#000000;stroke-width:0.8;" x="105.569045" xlink:href="#m5a9075d454" y="460.2375"/>
      </g>
     </g>
     <g id="text_1">
      <!-- 0 -->
      <defs>
       <path d="M 31.78125 66.40625 
Q 24.171875 66.40625 20.328125 58.90625 
Q 16.5 51.421875 16.5 36.375 
Q 16.5 21.390625 20.328125 13.890625 
Q 24.171875 6.390625 31.78125 6.390625 
Q 39.453125 6.390625 43.28125 13.890625 
Q 47.125 21.390625 47.125 36.375 
Q 47.125 51.421875 43.28125 58.90625 
Q 39.453125 66.40625 31.78125 66.40625 
z
M 31.78125 74.21875 
Q 44.046875 74.21875 50.515625 64.515625 
Q 56.984375 54.828125 56.984375 36.375 
Q 56.984375 17.96875 50.515625 8.265625 
Q 44.046875 -1.421875 31.78125 -1.421875 
Q 19.53125 -1.421875 13.0625 8.265625 
Q 6.59375 17.96875 6.59375 36.375 
Q 6.59375 54.828125 13.0625 64.515625 
Q 19.53125 74.21875 31.78125 74.21875 
z
" id="DejaVuSans-48"/>
      </defs>
      <g transform="translate(102.387795 474.835937)scale(0.1 -0.1)">
       <use xlink:href="#DejaVuSans-48"/>
      </g>
     </g>
    </g>
    <g id="xtick_2">
     <g id="line2d_4">
      <g>
       <use style="stroke:#000000;stroke-width:0.8;" x="159.239541" xlink:href="#m5a9075d454" y="460.2375"/>
      </g>
     </g>
     <g id="text_2">
      <!-- 100 -->
      <defs>
       <path d="M 12.40625 8.296875 
L 28.515625 8.296875 
L 28.515625 63.921875 
L 10.984375 60.40625 
L 10.984375 69.390625 
L 28.421875 72.90625 
L 38.28125 72.90625 
L 38.28125 8.296875 
L 54.390625 8.296875 
L 54.390625 0 
L 12.40625 0 
z
" id="DejaVuSans-49"/>
      </defs>
      <g transform="translate(149.695791 474.835937)scale(0.1 -0.1)">
       <use xlink:href="#DejaVuSans-49"/>
       <use x="63.623047" xlink:href="#DejaVuSans-48"/>
       <use x="127.246094" xlink:href="#DejaVuSans-48"/>
      </g>
     </g>
    </g>
    <g id="xtick_3">
     <g id="line2d_5">
      <g>
       <use style="stroke:#000000;stroke-width:0.8;" x="212.910036" xlink:href="#m5a9075d454" y="460.2375"/>
      </g>
     </g>
     <g id="text_3">
      <!-- 200 -->
      <defs>
       <path d="M 19.1875 8.296875 
L 53.609375 8.296875 
L 53.609375 0 
L 7.328125 0 
L 7.328125 8.296875 
Q 12.9375 14.109375 22.625 23.890625 
Q 32.328125 33.6875 34.8125 36.53125 
Q 39.546875 41.84375 41.421875 45.53125 
Q 43.3125 49.21875 43.3125 52.78125 
Q 43.3125 58.59375 39.234375 62.25 
Q 35.15625 65.921875 28.609375 65.921875 
Q 23.96875 65.921875 18.8125 64.3125 
Q 13.671875 62.703125 7.8125 59.421875 
L 7.8125 69.390625 
Q 13.765625 71.78125 18.9375 73 
Q 24.125 74.21875 28.421875 74.21875 
Q 39.75 74.21875 46.484375 68.546875 
Q 53.21875 62.890625 53.21875 53.421875 
Q 53.21875 48.921875 51.53125 44.890625 
Q 49.859375 40.875 45.40625 35.40625 
Q 44.1875 33.984375 37.640625 27.21875 
Q 31.109375 20.453125 19.1875 8.296875 
z
" id="DejaVuSans-50"/>
      </defs>
      <g transform="translate(203.366286 474.835937)scale(0.1 -0.1)">
       <use xlink:href="#DejaVuSans-50"/>
       <use x="63.623047" xlink:href="#DejaVuSans-48"/>
       <use x="127.246094" xlink:href="#DejaVuSans-48"/>
      </g>
     </g>
    </g>
    <g id="xtick_4">
     <g id="line2d_6">
      <g>
       <use style="stroke:#000000;stroke-width:0.8;" x="266.580532" xlink:href="#m5a9075d454" y="460.2375"/>
      </g>
     </g>
     <g id="text_4">
      <!-- 300 -->
      <defs>
       <path d="M 40.578125 39.3125 
Q 47.65625 37.796875 51.625 33 
Q 55.609375 28.21875 55.609375 21.1875 
Q 55.609375 10.40625 48.1875 4.484375 
Q 40.765625 -1.421875 27.09375 -1.421875 
Q 22.515625 -1.421875 17.65625 -0.515625 
Q 12.796875 0.390625 7.625 2.203125 
L 7.625 11.71875 
Q 11.71875 9.328125 16.59375 8.109375 
Q 21.484375 6.890625 26.8125 6.890625 
Q 36.078125 6.890625 40.9375 10.546875 
Q 45.796875 14.203125 45.796875 21.1875 
Q 45.796875 27.640625 41.28125 31.265625 
Q 36.765625 34.90625 28.71875 34.90625 
L 20.21875 34.90625 
L 20.21875 43.015625 
L 29.109375 43.015625 
Q 36.375 43.015625 40.234375 45.921875 
Q 44.09375 48.828125 44.09375 54.296875 
Q 44.09375 59.90625 40.109375 62.90625 
Q 36.140625 65.921875 28.71875 65.921875 
Q 24.65625 65.921875 20.015625 65.03125 
Q 15.375 64.15625 9.8125 62.3125 
L 9.8125 71.09375 
Q 15.4375 72.65625 20.34375 73.4375 
Q 25.25 74.21875 29.59375 74.21875 
Q 40.828125 74.21875 47.359375 69.109375 
Q 53.90625 64.015625 53.90625 55.328125 
Q 53.90625 49.265625 50.4375 45.09375 
Q 46.96875 40.921875 40.578125 39.3125 
z
" id="DejaVuSans-51"/>
      </defs>
      <g transform="translate(257.036782 474.835937)scale(0.1 -0.1)">
       <use xlink:href="#DejaVuSans-51"/>
       <use x="63.623047" xlink:href="#DejaVuSans-48"/>
       <use x="127.246094" xlink:href="#DejaVuSans-48"/>
      </g>
     </g>
    </g>
    <g id="xtick_5">
     <g id="line2d_7">
      <g>
       <use style="stroke:#000000;stroke-width:0.8;" x="320.251028" xlink:href="#m5a9075d454" y="460.2375"/>
      </g>
     </g>
     <g id="text_5">
      <!-- 400 -->
      <defs>
       <path d="M 37.796875 64.3125 
L 12.890625 25.390625 
L 37.796875 25.390625 
z
M 35.203125 72.90625 
L 47.609375 72.90625 
L 47.609375 25.390625 
L 58.015625 25.390625 
L 58.015625 17.1875 
L 47.609375 17.1875 
L 47.609375 0 
L 37.796875 0 
L 37.796875 17.1875 
L 4.890625 17.1875 
L 4.890625 26.703125 
z
" id="DejaVuSans-52"/>
      </defs>
      <g transform="translate(310.707278 474.835937)scale(0.1 -0.1)">
       <use xlink:href="#DejaVuSans-52"/>
       <use x="63.623047" xlink:href="#DejaVuSans-48"/>
       <use x="127.246094" xlink:href="#DejaVuSans-48"/>
      </g>
     </g>
    </g>
    <g id="xtick_6">
     <g id="line2d_8">
      <g>
       <use style="stroke:#000000;stroke-width:0.8;" x="373.921523" xlink:href="#m5a9075d454" y="460.2375"/>
      </g>
     </g>
     <g id="text_6">
      <!-- 500 -->
      <defs>
       <path d="M 10.796875 72.90625 
L 49.515625 72.90625 
L 49.515625 64.59375 
L 19.828125 64.59375 
L 19.828125 46.734375 
Q 21.96875 47.46875 24.109375 47.828125 
Q 26.265625 48.1875 28.421875 48.1875 
Q 40.625 48.1875 47.75 41.5 
Q 54.890625 34.8125 54.890625 23.390625 
Q 54.890625 11.625 47.5625 5.09375 
Q 40.234375 -1.421875 26.90625 -1.421875 
Q 22.3125 -1.421875 17.546875 -0.640625 
Q 12.796875 0.140625 7.71875 1.703125 
L 7.71875 11.625 
Q 12.109375 9.234375 16.796875 8.0625 
Q 21.484375 6.890625 26.703125 6.890625 
Q 35.15625 6.890625 40.078125 11.328125 
Q 45.015625 15.765625 45.015625 23.390625 
Q 45.015625 31 40.078125 35.4375 
Q 35.15625 39.890625 26.703125 39.890625 
Q 22.75 39.890625 18.8125 39.015625 
Q 14.890625 38.140625 10.796875 36.28125 
z
" id="DejaVuSans-53"/>
      </defs>
      <g transform="translate(364.377773 474.835937)scale(0.1 -0.1)">
       <use xlink:href="#DejaVuSans-53"/>
       <use x="63.623047" xlink:href="#DejaVuSans-48"/>
       <use x="127.246094" xlink:href="#DejaVuSans-48"/>
      </g>
     </g>
    </g>
    <g id="xtick_7">
     <g id="line2d_9">
      <g>
       <use style="stroke:#000000;stroke-width:0.8;" x="427.592019" xlink:href="#m5a9075d454" y="460.2375"/>
      </g>
     </g>
     <g id="text_7">
      <!-- 600 -->
      <defs>
       <path d="M 33.015625 40.375 
Q 26.375 40.375 22.484375 35.828125 
Q 18.609375 31.296875 18.609375 23.390625 
Q 18.609375 15.53125 22.484375 10.953125 
Q 26.375 6.390625 33.015625 6.390625 
Q 39.65625 6.390625 43.53125 10.953125 
Q 47.40625 15.53125 47.40625 23.390625 
Q 47.40625 31.296875 43.53125 35.828125 
Q 39.65625 40.375 33.015625 40.375 
z
M 52.59375 71.296875 
L 52.59375 62.3125 
Q 48.875 64.0625 45.09375 64.984375 
Q 41.3125 65.921875 37.59375 65.921875 
Q 27.828125 65.921875 22.671875 59.328125 
Q 17.53125 52.734375 16.796875 39.40625 
Q 19.671875 43.65625 24.015625 45.921875 
Q 28.375 48.1875 33.59375 48.1875 
Q 44.578125 48.1875 50.953125 41.515625 
Q 57.328125 34.859375 57.328125 23.390625 
Q 57.328125 12.15625 50.6875 5.359375 
Q 44.046875 -1.421875 33.015625 -1.421875 
Q 20.359375 -1.421875 13.671875 8.265625 
Q 6.984375 17.96875 6.984375 36.375 
Q 6.984375 53.65625 15.1875 63.9375 
Q 23.390625 74.21875 37.203125 74.21875 
Q 40.921875 74.21875 44.703125 73.484375 
Q 48.484375 72.75 52.59375 71.296875 
z
" id="DejaVuSans-54"/>
      </defs>
      <g transform="translate(418.048269 474.835937)scale(0.1 -0.1)">
       <use xlink:href="#DejaVuSans-54"/>
       <use x="63.623047" xlink:href="#DejaVuSans-48"/>
       <use x="127.246094" xlink:href="#DejaVuSans-48"/>
      </g>
     </g>
    </g>
    <g id="xtick_8">
     <g id="line2d_10">
      <g>
       <use style="stroke:#000000;stroke-width:0.8;" x="481.262515" xlink:href="#m5a9075d454" y="460.2375"/>
      </g>
     </g>
     <g id="text_8">
      <!-- 700 -->
      <defs>
       <path d="M 8.203125 72.90625 
L 55.078125 72.90625 
L 55.078125 68.703125 
L 28.609375 0 
L 18.3125 0 
L 43.21875 64.59375 
L 8.203125 64.59375 
z
" id="DejaVuSans-55"/>
      </defs>
      <g transform="translate(471.718765 474.835937)scale(0.1 -0.1)">
       <use xlink:href="#DejaVuSans-55"/>
       <use x="63.623047" xlink:href="#DejaVuSans-48"/>
       <use x="127.246094" xlink:href="#DejaVuSans-48"/>
      </g>
     </g>
    </g>
    <g id="text_9">
     <!-- NCI Funding (millions of $) -->
     <defs>
      <path d="M 9.1875 72.90625 
L 30.171875 72.90625 
L 56.6875 22.90625 
L 56.6875 72.90625 
L 74.515625 72.90625 
L 74.515625 0 
L 53.515625 0 
L 27 50 
L 27 0 
L 9.1875 0 
z
" id="DejaVuSans-Bold-78"/>
      <path d="M 67 4 
Q 61.8125 1.3125 56.203125 -0.046875 
Q 50.59375 -1.421875 44.484375 -1.421875 
Q 26.265625 -1.421875 15.625 8.765625 
Q 4.984375 18.953125 4.984375 36.375 
Q 4.984375 53.859375 15.625 64.03125 
Q 26.265625 74.21875 44.484375 74.21875 
Q 50.59375 74.21875 56.203125 72.84375 
Q 61.8125 71.484375 67 68.796875 
L 67 53.71875 
Q 61.765625 57.28125 56.6875 58.9375 
Q 51.609375 60.59375 46 60.59375 
Q 35.9375 60.59375 30.171875 54.140625 
Q 24.421875 47.703125 24.421875 36.375 
Q 24.421875 25.09375 30.171875 18.640625 
Q 35.9375 12.203125 46 12.203125 
Q 51.609375 12.203125 56.6875 13.859375 
Q 61.765625 15.53125 67 19.09375 
z
" id="DejaVuSans-Bold-67"/>
      <path d="M 9.1875 72.90625 
L 27.984375 72.90625 
L 27.984375 0 
L 9.1875 0 
z
" id="DejaVuSans-Bold-73"/>
      <path id="DejaVuSans-Bold-32"/>
      <path d="M 9.1875 72.90625 
L 59.90625 72.90625 
L 59.90625 58.6875 
L 27.984375 58.6875 
L 27.984375 45.125 
L 58.015625 45.125 
L 58.015625 30.90625 
L 27.984375 30.90625 
L 27.984375 0 
L 9.1875 0 
z
" id="DejaVuSans-Bold-70"/>
      <path d="M 7.8125 21.296875 
L 7.8125 54.6875 
L 25.390625 54.6875 
L 25.390625 49.21875 
Q 25.390625 44.78125 25.34375 38.0625 
Q 25.296875 31.34375 25.296875 29.109375 
Q 25.296875 22.515625 25.640625 19.609375 
Q 25.984375 16.703125 26.8125 15.375 
Q 27.875 13.671875 29.609375 12.734375 
Q 31.34375 11.8125 33.59375 11.8125 
Q 39.0625 11.8125 42.1875 16.015625 
Q 45.3125 20.21875 45.3125 27.6875 
L 45.3125 54.6875 
L 62.796875 54.6875 
L 62.796875 0 
L 45.3125 0 
L 45.3125 7.90625 
Q 41.359375 3.125 36.9375 0.84375 
Q 32.515625 -1.421875 27.203125 -1.421875 
Q 17.71875 -1.421875 12.765625 4.390625 
Q 7.8125 10.203125 7.8125 21.296875 
z
" id="DejaVuSans-Bold-117"/>
      <path d="M 63.375 33.296875 
L 63.375 0 
L 45.796875 0 
L 45.796875 5.421875 
L 45.796875 25.484375 
Q 45.796875 32.5625 45.484375 35.25 
Q 45.171875 37.9375 44.390625 39.203125 
Q 43.359375 40.921875 41.59375 41.875 
Q 39.84375 42.828125 37.59375 42.828125 
Q 32.125 42.828125 29 38.59375 
Q 25.875 34.375 25.875 26.90625 
L 25.875 0 
L 8.40625 0 
L 8.40625 54.6875 
L 25.875 54.6875 
L 25.875 46.6875 
Q 29.828125 51.46875 34.265625 53.734375 
Q 38.71875 56 44.09375 56 
Q 53.5625 56 58.46875 50.1875 
Q 63.375 44.390625 63.375 33.296875 
z
" id="DejaVuSans-Bold-110"/>
      <path d="M 45.609375 46.6875 
L 45.609375 75.984375 
L 63.1875 75.984375 
L 63.1875 0 
L 45.609375 0 
L 45.609375 7.90625 
Q 42 3.078125 37.640625 0.828125 
Q 33.296875 -1.421875 27.59375 -1.421875 
Q 17.484375 -1.421875 10.984375 6.609375 
Q 4.5 14.65625 4.5 27.296875 
Q 4.5 39.9375 10.984375 47.96875 
Q 17.484375 56 27.59375 56 
Q 33.25 56 37.625 53.734375 
Q 42 51.46875 45.609375 46.6875 
z
M 34.078125 11.28125 
Q 39.703125 11.28125 42.65625 15.375 
Q 45.609375 19.484375 45.609375 27.296875 
Q 45.609375 35.109375 42.65625 39.203125 
Q 39.703125 43.3125 34.078125 43.3125 
Q 28.515625 43.3125 25.5625 39.203125 
Q 22.609375 35.109375 22.609375 27.296875 
Q 22.609375 19.484375 25.5625 15.375 
Q 28.515625 11.28125 34.078125 11.28125 
z
" id="DejaVuSans-Bold-100"/>
      <path d="M 8.40625 54.6875 
L 25.875 54.6875 
L 25.875 0 
L 8.40625 0 
z
M 8.40625 75.984375 
L 25.875 75.984375 
L 25.875 61.71875 
L 8.40625 61.71875 
z
" id="DejaVuSans-Bold-105"/>
      <path d="M 45.609375 9.28125 
Q 42 4.5 37.640625 2.25 
Q 33.296875 0 27.59375 0 
Q 17.578125 0 11.03125 7.875 
Q 4.5 15.765625 4.5 27.984375 
Q 4.5 40.234375 11.03125 48.0625 
Q 17.578125 55.90625 27.59375 55.90625 
Q 33.296875 55.90625 37.640625 53.65625 
Q 42 51.421875 45.609375 46.578125 
L 45.609375 54.6875 
L 63.1875 54.6875 
L 63.1875 5.515625 
Q 63.1875 -7.671875 54.859375 -14.625 
Q 46.53125 -21.578125 30.71875 -21.578125 
Q 25.59375 -21.578125 20.796875 -20.796875 
Q 16.015625 -20.015625 11.1875 -18.40625 
L 11.1875 -4.78125 
Q 15.765625 -7.421875 20.15625 -8.71875 
Q 24.5625 -10.015625 29 -10.015625 
Q 37.59375 -10.015625 41.59375 -6.25 
Q 45.609375 -2.484375 45.609375 5.515625 
z
M 34.078125 43.3125 
Q 28.65625 43.3125 25.625 39.296875 
Q 22.609375 35.296875 22.609375 27.984375 
Q 22.609375 20.453125 25.53125 16.578125 
Q 28.46875 12.703125 34.078125 12.703125 
Q 39.546875 12.703125 42.578125 16.703125 
Q 45.609375 20.703125 45.609375 27.984375 
Q 45.609375 35.296875 42.578125 39.296875 
Q 39.546875 43.3125 34.078125 43.3125 
z
" id="DejaVuSans-Bold-103"/>
      <path d="M 37.703125 -13.1875 
L 23.1875 -13.1875 
Q 15.71875 -1.125 12.15625 9.734375 
Q 8.59375 20.609375 8.59375 31.296875 
Q 8.59375 42 12.171875 52.953125 
Q 15.765625 63.921875 23.1875 75.875 
L 37.703125 75.875 
Q 31.453125 64.3125 28.328125 53.25 
Q 25.203125 42.1875 25.203125 31.390625 
Q 25.203125 20.609375 28.296875 9.515625 
Q 31.390625 -1.5625 37.703125 -13.1875 
z
" id="DejaVuSans-Bold-40"/>
      <path d="M 59.078125 45.609375 
Q 62.40625 50.6875 66.96875 53.34375 
Q 71.53125 56 77 56 
Q 86.421875 56 91.359375 50.1875 
Q 96.296875 44.390625 96.296875 33.296875 
L 96.296875 0 
L 78.71875 0 
L 78.71875 28.515625 
Q 78.765625 29.15625 78.78125 29.828125 
Q 78.8125 30.515625 78.8125 31.78125 
Q 78.8125 37.59375 77.09375 40.203125 
Q 75.390625 42.828125 71.578125 42.828125 
Q 66.609375 42.828125 63.890625 38.71875 
Q 61.1875 34.625 61.078125 26.859375 
L 61.078125 0 
L 43.5 0 
L 43.5 28.515625 
Q 43.5 37.59375 41.9375 40.203125 
Q 40.375 42.828125 36.375 42.828125 
Q 31.34375 42.828125 28.609375 38.703125 
Q 25.875 34.578125 25.875 26.90625 
L 25.875 0 
L 8.296875 0 
L 8.296875 54.6875 
L 25.875 54.6875 
L 25.875 46.6875 
Q 29.109375 51.3125 33.28125 53.65625 
Q 37.453125 56 42.484375 56 
Q 48.140625 56 52.484375 53.265625 
Q 56.84375 50.53125 59.078125 45.609375 
z
" id="DejaVuSans-Bold-109"/>
      <path d="M 8.40625 75.984375 
L 25.875 75.984375 
L 25.875 0 
L 8.40625 0 
z
" id="DejaVuSans-Bold-108"/>
      <path d="M 34.421875 43.5 
Q 28.609375 43.5 25.5625 39.328125 
Q 22.515625 35.15625 22.515625 27.296875 
Q 22.515625 19.4375 25.5625 15.25 
Q 28.609375 11.078125 34.421875 11.078125 
Q 40.140625 11.078125 43.15625 15.25 
Q 46.1875 19.4375 46.1875 27.296875 
Q 46.1875 35.15625 43.15625 39.328125 
Q 40.140625 43.5 34.421875 43.5 
z
M 34.421875 56 
Q 48.53125 56 56.46875 48.375 
Q 64.40625 40.765625 64.40625 27.296875 
Q 64.40625 13.8125 56.46875 6.1875 
Q 48.53125 -1.421875 34.421875 -1.421875 
Q 20.265625 -1.421875 12.28125 6.1875 
Q 4.296875 13.8125 4.296875 27.296875 
Q 4.296875 40.765625 12.28125 48.375 
Q 20.265625 56 34.421875 56 
z
" id="DejaVuSans-Bold-111"/>
      <path d="M 51.125 52.984375 
L 51.125 39.703125 
Q 45.515625 42.046875 40.28125 43.21875 
Q 35.0625 44.390625 30.421875 44.390625 
Q 25.4375 44.390625 23.015625 43.140625 
Q 20.609375 41.890625 20.609375 39.3125 
Q 20.609375 37.203125 22.4375 36.078125 
Q 24.265625 34.96875 29 34.421875 
L 32.078125 33.984375 
Q 45.515625 32.28125 50.140625 28.375 
Q 54.78125 24.46875 54.78125 16.109375 
Q 54.78125 7.375 48.328125 2.96875 
Q 41.890625 -1.421875 29.109375 -1.421875 
Q 23.6875 -1.421875 17.890625 -0.5625 
Q 12.109375 0.296875 6 2 
L 6 15.28125 
Q 11.234375 12.75 16.71875 11.46875 
Q 22.21875 10.203125 27.875 10.203125 
Q 33.015625 10.203125 35.59375 11.609375 
Q 38.1875 13.03125 38.1875 15.828125 
Q 38.1875 18.171875 36.40625 19.3125 
Q 34.625 20.453125 29.296875 21.09375 
L 26.21875 21.484375 
Q 14.546875 22.953125 9.859375 26.90625 
Q 5.171875 30.859375 5.171875 38.921875 
Q 5.171875 47.609375 11.125 51.796875 
Q 17.09375 56 29.390625 56 
Q 34.234375 56 39.546875 55.265625 
Q 44.875 54.546875 51.125 52.984375 
z
" id="DejaVuSans-Bold-115"/>
      <path d="M 44.390625 75.984375 
L 44.390625 64.5 
L 34.71875 64.5 
Q 31 64.5 29.53125 63.15625 
Q 28.078125 61.8125 28.078125 58.5 
L 28.078125 54.6875 
L 43.015625 54.6875 
L 43.015625 42.1875 
L 28.078125 42.1875 
L 28.078125 0 
L 10.59375 0 
L 10.59375 42.1875 
L 1.90625 42.1875 
L 1.90625 54.6875 
L 10.59375 54.6875 
L 10.59375 58.5 
Q 10.59375 67.4375 15.578125 71.703125 
Q 20.5625 75.984375 31 75.984375 
z
" id="DejaVuSans-Bold-102"/>
      <path d="M 38.8125 -14.703125 
L 30.90625 -14.703125 
L 30.859375 0 
Q 24.75 0.25 19.03125 1.359375 
Q 13.328125 2.484375 7.90625 4.5 
L 7.90625 17.28125 
Q 13.53125 14.40625 19.265625 12.859375 
Q 25 11.328125 30.90625 11.140625 
L 30.90625 26.3125 
L 29.296875 26.609375 
Q 17.625 28.65625 12.71875 33.046875 
Q 7.8125 37.453125 7.8125 45.703125 
Q 7.8125 54.4375 13.796875 59.34375 
Q 19.78125 64.265625 30.859375 64.703125 
L 30.90625 75.984375 
L 38.8125 75.984375 
L 38.8125 64.890625 
Q 43.703125 64.5 48.578125 63.671875 
Q 53.46875 62.84375 58.40625 61.53125 
L 58.40625 49.125 
Q 53.515625 51.171875 48.625 52.3125 
Q 43.75 53.46875 38.8125 53.71875 
L 38.8125 39.703125 
L 40.375 39.40625 
Q 52.78125 37.453125 57.78125 32.890625 
Q 62.796875 28.328125 62.796875 19.390625 
Q 62.796875 10.40625 56.828125 5.59375 
Q 50.875 0.78125 38.8125 0.09375 
z
M 30.90625 40.828125 
L 30.90625 53.5625 
Q 27.4375 53.375 25.359375 51.6875 
Q 23.296875 50 23.296875 47.40625 
Q 23.296875 44.53125 25.1875 42.890625 
Q 27.09375 41.265625 30.90625 40.828125 
z
M 38.8125 24.90625 
L 38.8125 11.328125 
Q 43.0625 11.375 45.1875 12.984375 
Q 47.3125 14.59375 47.3125 17.828125 
Q 47.3125 21.140625 45.359375 22.78125 
Q 43.40625 24.421875 38.8125 24.90625 
z
" id="DejaVuSans-Bold-36"/>
      <path d="M 8.015625 -13.1875 
Q 14.265625 -1.5625 17.390625 9.515625 
Q 20.515625 20.609375 20.515625 31.390625 
Q 20.515625 42.1875 17.390625 53.25 
Q 14.265625 64.3125 8.015625 75.875 
L 22.515625 75.875 
Q 29.9375 63.921875 33.515625 52.953125 
Q 37.109375 42 37.109375 31.296875 
Q 37.109375 20.609375 33.546875 9.734375 
Q 29.984375 -1.125 22.515625 -13.1875 
z
" id="DejaVuSans-Bold-41"/>
     </defs>
     <g transform="translate(171.520156 491.553437)scale(0.14 -0.14)">
      <use xlink:href="#DejaVuSans-Bold-78"/>
      <use x="83.691406" xlink:href="#DejaVuSans-Bold-67"/>
      <use x="157.080078" xlink:href="#DejaVuSans-Bold-73"/>
      <use x="194.287109" xlink:href="#DejaVuSans-Bold-32"/>
      <use x="229.101562" xlink:href="#DejaVuSans-Bold-70"/>
      <use x="292.412109" xlink:href="#DejaVuSans-Bold-117"/>
      <use x="363.603516" xlink:href="#DejaVuSans-Bold-110"/>
      <use x="434.794922" xlink:href="#DejaVuSans-Bold-100"/>
      <use x="506.376953" xlink:href="#DejaVuSans-Bold-105"/>
      <use x="540.654297" xlink:href="#DejaVuSans-Bold-110"/>
      <use x="611.845703" xlink:href="#DejaVuSans-Bold-103"/>
      <use x="683.427734" xlink:href="#DejaVuSans-Bold-32"/>
      <use x="718.242188" xlink:href="#DejaVuSans-Bold-40"/>
      <use x="763.945312" xlink:href="#DejaVuSans-Bold-109"/>
      <use x="868.144531" xlink:href="#DejaVuSans-Bold-105"/>
      <use x="902.421875" xlink:href="#DejaVuSans-Bold-108"/>
      <use x="936.699219" xlink:href="#DejaVuSans-Bold-108"/>
      <use x="970.976562" xlink:href="#DejaVuSans-Bold-105"/>
      <use x="1005.253906" xlink:href="#DejaVuSans-Bold-111"/>
      <use x="1073.955078" xlink:href="#DejaVuSans-Bold-110"/>
      <use x="1145.146484" xlink:href="#DejaVuSans-Bold-115"/>
      <use x="1204.667969" xlink:href="#DejaVuSans-Bold-32"/>
      <use x="1239.482422" xlink:href="#DejaVuSans-Bold-111"/>
      <use x="1308.183594" xlink:href="#DejaVuSans-Bold-102"/>
      <use x="1351.689453" xlink:href="#DejaVuSans-Bold-32"/>
      <use x="1386.503906" xlink:href="#DejaVuSans-Bold-36"/>
      <use x="1456.083984" xlink:href="#DejaVuSans-Bold-41"/>
     </g>
    </g>
   </g>
   <g id="matplotlib.axis_2">
    <g id="ytick_1">
     <g id="line2d_11">
      <defs>
       <path d="M 0 0 
L -3.5 0 
" id="m19cc767751" style="stroke:#000000;stroke-width:0.8;"/>
      </defs>
      <g>
       <use style="stroke:#000000;stroke-width:0.8;" x="53.44375" xlink:href="#m19cc767751" y="455.441745"/>
      </g>
     </g>
     <g id="text_10">
      <!-- 0 -->
      <g transform="translate(40.08125 459.240964)scale(0.1 -0.1)">
       <use xlink:href="#DejaVuSans-48"/>
      </g>
     </g>
    </g>
    <g id="ytick_2">
     <g id="line2d_12">
      <g>
       <use style="stroke:#000000;stroke-width:0.8;" x="53.44375" xlink:href="#m19cc767751" y="394.581916"/>
      </g>
     </g>
     <g id="text_11">
      <!-- 5 -->
      <g transform="translate(40.08125 398.381134)scale(0.1 -0.1)">
       <use xlink:href="#DejaVuSans-53"/>
      </g>
     </g>
    </g>
    <g id="ytick_3">
     <g id="line2d_13">
      <g>
       <use style="stroke:#000000;stroke-width:0.8;" x="53.44375" xlink:href="#m19cc767751" y="333.722086"/>
      </g>
     </g>
     <g id="text_12">
      <!-- 10 -->
      <g transform="translate(33.71875 337.521305)scale(0.1 -0.1)">
       <use xlink:href="#DejaVuSans-49"/>
       <use x="63.623047" xlink:href="#DejaVuSans-48"/>
      </g>
     </g>
    </g>
    <g id="ytick_4">
     <g id="line2d_14">
      <g>
       <use style="stroke:#000000;stroke-width:0.8;" x="53.44375" xlink:href="#m19cc767751" y="272.862256"/>
      </g>
     </g>
     <g id="text_13">
      <!-- 15 -->
      <g transform="translate(33.71875 276.661475)scale(0.1 -0.1)">
       <use xlink:href="#DejaVuSans-49"/>
       <use x="63.623047" xlink:href="#DejaVuSans-53"/>
      </g>
     </g>
    </g>
    <g id="ytick_5">
     <g id="line2d_15">
      <g>
       <use style="stroke:#000000;stroke-width:0.8;" x="53.44375" xlink:href="#m19cc767751" y="212.002426"/>
      </g>
     </g>
     <g id="text_14">
      <!-- 20 -->
      <g transform="translate(33.71875 215.801645)scale(0.1 -0.1)">
       <use xlink:href="#DejaVuSans-50"/>
       <use x="63.623047" xlink:href="#DejaVuSans-48"/>
      </g>
     </g>
    </g>
    <g id="ytick_6">
     <g id="line2d_16">
      <g>
       <use style="stroke:#000000;stroke-width:0.8;" x="53.44375" xlink:href="#m19cc767751" y="151.142596"/>
      </g>
     </g>
     <g id="text_15">
      <!-- 25 -->
      <g transform="translate(33.71875 154.941815)scale(0.1 -0.1)">
       <use xlink:href="#DejaVuSans-50"/>
       <use x="63.623047" xlink:href="#DejaVuSans-53"/>
      </g>
     </g>
    </g>
    <g id="ytick_7">
     <g id="line2d_17">
      <g>
       <use style="stroke:#000000;stroke-width:0.8;" x="53.44375" xlink:href="#m19cc767751" y="90.282766"/>
      </g>
     </g>
     <g id="text_16">
      <!-- 30 -->
      <g transform="translate(33.71875 94.081985)scale(0.1 -0.1)">
       <use xlink:href="#DejaVuSans-51"/>
       <use x="63.623047" xlink:href="#DejaVuSans-48"/>
      </g>
     </g>
    </g>
    <g id="ytick_8">
     <g id="line2d_18">
      <g>
       <use style="stroke:#000000;stroke-width:0.8;" x="53.44375" xlink:href="#m19cc767751" y="29.422937"/>
      </g>
     </g>
     <g id="text_17">
      <!-- 35 -->
      <g transform="translate(33.71875 33.222155)scale(0.1 -0.1)">
       <use xlink:href="#DejaVuSans-51"/>
       <use x="63.623047" xlink:href="#DejaVuSans-53"/>
      </g>
     </g>
    </g>
    <g id="text_18">
     <!-- Years of Life Lost -->
     <defs>
      <path d="M -0.984375 72.90625 
L 19.578125 72.90625 
L 36.1875 46.921875 
L 52.78125 72.90625 
L 73.390625 72.90625 
L 45.609375 30.71875 
L 45.609375 0 
L 26.8125 0 
L 26.8125 30.71875 
z
" id="DejaVuSans-Bold-89"/>
      <path d="M 62.984375 27.484375 
L 62.984375 22.515625 
L 22.125 22.515625 
Q 22.75 16.359375 26.5625 13.28125 
Q 30.375 10.203125 37.203125 10.203125 
Q 42.71875 10.203125 48.5 11.84375 
Q 54.296875 13.484375 60.40625 16.796875 
L 60.40625 3.328125 
Q 54.203125 0.984375 48 -0.21875 
Q 41.796875 -1.421875 35.59375 -1.421875 
Q 20.75 -1.421875 12.515625 6.125 
Q 4.296875 13.671875 4.296875 27.296875 
Q 4.296875 40.671875 12.375 48.328125 
Q 20.453125 56 34.625 56 
Q 47.515625 56 55.25 48.234375 
Q 62.984375 40.484375 62.984375 27.484375 
z
M 45.015625 33.296875 
Q 45.015625 38.28125 42.109375 41.328125 
Q 39.203125 44.390625 34.515625 44.390625 
Q 29.4375 44.390625 26.265625 41.53125 
Q 23.09375 38.671875 22.3125 33.296875 
z
" id="DejaVuSans-Bold-101"/>
      <path d="M 32.90625 24.609375 
Q 27.4375 24.609375 24.671875 22.75 
Q 21.921875 20.90625 21.921875 17.28125 
Q 21.921875 13.96875 24.140625 12.078125 
Q 26.375 10.203125 30.328125 10.203125 
Q 35.25 10.203125 38.625 13.734375 
Q 42 17.28125 42 22.609375 
L 42 24.609375 
z
M 59.625 31.203125 
L 59.625 0 
L 42 0 
L 42 8.109375 
Q 38.484375 3.125 34.078125 0.84375 
Q 29.6875 -1.421875 23.390625 -1.421875 
Q 14.890625 -1.421875 9.59375 3.53125 
Q 4.296875 8.5 4.296875 16.40625 
Q 4.296875 26.03125 10.90625 30.515625 
Q 17.53125 35.015625 31.6875 35.015625 
L 42 35.015625 
L 42 36.375 
Q 42 40.53125 38.71875 42.453125 
Q 35.453125 44.390625 28.515625 44.390625 
Q 22.90625 44.390625 18.0625 43.265625 
Q 13.234375 42.140625 9.078125 39.890625 
L 9.078125 53.21875 
Q 14.703125 54.59375 20.359375 55.296875 
Q 26.03125 56 31.6875 56 
Q 46.484375 56 53.046875 50.171875 
Q 59.625 44.34375 59.625 31.203125 
z
" id="DejaVuSans-Bold-97"/>
      <path d="M 49.03125 39.796875 
Q 46.734375 40.875 44.453125 41.375 
Q 42.1875 41.890625 39.890625 41.890625 
Q 33.15625 41.890625 29.515625 37.5625 
Q 25.875 33.25 25.875 25.203125 
L 25.875 0 
L 8.40625 0 
L 8.40625 54.6875 
L 25.875 54.6875 
L 25.875 45.703125 
Q 29.25 51.078125 33.609375 53.53125 
Q 37.984375 56 44.09375 56 
Q 44.96875 56 45.984375 55.921875 
Q 47.015625 55.859375 48.96875 55.609375 
z
" id="DejaVuSans-Bold-114"/>
      <path d="M 9.1875 72.90625 
L 27.984375 72.90625 
L 27.984375 14.203125 
L 60.984375 14.203125 
L 60.984375 0 
L 9.1875 0 
z
" id="DejaVuSans-Bold-76"/>
      <path d="M 27.484375 70.21875 
L 27.484375 54.6875 
L 45.515625 54.6875 
L 45.515625 42.1875 
L 27.484375 42.1875 
L 27.484375 19 
Q 27.484375 15.1875 29 13.84375 
Q 30.515625 12.5 35.015625 12.5 
L 44 12.5 
L 44 0 
L 29 0 
Q 18.65625 0 14.328125 4.3125 
Q 10.015625 8.640625 10.015625 19 
L 10.015625 42.1875 
L 1.3125 42.1875 
L 1.3125 54.6875 
L 10.015625 54.6875 
L 10.015625 70.21875 
z
" id="DejaVuSans-Bold-116"/>
     </defs>
     <g transform="translate(26.807188 310.91625)rotate(-90)scale(0.14 -0.14)">
      <use xlink:href="#DejaVuSans-Bold-89"/>
      <use x="63.287109" xlink:href="#DejaVuSans-Bold-101"/>
      <use x="131.109375" xlink:href="#DejaVuSans-Bold-97"/>
      <use x="198.589844" xlink:href="#DejaVuSans-Bold-114"/>
      <use x="247.90625" xlink:href="#DejaVuSans-Bold-115"/>
      <use x="307.427734" xlink:href="#DejaVuSans-Bold-32"/>
      <use x="342.242188" xlink:href="#DejaVuSans-Bold-111"/>
      <use x="410.943359" xlink:href="#DejaVuSans-Bold-102"/>
      <use x="454.449219" xlink:href="#DejaVuSans-Bold-32"/>
      <use x="489.263672" xlink:href="#DejaVuSans-Bold-76"/>
      <use x="552.984375" xlink:href="#DejaVuSans-Bold-105"/>
      <use x="587.261719" xlink:href="#DejaVuSans-Bold-102"/>
      <use x="630.767578" xlink:href="#DejaVuSans-Bold-101"/>
      <use x="698.589844" xlink:href="#DejaVuSans-Bold-32"/>
      <use x="733.404297" xlink:href="#DejaVuSans-Bold-76"/>
      <use x="797.125" xlink:href="#DejaVuSans-Bold-111"/>
      <use x="865.826172" xlink:href="#DejaVuSans-Bold-115"/>
      <use x="925.347656" xlink:href="#DejaVuSans-Bold-116"/>
     </g>
    </g>
   </g>
   <g id="patch_3">
    <path d="M 53.44375 460.2375 
L 53.44375 25.3575 
" style="fill:none;stroke:#000000;stroke-linecap:square;stroke-linejoin:miter;stroke-width:0.8;"/>
   </g>
   <g id="patch_4">
    <path d="M 53.44375 460.2375 
L 499.84375 460.2375 
" style="fill:none;stroke:#000000;stroke-linecap:square;stroke-linejoin:miter;stroke-width:0.8;"/>
   </g>
   <g id="text_19">
    <!-- NCI Funding of Cancer Research Based on Years of Life Lost -->
    <defs>
     <path d="M 52.59375 52.984375 
L 52.59375 38.71875 
Q 49.03125 41.15625 45.4375 42.328125 
Q 41.84375 43.5 37.984375 43.5 
Q 30.671875 43.5 26.59375 39.234375 
Q 22.515625 34.96875 22.515625 27.296875 
Q 22.515625 19.625 26.59375 15.34375 
Q 30.671875 11.078125 37.984375 11.078125 
Q 42.09375 11.078125 45.78125 12.296875 
Q 49.46875 13.53125 52.59375 15.921875 
L 52.59375 1.609375 
Q 48.484375 0.09375 44.265625 -0.65625 
Q 40.046875 -1.421875 35.796875 -1.421875 
Q 21 -1.421875 12.640625 6.171875 
Q 4.296875 13.765625 4.296875 27.296875 
Q 4.296875 40.828125 12.640625 48.40625 
Q 21 56 35.796875 56 
Q 40.09375 56 44.265625 55.25 
Q 48.4375 54.5 52.59375 52.984375 
z
" id="DejaVuSans-Bold-99"/>
     <path d="M 35.890625 40.578125 
Q 41.796875 40.578125 44.359375 42.765625 
Q 46.921875 44.96875 46.921875 50 
Q 46.921875 54.984375 44.359375 57.125 
Q 41.796875 59.28125 35.890625 59.28125 
L 27.984375 59.28125 
L 27.984375 40.578125 
z
M 27.984375 27.59375 
L 27.984375 0 
L 9.1875 0 
L 9.1875 72.90625 
L 37.890625 72.90625 
Q 52.296875 72.90625 59 68.0625 
Q 65.71875 63.234375 65.71875 52.78125 
Q 65.71875 45.5625 62.21875 40.921875 
Q 58.734375 36.28125 51.703125 34.078125 
Q 55.5625 33.203125 58.609375 30.09375 
Q 61.671875 27 64.796875 20.703125 
L 75 0 
L 54.984375 0 
L 46.09375 18.109375 
Q 43.40625 23.578125 40.640625 25.578125 
Q 37.890625 27.59375 33.296875 27.59375 
z
" id="DejaVuSans-Bold-82"/>
     <path d="M 63.375 33.296875 
L 63.375 0 
L 45.796875 0 
L 45.796875 5.421875 
L 45.796875 25.390625 
Q 45.796875 32.5625 45.484375 35.25 
Q 45.171875 37.9375 44.390625 39.203125 
Q 43.359375 40.921875 41.59375 41.875 
Q 39.84375 42.828125 37.59375 42.828125 
Q 32.125 42.828125 29 38.59375 
Q 25.875 34.375 25.875 26.90625 
L 25.875 0 
L 8.40625 0 
L 8.40625 75.984375 
L 25.875 75.984375 
L 25.875 46.6875 
Q 29.828125 51.46875 34.265625 53.734375 
Q 38.71875 56 44.09375 56 
Q 53.5625 56 58.46875 50.1875 
Q 63.375 44.390625 63.375 33.296875 
z
" id="DejaVuSans-Bold-104"/>
     <path d="M 38.375 44.671875 
Q 42.828125 44.671875 45.109375 46.625 
Q 47.40625 48.578125 47.40625 52.390625 
Q 47.40625 56.15625 45.109375 58.125 
Q 42.828125 60.109375 38.375 60.109375 
L 27.984375 60.109375 
L 27.984375 44.671875 
z
M 39.015625 12.796875 
Q 44.671875 12.796875 47.53125 15.1875 
Q 50.390625 17.578125 50.390625 22.40625 
Q 50.390625 27.15625 47.5625 29.515625 
Q 44.734375 31.890625 39.015625 31.890625 
L 27.984375 31.890625 
L 27.984375 12.796875 
z
M 56.5 39.015625 
Q 62.546875 37.25 65.859375 32.515625 
Q 69.1875 27.78125 69.1875 20.90625 
Q 69.1875 10.359375 62.0625 5.171875 
Q 54.9375 0 40.375 0 
L 9.1875 0 
L 9.1875 72.90625 
L 37.40625 72.90625 
Q 52.59375 72.90625 59.40625 68.3125 
Q 66.21875 63.71875 66.21875 53.609375 
Q 66.21875 48.296875 63.71875 44.5625 
Q 61.234375 40.828125 56.5 39.015625 
z
" id="DejaVuSans-Bold-66"/>
    </defs>
    <g transform="translate(7.2 19.3575)scale(0.16 -0.16)">
     <use xlink:href="#DejaVuSans-Bold-78"/>
     <use x="83.691406" xlink:href="#DejaVuSans-Bold-67"/>
     <use x="157.080078" xlink:href="#DejaVuSans-Bold-73"/>
     <use x="194.287109" xlink:href="#DejaVuSans-Bold-32"/>
     <use x="229.101562" xlink:href="#DejaVuSans-Bold-70"/>
     <use x="292.412109" xlink:href="#DejaVuSans-Bold-117"/>
     <use x="363.603516" xlink:href="#DejaVuSans-Bold-110"/>
     <use x="434.794922" xlink:href="#DejaVuSans-Bold-100"/>
     <use x="506.376953" xlink:href="#DejaVuSans-Bold-105"/>
     <use x="540.654297" xlink:href="#DejaVuSans-Bold-110"/>
     <use x="611.845703" xlink:href="#DejaVuSans-Bold-103"/>
     <use x="683.427734" xlink:href="#DejaVuSans-Bold-32"/>
     <use x="718.242188" xlink:href="#DejaVuSans-Bold-111"/>
     <use x="786.943359" xlink:href="#DejaVuSans-Bold-102"/>
     <use x="830.449219" xlink:href="#DejaVuSans-Bold-32"/>
     <use x="865.263672" xlink:href="#DejaVuSans-Bold-67"/>
     <use x="938.652344" xlink:href="#DejaVuSans-Bold-97"/>
     <use x="1006.132812" xlink:href="#DejaVuSans-Bold-110"/>
     <use x="1077.324219" xlink:href="#DejaVuSans-Bold-99"/>
     <use x="1136.601562" xlink:href="#DejaVuSans-Bold-101"/>
     <use x="1204.423828" xlink:href="#DejaVuSans-Bold-114"/>
     <use x="1253.740234" xlink:href="#DejaVuSans-Bold-32"/>
     <use x="1288.554688" xlink:href="#DejaVuSans-Bold-82"/>
     <use x="1365.556641" xlink:href="#DejaVuSans-Bold-101"/>
     <use x="1433.378906" xlink:href="#DejaVuSans-Bold-115"/>
     <use x="1492.900391" xlink:href="#DejaVuSans-Bold-101"/>
     <use x="1560.722656" xlink:href="#DejaVuSans-Bold-97"/>
     <use x="1628.203125" xlink:href="#DejaVuSans-Bold-114"/>
     <use x="1677.519531" xlink:href="#DejaVuSans-Bold-99"/>
     <use x="1736.796875" xlink:href="#DejaVuSans-Bold-104"/>
     <use x="1807.988281" xlink:href="#DejaVuSans-Bold-32"/>
     <use x="1842.802734" xlink:href="#DejaVuSans-Bold-66"/>
     <use x="1919.023438" xlink:href="#DejaVuSans-Bold-97"/>
     <use x="1986.503906" xlink:href="#DejaVuSans-Bold-115"/>
     <use x="2046.025391" xlink:href="#DejaVuSans-Bold-101"/>
     <use x="2113.847656" xlink:href="#DejaVuSans-Bold-100"/>
     <use x="2185.429688" xlink:href="#DejaVuSans-Bold-32"/>
     <use x="2220.244141" xlink:href="#DejaVuSans-Bold-111"/>
     <use x="2288.945312" xlink:href="#DejaVuSans-Bold-110"/>
     <use x="2360.136719" xlink:href="#DejaVuSans-Bold-32"/>
     <use x="2394.951172" xlink:href="#DejaVuSans-Bold-89"/>
     <use x="2458.238281" xlink:href="#DejaVuSans-Bold-101"/>
     <use x="2526.060547" xlink:href="#DejaVuSans-Bold-97"/>
     <use x="2593.541016" xlink:href="#DejaVuSans-Bold-114"/>
     <use x="2642.857422" xlink:href="#DejaVuSans-Bold-115"/>
     <use x="2702.378906" xlink:href="#DejaVuSans-Bold-32"/>
     <use x="2737.193359" xlink:href="#DejaVuSans-Bold-111"/>
     <use x="2805.894531" xlink:href="#DejaVuSans-Bold-102"/>
     <use x="2849.400391" xlink:href="#DejaVuSans-Bold-32"/>
     <use x="2884.214844" xlink:href="#DejaVuSans-Bold-76"/>
     <use x="2947.935547" xlink:href="#DejaVuSans-Bold-105"/>
     <use x="2982.212891" xlink:href="#DejaVuSans-Bold-102"/>
     <use x="3025.71875" xlink:href="#DejaVuSans-Bold-101"/>
     <use x="3093.541016" xlink:href="#DejaVuSans-Bold-32"/>
     <use x="3128.355469" xlink:href="#DejaVuSans-Bold-76"/>
     <use x="3192.076172" xlink:href="#DejaVuSans-Bold-111"/>
     <use x="3260.777344" xlink:href="#DejaVuSans-Bold-115"/>
     <use x="3320.298828" xlink:href="#DejaVuSans-Bold-116"/>
    </g>
   </g>
   <g id="legend_1">
    <g id="patch_5">
     <path d="M 231.870625 197.83005 
L 803.92375 197.83005 
Q 806.32375 197.83005 806.32375 195.43005 
L 806.32375 38.1063 
Q 806.32375 35.7063 803.92375 35.7063 
L 231.870625 35.7063 
Q 229.470625 35.7063 229.470625 38.1063 
L 229.470625 195.43005 
Q 229.470625 197.83005 231.870625 197.83005 
z
" style="fill:#ffffff;opacity:0.8;stroke:#cccccc;stroke-linejoin:miter;"/>
    </g>
    <g id="PathCollection_3">
     <path d="M 246.270625 42.601442 
L 242.397642 50.347408 
L 250.143608 50.347408 
z
" style="fill:#0000ff;stroke:#0000ff;"/>
    </g>
    <g id="text_20">
     <!-- Average Years of Life Lost (AYLL) -->
     <defs>
      <path d="M 34.1875 63.1875 
L 20.796875 26.90625 
L 47.609375 26.90625 
z
M 28.609375 72.90625 
L 39.796875 72.90625 
L 67.578125 0 
L 57.328125 0 
L 50.6875 18.703125 
L 17.828125 18.703125 
L 11.1875 0 
L 0.78125 0 
z
" id="DejaVuSans-65"/>
      <path d="M 2.984375 54.6875 
L 12.5 54.6875 
L 29.59375 8.796875 
L 46.6875 54.6875 
L 56.203125 54.6875 
L 35.6875 0 
L 23.484375 0 
z
" id="DejaVuSans-118"/>
      <path d="M 56.203125 29.59375 
L 56.203125 25.203125 
L 14.890625 25.203125 
Q 15.484375 15.921875 20.484375 11.0625 
Q 25.484375 6.203125 34.421875 6.203125 
Q 39.59375 6.203125 44.453125 7.46875 
Q 49.3125 8.734375 54.109375 11.28125 
L 54.109375 2.78125 
Q 49.265625 0.734375 44.1875 -0.34375 
Q 39.109375 -1.421875 33.890625 -1.421875 
Q 20.796875 -1.421875 13.15625 6.1875 
Q 5.515625 13.8125 5.515625 26.8125 
Q 5.515625 40.234375 12.765625 48.109375 
Q 20.015625 56 32.328125 56 
Q 43.359375 56 49.78125 48.890625 
Q 56.203125 41.796875 56.203125 29.59375 
z
M 47.21875 32.234375 
Q 47.125 39.59375 43.09375 43.984375 
Q 39.0625 48.390625 32.421875 48.390625 
Q 24.90625 48.390625 20.390625 44.140625 
Q 15.875 39.890625 15.1875 32.171875 
z
" id="DejaVuSans-101"/>
      <path d="M 41.109375 46.296875 
Q 39.59375 47.171875 37.8125 47.578125 
Q 36.03125 48 33.890625 48 
Q 26.265625 48 22.1875 43.046875 
Q 18.109375 38.09375 18.109375 28.8125 
L 18.109375 0 
L 9.078125 0 
L 9.078125 54.6875 
L 18.109375 54.6875 
L 18.109375 46.1875 
Q 20.953125 51.171875 25.484375 53.578125 
Q 30.03125 56 36.53125 56 
Q 37.453125 56 38.578125 55.875 
Q 39.703125 55.765625 41.0625 55.515625 
z
" id="DejaVuSans-114"/>
      <path d="M 34.28125 27.484375 
Q 23.390625 27.484375 19.1875 25 
Q 14.984375 22.515625 14.984375 16.5 
Q 14.984375 11.71875 18.140625 8.90625 
Q 21.296875 6.109375 26.703125 6.109375 
Q 34.1875 6.109375 38.703125 11.40625 
Q 43.21875 16.703125 43.21875 25.484375 
L 43.21875 27.484375 
z
M 52.203125 31.203125 
L 52.203125 0 
L 43.21875 0 
L 43.21875 8.296875 
Q 40.140625 3.328125 35.546875 0.953125 
Q 30.953125 -1.421875 24.3125 -1.421875 
Q 15.921875 -1.421875 10.953125 3.296875 
Q 6 8.015625 6 15.921875 
Q 6 25.140625 12.171875 29.828125 
Q 18.359375 34.515625 30.609375 34.515625 
L 43.21875 34.515625 
L 43.21875 35.40625 
Q 43.21875 41.609375 39.140625 45 
Q 35.0625 48.390625 27.6875 48.390625 
Q 23 48.390625 18.546875 47.265625 
Q 14.109375 46.140625 10.015625 43.890625 
L 10.015625 52.203125 
Q 14.9375 54.109375 19.578125 55.046875 
Q 24.21875 56 28.609375 56 
Q 40.484375 56 46.34375 49.84375 
Q 52.203125 43.703125 52.203125 31.203125 
z
" id="DejaVuSans-97"/>
      <path d="M 45.40625 27.984375 
Q 45.40625 37.75 41.375 43.109375 
Q 37.359375 48.484375 30.078125 48.484375 
Q 22.859375 48.484375 18.828125 43.109375 
Q 14.796875 37.75 14.796875 27.984375 
Q 14.796875 18.265625 18.828125 12.890625 
Q 22.859375 7.515625 30.078125 7.515625 
Q 37.359375 7.515625 41.375 12.890625 
Q 45.40625 18.265625 45.40625 27.984375 
z
M 54.390625 6.78125 
Q 54.390625 -7.171875 48.1875 -13.984375 
Q 42 -20.796875 29.203125 -20.796875 
Q 24.46875 -20.796875 20.265625 -20.09375 
Q 16.0625 -19.390625 12.109375 -17.921875 
L 12.109375 -9.1875 
Q 16.0625 -11.328125 19.921875 -12.34375 
Q 23.78125 -13.375 27.78125 -13.375 
Q 36.625 -13.375 41.015625 -8.765625 
Q 45.40625 -4.15625 45.40625 5.171875 
L 45.40625 9.625 
Q 42.625 4.78125 38.28125 2.390625 
Q 33.9375 0 27.875 0 
Q 17.828125 0 11.671875 7.65625 
Q 5.515625 15.328125 5.515625 27.984375 
Q 5.515625 40.671875 11.671875 48.328125 
Q 17.828125 56 27.875 56 
Q 33.9375 56 38.28125 53.609375 
Q 42.625 51.21875 45.40625 46.390625 
L 45.40625 54.6875 
L 54.390625 54.6875 
z
" id="DejaVuSans-103"/>
      <path id="DejaVuSans-32"/>
      <path d="M -0.203125 72.90625 
L 10.40625 72.90625 
L 30.609375 42.921875 
L 50.6875 72.90625 
L 61.28125 72.90625 
L 35.5 34.71875 
L 35.5 0 
L 25.59375 0 
L 25.59375 34.71875 
z
" id="DejaVuSans-89"/>
      <path d="M 44.28125 53.078125 
L 44.28125 44.578125 
Q 40.484375 46.53125 36.375 47.5 
Q 32.28125 48.484375 27.875 48.484375 
Q 21.1875 48.484375 17.84375 46.4375 
Q 14.5 44.390625 14.5 40.28125 
Q 14.5 37.15625 16.890625 35.375 
Q 19.28125 33.59375 26.515625 31.984375 
L 29.59375 31.296875 
Q 39.15625 29.25 43.1875 25.515625 
Q 47.21875 21.78125 47.21875 15.09375 
Q 47.21875 7.46875 41.1875 3.015625 
Q 35.15625 -1.421875 24.609375 -1.421875 
Q 20.21875 -1.421875 15.453125 -0.5625 
Q 10.6875 0.296875 5.421875 2 
L 5.421875 11.28125 
Q 10.40625 8.6875 15.234375 7.390625 
Q 20.0625 6.109375 24.8125 6.109375 
Q 31.15625 6.109375 34.5625 8.28125 
Q 37.984375 10.453125 37.984375 14.40625 
Q 37.984375 18.0625 35.515625 20.015625 
Q 33.0625 21.96875 24.703125 23.78125 
L 21.578125 24.515625 
Q 13.234375 26.265625 9.515625 29.90625 
Q 5.8125 33.546875 5.8125 39.890625 
Q 5.8125 47.609375 11.28125 51.796875 
Q 16.75 56 26.8125 56 
Q 31.78125 56 36.171875 55.265625 
Q 40.578125 54.546875 44.28125 53.078125 
z
" id="DejaVuSans-115"/>
      <path d="M 30.609375 48.390625 
Q 23.390625 48.390625 19.1875 42.75 
Q 14.984375 37.109375 14.984375 27.296875 
Q 14.984375 17.484375 19.15625 11.84375 
Q 23.34375 6.203125 30.609375 6.203125 
Q 37.796875 6.203125 41.984375 11.859375 
Q 46.1875 17.53125 46.1875 27.296875 
Q 46.1875 37.015625 41.984375 42.703125 
Q 37.796875 48.390625 30.609375 48.390625 
z
M 30.609375 56 
Q 42.328125 56 49.015625 48.375 
Q 55.71875 40.765625 55.71875 27.296875 
Q 55.71875 13.875 49.015625 6.21875 
Q 42.328125 -1.421875 30.609375 -1.421875 
Q 18.84375 -1.421875 12.171875 6.21875 
Q 5.515625 13.875 5.515625 27.296875 
Q 5.515625 40.765625 12.171875 48.375 
Q 18.84375 56 30.609375 56 
z
" id="DejaVuSans-111"/>
      <path d="M 37.109375 75.984375 
L 37.109375 68.5 
L 28.515625 68.5 
Q 23.6875 68.5 21.796875 66.546875 
Q 19.921875 64.59375 19.921875 59.515625 
L 19.921875 54.6875 
L 34.71875 54.6875 
L 34.71875 47.703125 
L 19.921875 47.703125 
L 19.921875 0 
L 10.890625 0 
L 10.890625 47.703125 
L 2.296875 47.703125 
L 2.296875 54.6875 
L 10.890625 54.6875 
L 10.890625 58.5 
Q 10.890625 67.625 15.140625 71.796875 
Q 19.390625 75.984375 28.609375 75.984375 
z
" id="DejaVuSans-102"/>
      <path d="M 9.8125 72.90625 
L 19.671875 72.90625 
L 19.671875 8.296875 
L 55.171875 8.296875 
L 55.171875 0 
L 9.8125 0 
z
" id="DejaVuSans-76"/>
      <path d="M 9.421875 54.6875 
L 18.40625 54.6875 
L 18.40625 0 
L 9.421875 0 
z
M 9.421875 75.984375 
L 18.40625 75.984375 
L 18.40625 64.59375 
L 9.421875 64.59375 
z
" id="DejaVuSans-105"/>
      <path d="M 18.3125 70.21875 
L 18.3125 54.6875 
L 36.8125 54.6875 
L 36.8125 47.703125 
L 18.3125 47.703125 
L 18.3125 18.015625 
Q 18.3125 11.328125 20.140625 9.421875 
Q 21.96875 7.515625 27.59375 7.515625 
L 36.8125 7.515625 
L 36.8125 0 
L 27.59375 0 
Q 17.1875 0 13.234375 3.875 
Q 9.28125 7.765625 9.28125 18.015625 
L 9.28125 47.703125 
L 2.6875 47.703125 
L 2.6875 54.6875 
L 9.28125 54.6875 
L 9.28125 70.21875 
z
" id="DejaVuSans-116"/>
      <path d="M 31 75.875 
Q 24.46875 64.65625 21.28125 53.65625 
Q 18.109375 42.671875 18.109375 31.390625 
Q 18.109375 20.125 21.3125 9.0625 
Q 24.515625 -2 31 -13.1875 
L 23.1875 -13.1875 
Q 15.875 -1.703125 12.234375 9.375 
Q 8.59375 20.453125 8.59375 31.390625 
Q 8.59375 42.28125 12.203125 53.3125 
Q 15.828125 64.359375 23.1875 75.875 
z
" id="DejaVuSans-40"/>
      <path d="M 8.015625 75.875 
L 15.828125 75.875 
Q 23.140625 64.359375 26.78125 53.3125 
Q 30.421875 42.28125 30.421875 31.390625 
Q 30.421875 20.453125 26.78125 9.375 
Q 23.140625 -1.703125 15.828125 -13.1875 
L 8.015625 -13.1875 
Q 14.5 -2 17.703125 9.0625 
Q 20.90625 20.125 20.90625 31.390625 
Q 20.90625 42.671875 17.703125 53.65625 
Q 14.5 64.65625 8.015625 75.875 
z
" id="DejaVuSans-41"/>
     </defs>
     <g transform="translate(267.870625 49.624425)scale(0.12 -0.12)">
      <use xlink:href="#DejaVuSans-65"/>
      <use x="62.533203" xlink:href="#DejaVuSans-118"/>
      <use x="121.712891" xlink:href="#DejaVuSans-101"/>
      <use x="183.236328" xlink:href="#DejaVuSans-114"/>
      <use x="224.349609" xlink:href="#DejaVuSans-97"/>
      <use x="285.628906" xlink:href="#DejaVuSans-103"/>
      <use x="349.105469" xlink:href="#DejaVuSans-101"/>
      <use x="410.628906" xlink:href="#DejaVuSans-32"/>
      <use x="442.416016" xlink:href="#DejaVuSans-89"/>
      <use x="490.25" xlink:href="#DejaVuSans-101"/>
      <use x="551.773438" xlink:href="#DejaVuSans-97"/>
      <use x="613.052734" xlink:href="#DejaVuSans-114"/>
      <use x="654.166016" xlink:href="#DejaVuSans-115"/>
      <use x="706.265625" xlink:href="#DejaVuSans-32"/>
      <use x="738.052734" xlink:href="#DejaVuSans-111"/>
      <use x="799.234375" xlink:href="#DejaVuSans-102"/>
      <use x="834.439453" xlink:href="#DejaVuSans-32"/>
      <use x="866.226562" xlink:href="#DejaVuSans-76"/>
      <use x="921.939453" xlink:href="#DejaVuSans-105"/>
      <use x="949.722656" xlink:href="#DejaVuSans-102"/>
      <use x="984.927734" xlink:href="#DejaVuSans-101"/>
      <use x="1046.451172" xlink:href="#DejaVuSans-32"/>
      <use x="1078.238281" xlink:href="#DejaVuSans-76"/>
      <use x="1132.201172" xlink:href="#DejaVuSans-111"/>
      <use x="1193.382812" xlink:href="#DejaVuSans-115"/>
      <use x="1245.482422" xlink:href="#DejaVuSans-116"/>
      <use x="1284.691406" xlink:href="#DejaVuSans-32"/>
      <use x="1316.478516" xlink:href="#DejaVuSans-40"/>
      <use x="1355.492188" xlink:href="#DejaVuSans-65"/>
      <use x="1416.150391" xlink:href="#DejaVuSans-89"/>
      <use x="1477.234375" xlink:href="#DejaVuSans-76"/>
      <use x="1532.947266" xlink:href="#DejaVuSans-76"/>
      <use x="1588.660156" xlink:href="#DejaVuSans-41"/>
     </g>
    </g>
    <g id="PathCollection_4">
     <path d="M 246.270625 67.961158 
C 247.297752 67.961158 248.282949 67.553076 249.009238 66.826788 
C 249.735526 66.100499 250.143608 65.115302 250.143608 64.088175 
C 250.143608 63.061048 249.735526 62.075851 249.009238 61.349562 
C 248.282949 60.623274 247.297752 60.215192 246.270625 60.215192 
C 245.243498 60.215192 244.258301 60.623274 243.532012 61.349562 
C 242.805724 62.075851 242.397642 63.061048 242.397642 64.088175 
C 242.397642 65.115302 242.805724 66.100499 243.532012 66.826788 
C 244.258301 67.553076 245.243498 67.961158 246.270625 67.961158 
z
" style="fill:#0000ff;stroke:#0000ff;"/>
    </g>
    <g id="text_21">
     <!-- Years of Life Lost Per Individual (YLLPI) -->
     <defs>
      <path d="M 19.671875 64.796875 
L 19.671875 37.40625 
L 32.078125 37.40625 
Q 38.96875 37.40625 42.71875 40.96875 
Q 46.484375 44.53125 46.484375 51.125 
Q 46.484375 57.671875 42.71875 61.234375 
Q 38.96875 64.796875 32.078125 64.796875 
z
M 9.8125 72.90625 
L 32.078125 72.90625 
Q 44.34375 72.90625 50.609375 67.359375 
Q 56.890625 61.8125 56.890625 51.125 
Q 56.890625 40.328125 50.609375 34.8125 
Q 44.34375 29.296875 32.078125 29.296875 
L 19.671875 29.296875 
L 19.671875 0 
L 9.8125 0 
z
" id="DejaVuSans-80"/>
      <path d="M 9.8125 72.90625 
L 19.671875 72.90625 
L 19.671875 0 
L 9.8125 0 
z
" id="DejaVuSans-73"/>
      <path d="M 54.890625 33.015625 
L 54.890625 0 
L 45.90625 0 
L 45.90625 32.71875 
Q 45.90625 40.484375 42.875 44.328125 
Q 39.84375 48.1875 33.796875 48.1875 
Q 26.515625 48.1875 22.3125 43.546875 
Q 18.109375 38.921875 18.109375 30.90625 
L 18.109375 0 
L 9.078125 0 
L 9.078125 54.6875 
L 18.109375 54.6875 
L 18.109375 46.1875 
Q 21.34375 51.125 25.703125 53.5625 
Q 30.078125 56 35.796875 56 
Q 45.21875 56 50.046875 50.171875 
Q 54.890625 44.34375 54.890625 33.015625 
z
" id="DejaVuSans-110"/>
      <path d="M 45.40625 46.390625 
L 45.40625 75.984375 
L 54.390625 75.984375 
L 54.390625 0 
L 45.40625 0 
L 45.40625 8.203125 
Q 42.578125 3.328125 38.25 0.953125 
Q 33.9375 -1.421875 27.875 -1.421875 
Q 17.96875 -1.421875 11.734375 6.484375 
Q 5.515625 14.40625 5.515625 27.296875 
Q 5.515625 40.1875 11.734375 48.09375 
Q 17.96875 56 27.875 56 
Q 33.9375 56 38.25 53.625 
Q 42.578125 51.265625 45.40625 46.390625 
z
M 14.796875 27.296875 
Q 14.796875 17.390625 18.875 11.75 
Q 22.953125 6.109375 30.078125 6.109375 
Q 37.203125 6.109375 41.296875 11.75 
Q 45.40625 17.390625 45.40625 27.296875 
Q 45.40625 37.203125 41.296875 42.84375 
Q 37.203125 48.484375 30.078125 48.484375 
Q 22.953125 48.484375 18.875 42.84375 
Q 14.796875 37.203125 14.796875 27.296875 
z
" id="DejaVuSans-100"/>
      <path d="M 8.5 21.578125 
L 8.5 54.6875 
L 17.484375 54.6875 
L 17.484375 21.921875 
Q 17.484375 14.15625 20.5 10.265625 
Q 23.53125 6.390625 29.59375 6.390625 
Q 36.859375 6.390625 41.078125 11.03125 
Q 45.3125 15.671875 45.3125 23.6875 
L 45.3125 54.6875 
L 54.296875 54.6875 
L 54.296875 0 
L 45.3125 0 
L 45.3125 8.40625 
Q 42.046875 3.421875 37.71875 1 
Q 33.40625 -1.421875 27.6875 -1.421875 
Q 18.265625 -1.421875 13.375 4.4375 
Q 8.5 10.296875 8.5 21.578125 
z
M 31.109375 56 
z
" id="DejaVuSans-117"/>
      <path d="M 9.421875 75.984375 
L 18.40625 75.984375 
L 18.40625 0 
L 9.421875 0 
z
" id="DejaVuSans-108"/>
     </defs>
     <g transform="translate(267.870625 67.238175)scale(0.12 -0.12)">
      <use xlink:href="#DejaVuSans-89"/>
      <use x="47.833984" xlink:href="#DejaVuSans-101"/>
      <use x="109.357422" xlink:href="#DejaVuSans-97"/>
      <use x="170.636719" xlink:href="#DejaVuSans-114"/>
      <use x="211.75" xlink:href="#DejaVuSans-115"/>
      <use x="263.849609" xlink:href="#DejaVuSans-32"/>
      <use x="295.636719" xlink:href="#DejaVuSans-111"/>
      <use x="356.818359" xlink:href="#DejaVuSans-102"/>
      <use x="392.023438" xlink:href="#DejaVuSans-32"/>
      <use x="423.810547" xlink:href="#DejaVuSans-76"/>
      <use x="479.523438" xlink:href="#DejaVuSans-105"/>
      <use x="507.306641" xlink:href="#DejaVuSans-102"/>
      <use x="542.511719" xlink:href="#DejaVuSans-101"/>
      <use x="604.035156" xlink:href="#DejaVuSans-32"/>
      <use x="635.822266" xlink:href="#DejaVuSans-76"/>
      <use x="689.785156" xlink:href="#DejaVuSans-111"/>
      <use x="750.966797" xlink:href="#DejaVuSans-115"/>
      <use x="803.066406" xlink:href="#DejaVuSans-116"/>
      <use x="842.275391" xlink:href="#DejaVuSans-32"/>
      <use x="874.0625" xlink:href="#DejaVuSans-80"/>
      <use x="930.740234" xlink:href="#DejaVuSans-101"/>
      <use x="992.263672" xlink:href="#DejaVuSans-114"/>
      <use x="1033.376953" xlink:href="#DejaVuSans-32"/>
      <use x="1065.164062" xlink:href="#DejaVuSans-73"/>
      <use x="1094.65625" xlink:href="#DejaVuSans-110"/>
      <use x="1158.035156" xlink:href="#DejaVuSans-100"/>
      <use x="1221.511719" xlink:href="#DejaVuSans-105"/>
      <use x="1249.294922" xlink:href="#DejaVuSans-118"/>
      <use x="1308.474609" xlink:href="#DejaVuSans-105"/>
      <use x="1336.257812" xlink:href="#DejaVuSans-100"/>
      <use x="1399.734375" xlink:href="#DejaVuSans-117"/>
      <use x="1463.113281" xlink:href="#DejaVuSans-97"/>
      <use x="1524.392578" xlink:href="#DejaVuSans-108"/>
      <use x="1552.175781" xlink:href="#DejaVuSans-32"/>
      <use x="1583.962891" xlink:href="#DejaVuSans-40"/>
      <use x="1622.976562" xlink:href="#DejaVuSans-89"/>
      <use x="1684.060547" xlink:href="#DejaVuSans-76"/>
      <use x="1739.773438" xlink:href="#DejaVuSans-76"/>
      <use x="1795.486328" xlink:href="#DejaVuSans-80"/>
      <use x="1855.789062" xlink:href="#DejaVuSans-73"/>
      <use x="1885.28125" xlink:href="#DejaVuSans-41"/>
     </g>
    </g>
    <g id="line2d_19">
     <path d="M 234.270625 80.651925 
L 258.270625 80.651925 
" style="fill:none;stroke:#000000;stroke-dasharray:5.55,2.4;stroke-dashoffset:0;stroke-width:1.5;"/>
    </g>
    <g id="line2d_20"/>
    <g id="text_22">
     <!-- AYLL regression -->
     <g transform="translate(267.870625 84.851925)scale(0.12 -0.12)">
      <use xlink:href="#DejaVuSans-65"/>
      <use x="60.658203" xlink:href="#DejaVuSans-89"/>
      <use x="121.742188" xlink:href="#DejaVuSans-76"/>
      <use x="177.455078" xlink:href="#DejaVuSans-76"/>
      <use x="233.167969" xlink:href="#DejaVuSans-32"/>
      <use x="264.955078" xlink:href="#DejaVuSans-114"/>
      <use x="303.818359" xlink:href="#DejaVuSans-101"/>
      <use x="365.341797" xlink:href="#DejaVuSans-103"/>
      <use x="428.818359" xlink:href="#DejaVuSans-114"/>
      <use x="467.681641" xlink:href="#DejaVuSans-101"/>
      <use x="529.205078" xlink:href="#DejaVuSans-115"/>
      <use x="581.304688" xlink:href="#DejaVuSans-115"/>
      <use x="633.404297" xlink:href="#DejaVuSans-105"/>
      <use x="661.1875" xlink:href="#DejaVuSans-111"/>
      <use x="722.369141" xlink:href="#DejaVuSans-110"/>
     </g>
    </g>
    <g id="line2d_21">
     <path d="M 234.270625 98.265675 
L 258.270625 98.265675 
" style="fill:none;stroke:#ff0000;stroke-dasharray:5.55,2.4;stroke-dashoffset:0;stroke-width:1.5;"/>
    </g>
    <g id="line2d_22"/>
    <g id="text_23">
     <!-- YLLPI regression -->
     <g transform="translate(267.870625 102.465675)scale(0.12 -0.12)">
      <use xlink:href="#DejaVuSans-89"/>
      <use x="61.083984" xlink:href="#DejaVuSans-76"/>
      <use x="116.796875" xlink:href="#DejaVuSans-76"/>
      <use x="172.509766" xlink:href="#DejaVuSans-80"/>
      <use x="232.8125" xlink:href="#DejaVuSans-73"/>
      <use x="262.304688" xlink:href="#DejaVuSans-32"/>
      <use x="294.091797" xlink:href="#DejaVuSans-114"/>
      <use x="332.955078" xlink:href="#DejaVuSans-101"/>
      <use x="394.478516" xlink:href="#DejaVuSans-103"/>
      <use x="457.955078" xlink:href="#DejaVuSans-114"/>
      <use x="496.818359" xlink:href="#DejaVuSans-101"/>
      <use x="558.341797" xlink:href="#DejaVuSans-115"/>
      <use x="610.441406" xlink:href="#DejaVuSans-115"/>
      <use x="662.541016" xlink:href="#DejaVuSans-105"/>
      <use x="690.324219" xlink:href="#DejaVuSans-111"/>
      <use x="751.505859" xlink:href="#DejaVuSans-110"/>
     </g>
    </g>
    <g id="patch_6">
     <path d="M 234.270625 120.079425 
L 258.270625 120.079425 
L 258.270625 111.679425 
L 234.270625 111.679425 
z
" style="fill:#0000ff;stroke:#0000ff;stroke-linejoin:miter;"/>
    </g>
    <g id="text_24">
     <!-- Bladder -->
     <defs>
      <path d="M 19.671875 34.8125 
L 19.671875 8.109375 
L 35.5 8.109375 
Q 43.453125 8.109375 47.28125 11.40625 
Q 51.125 14.703125 51.125 21.484375 
Q 51.125 28.328125 47.28125 31.5625 
Q 43.453125 34.8125 35.5 34.8125 
z
M 19.671875 64.796875 
L 19.671875 42.828125 
L 34.28125 42.828125 
Q 41.5 42.828125 45.03125 45.53125 
Q 48.578125 48.25 48.578125 53.8125 
Q 48.578125 59.328125 45.03125 62.0625 
Q 41.5 64.796875 34.28125 64.796875 
z
M 9.8125 72.90625 
L 35.015625 72.90625 
Q 46.296875 72.90625 52.390625 68.21875 
Q 58.5 63.53125 58.5 54.890625 
Q 58.5 48.1875 55.375 44.234375 
Q 52.25 40.28125 46.1875 39.3125 
Q 53.46875 37.75 57.5 32.78125 
Q 61.53125 27.828125 61.53125 20.40625 
Q 61.53125 10.640625 54.890625 5.3125 
Q 48.25 0 35.984375 0 
L 9.8125 0 
z
" id="DejaVuSans-66"/>
     </defs>
     <g transform="translate(267.870625 120.079425)scale(0.12 -0.12)">
      <use xlink:href="#DejaVuSans-66"/>
      <use x="68.603516" xlink:href="#DejaVuSans-108"/>
      <use x="96.386719" xlink:href="#DejaVuSans-97"/>
      <use x="157.666016" xlink:href="#DejaVuSans-100"/>
      <use x="221.142578" xlink:href="#DejaVuSans-100"/>
      <use x="284.619141" xlink:href="#DejaVuSans-101"/>
      <use x="346.142578" xlink:href="#DejaVuSans-114"/>
     </g>
    </g>
    <g id="patch_7">
     <path d="M 234.270625 137.693175 
L 258.270625 137.693175 
L 258.270625 129.293175 
L 234.270625 129.293175 
z
" style="fill:#008000;stroke:#008000;stroke-linejoin:miter;"/>
    </g>
    <g id="text_25">
     <!-- Brain, ONS -->
     <defs>
      <path d="M 11.71875 12.40625 
L 22.015625 12.40625 
L 22.015625 4 
L 14.015625 -11.625 
L 7.71875 -11.625 
L 11.71875 4 
z
" id="DejaVuSans-44"/>
      <path d="M 39.40625 66.21875 
Q 28.65625 66.21875 22.328125 58.203125 
Q 16.015625 50.203125 16.015625 36.375 
Q 16.015625 22.609375 22.328125 14.59375 
Q 28.65625 6.59375 39.40625 6.59375 
Q 50.140625 6.59375 56.421875 14.59375 
Q 62.703125 22.609375 62.703125 36.375 
Q 62.703125 50.203125 56.421875 58.203125 
Q 50.140625 66.21875 39.40625 66.21875 
z
M 39.40625 74.21875 
Q 54.734375 74.21875 63.90625 63.9375 
Q 73.09375 53.65625 73.09375 36.375 
Q 73.09375 19.140625 63.90625 8.859375 
Q 54.734375 -1.421875 39.40625 -1.421875 
Q 24.03125 -1.421875 14.8125 8.828125 
Q 5.609375 19.09375 5.609375 36.375 
Q 5.609375 53.65625 14.8125 63.9375 
Q 24.03125 74.21875 39.40625 74.21875 
z
" id="DejaVuSans-79"/>
      <path d="M 9.8125 72.90625 
L 23.09375 72.90625 
L 55.421875 11.921875 
L 55.421875 72.90625 
L 64.984375 72.90625 
L 64.984375 0 
L 51.703125 0 
L 19.390625 60.984375 
L 19.390625 0 
L 9.8125 0 
z
" id="DejaVuSans-78"/>
      <path d="M 53.515625 70.515625 
L 53.515625 60.890625 
Q 47.90625 63.578125 42.921875 64.890625 
Q 37.9375 66.21875 33.296875 66.21875 
Q 25.25 66.21875 20.875 63.09375 
Q 16.5 59.96875 16.5 54.203125 
Q 16.5 49.359375 19.40625 46.890625 
Q 22.3125 44.4375 30.421875 42.921875 
L 36.375 41.703125 
Q 47.40625 39.59375 52.65625 34.296875 
Q 57.90625 29 57.90625 20.125 
Q 57.90625 9.515625 50.796875 4.046875 
Q 43.703125 -1.421875 29.984375 -1.421875 
Q 24.8125 -1.421875 18.96875 -0.25 
Q 13.140625 0.921875 6.890625 3.21875 
L 6.890625 13.375 
Q 12.890625 10.015625 18.65625 8.296875 
Q 24.421875 6.59375 29.984375 6.59375 
Q 38.421875 6.59375 43.015625 9.90625 
Q 47.609375 13.234375 47.609375 19.390625 
Q 47.609375 24.75 44.3125 27.78125 
Q 41.015625 30.8125 33.5 32.328125 
L 27.484375 33.5 
Q 16.453125 35.6875 11.515625 40.375 
Q 6.59375 45.0625 6.59375 53.421875 
Q 6.59375 63.09375 13.40625 68.65625 
Q 20.21875 74.21875 32.171875 74.21875 
Q 37.3125 74.21875 42.625 73.28125 
Q 47.953125 72.359375 53.515625 70.515625 
z
" id="DejaVuSans-83"/>
     </defs>
     <g transform="translate(267.870625 137.693175)scale(0.12 -0.12)">
      <use xlink:href="#DejaVuSans-66"/>
      <use x="68.603516" xlink:href="#DejaVuSans-114"/>
      <use x="109.716797" xlink:href="#DejaVuSans-97"/>
      <use x="170.996094" xlink:href="#DejaVuSans-105"/>
      <use x="198.779297" xlink:href="#DejaVuSans-110"/>
      <use x="262.158203" xlink:href="#DejaVuSans-44"/>
      <use x="293.945312" xlink:href="#DejaVuSans-32"/>
      <use x="325.732422" xlink:href="#DejaVuSans-79"/>
      <use x="404.443359" xlink:href="#DejaVuSans-78"/>
      <use x="479.248047" xlink:href="#DejaVuSans-83"/>
     </g>
    </g>
    <g id="patch_8">
     <path d="M 234.270625 155.306925 
L 258.270625 155.306925 
L 258.270625 146.906925 
L 234.270625 146.906925 
z
" style="fill:#ff0000;stroke:#ff0000;stroke-linejoin:miter;"/>
    </g>
    <g id="text_26">
     <!-- Breast -->
     <g transform="translate(267.870625 155.306925)scale(0.12 -0.12)">
      <use xlink:href="#DejaVuSans-66"/>
      <use x="68.603516" xlink:href="#DejaVuSans-114"/>
      <use x="107.466797" xlink:href="#DejaVuSans-101"/>
      <use x="168.990234" xlink:href="#DejaVuSans-97"/>
      <use x="230.269531" xlink:href="#DejaVuSans-115"/>
      <use x="282.369141" xlink:href="#DejaVuSans-116"/>
     </g>
    </g>
    <g id="patch_9">
     <path d="M 234.270625 172.920675 
L 258.270625 172.920675 
L 258.270625 164.520675 
L 234.270625 164.520675 
z
" style="fill:#bf00bf;stroke:#bf00bf;stroke-linejoin:miter;"/>
    </g>
    <g id="text_27">
     <!-- Cervix -->
     <defs>
      <path d="M 64.40625 67.28125 
L 64.40625 56.890625 
Q 59.421875 61.53125 53.78125 63.8125 
Q 48.140625 66.109375 41.796875 66.109375 
Q 29.296875 66.109375 22.65625 58.46875 
Q 16.015625 50.828125 16.015625 36.375 
Q 16.015625 21.96875 22.65625 14.328125 
Q 29.296875 6.6875 41.796875 6.6875 
Q 48.140625 6.6875 53.78125 8.984375 
Q 59.421875 11.28125 64.40625 15.921875 
L 64.40625 5.609375 
Q 59.234375 2.09375 53.4375 0.328125 
Q 47.65625 -1.421875 41.21875 -1.421875 
Q 24.65625 -1.421875 15.125 8.703125 
Q 5.609375 18.84375 5.609375 36.375 
Q 5.609375 53.953125 15.125 64.078125 
Q 24.65625 74.21875 41.21875 74.21875 
Q 47.75 74.21875 53.53125 72.484375 
Q 59.328125 70.75 64.40625 67.28125 
z
" id="DejaVuSans-67"/>
      <path d="M 54.890625 54.6875 
L 35.109375 28.078125 
L 55.90625 0 
L 45.3125 0 
L 29.390625 21.484375 
L 13.484375 0 
L 2.875 0 
L 24.125 28.609375 
L 4.6875 54.6875 
L 15.28125 54.6875 
L 29.78125 35.203125 
L 44.28125 54.6875 
z
" id="DejaVuSans-120"/>
     </defs>
     <g transform="translate(267.870625 172.920675)scale(0.12 -0.12)">
      <use xlink:href="#DejaVuSans-67"/>
      <use x="69.824219" xlink:href="#DejaVuSans-101"/>
      <use x="131.347656" xlink:href="#DejaVuSans-114"/>
      <use x="172.460938" xlink:href="#DejaVuSans-118"/>
      <use x="231.640625" xlink:href="#DejaVuSans-105"/>
      <use x="259.423828" xlink:href="#DejaVuSans-120"/>
     </g>
    </g>
    <g id="patch_10">
     <path d="M 234.270625 190.534425 
L 258.270625 190.534425 
L 258.270625 182.134425 
L 234.270625 182.134425 
z
" style="fill:#bfbf00;stroke:#bfbf00;stroke-linejoin:miter;"/>
    </g>
    <g id="text_28">
     <!-- Colon/rectum -->
     <defs>
      <path d="M 25.390625 72.90625 
L 33.6875 72.90625 
L 8.296875 -9.28125 
L 0 -9.28125 
z
" id="DejaVuSans-47"/>
      <path d="M 48.78125 52.59375 
L 48.78125 44.1875 
Q 44.96875 46.296875 41.140625 47.34375 
Q 37.3125 48.390625 33.40625 48.390625 
Q 24.65625 48.390625 19.8125 42.84375 
Q 14.984375 37.3125 14.984375 27.296875 
Q 14.984375 17.28125 19.8125 11.734375 
Q 24.65625 6.203125 33.40625 6.203125 
Q 37.3125 6.203125 41.140625 7.25 
Q 44.96875 8.296875 48.78125 10.40625 
L 48.78125 2.09375 
Q 45.015625 0.34375 40.984375 -0.53125 
Q 36.96875 -1.421875 32.421875 -1.421875 
Q 20.0625 -1.421875 12.78125 6.34375 
Q 5.515625 14.109375 5.515625 27.296875 
Q 5.515625 40.671875 12.859375 48.328125 
Q 20.21875 56 33.015625 56 
Q 37.15625 56 41.109375 55.140625 
Q 45.0625 54.296875 48.78125 52.59375 
z
" id="DejaVuSans-99"/>
      <path d="M 52 44.1875 
Q 55.375 50.25 60.0625 53.125 
Q 64.75 56 71.09375 56 
Q 79.640625 56 84.28125 50.015625 
Q 88.921875 44.046875 88.921875 33.015625 
L 88.921875 0 
L 79.890625 0 
L 79.890625 32.71875 
Q 79.890625 40.578125 77.09375 44.375 
Q 74.3125 48.1875 68.609375 48.1875 
Q 61.625 48.1875 57.5625 43.546875 
Q 53.515625 38.921875 53.515625 30.90625 
L 53.515625 0 
L 44.484375 0 
L 44.484375 32.71875 
Q 44.484375 40.625 41.703125 44.40625 
Q 38.921875 48.1875 33.109375 48.1875 
Q 26.21875 48.1875 22.15625 43.53125 
Q 18.109375 38.875 18.109375 30.90625 
L 18.109375 0 
L 9.078125 0 
L 9.078125 54.6875 
L 18.109375 54.6875 
L 18.109375 46.1875 
Q 21.1875 51.21875 25.484375 53.609375 
Q 29.78125 56 35.6875 56 
Q 41.65625 56 45.828125 52.96875 
Q 50 49.953125 52 44.1875 
z
" id="DejaVuSans-109"/>
     </defs>
     <g transform="translate(267.870625 190.534425)scale(0.12 -0.12)">
      <use xlink:href="#DejaVuSans-67"/>
      <use x="69.824219" xlink:href="#DejaVuSans-111"/>
      <use x="131.005859" xlink:href="#DejaVuSans-108"/>
      <use x="158.789062" xlink:href="#DejaVuSans-111"/>
      <use x="219.970703" xlink:href="#DejaVuSans-110"/>
      <use x="283.349609" xlink:href="#DejaVuSans-47"/>
      <use x="317.041016" xlink:href="#DejaVuSans-114"/>
      <use x="355.904297" xlink:href="#DejaVuSans-101"/>
      <use x="417.427734" xlink:href="#DejaVuSans-99"/>
      <use x="472.408203" xlink:href="#DejaVuSans-116"/>
      <use x="511.617188" xlink:href="#DejaVuSans-117"/>
      <use x="574.996094" xlink:href="#DejaVuSans-109"/>
     </g>
    </g>
    <g id="patch_11">
     <path d="M 522.78625 49.624425 
L 546.78625 49.624425 
L 546.78625 41.224425 
L 522.78625 41.224425 
z
" style="fill:#00bfbf;stroke:#00bfbf;stroke-linejoin:miter;"/>
    </g>
    <g id="text_29">
     <!-- Esophogus -->
     <defs>
      <path d="M 9.8125 72.90625 
L 55.90625 72.90625 
L 55.90625 64.59375 
L 19.671875 64.59375 
L 19.671875 43.015625 
L 54.390625 43.015625 
L 54.390625 34.71875 
L 19.671875 34.71875 
L 19.671875 8.296875 
L 56.78125 8.296875 
L 56.78125 0 
L 9.8125 0 
z
" id="DejaVuSans-69"/>
      <path d="M 18.109375 8.203125 
L 18.109375 -20.796875 
L 9.078125 -20.796875 
L 9.078125 54.6875 
L 18.109375 54.6875 
L 18.109375 46.390625 
Q 20.953125 51.265625 25.265625 53.625 
Q 29.59375 56 35.59375 56 
Q 45.5625 56 51.78125 48.09375 
Q 58.015625 40.1875 58.015625 27.296875 
Q 58.015625 14.40625 51.78125 6.484375 
Q 45.5625 -1.421875 35.59375 -1.421875 
Q 29.59375 -1.421875 25.265625 0.953125 
Q 20.953125 3.328125 18.109375 8.203125 
z
M 48.6875 27.296875 
Q 48.6875 37.203125 44.609375 42.84375 
Q 40.53125 48.484375 33.40625 48.484375 
Q 26.265625 48.484375 22.1875 42.84375 
Q 18.109375 37.203125 18.109375 27.296875 
Q 18.109375 17.390625 22.1875 11.75 
Q 26.265625 6.109375 33.40625 6.109375 
Q 40.53125 6.109375 44.609375 11.75 
Q 48.6875 17.390625 48.6875 27.296875 
z
" id="DejaVuSans-112"/>
      <path d="M 54.890625 33.015625 
L 54.890625 0 
L 45.90625 0 
L 45.90625 32.71875 
Q 45.90625 40.484375 42.875 44.328125 
Q 39.84375 48.1875 33.796875 48.1875 
Q 26.515625 48.1875 22.3125 43.546875 
Q 18.109375 38.921875 18.109375 30.90625 
L 18.109375 0 
L 9.078125 0 
L 9.078125 75.984375 
L 18.109375 75.984375 
L 18.109375 46.1875 
Q 21.34375 51.125 25.703125 53.5625 
Q 30.078125 56 35.796875 56 
Q 45.21875 56 50.046875 50.171875 
Q 54.890625 44.34375 54.890625 33.015625 
z
" id="DejaVuSans-104"/>
     </defs>
     <g transform="translate(556.38625 49.624425)scale(0.12 -0.12)">
      <use xlink:href="#DejaVuSans-69"/>
      <use x="63.183594" xlink:href="#DejaVuSans-115"/>
      <use x="115.283203" xlink:href="#DejaVuSans-111"/>
      <use x="176.464844" xlink:href="#DejaVuSans-112"/>
      <use x="239.941406" xlink:href="#DejaVuSans-104"/>
      <use x="303.320312" xlink:href="#DejaVuSans-111"/>
      <use x="364.501953" xlink:href="#DejaVuSans-103"/>
      <use x="427.978516" xlink:href="#DejaVuSans-117"/>
      <use x="491.357422" xlink:href="#DejaVuSans-115"/>
     </g>
    </g>
    <g id="patch_12">
     <path d="M 522.78625 67.238175 
L 546.78625 67.238175 
L 546.78625 58.838175 
L 522.78625 58.838175 
z
" style="fill:#ff8c00;stroke:#ff8c00;stroke-linejoin:miter;"/>
    </g>
    <g id="text_30">
     <!-- Hogkin lymph. -->
     <defs>
      <path d="M 9.8125 72.90625 
L 19.671875 72.90625 
L 19.671875 43.015625 
L 55.515625 43.015625 
L 55.515625 72.90625 
L 65.375 72.90625 
L 65.375 0 
L 55.515625 0 
L 55.515625 34.71875 
L 19.671875 34.71875 
L 19.671875 0 
L 9.8125 0 
z
" id="DejaVuSans-72"/>
      <path d="M 9.078125 75.984375 
L 18.109375 75.984375 
L 18.109375 31.109375 
L 44.921875 54.6875 
L 56.390625 54.6875 
L 27.390625 29.109375 
L 57.625 0 
L 45.90625 0 
L 18.109375 26.703125 
L 18.109375 0 
L 9.078125 0 
z
" id="DejaVuSans-107"/>
      <path d="M 32.171875 -5.078125 
Q 28.375 -14.84375 24.75 -17.8125 
Q 21.140625 -20.796875 15.09375 -20.796875 
L 7.90625 -20.796875 
L 7.90625 -13.28125 
L 13.1875 -13.28125 
Q 16.890625 -13.28125 18.9375 -11.515625 
Q 21 -9.765625 23.484375 -3.21875 
L 25.09375 0.875 
L 2.984375 54.6875 
L 12.5 54.6875 
L 29.59375 11.921875 
L 46.6875 54.6875 
L 56.203125 54.6875 
z
" id="DejaVuSans-121"/>
      <path d="M 10.6875 12.40625 
L 21 12.40625 
L 21 0 
L 10.6875 0 
z
" id="DejaVuSans-46"/>
     </defs>
     <g transform="translate(556.38625 67.238175)scale(0.12 -0.12)">
      <use xlink:href="#DejaVuSans-72"/>
      <use x="75.195312" xlink:href="#DejaVuSans-111"/>
      <use x="136.376953" xlink:href="#DejaVuSans-103"/>
      <use x="199.853516" xlink:href="#DejaVuSans-107"/>
      <use x="257.763672" xlink:href="#DejaVuSans-105"/>
      <use x="285.546875" xlink:href="#DejaVuSans-110"/>
      <use x="348.925781" xlink:href="#DejaVuSans-32"/>
      <use x="380.712891" xlink:href="#DejaVuSans-108"/>
      <use x="408.496094" xlink:href="#DejaVuSans-121"/>
      <use x="467.675781" xlink:href="#DejaVuSans-109"/>
      <use x="565.087891" xlink:href="#DejaVuSans-112"/>
      <use x="628.564453" xlink:href="#DejaVuSans-104"/>
      <use x="691.943359" xlink:href="#DejaVuSans-46"/>
     </g>
    </g>
    <g id="patch_13">
     <path d="M 522.78625 84.851925 
L 546.78625 84.851925 
L 546.78625 76.451925 
L 522.78625 76.451925 
z
" style="stroke:#000000;stroke-linejoin:miter;"/>
    </g>
    <g id="text_31">
     <!-- Kidney -->
     <defs>
      <path d="M 9.8125 72.90625 
L 19.671875 72.90625 
L 19.671875 42.09375 
L 52.390625 72.90625 
L 65.09375 72.90625 
L 28.90625 38.921875 
L 67.671875 0 
L 54.6875 0 
L 19.671875 35.109375 
L 19.671875 0 
L 9.8125 0 
z
" id="DejaVuSans-75"/>
     </defs>
     <g transform="translate(556.38625 84.851925)scale(0.12 -0.12)">
      <use xlink:href="#DejaVuSans-75"/>
      <use x="65.576172" xlink:href="#DejaVuSans-105"/>
      <use x="93.359375" xlink:href="#DejaVuSans-100"/>
      <use x="156.835938" xlink:href="#DejaVuSans-110"/>
      <use x="220.214844" xlink:href="#DejaVuSans-101"/>
      <use x="281.738281" xlink:href="#DejaVuSans-121"/>
     </g>
    </g>
    <g id="patch_14">
     <path d="M 522.78625 102.465675 
L 546.78625 102.465675 
L 546.78625 94.065675 
L 522.78625 94.065675 
z
" style="fill:#b22222;stroke:#b22222;stroke-linejoin:miter;"/>
    </g>
    <g id="text_32">
     <!-- Leukemia -->
     <g transform="translate(556.38625 102.465675)scale(0.12 -0.12)">
      <use xlink:href="#DejaVuSans-76"/>
      <use x="53.962891" xlink:href="#DejaVuSans-101"/>
      <use x="115.486328" xlink:href="#DejaVuSans-117"/>
      <use x="178.865234" xlink:href="#DejaVuSans-107"/>
      <use x="233.150391" xlink:href="#DejaVuSans-101"/>
      <use x="294.673828" xlink:href="#DejaVuSans-109"/>
      <use x="392.085938" xlink:href="#DejaVuSans-105"/>
      <use x="419.869141" xlink:href="#DejaVuSans-97"/>
     </g>
    </g>
    <g id="patch_15">
     <path d="M 522.78625 120.079425 
L 546.78625 120.079425 
L 546.78625 111.679425 
L 522.78625 111.679425 
z
" style="fill:#ffc0cb;stroke:#ffc0cb;stroke-linejoin:miter;"/>
    </g>
    <g id="text_33">
     <!-- Liver -->
     <g transform="translate(556.38625 120.079425)scale(0.12 -0.12)">
      <use xlink:href="#DejaVuSans-76"/>
      <use x="55.712891" xlink:href="#DejaVuSans-105"/>
      <use x="83.496094" xlink:href="#DejaVuSans-118"/>
      <use x="142.675781" xlink:href="#DejaVuSans-101"/>
      <use x="204.199219" xlink:href="#DejaVuSans-114"/>
     </g>
    </g>
    <g id="patch_16">
     <path d="M 522.78625 137.693175 
L 546.78625 137.693175 
L 546.78625 129.293175 
L 522.78625 129.293175 
z
" style="fill:#808080;stroke:#808080;stroke-linejoin:miter;"/>
    </g>
    <g id="text_34">
     <!-- Lung -->
     <g transform="translate(556.38625 137.693175)scale(0.12 -0.12)">
      <use xlink:href="#DejaVuSans-76"/>
      <use x="53.962891" xlink:href="#DejaVuSans-117"/>
      <use x="117.341797" xlink:href="#DejaVuSans-110"/>
      <use x="180.720703" xlink:href="#DejaVuSans-103"/>
     </g>
    </g>
    <g id="patch_17">
     <path d="M 522.78625 155.306925 
L 546.78625 155.306925 
L 546.78625 146.906925 
L 522.78625 146.906925 
z
" style="fill:#f08080;stroke:#f08080;stroke-linejoin:miter;"/>
    </g>
    <g id="text_35">
     <!-- Myeloma -->
     <defs>
      <path d="M 9.8125 72.90625 
L 24.515625 72.90625 
L 43.109375 23.296875 
L 61.8125 72.90625 
L 76.515625 72.90625 
L 76.515625 0 
L 66.890625 0 
L 66.890625 64.015625 
L 48.09375 14.015625 
L 38.1875 14.015625 
L 19.390625 64.015625 
L 19.390625 0 
L 9.8125 0 
z
" id="DejaVuSans-77"/>
     </defs>
     <g transform="translate(556.38625 155.306925)scale(0.12 -0.12)">
      <use xlink:href="#DejaVuSans-77"/>
      <use x="86.279297" xlink:href="#DejaVuSans-121"/>
      <use x="145.458984" xlink:href="#DejaVuSans-101"/>
      <use x="206.982422" xlink:href="#DejaVuSans-108"/>
      <use x="234.765625" xlink:href="#DejaVuSans-111"/>
      <use x="295.947266" xlink:href="#DejaVuSans-109"/>
      <use x="393.359375" xlink:href="#DejaVuSans-97"/>
     </g>
    </g>
    <g id="patch_18">
     <path d="M 522.78625 172.920675 
L 546.78625 172.920675 
L 546.78625 164.520675 
L 522.78625 164.520675 
z
" style="fill:#808000;stroke:#808000;stroke-linejoin:miter;"/>
    </g>
    <g id="text_36">
     <!-- NH Lymphoma -->
     <g transform="translate(556.38625 172.920675)scale(0.12 -0.12)">
      <use xlink:href="#DejaVuSans-78"/>
      <use x="74.804688" xlink:href="#DejaVuSans-72"/>
      <use x="150" xlink:href="#DejaVuSans-32"/>
      <use x="181.787109" xlink:href="#DejaVuSans-76"/>
      <use x="228.375" xlink:href="#DejaVuSans-121"/>
      <use x="287.554688" xlink:href="#DejaVuSans-109"/>
      <use x="384.966797" xlink:href="#DejaVuSans-112"/>
      <use x="448.443359" xlink:href="#DejaVuSans-104"/>
      <use x="511.822266" xlink:href="#DejaVuSans-111"/>
      <use x="573.003906" xlink:href="#DejaVuSans-109"/>
      <use x="670.416016" xlink:href="#DejaVuSans-97"/>
     </g>
    </g>
    <g id="patch_19">
     <path d="M 668.1925 49.624425 
L 692.1925 49.624425 
L 692.1925 41.224425 
L 668.1925 41.224425 
z
" style="fill:#7fffd4;stroke:#7fffd4;stroke-linejoin:miter;"/>
    </g>
    <g id="text_37">
     <!-- Oral,pharnyx -->
     <g transform="translate(701.7925 49.624425)scale(0.12 -0.12)">
      <use xlink:href="#DejaVuSans-79"/>
      <use x="78.710938" xlink:href="#DejaVuSans-114"/>
      <use x="119.824219" xlink:href="#DejaVuSans-97"/>
      <use x="181.103516" xlink:href="#DejaVuSans-108"/>
      <use x="208.886719" xlink:href="#DejaVuSans-44"/>
      <use x="240.673828" xlink:href="#DejaVuSans-112"/>
      <use x="304.150391" xlink:href="#DejaVuSans-104"/>
      <use x="367.529297" xlink:href="#DejaVuSans-97"/>
      <use x="428.808594" xlink:href="#DejaVuSans-114"/>
      <use x="468.171875" xlink:href="#DejaVuSans-110"/>
      <use x="531.550781" xlink:href="#DejaVuSans-121"/>
      <use x="590.730469" xlink:href="#DejaVuSans-120"/>
     </g>
    </g>
    <g id="patch_20">
     <path d="M 668.1925 67.238175 
L 692.1925 67.238175 
L 692.1925 58.838175 
L 668.1925 58.838175 
z
" style="fill:#000080;stroke:#000080;stroke-linejoin:miter;"/>
    </g>
    <g id="text_38">
     <!-- Ovary -->
     <g transform="translate(701.7925 67.238175)scale(0.12 -0.12)">
      <use xlink:href="#DejaVuSans-79"/>
      <use x="78.710938" xlink:href="#DejaVuSans-118"/>
      <use x="137.890625" xlink:href="#DejaVuSans-97"/>
      <use x="199.169922" xlink:href="#DejaVuSans-114"/>
      <use x="240.283203" xlink:href="#DejaVuSans-121"/>
     </g>
    </g>
    <g id="patch_21">
     <path d="M 668.1925 84.851925 
L 692.1925 84.851925 
L 692.1925 76.451925 
L 668.1925 76.451925 
z
" style="fill:#dda0dd;stroke:#dda0dd;stroke-linejoin:miter;"/>
    </g>
    <g id="text_39">
     <!-- Pancreas -->
     <g transform="translate(701.7925 84.851925)scale(0.12 -0.12)">
      <use xlink:href="#DejaVuSans-80"/>
      <use x="55.802734" xlink:href="#DejaVuSans-97"/>
      <use x="117.082031" xlink:href="#DejaVuSans-110"/>
      <use x="180.460938" xlink:href="#DejaVuSans-99"/>
      <use x="235.441406" xlink:href="#DejaVuSans-114"/>
      <use x="274.304688" xlink:href="#DejaVuSans-101"/>
      <use x="335.828125" xlink:href="#DejaVuSans-97"/>
      <use x="397.107422" xlink:href="#DejaVuSans-115"/>
     </g>
    </g>
    <g id="patch_22">
     <path d="M 668.1925 102.465675 
L 692.1925 102.465675 
L 692.1925 94.065675 
L 668.1925 94.065675 
z
" style="fill:#1e90ff;stroke:#1e90ff;stroke-linejoin:miter;"/>
    </g>
    <g id="text_40">
     <!-- Prostate -->
     <g transform="translate(701.7925 102.465675)scale(0.12 -0.12)">
      <use xlink:href="#DejaVuSans-80"/>
      <use x="58.552734" xlink:href="#DejaVuSans-114"/>
      <use x="97.416016" xlink:href="#DejaVuSans-111"/>
      <use x="158.597656" xlink:href="#DejaVuSans-115"/>
      <use x="210.697266" xlink:href="#DejaVuSans-116"/>
      <use x="249.90625" xlink:href="#DejaVuSans-97"/>
      <use x="311.185547" xlink:href="#DejaVuSans-116"/>
      <use x="350.394531" xlink:href="#DejaVuSans-101"/>
     </g>
    </g>
    <g id="patch_23">
     <path d="M 668.1925 120.079425 
L 692.1925 120.079425 
L 692.1925 111.679425 
L 668.1925 111.679425 
z
" style="fill:#8b0000;stroke:#8b0000;stroke-linejoin:miter;"/>
    </g>
    <g id="text_41">
     <!-- Melanoma (skin) -->
     <g transform="translate(701.7925 120.079425)scale(0.12 -0.12)">
      <use xlink:href="#DejaVuSans-77"/>
      <use x="86.279297" xlink:href="#DejaVuSans-101"/>
      <use x="147.802734" xlink:href="#DejaVuSans-108"/>
      <use x="175.585938" xlink:href="#DejaVuSans-97"/>
      <use x="236.865234" xlink:href="#DejaVuSans-110"/>
      <use x="300.244141" xlink:href="#DejaVuSans-111"/>
      <use x="361.425781" xlink:href="#DejaVuSans-109"/>
      <use x="458.837891" xlink:href="#DejaVuSans-97"/>
      <use x="520.117188" xlink:href="#DejaVuSans-32"/>
      <use x="551.904297" xlink:href="#DejaVuSans-40"/>
      <use x="590.917969" xlink:href="#DejaVuSans-115"/>
      <use x="643.017578" xlink:href="#DejaVuSans-107"/>
      <use x="700.927734" xlink:href="#DejaVuSans-105"/>
      <use x="728.710938" xlink:href="#DejaVuSans-110"/>
      <use x="792.089844" xlink:href="#DejaVuSans-41"/>
     </g>
    </g>
    <g id="patch_24">
     <path d="M 668.1925 137.693175 
L 692.1925 137.693175 
L 692.1925 129.293175 
L 668.1925 129.293175 
z
" style="fill:#b8860b;stroke:#b8860b;stroke-linejoin:miter;"/>
    </g>
    <g id="text_42">
     <!-- Stomach -->
     <g transform="translate(701.7925 137.693175)scale(0.12 -0.12)">
      <use xlink:href="#DejaVuSans-83"/>
      <use x="63.476562" xlink:href="#DejaVuSans-116"/>
      <use x="102.685547" xlink:href="#DejaVuSans-111"/>
      <use x="163.867188" xlink:href="#DejaVuSans-109"/>
      <use x="261.279297" xlink:href="#DejaVuSans-97"/>
      <use x="322.558594" xlink:href="#DejaVuSans-99"/>
      <use x="377.539062" xlink:href="#DejaVuSans-104"/>
     </g>
    </g>
    <g id="patch_25">
     <path d="M 668.1925 155.306925 
L 692.1925 155.306925 
L 692.1925 146.906925 
L 668.1925 146.906925 
z
" style="fill:#9370db;stroke:#9370db;stroke-linejoin:miter;"/>
    </g>
    <g id="text_43">
     <!-- Testes -->
     <defs>
      <path d="M -0.296875 72.90625 
L 61.375 72.90625 
L 61.375 64.59375 
L 35.5 64.59375 
L 35.5 0 
L 25.59375 0 
L 25.59375 64.59375 
L -0.296875 64.59375 
z
" id="DejaVuSans-84"/>
     </defs>
     <g transform="translate(701.7925 155.306925)scale(0.12 -0.12)">
      <use xlink:href="#DejaVuSans-84"/>
      <use x="44.083984" xlink:href="#DejaVuSans-101"/>
      <use x="105.607422" xlink:href="#DejaVuSans-115"/>
      <use x="157.707031" xlink:href="#DejaVuSans-116"/>
      <use x="196.916016" xlink:href="#DejaVuSans-101"/>
      <use x="258.439453" xlink:href="#DejaVuSans-115"/>
     </g>
    </g>
    <g id="patch_26">
     <path d="M 668.1925 172.920675 
L 692.1925 172.920675 
L 692.1925 164.520675 
L 668.1925 164.520675 
z
" style="fill:#4169e1;stroke:#4169e1;stroke-linejoin:miter;"/>
    </g>
    <g id="text_44">
     <!-- Uterus -->
     <defs>
      <path d="M 8.6875 72.90625 
L 18.609375 72.90625 
L 18.609375 28.609375 
Q 18.609375 16.890625 22.84375 11.734375 
Q 27.09375 6.59375 36.625 6.59375 
Q 46.09375 6.59375 50.34375 11.734375 
Q 54.59375 16.890625 54.59375 28.609375 
L 54.59375 72.90625 
L 64.5 72.90625 
L 64.5 27.390625 
Q 64.5 13.140625 57.4375 5.859375 
Q 50.390625 -1.421875 36.625 -1.421875 
Q 22.796875 -1.421875 15.734375 5.859375 
Q 8.6875 13.140625 8.6875 27.390625 
z
" id="DejaVuSans-85"/>
     </defs>
     <g transform="translate(701.7925 172.920675)scale(0.12 -0.12)">
      <use xlink:href="#DejaVuSans-85"/>
      <use x="73.193359" xlink:href="#DejaVuSans-116"/>
      <use x="112.402344" xlink:href="#DejaVuSans-101"/>
      <use x="173.925781" xlink:href="#DejaVuSans-114"/>
      <use x="215.039062" xlink:href="#DejaVuSans-117"/>
      <use x="278.417969" xlink:href="#DejaVuSans-115"/>
     </g>
    </g>
   </g>
  </g>
 </g>
 <defs>
  <clipPath id="pf8911bde82">
   <rect height="434.88" width="446.4" x="53.44375" y="25.3575"/>
  </clipPath>
 </defs>
</svg>
