<?xml version="1.0" encoding="utf-8" standalone="no"?>
<!DOCTYPE svg PUBLIC "-//W3C//DTD SVG 1.1//EN"
  "http://www.w3.org/Graphics/SVG/1.1/DTD/svg11.dtd">
<!-- Created with matplotlib (https://matplotlib.org/) -->
<svg height="854.729687pt" version="1.1" viewBox="0 0 472.169844 854.729687" width="472.169844pt" xmlns="http://www.w3.org/2000/svg" xmlns:xlink="http://www.w3.org/1999/xlink">
 <defs>
  <style type="text/css">
*{stroke-linecap:butt;stroke-linejoin:round;}
  </style>
 </defs>
 <g id="figure_1">
  <g id="patch_1">
   <path d="M -0 854.729687 
L 472.169844 854.729687 
L 472.169844 0 
L -0 0 
z
" style="fill:#ffffff;"/>
  </g>
  <g id="axes_1">
   <g id="patch_2">
    <path d="M 43.583281 246.437812 
L 330.658281 246.437812 
L 330.658281 23.837812 
L 43.583281 23.837812 
z
" style="fill:#ffffff;"/>
   </g>
   <g id="PathCollection_1">
    <defs>
     <path d="M 0 3 
C 0.795609 3 1.55874 2.683901 2.12132 2.12132 
C 2.683901 1.55874 3 0.795609 3 0 
C 3 -0.795609 2.683901 -1.55874 2.12132 -2.12132 
C 1.55874 -2.683901 0.795609 -3 0 -3 
C -0.795609 -3 -1.55874 -2.683901 -2.12132 -2.12132 
C -2.683901 -1.55874 -3 -0.795609 -3 0 
C -3 0.795609 -2.683901 1.55874 -2.12132 2.12132 
C -1.55874 2.683901 -0.795609 3 0 3 
z
" id="mf6b6f21041" style="stroke:#1f77b4;"/>
    </defs>
    <g clip-path="url(#p290371fc38)">
     <use style="fill:#1f77b4;stroke:#1f77b4;" x="284.178445" xlink:href="#mf6b6f21041" y="195.669665"/>
     <use style="fill:#1f77b4;stroke:#1f77b4;" x="68.494748" xlink:href="#mf6b6f21041" y="195.820172"/>
     <use style="fill:#1f77b4;stroke:#1f77b4;" x="161.957683" xlink:href="#mf6b6f21041" y="49.776013"/>
     <use style="fill:#1f77b4;stroke:#1f77b4;" x="205.094423" xlink:href="#mf6b6f21041" y="236.319631"/>
     <use style="fill:#1f77b4;stroke:#1f77b4;" x="140.389314" xlink:href="#mf6b6f21041" y="235.623384"/>
     <use style="fill:#1f77b4;stroke:#1f77b4;" x="255.420618" xlink:href="#mf6b6f21041" y="115.103359"/>
     <use style="fill:#1f77b4;stroke:#1f77b4;" x="212.283879" xlink:href="#mf6b6f21041" y="138.92867"/>
     <use style="fill:#1f77b4;stroke:#1f77b4;" x="248.231162" xlink:href="#mf6b6f21041" y="174.77144"/>
     <use style="fill:#1f77b4;stroke:#1f77b4;" x="197.904966" xlink:href="#mf6b6f21041" y="187.563809"/>
     <use style="fill:#1f77b4;stroke:#1f77b4;" x="190.71551" xlink:href="#mf6b6f21041" y="141.518707"/>
     <use style="fill:#1f77b4;stroke:#1f77b4;" x="197.904966" xlink:href="#mf6b6f21041" y="146.104346"/>
     <use style="fill:#1f77b4;stroke:#1f77b4;" x="284.178445" xlink:href="#mf6b6f21041" y="145.967132"/>
     <use style="fill:#1f77b4;stroke:#1f77b4;" x="169.14714" xlink:href="#mf6b6f21041" y="235.892295"/>
     <use style="fill:#1f77b4;stroke:#1f77b4;" x="190.71551" xlink:href="#mf6b6f21041" y="161.529404"/>
     <use style="fill:#1f77b4;stroke:#1f77b4;" x="255.420618" xlink:href="#mf6b6f21041" y="124.113658"/>
     <use style="fill:#1f77b4;stroke:#1f77b4;" x="305.746814" xlink:href="#mf6b6f21041" y="165.779813"/>
     <use style="fill:#1f77b4;stroke:#1f77b4;" x="269.799532" xlink:href="#mf6b6f21041" y="183.534863"/>
     <use style="fill:#1f77b4;stroke:#1f77b4;" x="97.252574" xlink:href="#mf6b6f21041" y="132.625064"/>
     <use style="fill:#1f77b4;stroke:#1f77b4;" x="190.71551" xlink:href="#mf6b6f21041" y="176.239203"/>
     <use style="fill:#1f77b4;stroke:#1f77b4;" x="248.231162" xlink:href="#mf6b6f21041" y="146.573658"/>
     <use style="fill:#1f77b4;stroke:#1f77b4;" x="269.799532" xlink:href="#mf6b6f21041" y="33.955994"/>
     <use style="fill:#1f77b4;stroke:#1f77b4;" x="248.231162" xlink:href="#mf6b6f21041" y="114.69243"/>
     <use style="fill:#1f77b4;stroke:#1f77b4;" x="291.367901" xlink:href="#mf6b6f21041" y="134.036378"/>
     <use style="fill:#1f77b4;stroke:#1f77b4;" x="255.420618" xlink:href="#mf6b6f21041" y="234.88954"/>
     <use style="fill:#1f77b4;stroke:#1f77b4;" x="233.852249" xlink:href="#mf6b6f21041" y="114.634779"/>
     <use style="fill:#1f77b4;stroke:#1f77b4;" x="233.852249" xlink:href="#mf6b6f21041" y="224.489589"/>
     <use style="fill:#1f77b4;stroke:#1f77b4;" x="255.420618" xlink:href="#mf6b6f21041" y="166.908365"/>
     <use style="fill:#1f77b4;stroke:#1f77b4;" x="255.420618" xlink:href="#mf6b6f21041" y="127.705176"/>
     <use style="fill:#1f77b4;stroke:#1f77b4;" x="248.231162" xlink:href="#mf6b6f21041" y="134.862187"/>
     <use style="fill:#1f77b4;stroke:#1f77b4;" x="169.14714" xlink:href="#mf6b6f21041" y="38.62983"/>
    </g>
   </g>
   <g id="matplotlib.axis_1">
    <g id="xtick_1">
     <g id="line2d_1">
      <defs>
       <path d="M 0 0 
L 0 3.5 
" id="m26fa7c86f6" style="stroke:#000000;stroke-width:0.8;"/>
      </defs>
      <g>
       <use style="stroke:#000000;stroke-width:0.8;" x="46.926379" xlink:href="#m26fa7c86f6" y="246.437812"/>
      </g>
     </g>
     <g id="text_1">
      <!-- 56.0 -->
      <defs>
       <path d="M 10.796875 72.90625 
L 49.515625 72.90625 
L 49.515625 64.59375 
L 19.828125 64.59375 
L 19.828125 46.734375 
Q 21.96875 47.46875 24.109375 47.828125 
Q 26.265625 48.1875 28.421875 48.1875 
Q 40.625 48.1875 47.75 41.5 
Q 54.890625 34.8125 54.890625 23.390625 
Q 54.890625 11.625 47.5625 5.09375 
Q 40.234375 -1.421875 26.90625 -1.421875 
Q 22.3125 -1.421875 17.546875 -0.640625 
Q 12.796875 0.140625 7.71875 1.703125 
L 7.71875 11.625 
Q 12.109375 9.234375 16.796875 8.0625 
Q 21.484375 6.890625 26.703125 6.890625 
Q 35.15625 6.890625 40.078125 11.328125 
Q 45.015625 15.765625 45.015625 23.390625 
Q 45.015625 31 40.078125 35.4375 
Q 35.15625 39.890625 26.703125 39.890625 
Q 22.75 39.890625 18.8125 39.015625 
Q 14.890625 38.140625 10.796875 36.28125 
z
" id="DejaVuSans-53"/>
       <path d="M 33.015625 40.375 
Q 26.375 40.375 22.484375 35.828125 
Q 18.609375 31.296875 18.609375 23.390625 
Q 18.609375 15.53125 22.484375 10.953125 
Q 26.375 6.390625 33.015625 6.390625 
Q 39.65625 6.390625 43.53125 10.953125 
Q 47.40625 15.53125 47.40625 23.390625 
Q 47.40625 31.296875 43.53125 35.828125 
Q 39.65625 40.375 33.015625 40.375 
z
M 52.59375 71.296875 
L 52.59375 62.3125 
Q 48.875 64.0625 45.09375 64.984375 
Q 41.3125 65.921875 37.59375 65.921875 
Q 27.828125 65.921875 22.671875 59.328125 
Q 17.53125 52.734375 16.796875 39.40625 
Q 19.671875 43.65625 24.015625 45.921875 
Q 28.375 48.1875 33.59375 48.1875 
Q 44.578125 48.1875 50.953125 41.515625 
Q 57.328125 34.859375 57.328125 23.390625 
Q 57.328125 12.15625 50.6875 5.359375 
Q 44.046875 -1.421875 33.015625 -1.421875 
Q 20.359375 -1.421875 13.671875 8.265625 
Q 6.984375 17.96875 6.984375 36.375 
Q 6.984375 53.65625 15.1875 63.9375 
Q 23.390625 74.21875 37.203125 74.21875 
Q 40.921875 74.21875 44.703125 73.484375 
Q 48.484375 72.75 52.59375 71.296875 
z
" id="DejaVuSans-54"/>
       <path d="M 10.6875 12.40625 
L 21 12.40625 
L 21 0 
L 10.6875 0 
z
" id="DejaVuSans-46"/>
       <path d="M 31.78125 66.40625 
Q 24.171875 66.40625 20.328125 58.90625 
Q 16.5 51.421875 16.5 36.375 
Q 16.5 21.390625 20.328125 13.890625 
Q 24.171875 6.390625 31.78125 6.390625 
Q 39.453125 6.390625 43.28125 13.890625 
Q 47.125 21.390625 47.125 36.375 
Q 47.125 51.421875 43.28125 58.90625 
Q 39.453125 66.40625 31.78125 66.40625 
z
M 31.78125 74.21875 
Q 44.046875 74.21875 50.515625 64.515625 
Q 56.984375 54.828125 56.984375 36.375 
Q 56.984375 17.96875 50.515625 8.265625 
Q 44.046875 -1.421875 31.78125 -1.421875 
Q 19.53125 -1.421875 13.0625 8.265625 
Q 6.59375 17.96875 6.59375 36.375 
Q 6.59375 54.828125 13.0625 64.515625 
Q 19.53125 74.21875 31.78125 74.21875 
z
" id="DejaVuSans-48"/>
      </defs>
      <g transform="translate(35.793566 261.03625)scale(0.1 -0.1)">
       <use xlink:href="#DejaVuSans-53"/>
       <use x="63.623047" xlink:href="#DejaVuSans-54"/>
       <use x="127.246094" xlink:href="#DejaVuSans-46"/>
       <use x="159.033203" xlink:href="#DejaVuSans-48"/>
      </g>
     </g>
    </g>
    <g id="xtick_2">
     <g id="line2d_2">
      <g>
       <use style="stroke:#000000;stroke-width:0.8;" x="82.873661" xlink:href="#m26fa7c86f6" y="246.437812"/>
      </g>
     </g>
     <g id="text_2">
      <!-- 56.5 -->
      <g transform="translate(71.740849 261.03625)scale(0.1 -0.1)">
       <use xlink:href="#DejaVuSans-53"/>
       <use x="63.623047" xlink:href="#DejaVuSans-54"/>
       <use x="127.246094" xlink:href="#DejaVuSans-46"/>
       <use x="159.033203" xlink:href="#DejaVuSans-53"/>
      </g>
     </g>
    </g>
    <g id="xtick_3">
     <g id="line2d_3">
      <g>
       <use style="stroke:#000000;stroke-width:0.8;" x="118.820944" xlink:href="#m26fa7c86f6" y="246.437812"/>
      </g>
     </g>
     <g id="text_3">
      <!-- 57.0 -->
      <defs>
       <path d="M 8.203125 72.90625 
L 55.078125 72.90625 
L 55.078125 68.703125 
L 28.609375 0 
L 18.3125 0 
L 43.21875 64.59375 
L 8.203125 64.59375 
z
" id="DejaVuSans-55"/>
      </defs>
      <g transform="translate(107.688132 261.03625)scale(0.1 -0.1)">
       <use xlink:href="#DejaVuSans-53"/>
       <use x="63.623047" xlink:href="#DejaVuSans-55"/>
       <use x="127.246094" xlink:href="#DejaVuSans-46"/>
       <use x="159.033203" xlink:href="#DejaVuSans-48"/>
      </g>
     </g>
    </g>
    <g id="xtick_4">
     <g id="line2d_4">
      <g>
       <use style="stroke:#000000;stroke-width:0.8;" x="154.768227" xlink:href="#m26fa7c86f6" y="246.437812"/>
      </g>
     </g>
     <g id="text_4">
      <!-- 57.5 -->
      <g transform="translate(143.635414 261.03625)scale(0.1 -0.1)">
       <use xlink:href="#DejaVuSans-53"/>
       <use x="63.623047" xlink:href="#DejaVuSans-55"/>
       <use x="127.246094" xlink:href="#DejaVuSans-46"/>
       <use x="159.033203" xlink:href="#DejaVuSans-53"/>
      </g>
     </g>
    </g>
    <g id="xtick_5">
     <g id="line2d_5">
      <g>
       <use style="stroke:#000000;stroke-width:0.8;" x="190.71551" xlink:href="#m26fa7c86f6" y="246.437812"/>
      </g>
     </g>
     <g id="text_5">
      <!-- 58.0 -->
      <defs>
       <path d="M 31.78125 34.625 
Q 24.75 34.625 20.71875 30.859375 
Q 16.703125 27.09375 16.703125 20.515625 
Q 16.703125 13.921875 20.71875 10.15625 
Q 24.75 6.390625 31.78125 6.390625 
Q 38.8125 6.390625 42.859375 10.171875 
Q 46.921875 13.96875 46.921875 20.515625 
Q 46.921875 27.09375 42.890625 30.859375 
Q 38.875 34.625 31.78125 34.625 
z
M 21.921875 38.8125 
Q 15.578125 40.375 12.03125 44.71875 
Q 8.5 49.078125 8.5 55.328125 
Q 8.5 64.0625 14.71875 69.140625 
Q 20.953125 74.21875 31.78125 74.21875 
Q 42.671875 74.21875 48.875 69.140625 
Q 55.078125 64.0625 55.078125 55.328125 
Q 55.078125 49.078125 51.53125 44.71875 
Q 48 40.375 41.703125 38.8125 
Q 48.828125 37.15625 52.796875 32.3125 
Q 56.78125 27.484375 56.78125 20.515625 
Q 56.78125 9.90625 50.3125 4.234375 
Q 43.84375 -1.421875 31.78125 -1.421875 
Q 19.734375 -1.421875 13.25 4.234375 
Q 6.78125 9.90625 6.78125 20.515625 
Q 6.78125 27.484375 10.78125 32.3125 
Q 14.796875 37.15625 21.921875 38.8125 
z
M 18.3125 54.390625 
Q 18.3125 48.734375 21.84375 45.5625 
Q 25.390625 42.390625 31.78125 42.390625 
Q 38.140625 42.390625 41.71875 45.5625 
Q 45.3125 48.734375 45.3125 54.390625 
Q 45.3125 60.0625 41.71875 63.234375 
Q 38.140625 66.40625 31.78125 66.40625 
Q 25.390625 66.40625 21.84375 63.234375 
Q 18.3125 60.0625 18.3125 54.390625 
z
" id="DejaVuSans-56"/>
      </defs>
      <g transform="translate(179.582697 261.03625)scale(0.1 -0.1)">
       <use xlink:href="#DejaVuSans-53"/>
       <use x="63.623047" xlink:href="#DejaVuSans-56"/>
       <use x="127.246094" xlink:href="#DejaVuSans-46"/>
       <use x="159.033203" xlink:href="#DejaVuSans-48"/>
      </g>
     </g>
    </g>
    <g id="xtick_6">
     <g id="line2d_6">
      <g>
       <use style="stroke:#000000;stroke-width:0.8;" x="226.662792" xlink:href="#m26fa7c86f6" y="246.437812"/>
      </g>
     </g>
     <g id="text_6">
      <!-- 58.5 -->
      <g transform="translate(215.52998 261.03625)scale(0.1 -0.1)">
       <use xlink:href="#DejaVuSans-53"/>
       <use x="63.623047" xlink:href="#DejaVuSans-56"/>
       <use x="127.246094" xlink:href="#DejaVuSans-46"/>
       <use x="159.033203" xlink:href="#DejaVuSans-53"/>
      </g>
     </g>
    </g>
    <g id="xtick_7">
     <g id="line2d_7">
      <g>
       <use style="stroke:#000000;stroke-width:0.8;" x="262.610075" xlink:href="#m26fa7c86f6" y="246.437812"/>
      </g>
     </g>
     <g id="text_7">
      <!-- 59.0 -->
      <defs>
       <path d="M 10.984375 1.515625 
L 10.984375 10.5 
Q 14.703125 8.734375 18.5 7.8125 
Q 22.3125 6.890625 25.984375 6.890625 
Q 35.75 6.890625 40.890625 13.453125 
Q 46.046875 20.015625 46.78125 33.40625 
Q 43.953125 29.203125 39.59375 26.953125 
Q 35.25 24.703125 29.984375 24.703125 
Q 19.046875 24.703125 12.671875 31.3125 
Q 6.296875 37.9375 6.296875 49.421875 
Q 6.296875 60.640625 12.9375 67.421875 
Q 19.578125 74.21875 30.609375 74.21875 
Q 43.265625 74.21875 49.921875 64.515625 
Q 56.59375 54.828125 56.59375 36.375 
Q 56.59375 19.140625 48.40625 8.859375 
Q 40.234375 -1.421875 26.421875 -1.421875 
Q 22.703125 -1.421875 18.890625 -0.6875 
Q 15.09375 0.046875 10.984375 1.515625 
z
M 30.609375 32.421875 
Q 37.25 32.421875 41.125 36.953125 
Q 45.015625 41.5 45.015625 49.421875 
Q 45.015625 57.28125 41.125 61.84375 
Q 37.25 66.40625 30.609375 66.40625 
Q 23.96875 66.40625 20.09375 61.84375 
Q 16.21875 57.28125 16.21875 49.421875 
Q 16.21875 41.5 20.09375 36.953125 
Q 23.96875 32.421875 30.609375 32.421875 
z
" id="DejaVuSans-57"/>
      </defs>
      <g transform="translate(251.477263 261.03625)scale(0.1 -0.1)">
       <use xlink:href="#DejaVuSans-53"/>
       <use x="63.623047" xlink:href="#DejaVuSans-57"/>
       <use x="127.246094" xlink:href="#DejaVuSans-46"/>
       <use x="159.033203" xlink:href="#DejaVuSans-48"/>
      </g>
     </g>
    </g>
    <g id="xtick_8">
     <g id="line2d_8">
      <g>
       <use style="stroke:#000000;stroke-width:0.8;" x="298.557358" xlink:href="#m26fa7c86f6" y="246.437812"/>
      </g>
     </g>
     <g id="text_8">
      <!-- 59.5 -->
      <g transform="translate(287.424545 261.03625)scale(0.1 -0.1)">
       <use xlink:href="#DejaVuSans-53"/>
       <use x="63.623047" xlink:href="#DejaVuSans-57"/>
       <use x="127.246094" xlink:href="#DejaVuSans-46"/>
       <use x="159.033203" xlink:href="#DejaVuSans-53"/>
      </g>
     </g>
    </g>
    <g id="text_9">
     <!-- F° -->
     <defs>
      <path d="M 9.8125 72.90625 
L 51.703125 72.90625 
L 51.703125 64.59375 
L 19.671875 64.59375 
L 19.671875 43.109375 
L 48.578125 43.109375 
L 48.578125 34.8125 
L 19.671875 34.8125 
L 19.671875 0 
L 9.8125 0 
z
" id="DejaVuSans-70"/>
      <path d="M 25 67.921875 
Q 21.09375 67.921875 18.40625 65.203125 
Q 15.71875 62.5 15.71875 58.59375 
Q 15.71875 54.734375 18.40625 52.078125 
Q 21.09375 49.421875 25 49.421875 
Q 28.90625 49.421875 31.59375 52.078125 
Q 34.28125 54.734375 34.28125 58.59375 
Q 34.28125 62.453125 31.5625 65.1875 
Q 28.859375 67.921875 25 67.921875 
z
M 25 74.21875 
Q 28.125 74.21875 31 73.015625 
Q 33.890625 71.828125 35.984375 69.578125 
Q 38.234375 67.390625 39.359375 64.59375 
Q 40.484375 61.8125 40.484375 58.59375 
Q 40.484375 52.15625 35.96875 47.6875 
Q 31.453125 43.21875 24.90625 43.21875 
Q 18.3125 43.21875 13.90625 47.609375 
Q 9.515625 52 9.515625 58.59375 
Q 9.515625 65.140625 14 69.671875 
Q 18.5 74.21875 25 74.21875 
z
" id="DejaVuSans-176"/>
     </defs>
     <g transform="translate(180.669844 276.234062)scale(0.12 -0.12)">
      <use xlink:href="#DejaVuSans-70"/>
      <use x="57.519531" xlink:href="#DejaVuSans-176"/>
     </g>
    </g>
   </g>
   <g id="matplotlib.axis_2">
    <g id="ytick_1">
     <g id="line2d_9">
      <defs>
       <path d="M 0 0 
L -3.5 0 
" id="mbfd2e70d02" style="stroke:#000000;stroke-width:0.8;"/>
      </defs>
      <g>
       <use style="stroke:#000000;stroke-width:0.8;" x="43.583281" xlink:href="#mbfd2e70d02" y="217.493125"/>
      </g>
     </g>
     <g id="text_10">
      <!-- 10 -->
      <defs>
       <path d="M 12.40625 8.296875 
L 28.515625 8.296875 
L 28.515625 63.921875 
L 10.984375 60.40625 
L 10.984375 69.390625 
L 28.421875 72.90625 
L 38.28125 72.90625 
L 38.28125 8.296875 
L 54.390625 8.296875 
L 54.390625 0 
L 12.40625 0 
z
" id="DejaVuSans-49"/>
      </defs>
      <g transform="translate(23.858281 221.292344)scale(0.1 -0.1)">
       <use xlink:href="#DejaVuSans-49"/>
       <use x="63.623047" xlink:href="#DejaVuSans-48"/>
      </g>
     </g>
    </g>
    <g id="ytick_2">
     <g id="line2d_10">
      <g>
       <use style="stroke:#000000;stroke-width:0.8;" x="43.583281" xlink:href="#mbfd2e70d02" y="172.599151"/>
      </g>
     </g>
     <g id="text_11">
      <!-- 11 -->
      <g transform="translate(23.858281 176.39837)scale(0.1 -0.1)">
       <use xlink:href="#DejaVuSans-49"/>
       <use x="63.623047" xlink:href="#DejaVuSans-49"/>
      </g>
     </g>
    </g>
    <g id="ytick_3">
     <g id="line2d_11">
      <g>
       <use style="stroke:#000000;stroke-width:0.8;" x="43.583281" xlink:href="#mbfd2e70d02" y="127.705176"/>
      </g>
     </g>
     <g id="text_12">
      <!-- 12 -->
      <defs>
       <path d="M 19.1875 8.296875 
L 53.609375 8.296875 
L 53.609375 0 
L 7.328125 0 
L 7.328125 8.296875 
Q 12.9375 14.109375 22.625 23.890625 
Q 32.328125 33.6875 34.8125 36.53125 
Q 39.546875 41.84375 41.421875 45.53125 
Q 43.3125 49.21875 43.3125 52.78125 
Q 43.3125 58.59375 39.234375 62.25 
Q 35.15625 65.921875 28.609375 65.921875 
Q 23.96875 65.921875 18.8125 64.3125 
Q 13.671875 62.703125 7.8125 59.421875 
L 7.8125 69.390625 
Q 13.765625 71.78125 18.9375 73 
Q 24.125 74.21875 28.421875 74.21875 
Q 39.75 74.21875 46.484375 68.546875 
Q 53.21875 62.890625 53.21875 53.421875 
Q 53.21875 48.921875 51.53125 44.890625 
Q 49.859375 40.875 45.40625 35.40625 
Q 44.1875 33.984375 37.640625 27.21875 
Q 31.109375 20.453125 19.1875 8.296875 
z
" id="DejaVuSans-50"/>
      </defs>
      <g transform="translate(23.858281 131.504395)scale(0.1 -0.1)">
       <use xlink:href="#DejaVuSans-49"/>
       <use x="63.623047" xlink:href="#DejaVuSans-50"/>
      </g>
     </g>
    </g>
    <g id="ytick_4">
     <g id="line2d_12">
      <g>
       <use style="stroke:#000000;stroke-width:0.8;" x="43.583281" xlink:href="#mbfd2e70d02" y="82.811202"/>
      </g>
     </g>
     <g id="text_13">
      <!-- 13 -->
      <defs>
       <path d="M 40.578125 39.3125 
Q 47.65625 37.796875 51.625 33 
Q 55.609375 28.21875 55.609375 21.1875 
Q 55.609375 10.40625 48.1875 4.484375 
Q 40.765625 -1.421875 27.09375 -1.421875 
Q 22.515625 -1.421875 17.65625 -0.515625 
Q 12.796875 0.390625 7.625 2.203125 
L 7.625 11.71875 
Q 11.71875 9.328125 16.59375 8.109375 
Q 21.484375 6.890625 26.8125 6.890625 
Q 36.078125 6.890625 40.9375 10.546875 
Q 45.796875 14.203125 45.796875 21.1875 
Q 45.796875 27.640625 41.28125 31.265625 
Q 36.765625 34.90625 28.71875 34.90625 
L 20.21875 34.90625 
L 20.21875 43.015625 
L 29.109375 43.015625 
Q 36.375 43.015625 40.234375 45.921875 
Q 44.09375 48.828125 44.09375 54.296875 
Q 44.09375 59.90625 40.109375 62.90625 
Q 36.140625 65.921875 28.71875 65.921875 
Q 24.65625 65.921875 20.015625 65.03125 
Q 15.375 64.15625 9.8125 62.3125 
L 9.8125 71.09375 
Q 15.4375 72.65625 20.34375 73.4375 
Q 25.25 74.21875 29.59375 74.21875 
Q 40.828125 74.21875 47.359375 69.109375 
Q 53.90625 64.015625 53.90625 55.328125 
Q 53.90625 49.265625 50.4375 45.09375 
Q 46.96875 40.921875 40.578125 39.3125 
z
" id="DejaVuSans-51"/>
      </defs>
      <g transform="translate(23.858281 86.610421)scale(0.1 -0.1)">
       <use xlink:href="#DejaVuSans-49"/>
       <use x="63.623047" xlink:href="#DejaVuSans-51"/>
      </g>
     </g>
    </g>
    <g id="ytick_5">
     <g id="line2d_13">
      <g>
       <use style="stroke:#000000;stroke-width:0.8;" x="43.583281" xlink:href="#mbfd2e70d02" y="37.917227"/>
      </g>
     </g>
     <g id="text_14">
      <!-- 14 -->
      <defs>
       <path d="M 37.796875 64.3125 
L 12.890625 25.390625 
L 37.796875 25.390625 
z
M 35.203125 72.90625 
L 47.609375 72.90625 
L 47.609375 25.390625 
L 58.015625 25.390625 
L 58.015625 17.1875 
L 47.609375 17.1875 
L 47.609375 0 
L 37.796875 0 
L 37.796875 17.1875 
L 4.890625 17.1875 
L 4.890625 26.703125 
z
" id="DejaVuSans-52"/>
      </defs>
      <g transform="translate(23.858281 41.716446)scale(0.1 -0.1)">
       <use xlink:href="#DejaVuSans-49"/>
       <use x="63.623047" xlink:href="#DejaVuSans-52"/>
      </g>
     </g>
    </g>
    <g id="text_15">
     <!-- Song Sparrow Avg Sighting/Route -->
     <defs>
      <path d="M 53.515625 70.515625 
L 53.515625 60.890625 
Q 47.90625 63.578125 42.921875 64.890625 
Q 37.9375 66.21875 33.296875 66.21875 
Q 25.25 66.21875 20.875 63.09375 
Q 16.5 59.96875 16.5 54.203125 
Q 16.5 49.359375 19.40625 46.890625 
Q 22.3125 44.4375 30.421875 42.921875 
L 36.375 41.703125 
Q 47.40625 39.59375 52.65625 34.296875 
Q 57.90625 29 57.90625 20.125 
Q 57.90625 9.515625 50.796875 4.046875 
Q 43.703125 -1.421875 29.984375 -1.421875 
Q 24.8125 -1.421875 18.96875 -0.25 
Q 13.140625 0.921875 6.890625 3.21875 
L 6.890625 13.375 
Q 12.890625 10.015625 18.65625 8.296875 
Q 24.421875 6.59375 29.984375 6.59375 
Q 38.421875 6.59375 43.015625 9.90625 
Q 47.609375 13.234375 47.609375 19.390625 
Q 47.609375 24.75 44.3125 27.78125 
Q 41.015625 30.8125 33.5 32.328125 
L 27.484375 33.5 
Q 16.453125 35.6875 11.515625 40.375 
Q 6.59375 45.0625 6.59375 53.421875 
Q 6.59375 63.09375 13.40625 68.65625 
Q 20.21875 74.21875 32.171875 74.21875 
Q 37.3125 74.21875 42.625 73.28125 
Q 47.953125 72.359375 53.515625 70.515625 
z
" id="DejaVuSans-83"/>
      <path d="M 30.609375 48.390625 
Q 23.390625 48.390625 19.1875 42.75 
Q 14.984375 37.109375 14.984375 27.296875 
Q 14.984375 17.484375 19.15625 11.84375 
Q 23.34375 6.203125 30.609375 6.203125 
Q 37.796875 6.203125 41.984375 11.859375 
Q 46.1875 17.53125 46.1875 27.296875 
Q 46.1875 37.015625 41.984375 42.703125 
Q 37.796875 48.390625 30.609375 48.390625 
z
M 30.609375 56 
Q 42.328125 56 49.015625 48.375 
Q 55.71875 40.765625 55.71875 27.296875 
Q 55.71875 13.875 49.015625 6.21875 
Q 42.328125 -1.421875 30.609375 -1.421875 
Q 18.84375 -1.421875 12.171875 6.21875 
Q 5.515625 13.875 5.515625 27.296875 
Q 5.515625 40.765625 12.171875 48.375 
Q 18.84375 56 30.609375 56 
z
" id="DejaVuSans-111"/>
      <path d="M 54.890625 33.015625 
L 54.890625 0 
L 45.90625 0 
L 45.90625 32.71875 
Q 45.90625 40.484375 42.875 44.328125 
Q 39.84375 48.1875 33.796875 48.1875 
Q 26.515625 48.1875 22.3125 43.546875 
Q 18.109375 38.921875 18.109375 30.90625 
L 18.109375 0 
L 9.078125 0 
L 9.078125 54.6875 
L 18.109375 54.6875 
L 18.109375 46.1875 
Q 21.34375 51.125 25.703125 53.5625 
Q 30.078125 56 35.796875 56 
Q 45.21875 56 50.046875 50.171875 
Q 54.890625 44.34375 54.890625 33.015625 
z
" id="DejaVuSans-110"/>
      <path d="M 45.40625 27.984375 
Q 45.40625 37.75 41.375 43.109375 
Q 37.359375 48.484375 30.078125 48.484375 
Q 22.859375 48.484375 18.828125 43.109375 
Q 14.796875 37.75 14.796875 27.984375 
Q 14.796875 18.265625 18.828125 12.890625 
Q 22.859375 7.515625 30.078125 7.515625 
Q 37.359375 7.515625 41.375 12.890625 
Q 45.40625 18.265625 45.40625 27.984375 
z
M 54.390625 6.78125 
Q 54.390625 -7.171875 48.1875 -13.984375 
Q 42 -20.796875 29.203125 -20.796875 
Q 24.46875 -20.796875 20.265625 -20.09375 
Q 16.0625 -19.390625 12.109375 -17.921875 
L 12.109375 -9.1875 
Q 16.0625 -11.328125 19.921875 -12.34375 
Q 23.78125 -13.375 27.78125 -13.375 
Q 36.625 -13.375 41.015625 -8.765625 
Q 45.40625 -4.15625 45.40625 5.171875 
L 45.40625 9.625 
Q 42.625 4.78125 38.28125 2.390625 
Q 33.9375 0 27.875 0 
Q 17.828125 0 11.671875 7.65625 
Q 5.515625 15.328125 5.515625 27.984375 
Q 5.515625 40.671875 11.671875 48.328125 
Q 17.828125 56 27.875 56 
Q 33.9375 56 38.28125 53.609375 
Q 42.625 51.21875 45.40625 46.390625 
L 45.40625 54.6875 
L 54.390625 54.6875 
z
" id="DejaVuSans-103"/>
      <path id="DejaVuSans-32"/>
      <path d="M 18.109375 8.203125 
L 18.109375 -20.796875 
L 9.078125 -20.796875 
L 9.078125 54.6875 
L 18.109375 54.6875 
L 18.109375 46.390625 
Q 20.953125 51.265625 25.265625 53.625 
Q 29.59375 56 35.59375 56 
Q 45.5625 56 51.78125 48.09375 
Q 58.015625 40.1875 58.015625 27.296875 
Q 58.015625 14.40625 51.78125 6.484375 
Q 45.5625 -1.421875 35.59375 -1.421875 
Q 29.59375 -1.421875 25.265625 0.953125 
Q 20.953125 3.328125 18.109375 8.203125 
z
M 48.6875 27.296875 
Q 48.6875 37.203125 44.609375 42.84375 
Q 40.53125 48.484375 33.40625 48.484375 
Q 26.265625 48.484375 22.1875 42.84375 
Q 18.109375 37.203125 18.109375 27.296875 
Q 18.109375 17.390625 22.1875 11.75 
Q 26.265625 6.109375 33.40625 6.109375 
Q 40.53125 6.109375 44.609375 11.75 
Q 48.6875 17.390625 48.6875 27.296875 
z
" id="DejaVuSans-112"/>
      <path d="M 34.28125 27.484375 
Q 23.390625 27.484375 19.1875 25 
Q 14.984375 22.515625 14.984375 16.5 
Q 14.984375 11.71875 18.140625 8.90625 
Q 21.296875 6.109375 26.703125 6.109375 
Q 34.1875 6.109375 38.703125 11.40625 
Q 43.21875 16.703125 43.21875 25.484375 
L 43.21875 27.484375 
z
M 52.203125 31.203125 
L 52.203125 0 
L 43.21875 0 
L 43.21875 8.296875 
Q 40.140625 3.328125 35.546875 0.953125 
Q 30.953125 -1.421875 24.3125 -1.421875 
Q 15.921875 -1.421875 10.953125 3.296875 
Q 6 8.015625 6 15.921875 
Q 6 25.140625 12.171875 29.828125 
Q 18.359375 34.515625 30.609375 34.515625 
L 43.21875 34.515625 
L 43.21875 35.40625 
Q 43.21875 41.609375 39.140625 45 
Q 35.0625 48.390625 27.6875 48.390625 
Q 23 48.390625 18.546875 47.265625 
Q 14.109375 46.140625 10.015625 43.890625 
L 10.015625 52.203125 
Q 14.9375 54.109375 19.578125 55.046875 
Q 24.21875 56 28.609375 56 
Q 40.484375 56 46.34375 49.84375 
Q 52.203125 43.703125 52.203125 31.203125 
z
" id="DejaVuSans-97"/>
      <path d="M 41.109375 46.296875 
Q 39.59375 47.171875 37.8125 47.578125 
Q 36.03125 48 33.890625 48 
Q 26.265625 48 22.1875 43.046875 
Q 18.109375 38.09375 18.109375 28.8125 
L 18.109375 0 
L 9.078125 0 
L 9.078125 54.6875 
L 18.109375 54.6875 
L 18.109375 46.1875 
Q 20.953125 51.171875 25.484375 53.578125 
Q 30.03125 56 36.53125 56 
Q 37.453125 56 38.578125 55.875 
Q 39.703125 55.765625 41.0625 55.515625 
z
" id="DejaVuSans-114"/>
      <path d="M 4.203125 54.6875 
L 13.1875 54.6875 
L 24.421875 12.015625 
L 35.59375 54.6875 
L 46.1875 54.6875 
L 57.421875 12.015625 
L 68.609375 54.6875 
L 77.59375 54.6875 
L 63.28125 0 
L 52.6875 0 
L 40.921875 44.828125 
L 29.109375 0 
L 18.5 0 
z
" id="DejaVuSans-119"/>
      <path d="M 34.1875 63.1875 
L 20.796875 26.90625 
L 47.609375 26.90625 
z
M 28.609375 72.90625 
L 39.796875 72.90625 
L 67.578125 0 
L 57.328125 0 
L 50.6875 18.703125 
L 17.828125 18.703125 
L 11.1875 0 
L 0.78125 0 
z
" id="DejaVuSans-65"/>
      <path d="M 2.984375 54.6875 
L 12.5 54.6875 
L 29.59375 8.796875 
L 46.6875 54.6875 
L 56.203125 54.6875 
L 35.6875 0 
L 23.484375 0 
z
" id="DejaVuSans-118"/>
      <path d="M 9.421875 54.6875 
L 18.40625 54.6875 
L 18.40625 0 
L 9.421875 0 
z
M 9.421875 75.984375 
L 18.40625 75.984375 
L 18.40625 64.59375 
L 9.421875 64.59375 
z
" id="DejaVuSans-105"/>
      <path d="M 54.890625 33.015625 
L 54.890625 0 
L 45.90625 0 
L 45.90625 32.71875 
Q 45.90625 40.484375 42.875 44.328125 
Q 39.84375 48.1875 33.796875 48.1875 
Q 26.515625 48.1875 22.3125 43.546875 
Q 18.109375 38.921875 18.109375 30.90625 
L 18.109375 0 
L 9.078125 0 
L 9.078125 75.984375 
L 18.109375 75.984375 
L 18.109375 46.1875 
Q 21.34375 51.125 25.703125 53.5625 
Q 30.078125 56 35.796875 56 
Q 45.21875 56 50.046875 50.171875 
Q 54.890625 44.34375 54.890625 33.015625 
z
" id="DejaVuSans-104"/>
      <path d="M 18.3125 70.21875 
L 18.3125 54.6875 
L 36.8125 54.6875 
L 36.8125 47.703125 
L 18.3125 47.703125 
L 18.3125 18.015625 
Q 18.3125 11.328125 20.140625 9.421875 
Q 21.96875 7.515625 27.59375 7.515625 
L 36.8125 7.515625 
L 36.8125 0 
L 27.59375 0 
Q 17.1875 0 13.234375 3.875 
Q 9.28125 7.765625 9.28125 18.015625 
L 9.28125 47.703125 
L 2.6875 47.703125 
L 2.6875 54.6875 
L 9.28125 54.6875 
L 9.28125 70.21875 
z
" id="DejaVuSans-116"/>
      <path d="M 25.390625 72.90625 
L 33.6875 72.90625 
L 8.296875 -9.28125 
L 0 -9.28125 
z
" id="DejaVuSans-47"/>
      <path d="M 44.390625 34.1875 
Q 47.5625 33.109375 50.5625 29.59375 
Q 53.5625 26.078125 56.59375 19.921875 
L 66.609375 0 
L 56 0 
L 46.6875 18.703125 
Q 43.0625 26.03125 39.671875 28.421875 
Q 36.28125 30.8125 30.421875 30.8125 
L 19.671875 30.8125 
L 19.671875 0 
L 9.8125 0 
L 9.8125 72.90625 
L 32.078125 72.90625 
Q 44.578125 72.90625 50.734375 67.671875 
Q 56.890625 62.453125 56.890625 51.90625 
Q 56.890625 45.015625 53.6875 40.46875 
Q 50.484375 35.9375 44.390625 34.1875 
z
M 19.671875 64.796875 
L 19.671875 38.921875 
L 32.078125 38.921875 
Q 39.203125 38.921875 42.84375 42.21875 
Q 46.484375 45.515625 46.484375 51.90625 
Q 46.484375 58.296875 42.84375 61.546875 
Q 39.203125 64.796875 32.078125 64.796875 
z
" id="DejaVuSans-82"/>
      <path d="M 8.5 21.578125 
L 8.5 54.6875 
L 17.484375 54.6875 
L 17.484375 21.921875 
Q 17.484375 14.15625 20.5 10.265625 
Q 23.53125 6.390625 29.59375 6.390625 
Q 36.859375 6.390625 41.078125 11.03125 
Q 45.3125 15.671875 45.3125 23.6875 
L 45.3125 54.6875 
L 54.296875 54.6875 
L 54.296875 0 
L 45.3125 0 
L 45.3125 8.40625 
Q 42.046875 3.421875 37.71875 1 
Q 33.40625 -1.421875 27.6875 -1.421875 
Q 18.265625 -1.421875 13.375 4.4375 
Q 8.5 10.296875 8.5 21.578125 
z
M 31.109375 56 
z
" id="DejaVuSans-117"/>
      <path d="M 56.203125 29.59375 
L 56.203125 25.203125 
L 14.890625 25.203125 
Q 15.484375 15.921875 20.484375 11.0625 
Q 25.484375 6.203125 34.421875 6.203125 
Q 39.59375 6.203125 44.453125 7.46875 
Q 49.3125 8.734375 54.109375 11.28125 
L 54.109375 2.78125 
Q 49.265625 0.734375 44.1875 -0.34375 
Q 39.109375 -1.421875 33.890625 -1.421875 
Q 20.796875 -1.421875 13.15625 6.1875 
Q 5.515625 13.8125 5.515625 26.8125 
Q 5.515625 40.234375 12.765625 48.109375 
Q 20.015625 56 32.328125 56 
Q 43.359375 56 49.78125 48.890625 
Q 56.203125 41.796875 56.203125 29.59375 
z
M 47.21875 32.234375 
Q 47.125 39.59375 43.09375 43.984375 
Q 39.0625 48.390625 32.421875 48.390625 
Q 24.90625 48.390625 20.390625 44.140625 
Q 15.875 39.890625 15.1875 32.171875 
z
" id="DejaVuSans-101"/>
     </defs>
     <g transform="translate(17.362656 235.785)rotate(-90)scale(0.12 -0.12)">
      <use xlink:href="#DejaVuSans-83"/>
      <use x="63.476562" xlink:href="#DejaVuSans-111"/>
      <use x="124.658203" xlink:href="#DejaVuSans-110"/>
      <use x="188.037109" xlink:href="#DejaVuSans-103"/>
      <use x="251.513672" xlink:href="#DejaVuSans-32"/>
      <use x="283.300781" xlink:href="#DejaVuSans-83"/>
      <use x="346.777344" xlink:href="#DejaVuSans-112"/>
      <use x="410.253906" xlink:href="#DejaVuSans-97"/>
      <use x="471.533203" xlink:href="#DejaVuSans-114"/>
      <use x="510.896484" xlink:href="#DejaVuSans-114"/>
      <use x="549.759766" xlink:href="#DejaVuSans-111"/>
      <use x="610.941406" xlink:href="#DejaVuSans-119"/>
      <use x="692.728516" xlink:href="#DejaVuSans-32"/>
      <use x="724.515625" xlink:href="#DejaVuSans-65"/>
      <use x="787.048828" xlink:href="#DejaVuSans-118"/>
      <use x="846.228516" xlink:href="#DejaVuSans-103"/>
      <use x="909.705078" xlink:href="#DejaVuSans-32"/>
      <use x="941.492188" xlink:href="#DejaVuSans-83"/>
      <use x="1004.96875" xlink:href="#DejaVuSans-105"/>
      <use x="1032.751953" xlink:href="#DejaVuSans-103"/>
      <use x="1096.228516" xlink:href="#DejaVuSans-104"/>
      <use x="1159.607422" xlink:href="#DejaVuSans-116"/>
      <use x="1198.816406" xlink:href="#DejaVuSans-105"/>
      <use x="1226.599609" xlink:href="#DejaVuSans-110"/>
      <use x="1289.978516" xlink:href="#DejaVuSans-103"/>
      <use x="1353.455078" xlink:href="#DejaVuSans-47"/>
      <use x="1387.146484" xlink:href="#DejaVuSans-82"/>
      <use x="1452.128906" xlink:href="#DejaVuSans-111"/>
      <use x="1513.310547" xlink:href="#DejaVuSans-117"/>
      <use x="1576.689453" xlink:href="#DejaVuSans-116"/>
      <use x="1615.898438" xlink:href="#DejaVuSans-101"/>
     </g>
    </g>
   </g>
   <g id="line2d_14">
    <path clip-path="url(#p290371fc38)" d="M 56.632145 167.532022 
L 317.609418 146.203655 
" style="fill:none;stroke:#ff0000;stroke-linecap:square;stroke-width:1.5;"/>
   </g>
   <g id="patch_3">
    <path d="M 43.583281 246.437813 
L 43.583281 23.837813 
" style="fill:none;stroke:#000000;stroke-linecap:square;stroke-linejoin:miter;stroke-width:0.8;"/>
   </g>
   <g id="patch_4">
    <path d="M 330.658281 246.437813 
L 330.658281 23.837813 
" style="fill:none;stroke:#000000;stroke-linecap:square;stroke-linejoin:miter;stroke-width:0.8;"/>
   </g>
   <g id="patch_5">
    <path d="M 43.583281 246.437812 
L 330.658281 246.437812 
" style="fill:none;stroke:#000000;stroke-linecap:square;stroke-linejoin:miter;stroke-width:0.8;"/>
   </g>
   <g id="patch_6">
    <path d="M 43.583281 23.837812 
L 330.658281 23.837812 
" style="fill:none;stroke:#000000;stroke-linecap:square;stroke-linejoin:miter;stroke-width:0.8;"/>
   </g>
   <g id="text_16">
    <g id="patch_7">
     <path d="M 343.583281 80.637812 
L 456.062344 80.637812 
Q 460.262344 80.637812 460.262344 76.437812 
L 460.262344 47.2115 
Q 460.262344 43.0115 456.062344 43.0115 
L 343.583281 43.0115 
Q 339.383281 43.0115 339.383281 47.2115 
L 339.383281 76.437812 
Q 339.383281 80.637812 343.583281 80.637812 
z
" style="fill:#ffffff;stroke:#000000;stroke-linejoin:miter;"/>
    </g>
    <!-- Slope: 0.144 -->
    <defs>
     <path d="M 9.421875 75.984375 
L 18.40625 75.984375 
L 18.40625 0 
L 9.421875 0 
z
" id="DejaVuSans-108"/>
     <path d="M 11.71875 12.40625 
L 22.015625 12.40625 
L 22.015625 0 
L 11.71875 0 
z
M 11.71875 51.703125 
L 22.015625 51.703125 
L 22.015625 39.3125 
L 11.71875 39.3125 
z
" id="DejaVuSans-58"/>
    </defs>
    <g transform="translate(343.583281 57.849312)scale(0.14 -0.14)">
     <use xlink:href="#DejaVuSans-83"/>
     <use x="63.476562" xlink:href="#DejaVuSans-108"/>
     <use x="91.259766" xlink:href="#DejaVuSans-111"/>
     <use x="152.441406" xlink:href="#DejaVuSans-112"/>
     <use x="215.917969" xlink:href="#DejaVuSans-101"/>
     <use x="277.441406" xlink:href="#DejaVuSans-58"/>
     <use x="311.132812" xlink:href="#DejaVuSans-32"/>
     <use x="342.919922" xlink:href="#DejaVuSans-48"/>
     <use x="406.542969" xlink:href="#DejaVuSans-46"/>
     <use x="438.330078" xlink:href="#DejaVuSans-49"/>
     <use x="501.953125" xlink:href="#DejaVuSans-52"/>
     <use x="565.576172" xlink:href="#DejaVuSans-52"/>
    </g>
    <!-- Intercept: 3.008 -->
    <defs>
     <path d="M 9.8125 72.90625 
L 19.671875 72.90625 
L 19.671875 0 
L 9.8125 0 
z
" id="DejaVuSans-73"/>
     <path d="M 48.78125 52.59375 
L 48.78125 44.1875 
Q 44.96875 46.296875 41.140625 47.34375 
Q 37.3125 48.390625 33.40625 48.390625 
Q 24.65625 48.390625 19.8125 42.84375 
Q 14.984375 37.3125 14.984375 27.296875 
Q 14.984375 17.28125 19.8125 11.734375 
Q 24.65625 6.203125 33.40625 6.203125 
Q 37.3125 6.203125 41.140625 7.25 
Q 44.96875 8.296875 48.78125 10.40625 
L 48.78125 2.09375 
Q 45.015625 0.34375 40.984375 -0.53125 
Q 36.96875 -1.421875 32.421875 -1.421875 
Q 20.0625 -1.421875 12.78125 6.34375 
Q 5.515625 14.109375 5.515625 27.296875 
Q 5.515625 40.671875 12.859375 48.328125 
Q 20.21875 56 33.015625 56 
Q 37.15625 56 41.109375 55.140625 
Q 45.0625 54.296875 48.78125 52.59375 
z
" id="DejaVuSans-99"/>
    </defs>
    <g transform="translate(343.583281 73.52625)scale(0.14 -0.14)">
     <use xlink:href="#DejaVuSans-73"/>
     <use x="29.492188" xlink:href="#DejaVuSans-110"/>
     <use x="92.871094" xlink:href="#DejaVuSans-116"/>
     <use x="132.080078" xlink:href="#DejaVuSans-101"/>
     <use x="193.603516" xlink:href="#DejaVuSans-114"/>
     <use x="232.466797" xlink:href="#DejaVuSans-99"/>
     <use x="287.447266" xlink:href="#DejaVuSans-101"/>
     <use x="348.970703" xlink:href="#DejaVuSans-112"/>
     <use x="412.447266" xlink:href="#DejaVuSans-116"/>
     <use x="451.65625" xlink:href="#DejaVuSans-58"/>
     <use x="485.347656" xlink:href="#DejaVuSans-32"/>
     <use x="517.134766" xlink:href="#DejaVuSans-51"/>
     <use x="580.757812" xlink:href="#DejaVuSans-46"/>
     <use x="612.544922" xlink:href="#DejaVuSans-48"/>
     <use x="676.167969" xlink:href="#DejaVuSans-48"/>
     <use x="739.791016" xlink:href="#DejaVuSans-56"/>
    </g>
   </g>
   <g id="text_17">
    <!-- CALIFORNIA Song Sparrow Temperature Regression -->
    <defs>
     <path d="M 64.40625 67.28125 
L 64.40625 56.890625 
Q 59.421875 61.53125 53.78125 63.8125 
Q 48.140625 66.109375 41.796875 66.109375 
Q 29.296875 66.109375 22.65625 58.46875 
Q 16.015625 50.828125 16.015625 36.375 
Q 16.015625 21.96875 22.65625 14.328125 
Q 29.296875 6.6875 41.796875 6.6875 
Q 48.140625 6.6875 53.78125 8.984375 
Q 59.421875 11.28125 64.40625 15.921875 
L 64.40625 5.609375 
Q 59.234375 2.09375 53.4375 0.328125 
Q 47.65625 -1.421875 41.21875 -1.421875 
Q 24.65625 -1.421875 15.125 8.703125 
Q 5.609375 18.84375 5.609375 36.375 
Q 5.609375 53.953125 15.125 64.078125 
Q 24.65625 74.21875 41.21875 74.21875 
Q 47.75 74.21875 53.53125 72.484375 
Q 59.328125 70.75 64.40625 67.28125 
z
" id="DejaVuSans-67"/>
     <path d="M 9.8125 72.90625 
L 19.671875 72.90625 
L 19.671875 8.296875 
L 55.171875 8.296875 
L 55.171875 0 
L 9.8125 0 
z
" id="DejaVuSans-76"/>
     <path d="M 39.40625 66.21875 
Q 28.65625 66.21875 22.328125 58.203125 
Q 16.015625 50.203125 16.015625 36.375 
Q 16.015625 22.609375 22.328125 14.59375 
Q 28.65625 6.59375 39.40625 6.59375 
Q 50.140625 6.59375 56.421875 14.59375 
Q 62.703125 22.609375 62.703125 36.375 
Q 62.703125 50.203125 56.421875 58.203125 
Q 50.140625 66.21875 39.40625 66.21875 
z
M 39.40625 74.21875 
Q 54.734375 74.21875 63.90625 63.9375 
Q 73.09375 53.65625 73.09375 36.375 
Q 73.09375 19.140625 63.90625 8.859375 
Q 54.734375 -1.421875 39.40625 -1.421875 
Q 24.03125 -1.421875 14.8125 8.828125 
Q 5.609375 19.09375 5.609375 36.375 
Q 5.609375 53.65625 14.8125 63.9375 
Q 24.03125 74.21875 39.40625 74.21875 
z
" id="DejaVuSans-79"/>
     <path d="M 9.8125 72.90625 
L 23.09375 72.90625 
L 55.421875 11.921875 
L 55.421875 72.90625 
L 64.984375 72.90625 
L 64.984375 0 
L 51.703125 0 
L 19.390625 60.984375 
L 19.390625 0 
L 9.8125 0 
z
" id="DejaVuSans-78"/>
     <path d="M -0.296875 72.90625 
L 61.375 72.90625 
L 61.375 64.59375 
L 35.5 64.59375 
L 35.5 0 
L 25.59375 0 
L 25.59375 64.59375 
L -0.296875 64.59375 
z
" id="DejaVuSans-84"/>
     <path d="M 52 44.1875 
Q 55.375 50.25 60.0625 53.125 
Q 64.75 56 71.09375 56 
Q 79.640625 56 84.28125 50.015625 
Q 88.921875 44.046875 88.921875 33.015625 
L 88.921875 0 
L 79.890625 0 
L 79.890625 32.71875 
Q 79.890625 40.578125 77.09375 44.375 
Q 74.3125 48.1875 68.609375 48.1875 
Q 61.625 48.1875 57.5625 43.546875 
Q 53.515625 38.921875 53.515625 30.90625 
L 53.515625 0 
L 44.484375 0 
L 44.484375 32.71875 
Q 44.484375 40.625 41.703125 44.40625 
Q 38.921875 48.1875 33.109375 48.1875 
Q 26.21875 48.1875 22.15625 43.53125 
Q 18.109375 38.875 18.109375 30.90625 
L 18.109375 0 
L 9.078125 0 
L 9.078125 54.6875 
L 18.109375 54.6875 
L 18.109375 46.1875 
Q 21.1875 51.21875 25.484375 53.609375 
Q 29.78125 56 35.6875 56 
Q 41.65625 56 45.828125 52.96875 
Q 50 49.953125 52 44.1875 
z
" id="DejaVuSans-109"/>
     <path d="M 44.28125 53.078125 
L 44.28125 44.578125 
Q 40.484375 46.53125 36.375 47.5 
Q 32.28125 48.484375 27.875 48.484375 
Q 21.1875 48.484375 17.84375 46.4375 
Q 14.5 44.390625 14.5 40.28125 
Q 14.5 37.15625 16.890625 35.375 
Q 19.28125 33.59375 26.515625 31.984375 
L 29.59375 31.296875 
Q 39.15625 29.25 43.1875 25.515625 
Q 47.21875 21.78125 47.21875 15.09375 
Q 47.21875 7.46875 41.1875 3.015625 
Q 35.15625 -1.421875 24.609375 -1.421875 
Q 20.21875 -1.421875 15.453125 -0.5625 
Q 10.6875 0.296875 5.421875 2 
L 5.421875 11.28125 
Q 10.40625 8.6875 15.234375 7.390625 
Q 20.0625 6.109375 24.8125 6.109375 
Q 31.15625 6.109375 34.5625 8.28125 
Q 37.984375 10.453125 37.984375 14.40625 
Q 37.984375 18.0625 35.515625 20.015625 
Q 33.0625 21.96875 24.703125 23.78125 
L 21.578125 24.515625 
Q 13.234375 26.265625 9.515625 29.90625 
Q 5.8125 33.546875 5.8125 39.890625 
Q 5.8125 47.609375 11.28125 51.796875 
Q 16.75 56 26.8125 56 
Q 31.78125 56 36.171875 55.265625 
Q 40.578125 54.546875 44.28125 53.078125 
z
" id="DejaVuSans-115"/>
    </defs>
    <g transform="translate(7.2 17.837812)scale(0.14 -0.14)">
     <use xlink:href="#DejaVuSans-67"/>
     <use x="69.824219" xlink:href="#DejaVuSans-65"/>
     <use x="138.232422" xlink:href="#DejaVuSans-76"/>
     <use x="193.945312" xlink:href="#DejaVuSans-73"/>
     <use x="223.4375" xlink:href="#DejaVuSans-70"/>
     <use x="280.957031" xlink:href="#DejaVuSans-79"/>
     <use x="359.667969" xlink:href="#DejaVuSans-82"/>
     <use x="429.150391" xlink:href="#DejaVuSans-78"/>
     <use x="503.955078" xlink:href="#DejaVuSans-73"/>
     <use x="533.447266" xlink:href="#DejaVuSans-65"/>
     <use x="601.855469" xlink:href="#DejaVuSans-32"/>
     <use x="633.642578" xlink:href="#DejaVuSans-83"/>
     <use x="697.119141" xlink:href="#DejaVuSans-111"/>
     <use x="758.300781" xlink:href="#DejaVuSans-110"/>
     <use x="821.679688" xlink:href="#DejaVuSans-103"/>
     <use x="885.15625" xlink:href="#DejaVuSans-32"/>
     <use x="916.943359" xlink:href="#DejaVuSans-83"/>
     <use x="980.419922" xlink:href="#DejaVuSans-112"/>
     <use x="1043.896484" xlink:href="#DejaVuSans-97"/>
     <use x="1105.175781" xlink:href="#DejaVuSans-114"/>
     <use x="1144.539062" xlink:href="#DejaVuSans-114"/>
     <use x="1183.402344" xlink:href="#DejaVuSans-111"/>
     <use x="1244.583984" xlink:href="#DejaVuSans-119"/>
     <use x="1326.371094" xlink:href="#DejaVuSans-32"/>
     <use x="1358.158203" xlink:href="#DejaVuSans-84"/>
     <use x="1402.242188" xlink:href="#DejaVuSans-101"/>
     <use x="1463.765625" xlink:href="#DejaVuSans-109"/>
     <use x="1561.177734" xlink:href="#DejaVuSans-112"/>
     <use x="1624.654297" xlink:href="#DejaVuSans-101"/>
     <use x="1686.177734" xlink:href="#DejaVuSans-114"/>
     <use x="1727.291016" xlink:href="#DejaVuSans-97"/>
     <use x="1788.570312" xlink:href="#DejaVuSans-116"/>
     <use x="1827.779297" xlink:href="#DejaVuSans-117"/>
     <use x="1891.158203" xlink:href="#DejaVuSans-114"/>
     <use x="1930.021484" xlink:href="#DejaVuSans-101"/>
     <use x="1991.544922" xlink:href="#DejaVuSans-32"/>
     <use x="2023.332031" xlink:href="#DejaVuSans-82"/>
     <use x="2088.314453" xlink:href="#DejaVuSans-101"/>
     <use x="2149.837891" xlink:href="#DejaVuSans-103"/>
     <use x="2213.314453" xlink:href="#DejaVuSans-114"/>
     <use x="2252.177734" xlink:href="#DejaVuSans-101"/>
     <use x="2313.701172" xlink:href="#DejaVuSans-115"/>
     <use x="2365.800781" xlink:href="#DejaVuSans-115"/>
     <use x="2417.900391" xlink:href="#DejaVuSans-105"/>
     <use x="2445.683594" xlink:href="#DejaVuSans-111"/>
     <use x="2506.865234" xlink:href="#DejaVuSans-110"/>
    </g>
   </g>
  </g>
  <g id="axes_2">
   <g id="patch_8">
    <path d="M 43.583281 530.837813 
L 330.658281 530.837813 
L 330.658281 308.237813 
L 43.583281 308.237813 
z
" style="fill:#ffffff;"/>
   </g>
   <g id="PathCollection_2">
    <g clip-path="url(#p3d37a4e528)">
     <use style="fill:#1f77b4;stroke:#1f77b4;" x="171.334362" xlink:href="#mf6b6f21041" y="480.069665"/>
     <use style="fill:#1f77b4;stroke:#1f77b4;" x="218.983659" xlink:href="#mf6b6f21041" y="480.220172"/>
     <use style="fill:#1f77b4;stroke:#1f77b4;" x="305.746814" xlink:href="#mf6b6f21041" y="334.176013"/>
     <use style="fill:#1f77b4;stroke:#1f77b4;" x="105.702634" xlink:href="#mf6b6f21041" y="520.719631"/>
     <use style="fill:#1f77b4;stroke:#1f77b4;" x="75.704294" xlink:href="#mf6b6f21041" y="520.023384"/>
     <use style="fill:#1f77b4;stroke:#1f77b4;" x="154.843562" xlink:href="#mf6b6f21041" y="399.503359"/>
     <use style="fill:#1f77b4;stroke:#1f77b4;" x="117.138466" xlink:href="#mf6b6f21041" y="423.32867"/>
     <use style="fill:#1f77b4;stroke:#1f77b4;" x="95.592696" xlink:href="#mf6b6f21041" y="459.17144"/>
     <use style="fill:#1f77b4;stroke:#1f77b4;" x="77.776003" xlink:href="#mf6b6f21041" y="471.963809"/>
     <use style="fill:#1f77b4;stroke:#1f77b4;" x="69.820642" xlink:href="#mf6b6f21041" y="425.918707"/>
     <use style="fill:#1f77b4;stroke:#1f77b4;" x="117.884281" xlink:href="#mf6b6f21041" y="430.504346"/>
     <use style="fill:#1f77b4;stroke:#1f77b4;" x="146.390991" xlink:href="#mf6b6f21041" y="430.367132"/>
     <use style="fill:#1f77b4;stroke:#1f77b4;" x="175.146306" xlink:href="#mf6b6f21041" y="520.292295"/>
     <use style="fill:#1f77b4;stroke:#1f77b4;" x="99.238903" xlink:href="#mf6b6f21041" y="445.929404"/>
     <use style="fill:#1f77b4;stroke:#1f77b4;" x="245.584397" xlink:href="#mf6b6f21041" y="408.513658"/>
     <use style="fill:#1f77b4;stroke:#1f77b4;" x="223.292813" xlink:href="#mf6b6f21041" y="450.179813"/>
     <use style="fill:#1f77b4;stroke:#1f77b4;" x="124.596616" xlink:href="#mf6b6f21041" y="467.934863"/>
     <use style="fill:#1f77b4;stroke:#1f77b4;" x="255.611467" xlink:href="#mf6b6f21041" y="417.025064"/>
     <use style="fill:#1f77b4;stroke:#1f77b4;" x="99.984719" xlink:href="#mf6b6f21041" y="460.639203"/>
     <use style="fill:#1f77b4;stroke:#1f77b4;" x="131.474689" xlink:href="#mf6b6f21041" y="430.973658"/>
     <use style="fill:#1f77b4;stroke:#1f77b4;" x="144.650755" xlink:href="#mf6b6f21041" y="318.355994"/>
     <use style="fill:#1f77b4;stroke:#1f77b4;" x="108.685895" xlink:href="#mf6b6f21041" y="399.09243"/>
     <use style="fill:#1f77b4;stroke:#1f77b4;" x="133.132056" xlink:href="#mf6b6f21041" y="418.436378"/>
     <use style="fill:#1f77b4;stroke:#1f77b4;" x="134.209344" xlink:href="#mf6b6f21041" y="519.28954"/>
     <use style="fill:#1f77b4;stroke:#1f77b4;" x="203.321542" xlink:href="#mf6b6f21041" y="399.034779"/>
     <use style="fill:#1f77b4;stroke:#1f77b4;" x="149.539988" xlink:href="#mf6b6f21041" y="508.889589"/>
     <use style="fill:#1f77b4;stroke:#1f77b4;" x="68.494748" xlink:href="#mf6b6f21041" y="451.308365"/>
     <use style="fill:#1f77b4;stroke:#1f77b4;" x="101.807822" xlink:href="#mf6b6f21041" y="412.105176"/>
     <use style="fill:#1f77b4;stroke:#1f77b4;" x="95.178355" xlink:href="#mf6b6f21041" y="419.262187"/>
     <use style="fill:#1f77b4;stroke:#1f77b4;" x="212.271323" xlink:href="#mf6b6f21041" y="323.02983"/>
    </g>
   </g>
   <g id="matplotlib.axis_3">
    <g id="xtick_9">
     <g id="line2d_15">
      <g>
       <use style="stroke:#000000;stroke-width:0.8;" x="78.190344" xlink:href="#m26fa7c86f6" y="530.837813"/>
      </g>
     </g>
     <g id="text_18">
      <!-- 15 -->
      <g transform="translate(71.827844 545.43625)scale(0.1 -0.1)">
       <use xlink:href="#DejaVuSans-49"/>
       <use x="63.623047" xlink:href="#DejaVuSans-53"/>
      </g>
     </g>
    </g>
    <g id="xtick_10">
     <g id="line2d_16">
      <g>
       <use style="stroke:#000000;stroke-width:0.8;" x="119.624516" xlink:href="#m26fa7c86f6" y="530.837813"/>
      </g>
     </g>
     <g id="text_19">
      <!-- 20 -->
      <g transform="translate(113.262016 545.43625)scale(0.1 -0.1)">
       <use xlink:href="#DejaVuSans-50"/>
       <use x="63.623047" xlink:href="#DejaVuSans-48"/>
      </g>
     </g>
    </g>
    <g id="xtick_11">
     <g id="line2d_17">
      <g>
       <use style="stroke:#000000;stroke-width:0.8;" x="161.058687" xlink:href="#m26fa7c86f6" y="530.837813"/>
      </g>
     </g>
     <g id="text_20">
      <!-- 25 -->
      <g transform="translate(154.696187 545.43625)scale(0.1 -0.1)">
       <use xlink:href="#DejaVuSans-50"/>
       <use x="63.623047" xlink:href="#DejaVuSans-53"/>
      </g>
     </g>
    </g>
    <g id="xtick_12">
     <g id="line2d_18">
      <g>
       <use style="stroke:#000000;stroke-width:0.8;" x="202.492859" xlink:href="#m26fa7c86f6" y="530.837813"/>
      </g>
     </g>
     <g id="text_21">
      <!-- 30 -->
      <g transform="translate(196.130359 545.43625)scale(0.1 -0.1)">
       <use xlink:href="#DejaVuSans-51"/>
       <use x="63.623047" xlink:href="#DejaVuSans-48"/>
      </g>
     </g>
    </g>
    <g id="xtick_13">
     <g id="line2d_19">
      <g>
       <use style="stroke:#000000;stroke-width:0.8;" x="243.92703" xlink:href="#m26fa7c86f6" y="530.837813"/>
      </g>
     </g>
     <g id="text_22">
      <!-- 35 -->
      <g transform="translate(237.56453 545.43625)scale(0.1 -0.1)">
       <use xlink:href="#DejaVuSans-51"/>
       <use x="63.623047" xlink:href="#DejaVuSans-53"/>
      </g>
     </g>
    </g>
    <g id="xtick_14">
     <g id="line2d_20">
      <g>
       <use style="stroke:#000000;stroke-width:0.8;" x="285.361202" xlink:href="#m26fa7c86f6" y="530.837813"/>
      </g>
     </g>
     <g id="text_23">
      <!-- 40 -->
      <g transform="translate(278.998702 545.43625)scale(0.1 -0.1)">
       <use xlink:href="#DejaVuSans-52"/>
       <use x="63.623047" xlink:href="#DejaVuSans-48"/>
      </g>
     </g>
    </g>
    <g id="xtick_15">
     <g id="line2d_21">
      <g>
       <use style="stroke:#000000;stroke-width:0.8;" x="326.795373" xlink:href="#m26fa7c86f6" y="530.837813"/>
      </g>
     </g>
     <g id="text_24">
      <!-- 45 -->
      <g transform="translate(320.432873 545.43625)scale(0.1 -0.1)">
       <use xlink:href="#DejaVuSans-52"/>
       <use x="63.623047" xlink:href="#DejaVuSans-53"/>
      </g>
     </g>
    </g>
    <g id="text_25">
     <!-- (in) -->
     <defs>
      <path d="M 31 75.875 
Q 24.46875 64.65625 21.28125 53.65625 
Q 18.109375 42.671875 18.109375 31.390625 
Q 18.109375 20.125 21.3125 9.0625 
Q 24.515625 -2 31 -13.1875 
L 23.1875 -13.1875 
Q 15.875 -1.703125 12.234375 9.375 
Q 8.59375 20.453125 8.59375 31.390625 
Q 8.59375 42.28125 12.203125 53.3125 
Q 15.828125 64.359375 23.1875 75.875 
z
" id="DejaVuSans-40"/>
      <path d="M 8.015625 75.875 
L 15.828125 75.875 
Q 23.140625 64.359375 26.78125 53.3125 
Q 30.421875 42.28125 30.421875 31.390625 
Q 30.421875 20.453125 26.78125 9.375 
Q 23.140625 -1.703125 15.828125 -13.1875 
L 8.015625 -13.1875 
Q 14.5 -2 17.703125 9.0625 
Q 20.90625 20.125 20.90625 31.390625 
Q 20.90625 42.671875 17.703125 53.65625 
Q 14.5 64.65625 8.015625 75.875 
z
" id="DejaVuSans-41"/>
     </defs>
     <g transform="translate(176.969531 560.634063)scale(0.12 -0.12)">
      <use xlink:href="#DejaVuSans-40"/>
      <use x="39.013672" xlink:href="#DejaVuSans-105"/>
      <use x="66.796875" xlink:href="#DejaVuSans-110"/>
      <use x="130.175781" xlink:href="#DejaVuSans-41"/>
     </g>
    </g>
   </g>
   <g id="matplotlib.axis_4">
    <g id="ytick_6">
     <g id="line2d_22">
      <g>
       <use style="stroke:#000000;stroke-width:0.8;" x="43.583281" xlink:href="#mbfd2e70d02" y="501.893125"/>
      </g>
     </g>
     <g id="text_26">
      <!-- 10 -->
      <g transform="translate(23.858281 505.692344)scale(0.1 -0.1)">
       <use xlink:href="#DejaVuSans-49"/>
       <use x="63.623047" xlink:href="#DejaVuSans-48"/>
      </g>
     </g>
    </g>
    <g id="ytick_7">
     <g id="line2d_23">
      <g>
       <use style="stroke:#000000;stroke-width:0.8;" x="43.583281" xlink:href="#mbfd2e70d02" y="456.999151"/>
      </g>
     </g>
     <g id="text_27">
      <!-- 11 -->
      <g transform="translate(23.858281 460.79837)scale(0.1 -0.1)">
       <use xlink:href="#DejaVuSans-49"/>
       <use x="63.623047" xlink:href="#DejaVuSans-49"/>
      </g>
     </g>
    </g>
    <g id="ytick_8">
     <g id="line2d_24">
      <g>
       <use style="stroke:#000000;stroke-width:0.8;" x="43.583281" xlink:href="#mbfd2e70d02" y="412.105176"/>
      </g>
     </g>
     <g id="text_28">
      <!-- 12 -->
      <g transform="translate(23.858281 415.904395)scale(0.1 -0.1)">
       <use xlink:href="#DejaVuSans-49"/>
       <use x="63.623047" xlink:href="#DejaVuSans-50"/>
      </g>
     </g>
    </g>
    <g id="ytick_9">
     <g id="line2d_25">
      <g>
       <use style="stroke:#000000;stroke-width:0.8;" x="43.583281" xlink:href="#mbfd2e70d02" y="367.211202"/>
      </g>
     </g>
     <g id="text_29">
      <!-- 13 -->
      <g transform="translate(23.858281 371.010421)scale(0.1 -0.1)">
       <use xlink:href="#DejaVuSans-49"/>
       <use x="63.623047" xlink:href="#DejaVuSans-51"/>
      </g>
     </g>
    </g>
    <g id="ytick_10">
     <g id="line2d_26">
      <g>
       <use style="stroke:#000000;stroke-width:0.8;" x="43.583281" xlink:href="#mbfd2e70d02" y="322.317227"/>
      </g>
     </g>
     <g id="text_30">
      <!-- 14 -->
      <g transform="translate(23.858281 326.116446)scale(0.1 -0.1)">
       <use xlink:href="#DejaVuSans-49"/>
       <use x="63.623047" xlink:href="#DejaVuSans-52"/>
      </g>
     </g>
    </g>
    <g id="text_31">
     <!-- Song Sparrow Avg Sighting/Route -->
     <g transform="translate(17.362656 520.185)rotate(-90)scale(0.12 -0.12)">
      <use xlink:href="#DejaVuSans-83"/>
      <use x="63.476562" xlink:href="#DejaVuSans-111"/>
      <use x="124.658203" xlink:href="#DejaVuSans-110"/>
      <use x="188.037109" xlink:href="#DejaVuSans-103"/>
      <use x="251.513672" xlink:href="#DejaVuSans-32"/>
      <use x="283.300781" xlink:href="#DejaVuSans-83"/>
      <use x="346.777344" xlink:href="#DejaVuSans-112"/>
      <use x="410.253906" xlink:href="#DejaVuSans-97"/>
      <use x="471.533203" xlink:href="#DejaVuSans-114"/>
      <use x="510.896484" xlink:href="#DejaVuSans-114"/>
      <use x="549.759766" xlink:href="#DejaVuSans-111"/>
      <use x="610.941406" xlink:href="#DejaVuSans-119"/>
      <use x="692.728516" xlink:href="#DejaVuSans-32"/>
      <use x="724.515625" xlink:href="#DejaVuSans-65"/>
      <use x="787.048828" xlink:href="#DejaVuSans-118"/>
      <use x="846.228516" xlink:href="#DejaVuSans-103"/>
      <use x="909.705078" xlink:href="#DejaVuSans-32"/>
      <use x="941.492188" xlink:href="#DejaVuSans-83"/>
      <use x="1004.96875" xlink:href="#DejaVuSans-105"/>
      <use x="1032.751953" xlink:href="#DejaVuSans-103"/>
      <use x="1096.228516" xlink:href="#DejaVuSans-104"/>
      <use x="1159.607422" xlink:href="#DejaVuSans-116"/>
      <use x="1198.816406" xlink:href="#DejaVuSans-105"/>
      <use x="1226.599609" xlink:href="#DejaVuSans-110"/>
      <use x="1289.978516" xlink:href="#DejaVuSans-103"/>
      <use x="1353.455078" xlink:href="#DejaVuSans-47"/>
      <use x="1387.146484" xlink:href="#DejaVuSans-82"/>
      <use x="1452.128906" xlink:href="#DejaVuSans-111"/>
      <use x="1513.310547" xlink:href="#DejaVuSans-117"/>
      <use x="1576.689453" xlink:href="#DejaVuSans-116"/>
      <use x="1615.898438" xlink:href="#DejaVuSans-101"/>
     </g>
    </g>
   </g>
   <g id="line2d_27">
    <path clip-path="url(#p3d37a4e528)" d="M 56.632145 463.651117 
L 317.609418 385.199989 
" style="fill:none;stroke:#ff0000;stroke-linecap:square;stroke-width:1.5;"/>
   </g>
   <g id="patch_9">
    <path d="M 43.583281 530.837813 
L 43.583281 308.237813 
" style="fill:none;stroke:#000000;stroke-linecap:square;stroke-linejoin:miter;stroke-width:0.8;"/>
   </g>
   <g id="patch_10">
    <path d="M 330.658281 530.837813 
L 330.658281 308.237813 
" style="fill:none;stroke:#000000;stroke-linecap:square;stroke-linejoin:miter;stroke-width:0.8;"/>
   </g>
   <g id="patch_11">
    <path d="M 43.583281 530.837813 
L 330.658281 530.837813 
" style="fill:none;stroke:#000000;stroke-linecap:square;stroke-linejoin:miter;stroke-width:0.8;"/>
   </g>
   <g id="patch_12">
    <path d="M 43.583281 308.237813 
L 330.658281 308.237813 
" style="fill:none;stroke:#000000;stroke-linecap:square;stroke-linejoin:miter;stroke-width:0.8;"/>
   </g>
   <g id="text_32">
    <g id="patch_13">
     <path d="M 343.583281 365.037813 
L 464.969844 365.037813 
Q 469.169844 365.037813 469.169844 360.837813 
L 469.169844 331.6115 
Q 469.169844 327.4115 464.969844 327.4115 
L 343.583281 327.4115 
Q 339.383281 327.4115 339.383281 331.6115 
L 339.383281 360.837813 
Q 339.383281 365.037813 343.583281 365.037813 
z
" style="fill:#ffffff;stroke:#000000;stroke-linejoin:miter;"/>
    </g>
    <!-- Slope: 0.061 -->
    <g transform="translate(343.583281 342.249313)scale(0.14 -0.14)">
     <use xlink:href="#DejaVuSans-83"/>
     <use x="63.476562" xlink:href="#DejaVuSans-108"/>
     <use x="91.259766" xlink:href="#DejaVuSans-111"/>
     <use x="152.441406" xlink:href="#DejaVuSans-112"/>
     <use x="215.917969" xlink:href="#DejaVuSans-101"/>
     <use x="277.441406" xlink:href="#DejaVuSans-58"/>
     <use x="311.132812" xlink:href="#DejaVuSans-32"/>
     <use x="342.919922" xlink:href="#DejaVuSans-48"/>
     <use x="406.542969" xlink:href="#DejaVuSans-46"/>
     <use x="438.330078" xlink:href="#DejaVuSans-48"/>
     <use x="501.953125" xlink:href="#DejaVuSans-54"/>
     <use x="565.576172" xlink:href="#DejaVuSans-49"/>
    </g>
    <!-- Intercept: 10.008 -->
    <g transform="translate(343.583281 357.92625)scale(0.14 -0.14)">
     <use xlink:href="#DejaVuSans-73"/>
     <use x="29.492188" xlink:href="#DejaVuSans-110"/>
     <use x="92.871094" xlink:href="#DejaVuSans-116"/>
     <use x="132.080078" xlink:href="#DejaVuSans-101"/>
     <use x="193.603516" xlink:href="#DejaVuSans-114"/>
     <use x="232.466797" xlink:href="#DejaVuSans-99"/>
     <use x="287.447266" xlink:href="#DejaVuSans-101"/>
     <use x="348.970703" xlink:href="#DejaVuSans-112"/>
     <use x="412.447266" xlink:href="#DejaVuSans-116"/>
     <use x="451.65625" xlink:href="#DejaVuSans-58"/>
     <use x="485.347656" xlink:href="#DejaVuSans-32"/>
     <use x="517.134766" xlink:href="#DejaVuSans-49"/>
     <use x="580.757812" xlink:href="#DejaVuSans-48"/>
     <use x="644.380859" xlink:href="#DejaVuSans-46"/>
     <use x="676.167969" xlink:href="#DejaVuSans-48"/>
     <use x="739.791016" xlink:href="#DejaVuSans-48"/>
     <use x="803.414062" xlink:href="#DejaVuSans-56"/>
    </g>
   </g>
   <g id="text_33">
    <!-- CALIFORNIA Song Sparrow Precipitation Regression -->
    <defs>
     <path d="M 19.671875 64.796875 
L 19.671875 37.40625 
L 32.078125 37.40625 
Q 38.96875 37.40625 42.71875 40.96875 
Q 46.484375 44.53125 46.484375 51.125 
Q 46.484375 57.671875 42.71875 61.234375 
Q 38.96875 64.796875 32.078125 64.796875 
z
M 9.8125 72.90625 
L 32.078125 72.90625 
Q 44.34375 72.90625 50.609375 67.359375 
Q 56.890625 61.8125 56.890625 51.125 
Q 56.890625 40.328125 50.609375 34.8125 
Q 44.34375 29.296875 32.078125 29.296875 
L 19.671875 29.296875 
L 19.671875 0 
L 9.8125 0 
z
" id="DejaVuSans-80"/>
    </defs>
    <g transform="translate(7.787344 302.237813)scale(0.14 -0.14)">
     <use xlink:href="#DejaVuSans-67"/>
     <use x="69.824219" xlink:href="#DejaVuSans-65"/>
     <use x="138.232422" xlink:href="#DejaVuSans-76"/>
     <use x="193.945312" xlink:href="#DejaVuSans-73"/>
     <use x="223.4375" xlink:href="#DejaVuSans-70"/>
     <use x="280.957031" xlink:href="#DejaVuSans-79"/>
     <use x="359.667969" xlink:href="#DejaVuSans-82"/>
     <use x="429.150391" xlink:href="#DejaVuSans-78"/>
     <use x="503.955078" xlink:href="#DejaVuSans-73"/>
     <use x="533.447266" xlink:href="#DejaVuSans-65"/>
     <use x="601.855469" xlink:href="#DejaVuSans-32"/>
     <use x="633.642578" xlink:href="#DejaVuSans-83"/>
     <use x="697.119141" xlink:href="#DejaVuSans-111"/>
     <use x="758.300781" xlink:href="#DejaVuSans-110"/>
     <use x="821.679688" xlink:href="#DejaVuSans-103"/>
     <use x="885.15625" xlink:href="#DejaVuSans-32"/>
     <use x="916.943359" xlink:href="#DejaVuSans-83"/>
     <use x="980.419922" xlink:href="#DejaVuSans-112"/>
     <use x="1043.896484" xlink:href="#DejaVuSans-97"/>
     <use x="1105.175781" xlink:href="#DejaVuSans-114"/>
     <use x="1144.539062" xlink:href="#DejaVuSans-114"/>
     <use x="1183.402344" xlink:href="#DejaVuSans-111"/>
     <use x="1244.583984" xlink:href="#DejaVuSans-119"/>
     <use x="1326.371094" xlink:href="#DejaVuSans-32"/>
     <use x="1358.158203" xlink:href="#DejaVuSans-80"/>
     <use x="1416.710938" xlink:href="#DejaVuSans-114"/>
     <use x="1455.574219" xlink:href="#DejaVuSans-101"/>
     <use x="1517.097656" xlink:href="#DejaVuSans-99"/>
     <use x="1572.078125" xlink:href="#DejaVuSans-105"/>
     <use x="1599.861328" xlink:href="#DejaVuSans-112"/>
     <use x="1663.337891" xlink:href="#DejaVuSans-105"/>
     <use x="1691.121094" xlink:href="#DejaVuSans-116"/>
     <use x="1730.330078" xlink:href="#DejaVuSans-97"/>
     <use x="1791.609375" xlink:href="#DejaVuSans-116"/>
     <use x="1830.818359" xlink:href="#DejaVuSans-105"/>
     <use x="1858.601562" xlink:href="#DejaVuSans-111"/>
     <use x="1919.783203" xlink:href="#DejaVuSans-110"/>
     <use x="1983.162109" xlink:href="#DejaVuSans-32"/>
     <use x="2014.949219" xlink:href="#DejaVuSans-82"/>
     <use x="2079.931641" xlink:href="#DejaVuSans-101"/>
     <use x="2141.455078" xlink:href="#DejaVuSans-103"/>
     <use x="2204.931641" xlink:href="#DejaVuSans-114"/>
     <use x="2243.794922" xlink:href="#DejaVuSans-101"/>
     <use x="2305.318359" xlink:href="#DejaVuSans-115"/>
     <use x="2357.417969" xlink:href="#DejaVuSans-115"/>
     <use x="2409.517578" xlink:href="#DejaVuSans-105"/>
     <use x="2437.300781" xlink:href="#DejaVuSans-111"/>
     <use x="2498.482422" xlink:href="#DejaVuSans-110"/>
    </g>
   </g>
  </g>
  <g id="axes_3">
   <g id="patch_14">
    <path d="M 43.583281 815.237812 
L 330.658281 815.237812 
L 330.658281 592.637812 
L 43.583281 592.637812 
z
" style="fill:#ffffff;"/>
   </g>
   <g id="PathCollection_3">
    <g clip-path="url(#p55d1c237f4)">
     <use style="fill:#1f77b4;stroke:#1f77b4;" x="131.778611" xlink:href="#mf6b6f21041" y="764.469665"/>
     <use style="fill:#1f77b4;stroke:#1f77b4;" x="234.68451" xlink:href="#mf6b6f21041" y="764.620172"/>
     <use style="fill:#1f77b4;stroke:#1f77b4;" x="305.746814" xlink:href="#mf6b6f21041" y="618.576013"/>
     <use style="fill:#1f77b4;stroke:#1f77b4;" x="140.037203" xlink:href="#mf6b6f21041" y="805.119631"/>
     <use style="fill:#1f77b4;stroke:#1f77b4;" x="127.514873" xlink:href="#mf6b6f21041" y="804.423384"/>
     <use style="fill:#1f77b4;stroke:#1f77b4;" x="152.828418" xlink:href="#mf6b6f21041" y="683.903359"/>
     <use style="fill:#1f77b4;stroke:#1f77b4;" x="86.433179" xlink:href="#mf6b6f21041" y="707.72867"/>
     <use style="fill:#1f77b4;stroke:#1f77b4;" x="106.292212" xlink:href="#mf6b6f21041" y="743.57144"/>
     <use style="fill:#1f77b4;stroke:#1f77b4;" x="122.751778" xlink:href="#mf6b6f21041" y="756.363809"/>
     <use style="fill:#1f77b4;stroke:#1f77b4;" x="86.452385" xlink:href="#mf6b6f21041" y="710.318707"/>
     <use style="fill:#1f77b4;stroke:#1f77b4;" x="96.593167" xlink:href="#mf6b6f21041" y="714.904346"/>
     <use style="fill:#1f77b4;stroke:#1f77b4;" x="99.646926" xlink:href="#mf6b6f21041" y="714.767132"/>
     <use style="fill:#1f77b4;stroke:#1f77b4;" x="192.776957" xlink:href="#mf6b6f21041" y="804.692295"/>
     <use style="fill:#1f77b4;stroke:#1f77b4;" x="110.536744" xlink:href="#mf6b6f21041" y="730.329404"/>
     <use style="fill:#1f77b4;stroke:#1f77b4;" x="251.701051" xlink:href="#mf6b6f21041" y="692.913658"/>
     <use style="fill:#1f77b4;stroke:#1f77b4;" x="212.021397" xlink:href="#mf6b6f21041" y="734.579813"/>
     <use style="fill:#1f77b4;stroke:#1f77b4;" x="135.31252" xlink:href="#mf6b6f21041" y="752.334863"/>
     <use style="fill:#1f77b4;stroke:#1f77b4;" x="262.187542" xlink:href="#mf6b6f21041" y="701.425064"/>
     <use style="fill:#1f77b4;stroke:#1f77b4;" x="151.311142" xlink:href="#mf6b6f21041" y="745.039203"/>
     <use style="fill:#1f77b4;stroke:#1f77b4;" x="143.359846" xlink:href="#mf6b6f21041" y="715.373658"/>
     <use style="fill:#1f77b4;stroke:#1f77b4;" x="99.589308" xlink:href="#mf6b6f21041" y="602.755994"/>
     <use style="fill:#1f77b4;stroke:#1f77b4;" x="104.94779" xlink:href="#mf6b6f21041" y="683.49243"/>
     <use style="fill:#1f77b4;stroke:#1f77b4;" x="161.18304" xlink:href="#mf6b6f21041" y="702.836378"/>
     <use style="fill:#1f77b4;stroke:#1f77b4;" x="132.566058" xlink:href="#mf6b6f21041" y="803.68954"/>
     <use style="fill:#1f77b4;stroke:#1f77b4;" x="226.406712" xlink:href="#mf6b6f21041" y="683.434779"/>
     <use style="fill:#1f77b4;stroke:#1f77b4;" x="165.946135" xlink:href="#mf6b6f21041" y="793.289589"/>
     <use style="fill:#1f77b4;stroke:#1f77b4;" x="68.494748" xlink:href="#mf6b6f21041" y="735.708365"/>
     <use style="fill:#1f77b4;stroke:#1f77b4;" x="70.607411" xlink:href="#mf6b6f21041" y="696.505176"/>
     <use style="fill:#1f77b4;stroke:#1f77b4;" x="73.142607" xlink:href="#mf6b6f21041" y="703.662187"/>
     <use style="fill:#1f77b4;stroke:#1f77b4;" x="167.232939" xlink:href="#mf6b6f21041" y="607.42983"/>
    </g>
   </g>
   <g id="matplotlib.axis_5">
    <g id="xtick_16">
     <g id="line2d_28">
      <g>
       <use style="stroke:#000000;stroke-width:0.8;" x="63.136266" xlink:href="#m26fa7c86f6" y="815.237812"/>
      </g>
     </g>
     <g id="text_34">
      <!-- −4 -->
      <defs>
       <path d="M 10.59375 35.5 
L 73.1875 35.5 
L 73.1875 27.203125 
L 10.59375 27.203125 
z
" id="DejaVuSans-8722"/>
      </defs>
      <g transform="translate(55.765173 829.83625)scale(0.1 -0.1)">
       <use xlink:href="#DejaVuSans-8722"/>
       <use x="83.789062" xlink:href="#DejaVuSans-52"/>
      </g>
     </g>
    </g>
    <g id="xtick_17">
     <g id="line2d_29">
      <g>
       <use style="stroke:#000000;stroke-width:0.8;" x="109.230734" xlink:href="#m26fa7c86f6" y="815.237812"/>
      </g>
     </g>
     <g id="text_35">
      <!-- −2 -->
      <g transform="translate(101.85964 829.83625)scale(0.1 -0.1)">
       <use xlink:href="#DejaVuSans-8722"/>
       <use x="83.789062" xlink:href="#DejaVuSans-50"/>
      </g>
     </g>
    </g>
    <g id="xtick_18">
     <g id="line2d_30">
      <g>
       <use style="stroke:#000000;stroke-width:0.8;" x="155.325202" xlink:href="#m26fa7c86f6" y="815.237812"/>
      </g>
     </g>
     <g id="text_36">
      <!-- 0 -->
      <g transform="translate(152.143952 829.83625)scale(0.1 -0.1)">
       <use xlink:href="#DejaVuSans-48"/>
      </g>
     </g>
    </g>
    <g id="xtick_19">
     <g id="line2d_31">
      <g>
       <use style="stroke:#000000;stroke-width:0.8;" x="201.419669" xlink:href="#m26fa7c86f6" y="815.237812"/>
      </g>
     </g>
     <g id="text_37">
      <!-- 2 -->
      <g transform="translate(198.238419 829.83625)scale(0.1 -0.1)">
       <use xlink:href="#DejaVuSans-50"/>
      </g>
     </g>
    </g>
    <g id="xtick_20">
     <g id="line2d_32">
      <g>
       <use style="stroke:#000000;stroke-width:0.8;" x="247.514137" xlink:href="#m26fa7c86f6" y="815.237812"/>
      </g>
     </g>
     <g id="text_38">
      <!-- 4 -->
      <g transform="translate(244.332887 829.83625)scale(0.1 -0.1)">
       <use xlink:href="#DejaVuSans-52"/>
      </g>
     </g>
    </g>
    <g id="xtick_21">
     <g id="line2d_33">
      <g>
       <use style="stroke:#000000;stroke-width:0.8;" x="293.608604" xlink:href="#m26fa7c86f6" y="815.237812"/>
      </g>
     </g>
     <g id="text_39">
      <!-- 6 -->
      <g transform="translate(290.427354 829.83625)scale(0.1 -0.1)">
       <use xlink:href="#DejaVuSans-54"/>
      </g>
     </g>
    </g>
    <g id="text_40">
     <!-- PDSI -->
     <defs>
      <path d="M 19.671875 64.796875 
L 19.671875 8.109375 
L 31.59375 8.109375 
Q 46.6875 8.109375 53.6875 14.9375 
Q 60.6875 21.78125 60.6875 36.53125 
Q 60.6875 51.171875 53.6875 57.984375 
Q 46.6875 64.796875 31.59375 64.796875 
z
M 9.8125 72.90625 
L 30.078125 72.90625 
Q 51.265625 72.90625 61.171875 64.09375 
Q 71.09375 55.28125 71.09375 36.53125 
Q 71.09375 17.671875 61.125 8.828125 
Q 51.171875 0 30.078125 0 
L 9.8125 0 
z
" id="DejaVuSans-68"/>
     </defs>
     <g transform="translate(173.303906 845.034063)scale(0.12 -0.12)">
      <use xlink:href="#DejaVuSans-80"/>
      <use x="60.302734" xlink:href="#DejaVuSans-68"/>
      <use x="137.304688" xlink:href="#DejaVuSans-83"/>
      <use x="200.78125" xlink:href="#DejaVuSans-73"/>
     </g>
    </g>
   </g>
   <g id="matplotlib.axis_6">
    <g id="ytick_11">
     <g id="line2d_34">
      <g>
       <use style="stroke:#000000;stroke-width:0.8;" x="43.583281" xlink:href="#mbfd2e70d02" y="786.293125"/>
      </g>
     </g>
     <g id="text_41">
      <!-- 10 -->
      <g transform="translate(23.858281 790.092344)scale(0.1 -0.1)">
       <use xlink:href="#DejaVuSans-49"/>
       <use x="63.623047" xlink:href="#DejaVuSans-48"/>
      </g>
     </g>
    </g>
    <g id="ytick_12">
     <g id="line2d_35">
      <g>
       <use style="stroke:#000000;stroke-width:0.8;" x="43.583281" xlink:href="#mbfd2e70d02" y="741.399151"/>
      </g>
     </g>
     <g id="text_42">
      <!-- 11 -->
      <g transform="translate(23.858281 745.19837)scale(0.1 -0.1)">
       <use xlink:href="#DejaVuSans-49"/>
       <use x="63.623047" xlink:href="#DejaVuSans-49"/>
      </g>
     </g>
    </g>
    <g id="ytick_13">
     <g id="line2d_36">
      <g>
       <use style="stroke:#000000;stroke-width:0.8;" x="43.583281" xlink:href="#mbfd2e70d02" y="696.505176"/>
      </g>
     </g>
     <g id="text_43">
      <!-- 12 -->
      <g transform="translate(23.858281 700.304395)scale(0.1 -0.1)">
       <use xlink:href="#DejaVuSans-49"/>
       <use x="63.623047" xlink:href="#DejaVuSans-50"/>
      </g>
     </g>
    </g>
    <g id="ytick_14">
     <g id="line2d_37">
      <g>
       <use style="stroke:#000000;stroke-width:0.8;" x="43.583281" xlink:href="#mbfd2e70d02" y="651.611202"/>
      </g>
     </g>
     <g id="text_44">
      <!-- 13 -->
      <g transform="translate(23.858281 655.410421)scale(0.1 -0.1)">
       <use xlink:href="#DejaVuSans-49"/>
       <use x="63.623047" xlink:href="#DejaVuSans-51"/>
      </g>
     </g>
    </g>
    <g id="ytick_15">
     <g id="line2d_38">
      <g>
       <use style="stroke:#000000;stroke-width:0.8;" x="43.583281" xlink:href="#mbfd2e70d02" y="606.717227"/>
      </g>
     </g>
     <g id="text_45">
      <!-- 14 -->
      <g transform="translate(23.858281 610.516446)scale(0.1 -0.1)">
       <use xlink:href="#DejaVuSans-49"/>
       <use x="63.623047" xlink:href="#DejaVuSans-52"/>
      </g>
     </g>
    </g>
    <g id="text_46">
     <!-- Song Sparrow Avg Sighting/Route -->
     <g transform="translate(17.362656 804.585)rotate(-90)scale(0.12 -0.12)">
      <use xlink:href="#DejaVuSans-83"/>
      <use x="63.476562" xlink:href="#DejaVuSans-111"/>
      <use x="124.658203" xlink:href="#DejaVuSans-110"/>
      <use x="188.037109" xlink:href="#DejaVuSans-103"/>
      <use x="251.513672" xlink:href="#DejaVuSans-32"/>
      <use x="283.300781" xlink:href="#DejaVuSans-83"/>
      <use x="346.777344" xlink:href="#DejaVuSans-112"/>
      <use x="410.253906" xlink:href="#DejaVuSans-97"/>
      <use x="471.533203" xlink:href="#DejaVuSans-114"/>
      <use x="510.896484" xlink:href="#DejaVuSans-114"/>
      <use x="549.759766" xlink:href="#DejaVuSans-111"/>
      <use x="610.941406" xlink:href="#DejaVuSans-119"/>
      <use x="692.728516" xlink:href="#DejaVuSans-32"/>
      <use x="724.515625" xlink:href="#DejaVuSans-65"/>
      <use x="787.048828" xlink:href="#DejaVuSans-118"/>
      <use x="846.228516" xlink:href="#DejaVuSans-103"/>
      <use x="909.705078" xlink:href="#DejaVuSans-32"/>
      <use x="941.492188" xlink:href="#DejaVuSans-83"/>
      <use x="1004.96875" xlink:href="#DejaVuSans-105"/>
      <use x="1032.751953" xlink:href="#DejaVuSans-103"/>
      <use x="1096.228516" xlink:href="#DejaVuSans-104"/>
      <use x="1159.607422" xlink:href="#DejaVuSans-116"/>
      <use x="1198.816406" xlink:href="#DejaVuSans-105"/>
      <use x="1226.599609" xlink:href="#DejaVuSans-110"/>
      <use x="1289.978516" xlink:href="#DejaVuSans-103"/>
      <use x="1353.455078" xlink:href="#DejaVuSans-47"/>
      <use x="1387.146484" xlink:href="#DejaVuSans-82"/>
      <use x="1452.128906" xlink:href="#DejaVuSans-111"/>
      <use x="1513.310547" xlink:href="#DejaVuSans-117"/>
      <use x="1576.689453" xlink:href="#DejaVuSans-116"/>
      <use x="1615.898438" xlink:href="#DejaVuSans-101"/>
     </g>
    </g>
   </g>
   <g id="line2d_39">
    <path clip-path="url(#p55d1c237f4)" d="M 56.632145 731.660924 
L 317.609418 704.420432 
" style="fill:none;stroke:#ff0000;stroke-linecap:square;stroke-width:1.5;"/>
   </g>
   <g id="patch_15">
    <path d="M 43.583281 815.237813 
L 43.583281 592.637813 
" style="fill:none;stroke:#000000;stroke-linecap:square;stroke-linejoin:miter;stroke-width:0.8;"/>
   </g>
   <g id="patch_16">
    <path d="M 330.658281 815.237813 
L 330.658281 592.637813 
" style="fill:none;stroke:#000000;stroke-linecap:square;stroke-linejoin:miter;stroke-width:0.8;"/>
   </g>
   <g id="patch_17">
    <path d="M 43.583281 815.237812 
L 330.658281 815.237812 
" style="fill:none;stroke:#000000;stroke-linecap:square;stroke-linejoin:miter;stroke-width:0.8;"/>
   </g>
   <g id="patch_18">
    <path d="M 43.583281 592.637812 
L 330.658281 592.637812 
" style="fill:none;stroke:#000000;stroke-linecap:square;stroke-linejoin:miter;stroke-width:0.8;"/>
   </g>
   <g id="text_47">
    <g id="patch_19">
     <path d="M 343.583281 649.437813 
L 464.969844 649.437813 
Q 469.169844 649.437813 469.169844 645.237813 
L 469.169844 616.0115 
Q 469.169844 611.8115 464.969844 611.8115 
L 343.583281 611.8115 
Q 339.383281 611.8115 339.383281 616.0115 
L 339.383281 645.237813 
Q 339.383281 649.437813 343.583281 649.437813 
z
" style="fill:#ffffff;stroke:#000000;stroke-linejoin:miter;"/>
    </g>
    <!-- Slope: 0.059 -->
    <g transform="translate(343.583281 626.649312)scale(0.14 -0.14)">
     <use xlink:href="#DejaVuSans-83"/>
     <use x="63.476562" xlink:href="#DejaVuSans-108"/>
     <use x="91.259766" xlink:href="#DejaVuSans-111"/>
     <use x="152.441406" xlink:href="#DejaVuSans-112"/>
     <use x="215.917969" xlink:href="#DejaVuSans-101"/>
     <use x="277.441406" xlink:href="#DejaVuSans-58"/>
     <use x="311.132812" xlink:href="#DejaVuSans-32"/>
     <use x="342.919922" xlink:href="#DejaVuSans-48"/>
     <use x="406.542969" xlink:href="#DejaVuSans-46"/>
     <use x="438.330078" xlink:href="#DejaVuSans-48"/>
     <use x="501.953125" xlink:href="#DejaVuSans-53"/>
     <use x="565.576172" xlink:href="#DejaVuSans-57"/>
    </g>
    <!-- Intercept: 11.439 -->
    <g transform="translate(343.583281 642.32625)scale(0.14 -0.14)">
     <use xlink:href="#DejaVuSans-73"/>
     <use x="29.492188" xlink:href="#DejaVuSans-110"/>
     <use x="92.871094" xlink:href="#DejaVuSans-116"/>
     <use x="132.080078" xlink:href="#DejaVuSans-101"/>
     <use x="193.603516" xlink:href="#DejaVuSans-114"/>
     <use x="232.466797" xlink:href="#DejaVuSans-99"/>
     <use x="287.447266" xlink:href="#DejaVuSans-101"/>
     <use x="348.970703" xlink:href="#DejaVuSans-112"/>
     <use x="412.447266" xlink:href="#DejaVuSans-116"/>
     <use x="451.65625" xlink:href="#DejaVuSans-58"/>
     <use x="485.347656" xlink:href="#DejaVuSans-32"/>
     <use x="517.134766" xlink:href="#DejaVuSans-49"/>
     <use x="580.757812" xlink:href="#DejaVuSans-49"/>
     <use x="644.380859" xlink:href="#DejaVuSans-46"/>
     <use x="676.167969" xlink:href="#DejaVuSans-52"/>
     <use x="739.791016" xlink:href="#DejaVuSans-51"/>
     <use x="803.414062" xlink:href="#DejaVuSans-57"/>
    </g>
   </g>
   <g id="text_48">
    <!-- CALIFORNIA Song Sparrow Drought Regression -->
    <g transform="translate(23.083437 586.637812)scale(0.14 -0.14)">
     <use xlink:href="#DejaVuSans-67"/>
     <use x="69.824219" xlink:href="#DejaVuSans-65"/>
     <use x="138.232422" xlink:href="#DejaVuSans-76"/>
     <use x="193.945312" xlink:href="#DejaVuSans-73"/>
     <use x="223.4375" xlink:href="#DejaVuSans-70"/>
     <use x="280.957031" xlink:href="#DejaVuSans-79"/>
     <use x="359.667969" xlink:href="#DejaVuSans-82"/>
     <use x="429.150391" xlink:href="#DejaVuSans-78"/>
     <use x="503.955078" xlink:href="#DejaVuSans-73"/>
     <use x="533.447266" xlink:href="#DejaVuSans-65"/>
     <use x="601.855469" xlink:href="#DejaVuSans-32"/>
     <use x="633.642578" xlink:href="#DejaVuSans-83"/>
     <use x="697.119141" xlink:href="#DejaVuSans-111"/>
     <use x="758.300781" xlink:href="#DejaVuSans-110"/>
     <use x="821.679688" xlink:href="#DejaVuSans-103"/>
     <use x="885.15625" xlink:href="#DejaVuSans-32"/>
     <use x="916.943359" xlink:href="#DejaVuSans-83"/>
     <use x="980.419922" xlink:href="#DejaVuSans-112"/>
     <use x="1043.896484" xlink:href="#DejaVuSans-97"/>
     <use x="1105.175781" xlink:href="#DejaVuSans-114"/>
     <use x="1144.539062" xlink:href="#DejaVuSans-114"/>
     <use x="1183.402344" xlink:href="#DejaVuSans-111"/>
     <use x="1244.583984" xlink:href="#DejaVuSans-119"/>
     <use x="1326.371094" xlink:href="#DejaVuSans-32"/>
     <use x="1358.158203" xlink:href="#DejaVuSans-68"/>
     <use x="1435.160156" xlink:href="#DejaVuSans-114"/>
     <use x="1474.023438" xlink:href="#DejaVuSans-111"/>
     <use x="1535.205078" xlink:href="#DejaVuSans-117"/>
     <use x="1598.583984" xlink:href="#DejaVuSans-103"/>
     <use x="1662.060547" xlink:href="#DejaVuSans-104"/>
     <use x="1725.439453" xlink:href="#DejaVuSans-116"/>
     <use x="1764.648438" xlink:href="#DejaVuSans-32"/>
     <use x="1796.435547" xlink:href="#DejaVuSans-82"/>
     <use x="1861.417969" xlink:href="#DejaVuSans-101"/>
     <use x="1922.941406" xlink:href="#DejaVuSans-103"/>
     <use x="1986.417969" xlink:href="#DejaVuSans-114"/>
     <use x="2025.28125" xlink:href="#DejaVuSans-101"/>
     <use x="2086.804688" xlink:href="#DejaVuSans-115"/>
     <use x="2138.904297" xlink:href="#DejaVuSans-115"/>
     <use x="2191.003906" xlink:href="#DejaVuSans-105"/>
     <use x="2218.787109" xlink:href="#DejaVuSans-111"/>
     <use x="2279.96875" xlink:href="#DejaVuSans-110"/>
    </g>
   </g>
  </g>
 </g>
 <defs>
  <clipPath id="p290371fc38">
   <rect height="222.6" width="287.075" x="43.583281" y="23.837812"/>
  </clipPath>
  <clipPath id="p3d37a4e528">
   <rect height="222.6" width="287.075" x="43.583281" y="308.237813"/>
  </clipPath>
  <clipPath id="p55d1c237f4">
   <rect height="222.6" width="287.075" x="43.583281" y="592.637812"/>
  </clipPath>
 </defs>
</svg>
