<?xml version="1.0" encoding="utf-8" standalone="no"?>
<!DOCTYPE svg PUBLIC "-//W3C//DTD SVG 1.1//EN"
  "http://www.w3.org/Graphics/SVG/1.1/DTD/svg11.dtd">
<!-- Created with matplotlib (https://matplotlib.org/) -->
<svg height="424.185pt" version="1.1" viewBox="0 0 856.07375 424.185" width="856.07375pt" xmlns="http://www.w3.org/2000/svg" xmlns:xlink="http://www.w3.org/1999/xlink">
 <defs>
  <style type="text/css">
*{stroke-linecap:butt;stroke-linejoin:round;}
  </style>
 </defs>
 <g id="figure_1">
  <g id="patch_1">
   <path d="M 0 424.185 
L 856.07375 424.185 
L 856.07375 0 
L 0 0 
z
" style="fill:#ffffff;"/>
  </g>
  <g id="axes_1">
   <g id="patch_2">
    <path d="M 44.474375 382.7575 
L 412.10864 382.7575 
L 412.10864 25.3575 
L 44.474375 25.3575 
z
" style="fill:#ffffff;"/>
   </g>
   <g id="PathCollection_1">
    <defs>
     <path d="M 0 3 
C 0.795609 3 1.55874 2.683901 2.12132 2.12132 
C 2.683901 1.55874 3 0.795609 3 0 
C 3 -0.795609 2.683901 -1.55874 2.12132 -2.12132 
C 1.55874 -2.683901 0.795609 -3 0 -3 
C -0.795609 -3 -1.55874 -2.683901 -2.12132 -2.12132 
C -2.683901 -1.55874 -3 -0.795609 -3 0 
C -3 0.795609 -2.683901 1.55874 -2.12132 2.12132 
C -1.55874 2.683901 -0.795609 3 0 3 
z
" id="m219d07bdc5" style="stroke:#1f77b4;"/>
    </defs>
    <g clip-path="url(#pa8f4e61692)">
     <use style="fill:#1f77b4;stroke:#1f77b4;" x="135.454572" xlink:href="#m219d07bdc5" y="204.923155"/>
     <use style="fill:#1f77b4;stroke:#1f77b4;" x="101.548909" xlink:href="#m219d07bdc5" y="159.00223"/>
     <use style="fill:#1f77b4;stroke:#1f77b4;" x="133.840017" xlink:href="#m219d07bdc5" y="173.842026"/>
     <use style="fill:#1f77b4;stroke:#1f77b4;" x="130.610906" xlink:href="#m219d07bdc5" y="172.275603"/>
     <use style="fill:#1f77b4;stroke:#1f77b4;" x="101.548909" xlink:href="#m219d07bdc5" y="156.776261"/>
     <use style="fill:#1f77b4;stroke:#1f77b4;" x="132.225461" xlink:href="#m219d07bdc5" y="170.379407"/>
     <use style="fill:#1f77b4;stroke:#1f77b4;" x="180.662123" xlink:href="#m219d07bdc5" y="225.039323"/>
     <use style="fill:#1f77b4;stroke:#1f77b4;" x="133.840017" xlink:href="#m219d07bdc5" y="249.689873"/>
     <use style="fill:#1f77b4;stroke:#1f77b4;" x="96.705242" xlink:href="#m219d07bdc5" y="258.841081"/>
     <use style="fill:#1f77b4;stroke:#1f77b4;" x="151.600126" xlink:href="#m219d07bdc5" y="163.783942"/>
     <use style="fill:#1f77b4;stroke:#1f77b4;" x="138.683683" xlink:href="#m219d07bdc5" y="143.502888"/>
     <use style="fill:#1f77b4;stroke:#1f77b4;" x="122.538129" xlink:href="#m219d07bdc5" y="205.005598"/>
     <use style="fill:#1f77b4;stroke:#1f77b4;" x="106.392575" xlink:href="#m219d07bdc5" y="166.751902"/>
     <use style="fill:#1f77b4;stroke:#1f77b4;" x="127.381795" xlink:href="#m219d07bdc5" y="205.994918"/>
     <use style="fill:#1f77b4;stroke:#1f77b4;" x="124.152684" xlink:href="#m219d07bdc5" y="189.588699"/>
     <use style="fill:#1f77b4;stroke:#1f77b4;" x="87.01791" xlink:href="#m219d07bdc5" y="188.599379"/>
     <use style="fill:#1f77b4;stroke:#1f77b4;" x="120.923573" xlink:href="#m219d07bdc5" y="226.275972"/>
     <use style="fill:#1f77b4;stroke:#1f77b4;" x="196.807677" xlink:href="#m219d07bdc5" y="193.298648"/>
     <use style="fill:#1f77b4;stroke:#1f77b4;" x="166.131125" xlink:href="#m219d07bdc5" y="186.538296"/>
     <use style="fill:#1f77b4;stroke:#1f77b4;" x="141.912794" xlink:href="#m219d07bdc5" y="178.788625"/>
     <use style="fill:#1f77b4;stroke:#1f77b4;" x="164.516569" xlink:href="#m219d07bdc5" y="171.6985"/>
     <use style="fill:#1f77b4;stroke:#1f77b4;" x="153.214681" xlink:href="#m219d07bdc5" y="171.45117"/>
     <use style="fill:#1f77b4;stroke:#1f77b4;" x="130.610906" xlink:href="#m219d07bdc5" y="229.656148"/>
     <use style="fill:#1f77b4;stroke:#1f77b4;" x="135.454572" xlink:href="#m219d07bdc5" y="172.852707"/>
     <use style="fill:#1f77b4;stroke:#1f77b4;" x="161.287458" xlink:href="#m219d07bdc5" y="225.286653"/>
     <use style="fill:#1f77b4;stroke:#1f77b4;" x="175.818457" xlink:href="#m219d07bdc5" y="212.672826"/>
     <use style="fill:#1f77b4;stroke:#1f77b4;" x="154.829237" xlink:href="#m219d07bdc5" y="184.559657"/>
     <use style="fill:#1f77b4;stroke:#1f77b4;" x="108.00713" xlink:href="#m219d07bdc5" y="190.907792"/>
     <use style="fill:#1f77b4;stroke:#1f77b4;" x="117.694463" xlink:href="#m219d07bdc5" y="215.311012"/>
     <use style="fill:#1f77b4;stroke:#1f77b4;" x="167.74568" xlink:href="#m219d07bdc5" y="138.968506"/>
    </g>
   </g>
   <g id="PathCollection_2">
    <defs>
     <path d="M 0 3 
C 0.795609 3 1.55874 2.683901 2.12132 2.12132 
C 2.683901 1.55874 3 0.795609 3 0 
C 3 -0.795609 2.683901 -1.55874 2.12132 -2.12132 
C 1.55874 -2.683901 0.795609 -3 0 -3 
C -0.795609 -3 -1.55874 -2.683901 -2.12132 -2.12132 
C -2.683901 -1.55874 -3 -0.795609 -3 0 
C -3 0.795609 -2.683901 1.55874 -2.12132 2.12132 
C -1.55874 2.683901 -0.795609 3 0 3 
z
" id="m7a990b8f45" style="stroke:#ff7f0e;"/>
    </defs>
    <g clip-path="url(#pa8f4e61692)">
     <use style="fill:#ff7f0e;stroke:#ff7f0e;" x="138.683683" xlink:href="#m7a990b8f45" y="329.412555"/>
     <use style="fill:#ff7f0e;stroke:#ff7f0e;" x="75.716022" xlink:href="#m7a990b8f45" y="299.89785"/>
     <use style="fill:#ff7f0e;stroke:#ff7f0e;" x="93.476132" xlink:href="#m7a990b8f45" y="305.916211"/>
     <use style="fill:#ff7f0e;stroke:#ff7f0e;" x="77.330577" xlink:href="#m7a990b8f45" y="331.803411"/>
     <use style="fill:#ff7f0e;stroke:#ff7f0e;" x="66.02869" xlink:href="#m7a990b8f45" y="343.427918"/>
     <use style="fill:#ff7f0e;stroke:#ff7f0e;" x="116.079907" xlink:href="#m7a990b8f45" y="313.006336"/>
     <use style="fill:#ff7f0e;stroke:#ff7f0e;" x="119.309018" xlink:href="#m7a990b8f45" y="338.151546"/>
     <use style="fill:#ff7f0e;stroke:#ff7f0e;" x="124.152684" xlink:href="#m7a990b8f45" y="366.512045"/>
     <use style="fill:#ff7f0e;stroke:#ff7f0e;" x="98.319798" xlink:href="#m7a990b8f45" y="336.832453"/>
     <use style="fill:#ff7f0e;stroke:#ff7f0e;" x="108.00713" xlink:href="#m7a990b8f45" y="333.864494"/>
     <use style="fill:#ff7f0e;stroke:#ff7f0e;" x="106.392575" xlink:href="#m7a990b8f45" y="319.766688"/>
     <use style="fill:#ff7f0e;stroke:#ff7f0e;" x="119.309018" xlink:href="#m7a990b8f45" y="337.162227"/>
     <use style="fill:#ff7f0e;stroke:#ff7f0e;" x="61.185023" xlink:href="#m7a990b8f45" y="308.142181"/>
     <use style="fill:#ff7f0e;stroke:#ff7f0e;" x="125.76724" xlink:href="#m7a990b8f45" y="345.076784"/>
     <use style="fill:#ff7f0e;stroke:#ff7f0e;" x="106.392575" xlink:href="#m7a990b8f45" y="293.467271"/>
     <use style="fill:#ff7f0e;stroke:#ff7f0e;" x="95.090687" xlink:href="#m7a990b8f45" y="318.035378"/>
     <use style="fill:#ff7f0e;stroke:#ff7f0e;" x="98.319798" xlink:href="#m7a990b8f45" y="312.429233"/>
     <use style="fill:#ff7f0e;stroke:#ff7f0e;" x="119.309018" xlink:href="#m7a990b8f45" y="299.320747"/>
     <use style="fill:#ff7f0e;stroke:#ff7f0e;" x="130.610906" xlink:href="#m7a990b8f45" y="329.247669"/>
     <use style="fill:#ff7f0e;stroke:#ff7f0e;" x="119.309018" xlink:href="#m7a990b8f45" y="342.685928"/>
     <use style="fill:#ff7f0e;stroke:#ff7f0e;" x="130.610906" xlink:href="#m7a990b8f45" y="362.472323"/>
     <use style="fill:#ff7f0e;stroke:#ff7f0e;" x="101.548909" xlink:href="#m7a990b8f45" y="361.977663"/>
     <use style="fill:#ff7f0e;stroke:#ff7f0e;" x="127.381795" xlink:href="#m7a990b8f45" y="335.925577"/>
     <use style="fill:#ff7f0e;stroke:#ff7f0e;" x="117.694463" xlink:href="#m7a990b8f45" y="340.624846"/>
     <use style="fill:#ff7f0e;stroke:#ff7f0e;" x="124.152684" xlink:href="#m7a990b8f45" y="326.527039"/>
     <use style="fill:#ff7f0e;stroke:#ff7f0e;" x="130.610906" xlink:href="#m7a990b8f45" y="355.629528"/>
     <use style="fill:#ff7f0e;stroke:#ff7f0e;" x="132.225461" xlink:href="#m7a990b8f45" y="336.585123"/>
     <use style="fill:#ff7f0e;stroke:#ff7f0e;" x="90.247021" xlink:href="#m7a990b8f45" y="328.340792"/>
     <use style="fill:#ff7f0e;stroke:#ff7f0e;" x="93.476132" xlink:href="#m7a990b8f45" y="320.508678"/>
     <use style="fill:#ff7f0e;stroke:#ff7f0e;" x="111.236241" xlink:href="#m7a990b8f45" y="318.447595"/>
    </g>
   </g>
   <g id="PathCollection_3">
    <defs>
     <path d="M 0 3 
C 0.795609 3 1.55874 2.683901 2.12132 2.12132 
C 2.683901 1.55874 3 0.795609 3 0 
C 3 -0.795609 2.683901 -1.55874 2.12132 -2.12132 
C 1.55874 -2.683901 0.795609 -3 0 -3 
C -0.795609 -3 -1.55874 -2.683901 -2.12132 -2.12132 
C -2.683901 -1.55874 -3 -0.795609 -3 0 
C -3 0.795609 -2.683901 1.55874 -2.12132 2.12132 
C -1.55874 2.683901 -0.795609 3 0 3 
z
" id="m16ef8b3586" style="stroke:#2ca02c;"/>
    </defs>
    <g clip-path="url(#pa8f4e61692)">
     <use style="fill:#2ca02c;stroke:#2ca02c;" x="390.554326" xlink:href="#m16ef8b3586" y="244.331058"/>
     <use style="fill:#2ca02c;stroke:#2ca02c;" x="342.117664" xlink:href="#m16ef8b3586" y="196.926154"/>
     <use style="fill:#2ca02c;stroke:#2ca02c;" x="363.106884" xlink:href="#m16ef8b3586" y="110.608006"/>
     <use style="fill:#2ca02c;stroke:#2ca02c;" x="372.794216" xlink:href="#m16ef8b3586" y="309.62616"/>
     <use style="fill:#2ca02c;stroke:#2ca02c;" x="358.263218" xlink:href="#m16ef8b3586" y="339.470639"/>
     <use style="fill:#2ca02c;stroke:#2ca02c;" x="384.096104" xlink:href="#m16ef8b3586" y="260.737277"/>
     <use style="fill:#2ca02c;stroke:#2ca02c;" x="374.408772" xlink:href="#m16ef8b3586" y="298.248983"/>
     <use style="fill:#2ca02c;stroke:#2ca02c;" x="382.481549" xlink:href="#m16ef8b3586" y="319.684244"/>
     <use style="fill:#2ca02c;stroke:#2ca02c;" x="371.179661" xlink:href="#m16ef8b3586" y="337.409556"/>
     <use style="fill:#2ca02c;stroke:#2ca02c;" x="369.565106" xlink:href="#m16ef8b3586" y="345.324114"/>
     <use style="fill:#2ca02c;stroke:#2ca02c;" x="371.179661" xlink:href="#m16ef8b3586" y="297.506994"/>
     <use style="fill:#2ca02c;stroke:#2ca02c;" x="390.554326" xlink:href="#m16ef8b3586" y="269.146494"/>
     <use style="fill:#2ca02c;stroke:#2ca02c;" x="364.721439" xlink:href="#m16ef8b3586" y="240.538665"/>
     <use style="fill:#2ca02c;stroke:#2ca02c;" x="369.565106" xlink:href="#m16ef8b3586" y="316.056739"/>
     <use style="fill:#2ca02c;stroke:#2ca02c;" x="384.096104" xlink:href="#m16ef8b3586" y="170.461851"/>
     <use style="fill:#2ca02c;stroke:#2ca02c;" x="395.397992" xlink:href="#m16ef8b3586" y="192.639101"/>
     <use style="fill:#2ca02c;stroke:#2ca02c;" x="387.325215" xlink:href="#m16ef8b3586" y="290.829085"/>
     <use style="fill:#2ca02c;stroke:#2ca02c;" x="348.575885" xlink:href="#m16ef8b3586" y="160.48621"/>
     <use style="fill:#2ca02c;stroke:#2ca02c;" x="369.565106" xlink:href="#m16ef8b3586" y="315.314749"/>
     <use style="fill:#2ca02c;stroke:#2ca02c;" x="382.481549" xlink:href="#m16ef8b3586" y="283.986291"/>
     <use style="fill:#2ca02c;stroke:#2ca02c;" x="387.325215" xlink:href="#m16ef8b3586" y="270.877804"/>
     <use style="fill:#2ca02c;stroke:#2ca02c;" x="382.481549" xlink:href="#m16ef8b3586" y="306.658201"/>
     <use style="fill:#2ca02c;stroke:#2ca02c;" x="392.168881" xlink:href="#m16ef8b3586" y="282.337424"/>
     <use style="fill:#2ca02c;stroke:#2ca02c;" x="384.096104" xlink:href="#m16ef8b3586" y="281.265661"/>
     <use style="fill:#2ca02c;stroke:#2ca02c;" x="379.252438" xlink:href="#m16ef8b3586" y="212.507939"/>
     <use style="fill:#2ca02c;stroke:#2ca02c;" x="379.252438" xlink:href="#m16ef8b3586" y="266.013649"/>
     <use style="fill:#2ca02c;stroke:#2ca02c;" x="384.096104" xlink:href="#m16ef8b3586" y="346.643207"/>
     <use style="fill:#2ca02c;stroke:#2ca02c;" x="384.096104" xlink:href="#m16ef8b3586" y="313.500996"/>
     <use style="fill:#2ca02c;stroke:#2ca02c;" x="382.481549" xlink:href="#m16ef8b3586" y="320.096461"/>
     <use style="fill:#2ca02c;stroke:#2ca02c;" x="364.721439" xlink:href="#m16ef8b3586" y="203.604062"/>
    </g>
   </g>
   <g id="PathCollection_4">
    <defs>
     <path d="M 0 3 
C 0.795609 3 1.55874 2.683901 2.12132 2.12132 
C 2.683901 1.55874 3 0.795609 3 0 
C 3 -0.795609 2.683901 -1.55874 2.12132 -2.12132 
C 1.55874 -2.683901 0.795609 -3 0 -3 
C -0.795609 -3 -1.55874 -2.683901 -2.12132 -2.12132 
C -2.683901 -1.55874 -3 -0.795609 -3 0 
C -3 0.795609 -2.683901 1.55874 -2.12132 2.12132 
C -1.55874 2.683901 -0.795609 3 0 3 
z
" id="m458ef941bc" style="stroke:#d62728;"/>
    </defs>
    <g clip-path="url(#pa8f4e61692)">
     <use style="fill:#d62728;stroke:#d62728;" x="153.214681" xlink:href="#m458ef941bc" y="129.652411"/>
     <use style="fill:#d62728;stroke:#d62728;" x="149.985571" xlink:href="#m458ef941bc" y="152.983868"/>
     <use style="fill:#d62728;stroke:#d62728;" x="167.74568" xlink:href="#m458ef941bc" y="84.720806"/>
     <use style="fill:#d62728;stroke:#d62728;" x="162.902014" xlink:href="#m458ef941bc" y="109.536243"/>
     <use style="fill:#d62728;stroke:#d62728;" x="154.829237" xlink:href="#m458ef941bc" y="139.710495"/>
     <use style="fill:#d62728;stroke:#d62728;" x="161.287458" xlink:href="#m458ef941bc" y="92.305591"/>
     <use style="fill:#d62728;stroke:#d62728;" x="170.974791" xlink:href="#m458ef941bc" y="134.681453"/>
     <use style="fill:#d62728;stroke:#d62728;" x="156.443792" xlink:href="#m458ef941bc" y="166.009912"/>
     <use style="fill:#d62728;stroke:#d62728;" x="140.298238" xlink:href="#m458ef941bc" y="107.804934"/>
     <use style="fill:#d62728;stroke:#d62728;" x="196.807677" xlink:href="#m458ef941bc" y="48.280863"/>
     <use style="fill:#d62728;stroke:#d62728;" x="193.578567" xlink:href="#m458ef941bc" y="155.044951"/>
     <use style="fill:#d62728;stroke:#d62728;" x="140.298238" xlink:href="#m458ef941bc" y="108.71181"/>
     <use style="fill:#d62728;stroke:#d62728;" x="146.75646" xlink:href="#m458ef941bc" y="119.594327"/>
     <use style="fill:#d62728;stroke:#d62728;" x="148.371015" xlink:href="#m458ef941bc" y="113.493522"/>
     <use style="fill:#d62728;stroke:#d62728;" x="162.902014" xlink:href="#m458ef941bc" y="154.797621"/>
     <use style="fill:#d62728;stroke:#d62728;" x="151.600126" xlink:href="#m458ef941bc" y="41.602955"/>
     <use style="fill:#d62728;stroke:#d62728;" x="148.371015" xlink:href="#m458ef941bc" y="139.050949"/>
     <use style="fill:#d62728;stroke:#d62728;" x="212.953231" xlink:href="#m458ef941bc" y="119.346997"/>
     <use style="fill:#d62728;stroke:#d62728;" x="190.349456" xlink:href="#m458ef941bc" y="141.029588"/>
     <use style="fill:#d62728;stroke:#d62728;" x="158.058348" xlink:href="#m458ef941bc" y="79.444435"/>
     <use style="fill:#d62728;stroke:#d62728;" x="190.349456" xlink:href="#m458ef941bc" y="179.200842"/>
     <use style="fill:#d62728;stroke:#d62728;" x="188.7349" xlink:href="#m458ef941bc" y="101.539242"/>
     <use style="fill:#d62728;stroke:#d62728;" x="151.600126" xlink:href="#m458ef941bc" y="64.769525"/>
     <use style="fill:#d62728;stroke:#d62728;" x="162.902014" xlink:href="#m458ef941bc" y="88.265869"/>
     <use style="fill:#d62728;stroke:#d62728;" x="179.047568" xlink:href="#m458ef941bc" y="74.415393"/>
     <use style="fill:#d62728;stroke:#d62728;" x="201.651344" xlink:href="#m458ef941bc" y="57.596957"/>
     <use style="fill:#d62728;stroke:#d62728;" x="170.974791" xlink:href="#m458ef941bc" y="94.036901"/>
     <use style="fill:#d62728;stroke:#d62728;" x="172.589346" xlink:href="#m458ef941bc" y="67.160381"/>
     <use style="fill:#d62728;stroke:#d62728;" x="159.672903" xlink:href="#m458ef941bc" y="111.349996"/>
     <use style="fill:#d62728;stroke:#d62728;" x="195.193122" xlink:href="#m458ef941bc" y="98.571283"/>
    </g>
   </g>
   <g id="matplotlib.axis_1">
    <g id="xtick_1">
     <g id="line2d_1">
      <defs>
       <path d="M 0 0 
L 0 3.5 
" id="mf09f1ed5b2" style="stroke:#000000;stroke-width:0.8;"/>
      </defs>
      <g>
       <use style="stroke:#000000;stroke-width:0.8;" x="78.945133" xlink:href="#mf09f1ed5b2" y="382.7575"/>
      </g>
     </g>
     <g id="text_1">
      <!-- 40 -->
      <defs>
       <path d="M 37.796875 64.3125 
L 12.890625 25.390625 
L 37.796875 25.390625 
z
M 35.203125 72.90625 
L 47.609375 72.90625 
L 47.609375 25.390625 
L 58.015625 25.390625 
L 58.015625 17.1875 
L 47.609375 17.1875 
L 47.609375 0 
L 37.796875 0 
L 37.796875 17.1875 
L 4.890625 17.1875 
L 4.890625 26.703125 
z
" id="DejaVuSans-52"/>
       <path d="M 31.78125 66.40625 
Q 24.171875 66.40625 20.328125 58.90625 
Q 16.5 51.421875 16.5 36.375 
Q 16.5 21.390625 20.328125 13.890625 
Q 24.171875 6.390625 31.78125 6.390625 
Q 39.453125 6.390625 43.28125 13.890625 
Q 47.125 21.390625 47.125 36.375 
Q 47.125 51.421875 43.28125 58.90625 
Q 39.453125 66.40625 31.78125 66.40625 
z
M 31.78125 74.21875 
Q 44.046875 74.21875 50.515625 64.515625 
Q 56.984375 54.828125 56.984375 36.375 
Q 56.984375 17.96875 50.515625 8.265625 
Q 44.046875 -1.421875 31.78125 -1.421875 
Q 19.53125 -1.421875 13.0625 8.265625 
Q 6.59375 17.96875 6.59375 36.375 
Q 6.59375 54.828125 13.0625 64.515625 
Q 19.53125 74.21875 31.78125 74.21875 
z
" id="DejaVuSans-48"/>
      </defs>
      <g transform="translate(72.582633 397.355937)scale(0.1 -0.1)">
       <use xlink:href="#DejaVuSans-52"/>
       <use x="63.623047" xlink:href="#DejaVuSans-48"/>
      </g>
     </g>
    </g>
    <g id="xtick_2">
     <g id="line2d_2">
      <g>
       <use style="stroke:#000000;stroke-width:0.8;" x="159.672903" xlink:href="#mf09f1ed5b2" y="382.7575"/>
      </g>
     </g>
     <g id="text_2">
      <!-- 45 -->
      <defs>
       <path d="M 10.796875 72.90625 
L 49.515625 72.90625 
L 49.515625 64.59375 
L 19.828125 64.59375 
L 19.828125 46.734375 
Q 21.96875 47.46875 24.109375 47.828125 
Q 26.265625 48.1875 28.421875 48.1875 
Q 40.625 48.1875 47.75 41.5 
Q 54.890625 34.8125 54.890625 23.390625 
Q 54.890625 11.625 47.5625 5.09375 
Q 40.234375 -1.421875 26.90625 -1.421875 
Q 22.3125 -1.421875 17.546875 -0.640625 
Q 12.796875 0.140625 7.71875 1.703125 
L 7.71875 11.625 
Q 12.109375 9.234375 16.796875 8.0625 
Q 21.484375 6.890625 26.703125 6.890625 
Q 35.15625 6.890625 40.078125 11.328125 
Q 45.015625 15.765625 45.015625 23.390625 
Q 45.015625 31 40.078125 35.4375 
Q 35.15625 39.890625 26.703125 39.890625 
Q 22.75 39.890625 18.8125 39.015625 
Q 14.890625 38.140625 10.796875 36.28125 
z
" id="DejaVuSans-53"/>
      </defs>
      <g transform="translate(153.310403 397.355937)scale(0.1 -0.1)">
       <use xlink:href="#DejaVuSans-52"/>
       <use x="63.623047" xlink:href="#DejaVuSans-53"/>
      </g>
     </g>
    </g>
    <g id="xtick_3">
     <g id="line2d_3">
      <g>
       <use style="stroke:#000000;stroke-width:0.8;" x="240.400673" xlink:href="#mf09f1ed5b2" y="382.7575"/>
      </g>
     </g>
     <g id="text_3">
      <!-- 50 -->
      <g transform="translate(234.038173 397.355937)scale(0.1 -0.1)">
       <use xlink:href="#DejaVuSans-53"/>
       <use x="63.623047" xlink:href="#DejaVuSans-48"/>
      </g>
     </g>
    </g>
    <g id="xtick_4">
     <g id="line2d_4">
      <g>
       <use style="stroke:#000000;stroke-width:0.8;" x="321.128443" xlink:href="#mf09f1ed5b2" y="382.7575"/>
      </g>
     </g>
     <g id="text_4">
      <!-- 55 -->
      <g transform="translate(314.765943 397.355937)scale(0.1 -0.1)">
       <use xlink:href="#DejaVuSans-53"/>
       <use x="63.623047" xlink:href="#DejaVuSans-53"/>
      </g>
     </g>
    </g>
    <g id="xtick_5">
     <g id="line2d_5">
      <g>
       <use style="stroke:#000000;stroke-width:0.8;" x="401.856214" xlink:href="#mf09f1ed5b2" y="382.7575"/>
      </g>
     </g>
     <g id="text_5">
      <!-- 60 -->
      <defs>
       <path d="M 33.015625 40.375 
Q 26.375 40.375 22.484375 35.828125 
Q 18.609375 31.296875 18.609375 23.390625 
Q 18.609375 15.53125 22.484375 10.953125 
Q 26.375 6.390625 33.015625 6.390625 
Q 39.65625 6.390625 43.53125 10.953125 
Q 47.40625 15.53125 47.40625 23.390625 
Q 47.40625 31.296875 43.53125 35.828125 
Q 39.65625 40.375 33.015625 40.375 
z
M 52.59375 71.296875 
L 52.59375 62.3125 
Q 48.875 64.0625 45.09375 64.984375 
Q 41.3125 65.921875 37.59375 65.921875 
Q 27.828125 65.921875 22.671875 59.328125 
Q 17.53125 52.734375 16.796875 39.40625 
Q 19.671875 43.65625 24.015625 45.921875 
Q 28.375 48.1875 33.59375 48.1875 
Q 44.578125 48.1875 50.953125 41.515625 
Q 57.328125 34.859375 57.328125 23.390625 
Q 57.328125 12.15625 50.6875 5.359375 
Q 44.046875 -1.421875 33.015625 -1.421875 
Q 20.359375 -1.421875 13.671875 8.265625 
Q 6.984375 17.96875 6.984375 36.375 
Q 6.984375 53.65625 15.1875 63.9375 
Q 23.390625 74.21875 37.203125 74.21875 
Q 40.921875 74.21875 44.703125 73.484375 
Q 48.484375 72.75 52.59375 71.296875 
z
" id="DejaVuSans-54"/>
      </defs>
      <g transform="translate(395.493714 397.355937)scale(0.1 -0.1)">
       <use xlink:href="#DejaVuSans-54"/>
       <use x="63.623047" xlink:href="#DejaVuSans-48"/>
      </g>
     </g>
    </g>
    <g id="text_6">
     <!-- Temperature (F°) -->
     <defs>
      <path d="M -0.296875 72.90625 
L 61.375 72.90625 
L 61.375 64.59375 
L 35.5 64.59375 
L 35.5 0 
L 25.59375 0 
L 25.59375 64.59375 
L -0.296875 64.59375 
z
" id="DejaVuSans-84"/>
      <path d="M 56.203125 29.59375 
L 56.203125 25.203125 
L 14.890625 25.203125 
Q 15.484375 15.921875 20.484375 11.0625 
Q 25.484375 6.203125 34.421875 6.203125 
Q 39.59375 6.203125 44.453125 7.46875 
Q 49.3125 8.734375 54.109375 11.28125 
L 54.109375 2.78125 
Q 49.265625 0.734375 44.1875 -0.34375 
Q 39.109375 -1.421875 33.890625 -1.421875 
Q 20.796875 -1.421875 13.15625 6.1875 
Q 5.515625 13.8125 5.515625 26.8125 
Q 5.515625 40.234375 12.765625 48.109375 
Q 20.015625 56 32.328125 56 
Q 43.359375 56 49.78125 48.890625 
Q 56.203125 41.796875 56.203125 29.59375 
z
M 47.21875 32.234375 
Q 47.125 39.59375 43.09375 43.984375 
Q 39.0625 48.390625 32.421875 48.390625 
Q 24.90625 48.390625 20.390625 44.140625 
Q 15.875 39.890625 15.1875 32.171875 
z
" id="DejaVuSans-101"/>
      <path d="M 52 44.1875 
Q 55.375 50.25 60.0625 53.125 
Q 64.75 56 71.09375 56 
Q 79.640625 56 84.28125 50.015625 
Q 88.921875 44.046875 88.921875 33.015625 
L 88.921875 0 
L 79.890625 0 
L 79.890625 32.71875 
Q 79.890625 40.578125 77.09375 44.375 
Q 74.3125 48.1875 68.609375 48.1875 
Q 61.625 48.1875 57.5625 43.546875 
Q 53.515625 38.921875 53.515625 30.90625 
L 53.515625 0 
L 44.484375 0 
L 44.484375 32.71875 
Q 44.484375 40.625 41.703125 44.40625 
Q 38.921875 48.1875 33.109375 48.1875 
Q 26.21875 48.1875 22.15625 43.53125 
Q 18.109375 38.875 18.109375 30.90625 
L 18.109375 0 
L 9.078125 0 
L 9.078125 54.6875 
L 18.109375 54.6875 
L 18.109375 46.1875 
Q 21.1875 51.21875 25.484375 53.609375 
Q 29.78125 56 35.6875 56 
Q 41.65625 56 45.828125 52.96875 
Q 50 49.953125 52 44.1875 
z
" id="DejaVuSans-109"/>
      <path d="M 18.109375 8.203125 
L 18.109375 -20.796875 
L 9.078125 -20.796875 
L 9.078125 54.6875 
L 18.109375 54.6875 
L 18.109375 46.390625 
Q 20.953125 51.265625 25.265625 53.625 
Q 29.59375 56 35.59375 56 
Q 45.5625 56 51.78125 48.09375 
Q 58.015625 40.1875 58.015625 27.296875 
Q 58.015625 14.40625 51.78125 6.484375 
Q 45.5625 -1.421875 35.59375 -1.421875 
Q 29.59375 -1.421875 25.265625 0.953125 
Q 20.953125 3.328125 18.109375 8.203125 
z
M 48.6875 27.296875 
Q 48.6875 37.203125 44.609375 42.84375 
Q 40.53125 48.484375 33.40625 48.484375 
Q 26.265625 48.484375 22.1875 42.84375 
Q 18.109375 37.203125 18.109375 27.296875 
Q 18.109375 17.390625 22.1875 11.75 
Q 26.265625 6.109375 33.40625 6.109375 
Q 40.53125 6.109375 44.609375 11.75 
Q 48.6875 17.390625 48.6875 27.296875 
z
" id="DejaVuSans-112"/>
      <path d="M 41.109375 46.296875 
Q 39.59375 47.171875 37.8125 47.578125 
Q 36.03125 48 33.890625 48 
Q 26.265625 48 22.1875 43.046875 
Q 18.109375 38.09375 18.109375 28.8125 
L 18.109375 0 
L 9.078125 0 
L 9.078125 54.6875 
L 18.109375 54.6875 
L 18.109375 46.1875 
Q 20.953125 51.171875 25.484375 53.578125 
Q 30.03125 56 36.53125 56 
Q 37.453125 56 38.578125 55.875 
Q 39.703125 55.765625 41.0625 55.515625 
z
" id="DejaVuSans-114"/>
      <path d="M 34.28125 27.484375 
Q 23.390625 27.484375 19.1875 25 
Q 14.984375 22.515625 14.984375 16.5 
Q 14.984375 11.71875 18.140625 8.90625 
Q 21.296875 6.109375 26.703125 6.109375 
Q 34.1875 6.109375 38.703125 11.40625 
Q 43.21875 16.703125 43.21875 25.484375 
L 43.21875 27.484375 
z
M 52.203125 31.203125 
L 52.203125 0 
L 43.21875 0 
L 43.21875 8.296875 
Q 40.140625 3.328125 35.546875 0.953125 
Q 30.953125 -1.421875 24.3125 -1.421875 
Q 15.921875 -1.421875 10.953125 3.296875 
Q 6 8.015625 6 15.921875 
Q 6 25.140625 12.171875 29.828125 
Q 18.359375 34.515625 30.609375 34.515625 
L 43.21875 34.515625 
L 43.21875 35.40625 
Q 43.21875 41.609375 39.140625 45 
Q 35.0625 48.390625 27.6875 48.390625 
Q 23 48.390625 18.546875 47.265625 
Q 14.109375 46.140625 10.015625 43.890625 
L 10.015625 52.203125 
Q 14.9375 54.109375 19.578125 55.046875 
Q 24.21875 56 28.609375 56 
Q 40.484375 56 46.34375 49.84375 
Q 52.203125 43.703125 52.203125 31.203125 
z
" id="DejaVuSans-97"/>
      <path d="M 18.3125 70.21875 
L 18.3125 54.6875 
L 36.8125 54.6875 
L 36.8125 47.703125 
L 18.3125 47.703125 
L 18.3125 18.015625 
Q 18.3125 11.328125 20.140625 9.421875 
Q 21.96875 7.515625 27.59375 7.515625 
L 36.8125 7.515625 
L 36.8125 0 
L 27.59375 0 
Q 17.1875 0 13.234375 3.875 
Q 9.28125 7.765625 9.28125 18.015625 
L 9.28125 47.703125 
L 2.6875 47.703125 
L 2.6875 54.6875 
L 9.28125 54.6875 
L 9.28125 70.21875 
z
" id="DejaVuSans-116"/>
      <path d="M 8.5 21.578125 
L 8.5 54.6875 
L 17.484375 54.6875 
L 17.484375 21.921875 
Q 17.484375 14.15625 20.5 10.265625 
Q 23.53125 6.390625 29.59375 6.390625 
Q 36.859375 6.390625 41.078125 11.03125 
Q 45.3125 15.671875 45.3125 23.6875 
L 45.3125 54.6875 
L 54.296875 54.6875 
L 54.296875 0 
L 45.3125 0 
L 45.3125 8.40625 
Q 42.046875 3.421875 37.71875 1 
Q 33.40625 -1.421875 27.6875 -1.421875 
Q 18.265625 -1.421875 13.375 4.4375 
Q 8.5 10.296875 8.5 21.578125 
z
M 31.109375 56 
z
" id="DejaVuSans-117"/>
      <path id="DejaVuSans-32"/>
      <path d="M 31 75.875 
Q 24.46875 64.65625 21.28125 53.65625 
Q 18.109375 42.671875 18.109375 31.390625 
Q 18.109375 20.125 21.3125 9.0625 
Q 24.515625 -2 31 -13.1875 
L 23.1875 -13.1875 
Q 15.875 -1.703125 12.234375 9.375 
Q 8.59375 20.453125 8.59375 31.390625 
Q 8.59375 42.28125 12.203125 53.3125 
Q 15.828125 64.359375 23.1875 75.875 
z
" id="DejaVuSans-40"/>
      <path d="M 9.8125 72.90625 
L 51.703125 72.90625 
L 51.703125 64.59375 
L 19.671875 64.59375 
L 19.671875 43.109375 
L 48.578125 43.109375 
L 48.578125 34.8125 
L 19.671875 34.8125 
L 19.671875 0 
L 9.8125 0 
z
" id="DejaVuSans-70"/>
      <path d="M 25 67.921875 
Q 21.09375 67.921875 18.40625 65.203125 
Q 15.71875 62.5 15.71875 58.59375 
Q 15.71875 54.734375 18.40625 52.078125 
Q 21.09375 49.421875 25 49.421875 
Q 28.90625 49.421875 31.59375 52.078125 
Q 34.28125 54.734375 34.28125 58.59375 
Q 34.28125 62.453125 31.5625 65.1875 
Q 28.859375 67.921875 25 67.921875 
z
M 25 74.21875 
Q 28.125 74.21875 31 73.015625 
Q 33.890625 71.828125 35.984375 69.578125 
Q 38.234375 67.390625 39.359375 64.59375 
Q 40.484375 61.8125 40.484375 58.59375 
Q 40.484375 52.15625 35.96875 47.6875 
Q 31.453125 43.21875 24.90625 43.21875 
Q 18.3125 43.21875 13.90625 47.609375 
Q 9.515625 52 9.515625 58.59375 
Q 9.515625 65.140625 14 69.671875 
Q 18.5 74.21875 25 74.21875 
z
" id="DejaVuSans-176"/>
      <path d="M 8.015625 75.875 
L 15.828125 75.875 
Q 23.140625 64.359375 26.78125 53.3125 
Q 30.421875 42.28125 30.421875 31.390625 
Q 30.421875 20.453125 26.78125 9.375 
Q 23.140625 -1.703125 15.828125 -13.1875 
L 8.015625 -13.1875 
Q 14.5 -2 17.703125 9.0625 
Q 20.90625 20.125 20.90625 31.390625 
Q 20.90625 42.671875 17.703125 53.65625 
Q 14.5 64.65625 8.015625 75.875 
z
" id="DejaVuSans-41"/>
     </defs>
     <g transform="translate(168.741195 414.073438)scale(0.14 -0.14)">
      <use xlink:href="#DejaVuSans-84"/>
      <use x="44.083984" xlink:href="#DejaVuSans-101"/>
      <use x="105.607422" xlink:href="#DejaVuSans-109"/>
      <use x="203.019531" xlink:href="#DejaVuSans-112"/>
      <use x="266.496094" xlink:href="#DejaVuSans-101"/>
      <use x="328.019531" xlink:href="#DejaVuSans-114"/>
      <use x="369.132812" xlink:href="#DejaVuSans-97"/>
      <use x="430.412109" xlink:href="#DejaVuSans-116"/>
      <use x="469.621094" xlink:href="#DejaVuSans-117"/>
      <use x="533" xlink:href="#DejaVuSans-114"/>
      <use x="571.863281" xlink:href="#DejaVuSans-101"/>
      <use x="633.386719" xlink:href="#DejaVuSans-32"/>
      <use x="665.173828" xlink:href="#DejaVuSans-40"/>
      <use x="704.1875" xlink:href="#DejaVuSans-70"/>
      <use x="761.707031" xlink:href="#DejaVuSans-176"/>
      <use x="811.707031" xlink:href="#DejaVuSans-41"/>
     </g>
    </g>
   </g>
   <g id="matplotlib.axis_2">
    <g id="ytick_1">
     <g id="line2d_6">
      <defs>
       <path d="M 0 0 
L -3.5 0 
" id="m4178036012" style="stroke:#000000;stroke-width:0.8;"/>
      </defs>
      <g>
       <use style="stroke:#000000;stroke-width:0.8;" x="44.474375" xlink:href="#m4178036012" y="378.218996"/>
      </g>
     </g>
     <g id="text_7">
      <!-- 10 -->
      <defs>
       <path d="M 12.40625 8.296875 
L 28.515625 8.296875 
L 28.515625 63.921875 
L 10.984375 60.40625 
L 10.984375 69.390625 
L 28.421875 72.90625 
L 38.28125 72.90625 
L 38.28125 8.296875 
L 54.390625 8.296875 
L 54.390625 0 
L 12.40625 0 
z
" id="DejaVuSans-49"/>
      </defs>
      <g transform="translate(24.749375 382.018214)scale(0.1 -0.1)">
       <use xlink:href="#DejaVuSans-49"/>
       <use x="63.623047" xlink:href="#DejaVuSans-48"/>
      </g>
     </g>
    </g>
    <g id="ytick_2">
     <g id="line2d_7">
      <g>
       <use style="stroke:#000000;stroke-width:0.8;" x="44.474375" xlink:href="#m4178036012" y="336.99734"/>
      </g>
     </g>
     <g id="text_8">
      <!-- 15 -->
      <g transform="translate(24.749375 340.796559)scale(0.1 -0.1)">
       <use xlink:href="#DejaVuSans-49"/>
       <use x="63.623047" xlink:href="#DejaVuSans-53"/>
      </g>
     </g>
    </g>
    <g id="ytick_3">
     <g id="line2d_8">
      <g>
       <use style="stroke:#000000;stroke-width:0.8;" x="44.474375" xlink:href="#m4178036012" y="295.775684"/>
      </g>
     </g>
     <g id="text_9">
      <!-- 20 -->
      <defs>
       <path d="M 19.1875 8.296875 
L 53.609375 8.296875 
L 53.609375 0 
L 7.328125 0 
L 7.328125 8.296875 
Q 12.9375 14.109375 22.625 23.890625 
Q 32.328125 33.6875 34.8125 36.53125 
Q 39.546875 41.84375 41.421875 45.53125 
Q 43.3125 49.21875 43.3125 52.78125 
Q 43.3125 58.59375 39.234375 62.25 
Q 35.15625 65.921875 28.609375 65.921875 
Q 23.96875 65.921875 18.8125 64.3125 
Q 13.671875 62.703125 7.8125 59.421875 
L 7.8125 69.390625 
Q 13.765625 71.78125 18.9375 73 
Q 24.125 74.21875 28.421875 74.21875 
Q 39.75 74.21875 46.484375 68.546875 
Q 53.21875 62.890625 53.21875 53.421875 
Q 53.21875 48.921875 51.53125 44.890625 
Q 49.859375 40.875 45.40625 35.40625 
Q 44.1875 33.984375 37.640625 27.21875 
Q 31.109375 20.453125 19.1875 8.296875 
z
" id="DejaVuSans-50"/>
      </defs>
      <g transform="translate(24.749375 299.574903)scale(0.1 -0.1)">
       <use xlink:href="#DejaVuSans-50"/>
       <use x="63.623047" xlink:href="#DejaVuSans-48"/>
      </g>
     </g>
    </g>
    <g id="ytick_4">
     <g id="line2d_9">
      <g>
       <use style="stroke:#000000;stroke-width:0.8;" x="44.474375" xlink:href="#m4178036012" y="254.554028"/>
      </g>
     </g>
     <g id="text_10">
      <!-- 25 -->
      <g transform="translate(24.749375 258.353247)scale(0.1 -0.1)">
       <use xlink:href="#DejaVuSans-50"/>
       <use x="63.623047" xlink:href="#DejaVuSans-53"/>
      </g>
     </g>
    </g>
    <g id="ytick_5">
     <g id="line2d_10">
      <g>
       <use style="stroke:#000000;stroke-width:0.8;" x="44.474375" xlink:href="#m4178036012" y="213.332373"/>
      </g>
     </g>
     <g id="text_11">
      <!-- 30 -->
      <defs>
       <path d="M 40.578125 39.3125 
Q 47.65625 37.796875 51.625 33 
Q 55.609375 28.21875 55.609375 21.1875 
Q 55.609375 10.40625 48.1875 4.484375 
Q 40.765625 -1.421875 27.09375 -1.421875 
Q 22.515625 -1.421875 17.65625 -0.515625 
Q 12.796875 0.390625 7.625 2.203125 
L 7.625 11.71875 
Q 11.71875 9.328125 16.59375 8.109375 
Q 21.484375 6.890625 26.8125 6.890625 
Q 36.078125 6.890625 40.9375 10.546875 
Q 45.796875 14.203125 45.796875 21.1875 
Q 45.796875 27.640625 41.28125 31.265625 
Q 36.765625 34.90625 28.71875 34.90625 
L 20.21875 34.90625 
L 20.21875 43.015625 
L 29.109375 43.015625 
Q 36.375 43.015625 40.234375 45.921875 
Q 44.09375 48.828125 44.09375 54.296875 
Q 44.09375 59.90625 40.109375 62.90625 
Q 36.140625 65.921875 28.71875 65.921875 
Q 24.65625 65.921875 20.015625 65.03125 
Q 15.375 64.15625 9.8125 62.3125 
L 9.8125 71.09375 
Q 15.4375 72.65625 20.34375 73.4375 
Q 25.25 74.21875 29.59375 74.21875 
Q 40.828125 74.21875 47.359375 69.109375 
Q 53.90625 64.015625 53.90625 55.328125 
Q 53.90625 49.265625 50.4375 45.09375 
Q 46.96875 40.921875 40.578125 39.3125 
z
" id="DejaVuSans-51"/>
      </defs>
      <g transform="translate(24.749375 217.131591)scale(0.1 -0.1)">
       <use xlink:href="#DejaVuSans-51"/>
       <use x="63.623047" xlink:href="#DejaVuSans-48"/>
      </g>
     </g>
    </g>
    <g id="ytick_6">
     <g id="line2d_11">
      <g>
       <use style="stroke:#000000;stroke-width:0.8;" x="44.474375" xlink:href="#m4178036012" y="172.110717"/>
      </g>
     </g>
     <g id="text_12">
      <!-- 35 -->
      <g transform="translate(24.749375 175.909936)scale(0.1 -0.1)">
       <use xlink:href="#DejaVuSans-51"/>
       <use x="63.623047" xlink:href="#DejaVuSans-53"/>
      </g>
     </g>
    </g>
    <g id="ytick_7">
     <g id="line2d_12">
      <g>
       <use style="stroke:#000000;stroke-width:0.8;" x="44.474375" xlink:href="#m4178036012" y="130.889061"/>
      </g>
     </g>
     <g id="text_13">
      <!-- 40 -->
      <g transform="translate(24.749375 134.68828)scale(0.1 -0.1)">
       <use xlink:href="#DejaVuSans-52"/>
       <use x="63.623047" xlink:href="#DejaVuSans-48"/>
      </g>
     </g>
    </g>
    <g id="ytick_8">
     <g id="line2d_13">
      <g>
       <use style="stroke:#000000;stroke-width:0.8;" x="44.474375" xlink:href="#m4178036012" y="89.667405"/>
      </g>
     </g>
     <g id="text_14">
      <!-- 45 -->
      <g transform="translate(24.749375 93.466624)scale(0.1 -0.1)">
       <use xlink:href="#DejaVuSans-52"/>
       <use x="63.623047" xlink:href="#DejaVuSans-53"/>
      </g>
     </g>
    </g>
    <g id="ytick_9">
     <g id="line2d_14">
      <g>
       <use style="stroke:#000000;stroke-width:0.8;" x="44.474375" xlink:href="#m4178036012" y="48.445749"/>
      </g>
     </g>
     <g id="text_15">
      <!-- 50 -->
      <g transform="translate(24.749375 52.244968)scale(0.1 -0.1)">
       <use xlink:href="#DejaVuSans-53"/>
       <use x="63.623047" xlink:href="#DejaVuSans-48"/>
      </g>
     </g>
    </g>
    <g id="text_16">
     <!-- Precipitation (in) -->
     <defs>
      <path d="M 19.671875 64.796875 
L 19.671875 37.40625 
L 32.078125 37.40625 
Q 38.96875 37.40625 42.71875 40.96875 
Q 46.484375 44.53125 46.484375 51.125 
Q 46.484375 57.671875 42.71875 61.234375 
Q 38.96875 64.796875 32.078125 64.796875 
z
M 9.8125 72.90625 
L 32.078125 72.90625 
Q 44.34375 72.90625 50.609375 67.359375 
Q 56.890625 61.8125 56.890625 51.125 
Q 56.890625 40.328125 50.609375 34.8125 
Q 44.34375 29.296875 32.078125 29.296875 
L 19.671875 29.296875 
L 19.671875 0 
L 9.8125 0 
z
" id="DejaVuSans-80"/>
      <path d="M 48.78125 52.59375 
L 48.78125 44.1875 
Q 44.96875 46.296875 41.140625 47.34375 
Q 37.3125 48.390625 33.40625 48.390625 
Q 24.65625 48.390625 19.8125 42.84375 
Q 14.984375 37.3125 14.984375 27.296875 
Q 14.984375 17.28125 19.8125 11.734375 
Q 24.65625 6.203125 33.40625 6.203125 
Q 37.3125 6.203125 41.140625 7.25 
Q 44.96875 8.296875 48.78125 10.40625 
L 48.78125 2.09375 
Q 45.015625 0.34375 40.984375 -0.53125 
Q 36.96875 -1.421875 32.421875 -1.421875 
Q 20.0625 -1.421875 12.78125 6.34375 
Q 5.515625 14.109375 5.515625 27.296875 
Q 5.515625 40.671875 12.859375 48.328125 
Q 20.21875 56 33.015625 56 
Q 37.15625 56 41.109375 55.140625 
Q 45.0625 54.296875 48.78125 52.59375 
z
" id="DejaVuSans-99"/>
      <path d="M 9.421875 54.6875 
L 18.40625 54.6875 
L 18.40625 0 
L 9.421875 0 
z
M 9.421875 75.984375 
L 18.40625 75.984375 
L 18.40625 64.59375 
L 9.421875 64.59375 
z
" id="DejaVuSans-105"/>
      <path d="M 30.609375 48.390625 
Q 23.390625 48.390625 19.1875 42.75 
Q 14.984375 37.109375 14.984375 27.296875 
Q 14.984375 17.484375 19.15625 11.84375 
Q 23.34375 6.203125 30.609375 6.203125 
Q 37.796875 6.203125 41.984375 11.859375 
Q 46.1875 17.53125 46.1875 27.296875 
Q 46.1875 37.015625 41.984375 42.703125 
Q 37.796875 48.390625 30.609375 48.390625 
z
M 30.609375 56 
Q 42.328125 56 49.015625 48.375 
Q 55.71875 40.765625 55.71875 27.296875 
Q 55.71875 13.875 49.015625 6.21875 
Q 42.328125 -1.421875 30.609375 -1.421875 
Q 18.84375 -1.421875 12.171875 6.21875 
Q 5.515625 13.875 5.515625 27.296875 
Q 5.515625 40.765625 12.171875 48.375 
Q 18.84375 56 30.609375 56 
z
" id="DejaVuSans-111"/>
      <path d="M 54.890625 33.015625 
L 54.890625 0 
L 45.90625 0 
L 45.90625 32.71875 
Q 45.90625 40.484375 42.875 44.328125 
Q 39.84375 48.1875 33.796875 48.1875 
Q 26.515625 48.1875 22.3125 43.546875 
Q 18.109375 38.921875 18.109375 30.90625 
L 18.109375 0 
L 9.078125 0 
L 9.078125 54.6875 
L 18.109375 54.6875 
L 18.109375 46.1875 
Q 21.34375 51.125 25.703125 53.5625 
Q 30.078125 56 35.796875 56 
Q 45.21875 56 50.046875 50.171875 
Q 54.890625 44.34375 54.890625 33.015625 
z
" id="DejaVuSans-110"/>
     </defs>
     <g transform="translate(17.837813 261.875313)rotate(-90)scale(0.14 -0.14)">
      <use xlink:href="#DejaVuSans-80"/>
      <use x="58.552734" xlink:href="#DejaVuSans-114"/>
      <use x="97.416016" xlink:href="#DejaVuSans-101"/>
      <use x="158.939453" xlink:href="#DejaVuSans-99"/>
      <use x="213.919922" xlink:href="#DejaVuSans-105"/>
      <use x="241.703125" xlink:href="#DejaVuSans-112"/>
      <use x="305.179688" xlink:href="#DejaVuSans-105"/>
      <use x="332.962891" xlink:href="#DejaVuSans-116"/>
      <use x="372.171875" xlink:href="#DejaVuSans-97"/>
      <use x="433.451172" xlink:href="#DejaVuSans-116"/>
      <use x="472.660156" xlink:href="#DejaVuSans-105"/>
      <use x="500.443359" xlink:href="#DejaVuSans-111"/>
      <use x="561.625" xlink:href="#DejaVuSans-110"/>
      <use x="625.003906" xlink:href="#DejaVuSans-32"/>
      <use x="656.791016" xlink:href="#DejaVuSans-40"/>
      <use x="695.804688" xlink:href="#DejaVuSans-105"/>
      <use x="723.587891" xlink:href="#DejaVuSans-110"/>
      <use x="786.966797" xlink:href="#DejaVuSans-41"/>
     </g>
    </g>
   </g>
   <g id="patch_3">
    <path d="M 44.474375 382.7575 
L 44.474375 25.3575 
" style="fill:none;stroke:#000000;stroke-linecap:square;stroke-linejoin:miter;stroke-width:0.8;"/>
   </g>
   <g id="patch_4">
    <path d="M 412.10864 382.7575 
L 412.10864 25.3575 
" style="fill:none;stroke:#000000;stroke-linecap:square;stroke-linejoin:miter;stroke-width:0.8;"/>
   </g>
   <g id="patch_5">
    <path d="M 44.474375 382.7575 
L 412.10864 382.7575 
" style="fill:none;stroke:#000000;stroke-linecap:square;stroke-linejoin:miter;stroke-width:0.8;"/>
   </g>
   <g id="patch_6">
    <path d="M 44.474375 25.3575 
L 412.10864 25.3575 
" style="fill:none;stroke:#000000;stroke-linecap:square;stroke-linejoin:miter;stroke-width:0.8;"/>
   </g>
   <g id="text_17">
    <!-- Avg Conditions 1981-2010 -->
    <defs>
     <path d="M 34.1875 63.1875 
L 20.796875 26.90625 
L 47.609375 26.90625 
z
M 28.609375 72.90625 
L 39.796875 72.90625 
L 67.578125 0 
L 57.328125 0 
L 50.6875 18.703125 
L 17.828125 18.703125 
L 11.1875 0 
L 0.78125 0 
z
" id="DejaVuSans-65"/>
     <path d="M 2.984375 54.6875 
L 12.5 54.6875 
L 29.59375 8.796875 
L 46.6875 54.6875 
L 56.203125 54.6875 
L 35.6875 0 
L 23.484375 0 
z
" id="DejaVuSans-118"/>
     <path d="M 45.40625 27.984375 
Q 45.40625 37.75 41.375 43.109375 
Q 37.359375 48.484375 30.078125 48.484375 
Q 22.859375 48.484375 18.828125 43.109375 
Q 14.796875 37.75 14.796875 27.984375 
Q 14.796875 18.265625 18.828125 12.890625 
Q 22.859375 7.515625 30.078125 7.515625 
Q 37.359375 7.515625 41.375 12.890625 
Q 45.40625 18.265625 45.40625 27.984375 
z
M 54.390625 6.78125 
Q 54.390625 -7.171875 48.1875 -13.984375 
Q 42 -20.796875 29.203125 -20.796875 
Q 24.46875 -20.796875 20.265625 -20.09375 
Q 16.0625 -19.390625 12.109375 -17.921875 
L 12.109375 -9.1875 
Q 16.0625 -11.328125 19.921875 -12.34375 
Q 23.78125 -13.375 27.78125 -13.375 
Q 36.625 -13.375 41.015625 -8.765625 
Q 45.40625 -4.15625 45.40625 5.171875 
L 45.40625 9.625 
Q 42.625 4.78125 38.28125 2.390625 
Q 33.9375 0 27.875 0 
Q 17.828125 0 11.671875 7.65625 
Q 5.515625 15.328125 5.515625 27.984375 
Q 5.515625 40.671875 11.671875 48.328125 
Q 17.828125 56 27.875 56 
Q 33.9375 56 38.28125 53.609375 
Q 42.625 51.21875 45.40625 46.390625 
L 45.40625 54.6875 
L 54.390625 54.6875 
z
" id="DejaVuSans-103"/>
     <path d="M 64.40625 67.28125 
L 64.40625 56.890625 
Q 59.421875 61.53125 53.78125 63.8125 
Q 48.140625 66.109375 41.796875 66.109375 
Q 29.296875 66.109375 22.65625 58.46875 
Q 16.015625 50.828125 16.015625 36.375 
Q 16.015625 21.96875 22.65625 14.328125 
Q 29.296875 6.6875 41.796875 6.6875 
Q 48.140625 6.6875 53.78125 8.984375 
Q 59.421875 11.28125 64.40625 15.921875 
L 64.40625 5.609375 
Q 59.234375 2.09375 53.4375 0.328125 
Q 47.65625 -1.421875 41.21875 -1.421875 
Q 24.65625 -1.421875 15.125 8.703125 
Q 5.609375 18.84375 5.609375 36.375 
Q 5.609375 53.953125 15.125 64.078125 
Q 24.65625 74.21875 41.21875 74.21875 
Q 47.75 74.21875 53.53125 72.484375 
Q 59.328125 70.75 64.40625 67.28125 
z
" id="DejaVuSans-67"/>
     <path d="M 45.40625 46.390625 
L 45.40625 75.984375 
L 54.390625 75.984375 
L 54.390625 0 
L 45.40625 0 
L 45.40625 8.203125 
Q 42.578125 3.328125 38.25 0.953125 
Q 33.9375 -1.421875 27.875 -1.421875 
Q 17.96875 -1.421875 11.734375 6.484375 
Q 5.515625 14.40625 5.515625 27.296875 
Q 5.515625 40.1875 11.734375 48.09375 
Q 17.96875 56 27.875 56 
Q 33.9375 56 38.25 53.625 
Q 42.578125 51.265625 45.40625 46.390625 
z
M 14.796875 27.296875 
Q 14.796875 17.390625 18.875 11.75 
Q 22.953125 6.109375 30.078125 6.109375 
Q 37.203125 6.109375 41.296875 11.75 
Q 45.40625 17.390625 45.40625 27.296875 
Q 45.40625 37.203125 41.296875 42.84375 
Q 37.203125 48.484375 30.078125 48.484375 
Q 22.953125 48.484375 18.875 42.84375 
Q 14.796875 37.203125 14.796875 27.296875 
z
" id="DejaVuSans-100"/>
     <path d="M 44.28125 53.078125 
L 44.28125 44.578125 
Q 40.484375 46.53125 36.375 47.5 
Q 32.28125 48.484375 27.875 48.484375 
Q 21.1875 48.484375 17.84375 46.4375 
Q 14.5 44.390625 14.5 40.28125 
Q 14.5 37.15625 16.890625 35.375 
Q 19.28125 33.59375 26.515625 31.984375 
L 29.59375 31.296875 
Q 39.15625 29.25 43.1875 25.515625 
Q 47.21875 21.78125 47.21875 15.09375 
Q 47.21875 7.46875 41.1875 3.015625 
Q 35.15625 -1.421875 24.609375 -1.421875 
Q 20.21875 -1.421875 15.453125 -0.5625 
Q 10.6875 0.296875 5.421875 2 
L 5.421875 11.28125 
Q 10.40625 8.6875 15.234375 7.390625 
Q 20.0625 6.109375 24.8125 6.109375 
Q 31.15625 6.109375 34.5625 8.28125 
Q 37.984375 10.453125 37.984375 14.40625 
Q 37.984375 18.0625 35.515625 20.015625 
Q 33.0625 21.96875 24.703125 23.78125 
L 21.578125 24.515625 
Q 13.234375 26.265625 9.515625 29.90625 
Q 5.8125 33.546875 5.8125 39.890625 
Q 5.8125 47.609375 11.28125 51.796875 
Q 16.75 56 26.8125 56 
Q 31.78125 56 36.171875 55.265625 
Q 40.578125 54.546875 44.28125 53.078125 
z
" id="DejaVuSans-115"/>
     <path d="M 10.984375 1.515625 
L 10.984375 10.5 
Q 14.703125 8.734375 18.5 7.8125 
Q 22.3125 6.890625 25.984375 6.890625 
Q 35.75 6.890625 40.890625 13.453125 
Q 46.046875 20.015625 46.78125 33.40625 
Q 43.953125 29.203125 39.59375 26.953125 
Q 35.25 24.703125 29.984375 24.703125 
Q 19.046875 24.703125 12.671875 31.3125 
Q 6.296875 37.9375 6.296875 49.421875 
Q 6.296875 60.640625 12.9375 67.421875 
Q 19.578125 74.21875 30.609375 74.21875 
Q 43.265625 74.21875 49.921875 64.515625 
Q 56.59375 54.828125 56.59375 36.375 
Q 56.59375 19.140625 48.40625 8.859375 
Q 40.234375 -1.421875 26.421875 -1.421875 
Q 22.703125 -1.421875 18.890625 -0.6875 
Q 15.09375 0.046875 10.984375 1.515625 
z
M 30.609375 32.421875 
Q 37.25 32.421875 41.125 36.953125 
Q 45.015625 41.5 45.015625 49.421875 
Q 45.015625 57.28125 41.125 61.84375 
Q 37.25 66.40625 30.609375 66.40625 
Q 23.96875 66.40625 20.09375 61.84375 
Q 16.21875 57.28125 16.21875 49.421875 
Q 16.21875 41.5 20.09375 36.953125 
Q 23.96875 32.421875 30.609375 32.421875 
z
" id="DejaVuSans-57"/>
     <path d="M 31.78125 34.625 
Q 24.75 34.625 20.71875 30.859375 
Q 16.703125 27.09375 16.703125 20.515625 
Q 16.703125 13.921875 20.71875 10.15625 
Q 24.75 6.390625 31.78125 6.390625 
Q 38.8125 6.390625 42.859375 10.171875 
Q 46.921875 13.96875 46.921875 20.515625 
Q 46.921875 27.09375 42.890625 30.859375 
Q 38.875 34.625 31.78125 34.625 
z
M 21.921875 38.8125 
Q 15.578125 40.375 12.03125 44.71875 
Q 8.5 49.078125 8.5 55.328125 
Q 8.5 64.0625 14.71875 69.140625 
Q 20.953125 74.21875 31.78125 74.21875 
Q 42.671875 74.21875 48.875 69.140625 
Q 55.078125 64.0625 55.078125 55.328125 
Q 55.078125 49.078125 51.53125 44.71875 
Q 48 40.375 41.703125 38.8125 
Q 48.828125 37.15625 52.796875 32.3125 
Q 56.78125 27.484375 56.78125 20.515625 
Q 56.78125 9.90625 50.3125 4.234375 
Q 43.84375 -1.421875 31.78125 -1.421875 
Q 19.734375 -1.421875 13.25 4.234375 
Q 6.78125 9.90625 6.78125 20.515625 
Q 6.78125 27.484375 10.78125 32.3125 
Q 14.796875 37.15625 21.921875 38.8125 
z
M 18.3125 54.390625 
Q 18.3125 48.734375 21.84375 45.5625 
Q 25.390625 42.390625 31.78125 42.390625 
Q 38.140625 42.390625 41.71875 45.5625 
Q 45.3125 48.734375 45.3125 54.390625 
Q 45.3125 60.0625 41.71875 63.234375 
Q 38.140625 66.40625 31.78125 66.40625 
Q 25.390625 66.40625 21.84375 63.234375 
Q 18.3125 60.0625 18.3125 54.390625 
z
" id="DejaVuSans-56"/>
     <path d="M 4.890625 31.390625 
L 31.203125 31.390625 
L 31.203125 23.390625 
L 4.890625 23.390625 
z
" id="DejaVuSans-45"/>
    </defs>
    <g transform="translate(122.440258 19.3575)scale(0.16 -0.16)">
     <use xlink:href="#DejaVuSans-65"/>
     <use x="62.533203" xlink:href="#DejaVuSans-118"/>
     <use x="121.712891" xlink:href="#DejaVuSans-103"/>
     <use x="185.189453" xlink:href="#DejaVuSans-32"/>
     <use x="216.976562" xlink:href="#DejaVuSans-67"/>
     <use x="286.800781" xlink:href="#DejaVuSans-111"/>
     <use x="347.982422" xlink:href="#DejaVuSans-110"/>
     <use x="411.361328" xlink:href="#DejaVuSans-100"/>
     <use x="474.837891" xlink:href="#DejaVuSans-105"/>
     <use x="502.621094" xlink:href="#DejaVuSans-116"/>
     <use x="541.830078" xlink:href="#DejaVuSans-105"/>
     <use x="569.613281" xlink:href="#DejaVuSans-111"/>
     <use x="630.794922" xlink:href="#DejaVuSans-110"/>
     <use x="694.173828" xlink:href="#DejaVuSans-115"/>
     <use x="746.273438" xlink:href="#DejaVuSans-32"/>
     <use x="778.060547" xlink:href="#DejaVuSans-49"/>
     <use x="841.683594" xlink:href="#DejaVuSans-57"/>
     <use x="905.306641" xlink:href="#DejaVuSans-56"/>
     <use x="968.929688" xlink:href="#DejaVuSans-49"/>
     <use x="1032.552734" xlink:href="#DejaVuSans-45"/>
     <use x="1068.636719" xlink:href="#DejaVuSans-50"/>
     <use x="1132.259766" xlink:href="#DejaVuSans-48"/>
     <use x="1195.882812" xlink:href="#DejaVuSans-49"/>
     <use x="1259.505859" xlink:href="#DejaVuSans-48"/>
    </g>
   </g>
   <g id="legend_1">
    <g id="patch_7">
     <path d="M 165.77807 376.7575 
L 290.804945 376.7575 
Q 293.204945 376.7575 293.204945 374.3575 
L 293.204945 272.7025 
Q 293.204945 270.3025 290.804945 270.3025 
L 165.77807 270.3025 
Q 163.37807 270.3025 163.37807 272.7025 
L 163.37807 374.3575 
Q 163.37807 376.7575 165.77807 376.7575 
z
" style="fill:#ffffff;opacity:0.8;stroke:#cccccc;stroke-linejoin:miter;"/>
    </g>
    <g id="PathCollection_5">
     <g>
      <use style="fill:#1f77b4;stroke:#1f77b4;" x="187.37807" xlink:href="#m219d07bdc5" y="288.270625"/>
     </g>
    </g>
    <g id="text_18">
     <!-- WISCONSIN -->
     <defs>
      <path d="M 3.328125 72.90625 
L 13.28125 72.90625 
L 28.609375 11.28125 
L 43.890625 72.90625 
L 54.984375 72.90625 
L 70.3125 11.28125 
L 85.59375 72.90625 
L 95.609375 72.90625 
L 77.296875 0 
L 64.890625 0 
L 49.515625 63.28125 
L 33.984375 0 
L 21.578125 0 
z
" id="DejaVuSans-87"/>
      <path d="M 9.8125 72.90625 
L 19.671875 72.90625 
L 19.671875 0 
L 9.8125 0 
z
" id="DejaVuSans-73"/>
      <path d="M 53.515625 70.515625 
L 53.515625 60.890625 
Q 47.90625 63.578125 42.921875 64.890625 
Q 37.9375 66.21875 33.296875 66.21875 
Q 25.25 66.21875 20.875 63.09375 
Q 16.5 59.96875 16.5 54.203125 
Q 16.5 49.359375 19.40625 46.890625 
Q 22.3125 44.4375 30.421875 42.921875 
L 36.375 41.703125 
Q 47.40625 39.59375 52.65625 34.296875 
Q 57.90625 29 57.90625 20.125 
Q 57.90625 9.515625 50.796875 4.046875 
Q 43.703125 -1.421875 29.984375 -1.421875 
Q 24.8125 -1.421875 18.96875 -0.25 
Q 13.140625 0.921875 6.890625 3.21875 
L 6.890625 13.375 
Q 12.890625 10.015625 18.65625 8.296875 
Q 24.421875 6.59375 29.984375 6.59375 
Q 38.421875 6.59375 43.015625 9.90625 
Q 47.609375 13.234375 47.609375 19.390625 
Q 47.609375 24.75 44.3125 27.78125 
Q 41.015625 30.8125 33.5 32.328125 
L 27.484375 33.5 
Q 16.453125 35.6875 11.515625 40.375 
Q 6.59375 45.0625 6.59375 53.421875 
Q 6.59375 63.09375 13.40625 68.65625 
Q 20.21875 74.21875 32.171875 74.21875 
Q 37.3125 74.21875 42.625 73.28125 
Q 47.953125 72.359375 53.515625 70.515625 
z
" id="DejaVuSans-83"/>
      <path d="M 39.40625 66.21875 
Q 28.65625 66.21875 22.328125 58.203125 
Q 16.015625 50.203125 16.015625 36.375 
Q 16.015625 22.609375 22.328125 14.59375 
Q 28.65625 6.59375 39.40625 6.59375 
Q 50.140625 6.59375 56.421875 14.59375 
Q 62.703125 22.609375 62.703125 36.375 
Q 62.703125 50.203125 56.421875 58.203125 
Q 50.140625 66.21875 39.40625 66.21875 
z
M 39.40625 74.21875 
Q 54.734375 74.21875 63.90625 63.9375 
Q 73.09375 53.65625 73.09375 36.375 
Q 73.09375 19.140625 63.90625 8.859375 
Q 54.734375 -1.421875 39.40625 -1.421875 
Q 24.03125 -1.421875 14.8125 8.828125 
Q 5.609375 19.09375 5.609375 36.375 
Q 5.609375 53.65625 14.8125 63.9375 
Q 24.03125 74.21875 39.40625 74.21875 
z
" id="DejaVuSans-79"/>
      <path d="M 9.8125 72.90625 
L 23.09375 72.90625 
L 55.421875 11.921875 
L 55.421875 72.90625 
L 64.984375 72.90625 
L 64.984375 0 
L 51.703125 0 
L 19.390625 60.984375 
L 19.390625 0 
L 9.8125 0 
z
" id="DejaVuSans-78"/>
     </defs>
     <g transform="translate(208.97807 291.420625)scale(0.12 -0.12)">
      <use xlink:href="#DejaVuSans-87"/>
      <use x="98.876953" xlink:href="#DejaVuSans-73"/>
      <use x="128.369141" xlink:href="#DejaVuSans-83"/>
      <use x="191.845703" xlink:href="#DejaVuSans-67"/>
      <use x="261.669922" xlink:href="#DejaVuSans-79"/>
      <use x="340.380859" xlink:href="#DejaVuSans-78"/>
      <use x="415.185547" xlink:href="#DejaVuSans-83"/>
      <use x="478.662109" xlink:href="#DejaVuSans-73"/>
      <use x="508.154297" xlink:href="#DejaVuSans-78"/>
     </g>
    </g>
    <g id="PathCollection_6">
     <g>
      <use style="fill:#ff7f0e;stroke:#ff7f0e;" x="187.37807" xlink:href="#m7a990b8f45" y="311.884375"/>
     </g>
    </g>
    <g id="text_19">
     <!-- WYOMING -->
     <defs>
      <path d="M -0.203125 72.90625 
L 10.40625 72.90625 
L 30.609375 42.921875 
L 50.6875 72.90625 
L 61.28125 72.90625 
L 35.5 34.71875 
L 35.5 0 
L 25.59375 0 
L 25.59375 34.71875 
z
" id="DejaVuSans-89"/>
      <path d="M 9.8125 72.90625 
L 24.515625 72.90625 
L 43.109375 23.296875 
L 61.8125 72.90625 
L 76.515625 72.90625 
L 76.515625 0 
L 66.890625 0 
L 66.890625 64.015625 
L 48.09375 14.015625 
L 38.1875 14.015625 
L 19.390625 64.015625 
L 19.390625 0 
L 9.8125 0 
z
" id="DejaVuSans-77"/>
      <path d="M 59.515625 10.40625 
L 59.515625 29.984375 
L 43.40625 29.984375 
L 43.40625 38.09375 
L 69.28125 38.09375 
L 69.28125 6.78125 
Q 63.578125 2.734375 56.6875 0.65625 
Q 49.8125 -1.421875 42 -1.421875 
Q 24.90625 -1.421875 15.25 8.5625 
Q 5.609375 18.5625 5.609375 36.375 
Q 5.609375 54.25 15.25 64.234375 
Q 24.90625 74.21875 42 74.21875 
Q 49.125 74.21875 55.546875 72.453125 
Q 61.96875 70.703125 67.390625 67.28125 
L 67.390625 56.78125 
Q 61.921875 61.421875 55.765625 63.765625 
Q 49.609375 66.109375 42.828125 66.109375 
Q 29.4375 66.109375 22.71875 58.640625 
Q 16.015625 51.171875 16.015625 36.375 
Q 16.015625 21.625 22.71875 14.15625 
Q 29.4375 6.6875 42.828125 6.6875 
Q 48.046875 6.6875 52.140625 7.59375 
Q 56.25 8.5 59.515625 10.40625 
z
" id="DejaVuSans-71"/>
     </defs>
     <g transform="translate(208.97807 315.034375)scale(0.12 -0.12)">
      <use xlink:href="#DejaVuSans-87"/>
      <use x="98.876953" xlink:href="#DejaVuSans-89"/>
      <use x="154.460938" xlink:href="#DejaVuSans-79"/>
      <use x="233.171875" xlink:href="#DejaVuSans-77"/>
      <use x="319.451172" xlink:href="#DejaVuSans-73"/>
      <use x="348.943359" xlink:href="#DejaVuSans-78"/>
      <use x="423.748047" xlink:href="#DejaVuSans-71"/>
     </g>
    </g>
    <g id="PathCollection_7">
     <g>
      <use style="fill:#2ca02c;stroke:#2ca02c;" x="187.37807" xlink:href="#m16ef8b3586" y="335.498125"/>
     </g>
    </g>
    <g id="text_20">
     <!-- CALIFORNIA -->
     <defs>
      <path d="M 9.8125 72.90625 
L 19.671875 72.90625 
L 19.671875 8.296875 
L 55.171875 8.296875 
L 55.171875 0 
L 9.8125 0 
z
" id="DejaVuSans-76"/>
      <path d="M 44.390625 34.1875 
Q 47.5625 33.109375 50.5625 29.59375 
Q 53.5625 26.078125 56.59375 19.921875 
L 66.609375 0 
L 56 0 
L 46.6875 18.703125 
Q 43.0625 26.03125 39.671875 28.421875 
Q 36.28125 30.8125 30.421875 30.8125 
L 19.671875 30.8125 
L 19.671875 0 
L 9.8125 0 
L 9.8125 72.90625 
L 32.078125 72.90625 
Q 44.578125 72.90625 50.734375 67.671875 
Q 56.890625 62.453125 56.890625 51.90625 
Q 56.890625 45.015625 53.6875 40.46875 
Q 50.484375 35.9375 44.390625 34.1875 
z
M 19.671875 64.796875 
L 19.671875 38.921875 
L 32.078125 38.921875 
Q 39.203125 38.921875 42.84375 42.21875 
Q 46.484375 45.515625 46.484375 51.90625 
Q 46.484375 58.296875 42.84375 61.546875 
Q 39.203125 64.796875 32.078125 64.796875 
z
" id="DejaVuSans-82"/>
     </defs>
     <g transform="translate(208.97807 338.648125)scale(0.12 -0.12)">
      <use xlink:href="#DejaVuSans-67"/>
      <use x="69.824219" xlink:href="#DejaVuSans-65"/>
      <use x="138.232422" xlink:href="#DejaVuSans-76"/>
      <use x="193.945312" xlink:href="#DejaVuSans-73"/>
      <use x="223.4375" xlink:href="#DejaVuSans-70"/>
      <use x="280.957031" xlink:href="#DejaVuSans-79"/>
      <use x="359.667969" xlink:href="#DejaVuSans-82"/>
      <use x="429.150391" xlink:href="#DejaVuSans-78"/>
      <use x="503.955078" xlink:href="#DejaVuSans-73"/>
      <use x="533.447266" xlink:href="#DejaVuSans-65"/>
     </g>
    </g>
    <g id="PathCollection_8">
     <g>
      <use style="fill:#d62728;stroke:#d62728;" x="187.37807" xlink:href="#m458ef941bc" y="359.111875"/>
     </g>
    </g>
    <g id="text_21">
     <!-- NEW YORK -->
     <defs>
      <path d="M 9.8125 72.90625 
L 55.90625 72.90625 
L 55.90625 64.59375 
L 19.671875 64.59375 
L 19.671875 43.015625 
L 54.390625 43.015625 
L 54.390625 34.71875 
L 19.671875 34.71875 
L 19.671875 8.296875 
L 56.78125 8.296875 
L 56.78125 0 
L 9.8125 0 
z
" id="DejaVuSans-69"/>
      <path d="M 9.8125 72.90625 
L 19.671875 72.90625 
L 19.671875 42.09375 
L 52.390625 72.90625 
L 65.09375 72.90625 
L 28.90625 38.921875 
L 67.671875 0 
L 54.6875 0 
L 19.671875 35.109375 
L 19.671875 0 
L 9.8125 0 
z
" id="DejaVuSans-75"/>
     </defs>
     <g transform="translate(208.97807 362.261875)scale(0.12 -0.12)">
      <use xlink:href="#DejaVuSans-78"/>
      <use x="74.804688" xlink:href="#DejaVuSans-69"/>
      <use x="137.988281" xlink:href="#DejaVuSans-87"/>
      <use x="236.865234" xlink:href="#DejaVuSans-32"/>
      <use x="268.652344" xlink:href="#DejaVuSans-89"/>
      <use x="324.236328" xlink:href="#DejaVuSans-79"/>
      <use x="402.947266" xlink:href="#DejaVuSans-82"/>
      <use x="472.429688" xlink:href="#DejaVuSans-75"/>
     </g>
    </g>
   </g>
  </g>
  <g id="axes_2">
   <g id="patch_8">
    <path d="M 431.24011 382.7575 
L 798.874375 382.7575 
L 798.874375 25.3575 
L 431.24011 25.3575 
z
" style="fill:#ffffff;"/>
   </g>
   <g id="matplotlib.axis_3">
    <g id="xtick_6">
     <g id="line2d_15">
      <g>
       <use style="stroke:#000000;stroke-width:0.8;" x="436.426173" xlink:href="#mf09f1ed5b2" y="382.7575"/>
      </g>
     </g>
     <g id="text_22">
      <!-- 1980 -->
      <g transform="translate(423.701173 397.355937)scale(0.1 -0.1)">
       <use xlink:href="#DejaVuSans-49"/>
       <use x="63.623047" xlink:href="#DejaVuSans-57"/>
       <use x="127.246094" xlink:href="#DejaVuSans-56"/>
       <use x="190.869141" xlink:href="#DejaVuSans-48"/>
      </g>
     </g>
    </g>
    <g id="xtick_7">
     <g id="line2d_16">
      <g>
       <use style="stroke:#000000;stroke-width:0.8;" x="494.049098" xlink:href="#mf09f1ed5b2" y="382.7575"/>
      </g>
     </g>
     <g id="text_23">
      <!-- 1985 -->
      <g transform="translate(481.324098 397.355937)scale(0.1 -0.1)">
       <use xlink:href="#DejaVuSans-49"/>
       <use x="63.623047" xlink:href="#DejaVuSans-57"/>
       <use x="127.246094" xlink:href="#DejaVuSans-56"/>
       <use x="190.869141" xlink:href="#DejaVuSans-53"/>
      </g>
     </g>
    </g>
    <g id="xtick_8">
     <g id="line2d_17">
      <g>
       <use style="stroke:#000000;stroke-width:0.8;" x="551.672024" xlink:href="#mf09f1ed5b2" y="382.7575"/>
      </g>
     </g>
     <g id="text_24">
      <!-- 1990 -->
      <g transform="translate(538.947024 397.355937)scale(0.1 -0.1)">
       <use xlink:href="#DejaVuSans-49"/>
       <use x="63.623047" xlink:href="#DejaVuSans-57"/>
       <use x="127.246094" xlink:href="#DejaVuSans-57"/>
       <use x="190.869141" xlink:href="#DejaVuSans-48"/>
      </g>
     </g>
    </g>
    <g id="xtick_9">
     <g id="line2d_18">
      <g>
       <use style="stroke:#000000;stroke-width:0.8;" x="609.29495" xlink:href="#mf09f1ed5b2" y="382.7575"/>
      </g>
     </g>
     <g id="text_25">
      <!-- 1995 -->
      <g transform="translate(596.56995 397.355937)scale(0.1 -0.1)">
       <use xlink:href="#DejaVuSans-49"/>
       <use x="63.623047" xlink:href="#DejaVuSans-57"/>
       <use x="127.246094" xlink:href="#DejaVuSans-57"/>
       <use x="190.869141" xlink:href="#DejaVuSans-53"/>
      </g>
     </g>
    </g>
    <g id="xtick_10">
     <g id="line2d_19">
      <g>
       <use style="stroke:#000000;stroke-width:0.8;" x="666.917875" xlink:href="#mf09f1ed5b2" y="382.7575"/>
      </g>
     </g>
     <g id="text_26">
      <!-- 2000 -->
      <g transform="translate(654.192875 397.355937)scale(0.1 -0.1)">
       <use xlink:href="#DejaVuSans-50"/>
       <use x="63.623047" xlink:href="#DejaVuSans-48"/>
       <use x="127.246094" xlink:href="#DejaVuSans-48"/>
       <use x="190.869141" xlink:href="#DejaVuSans-48"/>
      </g>
     </g>
    </g>
    <g id="xtick_11">
     <g id="line2d_20">
      <g>
       <use style="stroke:#000000;stroke-width:0.8;" x="724.540801" xlink:href="#mf09f1ed5b2" y="382.7575"/>
      </g>
     </g>
     <g id="text_27">
      <!-- 2005 -->
      <g transform="translate(711.815801 397.355937)scale(0.1 -0.1)">
       <use xlink:href="#DejaVuSans-50"/>
       <use x="63.623047" xlink:href="#DejaVuSans-48"/>
       <use x="127.246094" xlink:href="#DejaVuSans-48"/>
       <use x="190.869141" xlink:href="#DejaVuSans-53"/>
      </g>
     </g>
    </g>
    <g id="xtick_12">
     <g id="line2d_21">
      <g>
       <use style="stroke:#000000;stroke-width:0.8;" x="782.163727" xlink:href="#mf09f1ed5b2" y="382.7575"/>
      </g>
     </g>
     <g id="text_28">
      <!-- 2010 -->
      <g transform="translate(769.438727 397.355937)scale(0.1 -0.1)">
       <use xlink:href="#DejaVuSans-50"/>
       <use x="63.623047" xlink:href="#DejaVuSans-48"/>
       <use x="127.246094" xlink:href="#DejaVuSans-49"/>
       <use x="190.869141" xlink:href="#DejaVuSans-48"/>
      </g>
     </g>
    </g>
    <g id="text_29">
     <!-- Year -->
     <g transform="translate(600.234742 414.073438)scale(0.14 -0.14)">
      <use xlink:href="#DejaVuSans-89"/>
      <use x="47.833984" xlink:href="#DejaVuSans-101"/>
      <use x="109.357422" xlink:href="#DejaVuSans-97"/>
      <use x="170.636719" xlink:href="#DejaVuSans-114"/>
     </g>
    </g>
   </g>
   <g id="matplotlib.axis_4">
    <g id="ytick_10">
     <g id="line2d_22">
      <defs>
       <path d="M 0 0 
L 3.5 0 
" id="m37fee01e5e" style="stroke:#000000;stroke-width:0.8;"/>
      </defs>
      <g>
       <use style="stroke:#000000;stroke-width:0.8;" x="798.874375" xlink:href="#m37fee01e5e" y="368.881649"/>
      </g>
     </g>
     <g id="text_30">
      <!-- 0 -->
      <g transform="translate(805.874375 372.680868)scale(0.1 -0.1)">
       <use xlink:href="#DejaVuSans-48"/>
      </g>
     </g>
    </g>
    <g id="ytick_11">
     <g id="line2d_23">
      <g>
       <use style="stroke:#000000;stroke-width:0.8;" x="798.874375" xlink:href="#m37fee01e5e" y="323.312351"/>
      </g>
     </g>
     <g id="text_31">
      <!-- 500 -->
      <g transform="translate(805.874375 327.11157)scale(0.1 -0.1)">
       <use xlink:href="#DejaVuSans-53"/>
       <use x="63.623047" xlink:href="#DejaVuSans-48"/>
       <use x="127.246094" xlink:href="#DejaVuSans-48"/>
      </g>
     </g>
    </g>
    <g id="ytick_12">
     <g id="line2d_24">
      <g>
       <use style="stroke:#000000;stroke-width:0.8;" x="798.874375" xlink:href="#m37fee01e5e" y="277.743054"/>
      </g>
     </g>
     <g id="text_32">
      <!-- 1000 -->
      <g transform="translate(805.874375 281.542273)scale(0.1 -0.1)">
       <use xlink:href="#DejaVuSans-49"/>
       <use x="63.623047" xlink:href="#DejaVuSans-48"/>
       <use x="127.246094" xlink:href="#DejaVuSans-48"/>
       <use x="190.869141" xlink:href="#DejaVuSans-48"/>
      </g>
     </g>
    </g>
    <g id="ytick_13">
     <g id="line2d_25">
      <g>
       <use style="stroke:#000000;stroke-width:0.8;" x="798.874375" xlink:href="#m37fee01e5e" y="232.173757"/>
      </g>
     </g>
     <g id="text_33">
      <!-- 1500 -->
      <g transform="translate(805.874375 235.972975)scale(0.1 -0.1)">
       <use xlink:href="#DejaVuSans-49"/>
       <use x="63.623047" xlink:href="#DejaVuSans-53"/>
       <use x="127.246094" xlink:href="#DejaVuSans-48"/>
       <use x="190.869141" xlink:href="#DejaVuSans-48"/>
      </g>
     </g>
    </g>
    <g id="ytick_14">
     <g id="line2d_26">
      <g>
       <use style="stroke:#000000;stroke-width:0.8;" x="798.874375" xlink:href="#m37fee01e5e" y="186.604459"/>
      </g>
     </g>
     <g id="text_34">
      <!-- 2000 -->
      <g transform="translate(805.874375 190.403678)scale(0.1 -0.1)">
       <use xlink:href="#DejaVuSans-50"/>
       <use x="63.623047" xlink:href="#DejaVuSans-48"/>
       <use x="127.246094" xlink:href="#DejaVuSans-48"/>
       <use x="190.869141" xlink:href="#DejaVuSans-48"/>
      </g>
     </g>
    </g>
    <g id="ytick_15">
     <g id="line2d_27">
      <g>
       <use style="stroke:#000000;stroke-width:0.8;" x="798.874375" xlink:href="#m37fee01e5e" y="141.035162"/>
      </g>
     </g>
     <g id="text_35">
      <!-- 2500 -->
      <g transform="translate(805.874375 144.83438)scale(0.1 -0.1)">
       <use xlink:href="#DejaVuSans-50"/>
       <use x="63.623047" xlink:href="#DejaVuSans-53"/>
       <use x="127.246094" xlink:href="#DejaVuSans-48"/>
       <use x="190.869141" xlink:href="#DejaVuSans-48"/>
      </g>
     </g>
    </g>
    <g id="ytick_16">
     <g id="line2d_28">
      <g>
       <use style="stroke:#000000;stroke-width:0.8;" x="798.874375" xlink:href="#m37fee01e5e" y="95.465864"/>
      </g>
     </g>
     <g id="text_36">
      <!-- 3000 -->
      <g transform="translate(805.874375 99.265083)scale(0.1 -0.1)">
       <use xlink:href="#DejaVuSans-51"/>
       <use x="63.623047" xlink:href="#DejaVuSans-48"/>
       <use x="127.246094" xlink:href="#DejaVuSans-48"/>
       <use x="190.869141" xlink:href="#DejaVuSans-48"/>
      </g>
     </g>
    </g>
    <g id="ytick_17">
     <g id="line2d_29">
      <g>
       <use style="stroke:#000000;stroke-width:0.8;" x="798.874375" xlink:href="#m37fee01e5e" y="49.896567"/>
      </g>
     </g>
     <g id="text_37">
      <!-- 3500 -->
      <g transform="translate(805.874375 53.695785)scale(0.1 -0.1)">
       <use xlink:href="#DejaVuSans-51"/>
       <use x="63.623047" xlink:href="#DejaVuSans-53"/>
       <use x="127.246094" xlink:href="#DejaVuSans-48"/>
       <use x="190.869141" xlink:href="#DejaVuSans-48"/>
      </g>
     </g>
    </g>
    <g id="text_38">
     <!-- Total Sightings -->
     <defs>
      <path d="M 9.421875 75.984375 
L 18.40625 75.984375 
L 18.40625 0 
L 9.421875 0 
z
" id="DejaVuSans-108"/>
      <path d="M 54.890625 33.015625 
L 54.890625 0 
L 45.90625 0 
L 45.90625 32.71875 
Q 45.90625 40.484375 42.875 44.328125 
Q 39.84375 48.1875 33.796875 48.1875 
Q 26.515625 48.1875 22.3125 43.546875 
Q 18.109375 38.921875 18.109375 30.90625 
L 18.109375 0 
L 9.078125 0 
L 9.078125 75.984375 
L 18.109375 75.984375 
L 18.109375 46.1875 
Q 21.34375 51.125 25.703125 53.5625 
Q 30.078125 56 35.796875 56 
Q 45.21875 56 50.046875 50.171875 
Q 54.890625 44.34375 54.890625 33.015625 
z
" id="DejaVuSans-104"/>
     </defs>
     <g transform="translate(845.962188 255.11375)rotate(-90)scale(0.14 -0.14)">
      <use xlink:href="#DejaVuSans-84"/>
      <use x="44.083984" xlink:href="#DejaVuSans-111"/>
      <use x="105.265625" xlink:href="#DejaVuSans-116"/>
      <use x="144.474609" xlink:href="#DejaVuSans-97"/>
      <use x="205.753906" xlink:href="#DejaVuSans-108"/>
      <use x="233.537109" xlink:href="#DejaVuSans-32"/>
      <use x="265.324219" xlink:href="#DejaVuSans-83"/>
      <use x="328.800781" xlink:href="#DejaVuSans-105"/>
      <use x="356.583984" xlink:href="#DejaVuSans-103"/>
      <use x="420.060547" xlink:href="#DejaVuSans-104"/>
      <use x="483.439453" xlink:href="#DejaVuSans-116"/>
      <use x="522.648438" xlink:href="#DejaVuSans-105"/>
      <use x="550.431641" xlink:href="#DejaVuSans-110"/>
      <use x="613.810547" xlink:href="#DejaVuSans-103"/>
      <use x="677.287109" xlink:href="#DejaVuSans-115"/>
     </g>
    </g>
   </g>
   <g id="line2d_30">
    <path clip-path="url(#p01d983cc49)" d="M 447.950758 180.04248 
L 459.475343 195.080348 
L 470.999928 178.12857 
L 482.524513 174.574165 
L 494.049098 176.579214 
L 505.573684 157.622386 
L 517.098269 151.333823 
L 528.622854 169.743819 
L 540.147439 145.956646 
L 551.672024 136.387093 
L 563.196609 136.113677 
L 574.721194 133.835213 
L 586.245779 138.847835 
L 597.770365 115.151801 
L 609.29495 121.987195 
L 620.819535 139.85036 
L 632.34412 115.972048 
L 643.868705 55.638298 
L 655.39329 78.514085 
L 666.917875 107.222743 
L 678.44246 116.336602 
L 689.967046 121.713779 
L 701.491631 127.364372 
L 713.016216 111.050564 
L 724.540801 102.21012 
L 736.065386 88.539331 
L 747.589971 83.526708 
L 759.114556 94.372201 
L 770.639141 66.392652 
L 782.163727 67.668593 
" style="fill:none;stroke:#1f77b4;stroke-linecap:square;stroke-width:1.5;"/>
   </g>
   <g id="line2d_31">
    <path clip-path="url(#p01d983cc49)" d="M 447.950758 363.048779 
L 459.475343 363.686749 
L 470.999928 362.228531 
L 482.524513 365.418382 
L 494.049098 365.691798 
L 505.573684 366.512045 
L 517.098269 356.304523 
L 528.622854 356.4868 
L 540.147439 358.400711 
L 551.672024 351.92987 
L 563.196609 362.501947 
L 574.721194 356.4868 
L 586.245779 356.942493 
L 597.770365 346.188139 
L 609.29495 351.474177 
L 620.819535 352.932395 
L 632.34412 351.838732 
L 643.868705 354.664028 
L 655.39329 348.102049 
L 666.917875 354.026058 
L 678.44246 350.745069 
L 689.967046 356.942493 
L 701.491631 352.021009 
L 713.016216 355.666553 
L 724.540801 353.114672 
L 736.065386 356.577939 
L 747.589971 357.12477 
L 759.114556 358.309572 
L 770.639141 357.853879 
L 782.163727 354.208335 
" style="fill:none;stroke:#ff7f0e;stroke-linecap:square;stroke-width:1.5;"/>
   </g>
   <g id="line2d_32">
    <path clip-path="url(#p01d983cc49)" d="M 447.950758 300.07201 
L 459.475343 313.469383 
L 470.999928 302.532752 
L 482.524513 314.745324 
L 494.049098 323.40349 
L 505.573684 305.084632 
L 517.098269 304.62894 
L 528.622854 306.998543 
L 540.147439 319.302253 
L 551.672024 313.469383 
L 563.196609 304.446662 
L 574.721194 306.54285 
L 586.245779 315.565571 
L 597.770365 294.056862 
L 609.29495 286.310082 
L 620.819535 288.588547 
L 632.34412 292.416368 
L 643.868705 289.773349 
L 655.39329 295.241664 
L 666.917875 296.061912 
L 678.44246 281.570875 
L 689.967046 291.59612 
L 701.491631 284.578449 
L 713.016216 298.796069 
L 724.540801 280.386073 
L 736.065386 299.798594 
L 747.589971 296.882159 
L 759.114556 298.887208 
L 770.639141 294.421417 
L 782.163727 288.588547 
" style="fill:none;stroke:#2ca02c;stroke-linecap:square;stroke-width:1.5;"/>
   </g>
   <g id="line2d_33">
    <path clip-path="url(#p01d983cc49)" d="M 447.950758 55.54716 
L 459.475343 120.346701 
L 470.999928 134.746599 
L 482.524513 158.078079 
L 494.049098 160.903375 
L 505.573684 132.923827 
L 517.098269 115.880909 
L 528.622854 103.668338 
L 540.147439 66.57493 
L 551.672024 41.602955 
L 563.196609 86.989975 
L 574.721194 93.369676 
L 586.245779 88.083638 
L 597.770365 148.599665 
L 609.29495 124.083383 
L 620.819535 149.60219 
L 632.34412 117.339127 
L 643.868705 123.263136 
L 655.39329 132.012441 
L 666.917875 175.941243 
L 678.44246 191.890498 
L 689.967046 191.07025 
L 701.491631 209.844801 
L 713.016216 188.700647 
L 724.540801 148.690804 
L 736.065386 151.333823 
L 747.589971 154.614812 
L 759.114556 145.394624 
L 770.639141 154.797089 
L 782.163727 150.604714 
" style="fill:none;stroke:#d62728;stroke-linecap:square;stroke-width:1.5;"/>
   </g>
   <g id="patch_9">
    <path d="M 431.24011 382.7575 
L 431.24011 25.3575 
" style="fill:none;stroke:#000000;stroke-linecap:square;stroke-linejoin:miter;stroke-width:0.8;"/>
   </g>
   <g id="patch_10">
    <path d="M 798.874375 382.7575 
L 798.874375 25.3575 
" style="fill:none;stroke:#000000;stroke-linecap:square;stroke-linejoin:miter;stroke-width:0.8;"/>
   </g>
   <g id="patch_11">
    <path d="M 431.24011 382.7575 
L 798.874375 382.7575 
" style="fill:none;stroke:#000000;stroke-linecap:square;stroke-linejoin:miter;stroke-width:0.8;"/>
   </g>
   <g id="patch_12">
    <path d="M 431.24011 25.3575 
L 798.874375 25.3575 
" style="fill:none;stroke:#000000;stroke-linecap:square;stroke-linejoin:miter;stroke-width:0.8;"/>
   </g>
   <g id="text_39">
    <!-- Song Sparrow Time Series -->
    <defs>
     <path d="M 4.203125 54.6875 
L 13.1875 54.6875 
L 24.421875 12.015625 
L 35.59375 54.6875 
L 46.1875 54.6875 
L 57.421875 12.015625 
L 68.609375 54.6875 
L 77.59375 54.6875 
L 63.28125 0 
L 52.6875 0 
L 40.921875 44.828125 
L 29.109375 0 
L 18.5 0 
z
" id="DejaVuSans-119"/>
    </defs>
    <g transform="translate(510.375992 19.3575)scale(0.16 -0.16)">
     <use xlink:href="#DejaVuSans-83"/>
     <use x="63.476562" xlink:href="#DejaVuSans-111"/>
     <use x="124.658203" xlink:href="#DejaVuSans-110"/>
     <use x="188.037109" xlink:href="#DejaVuSans-103"/>
     <use x="251.513672" xlink:href="#DejaVuSans-32"/>
     <use x="283.300781" xlink:href="#DejaVuSans-83"/>
     <use x="346.777344" xlink:href="#DejaVuSans-112"/>
     <use x="410.253906" xlink:href="#DejaVuSans-97"/>
     <use x="471.533203" xlink:href="#DejaVuSans-114"/>
     <use x="510.896484" xlink:href="#DejaVuSans-114"/>
     <use x="549.759766" xlink:href="#DejaVuSans-111"/>
     <use x="610.941406" xlink:href="#DejaVuSans-119"/>
     <use x="692.728516" xlink:href="#DejaVuSans-32"/>
     <use x="724.515625" xlink:href="#DejaVuSans-84"/>
     <use x="782.474609" xlink:href="#DejaVuSans-105"/>
     <use x="810.257812" xlink:href="#DejaVuSans-109"/>
     <use x="907.669922" xlink:href="#DejaVuSans-101"/>
     <use x="969.193359" xlink:href="#DejaVuSans-32"/>
     <use x="1000.980469" xlink:href="#DejaVuSans-83"/>
     <use x="1064.457031" xlink:href="#DejaVuSans-101"/>
     <use x="1125.980469" xlink:href="#DejaVuSans-114"/>
     <use x="1167.09375" xlink:href="#DejaVuSans-105"/>
     <use x="1194.876953" xlink:href="#DejaVuSans-101"/>
     <use x="1256.400391" xlink:href="#DejaVuSans-115"/>
    </g>
   </g>
  </g>
 </g>
 <defs>
  <clipPath id="pa8f4e61692">
   <rect height="357.4" width="367.634265" x="44.474375" y="25.3575"/>
  </clipPath>
  <clipPath id="p01d983cc49">
   <rect height="357.4" width="367.634265" x="431.24011" y="25.3575"/>
  </clipPath>
 </defs>
</svg>
