<?xml version="1.0" encoding="utf-8" standalone="no"?>
<!DOCTYPE svg PUBLIC "-//W3C//DTD SVG 1.1//EN"
  "http://www.w3.org/Graphics/SVG/1.1/DTD/svg11.dtd">
<!-- Created with matplotlib (https://matplotlib.org/) -->
<svg height="511.839pt" version="1.1" viewBox="0 0 649.785 511.839" width="649.785pt" xmlns="http://www.w3.org/2000/svg" xmlns:xlink="http://www.w3.org/1999/xlink">
 <defs>
  <style type="text/css">
*{stroke-linecap:butt;stroke-linejoin:round;}
  </style>
 </defs>
 <g id="figure_1">
  <g id="patch_1">
   <path d="M 0 511.839 
L 649.785 511.839 
L 649.785 0 
L 0 0 
z
" style="fill:#ffffff;"/>
  </g>
  <g id="axes_1">
   <g id="patch_2">
    <path d="M 74.405 462.669 
L 632.405 462.669 
L 632.405 27.789 
L 74.405 27.789 
z
" style="fill:#ffffff;"/>
   </g>
   <g id="PathCollection_1">
    <defs>
     <path d="M 0 1.936492 
C 0.513564 1.936492 1.006162 1.732451 1.369306 1.369306 
C 1.732451 1.006162 1.936492 0.513564 1.936492 0 
C 1.936492 -0.513564 1.732451 -1.006162 1.369306 -1.369306 
C 1.006162 -1.732451 0.513564 -1.936492 0 -1.936492 
C -0.513564 -1.936492 -1.006162 -1.732451 -1.369306 -1.369306 
C -1.732451 -1.006162 -1.936492 -0.513564 -1.936492 0 
C -1.936492 0.513564 -1.732451 1.006162 -1.369306 1.369306 
C -1.006162 1.732451 -0.513564 1.936492 0 1.936492 
z
" id="m6ae7f0fe1f" style="stroke:#1f77b4;"/>
    </defs>
    <g clip-path="url(#p38707785db)">
     <use style="fill:#1f77b4;stroke:#1f77b4;" x="126.342947" xlink:href="#m6ae7f0fe1f" y="442.901727"/>
     <use style="fill:#1f77b4;stroke:#1f77b4;" x="126.342947" xlink:href="#m6ae7f0fe1f" y="442.901727"/>
     <use style="fill:#1f77b4;stroke:#1f77b4;" x="152.977792" xlink:href="#m6ae7f0fe1f" y="442.901727"/>
     <use style="fill:#1f77b4;stroke:#1f77b4;" x="126.342947" xlink:href="#m6ae7f0fe1f" y="442.901727"/>
     <use style="fill:#1f77b4;stroke:#1f77b4;" x="152.977792" xlink:href="#m6ae7f0fe1f" y="442.901727"/>
     <use style="fill:#1f77b4;stroke:#1f77b4;" x="126.342947" xlink:href="#m6ae7f0fe1f" y="232.456857"/>
     <use style="fill:#1f77b4;stroke:#1f77b4;" x="126.342947" xlink:href="#m6ae7f0fe1f" y="428.203186"/>
     <use style="fill:#1f77b4;stroke:#1f77b4;" x="179.612637" xlink:href="#m6ae7f0fe1f" y="430.428257"/>
     <use style="fill:#1f77b4;stroke:#1f77b4;" x="126.342947" xlink:href="#m6ae7f0fe1f" y="271.257156"/>
     <use style="fill:#1f77b4;stroke:#1f77b4;" x="152.977792" xlink:href="#m6ae7f0fe1f" y="179.924846"/>
     <use style="fill:#1f77b4;stroke:#1f77b4;" x="179.612637" xlink:href="#m6ae7f0fe1f" y="442.901727"/>
     <use style="fill:#1f77b4;stroke:#1f77b4;" x="126.342947" xlink:href="#m6ae7f0fe1f" y="436.642297"/>
     <use style="fill:#1f77b4;stroke:#1f77b4;" x="179.612637" xlink:href="#m6ae7f0fe1f" y="378.46999"/>
     <use style="fill:#1f77b4;stroke:#1f77b4;" x="126.342947" xlink:href="#m6ae7f0fe1f" y="381.738148"/>
     <use style="fill:#1f77b4;stroke:#1f77b4;" x="126.342947" xlink:href="#m6ae7f0fe1f" y="426.641733"/>
     <use style="fill:#1f77b4;stroke:#1f77b4;" x="286.152017" xlink:href="#m6ae7f0fe1f" y="408.083134"/>
     <use style="fill:#1f77b4;stroke:#1f77b4;" x="179.612637" xlink:href="#m6ae7f0fe1f" y="436.664992"/>
     <use style="fill:#1f77b4;stroke:#1f77b4;" x="152.977792" xlink:href="#m6ae7f0fe1f" y="407.081807"/>
     <use style="fill:#1f77b4;stroke:#1f77b4;" x="152.977792" xlink:href="#m6ae7f0fe1f" y="439.803332"/>
     <use style="fill:#1f77b4;stroke:#1f77b4;" x="152.977792" xlink:href="#m6ae7f0fe1f" y="438.439784"/>
     <use style="fill:#1f77b4;stroke:#1f77b4;" x="232.882327" xlink:href="#m6ae7f0fe1f" y="399.813786"/>
     <use style="fill:#1f77b4;stroke:#1f77b4;" x="126.342947" xlink:href="#m6ae7f0fe1f" y="442.901727"/>
     <use style="fill:#1f77b4;stroke:#1f77b4;" x="206.247482" xlink:href="#m6ae7f0fe1f" y="421.701367"/>
     <use style="fill:#1f77b4;stroke:#1f77b4;" x="126.342947" xlink:href="#m6ae7f0fe1f" y="442.901727"/>
     <use style="fill:#1f77b4;stroke:#1f77b4;" x="152.977792" xlink:href="#m6ae7f0fe1f" y="442.901727"/>
     <use style="fill:#1f77b4;stroke:#1f77b4;" x="179.612637" xlink:href="#m6ae7f0fe1f" y="426.25954"/>
     <use style="fill:#1f77b4;stroke:#1f77b4;" x="152.977792" xlink:href="#m6ae7f0fe1f" y="437.743484"/>
     <use style="fill:#1f77b4;stroke:#1f77b4;" x="152.977792" xlink:href="#m6ae7f0fe1f" y="426.633562"/>
     <use style="fill:#1f77b4;stroke:#1f77b4;" x="232.882327" xlink:href="#m6ae7f0fe1f" y="404.728733"/>
     <use style="fill:#1f77b4;stroke:#1f77b4;" x="126.342947" xlink:href="#m6ae7f0fe1f" y="435.757171"/>
     <use style="fill:#1f77b4;stroke:#1f77b4;" x="259.517172" xlink:href="#m6ae7f0fe1f" y="421.051367"/>
     <use style="fill:#1f77b4;stroke:#1f77b4;" x="152.977792" xlink:href="#m6ae7f0fe1f" y="433.914292"/>
     <use style="fill:#1f77b4;stroke:#1f77b4;" x="179.612637" xlink:href="#m6ae7f0fe1f" y="391.26029"/>
     <use style="fill:#1f77b4;stroke:#1f77b4;" x="152.977792" xlink:href="#m6ae7f0fe1f" y="422.602834"/>
     <use style="fill:#1f77b4;stroke:#1f77b4;" x="179.612637" xlink:href="#m6ae7f0fe1f" y="313.896633"/>
     <use style="fill:#1f77b4;stroke:#1f77b4;" x="126.342947" xlink:href="#m6ae7f0fe1f" y="442.901727"/>
     <use style="fill:#1f77b4;stroke:#1f77b4;" x="152.977792" xlink:href="#m6ae7f0fe1f" y="371.334512"/>
     <use style="fill:#1f77b4;stroke:#1f77b4;" x="179.612637" xlink:href="#m6ae7f0fe1f" y="442.901727"/>
     <use style="fill:#1f77b4;stroke:#1f77b4;" x="179.612637" xlink:href="#m6ae7f0fe1f" y="284.878113"/>
     <use style="fill:#1f77b4;stroke:#1f77b4;" x="179.612637" xlink:href="#m6ae7f0fe1f" y="410.394448"/>
     <use style="fill:#1f77b4;stroke:#1f77b4;" x="126.342947" xlink:href="#m6ae7f0fe1f" y="412.606809"/>
     <use style="fill:#1f77b4;stroke:#1f77b4;" x="232.882327" xlink:href="#m6ae7f0fe1f" y="429.296204"/>
     <use style="fill:#1f77b4;stroke:#1f77b4;" x="126.342947" xlink:href="#m6ae7f0fe1f" y="126.492277"/>
     <use style="fill:#1f77b4;stroke:#1f77b4;" x="179.612637" xlink:href="#m6ae7f0fe1f" y="295.653048"/>
     <use style="fill:#1f77b4;stroke:#1f77b4;" x="126.342947" xlink:href="#m6ae7f0fe1f" y="442.901727"/>
     <use style="fill:#1f77b4;stroke:#1f77b4;" x="152.977792" xlink:href="#m6ae7f0fe1f" y="436.705844"/>
     <use style="fill:#1f77b4;stroke:#1f77b4;" x="179.612637" xlink:href="#m6ae7f0fe1f" y="433.946974"/>
     <use style="fill:#1f77b4;stroke:#1f77b4;" x="206.247482" xlink:href="#m6ae7f0fe1f" y="415.185931"/>
     <use style="fill:#1f77b4;stroke:#1f77b4;" x="152.977792" xlink:href="#m6ae7f0fe1f" y="415.125107"/>
     <use style="fill:#1f77b4;stroke:#1f77b4;" x="126.342947" xlink:href="#m6ae7f0fe1f" y="442.901727"/>
     <use style="fill:#1f77b4;stroke:#1f77b4;" x="126.342947" xlink:href="#m6ae7f0fe1f" y="442.901727"/>
     <use style="fill:#1f77b4;stroke:#1f77b4;" x="152.977792" xlink:href="#m6ae7f0fe1f" y="423.203812"/>
     <use style="fill:#1f77b4;stroke:#1f77b4;" x="366.056551" xlink:href="#m6ae7f0fe1f" y="369.115796"/>
     <use style="fill:#1f77b4;stroke:#1f77b4;" x="152.977792" xlink:href="#m6ae7f0fe1f" y="396.4031"/>
     <use style="fill:#1f77b4;stroke:#1f77b4;" x="126.342947" xlink:href="#m6ae7f0fe1f" y="428.482795"/>
     <use style="fill:#1f77b4;stroke:#1f77b4;" x="312.786862" xlink:href="#m6ae7f0fe1f" y="442.901727"/>
     <use style="fill:#1f77b4;stroke:#1f77b4;" x="605.770155" xlink:href="#m6ae7f0fe1f" y="391.4936"/>
     <use style="fill:#1f77b4;stroke:#1f77b4;" x="206.247482" xlink:href="#m6ae7f0fe1f" y="442.901727"/>
     <use style="fill:#1f77b4;stroke:#1f77b4;" x="126.342947" xlink:href="#m6ae7f0fe1f" y="442.901727"/>
     <use style="fill:#1f77b4;stroke:#1f77b4;" x="232.882327" xlink:href="#m6ae7f0fe1f" y="442.901727"/>
     <use style="fill:#1f77b4;stroke:#1f77b4;" x="312.786862" xlink:href="#m6ae7f0fe1f" y="440.257243"/>
     <use style="fill:#1f77b4;stroke:#1f77b4;" x="152.977792" xlink:href="#m6ae7f0fe1f" y="438.651306"/>
     <use style="fill:#1f77b4;stroke:#1f77b4;" x="232.882327" xlink:href="#m6ae7f0fe1f" y="240.235073"/>
     <use style="fill:#1f77b4;stroke:#1f77b4;" x="259.517172" xlink:href="#m6ae7f0fe1f" y="435.306891"/>
     <use style="fill:#1f77b4;stroke:#1f77b4;" x="552.500465" xlink:href="#m6ae7f0fe1f" y="335.816896"/>
     <use style="fill:#1f77b4;stroke:#1f77b4;" x="339.421706" xlink:href="#m6ae7f0fe1f" y="422.666382"/>
     <use style="fill:#1f77b4;stroke:#1f77b4;" x="152.977792" xlink:href="#m6ae7f0fe1f" y="442.901727"/>
     <use style="fill:#1f77b4;stroke:#1f77b4;" x="126.342947" xlink:href="#m6ae7f0fe1f" y="414.326224"/>
     <use style="fill:#1f77b4;stroke:#1f77b4;" x="206.247482" xlink:href="#m6ae7f0fe1f" y="442.901727"/>
     <use style="fill:#1f77b4;stroke:#1f77b4;" x="179.612637" xlink:href="#m6ae7f0fe1f" y="385.025371"/>
     <use style="fill:#1f77b4;stroke:#1f77b4;" x="179.612637" xlink:href="#m6ae7f0fe1f" y="373.161957"/>
     <use style="fill:#1f77b4;stroke:#1f77b4;" x="126.342947" xlink:href="#m6ae7f0fe1f" y="386.939059"/>
     <use style="fill:#1f77b4;stroke:#1f77b4;" x="232.882327" xlink:href="#m6ae7f0fe1f" y="291.231957"/>
     <use style="fill:#1f77b4;stroke:#1f77b4;" x="126.342947" xlink:href="#m6ae7f0fe1f" y="442.901727"/>
     <use style="fill:#1f77b4;stroke:#1f77b4;" x="126.342947" xlink:href="#m6ae7f0fe1f" y="436.625956"/>
     <use style="fill:#1f77b4;stroke:#1f77b4;" x="152.977792" xlink:href="#m6ae7f0fe1f" y="442.901727"/>
     <use style="fill:#1f77b4;stroke:#1f77b4;" x="206.247482" xlink:href="#m6ae7f0fe1f" y="421.960096"/>
     <use style="fill:#1f77b4;stroke:#1f77b4;" x="126.342947" xlink:href="#m6ae7f0fe1f" y="433.51939"/>
     <use style="fill:#1f77b4;stroke:#1f77b4;" x="232.882327" xlink:href="#m6ae7f0fe1f" y="442.901727"/>
     <use style="fill:#1f77b4;stroke:#1f77b4;" x="206.247482" xlink:href="#m6ae7f0fe1f" y="438.409826"/>
     <use style="fill:#1f77b4;stroke:#1f77b4;" x="152.977792" xlink:href="#m6ae7f0fe1f" y="391.918461"/>
     <use style="fill:#1f77b4;stroke:#1f77b4;" x="126.342947" xlink:href="#m6ae7f0fe1f" y="439.533709"/>
     <use style="fill:#1f77b4;stroke:#1f77b4;" x="126.342947" xlink:href="#m6ae7f0fe1f" y="442.901727"/>
     <use style="fill:#1f77b4;stroke:#1f77b4;" x="259.517172" xlink:href="#m6ae7f0fe1f" y="442.901727"/>
     <use style="fill:#1f77b4;stroke:#1f77b4;" x="152.977792" xlink:href="#m6ae7f0fe1f" y="415.79054"/>
     <use style="fill:#1f77b4;stroke:#1f77b4;" x="179.612637" xlink:href="#m6ae7f0fe1f" y="413.146963"/>
     <use style="fill:#1f77b4;stroke:#1f77b4;" x="126.342947" xlink:href="#m6ae7f0fe1f" y="442.901727"/>
     <use style="fill:#1f77b4;stroke:#1f77b4;" x="179.612637" xlink:href="#m6ae7f0fe1f" y="442.901727"/>
     <use style="fill:#1f77b4;stroke:#1f77b4;" x="232.882327" xlink:href="#m6ae7f0fe1f" y="390.019298"/>
     <use style="fill:#1f77b4;stroke:#1f77b4;" x="126.342947" xlink:href="#m6ae7f0fe1f" y="442.901727"/>
    </g>
   </g>
   <g id="PathCollection_2">
    <defs>
     <path d="M 0 -3.872983 
L -3.872983 3.872983 
L 3.872983 3.872983 
z
" id="m7dfedfe144" style="stroke:#008000;"/>
    </defs>
    <g clip-path="url(#p38707785db)">
     <use style="fill:#008000;stroke:#008000;" x="126.342947" xlink:href="#m7dfedfe144" y="437.502004"/>
     <use style="fill:#008000;stroke:#008000;" x="126.342947" xlink:href="#m7dfedfe144" y="440.225469"/>
     <use style="fill:#008000;stroke:#008000;" x="126.342947" xlink:href="#m7dfedfe144" y="435.306891"/>
     <use style="fill:#008000;stroke:#008000;" x="152.977792" xlink:href="#m7dfedfe144" y="442.901727"/>
     <use style="fill:#008000;stroke:#008000;" x="126.342947" xlink:href="#m7dfedfe144" y="442.901727"/>
     <use style="fill:#008000;stroke:#008000;" x="126.342947" xlink:href="#m7dfedfe144" y="442.901727"/>
     <use style="fill:#008000;stroke:#008000;" x="126.342947" xlink:href="#m7dfedfe144" y="442.901727"/>
     <use style="fill:#008000;stroke:#008000;" x="152.977792" xlink:href="#m7dfedfe144" y="303.344114"/>
     <use style="fill:#008000;stroke:#008000;" x="152.977792" xlink:href="#m7dfedfe144" y="404.506316"/>
     <use style="fill:#008000;stroke:#008000;" x="152.977792" xlink:href="#m7dfedfe144" y="440.013039"/>
     <use style="fill:#008000;stroke:#008000;" x="126.342947" xlink:href="#m7dfedfe144" y="442.901727"/>
     <use style="fill:#008000;stroke:#008000;" x="126.342947" xlink:href="#m7dfedfe144" y="419.674201"/>
     <use style="fill:#008000;stroke:#008000;" x="126.342947" xlink:href="#m7dfedfe144" y="292.358563"/>
    </g>
   </g>
   <g id="PathCollection_3">
    <defs>
     <path d="M -3.872983 3.872983 
L 3.872983 3.872983 
L 3.872983 -3.872983 
L -3.872983 -3.872983 
z
" id="md7cab88897" style="stroke:#ff0000;"/>
    </defs>
    <g clip-path="url(#p38707785db)">
     <use style="fill:#ff0000;stroke:#ff0000;" x="126.342947" xlink:href="#md7cab88897" y="442.901727"/>
     <use style="fill:#ff0000;stroke:#ff0000;" x="126.342947" xlink:href="#md7cab88897" y="442.901727"/>
     <use style="fill:#ff0000;stroke:#ff0000;" x="126.342947" xlink:href="#md7cab88897" y="442.901727"/>
     <use style="fill:#ff0000;stroke:#ff0000;" x="126.342947" xlink:href="#md7cab88897" y="442.901727"/>
     <use style="fill:#ff0000;stroke:#ff0000;" x="126.342947" xlink:href="#md7cab88897" y="442.901727"/>
     <use style="fill:#ff0000;stroke:#ff0000;" x="126.342947" xlink:href="#md7cab88897" y="438.441599"/>
     <use style="fill:#ff0000;stroke:#ff0000;" x="126.342947" xlink:href="#md7cab88897" y="384.836544"/>
     <use style="fill:#ff0000;stroke:#ff0000;" x="126.342947" xlink:href="#md7cab88897" y="439.105217"/>
     <use style="fill:#ff0000;stroke:#ff0000;" x="126.342947" xlink:href="#md7cab88897" y="438.651306"/>
     <use style="fill:#ff0000;stroke:#ff0000;" x="126.342947" xlink:href="#md7cab88897" y="442.901727"/>
    </g>
   </g>
   <g id="PathCollection_4">
    <defs>
     <path d="M -1.581107 1.581107 
L 1.58117 1.581107 
L 1.58117 -1.58117 
L -1.581107 -1.58117 
z
" id="m11734b6069" style="stroke:#808080;"/>
    </defs>
    <g clip-path="url(#p38707785db)">
     <use style="fill:#808080;stroke:#808080;" x="99.708103" xlink:href="#m11734b6069" y="442.901727"/>
     <use style="fill:#808080;stroke:#808080;" x="99.708103" xlink:href="#m11734b6069" y="442.901727"/>
     <use style="fill:#808080;stroke:#808080;" x="99.708103" xlink:href="#m11734b6069" y="436.664992"/>
     <use style="fill:#808080;stroke:#808080;" x="99.708103" xlink:href="#m11734b6069" y="442.901727"/>
     <use style="fill:#808080;stroke:#808080;" x="99.708103" xlink:href="#m11734b6069" y="442.901727"/>
     <use style="fill:#808080;stroke:#808080;" x="99.708103" xlink:href="#m11734b6069" y="432.63608"/>
     <use style="fill:#808080;stroke:#808080;" x="99.708103" xlink:href="#m11734b6069" y="433.491248"/>
     <use style="fill:#808080;stroke:#808080;" x="99.708103" xlink:href="#m11734b6069" y="442.901727"/>
     <use style="fill:#808080;stroke:#808080;" x="99.708103" xlink:href="#m11734b6069" y="421.954649"/>
     <use style="fill:#808080;stroke:#808080;" x="99.708103" xlink:href="#m11734b6069" y="436.664992"/>
     <use style="fill:#808080;stroke:#808080;" x="99.708103" xlink:href="#m11734b6069" y="369.319148"/>
     <use style="fill:#808080;stroke:#808080;" x="99.708103" xlink:href="#m11734b6069" y="430.386497"/>
     <use style="fill:#808080;stroke:#808080;" x="99.708103" xlink:href="#m11734b6069" y="439.349421"/>
     <use style="fill:#808080;stroke:#808080;" x="99.708103" xlink:href="#m11734b6069" y="442.901727"/>
     <use style="fill:#808080;stroke:#808080;" x="99.708103" xlink:href="#m11734b6069" y="442.901727"/>
     <use style="fill:#808080;stroke:#808080;" x="99.708103" xlink:href="#m11734b6069" y="431.336079"/>
     <use style="fill:#808080;stroke:#808080;" x="99.708103" xlink:href="#m11734b6069" y="430.509961"/>
     <use style="fill:#808080;stroke:#808080;" x="99.708103" xlink:href="#m11734b6069" y="417.519033"/>
     <use style="fill:#808080;stroke:#808080;" x="99.708103" xlink:href="#m11734b6069" y="414.638514"/>
     <use style="fill:#808080;stroke:#808080;" x="99.708103" xlink:href="#m11734b6069" y="442.901727"/>
     <use style="fill:#808080;stroke:#808080;" x="99.708103" xlink:href="#m11734b6069" y="442.901727"/>
     <use style="fill:#808080;stroke:#808080;" x="99.708103" xlink:href="#m11734b6069" y="442.901727"/>
     <use style="fill:#808080;stroke:#808080;" x="99.708103" xlink:href="#m11734b6069" y="421.188448"/>
     <use style="fill:#808080;stroke:#808080;" x="99.708103" xlink:href="#m11734b6069" y="442.901727"/>
     <use style="fill:#808080;stroke:#808080;" x="99.708103" xlink:href="#m11734b6069" y="305.209687"/>
     <use style="fill:#808080;stroke:#808080;" x="99.708103" xlink:href="#m11734b6069" y="436.460732"/>
     <use style="fill:#808080;stroke:#808080;" x="99.708103" xlink:href="#m11734b6069" y="442.901727"/>
     <use style="fill:#808080;stroke:#808080;" x="99.708103" xlink:href="#m11734b6069" y="398.290461"/>
     <use style="fill:#808080;stroke:#808080;" x="99.708103" xlink:href="#m11734b6069" y="420.645571"/>
     <use style="fill:#808080;stroke:#808080;" x="99.708103" xlink:href="#m11734b6069" y="442.901727"/>
     <use style="fill:#808080;stroke:#808080;" x="99.708103" xlink:href="#m11734b6069" y="442.901727"/>
     <use style="fill:#808080;stroke:#808080;" x="99.708103" xlink:href="#m11734b6069" y="442.901727"/>
     <use style="fill:#808080;stroke:#808080;" x="99.708103" xlink:href="#m11734b6069" y="229.430179"/>
     <use style="fill:#808080;stroke:#808080;" x="99.708103" xlink:href="#m11734b6069" y="403.37971"/>
     <use style="fill:#808080;stroke:#808080;" x="99.708103" xlink:href="#m11734b6069" y="383.682702"/>
     <use style="fill:#808080;stroke:#808080;" x="99.708103" xlink:href="#m11734b6069" y="342.515712"/>
     <use style="fill:#808080;stroke:#808080;" x="99.708103" xlink:href="#m11734b6069" y="436.664992"/>
     <use style="fill:#808080;stroke:#808080;" x="99.708103" xlink:href="#m11734b6069" y="442.901727"/>
     <use style="fill:#808080;stroke:#808080;" x="99.708103" xlink:href="#m11734b6069" y="439.097047"/>
     <use style="fill:#808080;stroke:#808080;" x="99.708103" xlink:href="#m11734b6069" y="442.901727"/>
     <use style="fill:#808080;stroke:#808080;" x="99.708103" xlink:href="#m11734b6069" y="436.251933"/>
     <use style="fill:#808080;stroke:#808080;" x="99.708103" xlink:href="#m11734b6069" y="442.901727"/>
     <use style="fill:#808080;stroke:#808080;" x="99.708103" xlink:href="#m11734b6069" y="442.901727"/>
     <use style="fill:#808080;stroke:#808080;" x="99.708103" xlink:href="#m11734b6069" y="439.349421"/>
     <use style="fill:#808080;stroke:#808080;" x="99.708103" xlink:href="#m11734b6069" y="442.901727"/>
     <use style="fill:#808080;stroke:#808080;" x="99.708103" xlink:href="#m11734b6069" y="252.575093"/>
     <use style="fill:#808080;stroke:#808080;" x="99.708103" xlink:href="#m11734b6069" y="442.901727"/>
     <use style="fill:#808080;stroke:#808080;" x="99.708103" xlink:href="#m11734b6069" y="413.007159"/>
     <use style="fill:#808080;stroke:#808080;" x="99.708103" xlink:href="#m11734b6069" y="420.112679"/>
     <use style="fill:#808080;stroke:#808080;" x="99.708103" xlink:href="#m11734b6069" y="423.693128"/>
     <use style="fill:#808080;stroke:#808080;" x="99.708103" xlink:href="#m11734b6069" y="442.901727"/>
     <use style="fill:#808080;stroke:#808080;" x="99.708103" xlink:href="#m11734b6069" y="442.901727"/>
     <use style="fill:#808080;stroke:#808080;" x="99.708103" xlink:href="#m11734b6069" y="442.901727"/>
     <use style="fill:#808080;stroke:#808080;" x="99.708103" xlink:href="#m11734b6069" y="442.901727"/>
     <use style="fill:#808080;stroke:#808080;" x="99.708103" xlink:href="#m11734b6069" y="414.57769"/>
     <use style="fill:#808080;stroke:#808080;" x="99.708103" xlink:href="#m11734b6069" y="442.901727"/>
     <use style="fill:#808080;stroke:#808080;" x="99.708103" xlink:href="#m11734b6069" y="442.901727"/>
     <use style="fill:#808080;stroke:#808080;" x="99.708103" xlink:href="#m11734b6069" y="442.901727"/>
     <use style="fill:#808080;stroke:#808080;" x="99.708103" xlink:href="#m11734b6069" y="434.399069"/>
     <use style="fill:#808080;stroke:#808080;" x="99.708103" xlink:href="#m11734b6069" y="396.280544"/>
     <use style="fill:#808080;stroke:#808080;" x="99.708103" xlink:href="#m11734b6069" y="376.818663"/>
     <use style="fill:#808080;stroke:#808080;" x="99.708103" xlink:href="#m11734b6069" y="383.065384"/>
     <use style="fill:#808080;stroke:#808080;" x="99.708103" xlink:href="#m11734b6069" y="272.692422"/>
     <use style="fill:#808080;stroke:#808080;" x="99.708103" xlink:href="#m11734b6069" y="442.901727"/>
     <use style="fill:#808080;stroke:#808080;" x="99.708103" xlink:href="#m11734b6069" y="47.556273"/>
     <use style="fill:#808080;stroke:#808080;" x="99.708103" xlink:href="#m11734b6069" y="440.004868"/>
     <use style="fill:#808080;stroke:#808080;" x="99.708103" xlink:href="#m11734b6069" y="442.901727"/>
     <use style="fill:#808080;stroke:#808080;" x="99.708103" xlink:href="#m11734b6069" y="442.901727"/>
     <use style="fill:#808080;stroke:#808080;" x="99.708103" xlink:href="#m11734b6069" y="437.613666"/>
     <use style="fill:#808080;stroke:#808080;" x="99.708103" xlink:href="#m11734b6069" y="225.359507"/>
     <use style="fill:#808080;stroke:#808080;" x="99.708103" xlink:href="#m11734b6069" y="442.901727"/>
     <use style="fill:#808080;stroke:#808080;" x="99.708103" xlink:href="#m11734b6069" y="442.901727"/>
     <use style="fill:#808080;stroke:#808080;" x="99.708103" xlink:href="#m11734b6069" y="442.901727"/>
     <use style="fill:#808080;stroke:#808080;" x="99.708103" xlink:href="#m11734b6069" y="442.901727"/>
     <use style="fill:#808080;stroke:#808080;" x="99.708103" xlink:href="#m11734b6069" y="310.698377"/>
     <use style="fill:#808080;stroke:#808080;" x="99.708103" xlink:href="#m11734b6069" y="80.920536"/>
     <use style="fill:#808080;stroke:#808080;" x="99.708103" xlink:href="#m11734b6069" y="389.071532"/>
     <use style="fill:#808080;stroke:#808080;" x="99.708103" xlink:href="#m11734b6069" y="438.421627"/>
     <use style="fill:#808080;stroke:#808080;" x="99.708103" xlink:href="#m11734b6069" y="422.601926"/>
     <use style="fill:#808080;stroke:#808080;" x="99.708103" xlink:href="#m11734b6069" y="442.901727"/>
     <use style="fill:#808080;stroke:#808080;" x="99.708103" xlink:href="#m11734b6069" y="442.901727"/>
     <use style="fill:#808080;stroke:#808080;" x="99.708103" xlink:href="#m11734b6069" y="357.772563"/>
     <use style="fill:#808080;stroke:#808080;" x="99.708103" xlink:href="#m11734b6069" y="358.44072"/>
     <use style="fill:#808080;stroke:#808080;" x="99.708103" xlink:href="#m11734b6069" y="442.901727"/>
     <use style="fill:#808080;stroke:#808080;" x="99.708103" xlink:href="#m11734b6069" y="195.442243"/>
     <use style="fill:#808080;stroke:#808080;" x="99.708103" xlink:href="#m11734b6069" y="436.664992"/>
     <use style="fill:#808080;stroke:#808080;" x="99.708103" xlink:href="#m11734b6069" y="442.901727"/>
    </g>
   </g>
   <g id="matplotlib.axis_1">
    <g id="xtick_1">
     <g id="line2d_1">
      <defs>
       <path d="M 0 0 
L 0 3.5 
" id="mfc9210d2f8" style="stroke:#000000;stroke-width:0.8;"/>
      </defs>
      <g>
       <use style="stroke:#000000;stroke-width:0.8;" x="99.708103" xlink:href="#mfc9210d2f8" y="462.669"/>
      </g>
     </g>
     <g id="text_1">
      <!-- 0 -->
      <defs>
       <path d="M 31.78125 66.40625 
Q 24.171875 66.40625 20.328125 58.90625 
Q 16.5 51.421875 16.5 36.375 
Q 16.5 21.390625 20.328125 13.890625 
Q 24.171875 6.390625 31.78125 6.390625 
Q 39.453125 6.390625 43.28125 13.890625 
Q 47.125 21.390625 47.125 36.375 
Q 47.125 51.421875 43.28125 58.90625 
Q 39.453125 66.40625 31.78125 66.40625 
z
M 31.78125 74.21875 
Q 44.046875 74.21875 50.515625 64.515625 
Q 56.984375 54.828125 56.984375 36.375 
Q 56.984375 17.96875 50.515625 8.265625 
Q 44.046875 -1.421875 31.78125 -1.421875 
Q 19.53125 -1.421875 13.0625 8.265625 
Q 6.59375 17.96875 6.59375 36.375 
Q 6.59375 54.828125 13.0625 64.515625 
Q 19.53125 74.21875 31.78125 74.21875 
z
" id="DejaVuSans-48"/>
      </defs>
      <g transform="translate(94.618103 481.8265)scale(0.16 -0.16)">
       <use xlink:href="#DejaVuSans-48"/>
      </g>
     </g>
    </g>
    <g id="xtick_2">
     <g id="line2d_2">
      <g>
       <use style="stroke:#000000;stroke-width:0.8;" x="126.342947" xlink:href="#mfc9210d2f8" y="462.669"/>
      </g>
     </g>
     <g id="text_2">
      <!-- 1 -->
      <defs>
       <path d="M 12.40625 8.296875 
L 28.515625 8.296875 
L 28.515625 63.921875 
L 10.984375 60.40625 
L 10.984375 69.390625 
L 28.421875 72.90625 
L 38.28125 72.90625 
L 38.28125 8.296875 
L 54.390625 8.296875 
L 54.390625 0 
L 12.40625 0 
z
" id="DejaVuSans-49"/>
      </defs>
      <g transform="translate(121.252947 481.8265)scale(0.16 -0.16)">
       <use xlink:href="#DejaVuSans-49"/>
      </g>
     </g>
    </g>
    <g id="xtick_3">
     <g id="line2d_3">
      <g>
       <use style="stroke:#000000;stroke-width:0.8;" x="152.977792" xlink:href="#mfc9210d2f8" y="462.669"/>
      </g>
     </g>
     <g id="text_3">
      <!-- 2 -->
      <defs>
       <path d="M 19.1875 8.296875 
L 53.609375 8.296875 
L 53.609375 0 
L 7.328125 0 
L 7.328125 8.296875 
Q 12.9375 14.109375 22.625 23.890625 
Q 32.328125 33.6875 34.8125 36.53125 
Q 39.546875 41.84375 41.421875 45.53125 
Q 43.3125 49.21875 43.3125 52.78125 
Q 43.3125 58.59375 39.234375 62.25 
Q 35.15625 65.921875 28.609375 65.921875 
Q 23.96875 65.921875 18.8125 64.3125 
Q 13.671875 62.703125 7.8125 59.421875 
L 7.8125 69.390625 
Q 13.765625 71.78125 18.9375 73 
Q 24.125 74.21875 28.421875 74.21875 
Q 39.75 74.21875 46.484375 68.546875 
Q 53.21875 62.890625 53.21875 53.421875 
Q 53.21875 48.921875 51.53125 44.890625 
Q 49.859375 40.875 45.40625 35.40625 
Q 44.1875 33.984375 37.640625 27.21875 
Q 31.109375 20.453125 19.1875 8.296875 
z
" id="DejaVuSans-50"/>
      </defs>
      <g transform="translate(147.887792 481.8265)scale(0.16 -0.16)">
       <use xlink:href="#DejaVuSans-50"/>
      </g>
     </g>
    </g>
    <g id="xtick_4">
     <g id="line2d_4">
      <g>
       <use style="stroke:#000000;stroke-width:0.8;" x="179.612637" xlink:href="#mfc9210d2f8" y="462.669"/>
      </g>
     </g>
     <g id="text_4">
      <!-- 3 -->
      <defs>
       <path d="M 40.578125 39.3125 
Q 47.65625 37.796875 51.625 33 
Q 55.609375 28.21875 55.609375 21.1875 
Q 55.609375 10.40625 48.1875 4.484375 
Q 40.765625 -1.421875 27.09375 -1.421875 
Q 22.515625 -1.421875 17.65625 -0.515625 
Q 12.796875 0.390625 7.625 2.203125 
L 7.625 11.71875 
Q 11.71875 9.328125 16.59375 8.109375 
Q 21.484375 6.890625 26.8125 6.890625 
Q 36.078125 6.890625 40.9375 10.546875 
Q 45.796875 14.203125 45.796875 21.1875 
Q 45.796875 27.640625 41.28125 31.265625 
Q 36.765625 34.90625 28.71875 34.90625 
L 20.21875 34.90625 
L 20.21875 43.015625 
L 29.109375 43.015625 
Q 36.375 43.015625 40.234375 45.921875 
Q 44.09375 48.828125 44.09375 54.296875 
Q 44.09375 59.90625 40.109375 62.90625 
Q 36.140625 65.921875 28.71875 65.921875 
Q 24.65625 65.921875 20.015625 65.03125 
Q 15.375 64.15625 9.8125 62.3125 
L 9.8125 71.09375 
Q 15.4375 72.65625 20.34375 73.4375 
Q 25.25 74.21875 29.59375 74.21875 
Q 40.828125 74.21875 47.359375 69.109375 
Q 53.90625 64.015625 53.90625 55.328125 
Q 53.90625 49.265625 50.4375 45.09375 
Q 46.96875 40.921875 40.578125 39.3125 
z
" id="DejaVuSans-51"/>
      </defs>
      <g transform="translate(174.522637 481.8265)scale(0.16 -0.16)">
       <use xlink:href="#DejaVuSans-51"/>
      </g>
     </g>
    </g>
    <g id="xtick_5">
     <g id="line2d_5">
      <g>
       <use style="stroke:#000000;stroke-width:0.8;" x="206.247482" xlink:href="#mfc9210d2f8" y="462.669"/>
      </g>
     </g>
     <g id="text_5">
      <!-- 4 -->
      <defs>
       <path d="M 37.796875 64.3125 
L 12.890625 25.390625 
L 37.796875 25.390625 
z
M 35.203125 72.90625 
L 47.609375 72.90625 
L 47.609375 25.390625 
L 58.015625 25.390625 
L 58.015625 17.1875 
L 47.609375 17.1875 
L 47.609375 0 
L 37.796875 0 
L 37.796875 17.1875 
L 4.890625 17.1875 
L 4.890625 26.703125 
z
" id="DejaVuSans-52"/>
      </defs>
      <g transform="translate(201.157482 481.8265)scale(0.16 -0.16)">
       <use xlink:href="#DejaVuSans-52"/>
      </g>
     </g>
    </g>
    <g id="xtick_6">
     <g id="line2d_6">
      <g>
       <use style="stroke:#000000;stroke-width:0.8;" x="232.882327" xlink:href="#mfc9210d2f8" y="462.669"/>
      </g>
     </g>
     <g id="text_6">
      <!-- 5 -->
      <defs>
       <path d="M 10.796875 72.90625 
L 49.515625 72.90625 
L 49.515625 64.59375 
L 19.828125 64.59375 
L 19.828125 46.734375 
Q 21.96875 47.46875 24.109375 47.828125 
Q 26.265625 48.1875 28.421875 48.1875 
Q 40.625 48.1875 47.75 41.5 
Q 54.890625 34.8125 54.890625 23.390625 
Q 54.890625 11.625 47.5625 5.09375 
Q 40.234375 -1.421875 26.90625 -1.421875 
Q 22.3125 -1.421875 17.546875 -0.640625 
Q 12.796875 0.140625 7.71875 1.703125 
L 7.71875 11.625 
Q 12.109375 9.234375 16.796875 8.0625 
Q 21.484375 6.890625 26.703125 6.890625 
Q 35.15625 6.890625 40.078125 11.328125 
Q 45.015625 15.765625 45.015625 23.390625 
Q 45.015625 31 40.078125 35.4375 
Q 35.15625 39.890625 26.703125 39.890625 
Q 22.75 39.890625 18.8125 39.015625 
Q 14.890625 38.140625 10.796875 36.28125 
z
" id="DejaVuSans-53"/>
      </defs>
      <g transform="translate(227.792327 481.8265)scale(0.16 -0.16)">
       <use xlink:href="#DejaVuSans-53"/>
      </g>
     </g>
    </g>
    <g id="xtick_7">
     <g id="line2d_7">
      <g>
       <use style="stroke:#000000;stroke-width:0.8;" x="259.517172" xlink:href="#mfc9210d2f8" y="462.669"/>
      </g>
     </g>
     <g id="text_7">
      <!-- 6 -->
      <defs>
       <path d="M 33.015625 40.375 
Q 26.375 40.375 22.484375 35.828125 
Q 18.609375 31.296875 18.609375 23.390625 
Q 18.609375 15.53125 22.484375 10.953125 
Q 26.375 6.390625 33.015625 6.390625 
Q 39.65625 6.390625 43.53125 10.953125 
Q 47.40625 15.53125 47.40625 23.390625 
Q 47.40625 31.296875 43.53125 35.828125 
Q 39.65625 40.375 33.015625 40.375 
z
M 52.59375 71.296875 
L 52.59375 62.3125 
Q 48.875 64.0625 45.09375 64.984375 
Q 41.3125 65.921875 37.59375 65.921875 
Q 27.828125 65.921875 22.671875 59.328125 
Q 17.53125 52.734375 16.796875 39.40625 
Q 19.671875 43.65625 24.015625 45.921875 
Q 28.375 48.1875 33.59375 48.1875 
Q 44.578125 48.1875 50.953125 41.515625 
Q 57.328125 34.859375 57.328125 23.390625 
Q 57.328125 12.15625 50.6875 5.359375 
Q 44.046875 -1.421875 33.015625 -1.421875 
Q 20.359375 -1.421875 13.671875 8.265625 
Q 6.984375 17.96875 6.984375 36.375 
Q 6.984375 53.65625 15.1875 63.9375 
Q 23.390625 74.21875 37.203125 74.21875 
Q 40.921875 74.21875 44.703125 73.484375 
Q 48.484375 72.75 52.59375 71.296875 
z
" id="DejaVuSans-54"/>
      </defs>
      <g transform="translate(254.427172 481.8265)scale(0.16 -0.16)">
       <use xlink:href="#DejaVuSans-54"/>
      </g>
     </g>
    </g>
    <g id="xtick_8">
     <g id="line2d_8">
      <g>
       <use style="stroke:#000000;stroke-width:0.8;" x="286.152017" xlink:href="#mfc9210d2f8" y="462.669"/>
      </g>
     </g>
     <g id="text_8">
      <!-- 7 -->
      <defs>
       <path d="M 8.203125 72.90625 
L 55.078125 72.90625 
L 55.078125 68.703125 
L 28.609375 0 
L 18.3125 0 
L 43.21875 64.59375 
L 8.203125 64.59375 
z
" id="DejaVuSans-55"/>
      </defs>
      <g transform="translate(281.062017 481.8265)scale(0.16 -0.16)">
       <use xlink:href="#DejaVuSans-55"/>
      </g>
     </g>
    </g>
    <g id="xtick_9">
     <g id="line2d_9">
      <g>
       <use style="stroke:#000000;stroke-width:0.8;" x="312.786862" xlink:href="#mfc9210d2f8" y="462.669"/>
      </g>
     </g>
     <g id="text_9">
      <!-- 8 -->
      <defs>
       <path d="M 31.78125 34.625 
Q 24.75 34.625 20.71875 30.859375 
Q 16.703125 27.09375 16.703125 20.515625 
Q 16.703125 13.921875 20.71875 10.15625 
Q 24.75 6.390625 31.78125 6.390625 
Q 38.8125 6.390625 42.859375 10.171875 
Q 46.921875 13.96875 46.921875 20.515625 
Q 46.921875 27.09375 42.890625 30.859375 
Q 38.875 34.625 31.78125 34.625 
z
M 21.921875 38.8125 
Q 15.578125 40.375 12.03125 44.71875 
Q 8.5 49.078125 8.5 55.328125 
Q 8.5 64.0625 14.71875 69.140625 
Q 20.953125 74.21875 31.78125 74.21875 
Q 42.671875 74.21875 48.875 69.140625 
Q 55.078125 64.0625 55.078125 55.328125 
Q 55.078125 49.078125 51.53125 44.71875 
Q 48 40.375 41.703125 38.8125 
Q 48.828125 37.15625 52.796875 32.3125 
Q 56.78125 27.484375 56.78125 20.515625 
Q 56.78125 9.90625 50.3125 4.234375 
Q 43.84375 -1.421875 31.78125 -1.421875 
Q 19.734375 -1.421875 13.25 4.234375 
Q 6.78125 9.90625 6.78125 20.515625 
Q 6.78125 27.484375 10.78125 32.3125 
Q 14.796875 37.15625 21.921875 38.8125 
z
M 18.3125 54.390625 
Q 18.3125 48.734375 21.84375 45.5625 
Q 25.390625 42.390625 31.78125 42.390625 
Q 38.140625 42.390625 41.71875 45.5625 
Q 45.3125 48.734375 45.3125 54.390625 
Q 45.3125 60.0625 41.71875 63.234375 
Q 38.140625 66.40625 31.78125 66.40625 
Q 25.390625 66.40625 21.84375 63.234375 
Q 18.3125 60.0625 18.3125 54.390625 
z
" id="DejaVuSans-56"/>
      </defs>
      <g transform="translate(307.696862 481.8265)scale(0.16 -0.16)">
       <use xlink:href="#DejaVuSans-56"/>
      </g>
     </g>
    </g>
    <g id="xtick_10">
     <g id="line2d_10">
      <g>
       <use style="stroke:#000000;stroke-width:0.8;" x="339.421706" xlink:href="#mfc9210d2f8" y="462.669"/>
      </g>
     </g>
     <g id="text_10">
      <!-- 9 -->
      <defs>
       <path d="M 10.984375 1.515625 
L 10.984375 10.5 
Q 14.703125 8.734375 18.5 7.8125 
Q 22.3125 6.890625 25.984375 6.890625 
Q 35.75 6.890625 40.890625 13.453125 
Q 46.046875 20.015625 46.78125 33.40625 
Q 43.953125 29.203125 39.59375 26.953125 
Q 35.25 24.703125 29.984375 24.703125 
Q 19.046875 24.703125 12.671875 31.3125 
Q 6.296875 37.9375 6.296875 49.421875 
Q 6.296875 60.640625 12.9375 67.421875 
Q 19.578125 74.21875 30.609375 74.21875 
Q 43.265625 74.21875 49.921875 64.515625 
Q 56.59375 54.828125 56.59375 36.375 
Q 56.59375 19.140625 48.40625 8.859375 
Q 40.234375 -1.421875 26.421875 -1.421875 
Q 22.703125 -1.421875 18.890625 -0.6875 
Q 15.09375 0.046875 10.984375 1.515625 
z
M 30.609375 32.421875 
Q 37.25 32.421875 41.125 36.953125 
Q 45.015625 41.5 45.015625 49.421875 
Q 45.015625 57.28125 41.125 61.84375 
Q 37.25 66.40625 30.609375 66.40625 
Q 23.96875 66.40625 20.09375 61.84375 
Q 16.21875 57.28125 16.21875 49.421875 
Q 16.21875 41.5 20.09375 36.953125 
Q 23.96875 32.421875 30.609375 32.421875 
z
" id="DejaVuSans-57"/>
      </defs>
      <g transform="translate(334.331706 481.8265)scale(0.16 -0.16)">
       <use xlink:href="#DejaVuSans-57"/>
      </g>
     </g>
    </g>
    <g id="xtick_11">
     <g id="line2d_11">
      <g>
       <use style="stroke:#000000;stroke-width:0.8;" x="366.056551" xlink:href="#mfc9210d2f8" y="462.669"/>
      </g>
     </g>
     <g id="text_11">
      <!-- 10 -->
      <g transform="translate(355.876551 481.8265)scale(0.16 -0.16)">
       <use xlink:href="#DejaVuSans-49"/>
       <use x="63.623047" xlink:href="#DejaVuSans-48"/>
      </g>
     </g>
    </g>
    <g id="xtick_12">
     <g id="line2d_12">
      <g>
       <use style="stroke:#000000;stroke-width:0.8;" x="392.691396" xlink:href="#mfc9210d2f8" y="462.669"/>
      </g>
     </g>
     <g id="text_12">
      <!-- 11 -->
      <g transform="translate(382.511396 481.8265)scale(0.16 -0.16)">
       <use xlink:href="#DejaVuSans-49"/>
       <use x="63.623047" xlink:href="#DejaVuSans-49"/>
      </g>
     </g>
    </g>
    <g id="xtick_13">
     <g id="line2d_13">
      <g>
       <use style="stroke:#000000;stroke-width:0.8;" x="419.326241" xlink:href="#mfc9210d2f8" y="462.669"/>
      </g>
     </g>
     <g id="text_13">
      <!-- 12 -->
      <g transform="translate(409.146241 481.8265)scale(0.16 -0.16)">
       <use xlink:href="#DejaVuSans-49"/>
       <use x="63.623047" xlink:href="#DejaVuSans-50"/>
      </g>
     </g>
    </g>
    <g id="xtick_14">
     <g id="line2d_14">
      <g>
       <use style="stroke:#000000;stroke-width:0.8;" x="445.961086" xlink:href="#mfc9210d2f8" y="462.669"/>
      </g>
     </g>
     <g id="text_14">
      <!-- 13 -->
      <g transform="translate(435.781086 481.8265)scale(0.16 -0.16)">
       <use xlink:href="#DejaVuSans-49"/>
       <use x="63.623047" xlink:href="#DejaVuSans-51"/>
      </g>
     </g>
    </g>
    <g id="xtick_15">
     <g id="line2d_15">
      <g>
       <use style="stroke:#000000;stroke-width:0.8;" x="472.595931" xlink:href="#mfc9210d2f8" y="462.669"/>
      </g>
     </g>
     <g id="text_15">
      <!-- 14 -->
      <g transform="translate(462.415931 481.8265)scale(0.16 -0.16)">
       <use xlink:href="#DejaVuSans-49"/>
       <use x="63.623047" xlink:href="#DejaVuSans-52"/>
      </g>
     </g>
    </g>
    <g id="xtick_16">
     <g id="line2d_16">
      <g>
       <use style="stroke:#000000;stroke-width:0.8;" x="499.230776" xlink:href="#mfc9210d2f8" y="462.669"/>
      </g>
     </g>
     <g id="text_16">
      <!-- 15 -->
      <g transform="translate(489.050776 481.8265)scale(0.16 -0.16)">
       <use xlink:href="#DejaVuSans-49"/>
       <use x="63.623047" xlink:href="#DejaVuSans-53"/>
      </g>
     </g>
    </g>
    <g id="xtick_17">
     <g id="line2d_17">
      <g>
       <use style="stroke:#000000;stroke-width:0.8;" x="525.865621" xlink:href="#mfc9210d2f8" y="462.669"/>
      </g>
     </g>
     <g id="text_17">
      <!-- 16 -->
      <g transform="translate(515.685621 481.8265)scale(0.16 -0.16)">
       <use xlink:href="#DejaVuSans-49"/>
       <use x="63.623047" xlink:href="#DejaVuSans-54"/>
      </g>
     </g>
    </g>
    <g id="xtick_18">
     <g id="line2d_18">
      <g>
       <use style="stroke:#000000;stroke-width:0.8;" x="552.500465" xlink:href="#mfc9210d2f8" y="462.669"/>
      </g>
     </g>
     <g id="text_18">
      <!-- 17 -->
      <g transform="translate(542.320465 481.8265)scale(0.16 -0.16)">
       <use xlink:href="#DejaVuSans-49"/>
       <use x="63.623047" xlink:href="#DejaVuSans-55"/>
      </g>
     </g>
    </g>
    <g id="xtick_19">
     <g id="line2d_19">
      <g>
       <use style="stroke:#000000;stroke-width:0.8;" x="579.13531" xlink:href="#mfc9210d2f8" y="462.669"/>
      </g>
     </g>
     <g id="text_19">
      <!-- 18 -->
      <g transform="translate(568.95531 481.8265)scale(0.16 -0.16)">
       <use xlink:href="#DejaVuSans-49"/>
       <use x="63.623047" xlink:href="#DejaVuSans-56"/>
      </g>
     </g>
    </g>
    <g id="xtick_20">
     <g id="line2d_20">
      <g>
       <use style="stroke:#000000;stroke-width:0.8;" x="605.770155" xlink:href="#mfc9210d2f8" y="462.669"/>
      </g>
     </g>
     <g id="text_20">
      <!-- 19 -->
      <g transform="translate(595.590155 481.8265)scale(0.16 -0.16)">
       <use xlink:href="#DejaVuSans-49"/>
       <use x="63.623047" xlink:href="#DejaVuSans-57"/>
      </g>
     </g>
    </g>
    <g id="xtick_21">
     <g id="line2d_21">
      <g>
       <use style="stroke:#000000;stroke-width:0.8;" x="632.405" xlink:href="#mfc9210d2f8" y="462.669"/>
      </g>
     </g>
     <g id="text_21">
      <!-- 20 -->
      <g transform="translate(622.225 481.8265)scale(0.16 -0.16)">
       <use xlink:href="#DejaVuSans-50"/>
       <use x="63.623047" xlink:href="#DejaVuSans-48"/>
      </g>
     </g>
    </g>
    <g id="text_22">
     <!-- Number of Liquor Licenses -->
     <defs>
      <path d="M 9.8125 72.90625 
L 23.09375 72.90625 
L 55.421875 11.921875 
L 55.421875 72.90625 
L 64.984375 72.90625 
L 64.984375 0 
L 51.703125 0 
L 19.390625 60.984375 
L 19.390625 0 
L 9.8125 0 
z
" id="DejaVuSans-78"/>
      <path d="M 8.5 21.578125 
L 8.5 54.6875 
L 17.484375 54.6875 
L 17.484375 21.921875 
Q 17.484375 14.15625 20.5 10.265625 
Q 23.53125 6.390625 29.59375 6.390625 
Q 36.859375 6.390625 41.078125 11.03125 
Q 45.3125 15.671875 45.3125 23.6875 
L 45.3125 54.6875 
L 54.296875 54.6875 
L 54.296875 0 
L 45.3125 0 
L 45.3125 8.40625 
Q 42.046875 3.421875 37.71875 1 
Q 33.40625 -1.421875 27.6875 -1.421875 
Q 18.265625 -1.421875 13.375 4.4375 
Q 8.5 10.296875 8.5 21.578125 
z
M 31.109375 56 
z
" id="DejaVuSans-117"/>
      <path d="M 52 44.1875 
Q 55.375 50.25 60.0625 53.125 
Q 64.75 56 71.09375 56 
Q 79.640625 56 84.28125 50.015625 
Q 88.921875 44.046875 88.921875 33.015625 
L 88.921875 0 
L 79.890625 0 
L 79.890625 32.71875 
Q 79.890625 40.578125 77.09375 44.375 
Q 74.3125 48.1875 68.609375 48.1875 
Q 61.625 48.1875 57.5625 43.546875 
Q 53.515625 38.921875 53.515625 30.90625 
L 53.515625 0 
L 44.484375 0 
L 44.484375 32.71875 
Q 44.484375 40.625 41.703125 44.40625 
Q 38.921875 48.1875 33.109375 48.1875 
Q 26.21875 48.1875 22.15625 43.53125 
Q 18.109375 38.875 18.109375 30.90625 
L 18.109375 0 
L 9.078125 0 
L 9.078125 54.6875 
L 18.109375 54.6875 
L 18.109375 46.1875 
Q 21.1875 51.21875 25.484375 53.609375 
Q 29.78125 56 35.6875 56 
Q 41.65625 56 45.828125 52.96875 
Q 50 49.953125 52 44.1875 
z
" id="DejaVuSans-109"/>
      <path d="M 48.6875 27.296875 
Q 48.6875 37.203125 44.609375 42.84375 
Q 40.53125 48.484375 33.40625 48.484375 
Q 26.265625 48.484375 22.1875 42.84375 
Q 18.109375 37.203125 18.109375 27.296875 
Q 18.109375 17.390625 22.1875 11.75 
Q 26.265625 6.109375 33.40625 6.109375 
Q 40.53125 6.109375 44.609375 11.75 
Q 48.6875 17.390625 48.6875 27.296875 
z
M 18.109375 46.390625 
Q 20.953125 51.265625 25.265625 53.625 
Q 29.59375 56 35.59375 56 
Q 45.5625 56 51.78125 48.09375 
Q 58.015625 40.1875 58.015625 27.296875 
Q 58.015625 14.40625 51.78125 6.484375 
Q 45.5625 -1.421875 35.59375 -1.421875 
Q 29.59375 -1.421875 25.265625 0.953125 
Q 20.953125 3.328125 18.109375 8.203125 
L 18.109375 0 
L 9.078125 0 
L 9.078125 75.984375 
L 18.109375 75.984375 
z
" id="DejaVuSans-98"/>
      <path d="M 56.203125 29.59375 
L 56.203125 25.203125 
L 14.890625 25.203125 
Q 15.484375 15.921875 20.484375 11.0625 
Q 25.484375 6.203125 34.421875 6.203125 
Q 39.59375 6.203125 44.453125 7.46875 
Q 49.3125 8.734375 54.109375 11.28125 
L 54.109375 2.78125 
Q 49.265625 0.734375 44.1875 -0.34375 
Q 39.109375 -1.421875 33.890625 -1.421875 
Q 20.796875 -1.421875 13.15625 6.1875 
Q 5.515625 13.8125 5.515625 26.8125 
Q 5.515625 40.234375 12.765625 48.109375 
Q 20.015625 56 32.328125 56 
Q 43.359375 56 49.78125 48.890625 
Q 56.203125 41.796875 56.203125 29.59375 
z
M 47.21875 32.234375 
Q 47.125 39.59375 43.09375 43.984375 
Q 39.0625 48.390625 32.421875 48.390625 
Q 24.90625 48.390625 20.390625 44.140625 
Q 15.875 39.890625 15.1875 32.171875 
z
" id="DejaVuSans-101"/>
      <path d="M 41.109375 46.296875 
Q 39.59375 47.171875 37.8125 47.578125 
Q 36.03125 48 33.890625 48 
Q 26.265625 48 22.1875 43.046875 
Q 18.109375 38.09375 18.109375 28.8125 
L 18.109375 0 
L 9.078125 0 
L 9.078125 54.6875 
L 18.109375 54.6875 
L 18.109375 46.1875 
Q 20.953125 51.171875 25.484375 53.578125 
Q 30.03125 56 36.53125 56 
Q 37.453125 56 38.578125 55.875 
Q 39.703125 55.765625 41.0625 55.515625 
z
" id="DejaVuSans-114"/>
      <path id="DejaVuSans-32"/>
      <path d="M 30.609375 48.390625 
Q 23.390625 48.390625 19.1875 42.75 
Q 14.984375 37.109375 14.984375 27.296875 
Q 14.984375 17.484375 19.15625 11.84375 
Q 23.34375 6.203125 30.609375 6.203125 
Q 37.796875 6.203125 41.984375 11.859375 
Q 46.1875 17.53125 46.1875 27.296875 
Q 46.1875 37.015625 41.984375 42.703125 
Q 37.796875 48.390625 30.609375 48.390625 
z
M 30.609375 56 
Q 42.328125 56 49.015625 48.375 
Q 55.71875 40.765625 55.71875 27.296875 
Q 55.71875 13.875 49.015625 6.21875 
Q 42.328125 -1.421875 30.609375 -1.421875 
Q 18.84375 -1.421875 12.171875 6.21875 
Q 5.515625 13.875 5.515625 27.296875 
Q 5.515625 40.765625 12.171875 48.375 
Q 18.84375 56 30.609375 56 
z
" id="DejaVuSans-111"/>
      <path d="M 37.109375 75.984375 
L 37.109375 68.5 
L 28.515625 68.5 
Q 23.6875 68.5 21.796875 66.546875 
Q 19.921875 64.59375 19.921875 59.515625 
L 19.921875 54.6875 
L 34.71875 54.6875 
L 34.71875 47.703125 
L 19.921875 47.703125 
L 19.921875 0 
L 10.890625 0 
L 10.890625 47.703125 
L 2.296875 47.703125 
L 2.296875 54.6875 
L 10.890625 54.6875 
L 10.890625 58.5 
Q 10.890625 67.625 15.140625 71.796875 
Q 19.390625 75.984375 28.609375 75.984375 
z
" id="DejaVuSans-102"/>
      <path d="M 9.8125 72.90625 
L 19.671875 72.90625 
L 19.671875 8.296875 
L 55.171875 8.296875 
L 55.171875 0 
L 9.8125 0 
z
" id="DejaVuSans-76"/>
      <path d="M 9.421875 54.6875 
L 18.40625 54.6875 
L 18.40625 0 
L 9.421875 0 
z
M 9.421875 75.984375 
L 18.40625 75.984375 
L 18.40625 64.59375 
L 9.421875 64.59375 
z
" id="DejaVuSans-105"/>
      <path d="M 14.796875 27.296875 
Q 14.796875 17.390625 18.875 11.75 
Q 22.953125 6.109375 30.078125 6.109375 
Q 37.203125 6.109375 41.296875 11.75 
Q 45.40625 17.390625 45.40625 27.296875 
Q 45.40625 37.203125 41.296875 42.84375 
Q 37.203125 48.484375 30.078125 48.484375 
Q 22.953125 48.484375 18.875 42.84375 
Q 14.796875 37.203125 14.796875 27.296875 
z
M 45.40625 8.203125 
Q 42.578125 3.328125 38.25 0.953125 
Q 33.9375 -1.421875 27.875 -1.421875 
Q 17.96875 -1.421875 11.734375 6.484375 
Q 5.515625 14.40625 5.515625 27.296875 
Q 5.515625 40.1875 11.734375 48.09375 
Q 17.96875 56 27.875 56 
Q 33.9375 56 38.25 53.625 
Q 42.578125 51.265625 45.40625 46.390625 
L 45.40625 54.6875 
L 54.390625 54.6875 
L 54.390625 -20.796875 
L 45.40625 -20.796875 
z
" id="DejaVuSans-113"/>
      <path d="M 48.78125 52.59375 
L 48.78125 44.1875 
Q 44.96875 46.296875 41.140625 47.34375 
Q 37.3125 48.390625 33.40625 48.390625 
Q 24.65625 48.390625 19.8125 42.84375 
Q 14.984375 37.3125 14.984375 27.296875 
Q 14.984375 17.28125 19.8125 11.734375 
Q 24.65625 6.203125 33.40625 6.203125 
Q 37.3125 6.203125 41.140625 7.25 
Q 44.96875 8.296875 48.78125 10.40625 
L 48.78125 2.09375 
Q 45.015625 0.34375 40.984375 -0.53125 
Q 36.96875 -1.421875 32.421875 -1.421875 
Q 20.0625 -1.421875 12.78125 6.34375 
Q 5.515625 14.109375 5.515625 27.296875 
Q 5.515625 40.671875 12.859375 48.328125 
Q 20.21875 56 33.015625 56 
Q 37.15625 56 41.109375 55.140625 
Q 45.0625 54.296875 48.78125 52.59375 
z
" id="DejaVuSans-99"/>
      <path d="M 54.890625 33.015625 
L 54.890625 0 
L 45.90625 0 
L 45.90625 32.71875 
Q 45.90625 40.484375 42.875 44.328125 
Q 39.84375 48.1875 33.796875 48.1875 
Q 26.515625 48.1875 22.3125 43.546875 
Q 18.109375 38.921875 18.109375 30.90625 
L 18.109375 0 
L 9.078125 0 
L 9.078125 54.6875 
L 18.109375 54.6875 
L 18.109375 46.1875 
Q 21.34375 51.125 25.703125 53.5625 
Q 30.078125 56 35.796875 56 
Q 45.21875 56 50.046875 50.171875 
Q 54.890625 44.34375 54.890625 33.015625 
z
" id="DejaVuSans-110"/>
      <path d="M 44.28125 53.078125 
L 44.28125 44.578125 
Q 40.484375 46.53125 36.375 47.5 
Q 32.28125 48.484375 27.875 48.484375 
Q 21.1875 48.484375 17.84375 46.4375 
Q 14.5 44.390625 14.5 40.28125 
Q 14.5 37.15625 16.890625 35.375 
Q 19.28125 33.59375 26.515625 31.984375 
L 29.59375 31.296875 
Q 39.15625 29.25 43.1875 25.515625 
Q 47.21875 21.78125 47.21875 15.09375 
Q 47.21875 7.46875 41.1875 3.015625 
Q 35.15625 -1.421875 24.609375 -1.421875 
Q 20.21875 -1.421875 15.453125 -0.5625 
Q 10.6875 0.296875 5.421875 2 
L 5.421875 11.28125 
Q 10.40625 8.6875 15.234375 7.390625 
Q 20.0625 6.109375 24.8125 6.109375 
Q 31.15625 6.109375 34.5625 8.28125 
Q 37.984375 10.453125 37.984375 14.40625 
Q 37.984375 18.0625 35.515625 20.015625 
Q 33.0625 21.96875 24.703125 23.78125 
L 21.578125 24.515625 
Q 13.234375 26.265625 9.515625 29.90625 
Q 5.8125 33.546875 5.8125 39.890625 
Q 5.8125 47.609375 11.28125 51.796875 
Q 16.75 56 26.8125 56 
Q 31.78125 56 36.171875 55.265625 
Q 40.578125 54.546875 44.28125 53.078125 
z
" id="DejaVuSans-115"/>
     </defs>
     <g transform="translate(246.5875 501.3115)scale(0.16 -0.16)">
      <use xlink:href="#DejaVuSans-78"/>
      <use x="74.804688" xlink:href="#DejaVuSans-117"/>
      <use x="138.183594" xlink:href="#DejaVuSans-109"/>
      <use x="235.595703" xlink:href="#DejaVuSans-98"/>
      <use x="299.072266" xlink:href="#DejaVuSans-101"/>
      <use x="360.595703" xlink:href="#DejaVuSans-114"/>
      <use x="401.708984" xlink:href="#DejaVuSans-32"/>
      <use x="433.496094" xlink:href="#DejaVuSans-111"/>
      <use x="494.677734" xlink:href="#DejaVuSans-102"/>
      <use x="529.882812" xlink:href="#DejaVuSans-32"/>
      <use x="561.669922" xlink:href="#DejaVuSans-76"/>
      <use x="617.382812" xlink:href="#DejaVuSans-105"/>
      <use x="645.166016" xlink:href="#DejaVuSans-113"/>
      <use x="708.642578" xlink:href="#DejaVuSans-117"/>
      <use x="772.021484" xlink:href="#DejaVuSans-111"/>
      <use x="833.203125" xlink:href="#DejaVuSans-114"/>
      <use x="874.316406" xlink:href="#DejaVuSans-32"/>
      <use x="906.103516" xlink:href="#DejaVuSans-76"/>
      <use x="961.816406" xlink:href="#DejaVuSans-105"/>
      <use x="989.599609" xlink:href="#DejaVuSans-99"/>
      <use x="1044.580078" xlink:href="#DejaVuSans-101"/>
      <use x="1106.103516" xlink:href="#DejaVuSans-110"/>
      <use x="1169.482422" xlink:href="#DejaVuSans-115"/>
      <use x="1221.582031" xlink:href="#DejaVuSans-101"/>
      <use x="1283.105469" xlink:href="#DejaVuSans-115"/>
     </g>
    </g>
   </g>
   <g id="matplotlib.axis_2">
    <g id="ytick_1">
     <g id="line2d_22">
      <defs>
       <path d="M 0 0 
L -3.5 0 
" id="m1b8cae8256" style="stroke:#000000;stroke-width:0.8;"/>
      </defs>
      <g>
       <use style="stroke:#000000;stroke-width:0.8;" x="74.405" xlink:href="#m1b8cae8256" y="442.901727"/>
      </g>
     </g>
     <g id="text_23">
      <!-- 0 -->
      <g transform="translate(57.225 448.980477)scale(0.16 -0.16)">
       <use xlink:href="#DejaVuSans-48"/>
      </g>
     </g>
    </g>
    <g id="ytick_2">
     <g id="line2d_23">
      <g>
       <use style="stroke:#000000;stroke-width:0.8;" x="74.405" xlink:href="#m1b8cae8256" y="352.119558"/>
      </g>
     </g>
     <g id="text_24">
      <!-- 1000 -->
      <g transform="translate(26.685 358.198308)scale(0.16 -0.16)">
       <use xlink:href="#DejaVuSans-49"/>
       <use x="63.623047" xlink:href="#DejaVuSans-48"/>
       <use x="127.246094" xlink:href="#DejaVuSans-48"/>
       <use x="190.869141" xlink:href="#DejaVuSans-48"/>
      </g>
     </g>
    </g>
    <g id="ytick_3">
     <g id="line2d_24">
      <g>
       <use style="stroke:#000000;stroke-width:0.8;" x="74.405" xlink:href="#m1b8cae8256" y="261.337388"/>
      </g>
     </g>
     <g id="text_25">
      <!-- 2000 -->
      <g transform="translate(26.685 267.416138)scale(0.16 -0.16)">
       <use xlink:href="#DejaVuSans-50"/>
       <use x="63.623047" xlink:href="#DejaVuSans-48"/>
       <use x="127.246094" xlink:href="#DejaVuSans-48"/>
       <use x="190.869141" xlink:href="#DejaVuSans-48"/>
      </g>
     </g>
    </g>
    <g id="ytick_4">
     <g id="line2d_25">
      <g>
       <use style="stroke:#000000;stroke-width:0.8;" x="74.405" xlink:href="#m1b8cae8256" y="170.555219"/>
      </g>
     </g>
     <g id="text_26">
      <!-- 3000 -->
      <g transform="translate(26.685 176.633969)scale(0.16 -0.16)">
       <use xlink:href="#DejaVuSans-51"/>
       <use x="63.623047" xlink:href="#DejaVuSans-48"/>
       <use x="127.246094" xlink:href="#DejaVuSans-48"/>
       <use x="190.869141" xlink:href="#DejaVuSans-48"/>
      </g>
     </g>
    </g>
    <g id="ytick_5">
     <g id="line2d_26">
      <g>
       <use style="stroke:#000000;stroke-width:0.8;" x="74.405" xlink:href="#m1b8cae8256" y="79.773049"/>
      </g>
     </g>
     <g id="text_27">
      <!-- 4000 -->
      <g transform="translate(26.685 85.851799)scale(0.16 -0.16)">
       <use xlink:href="#DejaVuSans-52"/>
       <use x="63.623047" xlink:href="#DejaVuSans-48"/>
       <use x="127.246094" xlink:href="#DejaVuSans-48"/>
       <use x="190.869141" xlink:href="#DejaVuSans-48"/>
      </g>
     </g>
    </g>
    <g id="text_28">
     <!-- Total Graffiti Costs (2013-2015, $) -->
     <defs>
      <path d="M -0.296875 72.90625 
L 61.375 72.90625 
L 61.375 64.59375 
L 35.5 64.59375 
L 35.5 0 
L 25.59375 0 
L 25.59375 64.59375 
L -0.296875 64.59375 
z
" id="DejaVuSans-84"/>
      <path d="M 18.3125 70.21875 
L 18.3125 54.6875 
L 36.8125 54.6875 
L 36.8125 47.703125 
L 18.3125 47.703125 
L 18.3125 18.015625 
Q 18.3125 11.328125 20.140625 9.421875 
Q 21.96875 7.515625 27.59375 7.515625 
L 36.8125 7.515625 
L 36.8125 0 
L 27.59375 0 
Q 17.1875 0 13.234375 3.875 
Q 9.28125 7.765625 9.28125 18.015625 
L 9.28125 47.703125 
L 2.6875 47.703125 
L 2.6875 54.6875 
L 9.28125 54.6875 
L 9.28125 70.21875 
z
" id="DejaVuSans-116"/>
      <path d="M 34.28125 27.484375 
Q 23.390625 27.484375 19.1875 25 
Q 14.984375 22.515625 14.984375 16.5 
Q 14.984375 11.71875 18.140625 8.90625 
Q 21.296875 6.109375 26.703125 6.109375 
Q 34.1875 6.109375 38.703125 11.40625 
Q 43.21875 16.703125 43.21875 25.484375 
L 43.21875 27.484375 
z
M 52.203125 31.203125 
L 52.203125 0 
L 43.21875 0 
L 43.21875 8.296875 
Q 40.140625 3.328125 35.546875 0.953125 
Q 30.953125 -1.421875 24.3125 -1.421875 
Q 15.921875 -1.421875 10.953125 3.296875 
Q 6 8.015625 6 15.921875 
Q 6 25.140625 12.171875 29.828125 
Q 18.359375 34.515625 30.609375 34.515625 
L 43.21875 34.515625 
L 43.21875 35.40625 
Q 43.21875 41.609375 39.140625 45 
Q 35.0625 48.390625 27.6875 48.390625 
Q 23 48.390625 18.546875 47.265625 
Q 14.109375 46.140625 10.015625 43.890625 
L 10.015625 52.203125 
Q 14.9375 54.109375 19.578125 55.046875 
Q 24.21875 56 28.609375 56 
Q 40.484375 56 46.34375 49.84375 
Q 52.203125 43.703125 52.203125 31.203125 
z
" id="DejaVuSans-97"/>
      <path d="M 9.421875 75.984375 
L 18.40625 75.984375 
L 18.40625 0 
L 9.421875 0 
z
" id="DejaVuSans-108"/>
      <path d="M 59.515625 10.40625 
L 59.515625 29.984375 
L 43.40625 29.984375 
L 43.40625 38.09375 
L 69.28125 38.09375 
L 69.28125 6.78125 
Q 63.578125 2.734375 56.6875 0.65625 
Q 49.8125 -1.421875 42 -1.421875 
Q 24.90625 -1.421875 15.25 8.5625 
Q 5.609375 18.5625 5.609375 36.375 
Q 5.609375 54.25 15.25 64.234375 
Q 24.90625 74.21875 42 74.21875 
Q 49.125 74.21875 55.546875 72.453125 
Q 61.96875 70.703125 67.390625 67.28125 
L 67.390625 56.78125 
Q 61.921875 61.421875 55.765625 63.765625 
Q 49.609375 66.109375 42.828125 66.109375 
Q 29.4375 66.109375 22.71875 58.640625 
Q 16.015625 51.171875 16.015625 36.375 
Q 16.015625 21.625 22.71875 14.15625 
Q 29.4375 6.6875 42.828125 6.6875 
Q 48.046875 6.6875 52.140625 7.59375 
Q 56.25 8.5 59.515625 10.40625 
z
" id="DejaVuSans-71"/>
      <path d="M 64.40625 67.28125 
L 64.40625 56.890625 
Q 59.421875 61.53125 53.78125 63.8125 
Q 48.140625 66.109375 41.796875 66.109375 
Q 29.296875 66.109375 22.65625 58.46875 
Q 16.015625 50.828125 16.015625 36.375 
Q 16.015625 21.96875 22.65625 14.328125 
Q 29.296875 6.6875 41.796875 6.6875 
Q 48.140625 6.6875 53.78125 8.984375 
Q 59.421875 11.28125 64.40625 15.921875 
L 64.40625 5.609375 
Q 59.234375 2.09375 53.4375 0.328125 
Q 47.65625 -1.421875 41.21875 -1.421875 
Q 24.65625 -1.421875 15.125 8.703125 
Q 5.609375 18.84375 5.609375 36.375 
Q 5.609375 53.953125 15.125 64.078125 
Q 24.65625 74.21875 41.21875 74.21875 
Q 47.75 74.21875 53.53125 72.484375 
Q 59.328125 70.75 64.40625 67.28125 
z
" id="DejaVuSans-67"/>
      <path d="M 31 75.875 
Q 24.46875 64.65625 21.28125 53.65625 
Q 18.109375 42.671875 18.109375 31.390625 
Q 18.109375 20.125 21.3125 9.0625 
Q 24.515625 -2 31 -13.1875 
L 23.1875 -13.1875 
Q 15.875 -1.703125 12.234375 9.375 
Q 8.59375 20.453125 8.59375 31.390625 
Q 8.59375 42.28125 12.203125 53.3125 
Q 15.828125 64.359375 23.1875 75.875 
z
" id="DejaVuSans-40"/>
      <path d="M 4.890625 31.390625 
L 31.203125 31.390625 
L 31.203125 23.390625 
L 4.890625 23.390625 
z
" id="DejaVuSans-45"/>
      <path d="M 11.71875 12.40625 
L 22.015625 12.40625 
L 22.015625 4 
L 14.015625 -11.625 
L 7.71875 -11.625 
L 11.71875 4 
z
" id="DejaVuSans-44"/>
      <path d="M 33.796875 -14.703125 
L 28.90625 -14.703125 
L 28.859375 0 
Q 23.734375 0.09375 18.609375 1.1875 
Q 13.484375 2.296875 8.296875 4.5 
L 8.296875 13.28125 
Q 13.28125 10.15625 18.375 8.5625 
Q 23.484375 6.984375 28.90625 6.9375 
L 28.90625 29.203125 
Q 18.109375 30.953125 13.203125 35.15625 
Q 8.296875 39.359375 8.296875 46.6875 
Q 8.296875 54.640625 13.625 59.21875 
Q 18.953125 63.8125 28.90625 64.5 
L 28.90625 75.984375 
L 33.796875 75.984375 
L 33.796875 64.65625 
Q 38.328125 64.453125 42.578125 63.6875 
Q 46.828125 62.9375 50.875 61.625 
L 50.875 53.078125 
Q 46.828125 55.125 42.546875 56.25 
Q 38.28125 57.375 33.796875 57.5625 
L 33.796875 36.71875 
Q 44.875 35.015625 50.09375 30.609375 
Q 55.328125 26.21875 55.328125 18.609375 
Q 55.328125 10.359375 49.78125 5.59375 
Q 44.234375 0.828125 33.796875 0.09375 
z
M 28.90625 37.59375 
L 28.90625 57.625 
Q 23.25 56.984375 20.265625 54.390625 
Q 17.28125 51.8125 17.28125 47.515625 
Q 17.28125 43.3125 20.03125 40.96875 
Q 22.796875 38.625 28.90625 37.59375 
z
M 33.796875 28.21875 
L 33.796875 7.078125 
Q 39.984375 7.90625 43.140625 10.59375 
Q 46.296875 13.28125 46.296875 17.671875 
Q 46.296875 21.96875 43.28125 24.5 
Q 40.28125 27.046875 33.796875 28.21875 
z
" id="DejaVuSans-36"/>
      <path d="M 8.015625 75.875 
L 15.828125 75.875 
Q 23.140625 64.359375 26.78125 53.3125 
Q 30.421875 42.28125 30.421875 31.390625 
Q 30.421875 20.453125 26.78125 9.375 
Q 23.140625 -1.703125 15.828125 -13.1875 
L 8.015625 -13.1875 
Q 14.5 -2 17.703125 9.0625 
Q 20.90625 20.125 20.90625 31.390625 
Q 20.90625 42.671875 17.703125 53.65625 
Q 14.5 64.65625 8.015625 75.875 
z
" id="DejaVuSans-41"/>
     </defs>
     <g transform="translate(19.3575 381.119)rotate(-90)scale(0.16 -0.16)">
      <use xlink:href="#DejaVuSans-84"/>
      <use x="44.083984" xlink:href="#DejaVuSans-111"/>
      <use x="105.265625" xlink:href="#DejaVuSans-116"/>
      <use x="144.474609" xlink:href="#DejaVuSans-97"/>
      <use x="205.753906" xlink:href="#DejaVuSans-108"/>
      <use x="233.537109" xlink:href="#DejaVuSans-32"/>
      <use x="265.324219" xlink:href="#DejaVuSans-71"/>
      <use x="342.814453" xlink:href="#DejaVuSans-114"/>
      <use x="383.927734" xlink:href="#DejaVuSans-97"/>
      <use x="445.207031" xlink:href="#DejaVuSans-102"/>
      <use x="480.412109" xlink:href="#DejaVuSans-102"/>
      <use x="515.617188" xlink:href="#DejaVuSans-105"/>
      <use x="543.400391" xlink:href="#DejaVuSans-116"/>
      <use x="582.609375" xlink:href="#DejaVuSans-105"/>
      <use x="610.392578" xlink:href="#DejaVuSans-32"/>
      <use x="642.179688" xlink:href="#DejaVuSans-67"/>
      <use x="712.003906" xlink:href="#DejaVuSans-111"/>
      <use x="773.185547" xlink:href="#DejaVuSans-115"/>
      <use x="825.285156" xlink:href="#DejaVuSans-116"/>
      <use x="864.494141" xlink:href="#DejaVuSans-115"/>
      <use x="916.59375" xlink:href="#DejaVuSans-32"/>
      <use x="948.380859" xlink:href="#DejaVuSans-40"/>
      <use x="987.394531" xlink:href="#DejaVuSans-50"/>
      <use x="1051.017578" xlink:href="#DejaVuSans-48"/>
      <use x="1114.640625" xlink:href="#DejaVuSans-49"/>
      <use x="1178.263672" xlink:href="#DejaVuSans-51"/>
      <use x="1241.886719" xlink:href="#DejaVuSans-45"/>
      <use x="1277.970703" xlink:href="#DejaVuSans-50"/>
      <use x="1341.59375" xlink:href="#DejaVuSans-48"/>
      <use x="1405.216797" xlink:href="#DejaVuSans-49"/>
      <use x="1468.839844" xlink:href="#DejaVuSans-53"/>
      <use x="1532.462891" xlink:href="#DejaVuSans-44"/>
      <use x="1564.25" xlink:href="#DejaVuSans-32"/>
      <use x="1596.037109" xlink:href="#DejaVuSans-36"/>
      <use x="1659.660156" xlink:href="#DejaVuSans-41"/>
     </g>
    </g>
   </g>
   <g id="patch_3">
    <path d="M 74.405 462.669 
L 74.405 27.789 
" style="fill:none;stroke:#000000;stroke-linecap:square;stroke-linejoin:miter;stroke-width:0.8;"/>
   </g>
   <g id="patch_4">
    <path d="M 74.405 462.669 
L 632.405 462.669 
" style="fill:none;stroke:#000000;stroke-linecap:square;stroke-linejoin:miter;stroke-width:0.8;"/>
   </g>
   <g id="text_29">
    <!-- Number of Liquor Licenses vs. Grafitti Clean-Up Costs -->
    <defs>
     <path d="M 2.984375 54.6875 
L 12.5 54.6875 
L 29.59375 8.796875 
L 46.6875 54.6875 
L 56.203125 54.6875 
L 35.6875 0 
L 23.484375 0 
z
" id="DejaVuSans-118"/>
     <path d="M 10.6875 12.40625 
L 21 12.40625 
L 21 0 
L 10.6875 0 
z
" id="DejaVuSans-46"/>
     <path d="M 8.6875 72.90625 
L 18.609375 72.90625 
L 18.609375 28.609375 
Q 18.609375 16.890625 22.84375 11.734375 
Q 27.09375 6.59375 36.625 6.59375 
Q 46.09375 6.59375 50.34375 11.734375 
Q 54.59375 16.890625 54.59375 28.609375 
L 54.59375 72.90625 
L 64.5 72.90625 
L 64.5 27.390625 
Q 64.5 13.140625 57.4375 5.859375 
Q 50.390625 -1.421875 36.625 -1.421875 
Q 22.796875 -1.421875 15.734375 5.859375 
Q 8.6875 13.140625 8.6875 27.390625 
z
" id="DejaVuSans-85"/>
     <path d="M 18.109375 8.203125 
L 18.109375 -20.796875 
L 9.078125 -20.796875 
L 9.078125 54.6875 
L 18.109375 54.6875 
L 18.109375 46.390625 
Q 20.953125 51.265625 25.265625 53.625 
Q 29.59375 56 35.59375 56 
Q 45.5625 56 51.78125 48.09375 
Q 58.015625 40.1875 58.015625 27.296875 
Q 58.015625 14.40625 51.78125 6.484375 
Q 45.5625 -1.421875 35.59375 -1.421875 
Q 29.59375 -1.421875 25.265625 0.953125 
Q 20.953125 3.328125 18.109375 8.203125 
z
M 48.6875 27.296875 
Q 48.6875 37.203125 44.609375 42.84375 
Q 40.53125 48.484375 33.40625 48.484375 
Q 26.265625 48.484375 22.1875 42.84375 
Q 18.109375 37.203125 18.109375 27.296875 
Q 18.109375 17.390625 22.1875 11.75 
Q 26.265625 6.109375 33.40625 6.109375 
Q 40.53125 6.109375 44.609375 11.75 
Q 48.6875 17.390625 48.6875 27.296875 
z
" id="DejaVuSans-112"/>
    </defs>
    <g transform="translate(95.606 21.789)scale(0.192 -0.192)">
     <use xlink:href="#DejaVuSans-78"/>
     <use x="74.804688" xlink:href="#DejaVuSans-117"/>
     <use x="138.183594" xlink:href="#DejaVuSans-109"/>
     <use x="235.595703" xlink:href="#DejaVuSans-98"/>
     <use x="299.072266" xlink:href="#DejaVuSans-101"/>
     <use x="360.595703" xlink:href="#DejaVuSans-114"/>
     <use x="401.708984" xlink:href="#DejaVuSans-32"/>
     <use x="433.496094" xlink:href="#DejaVuSans-111"/>
     <use x="494.677734" xlink:href="#DejaVuSans-102"/>
     <use x="529.882812" xlink:href="#DejaVuSans-32"/>
     <use x="561.669922" xlink:href="#DejaVuSans-76"/>
     <use x="617.382812" xlink:href="#DejaVuSans-105"/>
     <use x="645.166016" xlink:href="#DejaVuSans-113"/>
     <use x="708.642578" xlink:href="#DejaVuSans-117"/>
     <use x="772.021484" xlink:href="#DejaVuSans-111"/>
     <use x="833.203125" xlink:href="#DejaVuSans-114"/>
     <use x="874.316406" xlink:href="#DejaVuSans-32"/>
     <use x="906.103516" xlink:href="#DejaVuSans-76"/>
     <use x="961.816406" xlink:href="#DejaVuSans-105"/>
     <use x="989.599609" xlink:href="#DejaVuSans-99"/>
     <use x="1044.580078" xlink:href="#DejaVuSans-101"/>
     <use x="1106.103516" xlink:href="#DejaVuSans-110"/>
     <use x="1169.482422" xlink:href="#DejaVuSans-115"/>
     <use x="1221.582031" xlink:href="#DejaVuSans-101"/>
     <use x="1283.105469" xlink:href="#DejaVuSans-115"/>
     <use x="1335.205078" xlink:href="#DejaVuSans-32"/>
     <use x="1366.992188" xlink:href="#DejaVuSans-118"/>
     <use x="1426.171875" xlink:href="#DejaVuSans-115"/>
     <use x="1478.271484" xlink:href="#DejaVuSans-46"/>
     <use x="1510.058594" xlink:href="#DejaVuSans-32"/>
     <use x="1541.845703" xlink:href="#DejaVuSans-71"/>
     <use x="1619.335938" xlink:href="#DejaVuSans-114"/>
     <use x="1660.449219" xlink:href="#DejaVuSans-97"/>
     <use x="1721.728516" xlink:href="#DejaVuSans-102"/>
     <use x="1756.933594" xlink:href="#DejaVuSans-105"/>
     <use x="1784.716797" xlink:href="#DejaVuSans-116"/>
     <use x="1823.925781" xlink:href="#DejaVuSans-116"/>
     <use x="1863.134766" xlink:href="#DejaVuSans-105"/>
     <use x="1890.917969" xlink:href="#DejaVuSans-32"/>
     <use x="1922.705078" xlink:href="#DejaVuSans-67"/>
     <use x="1992.529297" xlink:href="#DejaVuSans-108"/>
     <use x="2020.3125" xlink:href="#DejaVuSans-101"/>
     <use x="2081.835938" xlink:href="#DejaVuSans-97"/>
     <use x="2143.115234" xlink:href="#DejaVuSans-110"/>
     <use x="2206.494141" xlink:href="#DejaVuSans-45"/>
     <use x="2242.578125" xlink:href="#DejaVuSans-85"/>
     <use x="2315.771484" xlink:href="#DejaVuSans-112"/>
     <use x="2379.248047" xlink:href="#DejaVuSans-32"/>
     <use x="2411.035156" xlink:href="#DejaVuSans-67"/>
     <use x="2480.859375" xlink:href="#DejaVuSans-111"/>
     <use x="2542.041016" xlink:href="#DejaVuSans-115"/>
     <use x="2594.140625" xlink:href="#DejaVuSans-116"/>
     <use x="2633.349609" xlink:href="#DejaVuSans-115"/>
    </g>
   </g>
   <g id="legend_1">
    <g id="patch_5">
     <path d="M 496.874375 107.844 
L 624.005 107.844 
Q 626.405 107.844 626.405 105.444 
L 626.405 36.189 
Q 626.405 33.789 624.005 33.789 
L 496.874375 33.789 
Q 494.474375 33.789 494.474375 36.189 
L 494.474375 105.444 
Q 494.474375 107.844 496.874375 107.844 
z
" style="fill:#ffffff;opacity:0.8;stroke:#cccccc;stroke-linejoin:miter;"/>
    </g>
    <g id="patch_6">
     <path d="M 499.274375 47.707125 
L 523.274375 47.707125 
L 523.274375 39.307125 
L 499.274375 39.307125 
z
" style="fill:#0000ff;stroke:#0000ff;stroke-linejoin:miter;"/>
    </g>
    <g id="text_30">
     <!-- On Sale -->
     <defs>
      <path d="M 39.40625 66.21875 
Q 28.65625 66.21875 22.328125 58.203125 
Q 16.015625 50.203125 16.015625 36.375 
Q 16.015625 22.609375 22.328125 14.59375 
Q 28.65625 6.59375 39.40625 6.59375 
Q 50.140625 6.59375 56.421875 14.59375 
Q 62.703125 22.609375 62.703125 36.375 
Q 62.703125 50.203125 56.421875 58.203125 
Q 50.140625 66.21875 39.40625 66.21875 
z
M 39.40625 74.21875 
Q 54.734375 74.21875 63.90625 63.9375 
Q 73.09375 53.65625 73.09375 36.375 
Q 73.09375 19.140625 63.90625 8.859375 
Q 54.734375 -1.421875 39.40625 -1.421875 
Q 24.03125 -1.421875 14.8125 8.828125 
Q 5.609375 19.09375 5.609375 36.375 
Q 5.609375 53.65625 14.8125 63.9375 
Q 24.03125 74.21875 39.40625 74.21875 
z
" id="DejaVuSans-79"/>
      <path d="M 53.515625 70.515625 
L 53.515625 60.890625 
Q 47.90625 63.578125 42.921875 64.890625 
Q 37.9375 66.21875 33.296875 66.21875 
Q 25.25 66.21875 20.875 63.09375 
Q 16.5 59.96875 16.5 54.203125 
Q 16.5 49.359375 19.40625 46.890625 
Q 22.3125 44.4375 30.421875 42.921875 
L 36.375 41.703125 
Q 47.40625 39.59375 52.65625 34.296875 
Q 57.90625 29 57.90625 20.125 
Q 57.90625 9.515625 50.796875 4.046875 
Q 43.703125 -1.421875 29.984375 -1.421875 
Q 24.8125 -1.421875 18.96875 -0.25 
Q 13.140625 0.921875 6.890625 3.21875 
L 6.890625 13.375 
Q 12.890625 10.015625 18.65625 8.296875 
Q 24.421875 6.59375 29.984375 6.59375 
Q 38.421875 6.59375 43.015625 9.90625 
Q 47.609375 13.234375 47.609375 19.390625 
Q 47.609375 24.75 44.3125 27.78125 
Q 41.015625 30.8125 33.5 32.328125 
L 27.484375 33.5 
Q 16.453125 35.6875 11.515625 40.375 
Q 6.59375 45.0625 6.59375 53.421875 
Q 6.59375 63.09375 13.40625 68.65625 
Q 20.21875 74.21875 32.171875 74.21875 
Q 37.3125 74.21875 42.625 73.28125 
Q 47.953125 72.359375 53.515625 70.515625 
z
" id="DejaVuSans-83"/>
     </defs>
     <g transform="translate(532.874375 47.707125)scale(0.12 -0.12)">
      <use xlink:href="#DejaVuSans-79"/>
      <use x="78.710938" xlink:href="#DejaVuSans-110"/>
      <use x="142.089844" xlink:href="#DejaVuSans-32"/>
      <use x="173.876953" xlink:href="#DejaVuSans-83"/>
      <use x="237.353516" xlink:href="#DejaVuSans-97"/>
      <use x="298.632812" xlink:href="#DejaVuSans-108"/>
      <use x="326.416016" xlink:href="#DejaVuSans-101"/>
     </g>
    </g>
    <g id="patch_7">
     <path d="M 499.274375 65.320875 
L 523.274375 65.320875 
L 523.274375 56.920875 
L 499.274375 56.920875 
z
" style="fill:#008000;stroke:#008000;stroke-linejoin:miter;"/>
    </g>
    <g id="text_31">
     <!-- Malt Off Sale -->
     <defs>
      <path d="M 9.8125 72.90625 
L 24.515625 72.90625 
L 43.109375 23.296875 
L 61.8125 72.90625 
L 76.515625 72.90625 
L 76.515625 0 
L 66.890625 0 
L 66.890625 64.015625 
L 48.09375 14.015625 
L 38.1875 14.015625 
L 19.390625 64.015625 
L 19.390625 0 
L 9.8125 0 
z
" id="DejaVuSans-77"/>
     </defs>
     <g transform="translate(532.874375 65.320875)scale(0.12 -0.12)">
      <use xlink:href="#DejaVuSans-77"/>
      <use x="86.279297" xlink:href="#DejaVuSans-97"/>
      <use x="147.558594" xlink:href="#DejaVuSans-108"/>
      <use x="175.341797" xlink:href="#DejaVuSans-116"/>
      <use x="214.550781" xlink:href="#DejaVuSans-32"/>
      <use x="246.337891" xlink:href="#DejaVuSans-79"/>
      <use x="325.048828" xlink:href="#DejaVuSans-102"/>
      <use x="360.253906" xlink:href="#DejaVuSans-102"/>
      <use x="395.458984" xlink:href="#DejaVuSans-32"/>
      <use x="427.246094" xlink:href="#DejaVuSans-83"/>
      <use x="490.722656" xlink:href="#DejaVuSans-97"/>
      <use x="552.001953" xlink:href="#DejaVuSans-108"/>
      <use x="579.785156" xlink:href="#DejaVuSans-101"/>
     </g>
    </g>
    <g id="patch_8">
     <path d="M 499.274375 82.934625 
L 523.274375 82.934625 
L 523.274375 74.534625 
L 499.274375 74.534625 
z
" style="fill:#ff0000;stroke:#ff0000;stroke-linejoin:miter;"/>
    </g>
    <g id="text_32">
     <!-- Liquor Off Sale -->
     <g transform="translate(532.874375 82.934625)scale(0.12 -0.12)">
      <use xlink:href="#DejaVuSans-76"/>
      <use x="55.712891" xlink:href="#DejaVuSans-105"/>
      <use x="83.496094" xlink:href="#DejaVuSans-113"/>
      <use x="146.972656" xlink:href="#DejaVuSans-117"/>
      <use x="210.351562" xlink:href="#DejaVuSans-111"/>
      <use x="271.533203" xlink:href="#DejaVuSans-114"/>
      <use x="312.646484" xlink:href="#DejaVuSans-32"/>
      <use x="344.433594" xlink:href="#DejaVuSans-79"/>
      <use x="423.144531" xlink:href="#DejaVuSans-102"/>
      <use x="458.349609" xlink:href="#DejaVuSans-102"/>
      <use x="493.554688" xlink:href="#DejaVuSans-32"/>
      <use x="525.341797" xlink:href="#DejaVuSans-83"/>
      <use x="588.818359" xlink:href="#DejaVuSans-97"/>
      <use x="650.097656" xlink:href="#DejaVuSans-108"/>
      <use x="677.880859" xlink:href="#DejaVuSans-101"/>
     </g>
    </g>
    <g id="patch_9">
     <path d="M 499.274375 100.548375 
L 523.274375 100.548375 
L 523.274375 92.148375 
L 499.274375 92.148375 
z
" style="fill:#808080;stroke:#808080;stroke-linejoin:miter;"/>
    </g>
    <g id="text_33">
     <!-- No Licenses -->
     <g transform="translate(532.874375 100.548375)scale(0.12 -0.12)">
      <use xlink:href="#DejaVuSans-78"/>
      <use x="74.804688" xlink:href="#DejaVuSans-111"/>
      <use x="135.986328" xlink:href="#DejaVuSans-32"/>
      <use x="167.773438" xlink:href="#DejaVuSans-76"/>
      <use x="223.486328" xlink:href="#DejaVuSans-105"/>
      <use x="251.269531" xlink:href="#DejaVuSans-99"/>
      <use x="306.25" xlink:href="#DejaVuSans-101"/>
      <use x="367.773438" xlink:href="#DejaVuSans-110"/>
      <use x="431.152344" xlink:href="#DejaVuSans-115"/>
      <use x="483.251953" xlink:href="#DejaVuSans-101"/>
      <use x="544.775391" xlink:href="#DejaVuSans-115"/>
     </g>
    </g>
   </g>
  </g>
 </g>
 <defs>
  <clipPath id="p38707785db">
   <rect height="434.88" width="558" x="74.405" y="27.789"/>
  </clipPath>
 </defs>
</svg>
