<?xml version="1.0" encoding="utf-8" standalone="no"?>
<!DOCTYPE svg PUBLIC "-//W3C//DTD SVG 1.1//EN"
  "http://www.w3.org/Graphics/SVG/1.1/DTD/svg11.dtd">
<!-- Created with matplotlib (https://matplotlib.org/) -->
<svg height="306.789pt" version="1.1" viewBox="0 0 642.8325 306.789" width="642.8325pt" xmlns="http://www.w3.org/2000/svg" xmlns:xlink="http://www.w3.org/1999/xlink">
 <defs>
  <style type="text/css">
*{stroke-linecap:butt;stroke-linejoin:round;}
  </style>
 </defs>
 <g id="figure_1">
  <g id="patch_1">
   <path d="M 0 306.789 
L 642.8325 306.789 
L 642.8325 0 
L 0 0 
z
" style="fill:#ffffff;"/>
  </g>
  <g id="axes_1">
   <g id="patch_2">
    <path d="M 77.6325 299.589 
L 635.6325 299.589 
L 635.6325 27.789 
L 77.6325 27.789 
z
" style="fill:#ffffff;"/>
   </g>
   <g id="PathCollection_1">
    <defs>
     <path d="M 0 2.236068 
C 0.593012 2.236068 1.161816 2.000462 1.581139 1.581139 
C 2.000462 1.161816 2.236068 0.593012 2.236068 0 
C 2.236068 -0.593012 2.000462 -1.161816 1.581139 -1.581139 
C 1.161816 -2.000462 0.593012 -2.236068 0 -2.236068 
C -0.593012 -2.236068 -1.161816 -2.000462 -1.581139 -1.581139 
C -2.000462 -1.161816 -2.236068 -0.593012 -2.236068 0 
C -2.236068 0.593012 -2.000462 1.161816 -1.581139 1.581139 
C -1.161816 2.000462 -0.593012 2.236068 0 2.236068 
z
" id="mfff102a893" style="stroke:#000000;"/>
    </defs>
    <g clip-path="url(#p7aa327625a)">
     <use style="stroke:#000000;" x="102.996136" xlink:href="#mfff102a893" y="189.962512"/>
     <use style="stroke:#000000;" x="104.108577" xlink:href="#mfff102a893" y="182.69397"/>
     <use style="stroke:#000000;" x="104.108577" xlink:href="#mfff102a893" y="182.142151"/>
     <use style="stroke:#000000;" x="106.333457" xlink:href="#mfff102a893" y="178.972013"/>
     <use style="stroke:#000000;" x="107.445897" xlink:href="#mfff102a893" y="195.460884"/>
     <use style="stroke:#000000;" x="109.670778" xlink:href="#mfff102a893" y="176.833483"/>
     <use style="stroke:#000000;" x="113.008098" xlink:href="#mfff102a893" y="199.306121"/>
     <use style="stroke:#000000;" x="113.008098" xlink:href="#mfff102a893" y="179.105042"/>
     <use style="stroke:#000000;" x="113.008098" xlink:href="#mfff102a893" y="173.591315"/>
     <use style="stroke:#000000;" x="114.120538" xlink:href="#mfff102a893" y="185.391095"/>
     <use style="stroke:#000000;" x="114.120538" xlink:href="#mfff102a893" y="177.375322"/>
     <use style="stroke:#000000;" x="115.232978" xlink:href="#mfff102a893" y="172.833154"/>
     <use style="stroke:#000000;" x="116.345419" xlink:href="#mfff102a893" y="180.697527"/>
     <use style="stroke:#000000;" x="117.457859" xlink:href="#mfff102a893" y="174.549251"/>
     <use style="stroke:#000000;" x="119.682739" xlink:href="#mfff102a893" y="175.250314"/>
     <use style="stroke:#000000;" x="120.795179" xlink:href="#mfff102a893" y="176.341971"/>
     <use style="stroke:#000000;" x="123.02006" xlink:href="#mfff102a893" y="217.040256"/>
     <use style="stroke:#000000;" x="123.02006" xlink:href="#mfff102a893" y="181.787772"/>
     <use style="stroke:#000000;" x="124.1325" xlink:href="#mfff102a893" y="174.47758"/>
     <use style="stroke:#000000;" x="124.1325" xlink:href="#mfff102a893" y="168.547756"/>
     <use style="stroke:#000000;" x="124.1325" xlink:href="#mfff102a893" y="204.079581"/>
     <use style="stroke:#000000;" x="125.24494" xlink:href="#mfff102a893" y="167.100642"/>
     <use style="stroke:#000000;" x="125.24494" xlink:href="#mfff102a893" y="167.721438"/>
     <use style="stroke:#000000;" x="127.469821" xlink:href="#mfff102a893" y="166.616158"/>
     <use style="stroke:#000000;" x="127.469821" xlink:href="#mfff102a893" y="169.644467"/>
     <use style="stroke:#000000;" x="127.469821" xlink:href="#mfff102a893" y="174.199207"/>
     <use style="stroke:#000000;" x="127.469821" xlink:href="#mfff102a893" y="185.107566"/>
     <use style="stroke:#000000;" x="128.582261" xlink:href="#mfff102a893" y="169.779369"/>
     <use style="stroke:#000000;" x="129.694701" xlink:href="#mfff102a893" y="170.673022"/>
     <use style="stroke:#000000;" x="130.807141" xlink:href="#mfff102a893" y="168.053292"/>
     <use style="stroke:#000000;" x="130.807141" xlink:href="#mfff102a893" y="254.605051"/>
     <use style="stroke:#000000;" x="131.919581" xlink:href="#mfff102a893" y="167.56963"/>
     <use style="stroke:#000000;" x="131.919581" xlink:href="#mfff102a893" y="169.986071"/>
     <use style="stroke:#000000;" x="134.144462" xlink:href="#mfff102a893" y="218.273332"/>
     <use style="stroke:#000000;" x="135.256902" xlink:href="#mfff102a893" y="169.362811"/>
     <use style="stroke:#000000;" x="138.594222" xlink:href="#mfff102a893" y="162.331351"/>
     <use style="stroke:#000000;" x="138.594222" xlink:href="#mfff102a893" y="159.298577"/>
     <use style="stroke:#000000;" x="139.706663" xlink:href="#mfff102a893" y="166.33299"/>
     <use style="stroke:#000000;" x="141.931543" xlink:href="#mfff102a893" y="191.927366"/>
     <use style="stroke:#000000;" x="143.043983" xlink:href="#mfff102a893" y="204.868523"/>
     <use style="stroke:#000000;" x="144.156423" xlink:href="#mfff102a893" y="153.093204"/>
     <use style="stroke:#000000;" x="146.381304" xlink:href="#mfff102a893" y="161.773324"/>
     <use style="stroke:#000000;" x="146.381304" xlink:href="#mfff102a893" y="160.275449"/>
     <use style="stroke:#000000;" x="146.381304" xlink:href="#mfff102a893" y="183.860577"/>
     <use style="stroke:#000000;" x="147.493744" xlink:href="#mfff102a893" y="166.337482"/>
     <use style="stroke:#000000;" x="147.493744" xlink:href="#mfff102a893" y="162.460506"/>
     <use style="stroke:#000000;" x="148.606184" xlink:href="#mfff102a893" y="174.619568"/>
     <use style="stroke:#000000;" x="151.943505" xlink:href="#mfff102a893" y="159.637616"/>
     <use style="stroke:#000000;" x="154.168385" xlink:href="#mfff102a893" y="156.51906"/>
     <use style="stroke:#000000;" x="155.280825" xlink:href="#mfff102a893" y="202.189002"/>
     <use style="stroke:#000000;" x="155.280825" xlink:href="#mfff102a893" y="180.463264"/>
     <use style="stroke:#000000;" x="156.393266" xlink:href="#mfff102a893" y="161.830449"/>
     <use style="stroke:#000000;" x="158.618146" xlink:href="#mfff102a893" y="154.871019"/>
     <use style="stroke:#000000;" x="158.618146" xlink:href="#mfff102a893" y="177.49114"/>
     <use style="stroke:#000000;" x="158.618146" xlink:href="#mfff102a893" y="158.520124"/>
     <use style="stroke:#000000;" x="160.843026" xlink:href="#mfff102a893" y="153.959739"/>
     <use style="stroke:#000000;" x="160.843026" xlink:href="#mfff102a893" y="186.878214"/>
     <use style="stroke:#000000;" x="160.843026" xlink:href="#mfff102a893" y="161.421461"/>
     <use style="stroke:#000000;" x="161.955467" xlink:href="#mfff102a893" y="177.613331"/>
     <use style="stroke:#000000;" x="161.955467" xlink:href="#mfff102a893" y="212.11422"/>
     <use style="stroke:#000000;" x="161.955467" xlink:href="#mfff102a893" y="152.659508"/>
     <use style="stroke:#000000;" x="161.955467" xlink:href="#mfff102a893" y="220.309137"/>
     <use style="stroke:#000000;" x="161.955467" xlink:href="#mfff102a893" y="180.100981"/>
     <use style="stroke:#000000;" x="161.955467" xlink:href="#mfff102a893" y="149.150128"/>
     <use style="stroke:#000000;" x="161.955467" xlink:href="#mfff102a893" y="196.988913"/>
     <use style="stroke:#000000;" x="163.067907" xlink:href="#mfff102a893" y="151.970684"/>
     <use style="stroke:#000000;" x="164.180347" xlink:href="#mfff102a893" y="169.481285"/>
     <use style="stroke:#000000;" x="165.292787" xlink:href="#mfff102a893" y="177.498315"/>
     <use style="stroke:#000000;" x="166.405227" xlink:href="#mfff102a893" y="159.899853"/>
     <use style="stroke:#000000;" x="166.405227" xlink:href="#mfff102a893" y="189.983866"/>
     <use style="stroke:#000000;" x="168.630108" xlink:href="#mfff102a893" y="188.933721"/>
     <use style="stroke:#000000;" x="168.630108" xlink:href="#mfff102a893" y="177.689853"/>
     <use style="stroke:#000000;" x="168.630108" xlink:href="#mfff102a893" y="198.70101"/>
     <use style="stroke:#000000;" x="169.742548" xlink:href="#mfff102a893" y="188.445963"/>
     <use style="stroke:#000000;" x="169.742548" xlink:href="#mfff102a893" y="154.52639"/>
     <use style="stroke:#000000;" x="170.854988" xlink:href="#mfff102a893" y="153.889609"/>
     <use style="stroke:#000000;" x="170.854988" xlink:href="#mfff102a893" y="144.856263"/>
     <use style="stroke:#000000;" x="171.967428" xlink:href="#mfff102a893" y="157.469377"/>
     <use style="stroke:#000000;" x="174.192309" xlink:href="#mfff102a893" y="169.747574"/>
     <use style="stroke:#000000;" x="174.192309" xlink:href="#mfff102a893" y="213.705666"/>
     <use style="stroke:#000000;" x="174.192309" xlink:href="#mfff102a893" y="165.682372"/>
     <use style="stroke:#000000;" x="174.192309" xlink:href="#mfff102a893" y="154.03326"/>
     <use style="stroke:#000000;" x="176.417189" xlink:href="#mfff102a893" y="149.882583"/>
     <use style="stroke:#000000;" x="177.529629" xlink:href="#mfff102a893" y="142.708574"/>
     <use style="stroke:#000000;" x="178.642069" xlink:href="#mfff102a893" y="203.91175"/>
     <use style="stroke:#000000;" x="178.642069" xlink:href="#mfff102a893" y="224.122218"/>
     <use style="stroke:#000000;" x="180.86695" xlink:href="#mfff102a893" y="144.154637"/>
     <use style="stroke:#000000;" x="183.09183" xlink:href="#mfff102a893" y="154.315842"/>
     <use style="stroke:#000000;" x="184.20427" xlink:href="#mfff102a893" y="154.657368"/>
     <use style="stroke:#000000;" x="184.20427" xlink:href="#mfff102a893" y="191.632424"/>
     <use style="stroke:#000000;" x="185.316711" xlink:href="#mfff102a893" y="146.011511"/>
     <use style="stroke:#000000;" x="185.316711" xlink:href="#mfff102a893" y="175.758643"/>
     <use style="stroke:#000000;" x="186.429151" xlink:href="#mfff102a893" y="160.976183"/>
     <use style="stroke:#000000;" x="186.429151" xlink:href="#mfff102a893" y="159.325189"/>
     <use style="stroke:#000000;" x="186.429151" xlink:href="#mfff102a893" y="163.670304"/>
     <use style="stroke:#000000;" x="186.429151" xlink:href="#mfff102a893" y="143.671694"/>
     <use style="stroke:#000000;" x="190.878911" xlink:href="#mfff102a893" y="151.205344"/>
     <use style="stroke:#000000;" x="194.216232" xlink:href="#mfff102a893" y="139.745396"/>
     <use style="stroke:#000000;" x="195.328672" xlink:href="#mfff102a893" y="155.888919"/>
     <use style="stroke:#000000;" x="195.328672" xlink:href="#mfff102a893" y="198.710813"/>
     <use style="stroke:#000000;" x="197.553553" xlink:href="#mfff102a893" y="167.723294"/>
     <use style="stroke:#000000;" x="197.553553" xlink:href="#mfff102a893" y="191.183797"/>
     <use style="stroke:#000000;" x="198.665993" xlink:href="#mfff102a893" y="158.830624"/>
     <use style="stroke:#000000;" x="198.665993" xlink:href="#mfff102a893" y="191.592285"/>
     <use style="stroke:#000000;" x="198.665993" xlink:href="#mfff102a893" y="162.012052"/>
     <use style="stroke:#000000;" x="202.003313" xlink:href="#mfff102a893" y="170.0738"/>
     <use style="stroke:#000000;" x="203.115754" xlink:href="#mfff102a893" y="146.146261"/>
     <use style="stroke:#000000;" x="204.228194" xlink:href="#mfff102a893" y="178.386919"/>
     <use style="stroke:#000000;" x="206.453074" xlink:href="#mfff102a893" y="137.244712"/>
     <use style="stroke:#000000;" x="209.790395" xlink:href="#mfff102a893" y="167.674845"/>
     <use style="stroke:#000000;" x="214.240156" xlink:href="#mfff102a893" y="211.040054"/>
     <use style="stroke:#000000;" x="214.240156" xlink:href="#mfff102a893" y="162.154742"/>
     <use style="stroke:#000000;" x="214.240156" xlink:href="#mfff102a893" y="142.414502"/>
     <use style="stroke:#000000;" x="215.352596" xlink:href="#mfff102a893" y="216.535656"/>
     <use style="stroke:#000000;" x="217.577476" xlink:href="#mfff102a893" y="123.643492"/>
     <use style="stroke:#000000;" x="219.802356" xlink:href="#mfff102a893" y="207.321562"/>
     <use style="stroke:#000000;" x="220.914797" xlink:href="#mfff102a893" y="178.136036"/>
     <use style="stroke:#000000;" x="220.914797" xlink:href="#mfff102a893" y="162.789318"/>
     <use style="stroke:#000000;" x="222.027237" xlink:href="#mfff102a893" y="123.853376"/>
     <use style="stroke:#000000;" x="223.139677" xlink:href="#mfff102a893" y="183.642194"/>
     <use style="stroke:#000000;" x="224.252117" xlink:href="#mfff102a893" y="165.502068"/>
     <use style="stroke:#000000;" x="224.252117" xlink:href="#mfff102a893" y="145.534808"/>
     <use style="stroke:#000000;" x="225.364557" xlink:href="#mfff102a893" y="287.234455"/>
     <use style="stroke:#000000;" x="227.589438" xlink:href="#mfff102a893" y="144.522492"/>
     <use style="stroke:#000000;" x="230.926758" xlink:href="#mfff102a893" y="140.178918"/>
     <use style="stroke:#000000;" x="232.039199" xlink:href="#mfff102a893" y="127.990867"/>
     <use style="stroke:#000000;" x="232.039199" xlink:href="#mfff102a893" y="172.961156"/>
     <use style="stroke:#000000;" x="236.488959" xlink:href="#mfff102a893" y="174.45798"/>
     <use style="stroke:#000000;" x="237.6014" xlink:href="#mfff102a893" y="133.768393"/>
     <use style="stroke:#000000;" x="239.82628" xlink:href="#mfff102a893" y="140.190207"/>
     <use style="stroke:#000000;" x="240.93872" xlink:href="#mfff102a893" y="188.746951"/>
     <use style="stroke:#000000;" x="243.1636" xlink:href="#mfff102a893" y="173.247102"/>
     <use style="stroke:#000000;" x="245.388481" xlink:href="#mfff102a893" y="161.306197"/>
     <use style="stroke:#000000;" x="245.388481" xlink:href="#mfff102a893" y="190.795684"/>
     <use style="stroke:#000000;" x="247.613361" xlink:href="#mfff102a893" y="161.013881"/>
     <use style="stroke:#000000;" x="248.725801" xlink:href="#mfff102a893" y="118.948442"/>
     <use style="stroke:#000000;" x="249.838242" xlink:href="#mfff102a893" y="135.056171"/>
     <use style="stroke:#000000;" x="250.950682" xlink:href="#mfff102a893" y="122.523233"/>
     <use style="stroke:#000000;" x="250.950682" xlink:href="#mfff102a893" y="176.214059"/>
     <use style="stroke:#000000;" x="252.063122" xlink:href="#mfff102a893" y="129.697985"/>
     <use style="stroke:#000000;" x="252.063122" xlink:href="#mfff102a893" y="152.4891"/>
     <use style="stroke:#000000;" x="256.512883" xlink:href="#mfff102a893" y="142.028662"/>
     <use style="stroke:#000000;" x="257.625323" xlink:href="#mfff102a893" y="173.798936"/>
     <use style="stroke:#000000;" x="263.187524" xlink:href="#mfff102a893" y="107.897691"/>
     <use style="stroke:#000000;" x="268.749725" xlink:href="#mfff102a893" y="121.757673"/>
     <use style="stroke:#000000;" x="269.862165" xlink:href="#mfff102a893" y="153.612418"/>
     <use style="stroke:#000000;" x="270.974605" xlink:href="#mfff102a893" y="143.372207"/>
     <use style="stroke:#000000;" x="278.761687" xlink:href="#mfff102a893" y="173.755039"/>
     <use style="stroke:#000000;" x="284.323888" xlink:href="#mfff102a893" y="213.122957"/>
     <use style="stroke:#000000;" x="286.548768" xlink:href="#mfff102a893" y="140.33997"/>
     <use style="stroke:#000000;" x="286.548768" xlink:href="#mfff102a893" y="179.131608"/>
     <use style="stroke:#000000;" x="288.773648" xlink:href="#mfff102a893" y="123.036072"/>
     <use style="stroke:#000000;" x="288.773648" xlink:href="#mfff102a893" y="177.799011"/>
     <use style="stroke:#000000;" x="289.886089" xlink:href="#mfff102a893" y="213.32255"/>
     <use style="stroke:#000000;" x="292.110969" xlink:href="#mfff102a893" y="163.583479"/>
     <use style="stroke:#000000;" x="299.89805" xlink:href="#mfff102a893" y="116.964087"/>
     <use style="stroke:#000000;" x="305.460251" xlink:href="#mfff102a893" y="162.435424"/>
     <use style="stroke:#000000;" x="306.572691" xlink:href="#mfff102a893" y="154.725516"/>
     <use style="stroke:#000000;" x="306.572691" xlink:href="#mfff102a893" y="107.569769"/>
     <use style="stroke:#000000;" x="307.685132" xlink:href="#mfff102a893" y="137.719398"/>
     <use style="stroke:#000000;" x="309.910012" xlink:href="#mfff102a893" y="97.720535"/>
     <use style="stroke:#000000;" x="309.910012" xlink:href="#mfff102a893" y="174.737617"/>
     <use style="stroke:#000000;" x="312.134892" xlink:href="#mfff102a893" y="161.373066"/>
     <use style="stroke:#000000;" x="316.584653" xlink:href="#mfff102a893" y="105.996592"/>
     <use style="stroke:#000000;" x="316.584653" xlink:href="#mfff102a893" y="141.285721"/>
     <use style="stroke:#000000;" x="329.933935" xlink:href="#mfff102a893" y="95.0238"/>
     <use style="stroke:#000000;" x="332.158816" xlink:href="#mfff102a893" y="155.719835"/>
     <use style="stroke:#000000;" x="333.271256" xlink:href="#mfff102a893" y="75.155153"/>
     <use style="stroke:#000000;" x="343.283218" xlink:href="#mfff102a893" y="75.67372"/>
     <use style="stroke:#000000;" x="349.957859" xlink:href="#mfff102a893" y="68.716781"/>
     <use style="stroke:#000000;" x="356.6325" xlink:href="#mfff102a893" y="231.003134"/>
     <use style="stroke:#000000;" x="358.85738" xlink:href="#mfff102a893" y="164.929568"/>
     <use style="stroke:#000000;" x="369.981782" xlink:href="#mfff102a893" y="171.240985"/>
     <use style="stroke:#000000;" x="371.094222" xlink:href="#mfff102a893" y="63.680229"/>
     <use style="stroke:#000000;" x="372.206663" xlink:href="#mfff102a893" y="94.133556"/>
     <use style="stroke:#000000;" x="374.431543" xlink:href="#mfff102a893" y="205.767395"/>
     <use style="stroke:#000000;" x="374.431543" xlink:href="#mfff102a893" y="105.654701"/>
     <use style="stroke:#000000;" x="375.543983" xlink:href="#mfff102a893" y="159.241111"/>
     <use style="stroke:#000000;" x="384.443505" xlink:href="#mfff102a893" y="72.129594"/>
     <use style="stroke:#000000;" x="386.668385" xlink:href="#mfff102a893" y="131.962916"/>
     <use style="stroke:#000000;" x="387.780825" xlink:href="#mfff102a893" y="175.628357"/>
     <use style="stroke:#000000;" x="391.118146" xlink:href="#mfff102a893" y="98.408228"/>
     <use style="stroke:#000000;" x="392.230586" xlink:href="#mfff102a893" y="108.952481"/>
     <use style="stroke:#000000;" x="392.230586" xlink:href="#mfff102a893" y="114.298305"/>
     <use style="stroke:#000000;" x="395.567907" xlink:href="#mfff102a893" y="132.279713"/>
     <use style="stroke:#000000;" x="404.467428" xlink:href="#mfff102a893" y="40.143545"/>
     <use style="stroke:#000000;" x="406.692309" xlink:href="#mfff102a893" y="160.907053"/>
     <use style="stroke:#000000;" x="410.029629" xlink:href="#mfff102a893" y="108.054803"/>
     <use style="stroke:#000000;" x="434.503313" xlink:href="#mfff102a893" y="74.058184"/>
     <use style="stroke:#000000;" x="440.065514" xlink:href="#mfff102a893" y="222.004849"/>
     <use style="stroke:#000000;" x="466.764079" xlink:href="#mfff102a893" y="140.459993"/>
     <use style="stroke:#000000;" x="474.55116" xlink:href="#mfff102a893" y="174.265844"/>
     <use style="stroke:#000000;" x="497.912404" xlink:href="#mfff102a893" y="108.299901"/>
     <use style="stroke:#000000;" x="519.048768" xlink:href="#mfff102a893" y="163.230851"/>
     <use style="stroke:#000000;" x="530.17317" xlink:href="#mfff102a893" y="268.836541"/>
     <use style="stroke:#000000;" x="539.072691" xlink:href="#mfff102a893" y="76.320769"/>
     <use style="stroke:#000000;" x="547.972213" xlink:href="#mfff102a893" y="78.097129"/>
     <use style="stroke:#000000;" x="560.209055" xlink:href="#mfff102a893" y="140.891569"/>
     <use style="stroke:#000000;" x="610.268864" xlink:href="#mfff102a893" y="91.676182"/>
    </g>
   </g>
   <g id="matplotlib.axis_1">
    <g id="xtick_1">
     <g id="line2d_1">
      <defs>
       <path d="M 0 0 
L 0 3.5 
" id="m4eba9006b0" style="stroke:#000000;stroke-width:0.8;"/>
      </defs>
      <g>
       <use style="stroke:#000000;stroke-width:0.8;" x="102.996136" xlink:href="#m4eba9006b0" y="159.542064"/>
      </g>
     </g>
     <g id="text_1">
      <!-- 0 -->
      <defs>
       <path d="M 31.78125 66.40625 
Q 24.171875 66.40625 20.328125 58.90625 
Q 16.5 51.421875 16.5 36.375 
Q 16.5 21.390625 20.328125 13.890625 
Q 24.171875 6.390625 31.78125 6.390625 
Q 39.453125 6.390625 43.28125 13.890625 
Q 47.125 21.390625 47.125 36.375 
Q 47.125 51.421875 43.28125 58.90625 
Q 39.453125 66.40625 31.78125 66.40625 
z
M 31.78125 74.21875 
Q 44.046875 74.21875 50.515625 64.515625 
Q 56.984375 54.828125 56.984375 36.375 
Q 56.984375 17.96875 50.515625 8.265625 
Q 44.046875 -1.421875 31.78125 -1.421875 
Q 19.53125 -1.421875 13.0625 8.265625 
Q 6.59375 17.96875 6.59375 36.375 
Q 6.59375 54.828125 13.0625 64.515625 
Q 19.53125 74.21875 31.78125 74.21875 
z
" id="DejaVuSans-48"/>
      </defs>
      <g transform="translate(97.906136 178.699564)scale(0.16 -0.16)">
       <use xlink:href="#DejaVuSans-48"/>
      </g>
     </g>
    </g>
    <g id="xtick_2">
     <g id="line2d_2">
      <g>
       <use style="stroke:#000000;stroke-width:0.8;" x="214.240156" xlink:href="#m4eba9006b0" y="159.542064"/>
      </g>
     </g>
     <g id="text_2">
      <!-- 100 -->
      <defs>
       <path d="M 12.40625 8.296875 
L 28.515625 8.296875 
L 28.515625 63.921875 
L 10.984375 60.40625 
L 10.984375 69.390625 
L 28.421875 72.90625 
L 38.28125 72.90625 
L 38.28125 8.296875 
L 54.390625 8.296875 
L 54.390625 0 
L 12.40625 0 
z
" id="DejaVuSans-49"/>
      </defs>
      <g transform="translate(198.970156 178.699564)scale(0.16 -0.16)">
       <use xlink:href="#DejaVuSans-49"/>
       <use x="63.623047" xlink:href="#DejaVuSans-48"/>
       <use x="127.246094" xlink:href="#DejaVuSans-48"/>
      </g>
     </g>
    </g>
    <g id="xtick_3">
     <g id="line2d_3">
      <g>
       <use style="stroke:#000000;stroke-width:0.8;" x="325.484175" xlink:href="#m4eba9006b0" y="159.542064"/>
      </g>
     </g>
     <g id="text_3">
      <!-- 200 -->
      <defs>
       <path d="M 19.1875 8.296875 
L 53.609375 8.296875 
L 53.609375 0 
L 7.328125 0 
L 7.328125 8.296875 
Q 12.9375 14.109375 22.625 23.890625 
Q 32.328125 33.6875 34.8125 36.53125 
Q 39.546875 41.84375 41.421875 45.53125 
Q 43.3125 49.21875 43.3125 52.78125 
Q 43.3125 58.59375 39.234375 62.25 
Q 35.15625 65.921875 28.609375 65.921875 
Q 23.96875 65.921875 18.8125 64.3125 
Q 13.671875 62.703125 7.8125 59.421875 
L 7.8125 69.390625 
Q 13.765625 71.78125 18.9375 73 
Q 24.125 74.21875 28.421875 74.21875 
Q 39.75 74.21875 46.484375 68.546875 
Q 53.21875 62.890625 53.21875 53.421875 
Q 53.21875 48.921875 51.53125 44.890625 
Q 49.859375 40.875 45.40625 35.40625 
Q 44.1875 33.984375 37.640625 27.21875 
Q 31.109375 20.453125 19.1875 8.296875 
z
" id="DejaVuSans-50"/>
      </defs>
      <g transform="translate(310.214175 178.699564)scale(0.16 -0.16)">
       <use xlink:href="#DejaVuSans-50"/>
       <use x="63.623047" xlink:href="#DejaVuSans-48"/>
       <use x="127.246094" xlink:href="#DejaVuSans-48"/>
      </g>
     </g>
    </g>
    <g id="xtick_4">
     <g id="line2d_4">
      <g>
       <use style="stroke:#000000;stroke-width:0.8;" x="436.728194" xlink:href="#m4eba9006b0" y="159.542064"/>
      </g>
     </g>
     <g id="text_4">
      <!-- 300 -->
      <defs>
       <path d="M 40.578125 39.3125 
Q 47.65625 37.796875 51.625 33 
Q 55.609375 28.21875 55.609375 21.1875 
Q 55.609375 10.40625 48.1875 4.484375 
Q 40.765625 -1.421875 27.09375 -1.421875 
Q 22.515625 -1.421875 17.65625 -0.515625 
Q 12.796875 0.390625 7.625 2.203125 
L 7.625 11.71875 
Q 11.71875 9.328125 16.59375 8.109375 
Q 21.484375 6.890625 26.8125 6.890625 
Q 36.078125 6.890625 40.9375 10.546875 
Q 45.796875 14.203125 45.796875 21.1875 
Q 45.796875 27.640625 41.28125 31.265625 
Q 36.765625 34.90625 28.71875 34.90625 
L 20.21875 34.90625 
L 20.21875 43.015625 
L 29.109375 43.015625 
Q 36.375 43.015625 40.234375 45.921875 
Q 44.09375 48.828125 44.09375 54.296875 
Q 44.09375 59.90625 40.109375 62.90625 
Q 36.140625 65.921875 28.71875 65.921875 
Q 24.65625 65.921875 20.015625 65.03125 
Q 15.375 64.15625 9.8125 62.3125 
L 9.8125 71.09375 
Q 15.4375 72.65625 20.34375 73.4375 
Q 25.25 74.21875 29.59375 74.21875 
Q 40.828125 74.21875 47.359375 69.109375 
Q 53.90625 64.015625 53.90625 55.328125 
Q 53.90625 49.265625 50.4375 45.09375 
Q 46.96875 40.921875 40.578125 39.3125 
z
" id="DejaVuSans-51"/>
      </defs>
      <g transform="translate(421.458194 178.699564)scale(0.16 -0.16)">
       <use xlink:href="#DejaVuSans-51"/>
       <use x="63.623047" xlink:href="#DejaVuSans-48"/>
       <use x="127.246094" xlink:href="#DejaVuSans-48"/>
      </g>
     </g>
    </g>
    <g id="xtick_5">
     <g id="line2d_5">
      <g>
       <use style="stroke:#000000;stroke-width:0.8;" x="547.972213" xlink:href="#m4eba9006b0" y="159.542064"/>
      </g>
     </g>
     <g id="text_5">
      <!-- 400 -->
      <defs>
       <path d="M 37.796875 64.3125 
L 12.890625 25.390625 
L 37.796875 25.390625 
z
M 35.203125 72.90625 
L 47.609375 72.90625 
L 47.609375 25.390625 
L 58.015625 25.390625 
L 58.015625 17.1875 
L 47.609375 17.1875 
L 47.609375 0 
L 37.796875 0 
L 37.796875 17.1875 
L 4.890625 17.1875 
L 4.890625 26.703125 
z
" id="DejaVuSans-52"/>
      </defs>
      <g transform="translate(532.702213 178.699564)scale(0.16 -0.16)">
       <use xlink:href="#DejaVuSans-52"/>
       <use x="63.623047" xlink:href="#DejaVuSans-48"/>
       <use x="127.246094" xlink:href="#DejaVuSans-48"/>
      </g>
     </g>
    </g>
    <g id="text_6">
     <!-- Incident Count -->
     <defs>
      <path d="M 9.8125 72.90625 
L 19.671875 72.90625 
L 19.671875 0 
L 9.8125 0 
z
" id="DejaVuSans-73"/>
      <path d="M 54.890625 33.015625 
L 54.890625 0 
L 45.90625 0 
L 45.90625 32.71875 
Q 45.90625 40.484375 42.875 44.328125 
Q 39.84375 48.1875 33.796875 48.1875 
Q 26.515625 48.1875 22.3125 43.546875 
Q 18.109375 38.921875 18.109375 30.90625 
L 18.109375 0 
L 9.078125 0 
L 9.078125 54.6875 
L 18.109375 54.6875 
L 18.109375 46.1875 
Q 21.34375 51.125 25.703125 53.5625 
Q 30.078125 56 35.796875 56 
Q 45.21875 56 50.046875 50.171875 
Q 54.890625 44.34375 54.890625 33.015625 
z
" id="DejaVuSans-110"/>
      <path d="M 48.78125 52.59375 
L 48.78125 44.1875 
Q 44.96875 46.296875 41.140625 47.34375 
Q 37.3125 48.390625 33.40625 48.390625 
Q 24.65625 48.390625 19.8125 42.84375 
Q 14.984375 37.3125 14.984375 27.296875 
Q 14.984375 17.28125 19.8125 11.734375 
Q 24.65625 6.203125 33.40625 6.203125 
Q 37.3125 6.203125 41.140625 7.25 
Q 44.96875 8.296875 48.78125 10.40625 
L 48.78125 2.09375 
Q 45.015625 0.34375 40.984375 -0.53125 
Q 36.96875 -1.421875 32.421875 -1.421875 
Q 20.0625 -1.421875 12.78125 6.34375 
Q 5.515625 14.109375 5.515625 27.296875 
Q 5.515625 40.671875 12.859375 48.328125 
Q 20.21875 56 33.015625 56 
Q 37.15625 56 41.109375 55.140625 
Q 45.0625 54.296875 48.78125 52.59375 
z
" id="DejaVuSans-99"/>
      <path d="M 9.421875 54.6875 
L 18.40625 54.6875 
L 18.40625 0 
L 9.421875 0 
z
M 9.421875 75.984375 
L 18.40625 75.984375 
L 18.40625 64.59375 
L 9.421875 64.59375 
z
" id="DejaVuSans-105"/>
      <path d="M 45.40625 46.390625 
L 45.40625 75.984375 
L 54.390625 75.984375 
L 54.390625 0 
L 45.40625 0 
L 45.40625 8.203125 
Q 42.578125 3.328125 38.25 0.953125 
Q 33.9375 -1.421875 27.875 -1.421875 
Q 17.96875 -1.421875 11.734375 6.484375 
Q 5.515625 14.40625 5.515625 27.296875 
Q 5.515625 40.1875 11.734375 48.09375 
Q 17.96875 56 27.875 56 
Q 33.9375 56 38.25 53.625 
Q 42.578125 51.265625 45.40625 46.390625 
z
M 14.796875 27.296875 
Q 14.796875 17.390625 18.875 11.75 
Q 22.953125 6.109375 30.078125 6.109375 
Q 37.203125 6.109375 41.296875 11.75 
Q 45.40625 17.390625 45.40625 27.296875 
Q 45.40625 37.203125 41.296875 42.84375 
Q 37.203125 48.484375 30.078125 48.484375 
Q 22.953125 48.484375 18.875 42.84375 
Q 14.796875 37.203125 14.796875 27.296875 
z
" id="DejaVuSans-100"/>
      <path d="M 56.203125 29.59375 
L 56.203125 25.203125 
L 14.890625 25.203125 
Q 15.484375 15.921875 20.484375 11.0625 
Q 25.484375 6.203125 34.421875 6.203125 
Q 39.59375 6.203125 44.453125 7.46875 
Q 49.3125 8.734375 54.109375 11.28125 
L 54.109375 2.78125 
Q 49.265625 0.734375 44.1875 -0.34375 
Q 39.109375 -1.421875 33.890625 -1.421875 
Q 20.796875 -1.421875 13.15625 6.1875 
Q 5.515625 13.8125 5.515625 26.8125 
Q 5.515625 40.234375 12.765625 48.109375 
Q 20.015625 56 32.328125 56 
Q 43.359375 56 49.78125 48.890625 
Q 56.203125 41.796875 56.203125 29.59375 
z
M 47.21875 32.234375 
Q 47.125 39.59375 43.09375 43.984375 
Q 39.0625 48.390625 32.421875 48.390625 
Q 24.90625 48.390625 20.390625 44.140625 
Q 15.875 39.890625 15.1875 32.171875 
z
" id="DejaVuSans-101"/>
      <path d="M 18.3125 70.21875 
L 18.3125 54.6875 
L 36.8125 54.6875 
L 36.8125 47.703125 
L 18.3125 47.703125 
L 18.3125 18.015625 
Q 18.3125 11.328125 20.140625 9.421875 
Q 21.96875 7.515625 27.59375 7.515625 
L 36.8125 7.515625 
L 36.8125 0 
L 27.59375 0 
Q 17.1875 0 13.234375 3.875 
Q 9.28125 7.765625 9.28125 18.015625 
L 9.28125 47.703125 
L 2.6875 47.703125 
L 2.6875 54.6875 
L 9.28125 54.6875 
L 9.28125 70.21875 
z
" id="DejaVuSans-116"/>
      <path id="DejaVuSans-32"/>
      <path d="M 64.40625 67.28125 
L 64.40625 56.890625 
Q 59.421875 61.53125 53.78125 63.8125 
Q 48.140625 66.109375 41.796875 66.109375 
Q 29.296875 66.109375 22.65625 58.46875 
Q 16.015625 50.828125 16.015625 36.375 
Q 16.015625 21.96875 22.65625 14.328125 
Q 29.296875 6.6875 41.796875 6.6875 
Q 48.140625 6.6875 53.78125 8.984375 
Q 59.421875 11.28125 64.40625 15.921875 
L 64.40625 5.609375 
Q 59.234375 2.09375 53.4375 0.328125 
Q 47.65625 -1.421875 41.21875 -1.421875 
Q 24.65625 -1.421875 15.125 8.703125 
Q 5.609375 18.84375 5.609375 36.375 
Q 5.609375 53.953125 15.125 64.078125 
Q 24.65625 74.21875 41.21875 74.21875 
Q 47.75 74.21875 53.53125 72.484375 
Q 59.328125 70.75 64.40625 67.28125 
z
" id="DejaVuSans-67"/>
      <path d="M 30.609375 48.390625 
Q 23.390625 48.390625 19.1875 42.75 
Q 14.984375 37.109375 14.984375 27.296875 
Q 14.984375 17.484375 19.15625 11.84375 
Q 23.34375 6.203125 30.609375 6.203125 
Q 37.796875 6.203125 41.984375 11.859375 
Q 46.1875 17.53125 46.1875 27.296875 
Q 46.1875 37.015625 41.984375 42.703125 
Q 37.796875 48.390625 30.609375 48.390625 
z
M 30.609375 56 
Q 42.328125 56 49.015625 48.375 
Q 55.71875 40.765625 55.71875 27.296875 
Q 55.71875 13.875 49.015625 6.21875 
Q 42.328125 -1.421875 30.609375 -1.421875 
Q 18.84375 -1.421875 12.171875 6.21875 
Q 5.515625 13.875 5.515625 27.296875 
Q 5.515625 40.765625 12.171875 48.375 
Q 18.84375 56 30.609375 56 
z
" id="DejaVuSans-111"/>
      <path d="M 8.5 21.578125 
L 8.5 54.6875 
L 17.484375 54.6875 
L 17.484375 21.921875 
Q 17.484375 14.15625 20.5 10.265625 
Q 23.53125 6.390625 29.59375 6.390625 
Q 36.859375 6.390625 41.078125 11.03125 
Q 45.3125 15.671875 45.3125 23.6875 
L 45.3125 54.6875 
L 54.296875 54.6875 
L 54.296875 0 
L 45.3125 0 
L 45.3125 8.40625 
Q 42.046875 3.421875 37.71875 1 
Q 33.40625 -1.421875 27.6875 -1.421875 
Q 18.265625 -1.421875 13.375 4.4375 
Q 8.5 10.296875 8.5 21.578125 
z
M 31.109375 56 
z
" id="DejaVuSans-117"/>
     </defs>
     <g transform="translate(298.07375 198.184564)scale(0.16 -0.16)">
      <use xlink:href="#DejaVuSans-73"/>
      <use x="29.492188" xlink:href="#DejaVuSans-110"/>
      <use x="92.871094" xlink:href="#DejaVuSans-99"/>
      <use x="147.851562" xlink:href="#DejaVuSans-105"/>
      <use x="175.634766" xlink:href="#DejaVuSans-100"/>
      <use x="239.111328" xlink:href="#DejaVuSans-101"/>
      <use x="300.634766" xlink:href="#DejaVuSans-110"/>
      <use x="364.013672" xlink:href="#DejaVuSans-116"/>
      <use x="403.222656" xlink:href="#DejaVuSans-32"/>
      <use x="435.009766" xlink:href="#DejaVuSans-67"/>
      <use x="504.833984" xlink:href="#DejaVuSans-111"/>
      <use x="566.015625" xlink:href="#DejaVuSans-117"/>
      <use x="629.394531" xlink:href="#DejaVuSans-110"/>
      <use x="692.773438" xlink:href="#DejaVuSans-116"/>
     </g>
    </g>
   </g>
   <g id="matplotlib.axis_2">
    <g id="ytick_1">
     <g id="line2d_6">
      <defs>
       <path d="M 0 0 
L -3.5 0 
" id="mfcfcda300c" style="stroke:#000000;stroke-width:0.8;"/>
      </defs>
      <g>
       <use style="stroke:#000000;stroke-width:0.8;" x="77.6325" xlink:href="#mfcfcda300c" y="270.346399"/>
      </g>
     </g>
     <g id="text_7">
      <!-- −200 -->
      <defs>
       <path d="M 10.59375 35.5 
L 73.1875 35.5 
L 73.1875 27.203125 
L 10.59375 27.203125 
z
" id="DejaVuSans-8722"/>
      </defs>
      <g transform="translate(26.685 276.425149)scale(0.16 -0.16)">
       <use xlink:href="#DejaVuSans-8722"/>
       <use x="83.789062" xlink:href="#DejaVuSans-50"/>
       <use x="147.412109" xlink:href="#DejaVuSans-48"/>
       <use x="211.035156" xlink:href="#DejaVuSans-48"/>
      </g>
     </g>
    </g>
    <g id="ytick_2">
     <g id="line2d_7">
      <g>
       <use style="stroke:#000000;stroke-width:0.8;" x="77.6325" xlink:href="#mfcfcda300c" y="215.082392"/>
      </g>
     </g>
     <g id="text_8">
      <!-- −100 -->
      <g transform="translate(26.685 221.161142)scale(0.16 -0.16)">
       <use xlink:href="#DejaVuSans-8722"/>
       <use x="83.789062" xlink:href="#DejaVuSans-49"/>
       <use x="147.412109" xlink:href="#DejaVuSans-48"/>
       <use x="211.035156" xlink:href="#DejaVuSans-48"/>
      </g>
     </g>
    </g>
    <g id="ytick_3">
     <g id="line2d_8">
      <g>
       <use style="stroke:#000000;stroke-width:0.8;" x="77.6325" xlink:href="#mfcfcda300c" y="159.818384"/>
      </g>
     </g>
     <g id="text_9">
      <!-- 0 -->
      <g transform="translate(60.4525 165.897134)scale(0.16 -0.16)">
       <use xlink:href="#DejaVuSans-48"/>
      </g>
     </g>
    </g>
    <g id="ytick_4">
     <g id="line2d_9">
      <g>
       <use style="stroke:#000000;stroke-width:0.8;" x="77.6325" xlink:href="#mfcfcda300c" y="104.554377"/>
      </g>
     </g>
     <g id="text_10">
      <!-- 100 -->
      <g transform="translate(40.0925 110.633127)scale(0.16 -0.16)">
       <use xlink:href="#DejaVuSans-49"/>
       <use x="63.623047" xlink:href="#DejaVuSans-48"/>
       <use x="127.246094" xlink:href="#DejaVuSans-48"/>
      </g>
     </g>
    </g>
    <g id="ytick_5">
     <g id="line2d_10">
      <g>
       <use style="stroke:#000000;stroke-width:0.8;" x="77.6325" xlink:href="#mfcfcda300c" y="49.29037"/>
      </g>
     </g>
     <g id="text_11">
      <!-- 200 -->
      <g transform="translate(40.0925 55.36912)scale(0.16 -0.16)">
       <use xlink:href="#DejaVuSans-50"/>
       <use x="63.623047" xlink:href="#DejaVuSans-48"/>
       <use x="127.246094" xlink:href="#DejaVuSans-48"/>
      </g>
     </g>
    </g>
    <g id="text_12">
     <!-- Residual (Actual-Predicted) -->
     <defs>
      <path d="M 44.390625 34.1875 
Q 47.5625 33.109375 50.5625 29.59375 
Q 53.5625 26.078125 56.59375 19.921875 
L 66.609375 0 
L 56 0 
L 46.6875 18.703125 
Q 43.0625 26.03125 39.671875 28.421875 
Q 36.28125 30.8125 30.421875 30.8125 
L 19.671875 30.8125 
L 19.671875 0 
L 9.8125 0 
L 9.8125 72.90625 
L 32.078125 72.90625 
Q 44.578125 72.90625 50.734375 67.671875 
Q 56.890625 62.453125 56.890625 51.90625 
Q 56.890625 45.015625 53.6875 40.46875 
Q 50.484375 35.9375 44.390625 34.1875 
z
M 19.671875 64.796875 
L 19.671875 38.921875 
L 32.078125 38.921875 
Q 39.203125 38.921875 42.84375 42.21875 
Q 46.484375 45.515625 46.484375 51.90625 
Q 46.484375 58.296875 42.84375 61.546875 
Q 39.203125 64.796875 32.078125 64.796875 
z
" id="DejaVuSans-82"/>
      <path d="M 44.28125 53.078125 
L 44.28125 44.578125 
Q 40.484375 46.53125 36.375 47.5 
Q 32.28125 48.484375 27.875 48.484375 
Q 21.1875 48.484375 17.84375 46.4375 
Q 14.5 44.390625 14.5 40.28125 
Q 14.5 37.15625 16.890625 35.375 
Q 19.28125 33.59375 26.515625 31.984375 
L 29.59375 31.296875 
Q 39.15625 29.25 43.1875 25.515625 
Q 47.21875 21.78125 47.21875 15.09375 
Q 47.21875 7.46875 41.1875 3.015625 
Q 35.15625 -1.421875 24.609375 -1.421875 
Q 20.21875 -1.421875 15.453125 -0.5625 
Q 10.6875 0.296875 5.421875 2 
L 5.421875 11.28125 
Q 10.40625 8.6875 15.234375 7.390625 
Q 20.0625 6.109375 24.8125 6.109375 
Q 31.15625 6.109375 34.5625 8.28125 
Q 37.984375 10.453125 37.984375 14.40625 
Q 37.984375 18.0625 35.515625 20.015625 
Q 33.0625 21.96875 24.703125 23.78125 
L 21.578125 24.515625 
Q 13.234375 26.265625 9.515625 29.90625 
Q 5.8125 33.546875 5.8125 39.890625 
Q 5.8125 47.609375 11.28125 51.796875 
Q 16.75 56 26.8125 56 
Q 31.78125 56 36.171875 55.265625 
Q 40.578125 54.546875 44.28125 53.078125 
z
" id="DejaVuSans-115"/>
      <path d="M 34.28125 27.484375 
Q 23.390625 27.484375 19.1875 25 
Q 14.984375 22.515625 14.984375 16.5 
Q 14.984375 11.71875 18.140625 8.90625 
Q 21.296875 6.109375 26.703125 6.109375 
Q 34.1875 6.109375 38.703125 11.40625 
Q 43.21875 16.703125 43.21875 25.484375 
L 43.21875 27.484375 
z
M 52.203125 31.203125 
L 52.203125 0 
L 43.21875 0 
L 43.21875 8.296875 
Q 40.140625 3.328125 35.546875 0.953125 
Q 30.953125 -1.421875 24.3125 -1.421875 
Q 15.921875 -1.421875 10.953125 3.296875 
Q 6 8.015625 6 15.921875 
Q 6 25.140625 12.171875 29.828125 
Q 18.359375 34.515625 30.609375 34.515625 
L 43.21875 34.515625 
L 43.21875 35.40625 
Q 43.21875 41.609375 39.140625 45 
Q 35.0625 48.390625 27.6875 48.390625 
Q 23 48.390625 18.546875 47.265625 
Q 14.109375 46.140625 10.015625 43.890625 
L 10.015625 52.203125 
Q 14.9375 54.109375 19.578125 55.046875 
Q 24.21875 56 28.609375 56 
Q 40.484375 56 46.34375 49.84375 
Q 52.203125 43.703125 52.203125 31.203125 
z
" id="DejaVuSans-97"/>
      <path d="M 9.421875 75.984375 
L 18.40625 75.984375 
L 18.40625 0 
L 9.421875 0 
z
" id="DejaVuSans-108"/>
      <path d="M 31 75.875 
Q 24.46875 64.65625 21.28125 53.65625 
Q 18.109375 42.671875 18.109375 31.390625 
Q 18.109375 20.125 21.3125 9.0625 
Q 24.515625 -2 31 -13.1875 
L 23.1875 -13.1875 
Q 15.875 -1.703125 12.234375 9.375 
Q 8.59375 20.453125 8.59375 31.390625 
Q 8.59375 42.28125 12.203125 53.3125 
Q 15.828125 64.359375 23.1875 75.875 
z
" id="DejaVuSans-40"/>
      <path d="M 34.1875 63.1875 
L 20.796875 26.90625 
L 47.609375 26.90625 
z
M 28.609375 72.90625 
L 39.796875 72.90625 
L 67.578125 0 
L 57.328125 0 
L 50.6875 18.703125 
L 17.828125 18.703125 
L 11.1875 0 
L 0.78125 0 
z
" id="DejaVuSans-65"/>
      <path d="M 4.890625 31.390625 
L 31.203125 31.390625 
L 31.203125 23.390625 
L 4.890625 23.390625 
z
" id="DejaVuSans-45"/>
      <path d="M 19.671875 64.796875 
L 19.671875 37.40625 
L 32.078125 37.40625 
Q 38.96875 37.40625 42.71875 40.96875 
Q 46.484375 44.53125 46.484375 51.125 
Q 46.484375 57.671875 42.71875 61.234375 
Q 38.96875 64.796875 32.078125 64.796875 
z
M 9.8125 72.90625 
L 32.078125 72.90625 
Q 44.34375 72.90625 50.609375 67.359375 
Q 56.890625 61.8125 56.890625 51.125 
Q 56.890625 40.328125 50.609375 34.8125 
Q 44.34375 29.296875 32.078125 29.296875 
L 19.671875 29.296875 
L 19.671875 0 
L 9.8125 0 
z
" id="DejaVuSans-80"/>
      <path d="M 41.109375 46.296875 
Q 39.59375 47.171875 37.8125 47.578125 
Q 36.03125 48 33.890625 48 
Q 26.265625 48 22.1875 43.046875 
Q 18.109375 38.09375 18.109375 28.8125 
L 18.109375 0 
L 9.078125 0 
L 9.078125 54.6875 
L 18.109375 54.6875 
L 18.109375 46.1875 
Q 20.953125 51.171875 25.484375 53.578125 
Q 30.03125 56 36.53125 56 
Q 37.453125 56 38.578125 55.875 
Q 39.703125 55.765625 41.0625 55.515625 
z
" id="DejaVuSans-114"/>
      <path d="M 8.015625 75.875 
L 15.828125 75.875 
Q 23.140625 64.359375 26.78125 53.3125 
Q 30.421875 42.28125 30.421875 31.390625 
Q 30.421875 20.453125 26.78125 9.375 
Q 23.140625 -1.703125 15.828125 -13.1875 
L 8.015625 -13.1875 
Q 14.5 -2 17.703125 9.0625 
Q 20.90625 20.125 20.90625 31.390625 
Q 20.90625 42.671875 17.703125 53.65625 
Q 14.5 64.65625 8.015625 75.875 
z
" id="DejaVuSans-41"/>
     </defs>
     <g transform="translate(19.3575 271.76025)rotate(-90)scale(0.16 -0.16)">
      <use xlink:href="#DejaVuSans-82"/>
      <use x="64.982422" xlink:href="#DejaVuSans-101"/>
      <use x="126.505859" xlink:href="#DejaVuSans-115"/>
      <use x="178.605469" xlink:href="#DejaVuSans-105"/>
      <use x="206.388672" xlink:href="#DejaVuSans-100"/>
      <use x="269.865234" xlink:href="#DejaVuSans-117"/>
      <use x="333.244141" xlink:href="#DejaVuSans-97"/>
      <use x="394.523438" xlink:href="#DejaVuSans-108"/>
      <use x="422.306641" xlink:href="#DejaVuSans-32"/>
      <use x="454.09375" xlink:href="#DejaVuSans-40"/>
      <use x="493.107422" xlink:href="#DejaVuSans-65"/>
      <use x="559.765625" xlink:href="#DejaVuSans-99"/>
      <use x="614.746094" xlink:href="#DejaVuSans-116"/>
      <use x="653.955078" xlink:href="#DejaVuSans-117"/>
      <use x="717.333984" xlink:href="#DejaVuSans-97"/>
      <use x="778.613281" xlink:href="#DejaVuSans-108"/>
      <use x="806.396484" xlink:href="#DejaVuSans-45"/>
      <use x="842.480469" xlink:href="#DejaVuSans-80"/>
      <use x="901.033203" xlink:href="#DejaVuSans-114"/>
      <use x="939.896484" xlink:href="#DejaVuSans-101"/>
      <use x="1001.419922" xlink:href="#DejaVuSans-100"/>
      <use x="1064.896484" xlink:href="#DejaVuSans-105"/>
      <use x="1092.679688" xlink:href="#DejaVuSans-99"/>
      <use x="1147.660156" xlink:href="#DejaVuSans-116"/>
      <use x="1186.869141" xlink:href="#DejaVuSans-101"/>
      <use x="1248.392578" xlink:href="#DejaVuSans-100"/>
      <use x="1311.869141" xlink:href="#DejaVuSans-41"/>
     </g>
    </g>
   </g>
   <g id="patch_3">
    <path d="M 77.6325 299.589 
L 77.6325 27.789 
" style="fill:none;stroke:#000000;stroke-linecap:square;stroke-linejoin:miter;stroke-width:0.8;"/>
   </g>
   <g id="patch_4">
    <path d="M 77.6325 159.542064 
L 635.6325 159.542064 
" style="fill:none;stroke:#000000;stroke-linecap:square;stroke-linejoin:miter;stroke-width:0.8;"/>
   </g>
   <g id="text_13">
    <!-- Linear Regression Residual Plot -->
    <defs>
     <path d="M 9.8125 72.90625 
L 19.671875 72.90625 
L 19.671875 8.296875 
L 55.171875 8.296875 
L 55.171875 0 
L 9.8125 0 
z
" id="DejaVuSans-76"/>
     <path d="M 45.40625 27.984375 
Q 45.40625 37.75 41.375 43.109375 
Q 37.359375 48.484375 30.078125 48.484375 
Q 22.859375 48.484375 18.828125 43.109375 
Q 14.796875 37.75 14.796875 27.984375 
Q 14.796875 18.265625 18.828125 12.890625 
Q 22.859375 7.515625 30.078125 7.515625 
Q 37.359375 7.515625 41.375 12.890625 
Q 45.40625 18.265625 45.40625 27.984375 
z
M 54.390625 6.78125 
Q 54.390625 -7.171875 48.1875 -13.984375 
Q 42 -20.796875 29.203125 -20.796875 
Q 24.46875 -20.796875 20.265625 -20.09375 
Q 16.0625 -19.390625 12.109375 -17.921875 
L 12.109375 -9.1875 
Q 16.0625 -11.328125 19.921875 -12.34375 
Q 23.78125 -13.375 27.78125 -13.375 
Q 36.625 -13.375 41.015625 -8.765625 
Q 45.40625 -4.15625 45.40625 5.171875 
L 45.40625 9.625 
Q 42.625 4.78125 38.28125 2.390625 
Q 33.9375 0 27.875 0 
Q 17.828125 0 11.671875 7.65625 
Q 5.515625 15.328125 5.515625 27.984375 
Q 5.515625 40.671875 11.671875 48.328125 
Q 17.828125 56 27.875 56 
Q 33.9375 56 38.28125 53.609375 
Q 42.625 51.21875 45.40625 46.390625 
L 45.40625 54.6875 
L 54.390625 54.6875 
z
" id="DejaVuSans-103"/>
    </defs>
    <g transform="translate(206.5035 21.789)scale(0.192 -0.192)">
     <use xlink:href="#DejaVuSans-76"/>
     <use x="55.712891" xlink:href="#DejaVuSans-105"/>
     <use x="83.496094" xlink:href="#DejaVuSans-110"/>
     <use x="146.875" xlink:href="#DejaVuSans-101"/>
     <use x="208.398438" xlink:href="#DejaVuSans-97"/>
     <use x="269.677734" xlink:href="#DejaVuSans-114"/>
     <use x="310.791016" xlink:href="#DejaVuSans-32"/>
     <use x="342.578125" xlink:href="#DejaVuSans-82"/>
     <use x="407.560547" xlink:href="#DejaVuSans-101"/>
     <use x="469.083984" xlink:href="#DejaVuSans-103"/>
     <use x="532.560547" xlink:href="#DejaVuSans-114"/>
     <use x="571.423828" xlink:href="#DejaVuSans-101"/>
     <use x="632.947266" xlink:href="#DejaVuSans-115"/>
     <use x="685.046875" xlink:href="#DejaVuSans-115"/>
     <use x="737.146484" xlink:href="#DejaVuSans-105"/>
     <use x="764.929688" xlink:href="#DejaVuSans-111"/>
     <use x="826.111328" xlink:href="#DejaVuSans-110"/>
     <use x="889.490234" xlink:href="#DejaVuSans-32"/>
     <use x="921.277344" xlink:href="#DejaVuSans-82"/>
     <use x="986.259766" xlink:href="#DejaVuSans-101"/>
     <use x="1047.783203" xlink:href="#DejaVuSans-115"/>
     <use x="1099.882812" xlink:href="#DejaVuSans-105"/>
     <use x="1127.666016" xlink:href="#DejaVuSans-100"/>
     <use x="1191.142578" xlink:href="#DejaVuSans-117"/>
     <use x="1254.521484" xlink:href="#DejaVuSans-97"/>
     <use x="1315.800781" xlink:href="#DejaVuSans-108"/>
     <use x="1343.583984" xlink:href="#DejaVuSans-32"/>
     <use x="1375.371094" xlink:href="#DejaVuSans-80"/>
     <use x="1435.673828" xlink:href="#DejaVuSans-108"/>
     <use x="1463.457031" xlink:href="#DejaVuSans-111"/>
     <use x="1524.638672" xlink:href="#DejaVuSans-116"/>
    </g>
   </g>
  </g>
 </g>
 <defs>
  <clipPath id="p7aa327625a">
   <rect height="271.8" width="558" x="77.6325" y="27.789"/>
  </clipPath>
 </defs>
</svg>
