<?xml version="1.0" encoding="utf-8" standalone="no"?>
<!DOCTYPE svg PUBLIC "-//W3C//DTD SVG 1.1//EN"
  "http://www.w3.org/Graphics/SVG/1.1/DTD/svg11.dtd">
<!-- Created with matplotlib (https://matplotlib.org/) -->
<svg height="511.839pt" version="1.1" viewBox="0 0 935.667205 511.839" width="935.667205pt" xmlns="http://www.w3.org/2000/svg" xmlns:xlink="http://www.w3.org/1999/xlink">
 <defs>
  <style type="text/css">
*{stroke-linecap:butt;stroke-linejoin:round;}
  </style>
 </defs>
 <g id="figure_1">
  <g id="patch_1">
   <path d="M 0 511.839 
L 935.667205 511.839 
L 935.667205 0 
L 0 0 
z
" style="fill:#ffffff;"/>
  </g>
  <g id="axes_1">
   <g id="patch_2">
    <path d="M 64.225 462.669 
L 733.825 462.669 
L 733.825 27.789 
L 64.225 27.789 
z
" style="fill:#ffffff;"/>
   </g>
   <g id="PathCollection_1">
    <defs>
     <path d="M 0 2.236068 
C 0.593012 2.236068 1.161816 2.000462 1.581139 1.581139 
C 2.000462 1.161816 2.236068 0.593012 2.236068 0 
C 2.236068 -0.593012 2.000462 -1.161816 1.581139 -1.581139 
C 1.161816 -2.000462 0.593012 -2.236068 0 -2.236068 
C -0.593012 -2.236068 -1.161816 -2.000462 -1.581139 -1.581139 
C -2.000462 -1.161816 -2.236068 -0.593012 -2.236068 0 
C -2.236068 0.593012 -2.000462 1.161816 -1.581139 1.581139 
C -1.161816 2.000462 -0.593012 2.236068 0 2.236068 
z
" id="m82dc507d79" style="stroke:#808080;"/>
    </defs>
    <g clip-path="url(#p9eff4a5e2d)">
     <use style="fill:#808080;stroke:#808080;" x="122.330785" xlink:href="#m82dc507d79" y="387.86964"/>
     <use style="fill:#808080;stroke:#808080;" x="122.330785" xlink:href="#m82dc507d79" y="447.88308"/>
     <use style="fill:#808080;stroke:#808080;" x="122.330785" xlink:href="#m82dc507d79" y="443.53428"/>
     <use style="fill:#808080;stroke:#808080;" x="201.386275" xlink:href="#m82dc507d79" y="424.39956"/>
     <use style="fill:#808080;stroke:#808080;" x="122.330785" xlink:href="#m82dc507d79" y="437.44596"/>
     <use style="fill:#808080;stroke:#808080;" x="201.386275" xlink:href="#m82dc507d79" y="433.09716"/>
     <use style="fill:#808080;stroke:#808080;" x="122.330785" xlink:href="#m82dc507d79" y="425.26932"/>
     <use style="fill:#808080;stroke:#808080;" x="161.85853" xlink:href="#m82dc507d79" y="271.3218"/>
     <use style="fill:#808080;stroke:#808080;" x="201.386275" xlink:href="#m82dc507d79" y="385.26036"/>
     <use style="fill:#808080;stroke:#808080;" x="122.330785" xlink:href="#m82dc507d79" y="334.81428"/>
     <use style="fill:#808080;stroke:#808080;" x="240.91402" xlink:href="#m82dc507d79" y="271.3218"/>
     <use style="fill:#808080;stroke:#808080;" x="161.85853" xlink:href="#m82dc507d79" y="389.60916"/>
     <use style="fill:#808080;stroke:#808080;" x="122.330785" xlink:href="#m82dc507d79" y="453.10164"/>
     <use style="fill:#808080;stroke:#808080;" x="122.330785" xlink:href="#m82dc507d79" y="422.66004"/>
     <use style="fill:#808080;stroke:#808080;" x="161.85853" xlink:href="#m82dc507d79" y="407.87412"/>
     <use style="fill:#808080;stroke:#808080;" x="161.85853" xlink:href="#m82dc507d79" y="337.42356"/>
     <use style="fill:#808080;stroke:#808080;" x="319.96951" xlink:href="#m82dc507d79" y="348.73044"/>
     <use style="fill:#808080;stroke:#808080;" x="161.85853" xlink:href="#m82dc507d79" y="449.6226"/>
     <use style="fill:#808080;stroke:#808080;" x="122.330785" xlink:href="#m82dc507d79" y="446.14356"/>
     <use style="fill:#808080;stroke:#808080;" x="280.441765" xlink:href="#m82dc507d79" y="437.44596"/>
     <use style="fill:#808080;stroke:#808080;" x="240.91402" xlink:href="#m82dc507d79" y="416.57172"/>
     <use style="fill:#808080;stroke:#808080;" x="122.330785" xlink:href="#m82dc507d79" y="379.17204"/>
     <use style="fill:#808080;stroke:#808080;" x="122.330785" xlink:href="#m82dc507d79" y="409.61364"/>
     <use style="fill:#808080;stroke:#808080;" x="201.386275" xlink:href="#m82dc507d79" y="440.05524"/>
     <use style="fill:#808080;stroke:#808080;" x="161.85853" xlink:href="#m82dc507d79" y="378.30228"/>
     <use style="fill:#808080;stroke:#808080;" x="319.96951" xlink:href="#m82dc507d79" y="334.81428"/>
     <use style="fill:#808080;stroke:#808080;" x="201.386275" xlink:href="#m82dc507d79" y="356.55828"/>
     <use style="fill:#808080;stroke:#808080;" x="122.330785" xlink:href="#m82dc507d79" y="430.48788"/>
     <use style="fill:#808080;stroke:#808080;" x="161.85853" xlink:href="#m82dc507d79" y="296.54484"/>
     <use style="fill:#808080;stroke:#808080;" x="280.441765" xlink:href="#m82dc507d79" y="299.15412"/>
     <use style="fill:#808080;stroke:#808080;" x="122.330785" xlink:href="#m82dc507d79" y="340.03284"/>
     <use style="fill:#808080;stroke:#808080;" x="201.386275" xlink:href="#m82dc507d79" y="420.92052"/>
     <use style="fill:#808080;stroke:#808080;" x="122.330785" xlink:href="#m82dc507d79" y="373.95348"/>
     <use style="fill:#808080;stroke:#808080;" x="280.441765" xlink:href="#m82dc507d79" y="286.97748"/>
     <use style="fill:#808080;stroke:#808080;" x="359.497255" xlink:href="#m82dc507d79" y="358.2978"/>
     <use style="fill:#808080;stroke:#808080;" x="122.330785" xlink:href="#m82dc507d79" y="427.00884"/>
     <use style="fill:#808080;stroke:#808080;" x="161.85853" xlink:href="#m82dc507d79" y="427.8786"/>
     <use style="fill:#808080;stroke:#808080;" x="122.330785" xlink:href="#m82dc507d79" y="446.14356"/>
     <use style="fill:#808080;stroke:#808080;" x="161.85853" xlink:href="#m82dc507d79" y="340.9026"/>
     <use style="fill:#808080;stroke:#808080;" x="122.330785" xlink:href="#m82dc507d79" y="386.13012"/>
     <use style="fill:#808080;stroke:#808080;" x="122.330785" xlink:href="#m82dc507d79" y="389.60916"/>
     <use style="fill:#808080;stroke:#808080;" x="201.386275" xlink:href="#m82dc507d79" y="362.6466"/>
     <use style="fill:#808080;stroke:#808080;" x="240.91402" xlink:href="#m82dc507d79" y="336.5538"/>
     <use style="fill:#808080;stroke:#808080;" x="478.08049" xlink:href="#m82dc507d79" y="324.37716"/>
     <use style="fill:#808080;stroke:#808080;" x="319.96951" xlink:href="#m82dc507d79" y="336.5538"/>
     <use style="fill:#808080;stroke:#808080;" x="161.85853" xlink:href="#m82dc507d79" y="407.87412"/>
     <use style="fill:#808080;stroke:#808080;" x="557.13598" xlink:href="#m82dc507d79" y="188.6946"/>
     <use style="fill:#808080;stroke:#808080;" x="478.08049" xlink:href="#m82dc507d79" y="144.33684"/>
     <use style="fill:#808080;stroke:#808080;" x="517.608235" xlink:href="#m82dc507d79" y="239.14068"/>
     <use style="fill:#808080;stroke:#808080;" x="240.91402" xlink:href="#m82dc507d79" y="290.45652"/>
     <use style="fill:#808080;stroke:#808080;" x="122.330785" xlink:href="#m82dc507d79" y="271.3218"/>
     <use style="fill:#808080;stroke:#808080;" x="122.330785" xlink:href="#m82dc507d79" y="360.03732"/>
     <use style="fill:#808080;stroke:#808080;" x="201.386275" xlink:href="#m82dc507d79" y="357.42804"/>
     <use style="fill:#808080;stroke:#808080;" x="201.386275" xlink:href="#m82dc507d79" y="436.5762"/>
     <use style="fill:#808080;stroke:#808080;" x="122.330785" xlink:href="#m82dc507d79" y="413.96244"/>
     <use style="fill:#808080;stroke:#808080;" x="161.85853" xlink:href="#m82dc507d79" y="349.6002"/>
     <use style="fill:#808080;stroke:#808080;" x="319.96951" xlink:href="#m82dc507d79" y="384.3906"/>
     <use style="fill:#808080;stroke:#808080;" x="240.91402" xlink:href="#m82dc507d79" y="381.78132"/>
     <use style="fill:#808080;stroke:#808080;" x="161.85853" xlink:href="#m82dc507d79" y="366.9954"/>
     <use style="fill:#808080;stroke:#808080;" x="161.85853" xlink:href="#m82dc507d79" y="407.87412"/>
     <use style="fill:#808080;stroke:#808080;" x="201.386275" xlink:href="#m82dc507d79" y="358.2978"/>
     <use style="fill:#808080;stroke:#808080;" x="161.85853" xlink:href="#m82dc507d79" y="427.00884"/>
     <use style="fill:#808080;stroke:#808080;" x="161.85853" xlink:href="#m82dc507d79" y="436.5762"/>
     <use style="fill:#808080;stroke:#808080;" x="319.96951" xlink:href="#m82dc507d79" y="319.1586"/>
     <use style="fill:#808080;stroke:#808080;" x="438.552745" xlink:href="#m82dc507d79" y="320.89812"/>
     <use style="fill:#808080;stroke:#808080;" x="280.441765" xlink:href="#m82dc507d79" y="411.35316"/>
     <use style="fill:#808080;stroke:#808080;" x="359.497255" xlink:href="#m82dc507d79" y="314.8098"/>
     <use style="fill:#808080;stroke:#808080;" x="557.13598" xlink:href="#m82dc507d79" y="271.3218"/>
     <use style="fill:#808080;stroke:#808080;" x="438.552745" xlink:href="#m82dc507d79" y="289.58676"/>
     <use style="fill:#808080;stroke:#808080;" x="359.497255" xlink:href="#m82dc507d79" y="268.71252"/>
     <use style="fill:#808080;stroke:#808080;" x="161.85853" xlink:href="#m82dc507d79" y="316.54932"/>
     <use style="fill:#808080;stroke:#808080;" x="478.08049" xlink:href="#m82dc507d79" y="348.73044"/>
     <use style="fill:#808080;stroke:#808080;" x="359.497255" xlink:href="#m82dc507d79" y="339.16308"/>
     <use style="fill:#808080;stroke:#808080;" x="240.91402" xlink:href="#m82dc507d79" y="376.56276"/>
     <use style="fill:#808080;stroke:#808080;" x="122.330785" xlink:href="#m82dc507d79" y="389.60916"/>
     <use style="fill:#808080;stroke:#808080;" x="122.330785" xlink:href="#m82dc507d79" y="429.61812"/>
     <use style="fill:#808080;stroke:#808080;" x="319.96951" xlink:href="#m82dc507d79" y="316.54932"/>
     <use style="fill:#808080;stroke:#808080;" x="319.96951" xlink:href="#m82dc507d79" y="201.741"/>
     <use style="fill:#808080;stroke:#808080;" x="240.91402" xlink:href="#m82dc507d79" y="99.97908"/>
     <use style="fill:#808080;stroke:#808080;" x="280.441765" xlink:href="#m82dc507d79" y="234.79188"/>
     <use style="fill:#808080;stroke:#808080;" x="319.96951" xlink:href="#m82dc507d79" y="228.70356"/>
     <use style="fill:#808080;stroke:#808080;" x="478.08049" xlink:href="#m82dc507d79" y="148.68564"/>
     <use style="fill:#808080;stroke:#808080;" x="675.719215" xlink:href="#m82dc507d79" y="101.7186"/>
     <use style="fill:#808080;stroke:#808080;" x="478.08049" xlink:href="#m82dc507d79" y="189.56436"/>
     <use style="fill:#808080;stroke:#808080;" x="438.552745" xlink:href="#m82dc507d79" y="390.47892"/>
     <use style="fill:#808080;stroke:#808080;" x="122.330785" xlink:href="#m82dc507d79" y="319.1586"/>
     <use style="fill:#808080;stroke:#808080;" x="240.91402" xlink:href="#m82dc507d79" y="340.9026"/>
     <use style="fill:#808080;stroke:#808080;" x="438.552745" xlink:href="#m82dc507d79" y="262.6242"/>
     <use style="fill:#808080;stroke:#808080;" x="675.719215" xlink:href="#m82dc507d79" y="207.82932"/>
     <use style="fill:#808080;stroke:#808080;" x="359.497255" xlink:href="#m82dc507d79" y="313.07028"/>
     <use style="fill:#808080;stroke:#808080;" x="201.386275" xlink:href="#m82dc507d79" y="390.47892"/>
     <use style="fill:#808080;stroke:#808080;" x="201.386275" xlink:href="#m82dc507d79" y="382.65108"/>
     <use style="fill:#808080;stroke:#808080;" x="240.91402" xlink:href="#m82dc507d79" y="425.26932"/>
     <use style="fill:#808080;stroke:#808080;" x="240.91402" xlink:href="#m82dc507d79" y="420.05076"/>
     <use style="fill:#808080;stroke:#808080;" x="122.330785" xlink:href="#m82dc507d79" y="436.5762"/>
     <use style="fill:#808080;stroke:#808080;" x="122.330785" xlink:href="#m82dc507d79" y="416.57172"/>
     <use style="fill:#808080;stroke:#808080;" x="201.386275" xlink:href="#m82dc507d79" y="327.8562"/>
     <use style="fill:#808080;stroke:#808080;" x="240.91402" xlink:href="#m82dc507d79" y="277.41012"/>
     <use style="fill:#808080;stroke:#808080;" x="240.91402" xlink:href="#m82dc507d79" y="-1"/>
     <use style="fill:#808080;stroke:#808080;" x="192.847252" xlink:href="#m82dc507d79" y="-1"/>
     <use style="fill:#808080;stroke:#808080;" x="399.025" xlink:href="#m82dc507d79" y="286.10772"/>
     <use style="fill:#808080;stroke:#808080;" x="359.497255" xlink:href="#m82dc507d79" y="253.9266"/>
     <use style="fill:#808080;stroke:#808080;" x="122.330785" xlink:href="#m82dc507d79" y="324.37716"/>
     <use style="fill:#808080;stroke:#808080;" x="201.386275" xlink:href="#m82dc507d79" y="304.37268"/>
     <use style="fill:#808080;stroke:#808080;" x="122.330785" xlink:href="#m82dc507d79" y="438.31572"/>
     <use style="fill:#808080;stroke:#808080;" x="201.386275" xlink:href="#m82dc507d79" y="246.96852"/>
     <use style="fill:#808080;stroke:#808080;" x="359.497255" xlink:href="#m82dc507d79" y="407.87412"/>
     <use style="fill:#808080;stroke:#808080;" x="517.608235" xlink:href="#m82dc507d79" y="242.61972"/>
     <use style="fill:#808080;stroke:#808080;" x="201.386275" xlink:href="#m82dc507d79" y="407.87412"/>
     <use style="fill:#808080;stroke:#808080;" x="161.85853" xlink:href="#m82dc507d79" y="279.14964"/>
     <use style="fill:#808080;stroke:#808080;" x="122.330785" xlink:href="#m82dc507d79" y="307.85172"/>
     <use style="fill:#808080;stroke:#808080;" x="161.85853" xlink:href="#m82dc507d79" y="276.54036"/>
     <use style="fill:#808080;stroke:#808080;" x="161.85853" xlink:href="#m82dc507d79" y="206.0898"/>
     <use style="fill:#808080;stroke:#808080;" x="161.85853" xlink:href="#m82dc507d79" y="386.13012"/>
     <use style="fill:#808080;stroke:#808080;" x="122.330785" xlink:href="#m82dc507d79" y="403.52532"/>
     <use style="fill:#808080;stroke:#808080;" x="161.85853" xlink:href="#m82dc507d79" y="383.52084"/>
     <use style="fill:#808080;stroke:#808080;" x="319.96951" xlink:href="#m82dc507d79" y="373.08372"/>
     <use style="fill:#808080;stroke:#808080;" x="240.91402" xlink:href="#m82dc507d79" y="395.69748"/>
     <use style="fill:#808080;stroke:#808080;" x="240.91402" xlink:href="#m82dc507d79" y="335.68404"/>
     <use style="fill:#808080;stroke:#808080;" x="201.386275" xlink:href="#m82dc507d79" y="300.02388"/>
     <use style="fill:#808080;stroke:#808080;" x="240.91402" xlink:href="#m82dc507d79" y="286.97748"/>
     <use style="fill:#808080;stroke:#808080;" x="161.85853" xlink:href="#m82dc507d79" y="370.47444"/>
     <use style="fill:#808080;stroke:#808080;" x="122.330785" xlink:href="#m82dc507d79" y="235.66164"/>
     <use style="fill:#808080;stroke:#808080;" x="122.330785" xlink:href="#m82dc507d79" y="94.76052"/>
     <use style="fill:#808080;stroke:#808080;" x="122.330785" xlink:href="#m82dc507d79" y="107.80692"/>
     <use style="fill:#808080;stroke:#808080;" x="122.330785" xlink:href="#m82dc507d79" y="445.2738"/>
     <use style="fill:#808080;stroke:#808080;" x="122.330785" xlink:href="#m82dc507d79" y="455.71092"/>
     <use style="fill:#808080;stroke:#808080;" x="161.85853" xlink:href="#m82dc507d79" y="431.35764"/>
     <use style="fill:#808080;stroke:#808080;" x="122.330785" xlink:href="#m82dc507d79" y="433.96692"/>
     <use style="fill:#808080;stroke:#808080;" x="122.330785" xlink:href="#m82dc507d79" y="403.52532"/>
     <use style="fill:#808080;stroke:#808080;" x="122.330785" xlink:href="#m82dc507d79" y="413.09268"/>
     <use style="fill:#808080;stroke:#808080;" x="201.386275" xlink:href="#m82dc507d79" y="403.52532"/>
     <use style="fill:#808080;stroke:#808080;" x="122.330785" xlink:href="#m82dc507d79" y="373.95348"/>
     <use style="fill:#808080;stroke:#808080;" x="161.85853" xlink:href="#m82dc507d79" y="364.38612"/>
     <use style="fill:#808080;stroke:#808080;" x="201.386275" xlink:href="#m82dc507d79" y="393.95796"/>
     <use style="fill:#808080;stroke:#808080;" x="161.85853" xlink:href="#m82dc507d79" y="279.14964"/>
     <use style="fill:#808080;stroke:#808080;" x="122.330785" xlink:href="#m82dc507d79" y="331.33524"/>
     <use style="fill:#808080;stroke:#808080;" x="161.85853" xlink:href="#m82dc507d79" y="401.7858"/>
     <use style="fill:#808080;stroke:#808080;" x="438.552745" xlink:href="#m82dc507d79" y="378.30228"/>
     <use style="fill:#808080;stroke:#808080;" x="122.330785" xlink:href="#m82dc507d79" y="413.09268"/>
     <use style="fill:#808080;stroke:#808080;" x="122.330785" xlink:href="#m82dc507d79" y="357.42804"/>
     <use style="fill:#808080;stroke:#808080;" x="161.85853" xlink:href="#m82dc507d79" y="103.45812"/>
     <use style="fill:#808080;stroke:#808080;" x="122.330785" xlink:href="#m82dc507d79" y="359.16756"/>
     <use style="fill:#808080;stroke:#808080;" x="201.386275" xlink:href="#m82dc507d79" y="437.44596"/>
     <use style="fill:#808080;stroke:#808080;" x="201.386275" xlink:href="#m82dc507d79" y="400.91604"/>
     <use style="fill:#808080;stroke:#808080;" x="122.330785" xlink:href="#m82dc507d79" y="338.29332"/>
     <use style="fill:#808080;stroke:#808080;" x="201.386275" xlink:href="#m82dc507d79" y="377.43252"/>
     <use style="fill:#808080;stroke:#808080;" x="122.330785" xlink:href="#m82dc507d79" y="379.17204"/>
     <use style="fill:#808080;stroke:#808080;" x="161.85853" xlink:href="#m82dc507d79" y="440.05524"/>
     <use style="fill:#808080;stroke:#808080;" x="122.330785" xlink:href="#m82dc507d79" y="460.92948"/>
     <use style="fill:#808080;stroke:#808080;" x="161.85853" xlink:href="#m82dc507d79" y="409.61364"/>
     <use style="fill:#808080;stroke:#808080;" x="122.330785" xlink:href="#m82dc507d79" y="425.26932"/>
     <use style="fill:#808080;stroke:#808080;" x="161.85853" xlink:href="#m82dc507d79" y="420.92052"/>
     <use style="fill:#808080;stroke:#808080;" x="161.85853" xlink:href="#m82dc507d79" y="438.31572"/>
     <use style="fill:#808080;stroke:#808080;" x="280.441765" xlink:href="#m82dc507d79" y="400.04628"/>
     <use style="fill:#808080;stroke:#808080;" x="122.330785" xlink:href="#m82dc507d79" y="404.39508"/>
     <use style="fill:#808080;stroke:#808080;" x="122.330785" xlink:href="#m82dc507d79" y="459.18996"/>
     <use style="fill:#808080;stroke:#808080;" x="122.330785" xlink:href="#m82dc507d79" y="419.181"/>
     <use style="fill:#808080;stroke:#808080;" x="122.330785" xlink:href="#m82dc507d79" y="409.61364"/>
     <use style="fill:#808080;stroke:#808080;" x="122.330785" xlink:href="#m82dc507d79" y="427.00884"/>
     <use style="fill:#808080;stroke:#808080;" x="161.85853" xlink:href="#m82dc507d79" y="408.74388"/>
     <use style="fill:#808080;stroke:#808080;" x="161.85853" xlink:href="#m82dc507d79" y="414.8322"/>
     <use style="fill:#808080;stroke:#808080;" x="122.330785" xlink:href="#m82dc507d79" y="428.74836"/>
     <use style="fill:#808080;stroke:#808080;" x="201.386275" xlink:href="#m82dc507d79" y="415.70196"/>
     <use style="fill:#808080;stroke:#808080;" x="201.386275" xlink:href="#m82dc507d79" y="384.3906"/>
     <use style="fill:#808080;stroke:#808080;" x="122.330785" xlink:href="#m82dc507d79" y="453.10164"/>
     <use style="fill:#808080;stroke:#808080;" x="280.441765" xlink:href="#m82dc507d79" y="368.73492"/>
     <use style="fill:#808080;stroke:#808080;" x="201.386275" xlink:href="#m82dc507d79" y="247.83828"/>
     <use style="fill:#808080;stroke:#808080;" x="201.386275" xlink:href="#m82dc507d79" y="313.07028"/>
     <use style="fill:#808080;stroke:#808080;" x="161.85853" xlink:href="#m82dc507d79" y="447.88308"/>
     <use style="fill:#808080;stroke:#808080;" x="122.330785" xlink:href="#m82dc507d79" y="462.669"/>
     <use style="fill:#808080;stroke:#808080;" x="201.386275" xlink:href="#m82dc507d79" y="454.84116"/>
     <use style="fill:#808080;stroke:#808080;" x="161.85853" xlink:href="#m82dc507d79" y="358.2978"/>
     <use style="fill:#808080;stroke:#808080;" x="122.330785" xlink:href="#m82dc507d79" y="316.54932"/>
     <use style="fill:#808080;stroke:#808080;" x="161.85853" xlink:href="#m82dc507d79" y="425.26932"/>
     <use style="fill:#808080;stroke:#808080;" x="122.330785" xlink:href="#m82dc507d79" y="453.10164"/>
     <use style="fill:#808080;stroke:#808080;" x="161.85853" xlink:href="#m82dc507d79" y="448.75284"/>
     <use style="fill:#808080;stroke:#808080;" x="240.91402" xlink:href="#m82dc507d79" y="391.34868"/>
     <use style="fill:#808080;stroke:#808080;" x="122.330785" xlink:href="#m82dc507d79" y="458.3202"/>
     <use style="fill:#808080;stroke:#808080;" x="161.85853" xlink:href="#m82dc507d79" y="423.5298"/>
     <use style="fill:#808080;stroke:#808080;" x="240.91402" xlink:href="#m82dc507d79" y="395.69748"/>
     <use style="fill:#808080;stroke:#808080;" x="122.330785" xlink:href="#m82dc507d79" y="387.86964"/>
     <use style="fill:#808080;stroke:#808080;" x="280.441765" xlink:href="#m82dc507d79" y="386.13012"/>
     <use style="fill:#808080;stroke:#808080;" x="240.91402" xlink:href="#m82dc507d79" y="418.31124"/>
     <use style="fill:#808080;stroke:#808080;" x="201.386275" xlink:href="#m82dc507d79" y="448.75284"/>
     <use style="fill:#808080;stroke:#808080;" x="201.386275" xlink:href="#m82dc507d79" y="421.79028"/>
     <use style="fill:#808080;stroke:#808080;" x="122.330785" xlink:href="#m82dc507d79" y="454.84116"/>
     <use style="fill:#808080;stroke:#808080;" x="122.330785" xlink:href="#m82dc507d79" y="438.31572"/>
     <use style="fill:#808080;stroke:#808080;" x="122.330785" xlink:href="#m82dc507d79" y="353.949"/>
     <use style="fill:#808080;stroke:#808080;" x="122.330785" xlink:href="#m82dc507d79" y="448.75284"/>
     <use style="fill:#808080;stroke:#808080;" x="161.85853" xlink:href="#m82dc507d79" y="432.2274"/>
     <use style="fill:#808080;stroke:#808080;" x="122.330785" xlink:href="#m82dc507d79" y="452.23188"/>
     <use style="fill:#808080;stroke:#808080;" x="161.85853" xlink:href="#m82dc507d79" y="426.13908"/>
     <use style="fill:#808080;stroke:#808080;" x="122.330785" xlink:href="#m82dc507d79" y="351.33972"/>
     <use style="fill:#808080;stroke:#808080;" x="122.330785" xlink:href="#m82dc507d79" y="386.99988"/>
     <use style="fill:#808080;stroke:#808080;" x="240.91402" xlink:href="#m82dc507d79" y="437.44596"/>
     <use style="fill:#808080;stroke:#808080;" x="161.85853" xlink:href="#m82dc507d79" y="427.8786"/>
     <use style="fill:#808080;stroke:#808080;" x="122.330785" xlink:href="#m82dc507d79" y="441.79476"/>
     <use style="fill:#808080;stroke:#808080;" x="122.330785" xlink:href="#m82dc507d79" y="460.05972"/>
     <use style="fill:#808080;stroke:#808080;" x="161.85853" xlink:href="#m82dc507d79" y="462.669"/>
    </g>
   </g>
   <g id="matplotlib.axis_1">
    <g id="xtick_1">
     <g id="line2d_1">
      <defs>
       <path d="M 0 0 
L 0 3.5 
" id="m3c813cf468" style="stroke:#000000;stroke-width:0.8;"/>
      </defs>
      <g>
       <use style="stroke:#000000;stroke-width:0.8;" x="122.330785" xlink:href="#m3c813cf468" y="462.669"/>
      </g>
     </g>
     <g id="text_1">
      <!-- 0 -->
      <defs>
       <path d="M 31.78125 66.40625 
Q 24.171875 66.40625 20.328125 58.90625 
Q 16.5 51.421875 16.5 36.375 
Q 16.5 21.390625 20.328125 13.890625 
Q 24.171875 6.390625 31.78125 6.390625 
Q 39.453125 6.390625 43.28125 13.890625 
Q 47.125 21.390625 47.125 36.375 
Q 47.125 51.421875 43.28125 58.90625 
Q 39.453125 66.40625 31.78125 66.40625 
z
M 31.78125 74.21875 
Q 44.046875 74.21875 50.515625 64.515625 
Q 56.984375 54.828125 56.984375 36.375 
Q 56.984375 17.96875 50.515625 8.265625 
Q 44.046875 -1.421875 31.78125 -1.421875 
Q 19.53125 -1.421875 13.0625 8.265625 
Q 6.59375 17.96875 6.59375 36.375 
Q 6.59375 54.828125 13.0625 64.515625 
Q 19.53125 74.21875 31.78125 74.21875 
z
" id="DejaVuSans-48"/>
      </defs>
      <g transform="translate(117.240785 481.8265)scale(0.16 -0.16)">
       <use xlink:href="#DejaVuSans-48"/>
      </g>
     </g>
    </g>
    <g id="xtick_2">
     <g id="line2d_2">
      <g>
       <use style="stroke:#000000;stroke-width:0.8;" x="201.386275" xlink:href="#m3c813cf468" y="462.669"/>
      </g>
     </g>
     <g id="text_2">
      <!-- 2 -->
      <defs>
       <path d="M 19.1875 8.296875 
L 53.609375 8.296875 
L 53.609375 0 
L 7.328125 0 
L 7.328125 8.296875 
Q 12.9375 14.109375 22.625 23.890625 
Q 32.328125 33.6875 34.8125 36.53125 
Q 39.546875 41.84375 41.421875 45.53125 
Q 43.3125 49.21875 43.3125 52.78125 
Q 43.3125 58.59375 39.234375 62.25 
Q 35.15625 65.921875 28.609375 65.921875 
Q 23.96875 65.921875 18.8125 64.3125 
Q 13.671875 62.703125 7.8125 59.421875 
L 7.8125 69.390625 
Q 13.765625 71.78125 18.9375 73 
Q 24.125 74.21875 28.421875 74.21875 
Q 39.75 74.21875 46.484375 68.546875 
Q 53.21875 62.890625 53.21875 53.421875 
Q 53.21875 48.921875 51.53125 44.890625 
Q 49.859375 40.875 45.40625 35.40625 
Q 44.1875 33.984375 37.640625 27.21875 
Q 31.109375 20.453125 19.1875 8.296875 
z
" id="DejaVuSans-50"/>
      </defs>
      <g transform="translate(196.296275 481.8265)scale(0.16 -0.16)">
       <use xlink:href="#DejaVuSans-50"/>
      </g>
     </g>
    </g>
    <g id="xtick_3">
     <g id="line2d_3">
      <g>
       <use style="stroke:#000000;stroke-width:0.8;" x="280.441765" xlink:href="#m3c813cf468" y="462.669"/>
      </g>
     </g>
     <g id="text_3">
      <!-- 4 -->
      <defs>
       <path d="M 37.796875 64.3125 
L 12.890625 25.390625 
L 37.796875 25.390625 
z
M 35.203125 72.90625 
L 47.609375 72.90625 
L 47.609375 25.390625 
L 58.015625 25.390625 
L 58.015625 17.1875 
L 47.609375 17.1875 
L 47.609375 0 
L 37.796875 0 
L 37.796875 17.1875 
L 4.890625 17.1875 
L 4.890625 26.703125 
z
" id="DejaVuSans-52"/>
      </defs>
      <g transform="translate(275.351765 481.8265)scale(0.16 -0.16)">
       <use xlink:href="#DejaVuSans-52"/>
      </g>
     </g>
    </g>
    <g id="xtick_4">
     <g id="line2d_4">
      <g>
       <use style="stroke:#000000;stroke-width:0.8;" x="359.497255" xlink:href="#m3c813cf468" y="462.669"/>
      </g>
     </g>
     <g id="text_4">
      <!-- 6 -->
      <defs>
       <path d="M 33.015625 40.375 
Q 26.375 40.375 22.484375 35.828125 
Q 18.609375 31.296875 18.609375 23.390625 
Q 18.609375 15.53125 22.484375 10.953125 
Q 26.375 6.390625 33.015625 6.390625 
Q 39.65625 6.390625 43.53125 10.953125 
Q 47.40625 15.53125 47.40625 23.390625 
Q 47.40625 31.296875 43.53125 35.828125 
Q 39.65625 40.375 33.015625 40.375 
z
M 52.59375 71.296875 
L 52.59375 62.3125 
Q 48.875 64.0625 45.09375 64.984375 
Q 41.3125 65.921875 37.59375 65.921875 
Q 27.828125 65.921875 22.671875 59.328125 
Q 17.53125 52.734375 16.796875 39.40625 
Q 19.671875 43.65625 24.015625 45.921875 
Q 28.375 48.1875 33.59375 48.1875 
Q 44.578125 48.1875 50.953125 41.515625 
Q 57.328125 34.859375 57.328125 23.390625 
Q 57.328125 12.15625 50.6875 5.359375 
Q 44.046875 -1.421875 33.015625 -1.421875 
Q 20.359375 -1.421875 13.671875 8.265625 
Q 6.984375 17.96875 6.984375 36.375 
Q 6.984375 53.65625 15.1875 63.9375 
Q 23.390625 74.21875 37.203125 74.21875 
Q 40.921875 74.21875 44.703125 73.484375 
Q 48.484375 72.75 52.59375 71.296875 
z
" id="DejaVuSans-54"/>
      </defs>
      <g transform="translate(354.407255 481.8265)scale(0.16 -0.16)">
       <use xlink:href="#DejaVuSans-54"/>
      </g>
     </g>
    </g>
    <g id="xtick_5">
     <g id="line2d_5">
      <g>
       <use style="stroke:#000000;stroke-width:0.8;" x="438.552745" xlink:href="#m3c813cf468" y="462.669"/>
      </g>
     </g>
     <g id="text_5">
      <!-- 8 -->
      <defs>
       <path d="M 31.78125 34.625 
Q 24.75 34.625 20.71875 30.859375 
Q 16.703125 27.09375 16.703125 20.515625 
Q 16.703125 13.921875 20.71875 10.15625 
Q 24.75 6.390625 31.78125 6.390625 
Q 38.8125 6.390625 42.859375 10.171875 
Q 46.921875 13.96875 46.921875 20.515625 
Q 46.921875 27.09375 42.890625 30.859375 
Q 38.875 34.625 31.78125 34.625 
z
M 21.921875 38.8125 
Q 15.578125 40.375 12.03125 44.71875 
Q 8.5 49.078125 8.5 55.328125 
Q 8.5 64.0625 14.71875 69.140625 
Q 20.953125 74.21875 31.78125 74.21875 
Q 42.671875 74.21875 48.875 69.140625 
Q 55.078125 64.0625 55.078125 55.328125 
Q 55.078125 49.078125 51.53125 44.71875 
Q 48 40.375 41.703125 38.8125 
Q 48.828125 37.15625 52.796875 32.3125 
Q 56.78125 27.484375 56.78125 20.515625 
Q 56.78125 9.90625 50.3125 4.234375 
Q 43.84375 -1.421875 31.78125 -1.421875 
Q 19.734375 -1.421875 13.25 4.234375 
Q 6.78125 9.90625 6.78125 20.515625 
Q 6.78125 27.484375 10.78125 32.3125 
Q 14.796875 37.15625 21.921875 38.8125 
z
M 18.3125 54.390625 
Q 18.3125 48.734375 21.84375 45.5625 
Q 25.390625 42.390625 31.78125 42.390625 
Q 38.140625 42.390625 41.71875 45.5625 
Q 45.3125 48.734375 45.3125 54.390625 
Q 45.3125 60.0625 41.71875 63.234375 
Q 38.140625 66.40625 31.78125 66.40625 
Q 25.390625 66.40625 21.84375 63.234375 
Q 18.3125 60.0625 18.3125 54.390625 
z
" id="DejaVuSans-56"/>
      </defs>
      <g transform="translate(433.462745 481.8265)scale(0.16 -0.16)">
       <use xlink:href="#DejaVuSans-56"/>
      </g>
     </g>
    </g>
    <g id="xtick_6">
     <g id="line2d_6">
      <g>
       <use style="stroke:#000000;stroke-width:0.8;" x="517.608235" xlink:href="#m3c813cf468" y="462.669"/>
      </g>
     </g>
     <g id="text_6">
      <!-- 10 -->
      <defs>
       <path d="M 12.40625 8.296875 
L 28.515625 8.296875 
L 28.515625 63.921875 
L 10.984375 60.40625 
L 10.984375 69.390625 
L 28.421875 72.90625 
L 38.28125 72.90625 
L 38.28125 8.296875 
L 54.390625 8.296875 
L 54.390625 0 
L 12.40625 0 
z
" id="DejaVuSans-49"/>
      </defs>
      <g transform="translate(507.428235 481.8265)scale(0.16 -0.16)">
       <use xlink:href="#DejaVuSans-49"/>
       <use x="63.623047" xlink:href="#DejaVuSans-48"/>
      </g>
     </g>
    </g>
    <g id="xtick_7">
     <g id="line2d_7">
      <g>
       <use style="stroke:#000000;stroke-width:0.8;" x="596.663725" xlink:href="#m3c813cf468" y="462.669"/>
      </g>
     </g>
     <g id="text_7">
      <!-- 12 -->
      <g transform="translate(586.483725 481.8265)scale(0.16 -0.16)">
       <use xlink:href="#DejaVuSans-49"/>
       <use x="63.623047" xlink:href="#DejaVuSans-50"/>
      </g>
     </g>
    </g>
    <g id="xtick_8">
     <g id="line2d_8">
      <g>
       <use style="stroke:#000000;stroke-width:0.8;" x="675.719215" xlink:href="#m3c813cf468" y="462.669"/>
      </g>
     </g>
     <g id="text_8">
      <!-- 14 -->
      <g transform="translate(665.539215 481.8265)scale(0.16 -0.16)">
       <use xlink:href="#DejaVuSans-49"/>
       <use x="63.623047" xlink:href="#DejaVuSans-52"/>
      </g>
     </g>
    </g>
    <g id="text_9">
     <!-- Number of Vacancies as of Dec 31, 2019 -->
     <defs>
      <path d="M 9.8125 72.90625 
L 23.09375 72.90625 
L 55.421875 11.921875 
L 55.421875 72.90625 
L 64.984375 72.90625 
L 64.984375 0 
L 51.703125 0 
L 19.390625 60.984375 
L 19.390625 0 
L 9.8125 0 
z
" id="DejaVuSans-78"/>
      <path d="M 8.5 21.578125 
L 8.5 54.6875 
L 17.484375 54.6875 
L 17.484375 21.921875 
Q 17.484375 14.15625 20.5 10.265625 
Q 23.53125 6.390625 29.59375 6.390625 
Q 36.859375 6.390625 41.078125 11.03125 
Q 45.3125 15.671875 45.3125 23.6875 
L 45.3125 54.6875 
L 54.296875 54.6875 
L 54.296875 0 
L 45.3125 0 
L 45.3125 8.40625 
Q 42.046875 3.421875 37.71875 1 
Q 33.40625 -1.421875 27.6875 -1.421875 
Q 18.265625 -1.421875 13.375 4.4375 
Q 8.5 10.296875 8.5 21.578125 
z
M 31.109375 56 
z
" id="DejaVuSans-117"/>
      <path d="M 52 44.1875 
Q 55.375 50.25 60.0625 53.125 
Q 64.75 56 71.09375 56 
Q 79.640625 56 84.28125 50.015625 
Q 88.921875 44.046875 88.921875 33.015625 
L 88.921875 0 
L 79.890625 0 
L 79.890625 32.71875 
Q 79.890625 40.578125 77.09375 44.375 
Q 74.3125 48.1875 68.609375 48.1875 
Q 61.625 48.1875 57.5625 43.546875 
Q 53.515625 38.921875 53.515625 30.90625 
L 53.515625 0 
L 44.484375 0 
L 44.484375 32.71875 
Q 44.484375 40.625 41.703125 44.40625 
Q 38.921875 48.1875 33.109375 48.1875 
Q 26.21875 48.1875 22.15625 43.53125 
Q 18.109375 38.875 18.109375 30.90625 
L 18.109375 0 
L 9.078125 0 
L 9.078125 54.6875 
L 18.109375 54.6875 
L 18.109375 46.1875 
Q 21.1875 51.21875 25.484375 53.609375 
Q 29.78125 56 35.6875 56 
Q 41.65625 56 45.828125 52.96875 
Q 50 49.953125 52 44.1875 
z
" id="DejaVuSans-109"/>
      <path d="M 48.6875 27.296875 
Q 48.6875 37.203125 44.609375 42.84375 
Q 40.53125 48.484375 33.40625 48.484375 
Q 26.265625 48.484375 22.1875 42.84375 
Q 18.109375 37.203125 18.109375 27.296875 
Q 18.109375 17.390625 22.1875 11.75 
Q 26.265625 6.109375 33.40625 6.109375 
Q 40.53125 6.109375 44.609375 11.75 
Q 48.6875 17.390625 48.6875 27.296875 
z
M 18.109375 46.390625 
Q 20.953125 51.265625 25.265625 53.625 
Q 29.59375 56 35.59375 56 
Q 45.5625 56 51.78125 48.09375 
Q 58.015625 40.1875 58.015625 27.296875 
Q 58.015625 14.40625 51.78125 6.484375 
Q 45.5625 -1.421875 35.59375 -1.421875 
Q 29.59375 -1.421875 25.265625 0.953125 
Q 20.953125 3.328125 18.109375 8.203125 
L 18.109375 0 
L 9.078125 0 
L 9.078125 75.984375 
L 18.109375 75.984375 
z
" id="DejaVuSans-98"/>
      <path d="M 56.203125 29.59375 
L 56.203125 25.203125 
L 14.890625 25.203125 
Q 15.484375 15.921875 20.484375 11.0625 
Q 25.484375 6.203125 34.421875 6.203125 
Q 39.59375 6.203125 44.453125 7.46875 
Q 49.3125 8.734375 54.109375 11.28125 
L 54.109375 2.78125 
Q 49.265625 0.734375 44.1875 -0.34375 
Q 39.109375 -1.421875 33.890625 -1.421875 
Q 20.796875 -1.421875 13.15625 6.1875 
Q 5.515625 13.8125 5.515625 26.8125 
Q 5.515625 40.234375 12.765625 48.109375 
Q 20.015625 56 32.328125 56 
Q 43.359375 56 49.78125 48.890625 
Q 56.203125 41.796875 56.203125 29.59375 
z
M 47.21875 32.234375 
Q 47.125 39.59375 43.09375 43.984375 
Q 39.0625 48.390625 32.421875 48.390625 
Q 24.90625 48.390625 20.390625 44.140625 
Q 15.875 39.890625 15.1875 32.171875 
z
" id="DejaVuSans-101"/>
      <path d="M 41.109375 46.296875 
Q 39.59375 47.171875 37.8125 47.578125 
Q 36.03125 48 33.890625 48 
Q 26.265625 48 22.1875 43.046875 
Q 18.109375 38.09375 18.109375 28.8125 
L 18.109375 0 
L 9.078125 0 
L 9.078125 54.6875 
L 18.109375 54.6875 
L 18.109375 46.1875 
Q 20.953125 51.171875 25.484375 53.578125 
Q 30.03125 56 36.53125 56 
Q 37.453125 56 38.578125 55.875 
Q 39.703125 55.765625 41.0625 55.515625 
z
" id="DejaVuSans-114"/>
      <path id="DejaVuSans-32"/>
      <path d="M 30.609375 48.390625 
Q 23.390625 48.390625 19.1875 42.75 
Q 14.984375 37.109375 14.984375 27.296875 
Q 14.984375 17.484375 19.15625 11.84375 
Q 23.34375 6.203125 30.609375 6.203125 
Q 37.796875 6.203125 41.984375 11.859375 
Q 46.1875 17.53125 46.1875 27.296875 
Q 46.1875 37.015625 41.984375 42.703125 
Q 37.796875 48.390625 30.609375 48.390625 
z
M 30.609375 56 
Q 42.328125 56 49.015625 48.375 
Q 55.71875 40.765625 55.71875 27.296875 
Q 55.71875 13.875 49.015625 6.21875 
Q 42.328125 -1.421875 30.609375 -1.421875 
Q 18.84375 -1.421875 12.171875 6.21875 
Q 5.515625 13.875 5.515625 27.296875 
Q 5.515625 40.765625 12.171875 48.375 
Q 18.84375 56 30.609375 56 
z
" id="DejaVuSans-111"/>
      <path d="M 37.109375 75.984375 
L 37.109375 68.5 
L 28.515625 68.5 
Q 23.6875 68.5 21.796875 66.546875 
Q 19.921875 64.59375 19.921875 59.515625 
L 19.921875 54.6875 
L 34.71875 54.6875 
L 34.71875 47.703125 
L 19.921875 47.703125 
L 19.921875 0 
L 10.890625 0 
L 10.890625 47.703125 
L 2.296875 47.703125 
L 2.296875 54.6875 
L 10.890625 54.6875 
L 10.890625 58.5 
Q 10.890625 67.625 15.140625 71.796875 
Q 19.390625 75.984375 28.609375 75.984375 
z
" id="DejaVuSans-102"/>
      <path d="M 28.609375 0 
L 0.78125 72.90625 
L 11.078125 72.90625 
L 34.1875 11.53125 
L 57.328125 72.90625 
L 67.578125 72.90625 
L 39.796875 0 
z
" id="DejaVuSans-86"/>
      <path d="M 34.28125 27.484375 
Q 23.390625 27.484375 19.1875 25 
Q 14.984375 22.515625 14.984375 16.5 
Q 14.984375 11.71875 18.140625 8.90625 
Q 21.296875 6.109375 26.703125 6.109375 
Q 34.1875 6.109375 38.703125 11.40625 
Q 43.21875 16.703125 43.21875 25.484375 
L 43.21875 27.484375 
z
M 52.203125 31.203125 
L 52.203125 0 
L 43.21875 0 
L 43.21875 8.296875 
Q 40.140625 3.328125 35.546875 0.953125 
Q 30.953125 -1.421875 24.3125 -1.421875 
Q 15.921875 -1.421875 10.953125 3.296875 
Q 6 8.015625 6 15.921875 
Q 6 25.140625 12.171875 29.828125 
Q 18.359375 34.515625 30.609375 34.515625 
L 43.21875 34.515625 
L 43.21875 35.40625 
Q 43.21875 41.609375 39.140625 45 
Q 35.0625 48.390625 27.6875 48.390625 
Q 23 48.390625 18.546875 47.265625 
Q 14.109375 46.140625 10.015625 43.890625 
L 10.015625 52.203125 
Q 14.9375 54.109375 19.578125 55.046875 
Q 24.21875 56 28.609375 56 
Q 40.484375 56 46.34375 49.84375 
Q 52.203125 43.703125 52.203125 31.203125 
z
" id="DejaVuSans-97"/>
      <path d="M 48.78125 52.59375 
L 48.78125 44.1875 
Q 44.96875 46.296875 41.140625 47.34375 
Q 37.3125 48.390625 33.40625 48.390625 
Q 24.65625 48.390625 19.8125 42.84375 
Q 14.984375 37.3125 14.984375 27.296875 
Q 14.984375 17.28125 19.8125 11.734375 
Q 24.65625 6.203125 33.40625 6.203125 
Q 37.3125 6.203125 41.140625 7.25 
Q 44.96875 8.296875 48.78125 10.40625 
L 48.78125 2.09375 
Q 45.015625 0.34375 40.984375 -0.53125 
Q 36.96875 -1.421875 32.421875 -1.421875 
Q 20.0625 -1.421875 12.78125 6.34375 
Q 5.515625 14.109375 5.515625 27.296875 
Q 5.515625 40.671875 12.859375 48.328125 
Q 20.21875 56 33.015625 56 
Q 37.15625 56 41.109375 55.140625 
Q 45.0625 54.296875 48.78125 52.59375 
z
" id="DejaVuSans-99"/>
      <path d="M 54.890625 33.015625 
L 54.890625 0 
L 45.90625 0 
L 45.90625 32.71875 
Q 45.90625 40.484375 42.875 44.328125 
Q 39.84375 48.1875 33.796875 48.1875 
Q 26.515625 48.1875 22.3125 43.546875 
Q 18.109375 38.921875 18.109375 30.90625 
L 18.109375 0 
L 9.078125 0 
L 9.078125 54.6875 
L 18.109375 54.6875 
L 18.109375 46.1875 
Q 21.34375 51.125 25.703125 53.5625 
Q 30.078125 56 35.796875 56 
Q 45.21875 56 50.046875 50.171875 
Q 54.890625 44.34375 54.890625 33.015625 
z
" id="DejaVuSans-110"/>
      <path d="M 9.421875 54.6875 
L 18.40625 54.6875 
L 18.40625 0 
L 9.421875 0 
z
M 9.421875 75.984375 
L 18.40625 75.984375 
L 18.40625 64.59375 
L 9.421875 64.59375 
z
" id="DejaVuSans-105"/>
      <path d="M 44.28125 53.078125 
L 44.28125 44.578125 
Q 40.484375 46.53125 36.375 47.5 
Q 32.28125 48.484375 27.875 48.484375 
Q 21.1875 48.484375 17.84375 46.4375 
Q 14.5 44.390625 14.5 40.28125 
Q 14.5 37.15625 16.890625 35.375 
Q 19.28125 33.59375 26.515625 31.984375 
L 29.59375 31.296875 
Q 39.15625 29.25 43.1875 25.515625 
Q 47.21875 21.78125 47.21875 15.09375 
Q 47.21875 7.46875 41.1875 3.015625 
Q 35.15625 -1.421875 24.609375 -1.421875 
Q 20.21875 -1.421875 15.453125 -0.5625 
Q 10.6875 0.296875 5.421875 2 
L 5.421875 11.28125 
Q 10.40625 8.6875 15.234375 7.390625 
Q 20.0625 6.109375 24.8125 6.109375 
Q 31.15625 6.109375 34.5625 8.28125 
Q 37.984375 10.453125 37.984375 14.40625 
Q 37.984375 18.0625 35.515625 20.015625 
Q 33.0625 21.96875 24.703125 23.78125 
L 21.578125 24.515625 
Q 13.234375 26.265625 9.515625 29.90625 
Q 5.8125 33.546875 5.8125 39.890625 
Q 5.8125 47.609375 11.28125 51.796875 
Q 16.75 56 26.8125 56 
Q 31.78125 56 36.171875 55.265625 
Q 40.578125 54.546875 44.28125 53.078125 
z
" id="DejaVuSans-115"/>
      <path d="M 19.671875 64.796875 
L 19.671875 8.109375 
L 31.59375 8.109375 
Q 46.6875 8.109375 53.6875 14.9375 
Q 60.6875 21.78125 60.6875 36.53125 
Q 60.6875 51.171875 53.6875 57.984375 
Q 46.6875 64.796875 31.59375 64.796875 
z
M 9.8125 72.90625 
L 30.078125 72.90625 
Q 51.265625 72.90625 61.171875 64.09375 
Q 71.09375 55.28125 71.09375 36.53125 
Q 71.09375 17.671875 61.125 8.828125 
Q 51.171875 0 30.078125 0 
L 9.8125 0 
z
" id="DejaVuSans-68"/>
      <path d="M 40.578125 39.3125 
Q 47.65625 37.796875 51.625 33 
Q 55.609375 28.21875 55.609375 21.1875 
Q 55.609375 10.40625 48.1875 4.484375 
Q 40.765625 -1.421875 27.09375 -1.421875 
Q 22.515625 -1.421875 17.65625 -0.515625 
Q 12.796875 0.390625 7.625 2.203125 
L 7.625 11.71875 
Q 11.71875 9.328125 16.59375 8.109375 
Q 21.484375 6.890625 26.8125 6.890625 
Q 36.078125 6.890625 40.9375 10.546875 
Q 45.796875 14.203125 45.796875 21.1875 
Q 45.796875 27.640625 41.28125 31.265625 
Q 36.765625 34.90625 28.71875 34.90625 
L 20.21875 34.90625 
L 20.21875 43.015625 
L 29.109375 43.015625 
Q 36.375 43.015625 40.234375 45.921875 
Q 44.09375 48.828125 44.09375 54.296875 
Q 44.09375 59.90625 40.109375 62.90625 
Q 36.140625 65.921875 28.71875 65.921875 
Q 24.65625 65.921875 20.015625 65.03125 
Q 15.375 64.15625 9.8125 62.3125 
L 9.8125 71.09375 
Q 15.4375 72.65625 20.34375 73.4375 
Q 25.25 74.21875 29.59375 74.21875 
Q 40.828125 74.21875 47.359375 69.109375 
Q 53.90625 64.015625 53.90625 55.328125 
Q 53.90625 49.265625 50.4375 45.09375 
Q 46.96875 40.921875 40.578125 39.3125 
z
" id="DejaVuSans-51"/>
      <path d="M 11.71875 12.40625 
L 22.015625 12.40625 
L 22.015625 4 
L 14.015625 -11.625 
L 7.71875 -11.625 
L 11.71875 4 
z
" id="DejaVuSans-44"/>
      <path d="M 10.984375 1.515625 
L 10.984375 10.5 
Q 14.703125 8.734375 18.5 7.8125 
Q 22.3125 6.890625 25.984375 6.890625 
Q 35.75 6.890625 40.890625 13.453125 
Q 46.046875 20.015625 46.78125 33.40625 
Q 43.953125 29.203125 39.59375 26.953125 
Q 35.25 24.703125 29.984375 24.703125 
Q 19.046875 24.703125 12.671875 31.3125 
Q 6.296875 37.9375 6.296875 49.421875 
Q 6.296875 60.640625 12.9375 67.421875 
Q 19.578125 74.21875 30.609375 74.21875 
Q 43.265625 74.21875 49.921875 64.515625 
Q 56.59375 54.828125 56.59375 36.375 
Q 56.59375 19.140625 48.40625 8.859375 
Q 40.234375 -1.421875 26.421875 -1.421875 
Q 22.703125 -1.421875 18.890625 -0.6875 
Q 15.09375 0.046875 10.984375 1.515625 
z
M 30.609375 32.421875 
Q 37.25 32.421875 41.125 36.953125 
Q 45.015625 41.5 45.015625 49.421875 
Q 45.015625 57.28125 41.125 61.84375 
Q 37.25 66.40625 30.609375 66.40625 
Q 23.96875 66.40625 20.09375 61.84375 
Q 16.21875 57.28125 16.21875 49.421875 
Q 16.21875 41.5 20.09375 36.953125 
Q 23.96875 32.421875 30.609375 32.421875 
z
" id="DejaVuSans-57"/>
     </defs>
     <g transform="translate(236.19625 501.3115)scale(0.16 -0.16)">
      <use xlink:href="#DejaVuSans-78"/>
      <use x="74.804688" xlink:href="#DejaVuSans-117"/>
      <use x="138.183594" xlink:href="#DejaVuSans-109"/>
      <use x="235.595703" xlink:href="#DejaVuSans-98"/>
      <use x="299.072266" xlink:href="#DejaVuSans-101"/>
      <use x="360.595703" xlink:href="#DejaVuSans-114"/>
      <use x="401.708984" xlink:href="#DejaVuSans-32"/>
      <use x="433.496094" xlink:href="#DejaVuSans-111"/>
      <use x="494.677734" xlink:href="#DejaVuSans-102"/>
      <use x="529.882812" xlink:href="#DejaVuSans-32"/>
      <use x="561.669922" xlink:href="#DejaVuSans-86"/>
      <use x="622.328125" xlink:href="#DejaVuSans-97"/>
      <use x="683.607422" xlink:href="#DejaVuSans-99"/>
      <use x="738.587891" xlink:href="#DejaVuSans-97"/>
      <use x="799.867188" xlink:href="#DejaVuSans-110"/>
      <use x="863.246094" xlink:href="#DejaVuSans-99"/>
      <use x="918.226562" xlink:href="#DejaVuSans-105"/>
      <use x="946.009766" xlink:href="#DejaVuSans-101"/>
      <use x="1007.533203" xlink:href="#DejaVuSans-115"/>
      <use x="1059.632812" xlink:href="#DejaVuSans-32"/>
      <use x="1091.419922" xlink:href="#DejaVuSans-97"/>
      <use x="1152.699219" xlink:href="#DejaVuSans-115"/>
      <use x="1204.798828" xlink:href="#DejaVuSans-32"/>
      <use x="1236.585938" xlink:href="#DejaVuSans-111"/>
      <use x="1297.767578" xlink:href="#DejaVuSans-102"/>
      <use x="1332.972656" xlink:href="#DejaVuSans-32"/>
      <use x="1364.759766" xlink:href="#DejaVuSans-68"/>
      <use x="1441.761719" xlink:href="#DejaVuSans-101"/>
      <use x="1503.285156" xlink:href="#DejaVuSans-99"/>
      <use x="1558.265625" xlink:href="#DejaVuSans-32"/>
      <use x="1590.052734" xlink:href="#DejaVuSans-51"/>
      <use x="1653.675781" xlink:href="#DejaVuSans-49"/>
      <use x="1717.298828" xlink:href="#DejaVuSans-44"/>
      <use x="1749.085938" xlink:href="#DejaVuSans-32"/>
      <use x="1780.873047" xlink:href="#DejaVuSans-50"/>
      <use x="1844.496094" xlink:href="#DejaVuSans-48"/>
      <use x="1908.119141" xlink:href="#DejaVuSans-49"/>
      <use x="1971.742188" xlink:href="#DejaVuSans-57"/>
     </g>
    </g>
   </g>
   <g id="matplotlib.axis_2">
    <g id="ytick_1">
     <g id="line2d_9">
      <defs>
       <path d="M 0 0 
L -3.5 0 
" id="m3ebaf93fb3" style="stroke:#000000;stroke-width:0.8;"/>
      </defs>
      <g>
       <use style="stroke:#000000;stroke-width:0.8;" x="64.225" xlink:href="#m3ebaf93fb3" y="462.669"/>
      </g>
     </g>
     <g id="text_10">
      <!-- 0 -->
      <g transform="translate(47.045 468.74775)scale(0.16 -0.16)">
       <use xlink:href="#DejaVuSans-48"/>
      </g>
     </g>
    </g>
    <g id="ytick_2">
     <g id="line2d_10">
      <g>
       <use style="stroke:#000000;stroke-width:0.8;" x="64.225" xlink:href="#m3ebaf93fb3" y="375.693"/>
      </g>
     </g>
     <g id="text_11">
      <!-- 100 -->
      <g transform="translate(26.685 381.77175)scale(0.16 -0.16)">
       <use xlink:href="#DejaVuSans-49"/>
       <use x="63.623047" xlink:href="#DejaVuSans-48"/>
       <use x="127.246094" xlink:href="#DejaVuSans-48"/>
      </g>
     </g>
    </g>
    <g id="ytick_3">
     <g id="line2d_11">
      <g>
       <use style="stroke:#000000;stroke-width:0.8;" x="64.225" xlink:href="#m3ebaf93fb3" y="288.717"/>
      </g>
     </g>
     <g id="text_12">
      <!-- 200 -->
      <g transform="translate(26.685 294.79575)scale(0.16 -0.16)">
       <use xlink:href="#DejaVuSans-50"/>
       <use x="63.623047" xlink:href="#DejaVuSans-48"/>
       <use x="127.246094" xlink:href="#DejaVuSans-48"/>
      </g>
     </g>
    </g>
    <g id="ytick_4">
     <g id="line2d_12">
      <g>
       <use style="stroke:#000000;stroke-width:0.8;" x="64.225" xlink:href="#m3ebaf93fb3" y="201.741"/>
      </g>
     </g>
     <g id="text_13">
      <!-- 300 -->
      <g transform="translate(26.685 207.81975)scale(0.16 -0.16)">
       <use xlink:href="#DejaVuSans-51"/>
       <use x="63.623047" xlink:href="#DejaVuSans-48"/>
       <use x="127.246094" xlink:href="#DejaVuSans-48"/>
      </g>
     </g>
    </g>
    <g id="ytick_5">
     <g id="line2d_13">
      <g>
       <use style="stroke:#000000;stroke-width:0.8;" x="64.225" xlink:href="#m3ebaf93fb3" y="114.765"/>
      </g>
     </g>
     <g id="text_14">
      <!-- 400 -->
      <g transform="translate(26.685 120.84375)scale(0.16 -0.16)">
       <use xlink:href="#DejaVuSans-52"/>
       <use x="63.623047" xlink:href="#DejaVuSans-48"/>
       <use x="127.246094" xlink:href="#DejaVuSans-48"/>
      </g>
     </g>
    </g>
    <g id="ytick_6">
     <g id="line2d_14">
      <g>
       <use style="stroke:#000000;stroke-width:0.8;" x="64.225" xlink:href="#m3ebaf93fb3" y="27.789"/>
      </g>
     </g>
     <g id="text_15">
      <!-- 500 -->
      <defs>
       <path d="M 10.796875 72.90625 
L 49.515625 72.90625 
L 49.515625 64.59375 
L 19.828125 64.59375 
L 19.828125 46.734375 
Q 21.96875 47.46875 24.109375 47.828125 
Q 26.265625 48.1875 28.421875 48.1875 
Q 40.625 48.1875 47.75 41.5 
Q 54.890625 34.8125 54.890625 23.390625 
Q 54.890625 11.625 47.5625 5.09375 
Q 40.234375 -1.421875 26.90625 -1.421875 
Q 22.3125 -1.421875 17.546875 -0.640625 
Q 12.796875 0.140625 7.71875 1.703125 
L 7.71875 11.625 
Q 12.109375 9.234375 16.796875 8.0625 
Q 21.484375 6.890625 26.703125 6.890625 
Q 35.15625 6.890625 40.078125 11.328125 
Q 45.015625 15.765625 45.015625 23.390625 
Q 45.015625 31 40.078125 35.4375 
Q 35.15625 39.890625 26.703125 39.890625 
Q 22.75 39.890625 18.8125 39.015625 
Q 14.890625 38.140625 10.796875 36.28125 
z
" id="DejaVuSans-53"/>
      </defs>
      <g transform="translate(26.685 33.86775)scale(0.16 -0.16)">
       <use xlink:href="#DejaVuSans-53"/>
       <use x="63.623047" xlink:href="#DejaVuSans-48"/>
       <use x="127.246094" xlink:href="#DejaVuSans-48"/>
      </g>
     </g>
    </g>
    <g id="text_16">
     <!-- Number of Crime Incidences in 2019 -->
     <defs>
      <path d="M 64.40625 67.28125 
L 64.40625 56.890625 
Q 59.421875 61.53125 53.78125 63.8125 
Q 48.140625 66.109375 41.796875 66.109375 
Q 29.296875 66.109375 22.65625 58.46875 
Q 16.015625 50.828125 16.015625 36.375 
Q 16.015625 21.96875 22.65625 14.328125 
Q 29.296875 6.6875 41.796875 6.6875 
Q 48.140625 6.6875 53.78125 8.984375 
Q 59.421875 11.28125 64.40625 15.921875 
L 64.40625 5.609375 
Q 59.234375 2.09375 53.4375 0.328125 
Q 47.65625 -1.421875 41.21875 -1.421875 
Q 24.65625 -1.421875 15.125 8.703125 
Q 5.609375 18.84375 5.609375 36.375 
Q 5.609375 53.953125 15.125 64.078125 
Q 24.65625 74.21875 41.21875 74.21875 
Q 47.75 74.21875 53.53125 72.484375 
Q 59.328125 70.75 64.40625 67.28125 
z
" id="DejaVuSans-67"/>
      <path d="M 9.8125 72.90625 
L 19.671875 72.90625 
L 19.671875 0 
L 9.8125 0 
z
" id="DejaVuSans-73"/>
      <path d="M 45.40625 46.390625 
L 45.40625 75.984375 
L 54.390625 75.984375 
L 54.390625 0 
L 45.40625 0 
L 45.40625 8.203125 
Q 42.578125 3.328125 38.25 0.953125 
Q 33.9375 -1.421875 27.875 -1.421875 
Q 17.96875 -1.421875 11.734375 6.484375 
Q 5.515625 14.40625 5.515625 27.296875 
Q 5.515625 40.1875 11.734375 48.09375 
Q 17.96875 56 27.875 56 
Q 33.9375 56 38.25 53.625 
Q 42.578125 51.265625 45.40625 46.390625 
z
M 14.796875 27.296875 
Q 14.796875 17.390625 18.875 11.75 
Q 22.953125 6.109375 30.078125 6.109375 
Q 37.203125 6.109375 41.296875 11.75 
Q 45.40625 17.390625 45.40625 27.296875 
Q 45.40625 37.203125 41.296875 42.84375 
Q 37.203125 48.484375 30.078125 48.484375 
Q 22.953125 48.484375 18.875 42.84375 
Q 14.796875 37.203125 14.796875 27.296875 
z
" id="DejaVuSans-100"/>
     </defs>
     <g transform="translate(19.3575 391.8665)rotate(-90)scale(0.16 -0.16)">
      <use xlink:href="#DejaVuSans-78"/>
      <use x="74.804688" xlink:href="#DejaVuSans-117"/>
      <use x="138.183594" xlink:href="#DejaVuSans-109"/>
      <use x="235.595703" xlink:href="#DejaVuSans-98"/>
      <use x="299.072266" xlink:href="#DejaVuSans-101"/>
      <use x="360.595703" xlink:href="#DejaVuSans-114"/>
      <use x="401.708984" xlink:href="#DejaVuSans-32"/>
      <use x="433.496094" xlink:href="#DejaVuSans-111"/>
      <use x="494.677734" xlink:href="#DejaVuSans-102"/>
      <use x="529.882812" xlink:href="#DejaVuSans-32"/>
      <use x="561.669922" xlink:href="#DejaVuSans-67"/>
      <use x="631.494141" xlink:href="#DejaVuSans-114"/>
      <use x="672.607422" xlink:href="#DejaVuSans-105"/>
      <use x="700.390625" xlink:href="#DejaVuSans-109"/>
      <use x="797.802734" xlink:href="#DejaVuSans-101"/>
      <use x="859.326172" xlink:href="#DejaVuSans-32"/>
      <use x="891.113281" xlink:href="#DejaVuSans-73"/>
      <use x="920.605469" xlink:href="#DejaVuSans-110"/>
      <use x="983.984375" xlink:href="#DejaVuSans-99"/>
      <use x="1038.964844" xlink:href="#DejaVuSans-105"/>
      <use x="1066.748047" xlink:href="#DejaVuSans-100"/>
      <use x="1130.224609" xlink:href="#DejaVuSans-101"/>
      <use x="1191.748047" xlink:href="#DejaVuSans-110"/>
      <use x="1255.126953" xlink:href="#DejaVuSans-99"/>
      <use x="1310.107422" xlink:href="#DejaVuSans-101"/>
      <use x="1371.630859" xlink:href="#DejaVuSans-115"/>
      <use x="1423.730469" xlink:href="#DejaVuSans-32"/>
      <use x="1455.517578" xlink:href="#DejaVuSans-105"/>
      <use x="1483.300781" xlink:href="#DejaVuSans-110"/>
      <use x="1546.679688" xlink:href="#DejaVuSans-32"/>
      <use x="1578.466797" xlink:href="#DejaVuSans-50"/>
      <use x="1642.089844" xlink:href="#DejaVuSans-48"/>
      <use x="1705.712891" xlink:href="#DejaVuSans-49"/>
      <use x="1769.335938" xlink:href="#DejaVuSans-57"/>
     </g>
    </g>
   </g>
   <g id="line2d_15">
    <path clip-path="url(#p9eff4a5e2d)" d="M 94.661364 390.571546 
L 703.388636 190.343681 
" style="fill:none;stroke:#dc143c;stroke-linecap:square;stroke-width:1.5;"/>
   </g>
   <g id="patch_3">
    <path d="M 64.225 462.669 
L 64.225 27.789 
" style="fill:none;stroke:#000000;stroke-linecap:square;stroke-linejoin:miter;stroke-width:0.8;"/>
   </g>
   <g id="patch_4">
    <path d="M 64.225 462.669 
L 733.825 462.669 
" style="fill:none;stroke:#000000;stroke-linecap:square;stroke-linejoin:miter;stroke-width:0.8;"/>
   </g>
   <g id="text_17">
    <!--           Correlation (r):  -->
    <defs>
     <path d="M 9.421875 75.984375 
L 18.40625 75.984375 
L 18.40625 0 
L 9.421875 0 
z
" id="DejaVuSans-108"/>
     <path d="M 18.3125 70.21875 
L 18.3125 54.6875 
L 36.8125 54.6875 
L 36.8125 47.703125 
L 18.3125 47.703125 
L 18.3125 18.015625 
Q 18.3125 11.328125 20.140625 9.421875 
Q 21.96875 7.515625 27.59375 7.515625 
L 36.8125 7.515625 
L 36.8125 0 
L 27.59375 0 
Q 17.1875 0 13.234375 3.875 
Q 9.28125 7.765625 9.28125 18.015625 
L 9.28125 47.703125 
L 2.6875 47.703125 
L 2.6875 54.6875 
L 9.28125 54.6875 
L 9.28125 70.21875 
z
" id="DejaVuSans-116"/>
     <path d="M 31 75.875 
Q 24.46875 64.65625 21.28125 53.65625 
Q 18.109375 42.671875 18.109375 31.390625 
Q 18.109375 20.125 21.3125 9.0625 
Q 24.515625 -2 31 -13.1875 
L 23.1875 -13.1875 
Q 15.875 -1.703125 12.234375 9.375 
Q 8.59375 20.453125 8.59375 31.390625 
Q 8.59375 42.28125 12.203125 53.3125 
Q 15.828125 64.359375 23.1875 75.875 
z
" id="DejaVuSans-40"/>
     <path d="M 8.015625 75.875 
L 15.828125 75.875 
Q 23.140625 64.359375 26.78125 53.3125 
Q 30.421875 42.28125 30.421875 31.390625 
Q 30.421875 20.453125 26.78125 9.375 
Q 23.140625 -1.703125 15.828125 -13.1875 
L 8.015625 -13.1875 
Q 14.5 -2 17.703125 9.0625 
Q 20.90625 20.125 20.90625 31.390625 
Q 20.90625 42.671875 17.703125 53.65625 
Q 14.5 64.65625 8.015625 75.875 
z
" id="DejaVuSans-41"/>
     <path d="M 11.71875 12.40625 
L 22.015625 12.40625 
L 22.015625 0 
L 11.71875 0 
z
M 11.71875 51.703125 
L 22.015625 51.703125 
L 22.015625 39.3125 
L 11.71875 39.3125 
z
" id="DejaVuSans-58"/>
    </defs>
    <g transform="translate(754.774705 183.8245)scale(0.16 -0.16)">
     <use xlink:href="#DejaVuSans-32"/>
     <use x="31.787109" xlink:href="#DejaVuSans-32"/>
     <use x="63.574219" xlink:href="#DejaVuSans-32"/>
     <use x="95.361328" xlink:href="#DejaVuSans-32"/>
     <use x="127.148438" xlink:href="#DejaVuSans-32"/>
     <use x="158.935547" xlink:href="#DejaVuSans-32"/>
     <use x="190.722656" xlink:href="#DejaVuSans-32"/>
     <use x="222.509766" xlink:href="#DejaVuSans-32"/>
     <use x="254.296875" xlink:href="#DejaVuSans-32"/>
     <use x="286.083984" xlink:href="#DejaVuSans-32"/>
     <use x="317.871094" xlink:href="#DejaVuSans-67"/>
     <use x="387.695312" xlink:href="#DejaVuSans-111"/>
     <use x="448.876953" xlink:href="#DejaVuSans-114"/>
     <use x="488.240234" xlink:href="#DejaVuSans-114"/>
     <use x="527.103516" xlink:href="#DejaVuSans-101"/>
     <use x="588.626953" xlink:href="#DejaVuSans-108"/>
     <use x="616.410156" xlink:href="#DejaVuSans-97"/>
     <use x="677.689453" xlink:href="#DejaVuSans-116"/>
     <use x="716.898438" xlink:href="#DejaVuSans-105"/>
     <use x="744.681641" xlink:href="#DejaVuSans-111"/>
     <use x="805.863281" xlink:href="#DejaVuSans-110"/>
     <use x="869.242188" xlink:href="#DejaVuSans-32"/>
     <use x="901.029297" xlink:href="#DejaVuSans-40"/>
     <use x="940.042969" xlink:href="#DejaVuSans-114"/>
     <use x="981.15625" xlink:href="#DejaVuSans-41"/>
     <use x="1020.169922" xlink:href="#DejaVuSans-58"/>
     <use x="1053.861328" xlink:href="#DejaVuSans-32"/>
    </g>
    <!--                  0.408 -->
    <defs>
     <path d="M 10.6875 12.40625 
L 21 12.40625 
L 21 0 
L 10.6875 0 
z
" id="DejaVuSans-46"/>
    </defs>
    <g transform="translate(754.774705 201.741)scale(0.16 -0.16)">
     <use xlink:href="#DejaVuSans-32"/>
     <use x="31.787109" xlink:href="#DejaVuSans-32"/>
     <use x="63.574219" xlink:href="#DejaVuSans-32"/>
     <use x="95.361328" xlink:href="#DejaVuSans-32"/>
     <use x="127.148438" xlink:href="#DejaVuSans-32"/>
     <use x="158.935547" xlink:href="#DejaVuSans-32"/>
     <use x="190.722656" xlink:href="#DejaVuSans-32"/>
     <use x="222.509766" xlink:href="#DejaVuSans-32"/>
     <use x="254.296875" xlink:href="#DejaVuSans-32"/>
     <use x="286.083984" xlink:href="#DejaVuSans-32"/>
     <use x="317.871094" xlink:href="#DejaVuSans-32"/>
     <use x="349.658203" xlink:href="#DejaVuSans-32"/>
     <use x="381.445312" xlink:href="#DejaVuSans-32"/>
     <use x="413.232422" xlink:href="#DejaVuSans-32"/>
     <use x="445.019531" xlink:href="#DejaVuSans-32"/>
     <use x="476.806641" xlink:href="#DejaVuSans-32"/>
     <use x="508.59375" xlink:href="#DejaVuSans-32"/>
     <use x="540.380859" xlink:href="#DejaVuSans-48"/>
     <use x="604.003906" xlink:href="#DejaVuSans-46"/>
     <use x="635.791016" xlink:href="#DejaVuSans-52"/>
     <use x="699.414062" xlink:href="#DejaVuSans-48"/>
     <use x="763.037109" xlink:href="#DejaVuSans-56"/>
    </g>
   </g>
   <g id="text_18">
    <!--                  (r^2):  -->
    <defs>
     <path d="M 46.6875 72.90625 
L 73.1875 45.703125 
L 63.375 45.703125 
L 41.890625 64.984375 
L 20.40625 45.703125 
L 10.59375 45.703125 
L 37.109375 72.90625 
z
" id="DejaVuSans-94"/>
    </defs>
    <g transform="translate(754.774705 253.4053)scale(0.16 -0.16)">
     <use xlink:href="#DejaVuSans-32"/>
     <use x="31.787109" xlink:href="#DejaVuSans-32"/>
     <use x="63.574219" xlink:href="#DejaVuSans-32"/>
     <use x="95.361328" xlink:href="#DejaVuSans-32"/>
     <use x="127.148438" xlink:href="#DejaVuSans-32"/>
     <use x="158.935547" xlink:href="#DejaVuSans-32"/>
     <use x="190.722656" xlink:href="#DejaVuSans-32"/>
     <use x="222.509766" xlink:href="#DejaVuSans-32"/>
     <use x="254.296875" xlink:href="#DejaVuSans-32"/>
     <use x="286.083984" xlink:href="#DejaVuSans-32"/>
     <use x="317.871094" xlink:href="#DejaVuSans-32"/>
     <use x="349.658203" xlink:href="#DejaVuSans-32"/>
     <use x="381.445312" xlink:href="#DejaVuSans-32"/>
     <use x="413.232422" xlink:href="#DejaVuSans-32"/>
     <use x="445.019531" xlink:href="#DejaVuSans-32"/>
     <use x="476.806641" xlink:href="#DejaVuSans-32"/>
     <use x="508.59375" xlink:href="#DejaVuSans-32"/>
     <use x="540.380859" xlink:href="#DejaVuSans-40"/>
     <use x="579.394531" xlink:href="#DejaVuSans-114"/>
     <use x="620.507812" xlink:href="#DejaVuSans-94"/>
     <use x="704.296875" xlink:href="#DejaVuSans-50"/>
     <use x="767.919922" xlink:href="#DejaVuSans-41"/>
     <use x="806.933594" xlink:href="#DejaVuSans-58"/>
     <use x="840.625" xlink:href="#DejaVuSans-32"/>
    </g>
    <!--                 0.1665 -->
    <g transform="translate(754.774705 271.3218)scale(0.16 -0.16)">
     <use xlink:href="#DejaVuSans-32"/>
     <use x="31.787109" xlink:href="#DejaVuSans-32"/>
     <use x="63.574219" xlink:href="#DejaVuSans-32"/>
     <use x="95.361328" xlink:href="#DejaVuSans-32"/>
     <use x="127.148438" xlink:href="#DejaVuSans-32"/>
     <use x="158.935547" xlink:href="#DejaVuSans-32"/>
     <use x="190.722656" xlink:href="#DejaVuSans-32"/>
     <use x="222.509766" xlink:href="#DejaVuSans-32"/>
     <use x="254.296875" xlink:href="#DejaVuSans-32"/>
     <use x="286.083984" xlink:href="#DejaVuSans-32"/>
     <use x="317.871094" xlink:href="#DejaVuSans-32"/>
     <use x="349.658203" xlink:href="#DejaVuSans-32"/>
     <use x="381.445312" xlink:href="#DejaVuSans-32"/>
     <use x="413.232422" xlink:href="#DejaVuSans-32"/>
     <use x="445.019531" xlink:href="#DejaVuSans-32"/>
     <use x="476.806641" xlink:href="#DejaVuSans-32"/>
     <use x="508.59375" xlink:href="#DejaVuSans-48"/>
     <use x="572.216797" xlink:href="#DejaVuSans-46"/>
     <use x="604.003906" xlink:href="#DejaVuSans-49"/>
     <use x="667.626953" xlink:href="#DejaVuSans-54"/>
     <use x="731.25" xlink:href="#DejaVuSans-54"/>
     <use x="794.873047" xlink:href="#DejaVuSans-53"/>
    </g>
   </g>
   <g id="text_19">
    <!-- Vacant Buildings vs. Crime Incidences (2019) -->
    <defs>
     <path d="M 19.671875 34.8125 
L 19.671875 8.109375 
L 35.5 8.109375 
Q 43.453125 8.109375 47.28125 11.40625 
Q 51.125 14.703125 51.125 21.484375 
Q 51.125 28.328125 47.28125 31.5625 
Q 43.453125 34.8125 35.5 34.8125 
z
M 19.671875 64.796875 
L 19.671875 42.828125 
L 34.28125 42.828125 
Q 41.5 42.828125 45.03125 45.53125 
Q 48.578125 48.25 48.578125 53.8125 
Q 48.578125 59.328125 45.03125 62.0625 
Q 41.5 64.796875 34.28125 64.796875 
z
M 9.8125 72.90625 
L 35.015625 72.90625 
Q 46.296875 72.90625 52.390625 68.21875 
Q 58.5 63.53125 58.5 54.890625 
Q 58.5 48.1875 55.375 44.234375 
Q 52.25 40.28125 46.1875 39.3125 
Q 53.46875 37.75 57.5 32.78125 
Q 61.53125 27.828125 61.53125 20.40625 
Q 61.53125 10.640625 54.890625 5.3125 
Q 48.25 0 35.984375 0 
L 9.8125 0 
z
" id="DejaVuSans-66"/>
     <path d="M 45.40625 27.984375 
Q 45.40625 37.75 41.375 43.109375 
Q 37.359375 48.484375 30.078125 48.484375 
Q 22.859375 48.484375 18.828125 43.109375 
Q 14.796875 37.75 14.796875 27.984375 
Q 14.796875 18.265625 18.828125 12.890625 
Q 22.859375 7.515625 30.078125 7.515625 
Q 37.359375 7.515625 41.375 12.890625 
Q 45.40625 18.265625 45.40625 27.984375 
z
M 54.390625 6.78125 
Q 54.390625 -7.171875 48.1875 -13.984375 
Q 42 -20.796875 29.203125 -20.796875 
Q 24.46875 -20.796875 20.265625 -20.09375 
Q 16.0625 -19.390625 12.109375 -17.921875 
L 12.109375 -9.1875 
Q 16.0625 -11.328125 19.921875 -12.34375 
Q 23.78125 -13.375 27.78125 -13.375 
Q 36.625 -13.375 41.015625 -8.765625 
Q 45.40625 -4.15625 45.40625 5.171875 
L 45.40625 9.625 
Q 42.625 4.78125 38.28125 2.390625 
Q 33.9375 0 27.875 0 
Q 17.828125 0 11.671875 7.65625 
Q 5.515625 15.328125 5.515625 27.984375 
Q 5.515625 40.671875 11.671875 48.328125 
Q 17.828125 56 27.875 56 
Q 33.9375 56 38.28125 53.609375 
Q 42.625 51.21875 45.40625 46.390625 
L 45.40625 54.6875 
L 54.390625 54.6875 
z
" id="DejaVuSans-103"/>
     <path d="M 2.984375 54.6875 
L 12.5 54.6875 
L 29.59375 8.796875 
L 46.6875 54.6875 
L 56.203125 54.6875 
L 35.6875 0 
L 23.484375 0 
z
" id="DejaVuSans-118"/>
    </defs>
    <g transform="translate(181.744 21.789)scale(0.192 -0.192)">
     <use xlink:href="#DejaVuSans-86"/>
     <use x="60.658203" xlink:href="#DejaVuSans-97"/>
     <use x="121.9375" xlink:href="#DejaVuSans-99"/>
     <use x="176.917969" xlink:href="#DejaVuSans-97"/>
     <use x="238.197266" xlink:href="#DejaVuSans-110"/>
     <use x="301.576172" xlink:href="#DejaVuSans-116"/>
     <use x="340.785156" xlink:href="#DejaVuSans-32"/>
     <use x="372.572266" xlink:href="#DejaVuSans-66"/>
     <use x="441.175781" xlink:href="#DejaVuSans-117"/>
     <use x="504.554688" xlink:href="#DejaVuSans-105"/>
     <use x="532.337891" xlink:href="#DejaVuSans-108"/>
     <use x="560.121094" xlink:href="#DejaVuSans-100"/>
     <use x="623.597656" xlink:href="#DejaVuSans-105"/>
     <use x="651.380859" xlink:href="#DejaVuSans-110"/>
     <use x="714.759766" xlink:href="#DejaVuSans-103"/>
     <use x="778.236328" xlink:href="#DejaVuSans-115"/>
     <use x="830.335938" xlink:href="#DejaVuSans-32"/>
     <use x="862.123047" xlink:href="#DejaVuSans-118"/>
     <use x="921.302734" xlink:href="#DejaVuSans-115"/>
     <use x="973.402344" xlink:href="#DejaVuSans-46"/>
     <use x="1005.189453" xlink:href="#DejaVuSans-32"/>
     <use x="1036.976562" xlink:href="#DejaVuSans-67"/>
     <use x="1106.800781" xlink:href="#DejaVuSans-114"/>
     <use x="1147.914062" xlink:href="#DejaVuSans-105"/>
     <use x="1175.697266" xlink:href="#DejaVuSans-109"/>
     <use x="1273.109375" xlink:href="#DejaVuSans-101"/>
     <use x="1334.632812" xlink:href="#DejaVuSans-32"/>
     <use x="1366.419922" xlink:href="#DejaVuSans-73"/>
     <use x="1395.912109" xlink:href="#DejaVuSans-110"/>
     <use x="1459.291016" xlink:href="#DejaVuSans-99"/>
     <use x="1514.271484" xlink:href="#DejaVuSans-105"/>
     <use x="1542.054688" xlink:href="#DejaVuSans-100"/>
     <use x="1605.53125" xlink:href="#DejaVuSans-101"/>
     <use x="1667.054688" xlink:href="#DejaVuSans-110"/>
     <use x="1730.433594" xlink:href="#DejaVuSans-99"/>
     <use x="1785.414062" xlink:href="#DejaVuSans-101"/>
     <use x="1846.9375" xlink:href="#DejaVuSans-115"/>
     <use x="1899.037109" xlink:href="#DejaVuSans-32"/>
     <use x="1930.824219" xlink:href="#DejaVuSans-40"/>
     <use x="1969.837891" xlink:href="#DejaVuSans-50"/>
     <use x="2033.460938" xlink:href="#DejaVuSans-48"/>
     <use x="2097.083984" xlink:href="#DejaVuSans-49"/>
     <use x="2160.707031" xlink:href="#DejaVuSans-57"/>
     <use x="2224.330078" xlink:href="#DejaVuSans-41"/>
    </g>
   </g>
  </g>
 </g>
 <defs>
  <clipPath id="p9eff4a5e2d">
   <rect height="434.88" width="669.6" x="64.225" y="27.789"/>
  </clipPath>
 </defs>
</svg>
