<?xml version="1.0" encoding="utf-8" standalone="no"?>
<!DOCTYPE svg PUBLIC "-//W3C//DTD SVG 1.1//EN"
  "http://www.w3.org/Graphics/SVG/1.1/DTD/svg11.dtd">
<!-- Created with matplotlib (https://matplotlib.org/) -->
<svg height="262.19625pt" version="1.1" viewBox="0 0 382.603125 262.19625" width="382.603125pt" xmlns="http://www.w3.org/2000/svg" xmlns:xlink="http://www.w3.org/1999/xlink">
 <defs>
  <style type="text/css">
*{stroke-linecap:butt;stroke-linejoin:round;}
  </style>
 </defs>
 <g id="figure_1">
  <g id="patch_1">
   <path d="M 0 262.19625 
L 382.603125 262.19625 
L 382.603125 0 
L 0 0 
z
" style="fill:#ffffff;"/>
  </g>
  <g id="axes_1">
   <g id="patch_2">
    <path d="M 40.603125 224.64 
L 375.403125 224.64 
L 375.403125 7.2 
L 40.603125 7.2 
z
" style="fill:#ffffff;"/>
   </g>
   <g id="PathCollection_1">
    <defs>
     <path d="M 0 3 
C 0.795609 3 1.55874 2.683901 2.12132 2.12132 
C 2.683901 1.55874 3 0.795609 3 0 
C 3 -0.795609 2.683901 -1.55874 2.12132 -2.12132 
C 1.55874 -2.683901 0.795609 -3 0 -3 
C -0.795609 -3 -1.55874 -2.683901 -2.12132 -2.12132 
C -2.683901 -1.55874 -3 -0.795609 -3 0 
C -3 0.795609 -2.683901 1.55874 -2.12132 2.12132 
C -1.55874 2.683901 -0.795609 3 0 3 
z
" id="mfa91edf9b0" style="stroke:#1f77b4;"/>
    </defs>
    <g clip-path="url(#pc0c6308d98)">
     <use style="fill:#1f77b4;stroke:#1f77b4;" x="180.333704" xlink:href="#mfa91edf9b0" y="143.444572"/>
     <use style="fill:#1f77b4;stroke:#1f77b4;" x="137.227657" xlink:href="#mfa91edf9b0" y="214.756364"/>
     <use style="fill:#1f77b4;stroke:#1f77b4;" x="99.072981" xlink:href="#mfa91edf9b0" y="115.873697"/>
     <use style="fill:#1f77b4;stroke:#1f77b4;" x="69.656018" xlink:href="#mfa91edf9b0" y="214.288971"/>
     <use style="fill:#1f77b4;stroke:#1f77b4;" x="69.656018" xlink:href="#mfa91edf9b0" y="214.741635"/>
     <use style="fill:#1f77b4;stroke:#1f77b4;" x="97.616696" xlink:href="#mfa91edf9b0" y="214.478546"/>
     <use style="fill:#1f77b4;stroke:#1f77b4;" x="81.3063" xlink:href="#mfa91edf9b0" y="214.178996"/>
     <use style="fill:#1f77b4;stroke:#1f77b4;" x="80.723786" xlink:href="#mfa91edf9b0" y="214.566007"/>
     <use style="fill:#1f77b4;stroke:#1f77b4;" x="97.325439" xlink:href="#mfa91edf9b0" y="214.756364"/>
     <use style="fill:#1f77b4;stroke:#1f77b4;" x="139.266457" xlink:href="#mfa91edf9b0" y="214.756364"/>
     <use style="fill:#1f77b4;stroke:#1f77b4;" x="70.821046" xlink:href="#mfa91edf9b0" y="214.756364"/>
     <use style="fill:#1f77b4;stroke:#1f77b4;" x="80.723786" xlink:href="#mfa91edf9b0" y="214.756364"/>
     <use style="fill:#1f77b4;stroke:#1f77b4;" x="74.898645" xlink:href="#mfa91edf9b0" y="214.756364"/>
     <use style="fill:#1f77b4;stroke:#1f77b4;" x="110.723264" xlink:href="#mfa91edf9b0" y="142.585393"/>
     <use style="fill:#1f77b4;stroke:#1f77b4;" x="78.39373" xlink:href="#mfa91edf9b0" y="214.632642"/>
     <use style="fill:#1f77b4;stroke:#1f77b4;" x="71.112303" xlink:href="#mfa91edf9b0" y="214.756364"/>
     <use style="fill:#1f77b4;stroke:#1f77b4;" x="127.616174" xlink:href="#mfa91edf9b0" y="45.028571"/>
     <use style="fill:#1f77b4;stroke:#1f77b4;" x="87.131442" xlink:href="#mfa91edf9b0" y="214.566007"/>
     <use style="fill:#1f77b4;stroke:#1f77b4;" x="96.742925" xlink:href="#mfa91edf9b0" y="150.668542"/>
     <use style="fill:#1f77b4;stroke:#1f77b4;" x="72.568588" xlink:href="#mfa91edf9b0" y="214.756364"/>
     <use style="fill:#1f77b4;stroke:#1f77b4;" x="111.014521" xlink:href="#mfa91edf9b0" y="202.830764"/>
     <use style="fill:#1f77b4;stroke:#1f77b4;" x="161.693251" xlink:href="#mfa91edf9b0" y="128.838542"/>
     <use style="fill:#1f77b4;stroke:#1f77b4;" x="72.568588" xlink:href="#mfa91edf9b0" y="209.223256"/>
     <use style="fill:#1f77b4;stroke:#1f77b4;" x="144.800341" xlink:href="#mfa91edf9b0" y="214.740929"/>
     <use style="fill:#1f77b4;stroke:#1f77b4;" x="106.936922" xlink:href="#mfa91edf9b0" y="141.023711"/>
     <use style="fill:#1f77b4;stroke:#1f77b4;" x="111.014521" xlink:href="#mfa91edf9b0" y="214.756364"/>
     <use style="fill:#1f77b4;stroke:#1f77b4;" x="76.646187" xlink:href="#mfa91edf9b0" y="214.756364"/>
     <use style="fill:#1f77b4;stroke:#1f77b4;" x="94.121611" xlink:href="#mfa91edf9b0" y="66.678225"/>
     <use style="fill:#1f77b4;stroke:#1f77b4;" x="80.141272" xlink:href="#mfa91edf9b0" y="214.172122"/>
     <use style="fill:#1f77b4;stroke:#1f77b4;" x="96.742925" xlink:href="#mfa91edf9b0" y="143.158179"/>
     <use style="fill:#1f77b4;stroke:#1f77b4;" x="163.440794" xlink:href="#mfa91edf9b0" y="108.835638"/>
     <use style="fill:#1f77b4;stroke:#1f77b4;" x="204.50804" xlink:href="#mfa91edf9b0" y="141.308082"/>
     <use style="fill:#1f77b4;stroke:#1f77b4;" x="171.595991" xlink:href="#mfa91edf9b0" y="214.015322"/>
     <use style="fill:#1f77b4;stroke:#1f77b4;" x="200.139184" xlink:href="#mfa91edf9b0" y="143.444572"/>
     <use style="fill:#1f77b4;stroke:#1f77b4;" x="76.063673" xlink:href="#mfa91edf9b0" y="214.756364"/>
     <use style="fill:#1f77b4;stroke:#1f77b4;" x="104.898123" xlink:href="#mfa91edf9b0" y="214.399834"/>
     <use style="fill:#1f77b4;stroke:#1f77b4;" x="73.733617" xlink:href="#mfa91edf9b0" y="214.756364"/>
     <use style="fill:#1f77b4;stroke:#1f77b4;" x="229.847405" xlink:href="#mfa91edf9b0" y="212.625602"/>
     <use style="fill:#1f77b4;stroke:#1f77b4;" x="167.227135" xlink:href="#mfa91edf9b0" y="170.711904"/>
     <use style="fill:#1f77b4;stroke:#1f77b4;" x="87.131442" xlink:href="#mfa91edf9b0" y="214.756364"/>
     <use style="fill:#1f77b4;stroke:#1f77b4;" x="106.063151" xlink:href="#mfa91edf9b0" y="214.756364"/>
     <use style="fill:#1f77b4;stroke:#1f77b4;" x="69.656018" xlink:href="#mfa91edf9b0" y="214.756364"/>
     <use style="fill:#1f77b4;stroke:#1f77b4;" x="69.656018" xlink:href="#mfa91edf9b0" y="117.064364"/>
     <use style="fill:#1f77b4;stroke:#1f77b4;" x="106.063151" xlink:href="#mfa91edf9b0" y="21.434391"/>
     <use style="fill:#1f77b4;stroke:#1f77b4;" x="186.158845" xlink:href="#mfa91edf9b0" y="213.470169"/>
     <use style="fill:#1f77b4;stroke:#1f77b4;" x="113.635835" xlink:href="#mfa91edf9b0" y="168.412291"/>
     <use style="fill:#1f77b4;stroke:#1f77b4;" x="95.28664" xlink:href="#mfa91edf9b0" y="214.756364"/>
     <use style="fill:#1f77b4;stroke:#1f77b4;" x="150.91674" xlink:href="#mfa91edf9b0" y="214.120572"/>
     <use style="fill:#1f77b4;stroke:#1f77b4;" x="90.044012" xlink:href="#mfa91edf9b0" y="214.405819"/>
     <use style="fill:#1f77b4;stroke:#1f77b4;" x="85.675156" xlink:href="#mfa91edf9b0" y="214.756364"/>
     <use style="fill:#1f77b4;stroke:#1f77b4;" x="80.432529" xlink:href="#mfa91edf9b0" y="212.39491"/>
     <use style="fill:#1f77b4;stroke:#1f77b4;" x="79.558758" xlink:href="#mfa91edf9b0" y="214.756364"/>
     <use style="fill:#1f77b4;stroke:#1f77b4;" x="74.898645" xlink:href="#mfa91edf9b0" y="143.444572"/>
     <use style="fill:#1f77b4;stroke:#1f77b4;" x="121.791033" xlink:href="#mfa91edf9b0" y="214.756364"/>
     <use style="fill:#1f77b4;stroke:#1f77b4;" x="121.208519" xlink:href="#mfa91edf9b0" y="138.711374"/>
     <use style="fill:#1f77b4;stroke:#1f77b4;" x="102.276809" xlink:href="#mfa91edf9b0" y="72.167147"/>
     <use style="fill:#1f77b4;stroke:#1f77b4;" x="94.412868" xlink:href="#mfa91edf9b0" y="213.871462"/>
     <use style="fill:#1f77b4;stroke:#1f77b4;" x="90.044012" xlink:href="#mfa91edf9b0" y="210.491341"/>
     <use style="fill:#1f77b4;stroke:#1f77b4;" x="113.053321" xlink:href="#mfa91edf9b0" y="213.470169"/>
     <use style="fill:#1f77b4;stroke:#1f77b4;" x="98.490467" xlink:href="#mfa91edf9b0" y="213.671727"/>
     <use style="fill:#1f77b4;stroke:#1f77b4;" x="78.39373" xlink:href="#mfa91edf9b0" y="148.002846"/>
     <use style="fill:#1f77b4;stroke:#1f77b4;" x="99.364239" xlink:href="#mfa91edf9b0" y="161.054288"/>
     <use style="fill:#1f77b4;stroke:#1f77b4;" x="81.3063" xlink:href="#mfa91edf9b0" y="214.756364"/>
     <use style="fill:#1f77b4;stroke:#1f77b4;" x="208.003125" xlink:href="#mfa91edf9b0" y="148.908945"/>
     <use style="fill:#1f77b4;stroke:#1f77b4;" x="346.350232" xlink:href="#mfa91edf9b0" y="213.381678"/>
     <use style="fill:#1f77b4;stroke:#1f77b4;" x="148.295426" xlink:href="#mfa91edf9b0" y="214.756364"/>
     <use style="fill:#1f77b4;stroke:#1f77b4;" x="95.577897" xlink:href="#mfa91edf9b0" y="212.928032"/>
     <use style="fill:#1f77b4;stroke:#1f77b4;" x="77.811215" xlink:href="#mfa91edf9b0" y="214.756364"/>
     <use style="fill:#1f77b4;stroke:#1f77b4;" x="76.063673" xlink:href="#mfa91edf9b0" y="214.756364"/>
     <use style="fill:#1f77b4;stroke:#1f77b4;" x="88.878984" xlink:href="#mfa91edf9b0" y="214.756364"/>
     <use style="fill:#1f77b4;stroke:#1f77b4;" x="78.684987" xlink:href="#mfa91edf9b0" y="214.756364"/>
     <use style="fill:#1f77b4;stroke:#1f77b4;" x="87.422699" xlink:href="#mfa91edf9b0" y="142.777337"/>
     <use style="fill:#1f77b4;stroke:#1f77b4;" x="159.363195" xlink:href="#mfa91edf9b0" y="142.729447"/>
     <use style="fill:#1f77b4;stroke:#1f77b4;" x="78.39373" xlink:href="#mfa91edf9b0" y="214.756364"/>
     <use style="fill:#1f77b4;stroke:#1f77b4;" x="119.752233" xlink:href="#mfa91edf9b0" y="214.756364"/>
     <use style="fill:#1f77b4;stroke:#1f77b4;" x="72.277331" xlink:href="#mfa91edf9b0" y="142.595683"/>
     <use style="fill:#1f77b4;stroke:#1f77b4;" x="176.256105" xlink:href="#mfa91edf9b0" y="214.4883"/>
     <use style="fill:#1f77b4;stroke:#1f77b4;" x="69.656018" xlink:href="#mfa91edf9b0" y="214.756364"/>
     <use style="fill:#1f77b4;stroke:#1f77b4;" x="85.383899" xlink:href="#mfa91edf9b0" y="214.756364"/>
     <use style="fill:#1f77b4;stroke:#1f77b4;" x="69.656018" xlink:href="#mfa91edf9b0" y="153.903634"/>
     <use style="fill:#1f77b4;stroke:#1f77b4;" x="85.383899" xlink:href="#mfa91edf9b0" y="214.756364"/>
     <use style="fill:#1f77b4;stroke:#1f77b4;" x="113.344578" xlink:href="#mfa91edf9b0" y="213.692009"/>
     <use style="fill:#1f77b4;stroke:#1f77b4;" x="69.656018" xlink:href="#mfa91edf9b0" y="212.498267"/>
     <use style="fill:#1f77b4;stroke:#1f77b4;" x="135.771372" xlink:href="#mfa91edf9b0" y="143.444572"/>
     <use style="fill:#1f77b4;stroke:#1f77b4;" x="78.39373" xlink:href="#mfa91edf9b0" y="142.441051"/>
     <use style="fill:#1f77b4;stroke:#1f77b4;" x="138.683943" xlink:href="#mfa91edf9b0" y="107.863138"/>
     <use style="fill:#1f77b4;stroke:#1f77b4;" x="250.2354" xlink:href="#mfa91edf9b0" y="212.425127"/>
     <use style="fill:#1f77b4;stroke:#1f77b4;" x="177.421133" xlink:href="#mfa91edf9b0" y="214.756364"/>
     <use style="fill:#1f77b4;stroke:#1f77b4;" x="151.207997" xlink:href="#mfa91edf9b0" y="214.756364"/>
     <use style="fill:#1f77b4;stroke:#1f77b4;" x="110.14075" xlink:href="#mfa91edf9b0" y="144.30375"/>
     <use style="fill:#1f77b4;stroke:#1f77b4;" x="69.947275" xlink:href="#mfa91edf9b0" y="214.756364"/>
     <use style="fill:#1f77b4;stroke:#1f77b4;" x="80.432529" xlink:href="#mfa91edf9b0" y="142.729447"/>
     <use style="fill:#1f77b4;stroke:#1f77b4;" x="94.704125" xlink:href="#mfa91edf9b0" y="214.756364"/>
     <use style="fill:#1f77b4;stroke:#1f77b4;" x="123.829832" xlink:href="#mfa91edf9b0" y="208.664944"/>
     <use style="fill:#1f77b4;stroke:#1f77b4;" x="108.684465" xlink:href="#mfa91edf9b0" y="143.444572"/>
     <use style="fill:#1f77b4;stroke:#1f77b4;" x="103.441837" xlink:href="#mfa91edf9b0" y="213.972793"/>
     <use style="fill:#1f77b4;stroke:#1f77b4;" x="90.917784" xlink:href="#mfa91edf9b0" y="214.756364"/>
     <use style="fill:#1f77b4;stroke:#1f77b4;" x="84.218871" xlink:href="#mfa91edf9b0" y="143.444572"/>
     <use style="fill:#1f77b4;stroke:#1f77b4;" x="72.568588" xlink:href="#mfa91edf9b0" y="141.870557"/>
     <use style="fill:#1f77b4;stroke:#1f77b4;" x="77.228701" xlink:href="#mfa91edf9b0" y="214.756364"/>
     <use style="fill:#1f77b4;stroke:#1f77b4;" x="75.772416" xlink:href="#mfa91edf9b0" y="214.716269"/>
     <use style="fill:#1f77b4;stroke:#1f77b4;" x="83.927614" xlink:href="#mfa91edf9b0" y="154.710116"/>
     <use style="fill:#1f77b4;stroke:#1f77b4;" x="74.607388" xlink:href="#mfa91edf9b0" y="214.756364"/>
     <use style="fill:#1f77b4;stroke:#1f77b4;" x="84.218871" xlink:href="#mfa91edf9b0" y="152.638293"/>
     <use style="fill:#1f77b4;stroke:#1f77b4;" x="79.267501" xlink:href="#mfa91edf9b0" y="214.756364"/>
     <use style="fill:#1f77b4;stroke:#1f77b4;" x="89.170241" xlink:href="#mfa91edf9b0" y="214.756364"/>
     <use style="fill:#1f77b4;stroke:#1f77b4;" x="117.13092" xlink:href="#mfa91edf9b0" y="214.010371"/>
     <use style="fill:#1f77b4;stroke:#1f77b4;" x="95.577897" xlink:href="#mfa91edf9b0" y="152.964266"/>
     <use style="fill:#1f77b4;stroke:#1f77b4;" x="157.033138" xlink:href="#mfa91edf9b0" y="214.756364"/>
     <use style="fill:#1f77b4;stroke:#1f77b4;" x="79.267501" xlink:href="#mfa91edf9b0" y="214.756364"/>
     <use style="fill:#1f77b4;stroke:#1f77b4;" x="70.821046" xlink:href="#mfa91edf9b0" y="214.756364"/>
     <use style="fill:#1f77b4;stroke:#1f77b4;" x="172.469763" xlink:href="#mfa91edf9b0" y="200.916906"/>
     <use style="fill:#1f77b4;stroke:#1f77b4;" x="202.177984" xlink:href="#mfa91edf9b0" y="149.978442"/>
     <use style="fill:#1f77b4;stroke:#1f77b4;" x="81.3063" xlink:href="#mfa91edf9b0" y="214.756364"/>
     <use style="fill:#1f77b4;stroke:#1f77b4;" x="104.606866" xlink:href="#mfa91edf9b0" y="161.15739"/>
     <use style="fill:#1f77b4;stroke:#1f77b4;" x="117.13092" xlink:href="#mfa91edf9b0" y="213.433229"/>
     <use style="fill:#1f77b4;stroke:#1f77b4;" x="293.632703" xlink:href="#mfa91edf9b0" y="143.158179"/>
     <use style="fill:#1f77b4;stroke:#1f77b4;" x="91.791555" xlink:href="#mfa91edf9b0" y="214.756364"/>
     <use style="fill:#1f77b4;stroke:#1f77b4;" x="87.131442" xlink:href="#mfa91edf9b0" y="18.302949"/>
     <use style="fill:#1f77b4;stroke:#1f77b4;" x="85.675156" xlink:href="#mfa91edf9b0" y="214.756364"/>
     <use style="fill:#1f77b4;stroke:#1f77b4;" x="72.568588" xlink:href="#mfa91edf9b0" y="143.866444"/>
     <use style="fill:#1f77b4;stroke:#1f77b4;" x="69.947275" xlink:href="#mfa91edf9b0" y="142.729447"/>
     <use style="fill:#1f77b4;stroke:#1f77b4;" x="104.024352" xlink:href="#mfa91edf9b0" y="214.062148"/>
     <use style="fill:#1f77b4;stroke:#1f77b4;" x="150.042968" xlink:href="#mfa91edf9b0" y="146.943022"/>
     <use style="fill:#1f77b4;stroke:#1f77b4;" x="169.265935" xlink:href="#mfa91edf9b0" y="143.444572"/>
     <use style="fill:#1f77b4;stroke:#1f77b4;" x="94.121611" xlink:href="#mfa91edf9b0" y="214.756364"/>
     <use style="fill:#1f77b4;stroke:#1f77b4;" x="127.907431" xlink:href="#mfa91edf9b0" y="214.47648"/>
     <use style="fill:#1f77b4;stroke:#1f77b4;" x="200.721698" xlink:href="#mfa91edf9b0" y="214.756364"/>
     <use style="fill:#1f77b4;stroke:#1f77b4;" x="78.39373" xlink:href="#mfa91edf9b0" y="75.831876"/>
     <use style="fill:#1f77b4;stroke:#1f77b4;" x="161.984508" xlink:href="#mfa91edf9b0" y="160.736176"/>
     <use style="fill:#1f77b4;stroke:#1f77b4;" x="87.131442" xlink:href="#mfa91edf9b0" y="214.756364"/>
     <use style="fill:#1f77b4;stroke:#1f77b4;" x="142.470285" xlink:href="#mfa91edf9b0" y="141.954528"/>
     <use style="fill:#1f77b4;stroke:#1f77b4;" x="86.840185" xlink:href="#mfa91edf9b0" y="214.756364"/>
     <use style="fill:#1f77b4;stroke:#1f77b4;" x="69.656018" xlink:href="#mfa91edf9b0" y="212.625602"/>
     <use style="fill:#1f77b4;stroke:#1f77b4;" x="80.723786" xlink:href="#mfa91edf9b0" y="214.756364"/>
     <use style="fill:#1f77b4;stroke:#1f77b4;" x="153.82931" xlink:href="#mfa91edf9b0" y="214.756364"/>
     <use style="fill:#1f77b4;stroke:#1f77b4;" x="131.693773" xlink:href="#mfa91edf9b0" y="213.828451"/>
     <use style="fill:#1f77b4;stroke:#1f77b4;" x="119.169719" xlink:href="#mfa91edf9b0" y="211.965753"/>
     <use style="fill:#1f77b4;stroke:#1f77b4;" x="129.654974" xlink:href="#mfa91edf9b0" y="210.954371"/>
     <use style="fill:#1f77b4;stroke:#1f77b4;" x="85.383899" xlink:href="#mfa91edf9b0" y="156.630642"/>
     <use style="fill:#1f77b4;stroke:#1f77b4;" x="69.656018" xlink:href="#mfa91edf9b0" y="145.394443"/>
     <use style="fill:#1f77b4;stroke:#1f77b4;" x="132.858801" xlink:href="#mfa91edf9b0" y="214.756364"/>
     <use style="fill:#1f77b4;stroke:#1f77b4;" x="145.965369" xlink:href="#mfa91edf9b0" y="214.756364"/>
     <use style="fill:#1f77b4;stroke:#1f77b4;" x="97.907953" xlink:href="#mfa91edf9b0" y="214.756364"/>
     <use style="fill:#1f77b4;stroke:#1f77b4;" x="69.656018" xlink:href="#mfa91edf9b0" y="214.756364"/>
     <use style="fill:#1f77b4;stroke:#1f77b4;" x="180.333704" xlink:href="#mfa91edf9b0" y="149.197629"/>
     <use style="fill:#1f77b4;stroke:#1f77b4;" x="75.772416" xlink:href="#mfa91edf9b0" y="214.756364"/>
     <use style="fill:#1f77b4;stroke:#1f77b4;" x="72.568588" xlink:href="#mfa91edf9b0" y="214.641807"/>
     <use style="fill:#1f77b4;stroke:#1f77b4;" x="113.344578" xlink:href="#mfa91edf9b0" y="143.49275"/>
     <use style="fill:#1f77b4;stroke:#1f77b4;" x="82.180071" xlink:href="#mfa91edf9b0" y="72.13278"/>
     <use style="fill:#1f77b4;stroke:#1f77b4;" x="117.713434" xlink:href="#mfa91edf9b0" y="214.124008"/>
     <use style="fill:#1f77b4;stroke:#1f77b4;" x="183.246274" xlink:href="#mfa91edf9b0" y="68.579219"/>
     <use style="fill:#1f77b4;stroke:#1f77b4;" x="148.004169" xlink:href="#mfa91edf9b0" y="211.161562"/>
     <use style="fill:#1f77b4;stroke:#1f77b4;" x="138.101429" xlink:href="#mfa91edf9b0" y="214.756364"/>
     <use style="fill:#1f77b4;stroke:#1f77b4;" x="69.656018" xlink:href="#mfa91edf9b0" y="160.772478"/>
     <use style="fill:#1f77b4;stroke:#1f77b4;" x="69.656018" xlink:href="#mfa91edf9b0" y="211.767247"/>
     <use style="fill:#1f77b4;stroke:#1f77b4;" x="75.772416" xlink:href="#mfa91edf9b0" y="214.756364"/>
     <use style="fill:#1f77b4;stroke:#1f77b4;" x="77.519958" xlink:href="#mfa91edf9b0" y="214.756364"/>
     <use style="fill:#1f77b4;stroke:#1f77b4;" x="132.567544" xlink:href="#mfa91edf9b0" y="214.326775"/>
     <use style="fill:#1f77b4;stroke:#1f77b4;" x="87.713956" xlink:href="#mfa91edf9b0" y="213.915863"/>
     <use style="fill:#1f77b4;stroke:#1f77b4;" x="89.461498" xlink:href="#mfa91edf9b0" y="209.508688"/>
     <use style="fill:#1f77b4;stroke:#1f77b4;" x="172.469763" xlink:href="#mfa91edf9b0" y="214.756364"/>
     <use style="fill:#1f77b4;stroke:#1f77b4;" x="134.897601" xlink:href="#mfa91edf9b0" y="214.756364"/>
     <use style="fill:#1f77b4;stroke:#1f77b4;" x="92.956583" xlink:href="#mfa91edf9b0" y="140.337125"/>
     <use style="fill:#1f77b4;stroke:#1f77b4;" x="111.597035" xlink:href="#mfa91edf9b0" y="214.756364"/>
     <use style="fill:#1f77b4;stroke:#1f77b4;" x="84.218871" xlink:href="#mfa91edf9b0" y="214.756364"/>
     <use style="fill:#1f77b4;stroke:#1f77b4;" x="85.092642" xlink:href="#mfa91edf9b0" y="214.756364"/>
     <use style="fill:#1f77b4;stroke:#1f77b4;" x="72.568588" xlink:href="#mfa91edf9b0" y="214.756364"/>
     <use style="fill:#1f77b4;stroke:#1f77b4;" x="70.238532" xlink:href="#mfa91edf9b0" y="160.736176"/>
     <use style="fill:#1f77b4;stroke:#1f77b4;" x="99.072981" xlink:href="#mfa91edf9b0" y="214.756364"/>
     <use style="fill:#1f77b4;stroke:#1f77b4;" x="85.383899" xlink:href="#mfa91edf9b0" y="153.996515"/>
     <use style="fill:#1f77b4;stroke:#1f77b4;" x="186.450102" xlink:href="#mfa91edf9b0" y="214.460806"/>
     <use style="fill:#1f77b4;stroke:#1f77b4;" x="69.656018" xlink:href="#mfa91edf9b0" y="214.756364"/>
     <use style="fill:#1f77b4;stroke:#1f77b4;" x="79.850015" xlink:href="#mfa91edf9b0" y="214.756364"/>
     <use style="fill:#1f77b4;stroke:#1f77b4;" x="90.044012" xlink:href="#mfa91edf9b0" y="148.537904"/>
     <use style="fill:#1f77b4;stroke:#1f77b4;" x="69.656018" xlink:href="#mfa91edf9b0" y="214.756364"/>
     <use style="fill:#1f77b4;stroke:#1f77b4;" x="98.781724" xlink:href="#mfa91edf9b0" y="203.75157"/>
     <use style="fill:#1f77b4;stroke:#1f77b4;" x="102.859323" xlink:href="#mfa91edf9b0" y="99.592115"/>
     <use style="fill:#1f77b4;stroke:#1f77b4;" x="69.656018" xlink:href="#mfa91edf9b0" y="17.083636"/>
     <use style="fill:#1f77b4;stroke:#1f77b4;" x="118.295948" xlink:href="#mfa91edf9b0" y="138.978903"/>
     <use style="fill:#1f77b4;stroke:#1f77b4;" x="79.267501" xlink:href="#mfa91edf9b0" y="214.540283"/>
     <use style="fill:#1f77b4;stroke:#1f77b4;" x="119.752233" xlink:href="#mfa91edf9b0" y="178.966436"/>
     <use style="fill:#1f77b4;stroke:#1f77b4;" x="118.004691" xlink:href="#mfa91edf9b0" y="144.015642"/>
     <use style="fill:#1f77b4;stroke:#1f77b4;" x="78.976244" xlink:href="#mfa91edf9b0" y="214.756364"/>
     <use style="fill:#1f77b4;stroke:#1f77b4;" x="212.371981" xlink:href="#mfa91edf9b0" y="214.756364"/>
     <use style="fill:#1f77b4;stroke:#1f77b4;" x="69.656018" xlink:href="#mfa91edf9b0" y="214.701376"/>
     <use style="fill:#1f77b4;stroke:#1f77b4;" x="79.850015" xlink:href="#mfa91edf9b0" y="118.239719"/>
     <use style="fill:#1f77b4;stroke:#1f77b4;" x="77.811215" xlink:href="#mfa91edf9b0" y="214.756364"/>
     <use style="fill:#1f77b4;stroke:#1f77b4;" x="191.983986" xlink:href="#mfa91edf9b0" y="148.126321"/>
     <use style="fill:#1f77b4;stroke:#1f77b4;" x="258.973112" xlink:href="#mfa91edf9b0" y="214.442532"/>
     <use style="fill:#1f77b4;stroke:#1f77b4;" x="76.937444" xlink:href="#mfa91edf9b0" y="189.524018"/>
     <use style="fill:#1f77b4;stroke:#1f77b4;" x="81.3063" xlink:href="#mfa91edf9b0" y="177.804827"/>
     <use style="fill:#1f77b4;stroke:#1f77b4;" x="121.499776" xlink:href="#mfa91edf9b0" y="129.867498"/>
     <use style="fill:#1f77b4;stroke:#1f77b4;" x="182.372503" xlink:href="#mfa91edf9b0" y="214.756364"/>
     <use style="fill:#1f77b4;stroke:#1f77b4;" x="107.519436" xlink:href="#mfa91edf9b0" y="213.856027"/>
     <use style="fill:#1f77b4;stroke:#1f77b4;" x="69.656018" xlink:href="#mfa91edf9b0" y="214.051397"/>
     <use style="fill:#1f77b4;stroke:#1f77b4;" x="104.315609" xlink:href="#mfa91edf9b0" y="214.756364"/>
     <use style="fill:#1f77b4;stroke:#1f77b4;" x="72.859845" xlink:href="#mfa91edf9b0" y="209.827665"/>
     <use style="fill:#1f77b4;stroke:#1f77b4;" x="74.024874" xlink:href="#mfa91edf9b0" y="214.756364"/>
     <use style="fill:#1f77b4;stroke:#1f77b4;" x="142.179028" xlink:href="#mfa91edf9b0" y="152.895532"/>
     <use style="fill:#1f77b4;stroke:#1f77b4;" x="74.898645" xlink:href="#mfa91edf9b0" y="151.799694"/>
     <use style="fill:#1f77b4;stroke:#1f77b4;" x="137.810172" xlink:href="#mfa91edf9b0" y="214.756364"/>
     <use style="fill:#1f77b4;stroke:#1f77b4;" x="195.479071" xlink:href="#mfa91edf9b0" y="117.841061"/>
     <use style="fill:#1f77b4;stroke:#1f77b4;" x="98.490467" xlink:href="#mfa91edf9b0" y="212.756197"/>
     <use style="fill:#1f77b4;stroke:#1f77b4;" x="184.70256" xlink:href="#mfa91edf9b0" y="214.756364"/>
     <use style="fill:#1f77b4;stroke:#1f77b4;" x="69.656018" xlink:href="#mfa91edf9b0" y="214.252312"/>
     <use style="fill:#1f77b4;stroke:#1f77b4;" x="136.645143" xlink:href="#mfa91edf9b0" y="214.756364"/>
     <use style="fill:#1f77b4;stroke:#1f77b4;" x="71.694817" xlink:href="#mfa91edf9b0" y="214.756364"/>
     <use style="fill:#1f77b4;stroke:#1f77b4;" x="108.101951" xlink:href="#mfa91edf9b0" y="34.637625"/>
     <use style="fill:#1f77b4;stroke:#1f77b4;" x="103.733095" xlink:href="#mfa91edf9b0" y="213.072374"/>
     <use style="fill:#1f77b4;stroke:#1f77b4;" x="130.528745" xlink:href="#mfa91edf9b0" y="214.756364"/>
     <use style="fill:#1f77b4;stroke:#1f77b4;" x="69.656018" xlink:href="#mfa91edf9b0" y="214.756364"/>
     <use style="fill:#1f77b4;stroke:#1f77b4;" x="118.004691" xlink:href="#mfa91edf9b0" y="214.344781"/>
     <use style="fill:#1f77b4;stroke:#1f77b4;" x="160.236966" xlink:href="#mfa91edf9b0" y="213.470169"/>
     <use style="fill:#1f77b4;stroke:#1f77b4;" x="124.121089" xlink:href="#mfa91edf9b0" y="162.057809"/>
     <use style="fill:#1f77b4;stroke:#1f77b4;" x="81.3063" xlink:href="#mfa91edf9b0" y="214.756364"/>
     <use style="fill:#1f77b4;stroke:#1f77b4;" x="71.112303" xlink:href="#mfa91edf9b0" y="214.756364"/>
     <use style="fill:#1f77b4;stroke:#1f77b4;" x="72.568588" xlink:href="#mfa91edf9b0" y="212.801347"/>
     <use style="fill:#1f77b4;stroke:#1f77b4;" x="96.742925" xlink:href="#mfa91edf9b0" y="146.022106"/>
     <use style="fill:#1f77b4;stroke:#1f77b4;" x="169.265935" xlink:href="#mfa91edf9b0" y="146.801095"/>
     <use style="fill:#1f77b4;stroke:#1f77b4;" x="145.382855" xlink:href="#mfa91edf9b0" y="214.756364"/>
     <use style="fill:#1f77b4;stroke:#1f77b4;" x="81.3063" xlink:href="#mfa91edf9b0" y="214.756364"/>
     <use style="fill:#1f77b4;stroke:#1f77b4;" x="130.528745" xlink:href="#mfa91edf9b0" y="200.940778"/>
     <use style="fill:#1f77b4;stroke:#1f77b4;" x="72.568588" xlink:href="#mfa91edf9b0" y="207.342736"/>
     <use style="fill:#1f77b4;stroke:#1f77b4;" x="69.656018" xlink:href="#mfa91edf9b0" y="214.756364"/>
     <use style="fill:#1f77b4;stroke:#1f77b4;" x="69.656018" xlink:href="#mfa91edf9b0" y="150.668542"/>
     <use style="fill:#1f77b4;stroke:#1f77b4;" x="108.975722" xlink:href="#mfa91edf9b0" y="213.470169"/>
     <use style="fill:#1f77b4;stroke:#1f77b4;" x="133.732573" xlink:href="#mfa91edf9b0" y="53.807074"/>
     <use style="fill:#1f77b4;stroke:#1f77b4;" x="121.791033" xlink:href="#mfa91edf9b0" y="156.662169"/>
    </g>
   </g>
   <g id="matplotlib.axis_1">
    <g id="xtick_1">
     <g id="line2d_1">
      <defs>
       <path d="M 0 0 
L 0 3.5 
" id="meb8074c030" style="stroke:#000000;stroke-width:0.8;"/>
      </defs>
      <g>
       <use style="stroke:#000000;stroke-width:0.8;" x="69.656018" xlink:href="#meb8074c030" y="224.64"/>
      </g>
     </g>
     <g id="text_1">
      <!-- 0 -->
      <defs>
       <path d="M 31.78125 66.40625 
Q 24.171875 66.40625 20.328125 58.90625 
Q 16.5 51.421875 16.5 36.375 
Q 16.5 21.390625 20.328125 13.890625 
Q 24.171875 6.390625 31.78125 6.390625 
Q 39.453125 6.390625 43.28125 13.890625 
Q 47.125 21.390625 47.125 36.375 
Q 47.125 51.421875 43.28125 58.90625 
Q 39.453125 66.40625 31.78125 66.40625 
z
M 31.78125 74.21875 
Q 44.046875 74.21875 50.515625 64.515625 
Q 56.984375 54.828125 56.984375 36.375 
Q 56.984375 17.96875 50.515625 8.265625 
Q 44.046875 -1.421875 31.78125 -1.421875 
Q 19.53125 -1.421875 13.0625 8.265625 
Q 6.59375 17.96875 6.59375 36.375 
Q 6.59375 54.828125 13.0625 64.515625 
Q 19.53125 74.21875 31.78125 74.21875 
z
" id="DejaVuSans-48"/>
      </defs>
      <g transform="translate(66.474768 239.238437)scale(0.1 -0.1)">
       <use xlink:href="#DejaVuSans-48"/>
      </g>
     </g>
    </g>
    <g id="xtick_2">
     <g id="line2d_2">
      <g>
       <use style="stroke:#000000;stroke-width:0.8;" x="127.907431" xlink:href="#meb8074c030" y="224.64"/>
      </g>
     </g>
     <g id="text_2">
      <!-- 20 -->
      <defs>
       <path d="M 19.1875 8.296875 
L 53.609375 8.296875 
L 53.609375 0 
L 7.328125 0 
L 7.328125 8.296875 
Q 12.9375 14.109375 22.625 23.890625 
Q 32.328125 33.6875 34.8125 36.53125 
Q 39.546875 41.84375 41.421875 45.53125 
Q 43.3125 49.21875 43.3125 52.78125 
Q 43.3125 58.59375 39.234375 62.25 
Q 35.15625 65.921875 28.609375 65.921875 
Q 23.96875 65.921875 18.8125 64.3125 
Q 13.671875 62.703125 7.8125 59.421875 
L 7.8125 69.390625 
Q 13.765625 71.78125 18.9375 73 
Q 24.125 74.21875 28.421875 74.21875 
Q 39.75 74.21875 46.484375 68.546875 
Q 53.21875 62.890625 53.21875 53.421875 
Q 53.21875 48.921875 51.53125 44.890625 
Q 49.859375 40.875 45.40625 35.40625 
Q 44.1875 33.984375 37.640625 27.21875 
Q 31.109375 20.453125 19.1875 8.296875 
z
" id="DejaVuSans-50"/>
      </defs>
      <g transform="translate(121.544931 239.238437)scale(0.1 -0.1)">
       <use xlink:href="#DejaVuSans-50"/>
       <use x="63.623047" xlink:href="#DejaVuSans-48"/>
      </g>
     </g>
    </g>
    <g id="xtick_3">
     <g id="line2d_3">
      <g>
       <use style="stroke:#000000;stroke-width:0.8;" x="186.158845" xlink:href="#meb8074c030" y="224.64"/>
      </g>
     </g>
     <g id="text_3">
      <!-- 40 -->
      <defs>
       <path d="M 37.796875 64.3125 
L 12.890625 25.390625 
L 37.796875 25.390625 
z
M 35.203125 72.90625 
L 47.609375 72.90625 
L 47.609375 25.390625 
L 58.015625 25.390625 
L 58.015625 17.1875 
L 47.609375 17.1875 
L 47.609375 0 
L 37.796875 0 
L 37.796875 17.1875 
L 4.890625 17.1875 
L 4.890625 26.703125 
z
" id="DejaVuSans-52"/>
      </defs>
      <g transform="translate(179.796345 239.238437)scale(0.1 -0.1)">
       <use xlink:href="#DejaVuSans-52"/>
       <use x="63.623047" xlink:href="#DejaVuSans-48"/>
      </g>
     </g>
    </g>
    <g id="xtick_4">
     <g id="line2d_4">
      <g>
       <use style="stroke:#000000;stroke-width:0.8;" x="244.410259" xlink:href="#meb8074c030" y="224.64"/>
      </g>
     </g>
     <g id="text_4">
      <!-- 60 -->
      <defs>
       <path d="M 33.015625 40.375 
Q 26.375 40.375 22.484375 35.828125 
Q 18.609375 31.296875 18.609375 23.390625 
Q 18.609375 15.53125 22.484375 10.953125 
Q 26.375 6.390625 33.015625 6.390625 
Q 39.65625 6.390625 43.53125 10.953125 
Q 47.40625 15.53125 47.40625 23.390625 
Q 47.40625 31.296875 43.53125 35.828125 
Q 39.65625 40.375 33.015625 40.375 
z
M 52.59375 71.296875 
L 52.59375 62.3125 
Q 48.875 64.0625 45.09375 64.984375 
Q 41.3125 65.921875 37.59375 65.921875 
Q 27.828125 65.921875 22.671875 59.328125 
Q 17.53125 52.734375 16.796875 39.40625 
Q 19.671875 43.65625 24.015625 45.921875 
Q 28.375 48.1875 33.59375 48.1875 
Q 44.578125 48.1875 50.953125 41.515625 
Q 57.328125 34.859375 57.328125 23.390625 
Q 57.328125 12.15625 50.6875 5.359375 
Q 44.046875 -1.421875 33.015625 -1.421875 
Q 20.359375 -1.421875 13.671875 8.265625 
Q 6.984375 17.96875 6.984375 36.375 
Q 6.984375 53.65625 15.1875 63.9375 
Q 23.390625 74.21875 37.203125 74.21875 
Q 40.921875 74.21875 44.703125 73.484375 
Q 48.484375 72.75 52.59375 71.296875 
z
" id="DejaVuSans-54"/>
      </defs>
      <g transform="translate(238.047759 239.238437)scale(0.1 -0.1)">
       <use xlink:href="#DejaVuSans-54"/>
       <use x="63.623047" xlink:href="#DejaVuSans-48"/>
      </g>
     </g>
    </g>
    <g id="xtick_5">
     <g id="line2d_5">
      <g>
       <use style="stroke:#000000;stroke-width:0.8;" x="302.661672" xlink:href="#meb8074c030" y="224.64"/>
      </g>
     </g>
     <g id="text_5">
      <!-- 80 -->
      <defs>
       <path d="M 31.78125 34.625 
Q 24.75 34.625 20.71875 30.859375 
Q 16.703125 27.09375 16.703125 20.515625 
Q 16.703125 13.921875 20.71875 10.15625 
Q 24.75 6.390625 31.78125 6.390625 
Q 38.8125 6.390625 42.859375 10.171875 
Q 46.921875 13.96875 46.921875 20.515625 
Q 46.921875 27.09375 42.890625 30.859375 
Q 38.875 34.625 31.78125 34.625 
z
M 21.921875 38.8125 
Q 15.578125 40.375 12.03125 44.71875 
Q 8.5 49.078125 8.5 55.328125 
Q 8.5 64.0625 14.71875 69.140625 
Q 20.953125 74.21875 31.78125 74.21875 
Q 42.671875 74.21875 48.875 69.140625 
Q 55.078125 64.0625 55.078125 55.328125 
Q 55.078125 49.078125 51.53125 44.71875 
Q 48 40.375 41.703125 38.8125 
Q 48.828125 37.15625 52.796875 32.3125 
Q 56.78125 27.484375 56.78125 20.515625 
Q 56.78125 9.90625 50.3125 4.234375 
Q 43.84375 -1.421875 31.78125 -1.421875 
Q 19.734375 -1.421875 13.25 4.234375 
Q 6.78125 9.90625 6.78125 20.515625 
Q 6.78125 27.484375 10.78125 32.3125 
Q 14.796875 37.15625 21.921875 38.8125 
z
M 18.3125 54.390625 
Q 18.3125 48.734375 21.84375 45.5625 
Q 25.390625 42.390625 31.78125 42.390625 
Q 38.140625 42.390625 41.71875 45.5625 
Q 45.3125 48.734375 45.3125 54.390625 
Q 45.3125 60.0625 41.71875 63.234375 
Q 38.140625 66.40625 31.78125 66.40625 
Q 25.390625 66.40625 21.84375 63.234375 
Q 18.3125 60.0625 18.3125 54.390625 
z
" id="DejaVuSans-56"/>
      </defs>
      <g transform="translate(296.299172 239.238437)scale(0.1 -0.1)">
       <use xlink:href="#DejaVuSans-56"/>
       <use x="63.623047" xlink:href="#DejaVuSans-48"/>
      </g>
     </g>
    </g>
    <g id="xtick_6">
     <g id="line2d_6">
      <g>
       <use style="stroke:#000000;stroke-width:0.8;" x="360.913086" xlink:href="#meb8074c030" y="224.64"/>
      </g>
     </g>
     <g id="text_6">
      <!-- 100 -->
      <defs>
       <path d="M 12.40625 8.296875 
L 28.515625 8.296875 
L 28.515625 63.921875 
L 10.984375 60.40625 
L 10.984375 69.390625 
L 28.421875 72.90625 
L 38.28125 72.90625 
L 38.28125 8.296875 
L 54.390625 8.296875 
L 54.390625 0 
L 12.40625 0 
z
" id="DejaVuSans-49"/>
      </defs>
      <g transform="translate(351.369336 239.238437)scale(0.1 -0.1)">
       <use xlink:href="#DejaVuSans-49"/>
       <use x="63.623047" xlink:href="#DejaVuSans-48"/>
       <use x="127.246094" xlink:href="#DejaVuSans-48"/>
      </g>
     </g>
    </g>
    <g id="text_7">
     <!-- Agriculture(%) -->
     <defs>
      <path d="M 34.1875 63.1875 
L 20.796875 26.90625 
L 47.609375 26.90625 
z
M 28.609375 72.90625 
L 39.796875 72.90625 
L 67.578125 0 
L 57.328125 0 
L 50.6875 18.703125 
L 17.828125 18.703125 
L 11.1875 0 
L 0.78125 0 
z
" id="DejaVuSans-65"/>
      <path d="M 45.40625 27.984375 
Q 45.40625 37.75 41.375 43.109375 
Q 37.359375 48.484375 30.078125 48.484375 
Q 22.859375 48.484375 18.828125 43.109375 
Q 14.796875 37.75 14.796875 27.984375 
Q 14.796875 18.265625 18.828125 12.890625 
Q 22.859375 7.515625 30.078125 7.515625 
Q 37.359375 7.515625 41.375 12.890625 
Q 45.40625 18.265625 45.40625 27.984375 
z
M 54.390625 6.78125 
Q 54.390625 -7.171875 48.1875 -13.984375 
Q 42 -20.796875 29.203125 -20.796875 
Q 24.46875 -20.796875 20.265625 -20.09375 
Q 16.0625 -19.390625 12.109375 -17.921875 
L 12.109375 -9.1875 
Q 16.0625 -11.328125 19.921875 -12.34375 
Q 23.78125 -13.375 27.78125 -13.375 
Q 36.625 -13.375 41.015625 -8.765625 
Q 45.40625 -4.15625 45.40625 5.171875 
L 45.40625 9.625 
Q 42.625 4.78125 38.28125 2.390625 
Q 33.9375 0 27.875 0 
Q 17.828125 0 11.671875 7.65625 
Q 5.515625 15.328125 5.515625 27.984375 
Q 5.515625 40.671875 11.671875 48.328125 
Q 17.828125 56 27.875 56 
Q 33.9375 56 38.28125 53.609375 
Q 42.625 51.21875 45.40625 46.390625 
L 45.40625 54.6875 
L 54.390625 54.6875 
z
" id="DejaVuSans-103"/>
      <path d="M 41.109375 46.296875 
Q 39.59375 47.171875 37.8125 47.578125 
Q 36.03125 48 33.890625 48 
Q 26.265625 48 22.1875 43.046875 
Q 18.109375 38.09375 18.109375 28.8125 
L 18.109375 0 
L 9.078125 0 
L 9.078125 54.6875 
L 18.109375 54.6875 
L 18.109375 46.1875 
Q 20.953125 51.171875 25.484375 53.578125 
Q 30.03125 56 36.53125 56 
Q 37.453125 56 38.578125 55.875 
Q 39.703125 55.765625 41.0625 55.515625 
z
" id="DejaVuSans-114"/>
      <path d="M 9.421875 54.6875 
L 18.40625 54.6875 
L 18.40625 0 
L 9.421875 0 
z
M 9.421875 75.984375 
L 18.40625 75.984375 
L 18.40625 64.59375 
L 9.421875 64.59375 
z
" id="DejaVuSans-105"/>
      <path d="M 48.78125 52.59375 
L 48.78125 44.1875 
Q 44.96875 46.296875 41.140625 47.34375 
Q 37.3125 48.390625 33.40625 48.390625 
Q 24.65625 48.390625 19.8125 42.84375 
Q 14.984375 37.3125 14.984375 27.296875 
Q 14.984375 17.28125 19.8125 11.734375 
Q 24.65625 6.203125 33.40625 6.203125 
Q 37.3125 6.203125 41.140625 7.25 
Q 44.96875 8.296875 48.78125 10.40625 
L 48.78125 2.09375 
Q 45.015625 0.34375 40.984375 -0.53125 
Q 36.96875 -1.421875 32.421875 -1.421875 
Q 20.0625 -1.421875 12.78125 6.34375 
Q 5.515625 14.109375 5.515625 27.296875 
Q 5.515625 40.671875 12.859375 48.328125 
Q 20.21875 56 33.015625 56 
Q 37.15625 56 41.109375 55.140625 
Q 45.0625 54.296875 48.78125 52.59375 
z
" id="DejaVuSans-99"/>
      <path d="M 8.5 21.578125 
L 8.5 54.6875 
L 17.484375 54.6875 
L 17.484375 21.921875 
Q 17.484375 14.15625 20.5 10.265625 
Q 23.53125 6.390625 29.59375 6.390625 
Q 36.859375 6.390625 41.078125 11.03125 
Q 45.3125 15.671875 45.3125 23.6875 
L 45.3125 54.6875 
L 54.296875 54.6875 
L 54.296875 0 
L 45.3125 0 
L 45.3125 8.40625 
Q 42.046875 3.421875 37.71875 1 
Q 33.40625 -1.421875 27.6875 -1.421875 
Q 18.265625 -1.421875 13.375 4.4375 
Q 8.5 10.296875 8.5 21.578125 
z
M 31.109375 56 
z
" id="DejaVuSans-117"/>
      <path d="M 9.421875 75.984375 
L 18.40625 75.984375 
L 18.40625 0 
L 9.421875 0 
z
" id="DejaVuSans-108"/>
      <path d="M 18.3125 70.21875 
L 18.3125 54.6875 
L 36.8125 54.6875 
L 36.8125 47.703125 
L 18.3125 47.703125 
L 18.3125 18.015625 
Q 18.3125 11.328125 20.140625 9.421875 
Q 21.96875 7.515625 27.59375 7.515625 
L 36.8125 7.515625 
L 36.8125 0 
L 27.59375 0 
Q 17.1875 0 13.234375 3.875 
Q 9.28125 7.765625 9.28125 18.015625 
L 9.28125 47.703125 
L 2.6875 47.703125 
L 2.6875 54.6875 
L 9.28125 54.6875 
L 9.28125 70.21875 
z
" id="DejaVuSans-116"/>
      <path d="M 56.203125 29.59375 
L 56.203125 25.203125 
L 14.890625 25.203125 
Q 15.484375 15.921875 20.484375 11.0625 
Q 25.484375 6.203125 34.421875 6.203125 
Q 39.59375 6.203125 44.453125 7.46875 
Q 49.3125 8.734375 54.109375 11.28125 
L 54.109375 2.78125 
Q 49.265625 0.734375 44.1875 -0.34375 
Q 39.109375 -1.421875 33.890625 -1.421875 
Q 20.796875 -1.421875 13.15625 6.1875 
Q 5.515625 13.8125 5.515625 26.8125 
Q 5.515625 40.234375 12.765625 48.109375 
Q 20.015625 56 32.328125 56 
Q 43.359375 56 49.78125 48.890625 
Q 56.203125 41.796875 56.203125 29.59375 
z
M 47.21875 32.234375 
Q 47.125 39.59375 43.09375 43.984375 
Q 39.0625 48.390625 32.421875 48.390625 
Q 24.90625 48.390625 20.390625 44.140625 
Q 15.875 39.890625 15.1875 32.171875 
z
" id="DejaVuSans-101"/>
      <path d="M 31 75.875 
Q 24.46875 64.65625 21.28125 53.65625 
Q 18.109375 42.671875 18.109375 31.390625 
Q 18.109375 20.125 21.3125 9.0625 
Q 24.515625 -2 31 -13.1875 
L 23.1875 -13.1875 
Q 15.875 -1.703125 12.234375 9.375 
Q 8.59375 20.453125 8.59375 31.390625 
Q 8.59375 42.28125 12.203125 53.3125 
Q 15.828125 64.359375 23.1875 75.875 
z
" id="DejaVuSans-40"/>
      <path d="M 72.703125 32.078125 
Q 68.453125 32.078125 66.03125 28.46875 
Q 63.625 24.859375 63.625 18.40625 
Q 63.625 12.0625 66.03125 8.421875 
Q 68.453125 4.78125 72.703125 4.78125 
Q 76.859375 4.78125 79.265625 8.421875 
Q 81.6875 12.0625 81.6875 18.40625 
Q 81.6875 24.8125 79.265625 28.4375 
Q 76.859375 32.078125 72.703125 32.078125 
z
M 72.703125 38.28125 
Q 80.421875 38.28125 84.953125 32.90625 
Q 89.5 27.546875 89.5 18.40625 
Q 89.5 9.28125 84.9375 3.921875 
Q 80.375 -1.421875 72.703125 -1.421875 
Q 64.890625 -1.421875 60.34375 3.921875 
Q 55.8125 9.28125 55.8125 18.40625 
Q 55.8125 27.59375 60.375 32.9375 
Q 64.9375 38.28125 72.703125 38.28125 
z
M 22.3125 68.015625 
Q 18.109375 68.015625 15.6875 64.375 
Q 13.28125 60.75 13.28125 54.390625 
Q 13.28125 47.953125 15.671875 44.328125 
Q 18.0625 40.71875 22.3125 40.71875 
Q 26.5625 40.71875 28.96875 44.328125 
Q 31.390625 47.953125 31.390625 54.390625 
Q 31.390625 60.6875 28.953125 64.34375 
Q 26.515625 68.015625 22.3125 68.015625 
z
M 66.40625 74.21875 
L 74.21875 74.21875 
L 28.609375 -1.421875 
L 20.796875 -1.421875 
z
M 22.3125 74.21875 
Q 30.03125 74.21875 34.609375 68.875 
Q 39.203125 63.53125 39.203125 54.390625 
Q 39.203125 45.171875 34.640625 39.84375 
Q 30.078125 34.515625 22.3125 34.515625 
Q 14.546875 34.515625 10.03125 39.859375 
Q 5.515625 45.21875 5.515625 54.390625 
Q 5.515625 63.484375 10.046875 68.84375 
Q 14.59375 74.21875 22.3125 74.21875 
z
" id="DejaVuSans-37"/>
      <path d="M 8.015625 75.875 
L 15.828125 75.875 
Q 23.140625 64.359375 26.78125 53.3125 
Q 30.421875 42.28125 30.421875 31.390625 
Q 30.421875 20.453125 26.78125 9.375 
Q 23.140625 -1.703125 15.828125 -13.1875 
L 8.015625 -13.1875 
Q 14.5 -2 17.703125 9.0625 
Q 20.90625 20.125 20.90625 31.390625 
Q 20.90625 42.671875 17.703125 53.65625 
Q 14.5 64.65625 8.015625 75.875 
z
" id="DejaVuSans-41"/>
     </defs>
     <g transform="translate(171.85625 252.916562)scale(0.1 -0.1)">
      <use xlink:href="#DejaVuSans-65"/>
      <use x="68.408203" xlink:href="#DejaVuSans-103"/>
      <use x="131.884766" xlink:href="#DejaVuSans-114"/>
      <use x="172.998047" xlink:href="#DejaVuSans-105"/>
      <use x="200.78125" xlink:href="#DejaVuSans-99"/>
      <use x="255.761719" xlink:href="#DejaVuSans-117"/>
      <use x="319.140625" xlink:href="#DejaVuSans-108"/>
      <use x="346.923828" xlink:href="#DejaVuSans-116"/>
      <use x="386.132812" xlink:href="#DejaVuSans-117"/>
      <use x="449.511719" xlink:href="#DejaVuSans-114"/>
      <use x="488.375" xlink:href="#DejaVuSans-101"/>
      <use x="549.898438" xlink:href="#DejaVuSans-40"/>
      <use x="588.912109" xlink:href="#DejaVuSans-37"/>
      <use x="683.931641" xlink:href="#DejaVuSans-41"/>
     </g>
    </g>
   </g>
   <g id="matplotlib.axis_2">
    <g id="ytick_1">
     <g id="line2d_7">
      <defs>
       <path d="M 0 0 
L -3.5 0 
" id="m27a22ac5bc" style="stroke:#000000;stroke-width:0.8;"/>
      </defs>
      <g>
       <use style="stroke:#000000;stroke-width:0.8;" x="40.603125" xlink:href="#m27a22ac5bc" y="214.756364"/>
      </g>
     </g>
     <g id="text_8">
      <!-- 0 -->
      <g transform="translate(27.240625 218.555582)scale(0.1 -0.1)">
       <use xlink:href="#DejaVuSans-48"/>
      </g>
     </g>
    </g>
    <g id="ytick_2">
     <g id="line2d_8">
      <g>
       <use style="stroke:#000000;stroke-width:0.8;" x="40.603125" xlink:href="#m27a22ac5bc" y="171.797453"/>
      </g>
     </g>
     <g id="text_9">
      <!-- 20 -->
      <g transform="translate(20.878125 175.596672)scale(0.1 -0.1)">
       <use xlink:href="#DejaVuSans-50"/>
       <use x="63.623047" xlink:href="#DejaVuSans-48"/>
      </g>
     </g>
    </g>
    <g id="ytick_3">
     <g id="line2d_9">
      <g>
       <use style="stroke:#000000;stroke-width:0.8;" x="40.603125" xlink:href="#m27a22ac5bc" y="128.838542"/>
      </g>
     </g>
     <g id="text_10">
      <!-- 40 -->
      <g transform="translate(20.878125 132.637761)scale(0.1 -0.1)">
       <use xlink:href="#DejaVuSans-52"/>
       <use x="63.623047" xlink:href="#DejaVuSans-48"/>
      </g>
     </g>
    </g>
    <g id="ytick_4">
     <g id="line2d_10">
      <g>
       <use style="stroke:#000000;stroke-width:0.8;" x="40.603125" xlink:href="#m27a22ac5bc" y="85.879631"/>
      </g>
     </g>
     <g id="text_11">
      <!-- 60 -->
      <g transform="translate(20.878125 89.67885)scale(0.1 -0.1)">
       <use xlink:href="#DejaVuSans-54"/>
       <use x="63.623047" xlink:href="#DejaVuSans-48"/>
      </g>
     </g>
    </g>
    <g id="ytick_5">
     <g id="line2d_11">
      <g>
       <use style="stroke:#000000;stroke-width:0.8;" x="40.603125" xlink:href="#m27a22ac5bc" y="42.92072"/>
      </g>
     </g>
     <g id="text_12">
      <!-- 80 -->
      <g transform="translate(20.878125 46.719939)scale(0.1 -0.1)">
       <use xlink:href="#DejaVuSans-56"/>
       <use x="63.623047" xlink:href="#DejaVuSans-48"/>
      </g>
     </g>
    </g>
    <g id="text_13">
     <!-- green in flags(%) -->
     <defs>
      <path d="M 54.890625 33.015625 
L 54.890625 0 
L 45.90625 0 
L 45.90625 32.71875 
Q 45.90625 40.484375 42.875 44.328125 
Q 39.84375 48.1875 33.796875 48.1875 
Q 26.515625 48.1875 22.3125 43.546875 
Q 18.109375 38.921875 18.109375 30.90625 
L 18.109375 0 
L 9.078125 0 
L 9.078125 54.6875 
L 18.109375 54.6875 
L 18.109375 46.1875 
Q 21.34375 51.125 25.703125 53.5625 
Q 30.078125 56 35.796875 56 
Q 45.21875 56 50.046875 50.171875 
Q 54.890625 44.34375 54.890625 33.015625 
z
" id="DejaVuSans-110"/>
      <path id="DejaVuSans-32"/>
      <path d="M 37.109375 75.984375 
L 37.109375 68.5 
L 28.515625 68.5 
Q 23.6875 68.5 21.796875 66.546875 
Q 19.921875 64.59375 19.921875 59.515625 
L 19.921875 54.6875 
L 34.71875 54.6875 
L 34.71875 47.703125 
L 19.921875 47.703125 
L 19.921875 0 
L 10.890625 0 
L 10.890625 47.703125 
L 2.296875 47.703125 
L 2.296875 54.6875 
L 10.890625 54.6875 
L 10.890625 58.5 
Q 10.890625 67.625 15.140625 71.796875 
Q 19.390625 75.984375 28.609375 75.984375 
z
" id="DejaVuSans-102"/>
      <path d="M 34.28125 27.484375 
Q 23.390625 27.484375 19.1875 25 
Q 14.984375 22.515625 14.984375 16.5 
Q 14.984375 11.71875 18.140625 8.90625 
Q 21.296875 6.109375 26.703125 6.109375 
Q 34.1875 6.109375 38.703125 11.40625 
Q 43.21875 16.703125 43.21875 25.484375 
L 43.21875 27.484375 
z
M 52.203125 31.203125 
L 52.203125 0 
L 43.21875 0 
L 43.21875 8.296875 
Q 40.140625 3.328125 35.546875 0.953125 
Q 30.953125 -1.421875 24.3125 -1.421875 
Q 15.921875 -1.421875 10.953125 3.296875 
Q 6 8.015625 6 15.921875 
Q 6 25.140625 12.171875 29.828125 
Q 18.359375 34.515625 30.609375 34.515625 
L 43.21875 34.515625 
L 43.21875 35.40625 
Q 43.21875 41.609375 39.140625 45 
Q 35.0625 48.390625 27.6875 48.390625 
Q 23 48.390625 18.546875 47.265625 
Q 14.109375 46.140625 10.015625 43.890625 
L 10.015625 52.203125 
Q 14.9375 54.109375 19.578125 55.046875 
Q 24.21875 56 28.609375 56 
Q 40.484375 56 46.34375 49.84375 
Q 52.203125 43.703125 52.203125 31.203125 
z
" id="DejaVuSans-97"/>
      <path d="M 44.28125 53.078125 
L 44.28125 44.578125 
Q 40.484375 46.53125 36.375 47.5 
Q 32.28125 48.484375 27.875 48.484375 
Q 21.1875 48.484375 17.84375 46.4375 
Q 14.5 44.390625 14.5 40.28125 
Q 14.5 37.15625 16.890625 35.375 
Q 19.28125 33.59375 26.515625 31.984375 
L 29.59375 31.296875 
Q 39.15625 29.25 43.1875 25.515625 
Q 47.21875 21.78125 47.21875 15.09375 
Q 47.21875 7.46875 41.1875 3.015625 
Q 35.15625 -1.421875 24.609375 -1.421875 
Q 20.21875 -1.421875 15.453125 -0.5625 
Q 10.6875 0.296875 5.421875 2 
L 5.421875 11.28125 
Q 10.40625 8.6875 15.234375 7.390625 
Q 20.0625 6.109375 24.8125 6.109375 
Q 31.15625 6.109375 34.5625 8.28125 
Q 37.984375 10.453125 37.984375 14.40625 
Q 37.984375 18.0625 35.515625 20.015625 
Q 33.0625 21.96875 24.703125 23.78125 
L 21.578125 24.515625 
Q 13.234375 26.265625 9.515625 29.90625 
Q 5.8125 33.546875 5.8125 39.890625 
Q 5.8125 47.609375 11.28125 51.796875 
Q 16.75 56 26.8125 56 
Q 31.78125 56 36.171875 55.265625 
Q 40.578125 54.546875 44.28125 53.078125 
z
" id="DejaVuSans-115"/>
     </defs>
     <g transform="translate(14.798438 158.739531)rotate(-90)scale(0.1 -0.1)">
      <use xlink:href="#DejaVuSans-103"/>
      <use x="63.476562" xlink:href="#DejaVuSans-114"/>
      <use x="102.339844" xlink:href="#DejaVuSans-101"/>
      <use x="163.863281" xlink:href="#DejaVuSans-101"/>
      <use x="225.386719" xlink:href="#DejaVuSans-110"/>
      <use x="288.765625" xlink:href="#DejaVuSans-32"/>
      <use x="320.552734" xlink:href="#DejaVuSans-105"/>
      <use x="348.335938" xlink:href="#DejaVuSans-110"/>
      <use x="411.714844" xlink:href="#DejaVuSans-32"/>
      <use x="443.501953" xlink:href="#DejaVuSans-102"/>
      <use x="478.707031" xlink:href="#DejaVuSans-108"/>
      <use x="506.490234" xlink:href="#DejaVuSans-97"/>
      <use x="567.769531" xlink:href="#DejaVuSans-103"/>
      <use x="631.246094" xlink:href="#DejaVuSans-115"/>
      <use x="683.345703" xlink:href="#DejaVuSans-40"/>
      <use x="722.359375" xlink:href="#DejaVuSans-37"/>
      <use x="817.378906" xlink:href="#DejaVuSans-41"/>
     </g>
    </g>
   </g>
   <g id="line2d_12">
    <path clip-path="url(#pc0c6308d98)" d="M 55.821307 190.212395 
L 360.184943 165.030993 
" style="fill:none;stroke:#1f77b4;stroke-linecap:square;stroke-width:1.5;"/>
   </g>
   <g id="patch_3">
    <path d="M 40.603125 224.64 
L 40.603125 7.2 
" style="fill:none;stroke:#000000;stroke-linecap:square;stroke-linejoin:miter;stroke-width:0.8;"/>
   </g>
   <g id="patch_4">
    <path d="M 375.403125 224.64 
L 375.403125 7.2 
" style="fill:none;stroke:#000000;stroke-linecap:square;stroke-linejoin:miter;stroke-width:0.8;"/>
   </g>
   <g id="patch_5">
    <path d="M 40.603125 224.64 
L 375.403125 224.64 
" style="fill:none;stroke:#000000;stroke-linecap:square;stroke-linejoin:miter;stroke-width:0.8;"/>
   </g>
   <g id="patch_6">
    <path d="M 40.603125 7.2 
L 375.403125 7.2 
" style="fill:none;stroke:#000000;stroke-linecap:square;stroke-linejoin:miter;stroke-width:0.8;"/>
   </g>
  </g>
 </g>
 <defs>
  <clipPath id="pc0c6308d98">
   <rect height="217.44" width="334.8" x="40.603125" y="7.2"/>
  </clipPath>
 </defs>
</svg>
