<?xml version="1.0" encoding="utf-8" standalone="no"?>
<!DOCTYPE svg PUBLIC "-//W3C//DTD SVG 1.1//EN"
  "http://www.w3.org/Graphics/SVG/1.1/DTD/svg11.dtd">
<!-- Created with matplotlib (https://matplotlib.org/) -->
<svg height="656.103125pt" version="1.1" viewBox="0 0 1221.334375 656.103125" width="1221.334375pt" xmlns="http://www.w3.org/2000/svg" xmlns:xlink="http://www.w3.org/1999/xlink">
 <defs>
  <style type="text/css">
*{stroke-linecap:butt;stroke-linejoin:round;}
  </style>
 </defs>
 <g id="figure_1">
  <g id="patch_1">
   <path d="M 0 656.103125 
L 1221.334375 656.103125 
L 1221.334375 0 
L 0 0 
z
" style="fill:#ffffff;"/>
  </g>
  <g id="axes_1">
   <g id="patch_2">
    <path d="M 98.134375 589.5125 
L 1214.134375 589.5125 
L 1214.134375 45.9125 
L 98.134375 45.9125 
z
" style="fill:#ffffff;"/>
   </g>
   <g id="PathCollection_1">
    <defs>
     <path d="M 0 3 
C 0.795609 3 1.55874 2.683901 2.12132 2.12132 
C 2.683901 1.55874 3 0.795609 3 0 
C 3 -0.795609 2.683901 -1.55874 2.12132 -2.12132 
C 1.55874 -2.683901 0.795609 -3 0 -3 
C -0.795609 -3 -1.55874 -2.683901 -2.12132 -2.12132 
C -2.683901 -1.55874 -3 -0.795609 -3 0 
C -3 0.795609 -2.683901 1.55874 -2.12132 2.12132 
C -1.55874 2.683901 -0.795609 3 0 3 
z
" id="mca8f50ee8d" style="stroke:#000000;"/>
    </defs>
    <g clip-path="url(#pd7c3c3ea72)">
     <use style="stroke:#000000;" x="148.861648" xlink:href="#mca8f50ee8d" y="564.803409"/>
     <use style="stroke:#000000;" x="163.565205" xlink:href="#mca8f50ee8d" y="552.522283"/>
     <use style="stroke:#000000;" x="178.268762" xlink:href="#mca8f50ee8d" y="551.72134"/>
     <use style="stroke:#000000;" x="192.97232" xlink:href="#mca8f50ee8d" y="492.985522"/>
     <use style="stroke:#000000;" x="207.675877" xlink:href="#mca8f50ee8d" y="461.748746"/>
     <use style="stroke:#000000;" x="222.379434" xlink:href="#mca8f50ee8d" y="455.608183"/>
     <use style="stroke:#000000;" x="237.082992" xlink:href="#mca8f50ee8d" y="472.961947"/>
     <use style="stroke:#000000;" x="251.786549" xlink:href="#mca8f50ee8d" y="376.047847"/>
     <use style="stroke:#000000;" x="266.490106" xlink:href="#mca8f50ee8d" y="462.015727"/>
     <use style="stroke:#000000;" x="281.193664" xlink:href="#mca8f50ee8d" y="456.142145"/>
     <use style="stroke:#000000;" x="295.897221" xlink:href="#mca8f50ee8d" y="452.13743"/>
     <use style="stroke:#000000;" x="310.600778" xlink:href="#mca8f50ee8d" y="418.230844"/>
     <use style="stroke:#000000;" x="325.304335" xlink:href="#mca8f50ee8d" y="444.661962"/>
     <use style="stroke:#000000;" x="340.007893" xlink:href="#mca8f50ee8d" y="492.718541"/>
     <use style="stroke:#000000;" x="354.71145" xlink:href="#mca8f50ee8d" y="421.434616"/>
     <use style="stroke:#000000;" x="369.415007" xlink:href="#mca8f50ee8d" y="360.028987"/>
     <use style="stroke:#000000;" x="384.118565" xlink:href="#mca8f50ee8d" y="462.549689"/>
     <use style="stroke:#000000;" x="398.822122" xlink:href="#mca8f50ee8d" y="366.436531"/>
     <use style="stroke:#000000;" x="413.525679" xlink:href="#mca8f50ee8d" y="433.44876"/>
     <use style="stroke:#000000;" x="428.229237" xlink:href="#mca8f50ee8d" y="450.802525"/>
     <use style="stroke:#000000;" x="442.932794" xlink:href="#mca8f50ee8d" y="437.453475"/>
     <use style="stroke:#000000;" x="457.636351" xlink:href="#mca8f50ee8d" y="367.237474"/>
     <use style="stroke:#000000;" x="472.339909" xlink:href="#mca8f50ee8d" y="416.628958"/>
     <use style="stroke:#000000;" x="487.043466" xlink:href="#mca8f50ee8d" y="304.496941"/>
     <use style="stroke:#000000;" x="501.747023" xlink:href="#mca8f50ee8d" y="325.321458"/>
     <use style="stroke:#000000;" x="516.450581" xlink:href="#mca8f50ee8d" y="367.504455"/>
     <use style="stroke:#000000;" x="531.154138" xlink:href="#mca8f50ee8d" y="374.712942"/>
     <use style="stroke:#000000;" x="545.857695" xlink:href="#mca8f50ee8d" y="378.183695"/>
     <use style="stroke:#000000;" x="560.561252" xlink:href="#mca8f50ee8d" y="390.731802"/>
     <use style="stroke:#000000;" x="575.26481" xlink:href="#mca8f50ee8d" y="379.251619"/>
     <use style="stroke:#000000;" x="589.968367" xlink:href="#mca8f50ee8d" y="364.834645"/>
     <use style="stroke:#000000;" x="604.671924" xlink:href="#mca8f50ee8d" y="402.745946"/>
     <use style="stroke:#000000;" x="619.375482" xlink:href="#mca8f50ee8d" y="309.302599"/>
     <use style="stroke:#000000;" x="634.079039" xlink:href="#mca8f50ee8d" y="358.694082"/>
     <use style="stroke:#000000;" x="648.782596" xlink:href="#mca8f50ee8d" y="352.019558"/>
     <use style="stroke:#000000;" x="663.486154" xlink:href="#mca8f50ee8d" y="417.963863"/>
     <use style="stroke:#000000;" x="678.189711" xlink:href="#mca8f50ee8d" y="397.673307"/>
     <use style="stroke:#000000;" x="692.893268" xlink:href="#mca8f50ee8d" y="438.78838"/>
     <use style="stroke:#000000;" x="707.596826" xlink:href="#mca8f50ee8d" y="417.963863"/>
     <use style="stroke:#000000;" x="722.300383" xlink:href="#mca8f50ee8d" y="378.450676"/>
     <use style="stroke:#000000;" x="737.00394" xlink:href="#mca8f50ee8d" y="286.876195"/>
     <use style="stroke:#000000;" x="751.707498" xlink:href="#mca8f50ee8d" y="301.827131"/>
     <use style="stroke:#000000;" x="766.411055" xlink:href="#mca8f50ee8d" y="249.498856"/>
     <use style="stroke:#000000;" x="781.114612" xlink:href="#mca8f50ee8d" y="459.879879"/>
     <use style="stroke:#000000;" x="795.818169" xlink:href="#mca8f50ee8d" y="371.50917"/>
     <use style="stroke:#000000;" x="810.521727" xlink:href="#mca8f50ee8d" y="299.424302"/>
     <use style="stroke:#000000;" x="825.225284" xlink:href="#mca8f50ee8d" y="286.075252"/>
     <use style="stroke:#000000;" x="839.928841" xlink:href="#mca8f50ee8d" y="309.302599"/>
     <use style="stroke:#000000;" x="854.632399" xlink:href="#mca8f50ee8d" y="216.126232"/>
     <use style="stroke:#000000;" x="869.335956" xlink:href="#mca8f50ee8d" y="218.529061"/>
     <use style="stroke:#000000;" x="884.039513" xlink:href="#mca8f50ee8d" y="312.23939"/>
     <use style="stroke:#000000;" x="898.743071" xlink:href="#mca8f50ee8d" y="263.648849"/>
     <use style="stroke:#000000;" x="913.446628" xlink:href="#mca8f50ee8d" y="346.679938"/>
     <use style="stroke:#000000;" x="928.150185" xlink:href="#mca8f50ee8d" y="214.524346"/>
     <use style="stroke:#000000;" x="942.853743" xlink:href="#mca8f50ee8d" y="104.528177"/>
     <use style="stroke:#000000;" x="957.5573" xlink:href="#mca8f50ee8d" y="265.784697"/>
     <use style="stroke:#000000;" x="972.260857" xlink:href="#mca8f50ee8d" y="287.143176"/>
     <use style="stroke:#000000;" x="986.964415" xlink:href="#mca8f50ee8d" y="293.016758"/>
     <use style="stroke:#000000;" x="1001.667972" xlink:href="#mca8f50ee8d" y="102.65931"/>
     <use style="stroke:#000000;" x="1016.371529" xlink:href="#mca8f50ee8d" y="284.473366"/>
     <use style="stroke:#000000;" x="1031.075086" xlink:href="#mca8f50ee8d" y="238.285655"/>
     <use style="stroke:#000000;" x="1045.778644" xlink:href="#mca8f50ee8d" y="70.621591"/>
     <use style="stroke:#000000;" x="1060.482201" xlink:href="#mca8f50ee8d" y="341.87428"/>
     <use style="stroke:#000000;" x="1075.185758" xlink:href="#mca8f50ee8d" y="343.209185"/>
     <use style="stroke:#000000;" x="1089.889316" xlink:href="#mca8f50ee8d" y="342.675223"/>
     <use style="stroke:#000000;" x="1104.592873" xlink:href="#mca8f50ee8d" y="271.92526"/>
     <use style="stroke:#000000;" x="1119.29643" xlink:href="#mca8f50ee8d" y="336.267679"/>
     <use style="stroke:#000000;" x="1133.999988" xlink:href="#mca8f50ee8d" y="184.622475"/>
     <use style="stroke:#000000;" x="1148.703545" xlink:href="#mca8f50ee8d" y="290.613929"/>
     <use style="stroke:#000000;" x="1163.407102" xlink:href="#mca8f50ee8d" y="163.263996"/>
    </g>
   </g>
   <g id="matplotlib.axis_1">
    <g id="xtick_1">
     <g id="line2d_1">
      <defs>
       <path d="M 0 0 
L 0 3.5 
" id="m34670d16f1" style="stroke:#000000;stroke-width:0.8;"/>
      </defs>
      <g>
       <use style="stroke:#000000;stroke-width:0.8;" x="148.861648" xlink:href="#m34670d16f1" y="589.5125"/>
      </g>
     </g>
     <g id="text_1">
      <!-- 1950 -->
      <defs>
       <path d="M 12.40625 8.296875 
L 28.515625 8.296875 
L 28.515625 63.921875 
L 10.984375 60.40625 
L 10.984375 69.390625 
L 28.421875 72.90625 
L 38.28125 72.90625 
L 38.28125 8.296875 
L 54.390625 8.296875 
L 54.390625 0 
L 12.40625 0 
z
" id="DejaVuSans-49"/>
       <path d="M 10.984375 1.515625 
L 10.984375 10.5 
Q 14.703125 8.734375 18.5 7.8125 
Q 22.3125 6.890625 25.984375 6.890625 
Q 35.75 6.890625 40.890625 13.453125 
Q 46.046875 20.015625 46.78125 33.40625 
Q 43.953125 29.203125 39.59375 26.953125 
Q 35.25 24.703125 29.984375 24.703125 
Q 19.046875 24.703125 12.671875 31.3125 
Q 6.296875 37.9375 6.296875 49.421875 
Q 6.296875 60.640625 12.9375 67.421875 
Q 19.578125 74.21875 30.609375 74.21875 
Q 43.265625 74.21875 49.921875 64.515625 
Q 56.59375 54.828125 56.59375 36.375 
Q 56.59375 19.140625 48.40625 8.859375 
Q 40.234375 -1.421875 26.421875 -1.421875 
Q 22.703125 -1.421875 18.890625 -0.6875 
Q 15.09375 0.046875 10.984375 1.515625 
z
M 30.609375 32.421875 
Q 37.25 32.421875 41.125 36.953125 
Q 45.015625 41.5 45.015625 49.421875 
Q 45.015625 57.28125 41.125 61.84375 
Q 37.25 66.40625 30.609375 66.40625 
Q 23.96875 66.40625 20.09375 61.84375 
Q 16.21875 57.28125 16.21875 49.421875 
Q 16.21875 41.5 20.09375 36.953125 
Q 23.96875 32.421875 30.609375 32.421875 
z
" id="DejaVuSans-57"/>
       <path d="M 10.796875 72.90625 
L 49.515625 72.90625 
L 49.515625 64.59375 
L 19.828125 64.59375 
L 19.828125 46.734375 
Q 21.96875 47.46875 24.109375 47.828125 
Q 26.265625 48.1875 28.421875 48.1875 
Q 40.625 48.1875 47.75 41.5 
Q 54.890625 34.8125 54.890625 23.390625 
Q 54.890625 11.625 47.5625 5.09375 
Q 40.234375 -1.421875 26.90625 -1.421875 
Q 22.3125 -1.421875 17.546875 -0.640625 
Q 12.796875 0.140625 7.71875 1.703125 
L 7.71875 11.625 
Q 12.109375 9.234375 16.796875 8.0625 
Q 21.484375 6.890625 26.703125 6.890625 
Q 35.15625 6.890625 40.078125 11.328125 
Q 45.015625 15.765625 45.015625 23.390625 
Q 45.015625 31 40.078125 35.4375 
Q 35.15625 39.890625 26.703125 39.890625 
Q 22.75 39.890625 18.8125 39.015625 
Q 14.890625 38.140625 10.796875 36.28125 
z
" id="DejaVuSans-53"/>
       <path d="M 31.78125 66.40625 
Q 24.171875 66.40625 20.328125 58.90625 
Q 16.5 51.421875 16.5 36.375 
Q 16.5 21.390625 20.328125 13.890625 
Q 24.171875 6.390625 31.78125 6.390625 
Q 39.453125 6.390625 43.28125 13.890625 
Q 47.125 21.390625 47.125 36.375 
Q 47.125 51.421875 43.28125 58.90625 
Q 39.453125 66.40625 31.78125 66.40625 
z
M 31.78125 74.21875 
Q 44.046875 74.21875 50.515625 64.515625 
Q 56.984375 54.828125 56.984375 36.375 
Q 56.984375 17.96875 50.515625 8.265625 
Q 44.046875 -1.421875 31.78125 -1.421875 
Q 19.53125 -1.421875 13.0625 8.265625 
Q 6.59375 17.96875 6.59375 36.375 
Q 6.59375 54.828125 13.0625 64.515625 
Q 19.53125 74.21875 31.78125 74.21875 
z
" id="DejaVuSans-48"/>
      </defs>
      <g transform="translate(123.411648 611.709375)scale(0.2 -0.2)">
       <use xlink:href="#DejaVuSans-49"/>
       <use x="63.623047" xlink:href="#DejaVuSans-57"/>
       <use x="127.246094" xlink:href="#DejaVuSans-53"/>
       <use x="190.869141" xlink:href="#DejaVuSans-48"/>
      </g>
     </g>
    </g>
    <g id="xtick_2">
     <g id="line2d_2">
      <g>
       <use style="stroke:#000000;stroke-width:0.8;" x="295.897221" xlink:href="#m34670d16f1" y="589.5125"/>
      </g>
     </g>
     <g id="text_2">
      <!-- 1960 -->
      <defs>
       <path d="M 33.015625 40.375 
Q 26.375 40.375 22.484375 35.828125 
Q 18.609375 31.296875 18.609375 23.390625 
Q 18.609375 15.53125 22.484375 10.953125 
Q 26.375 6.390625 33.015625 6.390625 
Q 39.65625 6.390625 43.53125 10.953125 
Q 47.40625 15.53125 47.40625 23.390625 
Q 47.40625 31.296875 43.53125 35.828125 
Q 39.65625 40.375 33.015625 40.375 
z
M 52.59375 71.296875 
L 52.59375 62.3125 
Q 48.875 64.0625 45.09375 64.984375 
Q 41.3125 65.921875 37.59375 65.921875 
Q 27.828125 65.921875 22.671875 59.328125 
Q 17.53125 52.734375 16.796875 39.40625 
Q 19.671875 43.65625 24.015625 45.921875 
Q 28.375 48.1875 33.59375 48.1875 
Q 44.578125 48.1875 50.953125 41.515625 
Q 57.328125 34.859375 57.328125 23.390625 
Q 57.328125 12.15625 50.6875 5.359375 
Q 44.046875 -1.421875 33.015625 -1.421875 
Q 20.359375 -1.421875 13.671875 8.265625 
Q 6.984375 17.96875 6.984375 36.375 
Q 6.984375 53.65625 15.1875 63.9375 
Q 23.390625 74.21875 37.203125 74.21875 
Q 40.921875 74.21875 44.703125 73.484375 
Q 48.484375 72.75 52.59375 71.296875 
z
" id="DejaVuSans-54"/>
      </defs>
      <g transform="translate(270.447221 611.709375)scale(0.2 -0.2)">
       <use xlink:href="#DejaVuSans-49"/>
       <use x="63.623047" xlink:href="#DejaVuSans-57"/>
       <use x="127.246094" xlink:href="#DejaVuSans-54"/>
       <use x="190.869141" xlink:href="#DejaVuSans-48"/>
      </g>
     </g>
    </g>
    <g id="xtick_3">
     <g id="line2d_3">
      <g>
       <use style="stroke:#000000;stroke-width:0.8;" x="442.932794" xlink:href="#m34670d16f1" y="589.5125"/>
      </g>
     </g>
     <g id="text_3">
      <!-- 1970 -->
      <defs>
       <path d="M 8.203125 72.90625 
L 55.078125 72.90625 
L 55.078125 68.703125 
L 28.609375 0 
L 18.3125 0 
L 43.21875 64.59375 
L 8.203125 64.59375 
z
" id="DejaVuSans-55"/>
      </defs>
      <g transform="translate(417.482794 611.709375)scale(0.2 -0.2)">
       <use xlink:href="#DejaVuSans-49"/>
       <use x="63.623047" xlink:href="#DejaVuSans-57"/>
       <use x="127.246094" xlink:href="#DejaVuSans-55"/>
       <use x="190.869141" xlink:href="#DejaVuSans-48"/>
      </g>
     </g>
    </g>
    <g id="xtick_4">
     <g id="line2d_4">
      <g>
       <use style="stroke:#000000;stroke-width:0.8;" x="589.968367" xlink:href="#m34670d16f1" y="589.5125"/>
      </g>
     </g>
     <g id="text_4">
      <!-- 1980 -->
      <defs>
       <path d="M 31.78125 34.625 
Q 24.75 34.625 20.71875 30.859375 
Q 16.703125 27.09375 16.703125 20.515625 
Q 16.703125 13.921875 20.71875 10.15625 
Q 24.75 6.390625 31.78125 6.390625 
Q 38.8125 6.390625 42.859375 10.171875 
Q 46.921875 13.96875 46.921875 20.515625 
Q 46.921875 27.09375 42.890625 30.859375 
Q 38.875 34.625 31.78125 34.625 
z
M 21.921875 38.8125 
Q 15.578125 40.375 12.03125 44.71875 
Q 8.5 49.078125 8.5 55.328125 
Q 8.5 64.0625 14.71875 69.140625 
Q 20.953125 74.21875 31.78125 74.21875 
Q 42.671875 74.21875 48.875 69.140625 
Q 55.078125 64.0625 55.078125 55.328125 
Q 55.078125 49.078125 51.53125 44.71875 
Q 48 40.375 41.703125 38.8125 
Q 48.828125 37.15625 52.796875 32.3125 
Q 56.78125 27.484375 56.78125 20.515625 
Q 56.78125 9.90625 50.3125 4.234375 
Q 43.84375 -1.421875 31.78125 -1.421875 
Q 19.734375 -1.421875 13.25 4.234375 
Q 6.78125 9.90625 6.78125 20.515625 
Q 6.78125 27.484375 10.78125 32.3125 
Q 14.796875 37.15625 21.921875 38.8125 
z
M 18.3125 54.390625 
Q 18.3125 48.734375 21.84375 45.5625 
Q 25.390625 42.390625 31.78125 42.390625 
Q 38.140625 42.390625 41.71875 45.5625 
Q 45.3125 48.734375 45.3125 54.390625 
Q 45.3125 60.0625 41.71875 63.234375 
Q 38.140625 66.40625 31.78125 66.40625 
Q 25.390625 66.40625 21.84375 63.234375 
Q 18.3125 60.0625 18.3125 54.390625 
z
" id="DejaVuSans-56"/>
      </defs>
      <g transform="translate(564.518367 611.709375)scale(0.2 -0.2)">
       <use xlink:href="#DejaVuSans-49"/>
       <use x="63.623047" xlink:href="#DejaVuSans-57"/>
       <use x="127.246094" xlink:href="#DejaVuSans-56"/>
       <use x="190.869141" xlink:href="#DejaVuSans-48"/>
      </g>
     </g>
    </g>
    <g id="xtick_5">
     <g id="line2d_5">
      <g>
       <use style="stroke:#000000;stroke-width:0.8;" x="737.00394" xlink:href="#m34670d16f1" y="589.5125"/>
      </g>
     </g>
     <g id="text_5">
      <!-- 1990 -->
      <g transform="translate(711.55394 611.709375)scale(0.2 -0.2)">
       <use xlink:href="#DejaVuSans-49"/>
       <use x="63.623047" xlink:href="#DejaVuSans-57"/>
       <use x="127.246094" xlink:href="#DejaVuSans-57"/>
       <use x="190.869141" xlink:href="#DejaVuSans-48"/>
      </g>
     </g>
    </g>
    <g id="xtick_6">
     <g id="line2d_6">
      <g>
       <use style="stroke:#000000;stroke-width:0.8;" x="884.039513" xlink:href="#m34670d16f1" y="589.5125"/>
      </g>
     </g>
     <g id="text_6">
      <!-- 2000 -->
      <defs>
       <path d="M 19.1875 8.296875 
L 53.609375 8.296875 
L 53.609375 0 
L 7.328125 0 
L 7.328125 8.296875 
Q 12.9375 14.109375 22.625 23.890625 
Q 32.328125 33.6875 34.8125 36.53125 
Q 39.546875 41.84375 41.421875 45.53125 
Q 43.3125 49.21875 43.3125 52.78125 
Q 43.3125 58.59375 39.234375 62.25 
Q 35.15625 65.921875 28.609375 65.921875 
Q 23.96875 65.921875 18.8125 64.3125 
Q 13.671875 62.703125 7.8125 59.421875 
L 7.8125 69.390625 
Q 13.765625 71.78125 18.9375 73 
Q 24.125 74.21875 28.421875 74.21875 
Q 39.75 74.21875 46.484375 68.546875 
Q 53.21875 62.890625 53.21875 53.421875 
Q 53.21875 48.921875 51.53125 44.890625 
Q 49.859375 40.875 45.40625 35.40625 
Q 44.1875 33.984375 37.640625 27.21875 
Q 31.109375 20.453125 19.1875 8.296875 
z
" id="DejaVuSans-50"/>
      </defs>
      <g transform="translate(858.589513 611.709375)scale(0.2 -0.2)">
       <use xlink:href="#DejaVuSans-50"/>
       <use x="63.623047" xlink:href="#DejaVuSans-48"/>
       <use x="127.246094" xlink:href="#DejaVuSans-48"/>
       <use x="190.869141" xlink:href="#DejaVuSans-48"/>
      </g>
     </g>
    </g>
    <g id="xtick_7">
     <g id="line2d_7">
      <g>
       <use style="stroke:#000000;stroke-width:0.8;" x="1031.075086" xlink:href="#m34670d16f1" y="589.5125"/>
      </g>
     </g>
     <g id="text_7">
      <!-- 2010 -->
      <g transform="translate(1005.625086 611.709375)scale(0.2 -0.2)">
       <use xlink:href="#DejaVuSans-50"/>
       <use x="63.623047" xlink:href="#DejaVuSans-48"/>
       <use x="127.246094" xlink:href="#DejaVuSans-49"/>
       <use x="190.869141" xlink:href="#DejaVuSans-48"/>
      </g>
     </g>
    </g>
    <g id="xtick_8">
     <g id="line2d_8">
      <g>
       <use style="stroke:#000000;stroke-width:0.8;" x="1178.11066" xlink:href="#m34670d16f1" y="589.5125"/>
      </g>
     </g>
     <g id="text_8">
      <!-- 2020 -->
      <g transform="translate(1152.66066 611.709375)scale(0.2 -0.2)">
       <use xlink:href="#DejaVuSans-50"/>
       <use x="63.623047" xlink:href="#DejaVuSans-48"/>
       <use x="127.246094" xlink:href="#DejaVuSans-50"/>
       <use x="190.869141" xlink:href="#DejaVuSans-48"/>
      </g>
     </g>
    </g>
    <g id="text_9">
     <!-- Year -->
     <defs>
      <path d="M -0.203125 72.90625 
L 10.40625 72.90625 
L 30.609375 42.921875 
L 50.6875 72.90625 
L 61.28125 72.90625 
L 35.5 34.71875 
L 35.5 0 
L 25.59375 0 
L 25.59375 34.71875 
z
" id="DejaVuSans-89"/>
      <path d="M 56.203125 29.59375 
L 56.203125 25.203125 
L 14.890625 25.203125 
Q 15.484375 15.921875 20.484375 11.0625 
Q 25.484375 6.203125 34.421875 6.203125 
Q 39.59375 6.203125 44.453125 7.46875 
Q 49.3125 8.734375 54.109375 11.28125 
L 54.109375 2.78125 
Q 49.265625 0.734375 44.1875 -0.34375 
Q 39.109375 -1.421875 33.890625 -1.421875 
Q 20.796875 -1.421875 13.15625 6.1875 
Q 5.515625 13.8125 5.515625 26.8125 
Q 5.515625 40.234375 12.765625 48.109375 
Q 20.015625 56 32.328125 56 
Q 43.359375 56 49.78125 48.890625 
Q 56.203125 41.796875 56.203125 29.59375 
z
M 47.21875 32.234375 
Q 47.125 39.59375 43.09375 43.984375 
Q 39.0625 48.390625 32.421875 48.390625 
Q 24.90625 48.390625 20.390625 44.140625 
Q 15.875 39.890625 15.1875 32.171875 
z
" id="DejaVuSans-101"/>
      <path d="M 34.28125 27.484375 
Q 23.390625 27.484375 19.1875 25 
Q 14.984375 22.515625 14.984375 16.5 
Q 14.984375 11.71875 18.140625 8.90625 
Q 21.296875 6.109375 26.703125 6.109375 
Q 34.1875 6.109375 38.703125 11.40625 
Q 43.21875 16.703125 43.21875 25.484375 
L 43.21875 27.484375 
z
M 52.203125 31.203125 
L 52.203125 0 
L 43.21875 0 
L 43.21875 8.296875 
Q 40.140625 3.328125 35.546875 0.953125 
Q 30.953125 -1.421875 24.3125 -1.421875 
Q 15.921875 -1.421875 10.953125 3.296875 
Q 6 8.015625 6 15.921875 
Q 6 25.140625 12.171875 29.828125 
Q 18.359375 34.515625 30.609375 34.515625 
L 43.21875 34.515625 
L 43.21875 35.40625 
Q 43.21875 41.609375 39.140625 45 
Q 35.0625 48.390625 27.6875 48.390625 
Q 23 48.390625 18.546875 47.265625 
Q 14.109375 46.140625 10.015625 43.890625 
L 10.015625 52.203125 
Q 14.9375 54.109375 19.578125 55.046875 
Q 24.21875 56 28.609375 56 
Q 40.484375 56 46.34375 49.84375 
Q 52.203125 43.703125 52.203125 31.203125 
z
" id="DejaVuSans-97"/>
      <path d="M 41.109375 46.296875 
Q 39.59375 47.171875 37.8125 47.578125 
Q 36.03125 48 33.890625 48 
Q 26.265625 48 22.1875 43.046875 
Q 18.109375 38.09375 18.109375 28.8125 
L 18.109375 0 
L 9.078125 0 
L 9.078125 54.6875 
L 18.109375 54.6875 
L 18.109375 46.1875 
Q 20.953125 51.171875 25.484375 53.578125 
Q 30.03125 56 36.53125 56 
Q 37.453125 56 38.578125 55.875 
Q 39.703125 55.765625 41.0625 55.515625 
z
" id="DejaVuSans-114"/>
     </defs>
     <g transform="translate(624.371875 642.664063)scale(0.3 -0.3)">
      <use xlink:href="#DejaVuSans-89"/>
      <use x="47.833984" xlink:href="#DejaVuSans-101"/>
      <use x="109.357422" xlink:href="#DejaVuSans-97"/>
      <use x="170.636719" xlink:href="#DejaVuSans-114"/>
     </g>
    </g>
   </g>
   <g id="matplotlib.axis_2">
    <g id="ytick_1">
     <g id="line2d_9">
      <defs>
       <path d="M 0 0 
L -3.5 0 
" id="m5451bf9c66" style="stroke:#000000;stroke-width:0.8;"/>
      </defs>
      <g>
       <use style="stroke:#000000;stroke-width:0.8;" x="98.134375" xlink:href="#m5451bf9c66" y="557.594922"/>
      </g>
     </g>
     <g id="text_10">
      <!-- 250 -->
      <g transform="translate(52.959375 565.19336)scale(0.2 -0.2)">
       <use xlink:href="#DejaVuSans-50"/>
       <use x="63.623047" xlink:href="#DejaVuSans-53"/>
       <use x="127.246094" xlink:href="#DejaVuSans-48"/>
      </g>
     </g>
    </g>
    <g id="ytick_2">
     <g id="line2d_10">
      <g>
       <use style="stroke:#000000;stroke-width:0.8;" x="98.134375" xlink:href="#m5451bf9c66" y="490.849674"/>
      </g>
     </g>
     <g id="text_11">
      <!-- 500 -->
      <g transform="translate(52.959375 498.448112)scale(0.2 -0.2)">
       <use xlink:href="#DejaVuSans-53"/>
       <use x="63.623047" xlink:href="#DejaVuSans-48"/>
       <use x="127.246094" xlink:href="#DejaVuSans-48"/>
      </g>
     </g>
    </g>
    <g id="ytick_3">
     <g id="line2d_11">
      <g>
       <use style="stroke:#000000;stroke-width:0.8;" x="98.134375" xlink:href="#m5451bf9c66" y="424.104426"/>
      </g>
     </g>
     <g id="text_12">
      <!-- 750 -->
      <g transform="translate(52.959375 431.702863)scale(0.2 -0.2)">
       <use xlink:href="#DejaVuSans-55"/>
       <use x="63.623047" xlink:href="#DejaVuSans-53"/>
       <use x="127.246094" xlink:href="#DejaVuSans-48"/>
      </g>
     </g>
    </g>
    <g id="ytick_4">
     <g id="line2d_12">
      <g>
       <use style="stroke:#000000;stroke-width:0.8;" x="98.134375" xlink:href="#m5451bf9c66" y="357.359177"/>
      </g>
     </g>
     <g id="text_13">
      <!-- 1000 -->
      <g transform="translate(40.234375 364.957615)scale(0.2 -0.2)">
       <use xlink:href="#DejaVuSans-49"/>
       <use x="63.623047" xlink:href="#DejaVuSans-48"/>
       <use x="127.246094" xlink:href="#DejaVuSans-48"/>
       <use x="190.869141" xlink:href="#DejaVuSans-48"/>
      </g>
     </g>
    </g>
    <g id="ytick_5">
     <g id="line2d_13">
      <g>
       <use style="stroke:#000000;stroke-width:0.8;" x="98.134375" xlink:href="#m5451bf9c66" y="290.613929"/>
      </g>
     </g>
     <g id="text_14">
      <!-- 1250 -->
      <g transform="translate(40.234375 298.212367)scale(0.2 -0.2)">
       <use xlink:href="#DejaVuSans-49"/>
       <use x="63.623047" xlink:href="#DejaVuSans-50"/>
       <use x="127.246094" xlink:href="#DejaVuSans-53"/>
       <use x="190.869141" xlink:href="#DejaVuSans-48"/>
      </g>
     </g>
    </g>
    <g id="ytick_6">
     <g id="line2d_14">
      <g>
       <use style="stroke:#000000;stroke-width:0.8;" x="98.134375" xlink:href="#m5451bf9c66" y="223.868681"/>
      </g>
     </g>
     <g id="text_15">
      <!-- 1500 -->
      <g transform="translate(40.234375 231.467118)scale(0.2 -0.2)">
       <use xlink:href="#DejaVuSans-49"/>
       <use x="63.623047" xlink:href="#DejaVuSans-53"/>
       <use x="127.246094" xlink:href="#DejaVuSans-48"/>
       <use x="190.869141" xlink:href="#DejaVuSans-48"/>
      </g>
     </g>
    </g>
    <g id="ytick_7">
     <g id="line2d_15">
      <g>
       <use style="stroke:#000000;stroke-width:0.8;" x="98.134375" xlink:href="#m5451bf9c66" y="157.123433"/>
      </g>
     </g>
     <g id="text_16">
      <!-- 1750 -->
      <g transform="translate(40.234375 164.72187)scale(0.2 -0.2)">
       <use xlink:href="#DejaVuSans-49"/>
       <use x="63.623047" xlink:href="#DejaVuSans-55"/>
       <use x="127.246094" xlink:href="#DejaVuSans-53"/>
       <use x="190.869141" xlink:href="#DejaVuSans-48"/>
      </g>
     </g>
    </g>
    <g id="ytick_8">
     <g id="line2d_16">
      <g>
       <use style="stroke:#000000;stroke-width:0.8;" x="98.134375" xlink:href="#m5451bf9c66" y="90.378184"/>
      </g>
     </g>
     <g id="text_17">
      <!-- 2000 -->
      <g transform="translate(40.234375 97.976622)scale(0.2 -0.2)">
       <use xlink:href="#DejaVuSans-50"/>
       <use x="63.623047" xlink:href="#DejaVuSans-48"/>
       <use x="127.246094" xlink:href="#DejaVuSans-48"/>
       <use x="190.869141" xlink:href="#DejaVuSans-48"/>
      </g>
     </g>
    </g>
    <g id="text_18">
     <!-- # of Tornadoes -->
     <defs>
      <path d="M 51.125 44 
L 36.921875 44 
L 32.8125 27.6875 
L 47.125 27.6875 
z
M 43.796875 71.78125 
L 38.71875 51.515625 
L 52.984375 51.515625 
L 58.109375 71.78125 
L 65.921875 71.78125 
L 60.890625 51.515625 
L 76.125 51.515625 
L 76.125 44 
L 58.984375 44 
L 54.984375 27.6875 
L 70.515625 27.6875 
L 70.515625 20.21875 
L 53.078125 20.21875 
L 48 0 
L 40.1875 0 
L 45.21875 20.21875 
L 30.90625 20.21875 
L 25.875 0 
L 18.015625 0 
L 23.09375 20.21875 
L 7.71875 20.21875 
L 7.71875 27.6875 
L 24.90625 27.6875 
L 29 44 
L 13.28125 44 
L 13.28125 51.515625 
L 30.90625 51.515625 
L 35.890625 71.78125 
z
" id="DejaVuSans-35"/>
      <path id="DejaVuSans-32"/>
      <path d="M 30.609375 48.390625 
Q 23.390625 48.390625 19.1875 42.75 
Q 14.984375 37.109375 14.984375 27.296875 
Q 14.984375 17.484375 19.15625 11.84375 
Q 23.34375 6.203125 30.609375 6.203125 
Q 37.796875 6.203125 41.984375 11.859375 
Q 46.1875 17.53125 46.1875 27.296875 
Q 46.1875 37.015625 41.984375 42.703125 
Q 37.796875 48.390625 30.609375 48.390625 
z
M 30.609375 56 
Q 42.328125 56 49.015625 48.375 
Q 55.71875 40.765625 55.71875 27.296875 
Q 55.71875 13.875 49.015625 6.21875 
Q 42.328125 -1.421875 30.609375 -1.421875 
Q 18.84375 -1.421875 12.171875 6.21875 
Q 5.515625 13.875 5.515625 27.296875 
Q 5.515625 40.765625 12.171875 48.375 
Q 18.84375 56 30.609375 56 
z
" id="DejaVuSans-111"/>
      <path d="M 37.109375 75.984375 
L 37.109375 68.5 
L 28.515625 68.5 
Q 23.6875 68.5 21.796875 66.546875 
Q 19.921875 64.59375 19.921875 59.515625 
L 19.921875 54.6875 
L 34.71875 54.6875 
L 34.71875 47.703125 
L 19.921875 47.703125 
L 19.921875 0 
L 10.890625 0 
L 10.890625 47.703125 
L 2.296875 47.703125 
L 2.296875 54.6875 
L 10.890625 54.6875 
L 10.890625 58.5 
Q 10.890625 67.625 15.140625 71.796875 
Q 19.390625 75.984375 28.609375 75.984375 
z
" id="DejaVuSans-102"/>
      <path d="M -0.296875 72.90625 
L 61.375 72.90625 
L 61.375 64.59375 
L 35.5 64.59375 
L 35.5 0 
L 25.59375 0 
L 25.59375 64.59375 
L -0.296875 64.59375 
z
" id="DejaVuSans-84"/>
      <path d="M 54.890625 33.015625 
L 54.890625 0 
L 45.90625 0 
L 45.90625 32.71875 
Q 45.90625 40.484375 42.875 44.328125 
Q 39.84375 48.1875 33.796875 48.1875 
Q 26.515625 48.1875 22.3125 43.546875 
Q 18.109375 38.921875 18.109375 30.90625 
L 18.109375 0 
L 9.078125 0 
L 9.078125 54.6875 
L 18.109375 54.6875 
L 18.109375 46.1875 
Q 21.34375 51.125 25.703125 53.5625 
Q 30.078125 56 35.796875 56 
Q 45.21875 56 50.046875 50.171875 
Q 54.890625 44.34375 54.890625 33.015625 
z
" id="DejaVuSans-110"/>
      <path d="M 45.40625 46.390625 
L 45.40625 75.984375 
L 54.390625 75.984375 
L 54.390625 0 
L 45.40625 0 
L 45.40625 8.203125 
Q 42.578125 3.328125 38.25 0.953125 
Q 33.9375 -1.421875 27.875 -1.421875 
Q 17.96875 -1.421875 11.734375 6.484375 
Q 5.515625 14.40625 5.515625 27.296875 
Q 5.515625 40.1875 11.734375 48.09375 
Q 17.96875 56 27.875 56 
Q 33.9375 56 38.25 53.625 
Q 42.578125 51.265625 45.40625 46.390625 
z
M 14.796875 27.296875 
Q 14.796875 17.390625 18.875 11.75 
Q 22.953125 6.109375 30.078125 6.109375 
Q 37.203125 6.109375 41.296875 11.75 
Q 45.40625 17.390625 45.40625 27.296875 
Q 45.40625 37.203125 41.296875 42.84375 
Q 37.203125 48.484375 30.078125 48.484375 
Q 22.953125 48.484375 18.875 42.84375 
Q 14.796875 37.203125 14.796875 27.296875 
z
" id="DejaVuSans-100"/>
      <path d="M 44.28125 53.078125 
L 44.28125 44.578125 
Q 40.484375 46.53125 36.375 47.5 
Q 32.28125 48.484375 27.875 48.484375 
Q 21.1875 48.484375 17.84375 46.4375 
Q 14.5 44.390625 14.5 40.28125 
Q 14.5 37.15625 16.890625 35.375 
Q 19.28125 33.59375 26.515625 31.984375 
L 29.59375 31.296875 
Q 39.15625 29.25 43.1875 25.515625 
Q 47.21875 21.78125 47.21875 15.09375 
Q 47.21875 7.46875 41.1875 3.015625 
Q 35.15625 -1.421875 24.609375 -1.421875 
Q 20.21875 -1.421875 15.453125 -0.5625 
Q 10.6875 0.296875 5.421875 2 
L 5.421875 11.28125 
Q 10.40625 8.6875 15.234375 7.390625 
Q 20.0625 6.109375 24.8125 6.109375 
Q 31.15625 6.109375 34.5625 8.28125 
Q 37.984375 10.453125 37.984375 14.40625 
Q 37.984375 18.0625 35.515625 20.015625 
Q 33.0625 21.96875 24.703125 23.78125 
L 21.578125 24.515625 
Q 13.234375 26.265625 9.515625 29.90625 
Q 5.8125 33.546875 5.8125 39.890625 
Q 5.8125 47.609375 11.28125 51.796875 
Q 16.75 56 26.8125 56 
Q 31.78125 56 36.171875 55.265625 
Q 40.578125 54.546875 44.28125 53.078125 
z
" id="DejaVuSans-115"/>
     </defs>
     <g transform="translate(29.995313 430.411719)rotate(-90)scale(0.3 -0.3)">
      <use xlink:href="#DejaVuSans-35"/>
      <use x="83.789062" xlink:href="#DejaVuSans-32"/>
      <use x="115.576172" xlink:href="#DejaVuSans-111"/>
      <use x="176.757812" xlink:href="#DejaVuSans-102"/>
      <use x="211.962891" xlink:href="#DejaVuSans-32"/>
      <use x="243.75" xlink:href="#DejaVuSans-84"/>
      <use x="287.833984" xlink:href="#DejaVuSans-111"/>
      <use x="349.015625" xlink:href="#DejaVuSans-114"/>
      <use x="388.378906" xlink:href="#DejaVuSans-110"/>
      <use x="451.757812" xlink:href="#DejaVuSans-97"/>
      <use x="513.037109" xlink:href="#DejaVuSans-100"/>
      <use x="576.513672" xlink:href="#DejaVuSans-111"/>
      <use x="637.695312" xlink:href="#DejaVuSans-101"/>
      <use x="699.21875" xlink:href="#DejaVuSans-115"/>
     </g>
    </g>
   </g>
   <g id="line2d_17">
    <path clip-path="url(#pd7c3c3ea72)" d="M 148.861648 492.185761 
L 163.781434 488.124025 
L 178.70122 484.06229 
L 193.621006 480.000554 
L 208.540792 475.938819 
L 223.460578 471.877083 
L 238.380364 467.815348 
L 253.30015 463.753612 
L 268.219936 459.691877 
L 283.139723 455.630141 
L 298.059509 451.568406 
L 312.979295 447.50667 
L 327.899081 443.444935 
L 342.818867 439.383199 
L 357.738653 435.321464 
L 372.658439 431.259728 
L 387.578225 427.197993 
L 402.498011 423.136257 
L 417.417797 419.074522 
L 432.337584 415.012786 
L 447.25737 410.95105 
L 462.177156 406.889315 
L 477.096942 402.827579 
L 492.016728 398.765844 
L 506.936514 394.704108 
L 521.8563 390.642373 
L 536.776086 386.580637 
L 551.695872 382.518902 
L 566.615658 378.457166 
L 581.535445 374.395431 
L 596.455231 370.333695 
L 611.375017 366.27196 
L 626.294803 362.210224 
L 641.214589 358.148489 
L 656.134375 354.086753 
L 671.054161 350.025018 
L 685.973947 345.963282 
L 700.893733 341.901547 
L 715.813519 337.839811 
L 730.733305 333.778076 
L 745.653092 329.71634 
L 760.572878 325.654605 
L 775.492664 321.592869 
L 790.41245 317.531134 
L 805.332236 313.469398 
L 820.252022 309.407663 
L 835.171808 305.345927 
L 850.091594 301.284192 
L 865.01138 297.222456 
L 879.931166 293.160721 
L 894.850953 289.098985 
L 909.770739 285.03725 
L 924.690525 280.975514 
L 939.610311 276.913779 
L 954.530097 272.852043 
L 969.449883 268.790308 
L 984.369669 264.728572 
L 999.289455 260.666836 
L 1014.209241 256.605101 
L 1029.129027 252.543365 
L 1044.048814 248.48163 
L 1058.9686 244.419894 
L 1073.888386 240.358159 
L 1088.808172 236.296423 
L 1103.727958 232.234688 
L 1118.647744 228.172952 
L 1133.56753 224.111217 
L 1148.487316 220.049481 
L 1163.407102 215.987746 
" style="fill:none;stroke:#ff0000;stroke-linecap:square;stroke-width:1.5;"/>
   </g>
   <g id="patch_3">
    <path d="M 98.134375 589.5125 
L 98.134375 45.9125 
" style="fill:none;stroke:#000000;stroke-linecap:square;stroke-linejoin:miter;stroke-width:0.8;"/>
   </g>
   <g id="patch_4">
    <path d="M 98.134375 589.5125 
L 1214.134375 589.5125 
" style="fill:none;stroke:#000000;stroke-linecap:square;stroke-linejoin:miter;stroke-width:0.8;"/>
   </g>
   <g id="text_19">
    <!-- # Tornadoes per Year (1950-2019) -->
    <defs>
     <path d="M 18.109375 8.203125 
L 18.109375 -20.796875 
L 9.078125 -20.796875 
L 9.078125 54.6875 
L 18.109375 54.6875 
L 18.109375 46.390625 
Q 20.953125 51.265625 25.265625 53.625 
Q 29.59375 56 35.59375 56 
Q 45.5625 56 51.78125 48.09375 
Q 58.015625 40.1875 58.015625 27.296875 
Q 58.015625 14.40625 51.78125 6.484375 
Q 45.5625 -1.421875 35.59375 -1.421875 
Q 29.59375 -1.421875 25.265625 0.953125 
Q 20.953125 3.328125 18.109375 8.203125 
z
M 48.6875 27.296875 
Q 48.6875 37.203125 44.609375 42.84375 
Q 40.53125 48.484375 33.40625 48.484375 
Q 26.265625 48.484375 22.1875 42.84375 
Q 18.109375 37.203125 18.109375 27.296875 
Q 18.109375 17.390625 22.1875 11.75 
Q 26.265625 6.109375 33.40625 6.109375 
Q 40.53125 6.109375 44.609375 11.75 
Q 48.6875 17.390625 48.6875 27.296875 
z
" id="DejaVuSans-112"/>
     <path d="M 31 75.875 
Q 24.46875 64.65625 21.28125 53.65625 
Q 18.109375 42.671875 18.109375 31.390625 
Q 18.109375 20.125 21.3125 9.0625 
Q 24.515625 -2 31 -13.1875 
L 23.1875 -13.1875 
Q 15.875 -1.703125 12.234375 9.375 
Q 8.59375 20.453125 8.59375 31.390625 
Q 8.59375 42.28125 12.203125 53.3125 
Q 15.828125 64.359375 23.1875 75.875 
z
" id="DejaVuSans-40"/>
     <path d="M 4.890625 31.390625 
L 31.203125 31.390625 
L 31.203125 23.390625 
L 4.890625 23.390625 
z
" id="DejaVuSans-45"/>
     <path d="M 8.015625 75.875 
L 15.828125 75.875 
Q 23.140625 64.359375 26.78125 53.3125 
Q 30.421875 42.28125 30.421875 31.390625 
Q 30.421875 20.453125 26.78125 9.375 
Q 23.140625 -1.703125 15.828125 -13.1875 
L 8.015625 -13.1875 
Q 14.5 -2 17.703125 9.0625 
Q 20.90625 20.125 20.90625 31.390625 
Q 20.90625 42.671875 17.703125 53.65625 
Q 14.5 64.65625 8.015625 75.875 
z
" id="DejaVuSans-41"/>
    </defs>
    <g transform="translate(312.2375 37.59375)scale(0.4 -0.4)">
     <use xlink:href="#DejaVuSans-35"/>
     <use x="83.789062" xlink:href="#DejaVuSans-32"/>
     <use x="115.576172" xlink:href="#DejaVuSans-84"/>
     <use x="159.660156" xlink:href="#DejaVuSans-111"/>
     <use x="220.841797" xlink:href="#DejaVuSans-114"/>
     <use x="260.205078" xlink:href="#DejaVuSans-110"/>
     <use x="323.583984" xlink:href="#DejaVuSans-97"/>
     <use x="384.863281" xlink:href="#DejaVuSans-100"/>
     <use x="448.339844" xlink:href="#DejaVuSans-111"/>
     <use x="509.521484" xlink:href="#DejaVuSans-101"/>
     <use x="571.044922" xlink:href="#DejaVuSans-115"/>
     <use x="623.144531" xlink:href="#DejaVuSans-32"/>
     <use x="654.931641" xlink:href="#DejaVuSans-112"/>
     <use x="718.408203" xlink:href="#DejaVuSans-101"/>
     <use x="779.931641" xlink:href="#DejaVuSans-114"/>
     <use x="821.044922" xlink:href="#DejaVuSans-32"/>
     <use x="852.832031" xlink:href="#DejaVuSans-89"/>
     <use x="900.666016" xlink:href="#DejaVuSans-101"/>
     <use x="962.189453" xlink:href="#DejaVuSans-97"/>
     <use x="1023.46875" xlink:href="#DejaVuSans-114"/>
     <use x="1064.582031" xlink:href="#DejaVuSans-32"/>
     <use x="1096.369141" xlink:href="#DejaVuSans-40"/>
     <use x="1135.382812" xlink:href="#DejaVuSans-49"/>
     <use x="1199.005859" xlink:href="#DejaVuSans-57"/>
     <use x="1262.628906" xlink:href="#DejaVuSans-53"/>
     <use x="1326.251953" xlink:href="#DejaVuSans-48"/>
     <use x="1389.875" xlink:href="#DejaVuSans-45"/>
     <use x="1425.958984" xlink:href="#DejaVuSans-50"/>
     <use x="1489.582031" xlink:href="#DejaVuSans-48"/>
     <use x="1553.205078" xlink:href="#DejaVuSans-49"/>
     <use x="1616.828125" xlink:href="#DejaVuSans-57"/>
     <use x="1680.451172" xlink:href="#DejaVuSans-41"/>
    </g>
   </g>
  </g>
 </g>
 <defs>
  <clipPath id="pd7c3c3ea72">
   <rect height="543.6" width="1116" x="98.134375" y="45.9125"/>
  </clipPath>
 </defs>
</svg>
