<?xml version="1.0" encoding="utf-8" standalone="no"?>
<!DOCTYPE svg PUBLIC "-//W3C//DTD SVG 1.1//EN"
  "http://www.w3.org/Graphics/SVG/1.1/DTD/svg11.dtd">
<!-- Created with matplotlib (https://matplotlib.org/) -->
<svg height="395.60987pt" version="1.1" viewBox="0 0 662.165 395.60987" width="662.165pt" xmlns="http://www.w3.org/2000/svg" xmlns:xlink="http://www.w3.org/1999/xlink">
 <defs>
  <style type="text/css">
*{stroke-linecap:butt;stroke-linejoin:round;}
  </style>
 </defs>
 <g id="figure_1">
  <g id="patch_1">
   <path d="M 0 395.60987 
L 662.165 395.60987 
L 662.165 0 
L 0 0 
z
" style="fill:#ffffff;"/>
  </g>
  <g id="axes_1">
   <g id="patch_2">
    <path d="M 42.53875 294.118125 
L 600.53875 294.118125 
L 600.53875 22.318125 
L 42.53875 22.318125 
z
" style="fill:#ffffff;"/>
   </g>
   <g id="patch_3">
    <path clip-path="url(#p443232b16a)" d="M 63.157488 294.118125 
L 89.03875 294.118125 
L 89.03875 22.318125 
L 63.157488 22.318125 
z
" style="fill:#afeeee;"/>
   </g>
   <g id="patch_4">
    <path clip-path="url(#p443232b16a)" d="M 244.32632 294.118125 
L 270.207581 294.118125 
L 270.207581 22.318125 
L 244.32632 22.318125 
z
" style="fill:#afeeee;"/>
   </g>
   <g id="patch_5">
    <path clip-path="url(#p443232b16a)" d="M 373.732628 294.118125 
L 399.613889 294.118125 
L 399.613889 22.318125 
L 373.732628 22.318125 
z
" style="fill:#afeeee;"/>
   </g>
   <g id="patch_6">
    <path clip-path="url(#p443232b16a)" d="M 529.020197 294.118125 
L 554.901459 294.118125 
L 554.901459 22.318125 
L 529.020197 22.318125 
z
" style="fill:#afeeee;"/>
   </g>
   <g id="patch_7">
    <path clip-path="url(#p443232b16a)" d="M 67.902386 294.118125 
L 75.666765 294.118125 
L 75.666765 35.260982 
L 67.902386 35.260982 
z
" style="fill:#008000;"/>
   </g>
   <g id="patch_8">
    <path clip-path="url(#p443232b16a)" d="M 93.783648 294.118125 
L 101.548026 294.118125 
L 101.548026 74.175607 
L 93.783648 74.175607 
z
" style="fill:#008000;"/>
   </g>
   <g id="patch_9">
    <path clip-path="url(#p443232b16a)" d="M 119.66491 294.118125 
L 127.429288 294.118125 
L 127.429288 74.825215 
L 119.66491 74.825215 
z
" style="fill:#008000;"/>
   </g>
   <g id="patch_10">
    <path clip-path="url(#p443232b16a)" d="M 145.546171 294.118125 
L 153.31055 294.118125 
L 153.31055 91.637242 
L 145.546171 91.637242 
z
" style="fill:#008000;"/>
   </g>
   <g id="patch_11">
    <path clip-path="url(#p443232b16a)" d="M 171.427433 294.118125 
L 179.191811 294.118125 
L 179.191811 107.485029 
L 171.427433 107.485029 
z
" style="fill:#008000;"/>
   </g>
   <g id="patch_12">
    <path clip-path="url(#p443232b16a)" d="M 197.308694 294.118125 
L 205.073073 294.118125 
L 205.073073 113.567877 
L 197.308694 113.567877 
z
" style="fill:#008000;"/>
   </g>
   <g id="patch_13">
    <path clip-path="url(#p443232b16a)" d="M 223.189956 294.118125 
L 230.954334 294.118125 
L 230.954334 126.839235 
L 223.189956 126.839235 
z
" style="fill:#008000;"/>
   </g>
   <g id="patch_14">
    <path clip-path="url(#p443232b16a)" d="M 249.071218 294.118125 
L 256.835596 294.118125 
L 256.835596 128.663814 
L 249.071218 128.663814 
z
" style="fill:#008000;"/>
   </g>
   <g id="patch_15">
    <path clip-path="url(#p443232b16a)" d="M 274.952479 294.118125 
L 282.716858 294.118125 
L 282.716858 148.17138 
L 274.952479 148.17138 
z
" style="fill:#008000;"/>
   </g>
   <g id="patch_16">
    <path clip-path="url(#p443232b16a)" d="M 300.833741 294.118125 
L 308.598119 294.118125 
L 308.598119 152.831516 
L 300.833741 152.831516 
z
" style="fill:#008000;"/>
   </g>
   <g id="patch_17">
    <path clip-path="url(#p443232b16a)" d="M 326.715002 294.118125 
L 334.479381 294.118125 
L 334.479381 153.789971 
L 326.715002 153.789971 
z
" style="fill:#008000;"/>
   </g>
   <g id="patch_18">
    <path clip-path="url(#p443232b16a)" d="M 352.596264 294.118125 
L 360.360642 294.118125 
L 360.360642 158.63655 
L 352.596264 158.63655 
z
" style="fill:#008000;"/>
   </g>
   <g id="patch_19">
    <path clip-path="url(#p443232b16a)" d="M 378.477526 294.118125 
L 386.241904 294.118125 
L 386.241904 165.087804 
L 378.477526 165.087804 
z
" style="fill:#008000;"/>
   </g>
   <g id="patch_20">
    <path clip-path="url(#p443232b16a)" d="M 404.358787 294.118125 
L 412.123166 294.118125 
L 412.123166 167.375645 
L 404.358787 167.375645 
z
" style="fill:#008000;"/>
   </g>
   <g id="patch_21">
    <path clip-path="url(#p443232b16a)" d="M 430.240049 294.118125 
L 438.004427 294.118125 
L 438.004427 173.621738 
L 430.240049 173.621738 
z
" style="fill:#008000;"/>
   </g>
   <g id="patch_22">
    <path clip-path="url(#p443232b16a)" d="M 456.12131 294.118125 
L 463.885689 294.118125 
L 463.885689 194.686895 
L 456.12131 194.686895 
z
" style="fill:#008000;"/>
   </g>
   <g id="patch_23">
    <path clip-path="url(#p443232b16a)" d="M 482.002572 294.118125 
L 489.76695 294.118125 
L 489.76695 196.643324 
L 482.002572 196.643324 
z
" style="fill:#008000;"/>
   </g>
   <g id="patch_24">
    <path clip-path="url(#p443232b16a)" d="M 507.883833 294.118125 
L 515.648212 294.118125 
L 515.648212 201.201427 
L 507.883833 201.201427 
z
" style="fill:#008000;"/>
   </g>
   <g id="patch_25">
    <path clip-path="url(#p443232b16a)" d="M 533.765095 294.118125 
L 541.529474 294.118125 
L 541.529474 202.822304 
L 533.765095 202.822304 
z
" style="fill:#008000;"/>
   </g>
   <g id="patch_26">
    <path clip-path="url(#p443232b16a)" d="M 559.646357 294.118125 
L 567.410735 294.118125 
L 567.410735 203.221154 
L 559.646357 203.221154 
z
" style="fill:#008000;"/>
   </g>
   <g id="matplotlib.axis_1">
    <g id="xtick_1">
     <g id="line2d_1">
      <defs>
       <path d="M 0 0 
L 0 3.5 
" id="mbe8ec4c1e5" style="stroke:#000000;stroke-width:0.8;"/>
      </defs>
      <g>
       <use style="stroke:#000000;stroke-width:0.8;" x="71.784576" xlink:href="#mbe8ec4c1e5" y="294.118125"/>
      </g>
     </g>
     <g id="text_1">
      <!-- California -->
      <defs>
       <path d="M 64.40625 67.28125 
L 64.40625 56.890625 
Q 59.421875 61.53125 53.78125 63.8125 
Q 48.140625 66.109375 41.796875 66.109375 
Q 29.296875 66.109375 22.65625 58.46875 
Q 16.015625 50.828125 16.015625 36.375 
Q 16.015625 21.96875 22.65625 14.328125 
Q 29.296875 6.6875 41.796875 6.6875 
Q 48.140625 6.6875 53.78125 8.984375 
Q 59.421875 11.28125 64.40625 15.921875 
L 64.40625 5.609375 
Q 59.234375 2.09375 53.4375 0.328125 
Q 47.65625 -1.421875 41.21875 -1.421875 
Q 24.65625 -1.421875 15.125 8.703125 
Q 5.609375 18.84375 5.609375 36.375 
Q 5.609375 53.953125 15.125 64.078125 
Q 24.65625 74.21875 41.21875 74.21875 
Q 47.75 74.21875 53.53125 72.484375 
Q 59.328125 70.75 64.40625 67.28125 
z
" id="DejaVuSans-67"/>
       <path d="M 34.28125 27.484375 
Q 23.390625 27.484375 19.1875 25 
Q 14.984375 22.515625 14.984375 16.5 
Q 14.984375 11.71875 18.140625 8.90625 
Q 21.296875 6.109375 26.703125 6.109375 
Q 34.1875 6.109375 38.703125 11.40625 
Q 43.21875 16.703125 43.21875 25.484375 
L 43.21875 27.484375 
z
M 52.203125 31.203125 
L 52.203125 0 
L 43.21875 0 
L 43.21875 8.296875 
Q 40.140625 3.328125 35.546875 0.953125 
Q 30.953125 -1.421875 24.3125 -1.421875 
Q 15.921875 -1.421875 10.953125 3.296875 
Q 6 8.015625 6 15.921875 
Q 6 25.140625 12.171875 29.828125 
Q 18.359375 34.515625 30.609375 34.515625 
L 43.21875 34.515625 
L 43.21875 35.40625 
Q 43.21875 41.609375 39.140625 45 
Q 35.0625 48.390625 27.6875 48.390625 
Q 23 48.390625 18.546875 47.265625 
Q 14.109375 46.140625 10.015625 43.890625 
L 10.015625 52.203125 
Q 14.9375 54.109375 19.578125 55.046875 
Q 24.21875 56 28.609375 56 
Q 40.484375 56 46.34375 49.84375 
Q 52.203125 43.703125 52.203125 31.203125 
z
" id="DejaVuSans-97"/>
       <path d="M 9.421875 75.984375 
L 18.40625 75.984375 
L 18.40625 0 
L 9.421875 0 
z
" id="DejaVuSans-108"/>
       <path d="M 9.421875 54.6875 
L 18.40625 54.6875 
L 18.40625 0 
L 9.421875 0 
z
M 9.421875 75.984375 
L 18.40625 75.984375 
L 18.40625 64.59375 
L 9.421875 64.59375 
z
" id="DejaVuSans-105"/>
       <path d="M 37.109375 75.984375 
L 37.109375 68.5 
L 28.515625 68.5 
Q 23.6875 68.5 21.796875 66.546875 
Q 19.921875 64.59375 19.921875 59.515625 
L 19.921875 54.6875 
L 34.71875 54.6875 
L 34.71875 47.703125 
L 19.921875 47.703125 
L 19.921875 0 
L 10.890625 0 
L 10.890625 47.703125 
L 2.296875 47.703125 
L 2.296875 54.6875 
L 10.890625 54.6875 
L 10.890625 58.5 
Q 10.890625 67.625 15.140625 71.796875 
Q 19.390625 75.984375 28.609375 75.984375 
z
" id="DejaVuSans-102"/>
       <path d="M 30.609375 48.390625 
Q 23.390625 48.390625 19.1875 42.75 
Q 14.984375 37.109375 14.984375 27.296875 
Q 14.984375 17.484375 19.15625 11.84375 
Q 23.34375 6.203125 30.609375 6.203125 
Q 37.796875 6.203125 41.984375 11.859375 
Q 46.1875 17.53125 46.1875 27.296875 
Q 46.1875 37.015625 41.984375 42.703125 
Q 37.796875 48.390625 30.609375 48.390625 
z
M 30.609375 56 
Q 42.328125 56 49.015625 48.375 
Q 55.71875 40.765625 55.71875 27.296875 
Q 55.71875 13.875 49.015625 6.21875 
Q 42.328125 -1.421875 30.609375 -1.421875 
Q 18.84375 -1.421875 12.171875 6.21875 
Q 5.515625 13.875 5.515625 27.296875 
Q 5.515625 40.765625 12.171875 48.375 
Q 18.84375 56 30.609375 56 
z
" id="DejaVuSans-111"/>
       <path d="M 41.109375 46.296875 
Q 39.59375 47.171875 37.8125 47.578125 
Q 36.03125 48 33.890625 48 
Q 26.265625 48 22.1875 43.046875 
Q 18.109375 38.09375 18.109375 28.8125 
L 18.109375 0 
L 9.078125 0 
L 9.078125 54.6875 
L 18.109375 54.6875 
L 18.109375 46.1875 
Q 20.953125 51.171875 25.484375 53.578125 
Q 30.03125 56 36.53125 56 
Q 37.453125 56 38.578125 55.875 
Q 39.703125 55.765625 41.0625 55.515625 
z
" id="DejaVuSans-114"/>
       <path d="M 54.890625 33.015625 
L 54.890625 0 
L 45.90625 0 
L 45.90625 32.71875 
Q 45.90625 40.484375 42.875 44.328125 
Q 39.84375 48.1875 33.796875 48.1875 
Q 26.515625 48.1875 22.3125 43.546875 
Q 18.109375 38.921875 18.109375 30.90625 
L 18.109375 0 
L 9.078125 0 
L 9.078125 54.6875 
L 18.109375 54.6875 
L 18.109375 46.1875 
Q 21.34375 51.125 25.703125 53.5625 
Q 30.078125 56 35.796875 56 
Q 45.21875 56 50.046875 50.171875 
Q 54.890625 44.34375 54.890625 33.015625 
z
" id="DejaVuSans-110"/>
      </defs>
      <g transform="translate(65.151445 357.783329)rotate(-70)scale(0.12 -0.12)">
       <use xlink:href="#DejaVuSans-67"/>
       <use x="69.824219" xlink:href="#DejaVuSans-97"/>
       <use x="131.103516" xlink:href="#DejaVuSans-108"/>
       <use x="158.886719" xlink:href="#DejaVuSans-105"/>
       <use x="186.669922" xlink:href="#DejaVuSans-102"/>
       <use x="221.875" xlink:href="#DejaVuSans-111"/>
       <use x="283.056641" xlink:href="#DejaVuSans-114"/>
       <use x="322.419922" xlink:href="#DejaVuSans-110"/>
       <use x="385.798828" xlink:href="#DejaVuSans-105"/>
       <use x="413.582031" xlink:href="#DejaVuSans-97"/>
      </g>
     </g>
    </g>
    <g id="xtick_2">
     <g id="line2d_2">
      <g>
       <use style="stroke:#000000;stroke-width:0.8;" x="97.665837" xlink:href="#mbe8ec4c1e5" y="294.118125"/>
      </g>
     </g>
     <g id="text_2">
      <!-- New Jersey -->
      <defs>
       <path d="M 9.8125 72.90625 
L 23.09375 72.90625 
L 55.421875 11.921875 
L 55.421875 72.90625 
L 64.984375 72.90625 
L 64.984375 0 
L 51.703125 0 
L 19.390625 60.984375 
L 19.390625 0 
L 9.8125 0 
z
" id="DejaVuSans-78"/>
       <path d="M 56.203125 29.59375 
L 56.203125 25.203125 
L 14.890625 25.203125 
Q 15.484375 15.921875 20.484375 11.0625 
Q 25.484375 6.203125 34.421875 6.203125 
Q 39.59375 6.203125 44.453125 7.46875 
Q 49.3125 8.734375 54.109375 11.28125 
L 54.109375 2.78125 
Q 49.265625 0.734375 44.1875 -0.34375 
Q 39.109375 -1.421875 33.890625 -1.421875 
Q 20.796875 -1.421875 13.15625 6.1875 
Q 5.515625 13.8125 5.515625 26.8125 
Q 5.515625 40.234375 12.765625 48.109375 
Q 20.015625 56 32.328125 56 
Q 43.359375 56 49.78125 48.890625 
Q 56.203125 41.796875 56.203125 29.59375 
z
M 47.21875 32.234375 
Q 47.125 39.59375 43.09375 43.984375 
Q 39.0625 48.390625 32.421875 48.390625 
Q 24.90625 48.390625 20.390625 44.140625 
Q 15.875 39.890625 15.1875 32.171875 
z
" id="DejaVuSans-101"/>
       <path d="M 4.203125 54.6875 
L 13.1875 54.6875 
L 24.421875 12.015625 
L 35.59375 54.6875 
L 46.1875 54.6875 
L 57.421875 12.015625 
L 68.609375 54.6875 
L 77.59375 54.6875 
L 63.28125 0 
L 52.6875 0 
L 40.921875 44.828125 
L 29.109375 0 
L 18.5 0 
z
" id="DejaVuSans-119"/>
       <path id="DejaVuSans-32"/>
       <path d="M 9.8125 72.90625 
L 19.671875 72.90625 
L 19.671875 5.078125 
Q 19.671875 -8.109375 14.671875 -14.0625 
Q 9.671875 -20.015625 -1.421875 -20.015625 
L -5.171875 -20.015625 
L -5.171875 -11.71875 
L -2.09375 -11.71875 
Q 4.4375 -11.71875 7.125 -8.046875 
Q 9.8125 -4.390625 9.8125 5.078125 
z
" id="DejaVuSans-74"/>
       <path d="M 44.28125 53.078125 
L 44.28125 44.578125 
Q 40.484375 46.53125 36.375 47.5 
Q 32.28125 48.484375 27.875 48.484375 
Q 21.1875 48.484375 17.84375 46.4375 
Q 14.5 44.390625 14.5 40.28125 
Q 14.5 37.15625 16.890625 35.375 
Q 19.28125 33.59375 26.515625 31.984375 
L 29.59375 31.296875 
Q 39.15625 29.25 43.1875 25.515625 
Q 47.21875 21.78125 47.21875 15.09375 
Q 47.21875 7.46875 41.1875 3.015625 
Q 35.15625 -1.421875 24.609375 -1.421875 
Q 20.21875 -1.421875 15.453125 -0.5625 
Q 10.6875 0.296875 5.421875 2 
L 5.421875 11.28125 
Q 10.40625 8.6875 15.234375 7.390625 
Q 20.0625 6.109375 24.8125 6.109375 
Q 31.15625 6.109375 34.5625 8.28125 
Q 37.984375 10.453125 37.984375 14.40625 
Q 37.984375 18.0625 35.515625 20.015625 
Q 33.0625 21.96875 24.703125 23.78125 
L 21.578125 24.515625 
Q 13.234375 26.265625 9.515625 29.90625 
Q 5.8125 33.546875 5.8125 39.890625 
Q 5.8125 47.609375 11.28125 51.796875 
Q 16.75 56 26.8125 56 
Q 31.78125 56 36.171875 55.265625 
Q 40.578125 54.546875 44.28125 53.078125 
z
" id="DejaVuSans-115"/>
       <path d="M 32.171875 -5.078125 
Q 28.375 -14.84375 24.75 -17.8125 
Q 21.140625 -20.796875 15.09375 -20.796875 
L 7.90625 -20.796875 
L 7.90625 -13.28125 
L 13.1875 -13.28125 
Q 16.890625 -13.28125 18.9375 -11.515625 
Q 21 -9.765625 23.484375 -3.21875 
L 25.09375 0.875 
L 2.984375 54.6875 
L 12.5 54.6875 
L 29.59375 11.921875 
L 46.6875 54.6875 
L 56.203125 54.6875 
z
" id="DejaVuSans-121"/>
      </defs>
      <g transform="translate(89.391009 366.804379)rotate(-70)scale(0.12 -0.12)">
       <use xlink:href="#DejaVuSans-78"/>
       <use x="74.804688" xlink:href="#DejaVuSans-101"/>
       <use x="136.328125" xlink:href="#DejaVuSans-119"/>
       <use x="218.115234" xlink:href="#DejaVuSans-32"/>
       <use x="249.902344" xlink:href="#DejaVuSans-74"/>
       <use x="279.394531" xlink:href="#DejaVuSans-101"/>
       <use x="340.917969" xlink:href="#DejaVuSans-114"/>
       <use x="382.03125" xlink:href="#DejaVuSans-115"/>
       <use x="434.130859" xlink:href="#DejaVuSans-101"/>
       <use x="495.654297" xlink:href="#DejaVuSans-121"/>
      </g>
     </g>
    </g>
    <g id="xtick_3">
     <g id="line2d_3">
      <g>
       <use style="stroke:#000000;stroke-width:0.8;" x="123.547099" xlink:href="#mbe8ec4c1e5" y="294.118125"/>
      </g>
     </g>
     <g id="text_3">
      <!-- New York -->
      <defs>
       <path d="M -0.203125 72.90625 
L 10.40625 72.90625 
L 30.609375 42.921875 
L 50.6875 72.90625 
L 61.28125 72.90625 
L 35.5 34.71875 
L 35.5 0 
L 25.59375 0 
L 25.59375 34.71875 
z
" id="DejaVuSans-89"/>
       <path d="M 9.078125 75.984375 
L 18.109375 75.984375 
L 18.109375 31.109375 
L 44.921875 54.6875 
L 56.390625 54.6875 
L 27.390625 29.109375 
L 57.625 0 
L 45.90625 0 
L 18.109375 26.703125 
L 18.109375 0 
L 9.078125 0 
z
" id="DejaVuSans-107"/>
      </defs>
      <g transform="translate(117.261225 355.875166)rotate(-70)scale(0.12 -0.12)">
       <use xlink:href="#DejaVuSans-78"/>
       <use x="74.804688" xlink:href="#DejaVuSans-101"/>
       <use x="136.328125" xlink:href="#DejaVuSans-119"/>
       <use x="218.115234" xlink:href="#DejaVuSans-32"/>
       <use x="249.902344" xlink:href="#DejaVuSans-89"/>
       <use x="297.736328" xlink:href="#DejaVuSans-111"/>
       <use x="358.917969" xlink:href="#DejaVuSans-114"/>
       <use x="400.03125" xlink:href="#DejaVuSans-107"/>
      </g>
     </g>
    </g>
    <g id="xtick_4">
     <g id="line2d_4">
      <g>
       <use style="stroke:#000000;stroke-width:0.8;" x="149.42836" xlink:href="#mbe8ec4c1e5" y="294.118125"/>
      </g>
     </g>
     <g id="text_4">
      <!-- Florida -->
      <defs>
       <path d="M 9.8125 72.90625 
L 51.703125 72.90625 
L 51.703125 64.59375 
L 19.671875 64.59375 
L 19.671875 43.109375 
L 48.578125 43.109375 
L 48.578125 34.8125 
L 19.671875 34.8125 
L 19.671875 0 
L 9.8125 0 
z
" id="DejaVuSans-70"/>
       <path d="M 45.40625 46.390625 
L 45.40625 75.984375 
L 54.390625 75.984375 
L 54.390625 0 
L 45.40625 0 
L 45.40625 8.203125 
Q 42.578125 3.328125 38.25 0.953125 
Q 33.9375 -1.421875 27.875 -1.421875 
Q 17.96875 -1.421875 11.734375 6.484375 
Q 5.515625 14.40625 5.515625 27.296875 
Q 5.515625 40.1875 11.734375 48.09375 
Q 17.96875 56 27.875 56 
Q 33.9375 56 38.25 53.625 
Q 42.578125 51.265625 45.40625 46.390625 
z
M 14.796875 27.296875 
Q 14.796875 17.390625 18.875 11.75 
Q 22.953125 6.109375 30.078125 6.109375 
Q 37.203125 6.109375 41.296875 11.75 
Q 45.40625 17.390625 45.40625 27.296875 
Q 45.40625 37.203125 41.296875 42.84375 
Q 37.203125 48.484375 30.078125 48.484375 
Q 22.953125 48.484375 18.875 42.84375 
Q 14.796875 37.203125 14.796875 27.296875 
z
" id="DejaVuSans-100"/>
      </defs>
      <g transform="translate(145.559821 342.592024)rotate(-70)scale(0.12 -0.12)">
       <use xlink:href="#DejaVuSans-70"/>
       <use x="57.519531" xlink:href="#DejaVuSans-108"/>
       <use x="85.302734" xlink:href="#DejaVuSans-111"/>
       <use x="146.484375" xlink:href="#DejaVuSans-114"/>
       <use x="187.597656" xlink:href="#DejaVuSans-105"/>
       <use x="215.380859" xlink:href="#DejaVuSans-100"/>
       <use x="278.857422" xlink:href="#DejaVuSans-97"/>
      </g>
     </g>
    </g>
    <g id="xtick_5">
     <g id="line2d_5">
      <g>
       <use style="stroke:#000000;stroke-width:0.8;" x="175.309622" xlink:href="#mbe8ec4c1e5" y="294.118125"/>
      </g>
     </g>
     <g id="text_5">
      <!-- Nevada -->
      <defs>
       <path d="M 2.984375 54.6875 
L 12.5 54.6875 
L 29.59375 8.796875 
L 46.6875 54.6875 
L 56.203125 54.6875 
L 35.6875 0 
L 23.484375 0 
z
" id="DejaVuSans-118"/>
      </defs>
      <g transform="translate(170.590735 347.264645)rotate(-70)scale(0.12 -0.12)">
       <use xlink:href="#DejaVuSans-78"/>
       <use x="74.804688" xlink:href="#DejaVuSans-101"/>
       <use x="136.328125" xlink:href="#DejaVuSans-118"/>
       <use x="195.507812" xlink:href="#DejaVuSans-97"/>
       <use x="256.787109" xlink:href="#DejaVuSans-100"/>
       <use x="320.263672" xlink:href="#DejaVuSans-97"/>
      </g>
     </g>
    </g>
    <g id="xtick_6">
     <g id="line2d_6">
      <g>
       <use style="stroke:#000000;stroke-width:0.8;" x="201.190884" xlink:href="#mbe8ec4c1e5" y="294.118125"/>
      </g>
     </g>
     <g id="text_6">
      <!-- Hawaii -->
      <defs>
       <path d="M 9.8125 72.90625 
L 19.671875 72.90625 
L 19.671875 43.015625 
L 55.515625 43.015625 
L 55.515625 72.90625 
L 65.375 72.90625 
L 65.375 0 
L 55.515625 0 
L 55.515625 34.71875 
L 19.671875 34.71875 
L 19.671875 0 
L 9.8125 0 
z
" id="DejaVuSans-72"/>
      </defs>
      <g transform="translate(197.425591 342.024684)rotate(-70)scale(0.12 -0.12)">
       <use xlink:href="#DejaVuSans-72"/>
       <use x="75.195312" xlink:href="#DejaVuSans-97"/>
       <use x="136.474609" xlink:href="#DejaVuSans-119"/>
       <use x="218.261719" xlink:href="#DejaVuSans-97"/>
       <use x="279.541016" xlink:href="#DejaVuSans-105"/>
       <use x="307.324219" xlink:href="#DejaVuSans-105"/>
      </g>
     </g>
    </g>
    <g id="xtick_7">
     <g id="line2d_7">
      <g>
       <use style="stroke:#000000;stroke-width:0.8;" x="227.072145" xlink:href="#mbe8ec4c1e5" y="294.118125"/>
      </g>
     </g>
     <g id="text_7">
      <!-- Massachusetts -->
      <defs>
       <path d="M 9.8125 72.90625 
L 24.515625 72.90625 
L 43.109375 23.296875 
L 61.8125 72.90625 
L 76.515625 72.90625 
L 76.515625 0 
L 66.890625 0 
L 66.890625 64.015625 
L 48.09375 14.015625 
L 38.1875 14.015625 
L 19.390625 64.015625 
L 19.390625 0 
L 9.8125 0 
z
" id="DejaVuSans-77"/>
       <path d="M 48.78125 52.59375 
L 48.78125 44.1875 
Q 44.96875 46.296875 41.140625 47.34375 
Q 37.3125 48.390625 33.40625 48.390625 
Q 24.65625 48.390625 19.8125 42.84375 
Q 14.984375 37.3125 14.984375 27.296875 
Q 14.984375 17.28125 19.8125 11.734375 
Q 24.65625 6.203125 33.40625 6.203125 
Q 37.3125 6.203125 41.140625 7.25 
Q 44.96875 8.296875 48.78125 10.40625 
L 48.78125 2.09375 
Q 45.015625 0.34375 40.984375 -0.53125 
Q 36.96875 -1.421875 32.421875 -1.421875 
Q 20.0625 -1.421875 12.78125 6.34375 
Q 5.515625 14.109375 5.515625 27.296875 
Q 5.515625 40.671875 12.859375 48.328125 
Q 20.21875 56 33.015625 56 
Q 37.15625 56 41.109375 55.140625 
Q 45.0625 54.296875 48.78125 52.59375 
z
" id="DejaVuSans-99"/>
       <path d="M 54.890625 33.015625 
L 54.890625 0 
L 45.90625 0 
L 45.90625 32.71875 
Q 45.90625 40.484375 42.875 44.328125 
Q 39.84375 48.1875 33.796875 48.1875 
Q 26.515625 48.1875 22.3125 43.546875 
Q 18.109375 38.921875 18.109375 30.90625 
L 18.109375 0 
L 9.078125 0 
L 9.078125 75.984375 
L 18.109375 75.984375 
L 18.109375 46.1875 
Q 21.34375 51.125 25.703125 53.5625 
Q 30.078125 56 35.796875 56 
Q 45.21875 56 50.046875 50.171875 
Q 54.890625 44.34375 54.890625 33.015625 
z
" id="DejaVuSans-104"/>
       <path d="M 8.5 21.578125 
L 8.5 54.6875 
L 17.484375 54.6875 
L 17.484375 21.921875 
Q 17.484375 14.15625 20.5 10.265625 
Q 23.53125 6.390625 29.59375 6.390625 
Q 36.859375 6.390625 41.078125 11.03125 
Q 45.3125 15.671875 45.3125 23.6875 
L 45.3125 54.6875 
L 54.296875 54.6875 
L 54.296875 0 
L 45.3125 0 
L 45.3125 8.40625 
Q 42.046875 3.421875 37.71875 1 
Q 33.40625 -1.421875 27.6875 -1.421875 
Q 18.265625 -1.421875 13.375 4.4375 
Q 8.5 10.296875 8.5 21.578125 
z
M 31.109375 56 
z
" id="DejaVuSans-117"/>
       <path d="M 18.3125 70.21875 
L 18.3125 54.6875 
L 36.8125 54.6875 
L 36.8125 47.703125 
L 18.3125 47.703125 
L 18.3125 18.015625 
Q 18.3125 11.328125 20.140625 9.421875 
Q 21.96875 7.515625 27.59375 7.515625 
L 36.8125 7.515625 
L 36.8125 0 
L 27.59375 0 
Q 17.1875 0 13.234375 3.875 
Q 9.28125 7.765625 9.28125 18.015625 
L 9.28125 47.703125 
L 2.6875 47.703125 
L 2.6875 54.6875 
L 9.28125 54.6875 
L 9.28125 70.21875 
z
" id="DejaVuSans-116"/>
      </defs>
      <g transform="translate(215.020774 387.556316)rotate(-70)scale(0.12 -0.12)">
       <use xlink:href="#DejaVuSans-77"/>
       <use x="86.279297" xlink:href="#DejaVuSans-97"/>
       <use x="147.558594" xlink:href="#DejaVuSans-115"/>
       <use x="199.658203" xlink:href="#DejaVuSans-115"/>
       <use x="251.757812" xlink:href="#DejaVuSans-97"/>
       <use x="313.037109" xlink:href="#DejaVuSans-99"/>
       <use x="368.017578" xlink:href="#DejaVuSans-104"/>
       <use x="431.396484" xlink:href="#DejaVuSans-117"/>
       <use x="494.775391" xlink:href="#DejaVuSans-115"/>
       <use x="546.875" xlink:href="#DejaVuSans-101"/>
       <use x="608.398438" xlink:href="#DejaVuSans-116"/>
       <use x="647.607422" xlink:href="#DejaVuSans-116"/>
       <use x="686.816406" xlink:href="#DejaVuSans-115"/>
      </g>
     </g>
    </g>
    <g id="xtick_8">
     <g id="line2d_8">
      <g>
       <use style="stroke:#000000;stroke-width:0.8;" x="252.953407" xlink:href="#mbe8ec4c1e5" y="294.118125"/>
      </g>
     </g>
     <g id="text_8">
      <!-- Texas -->
      <defs>
       <path d="M -0.296875 72.90625 
L 61.375 72.90625 
L 61.375 64.59375 
L 35.5 64.59375 
L 35.5 0 
L 25.59375 0 
L 25.59375 64.59375 
L -0.296875 64.59375 
z
" id="DejaVuSans-84"/>
       <path d="M 54.890625 54.6875 
L 35.109375 28.078125 
L 55.90625 0 
L 45.3125 0 
L 29.390625 21.484375 
L 13.484375 0 
L 2.875 0 
L 24.125 28.609375 
L 4.6875 54.6875 
L 15.28125 54.6875 
L 29.78125 35.203125 
L 44.28125 54.6875 
z
" id="DejaVuSans-120"/>
      </defs>
      <g transform="translate(250.392453 335.406899)rotate(-70)scale(0.12 -0.12)">
       <use xlink:href="#DejaVuSans-84"/>
       <use x="44.083984" xlink:href="#DejaVuSans-101"/>
       <use x="103.857422" xlink:href="#DejaVuSans-120"/>
       <use x="163.037109" xlink:href="#DejaVuSans-97"/>
       <use x="224.316406" xlink:href="#DejaVuSans-115"/>
      </g>
     </g>
    </g>
    <g id="xtick_9">
     <g id="line2d_9">
      <g>
       <use style="stroke:#000000;stroke-width:0.8;" x="278.834668" xlink:href="#mbe8ec4c1e5" y="294.118125"/>
      </g>
     </g>
     <g id="text_9">
      <!-- Maryland -->
      <g transform="translate(272.428874 356.534126)rotate(-70)scale(0.12 -0.12)">
       <use xlink:href="#DejaVuSans-77"/>
       <use x="86.279297" xlink:href="#DejaVuSans-97"/>
       <use x="147.558594" xlink:href="#DejaVuSans-114"/>
       <use x="188.671875" xlink:href="#DejaVuSans-121"/>
       <use x="247.851562" xlink:href="#DejaVuSans-108"/>
       <use x="275.634766" xlink:href="#DejaVuSans-97"/>
       <use x="336.914062" xlink:href="#DejaVuSans-110"/>
       <use x="400.292969" xlink:href="#DejaVuSans-100"/>
      </g>
     </g>
    </g>
    <g id="xtick_10">
     <g id="line2d_10">
      <g>
       <use style="stroke:#000000;stroke-width:0.8;" x="304.71593" xlink:href="#mbe8ec4c1e5" y="294.118125"/>
      </g>
     </g>
     <g id="text_10">
      <!-- Washington -->
      <defs>
       <path d="M 3.328125 72.90625 
L 13.28125 72.90625 
L 28.609375 11.28125 
L 43.890625 72.90625 
L 54.984375 72.90625 
L 70.3125 11.28125 
L 85.59375 72.90625 
L 95.609375 72.90625 
L 77.296875 0 
L 64.890625 0 
L 49.515625 63.28125 
L 33.984375 0 
L 21.578125 0 
z
" id="DejaVuSans-87"/>
       <path d="M 45.40625 27.984375 
Q 45.40625 37.75 41.375 43.109375 
Q 37.359375 48.484375 30.078125 48.484375 
Q 22.859375 48.484375 18.828125 43.109375 
Q 14.796875 37.75 14.796875 27.984375 
Q 14.796875 18.265625 18.828125 12.890625 
Q 22.859375 7.515625 30.078125 7.515625 
Q 37.359375 7.515625 41.375 12.890625 
Q 45.40625 18.265625 45.40625 27.984375 
z
M 54.390625 6.78125 
Q 54.390625 -7.171875 48.1875 -13.984375 
Q 42 -20.796875 29.203125 -20.796875 
Q 24.46875 -20.796875 20.265625 -20.09375 
Q 16.0625 -19.390625 12.109375 -17.921875 
L 12.109375 -9.1875 
Q 16.0625 -11.328125 19.921875 -12.34375 
Q 23.78125 -13.375 27.78125 -13.375 
Q 36.625 -13.375 41.015625 -8.765625 
Q 45.40625 -4.15625 45.40625 5.171875 
L 45.40625 9.625 
Q 42.625 4.78125 38.28125 2.390625 
Q 33.9375 0 27.875 0 
Q 17.828125 0 11.671875 7.65625 
Q 5.515625 15.328125 5.515625 27.984375 
Q 5.515625 40.671875 11.671875 48.328125 
Q 17.828125 56 27.875 56 
Q 33.9375 56 38.28125 53.609375 
Q 42.625 51.21875 45.40625 46.390625 
L 45.40625 54.6875 
L 54.390625 54.6875 
z
" id="DejaVuSans-103"/>
      </defs>
      <g transform="translate(295.768071 370.502656)rotate(-70)scale(0.12 -0.12)">
       <use xlink:href="#DejaVuSans-87"/>
       <use x="92.501953" xlink:href="#DejaVuSans-97"/>
       <use x="153.78125" xlink:href="#DejaVuSans-115"/>
       <use x="205.880859" xlink:href="#DejaVuSans-104"/>
       <use x="269.259766" xlink:href="#DejaVuSans-105"/>
       <use x="297.042969" xlink:href="#DejaVuSans-110"/>
       <use x="360.421875" xlink:href="#DejaVuSans-103"/>
       <use x="423.898438" xlink:href="#DejaVuSans-116"/>
       <use x="463.107422" xlink:href="#DejaVuSans-111"/>
       <use x="524.289062" xlink:href="#DejaVuSans-110"/>
      </g>
     </g>
    </g>
    <g id="xtick_11">
     <g id="line2d_11">
      <g>
       <use style="stroke:#000000;stroke-width:0.8;" x="330.597192" xlink:href="#mbe8ec4c1e5" y="294.118125"/>
      </g>
     </g>
     <g id="text_11">
      <!-- Connecticut -->
      <g transform="translate(321.420072 371.762432)rotate(-70)scale(0.12 -0.12)">
       <use xlink:href="#DejaVuSans-67"/>
       <use x="69.824219" xlink:href="#DejaVuSans-111"/>
       <use x="131.005859" xlink:href="#DejaVuSans-110"/>
       <use x="194.384766" xlink:href="#DejaVuSans-110"/>
       <use x="257.763672" xlink:href="#DejaVuSans-101"/>
       <use x="319.287109" xlink:href="#DejaVuSans-99"/>
       <use x="374.267578" xlink:href="#DejaVuSans-116"/>
       <use x="413.476562" xlink:href="#DejaVuSans-105"/>
       <use x="441.259766" xlink:href="#DejaVuSans-99"/>
       <use x="496.240234" xlink:href="#DejaVuSans-117"/>
       <use x="559.619141" xlink:href="#DejaVuSans-116"/>
      </g>
     </g>
    </g>
    <g id="xtick_12">
     <g id="line2d_12">
      <g>
       <use style="stroke:#000000;stroke-width:0.8;" x="356.478453" xlink:href="#mbe8ec4c1e5" y="294.118125"/>
      </g>
     </g>
     <g id="text_12">
      <!-- Illinois -->
      <defs>
       <path d="M 9.8125 72.90625 
L 19.671875 72.90625 
L 19.671875 0 
L 9.8125 0 
z
" id="DejaVuSans-73"/>
      </defs>
      <g transform="translate(353.079016 340.014329)rotate(-70)scale(0.12 -0.12)">
       <use xlink:href="#DejaVuSans-73"/>
       <use x="29.492188" xlink:href="#DejaVuSans-108"/>
       <use x="57.275391" xlink:href="#DejaVuSans-108"/>
       <use x="85.058594" xlink:href="#DejaVuSans-105"/>
       <use x="112.841797" xlink:href="#DejaVuSans-110"/>
       <use x="176.220703" xlink:href="#DejaVuSans-111"/>
       <use x="237.402344" xlink:href="#DejaVuSans-105"/>
       <use x="265.185547" xlink:href="#DejaVuSans-115"/>
      </g>
     </g>
    </g>
    <g id="xtick_13">
     <g id="line2d_13">
      <g>
       <use style="stroke:#000000;stroke-width:0.8;" x="382.359715" xlink:href="#mbe8ec4c1e5" y="294.118125"/>
      </g>
     </g>
     <g id="text_13">
      <!-- Arizona -->
      <defs>
       <path d="M 34.1875 63.1875 
L 20.796875 26.90625 
L 47.609375 26.90625 
z
M 28.609375 72.90625 
L 39.796875 72.90625 
L 67.578125 0 
L 57.328125 0 
L 50.6875 18.703125 
L 17.828125 18.703125 
L 11.1875 0 
L 0.78125 0 
z
" id="DejaVuSans-65"/>
       <path d="M 5.515625 54.6875 
L 48.1875 54.6875 
L 48.1875 46.484375 
L 14.40625 7.171875 
L 48.1875 7.171875 
L 48.1875 0 
L 4.296875 0 
L 4.296875 8.203125 
L 38.09375 47.515625 
L 5.515625 47.515625 
z
" id="DejaVuSans-122"/>
      </defs>
      <g transform="translate(377.762993 346.593352)rotate(-70)scale(0.12 -0.12)">
       <use xlink:href="#DejaVuSans-65"/>
       <use x="68.408203" xlink:href="#DejaVuSans-114"/>
       <use x="109.521484" xlink:href="#DejaVuSans-105"/>
       <use x="137.304688" xlink:href="#DejaVuSans-122"/>
       <use x="189.794922" xlink:href="#DejaVuSans-111"/>
       <use x="250.976562" xlink:href="#DejaVuSans-110"/>
       <use x="314.355469" xlink:href="#DejaVuSans-97"/>
      </g>
     </g>
    </g>
    <g id="xtick_14">
     <g id="line2d_14">
      <g>
       <use style="stroke:#000000;stroke-width:0.8;" x="408.240976" xlink:href="#mbe8ec4c1e5" y="294.118125"/>
      </g>
     </g>
     <g id="text_14">
      <!-- Rhode Island -->
      <defs>
       <path d="M 44.390625 34.1875 
Q 47.5625 33.109375 50.5625 29.59375 
Q 53.5625 26.078125 56.59375 19.921875 
L 66.609375 0 
L 56 0 
L 46.6875 18.703125 
Q 43.0625 26.03125 39.671875 28.421875 
Q 36.28125 30.8125 30.421875 30.8125 
L 19.671875 30.8125 
L 19.671875 0 
L 9.8125 0 
L 9.8125 72.90625 
L 32.078125 72.90625 
Q 44.578125 72.90625 50.734375 67.671875 
Q 56.890625 62.453125 56.890625 51.90625 
Q 56.890625 45.015625 53.6875 40.46875 
Q 50.484375 35.9375 44.390625 34.1875 
z
M 19.671875 64.796875 
L 19.671875 38.921875 
L 32.078125 38.921875 
Q 39.203125 38.921875 42.84375 42.21875 
Q 46.484375 45.515625 46.484375 51.90625 
Q 46.484375 58.296875 42.84375 61.546875 
Q 39.203125 64.796875 32.078125 64.796875 
z
" id="DejaVuSans-82"/>
      </defs>
      <g transform="translate(398.047416 377.34773)rotate(-70)scale(0.12 -0.12)">
       <use xlink:href="#DejaVuSans-82"/>
       <use x="69.482422" xlink:href="#DejaVuSans-104"/>
       <use x="132.861328" xlink:href="#DejaVuSans-111"/>
       <use x="194.042969" xlink:href="#DejaVuSans-100"/>
       <use x="257.519531" xlink:href="#DejaVuSans-101"/>
       <use x="319.042969" xlink:href="#DejaVuSans-32"/>
       <use x="350.830078" xlink:href="#DejaVuSans-73"/>
       <use x="380.322266" xlink:href="#DejaVuSans-115"/>
       <use x="432.421875" xlink:href="#DejaVuSans-108"/>
       <use x="460.205078" xlink:href="#DejaVuSans-97"/>
       <use x="521.484375" xlink:href="#DejaVuSans-110"/>
       <use x="584.863281" xlink:href="#DejaVuSans-100"/>
      </g>
     </g>
    </g>
    <g id="xtick_15">
     <g id="line2d_15">
      <g>
       <use style="stroke:#000000;stroke-width:0.8;" x="434.122238" xlink:href="#mbe8ec4c1e5" y="294.118125"/>
      </g>
     </g>
     <g id="text_15">
      <!-- Virginia -->
      <defs>
       <path d="M 28.609375 0 
L 0.78125 72.90625 
L 11.078125 72.90625 
L 34.1875 11.53125 
L 57.328125 72.90625 
L 67.578125 72.90625 
L 39.796875 0 
z
" id="DejaVuSans-86"/>
      </defs>
      <g transform="translate(429.497299 346.748402)rotate(-70)scale(0.12 -0.12)">
       <use xlink:href="#DejaVuSans-86"/>
       <use x="66.158203" xlink:href="#DejaVuSans-105"/>
       <use x="93.941406" xlink:href="#DejaVuSans-114"/>
       <use x="133.304688" xlink:href="#DejaVuSans-103"/>
       <use x="196.78125" xlink:href="#DejaVuSans-105"/>
       <use x="224.564453" xlink:href="#DejaVuSans-110"/>
       <use x="287.943359" xlink:href="#DejaVuSans-105"/>
       <use x="315.726562" xlink:href="#DejaVuSans-97"/>
      </g>
     </g>
    </g>
    <g id="xtick_16">
     <g id="line2d_16">
      <g>
       <use style="stroke:#000000;stroke-width:0.8;" x="460.0035" xlink:href="#mbe8ec4c1e5" y="294.118125"/>
      </g>
     </g>
     <g id="text_16">
      <!-- Oregon -->
      <defs>
       <path d="M 39.40625 66.21875 
Q 28.65625 66.21875 22.328125 58.203125 
Q 16.015625 50.203125 16.015625 36.375 
Q 16.015625 22.609375 22.328125 14.59375 
Q 28.65625 6.59375 39.40625 6.59375 
Q 50.140625 6.59375 56.421875 14.59375 
Q 62.703125 22.609375 62.703125 36.375 
Q 62.703125 50.203125 56.421875 58.203125 
Q 50.140625 66.21875 39.40625 66.21875 
z
M 39.40625 74.21875 
Q 54.734375 74.21875 63.90625 63.9375 
Q 73.09375 53.65625 73.09375 36.375 
Q 73.09375 19.140625 63.90625 8.859375 
Q 54.734375 -1.421875 39.40625 -1.421875 
Q 24.03125 -1.421875 14.8125 8.828125 
Q 5.609375 19.09375 5.609375 36.375 
Q 5.609375 53.65625 14.8125 63.9375 
Q 24.03125 74.21875 39.40625 74.21875 
z
" id="DejaVuSans-79"/>
      </defs>
      <g transform="translate(455.580567 345.63839)rotate(-70)scale(0.12 -0.12)">
       <use xlink:href="#DejaVuSans-79"/>
       <use x="78.710938" xlink:href="#DejaVuSans-114"/>
       <use x="117.574219" xlink:href="#DejaVuSans-101"/>
       <use x="179.097656" xlink:href="#DejaVuSans-103"/>
       <use x="242.574219" xlink:href="#DejaVuSans-111"/>
       <use x="303.755859" xlink:href="#DejaVuSans-110"/>
      </g>
     </g>
    </g>
    <g id="xtick_17">
     <g id="line2d_17">
      <g>
       <use style="stroke:#000000;stroke-width:0.8;" x="485.884761" xlink:href="#mbe8ec4c1e5" y="294.118125"/>
      </g>
     </g>
     <g id="text_17">
      <!-- Georgia -->
      <defs>
       <path d="M 59.515625 10.40625 
L 59.515625 29.984375 
L 43.40625 29.984375 
L 43.40625 38.09375 
L 69.28125 38.09375 
L 69.28125 6.78125 
Q 63.578125 2.734375 56.6875 0.65625 
Q 49.8125 -1.421875 42 -1.421875 
Q 24.90625 -1.421875 15.25 8.5625 
Q 5.609375 18.5625 5.609375 36.375 
Q 5.609375 54.25 15.25 64.234375 
Q 24.90625 74.21875 42 74.21875 
Q 49.125 74.21875 55.546875 72.453125 
Q 61.96875 70.703125 67.390625 67.28125 
L 67.390625 56.78125 
Q 61.921875 61.421875 55.765625 63.765625 
Q 49.609375 66.109375 42.828125 66.109375 
Q 29.4375 66.109375 22.71875 58.640625 
Q 16.015625 51.171875 16.015625 36.375 
Q 16.015625 21.625 22.71875 14.15625 
Q 29.4375 6.6875 42.828125 6.6875 
Q 48.046875 6.6875 52.140625 7.59375 
Q 56.25 8.5 59.515625 10.40625 
z
" id="DejaVuSans-71"/>
      </defs>
      <g transform="translate(480.94976 348.452182)rotate(-70)scale(0.12 -0.12)">
       <use xlink:href="#DejaVuSans-71"/>
       <use x="77.490234" xlink:href="#DejaVuSans-101"/>
       <use x="139.013672" xlink:href="#DejaVuSans-111"/>
       <use x="200.195312" xlink:href="#DejaVuSans-114"/>
       <use x="239.558594" xlink:href="#DejaVuSans-103"/>
       <use x="303.035156" xlink:href="#DejaVuSans-105"/>
       <use x="330.818359" xlink:href="#DejaVuSans-97"/>
      </g>
     </g>
    </g>
    <g id="xtick_18">
     <g id="line2d_18">
      <g>
       <use style="stroke:#000000;stroke-width:0.8;" x="511.766023" xlink:href="#mbe8ec4c1e5" y="294.118125"/>
      </g>
     </g>
     <g id="text_18">
      <!-- Colorado -->
      <g transform="translate(505.703638 354.647105)rotate(-70)scale(0.12 -0.12)">
       <use xlink:href="#DejaVuSans-67"/>
       <use x="69.824219" xlink:href="#DejaVuSans-111"/>
       <use x="131.005859" xlink:href="#DejaVuSans-108"/>
       <use x="158.789062" xlink:href="#DejaVuSans-111"/>
       <use x="219.970703" xlink:href="#DejaVuSans-114"/>
       <use x="261.083984" xlink:href="#DejaVuSans-97"/>
       <use x="322.363281" xlink:href="#DejaVuSans-100"/>
       <use x="385.839844" xlink:href="#DejaVuSans-111"/>
      </g>
     </g>
    </g>
    <g id="xtick_19">
     <g id="line2d_19">
      <g>
       <use style="stroke:#000000;stroke-width:0.8;" x="537.647284" xlink:href="#mbe8ec4c1e5" y="294.118125"/>
      </g>
     </g>
     <g id="text_19">
      <!-- New Mexico -->
      <g transform="translate(528.464393 371.794146)rotate(-70)scale(0.12 -0.12)">
       <use xlink:href="#DejaVuSans-78"/>
       <use x="74.804688" xlink:href="#DejaVuSans-101"/>
       <use x="136.328125" xlink:href="#DejaVuSans-119"/>
       <use x="218.115234" xlink:href="#DejaVuSans-32"/>
       <use x="249.902344" xlink:href="#DejaVuSans-77"/>
       <use x="336.181641" xlink:href="#DejaVuSans-101"/>
       <use x="395.955078" xlink:href="#DejaVuSans-120"/>
       <use x="455.134766" xlink:href="#DejaVuSans-105"/>
       <use x="482.917969" xlink:href="#DejaVuSans-99"/>
       <use x="537.898438" xlink:href="#DejaVuSans-111"/>
      </g>
     </g>
    </g>
    <g id="xtick_20">
     <g id="line2d_20">
      <g>
       <use style="stroke:#000000;stroke-width:0.8;" x="563.528546" xlink:href="#mbe8ec4c1e5" y="294.118125"/>
      </g>
     </g>
     <g id="text_20">
      <!-- Delaware -->
      <defs>
       <path d="M 19.671875 64.796875 
L 19.671875 8.109375 
L 31.59375 8.109375 
Q 46.6875 8.109375 53.6875 14.9375 
Q 60.6875 21.78125 60.6875 36.53125 
Q 60.6875 51.171875 53.6875 57.984375 
Q 46.6875 64.796875 31.59375 64.796875 
z
M 9.8125 72.90625 
L 30.078125 72.90625 
Q 51.265625 72.90625 61.171875 64.09375 
Q 71.09375 55.28125 71.09375 36.53125 
Q 71.09375 17.671875 61.125 8.828125 
Q 51.171875 0 30.078125 0 
L 9.8125 0 
z
" id="DejaVuSans-68"/>
      </defs>
      <g transform="translate(556.973652 357.35342)rotate(-70)scale(0.12 -0.12)">
       <use xlink:href="#DejaVuSans-68"/>
       <use x="77.001953" xlink:href="#DejaVuSans-101"/>
       <use x="138.525391" xlink:href="#DejaVuSans-108"/>
       <use x="166.308594" xlink:href="#DejaVuSans-97"/>
       <use x="227.587891" xlink:href="#DejaVuSans-119"/>
       <use x="309.375" xlink:href="#DejaVuSans-97"/>
       <use x="370.654297" xlink:href="#DejaVuSans-114"/>
       <use x="409.517578" xlink:href="#DejaVuSans-101"/>
      </g>
     </g>
    </g>
   </g>
   <g id="matplotlib.axis_2">
    <g id="ytick_1">
     <g id="line2d_21">
      <defs>
       <path d="M 0 0 
L -3.5 0 
" id="m11dede8adb" style="stroke:#000000;stroke-width:0.8;"/>
      </defs>
      <g>
       <use style="stroke:#000000;stroke-width:0.8;" x="42.53875" xlink:href="#m11dede8adb" y="294.118125"/>
      </g>
     </g>
     <g id="text_21">
      <!-- 0 -->
      <defs>
       <path d="M 31.78125 66.40625 
Q 24.171875 66.40625 20.328125 58.90625 
Q 16.5 51.421875 16.5 36.375 
Q 16.5 21.390625 20.328125 13.890625 
Q 24.171875 6.390625 31.78125 6.390625 
Q 39.453125 6.390625 43.28125 13.890625 
Q 47.125 21.390625 47.125 36.375 
Q 47.125 51.421875 43.28125 58.90625 
Q 39.453125 66.40625 31.78125 66.40625 
z
M 31.78125 74.21875 
Q 44.046875 74.21875 50.515625 64.515625 
Q 56.984375 54.828125 56.984375 36.375 
Q 56.984375 17.96875 50.515625 8.265625 
Q 44.046875 -1.421875 31.78125 -1.421875 
Q 19.53125 -1.421875 13.0625 8.265625 
Q 6.59375 17.96875 6.59375 36.375 
Q 6.59375 54.828125 13.0625 64.515625 
Q 19.53125 74.21875 31.78125 74.21875 
z
" id="DejaVuSans-48"/>
      </defs>
      <g transform="translate(29.17625 297.917344)scale(0.1 -0.1)">
       <use xlink:href="#DejaVuSans-48"/>
      </g>
     </g>
    </g>
    <g id="ytick_2">
     <g id="line2d_22">
      <g>
       <use style="stroke:#000000;stroke-width:0.8;" x="42.53875" xlink:href="#m11dede8adb" y="245.936105"/>
      </g>
     </g>
     <g id="text_22">
      <!-- 5 -->
      <defs>
       <path d="M 10.796875 72.90625 
L 49.515625 72.90625 
L 49.515625 64.59375 
L 19.828125 64.59375 
L 19.828125 46.734375 
Q 21.96875 47.46875 24.109375 47.828125 
Q 26.265625 48.1875 28.421875 48.1875 
Q 40.625 48.1875 47.75 41.5 
Q 54.890625 34.8125 54.890625 23.390625 
Q 54.890625 11.625 47.5625 5.09375 
Q 40.234375 -1.421875 26.90625 -1.421875 
Q 22.3125 -1.421875 17.546875 -0.640625 
Q 12.796875 0.140625 7.71875 1.703125 
L 7.71875 11.625 
Q 12.109375 9.234375 16.796875 8.0625 
Q 21.484375 6.890625 26.703125 6.890625 
Q 35.15625 6.890625 40.078125 11.328125 
Q 45.015625 15.765625 45.015625 23.390625 
Q 45.015625 31 40.078125 35.4375 
Q 35.15625 39.890625 26.703125 39.890625 
Q 22.75 39.890625 18.8125 39.015625 
Q 14.890625 38.140625 10.796875 36.28125 
z
" id="DejaVuSans-53"/>
      </defs>
      <g transform="translate(29.17625 249.735324)scale(0.1 -0.1)">
       <use xlink:href="#DejaVuSans-53"/>
      </g>
     </g>
    </g>
    <g id="ytick_3">
     <g id="line2d_23">
      <g>
       <use style="stroke:#000000;stroke-width:0.8;" x="42.53875" xlink:href="#m11dede8adb" y="197.754085"/>
      </g>
     </g>
     <g id="text_23">
      <!-- 10 -->
      <defs>
       <path d="M 12.40625 8.296875 
L 28.515625 8.296875 
L 28.515625 63.921875 
L 10.984375 60.40625 
L 10.984375 69.390625 
L 28.421875 72.90625 
L 38.28125 72.90625 
L 38.28125 8.296875 
L 54.390625 8.296875 
L 54.390625 0 
L 12.40625 0 
z
" id="DejaVuSans-49"/>
      </defs>
      <g transform="translate(22.81375 201.553303)scale(0.1 -0.1)">
       <use xlink:href="#DejaVuSans-49"/>
       <use x="63.623047" xlink:href="#DejaVuSans-48"/>
      </g>
     </g>
    </g>
    <g id="ytick_4">
     <g id="line2d_24">
      <g>
       <use style="stroke:#000000;stroke-width:0.8;" x="42.53875" xlink:href="#m11dede8adb" y="149.572065"/>
      </g>
     </g>
     <g id="text_24">
      <!-- 15 -->
      <g transform="translate(22.81375 153.371283)scale(0.1 -0.1)">
       <use xlink:href="#DejaVuSans-49"/>
       <use x="63.623047" xlink:href="#DejaVuSans-53"/>
      </g>
     </g>
    </g>
    <g id="ytick_5">
     <g id="line2d_25">
      <g>
       <use style="stroke:#000000;stroke-width:0.8;" x="42.53875" xlink:href="#m11dede8adb" y="101.390044"/>
      </g>
     </g>
     <g id="text_25">
      <!-- 20 -->
      <defs>
       <path d="M 19.1875 8.296875 
L 53.609375 8.296875 
L 53.609375 0 
L 7.328125 0 
L 7.328125 8.296875 
Q 12.9375 14.109375 22.625 23.890625 
Q 32.328125 33.6875 34.8125 36.53125 
Q 39.546875 41.84375 41.421875 45.53125 
Q 43.3125 49.21875 43.3125 52.78125 
Q 43.3125 58.59375 39.234375 62.25 
Q 35.15625 65.921875 28.609375 65.921875 
Q 23.96875 65.921875 18.8125 64.3125 
Q 13.671875 62.703125 7.8125 59.421875 
L 7.8125 69.390625 
Q 13.765625 71.78125 18.9375 73 
Q 24.125 74.21875 28.421875 74.21875 
Q 39.75 74.21875 46.484375 68.546875 
Q 53.21875 62.890625 53.21875 53.421875 
Q 53.21875 48.921875 51.53125 44.890625 
Q 49.859375 40.875 45.40625 35.40625 
Q 44.1875 33.984375 37.640625 27.21875 
Q 31.109375 20.453125 19.1875 8.296875 
z
" id="DejaVuSans-50"/>
      </defs>
      <g transform="translate(22.81375 105.189263)scale(0.1 -0.1)">
       <use xlink:href="#DejaVuSans-50"/>
       <use x="63.623047" xlink:href="#DejaVuSans-48"/>
      </g>
     </g>
    </g>
    <g id="ytick_6">
     <g id="line2d_26">
      <g>
       <use style="stroke:#000000;stroke-width:0.8;" x="42.53875" xlink:href="#m11dede8adb" y="53.208024"/>
      </g>
     </g>
     <g id="text_26">
      <!-- 25 -->
      <g transform="translate(22.81375 57.007243)scale(0.1 -0.1)">
       <use xlink:href="#DejaVuSans-50"/>
       <use x="63.623047" xlink:href="#DejaVuSans-53"/>
      </g>
     </g>
    </g>
    <g id="text_27">
     <!-- % Immigrants in Population -->
     <defs>
      <path d="M 72.703125 32.078125 
Q 68.453125 32.078125 66.03125 28.46875 
Q 63.625 24.859375 63.625 18.40625 
Q 63.625 12.0625 66.03125 8.421875 
Q 68.453125 4.78125 72.703125 4.78125 
Q 76.859375 4.78125 79.265625 8.421875 
Q 81.6875 12.0625 81.6875 18.40625 
Q 81.6875 24.8125 79.265625 28.4375 
Q 76.859375 32.078125 72.703125 32.078125 
z
M 72.703125 38.28125 
Q 80.421875 38.28125 84.953125 32.90625 
Q 89.5 27.546875 89.5 18.40625 
Q 89.5 9.28125 84.9375 3.921875 
Q 80.375 -1.421875 72.703125 -1.421875 
Q 64.890625 -1.421875 60.34375 3.921875 
Q 55.8125 9.28125 55.8125 18.40625 
Q 55.8125 27.59375 60.375 32.9375 
Q 64.9375 38.28125 72.703125 38.28125 
z
M 22.3125 68.015625 
Q 18.109375 68.015625 15.6875 64.375 
Q 13.28125 60.75 13.28125 54.390625 
Q 13.28125 47.953125 15.671875 44.328125 
Q 18.0625 40.71875 22.3125 40.71875 
Q 26.5625 40.71875 28.96875 44.328125 
Q 31.390625 47.953125 31.390625 54.390625 
Q 31.390625 60.6875 28.953125 64.34375 
Q 26.515625 68.015625 22.3125 68.015625 
z
M 66.40625 74.21875 
L 74.21875 74.21875 
L 28.609375 -1.421875 
L 20.796875 -1.421875 
z
M 22.3125 74.21875 
Q 30.03125 74.21875 34.609375 68.875 
Q 39.203125 63.53125 39.203125 54.390625 
Q 39.203125 45.171875 34.640625 39.84375 
Q 30.078125 34.515625 22.3125 34.515625 
Q 14.546875 34.515625 10.03125 39.859375 
Q 5.515625 45.21875 5.515625 54.390625 
Q 5.515625 63.484375 10.046875 68.84375 
Q 14.59375 74.21875 22.3125 74.21875 
z
" id="DejaVuSans-37"/>
      <path d="M 52 44.1875 
Q 55.375 50.25 60.0625 53.125 
Q 64.75 56 71.09375 56 
Q 79.640625 56 84.28125 50.015625 
Q 88.921875 44.046875 88.921875 33.015625 
L 88.921875 0 
L 79.890625 0 
L 79.890625 32.71875 
Q 79.890625 40.578125 77.09375 44.375 
Q 74.3125 48.1875 68.609375 48.1875 
Q 61.625 48.1875 57.5625 43.546875 
Q 53.515625 38.921875 53.515625 30.90625 
L 53.515625 0 
L 44.484375 0 
L 44.484375 32.71875 
Q 44.484375 40.625 41.703125 44.40625 
Q 38.921875 48.1875 33.109375 48.1875 
Q 26.21875 48.1875 22.15625 43.53125 
Q 18.109375 38.875 18.109375 30.90625 
L 18.109375 0 
L 9.078125 0 
L 9.078125 54.6875 
L 18.109375 54.6875 
L 18.109375 46.1875 
Q 21.1875 51.21875 25.484375 53.609375 
Q 29.78125 56 35.6875 56 
Q 41.65625 56 45.828125 52.96875 
Q 50 49.953125 52 44.1875 
z
" id="DejaVuSans-109"/>
      <path d="M 19.671875 64.796875 
L 19.671875 37.40625 
L 32.078125 37.40625 
Q 38.96875 37.40625 42.71875 40.96875 
Q 46.484375 44.53125 46.484375 51.125 
Q 46.484375 57.671875 42.71875 61.234375 
Q 38.96875 64.796875 32.078125 64.796875 
z
M 9.8125 72.90625 
L 32.078125 72.90625 
Q 44.34375 72.90625 50.609375 67.359375 
Q 56.890625 61.8125 56.890625 51.125 
Q 56.890625 40.328125 50.609375 34.8125 
Q 44.34375 29.296875 32.078125 29.296875 
L 19.671875 29.296875 
L 19.671875 0 
L 9.8125 0 
z
" id="DejaVuSans-80"/>
      <path d="M 18.109375 8.203125 
L 18.109375 -20.796875 
L 9.078125 -20.796875 
L 9.078125 54.6875 
L 18.109375 54.6875 
L 18.109375 46.390625 
Q 20.953125 51.265625 25.265625 53.625 
Q 29.59375 56 35.59375 56 
Q 45.5625 56 51.78125 48.09375 
Q 58.015625 40.1875 58.015625 27.296875 
Q 58.015625 14.40625 51.78125 6.484375 
Q 45.5625 -1.421875 35.59375 -1.421875 
Q 29.59375 -1.421875 25.265625 0.953125 
Q 20.953125 3.328125 18.109375 8.203125 
z
M 48.6875 27.296875 
Q 48.6875 37.203125 44.609375 42.84375 
Q 40.53125 48.484375 33.40625 48.484375 
Q 26.265625 48.484375 22.1875 42.84375 
Q 18.109375 37.203125 18.109375 27.296875 
Q 18.109375 17.390625 22.1875 11.75 
Q 26.265625 6.109375 33.40625 6.109375 
Q 40.53125 6.109375 44.609375 11.75 
Q 48.6875 17.390625 48.6875 27.296875 
z
" id="DejaVuSans-112"/>
     </defs>
     <g transform="translate(16.318125 240.987187)rotate(-90)scale(0.12 -0.12)">
      <use xlink:href="#DejaVuSans-37"/>
      <use x="95.019531" xlink:href="#DejaVuSans-32"/>
      <use x="126.806641" xlink:href="#DejaVuSans-73"/>
      <use x="156.298828" xlink:href="#DejaVuSans-109"/>
      <use x="253.710938" xlink:href="#DejaVuSans-109"/>
      <use x="351.123047" xlink:href="#DejaVuSans-105"/>
      <use x="378.90625" xlink:href="#DejaVuSans-103"/>
      <use x="442.382812" xlink:href="#DejaVuSans-114"/>
      <use x="483.496094" xlink:href="#DejaVuSans-97"/>
      <use x="544.775391" xlink:href="#DejaVuSans-110"/>
      <use x="608.154297" xlink:href="#DejaVuSans-116"/>
      <use x="647.363281" xlink:href="#DejaVuSans-115"/>
      <use x="699.462891" xlink:href="#DejaVuSans-32"/>
      <use x="731.25" xlink:href="#DejaVuSans-105"/>
      <use x="759.033203" xlink:href="#DejaVuSans-110"/>
      <use x="822.412109" xlink:href="#DejaVuSans-32"/>
      <use x="854.199219" xlink:href="#DejaVuSans-80"/>
      <use x="910.876953" xlink:href="#DejaVuSans-111"/>
      <use x="972.058594" xlink:href="#DejaVuSans-112"/>
      <use x="1035.535156" xlink:href="#DejaVuSans-117"/>
      <use x="1098.914062" xlink:href="#DejaVuSans-108"/>
      <use x="1126.697266" xlink:href="#DejaVuSans-97"/>
      <use x="1187.976562" xlink:href="#DejaVuSans-116"/>
      <use x="1227.185547" xlink:href="#DejaVuSans-105"/>
      <use x="1254.96875" xlink:href="#DejaVuSans-111"/>
      <use x="1316.150391" xlink:href="#DejaVuSans-110"/>
     </g>
    </g>
   </g>
   <g id="patch_27">
    <path d="M 42.53875 294.118125 
L 42.53875 22.318125 
" style="fill:none;stroke:#000000;stroke-linecap:square;stroke-linejoin:miter;stroke-width:0.8;"/>
   </g>
   <g id="patch_28">
    <path d="M 600.53875 294.118125 
L 600.53875 22.318125 
" style="fill:none;stroke:#000000;stroke-linecap:square;stroke-linejoin:miter;stroke-width:0.8;"/>
   </g>
   <g id="patch_29">
    <path d="M 42.53875 294.118125 
L 600.53875 294.118125 
" style="fill:none;stroke:#000000;stroke-linecap:square;stroke-linejoin:miter;stroke-width:0.8;"/>
   </g>
   <g id="patch_30">
    <path d="M 42.53875 22.318125 
L 600.53875 22.318125 
" style="fill:none;stroke:#000000;stroke-linecap:square;stroke-linejoin:miter;stroke-width:0.8;"/>
   </g>
   <g id="text_28">
    <!-- Immigrant Population and Arrests by U.S. State (2016) -->
    <defs>
     <path d="M 48.6875 27.296875 
Q 48.6875 37.203125 44.609375 42.84375 
Q 40.53125 48.484375 33.40625 48.484375 
Q 26.265625 48.484375 22.1875 42.84375 
Q 18.109375 37.203125 18.109375 27.296875 
Q 18.109375 17.390625 22.1875 11.75 
Q 26.265625 6.109375 33.40625 6.109375 
Q 40.53125 6.109375 44.609375 11.75 
Q 48.6875 17.390625 48.6875 27.296875 
z
M 18.109375 46.390625 
Q 20.953125 51.265625 25.265625 53.625 
Q 29.59375 56 35.59375 56 
Q 45.5625 56 51.78125 48.09375 
Q 58.015625 40.1875 58.015625 27.296875 
Q 58.015625 14.40625 51.78125 6.484375 
Q 45.5625 -1.421875 35.59375 -1.421875 
Q 29.59375 -1.421875 25.265625 0.953125 
Q 20.953125 3.328125 18.109375 8.203125 
L 18.109375 0 
L 9.078125 0 
L 9.078125 75.984375 
L 18.109375 75.984375 
z
" id="DejaVuSans-98"/>
     <path d="M 8.6875 72.90625 
L 18.609375 72.90625 
L 18.609375 28.609375 
Q 18.609375 16.890625 22.84375 11.734375 
Q 27.09375 6.59375 36.625 6.59375 
Q 46.09375 6.59375 50.34375 11.734375 
Q 54.59375 16.890625 54.59375 28.609375 
L 54.59375 72.90625 
L 64.5 72.90625 
L 64.5 27.390625 
Q 64.5 13.140625 57.4375 5.859375 
Q 50.390625 -1.421875 36.625 -1.421875 
Q 22.796875 -1.421875 15.734375 5.859375 
Q 8.6875 13.140625 8.6875 27.390625 
z
" id="DejaVuSans-85"/>
     <path d="M 10.6875 12.40625 
L 21 12.40625 
L 21 0 
L 10.6875 0 
z
" id="DejaVuSans-46"/>
     <path d="M 53.515625 70.515625 
L 53.515625 60.890625 
Q 47.90625 63.578125 42.921875 64.890625 
Q 37.9375 66.21875 33.296875 66.21875 
Q 25.25 66.21875 20.875 63.09375 
Q 16.5 59.96875 16.5 54.203125 
Q 16.5 49.359375 19.40625 46.890625 
Q 22.3125 44.4375 30.421875 42.921875 
L 36.375 41.703125 
Q 47.40625 39.59375 52.65625 34.296875 
Q 57.90625 29 57.90625 20.125 
Q 57.90625 9.515625 50.796875 4.046875 
Q 43.703125 -1.421875 29.984375 -1.421875 
Q 24.8125 -1.421875 18.96875 -0.25 
Q 13.140625 0.921875 6.890625 3.21875 
L 6.890625 13.375 
Q 12.890625 10.015625 18.65625 8.296875 
Q 24.421875 6.59375 29.984375 6.59375 
Q 38.421875 6.59375 43.015625 9.90625 
Q 47.609375 13.234375 47.609375 19.390625 
Q 47.609375 24.75 44.3125 27.78125 
Q 41.015625 30.8125 33.5 32.328125 
L 27.484375 33.5 
Q 16.453125 35.6875 11.515625 40.375 
Q 6.59375 45.0625 6.59375 53.421875 
Q 6.59375 63.09375 13.40625 68.65625 
Q 20.21875 74.21875 32.171875 74.21875 
Q 37.3125 74.21875 42.625 73.28125 
Q 47.953125 72.359375 53.515625 70.515625 
z
" id="DejaVuSans-83"/>
     <path d="M 31 75.875 
Q 24.46875 64.65625 21.28125 53.65625 
Q 18.109375 42.671875 18.109375 31.390625 
Q 18.109375 20.125 21.3125 9.0625 
Q 24.515625 -2 31 -13.1875 
L 23.1875 -13.1875 
Q 15.875 -1.703125 12.234375 9.375 
Q 8.59375 20.453125 8.59375 31.390625 
Q 8.59375 42.28125 12.203125 53.3125 
Q 15.828125 64.359375 23.1875 75.875 
z
" id="DejaVuSans-40"/>
     <path d="M 33.015625 40.375 
Q 26.375 40.375 22.484375 35.828125 
Q 18.609375 31.296875 18.609375 23.390625 
Q 18.609375 15.53125 22.484375 10.953125 
Q 26.375 6.390625 33.015625 6.390625 
Q 39.65625 6.390625 43.53125 10.953125 
Q 47.40625 15.53125 47.40625 23.390625 
Q 47.40625 31.296875 43.53125 35.828125 
Q 39.65625 40.375 33.015625 40.375 
z
M 52.59375 71.296875 
L 52.59375 62.3125 
Q 48.875 64.0625 45.09375 64.984375 
Q 41.3125 65.921875 37.59375 65.921875 
Q 27.828125 65.921875 22.671875 59.328125 
Q 17.53125 52.734375 16.796875 39.40625 
Q 19.671875 43.65625 24.015625 45.921875 
Q 28.375 48.1875 33.59375 48.1875 
Q 44.578125 48.1875 50.953125 41.515625 
Q 57.328125 34.859375 57.328125 23.390625 
Q 57.328125 12.15625 50.6875 5.359375 
Q 44.046875 -1.421875 33.015625 -1.421875 
Q 20.359375 -1.421875 13.671875 8.265625 
Q 6.984375 17.96875 6.984375 36.375 
Q 6.984375 53.65625 15.1875 63.9375 
Q 23.390625 74.21875 37.203125 74.21875 
Q 40.921875 74.21875 44.703125 73.484375 
Q 48.484375 72.75 52.59375 71.296875 
z
" id="DejaVuSans-54"/>
     <path d="M 8.015625 75.875 
L 15.828125 75.875 
Q 23.140625 64.359375 26.78125 53.3125 
Q 30.421875 42.28125 30.421875 31.390625 
Q 30.421875 20.453125 26.78125 9.375 
Q 23.140625 -1.703125 15.828125 -13.1875 
L 8.015625 -13.1875 
Q 14.5 -2 17.703125 9.0625 
Q 20.90625 20.125 20.90625 31.390625 
Q 20.90625 42.671875 17.703125 53.65625 
Q 14.5 64.65625 8.015625 75.875 
z
" id="DejaVuSans-41"/>
    </defs>
    <g transform="translate(157.848437 16.318125)scale(0.12 -0.12)">
     <use xlink:href="#DejaVuSans-73"/>
     <use x="29.492188" xlink:href="#DejaVuSans-109"/>
     <use x="126.904297" xlink:href="#DejaVuSans-109"/>
     <use x="224.316406" xlink:href="#DejaVuSans-105"/>
     <use x="252.099609" xlink:href="#DejaVuSans-103"/>
     <use x="315.576172" xlink:href="#DejaVuSans-114"/>
     <use x="356.689453" xlink:href="#DejaVuSans-97"/>
     <use x="417.96875" xlink:href="#DejaVuSans-110"/>
     <use x="481.347656" xlink:href="#DejaVuSans-116"/>
     <use x="520.556641" xlink:href="#DejaVuSans-32"/>
     <use x="552.34375" xlink:href="#DejaVuSans-80"/>
     <use x="609.021484" xlink:href="#DejaVuSans-111"/>
     <use x="670.203125" xlink:href="#DejaVuSans-112"/>
     <use x="733.679688" xlink:href="#DejaVuSans-117"/>
     <use x="797.058594" xlink:href="#DejaVuSans-108"/>
     <use x="824.841797" xlink:href="#DejaVuSans-97"/>
     <use x="886.121094" xlink:href="#DejaVuSans-116"/>
     <use x="925.330078" xlink:href="#DejaVuSans-105"/>
     <use x="953.113281" xlink:href="#DejaVuSans-111"/>
     <use x="1014.294922" xlink:href="#DejaVuSans-110"/>
     <use x="1077.673828" xlink:href="#DejaVuSans-32"/>
     <use x="1109.460938" xlink:href="#DejaVuSans-97"/>
     <use x="1170.740234" xlink:href="#DejaVuSans-110"/>
     <use x="1234.119141" xlink:href="#DejaVuSans-100"/>
     <use x="1297.595703" xlink:href="#DejaVuSans-32"/>
     <use x="1329.382812" xlink:href="#DejaVuSans-65"/>
     <use x="1397.791016" xlink:href="#DejaVuSans-114"/>
     <use x="1437.154297" xlink:href="#DejaVuSans-114"/>
     <use x="1476.017578" xlink:href="#DejaVuSans-101"/>
     <use x="1537.541016" xlink:href="#DejaVuSans-115"/>
     <use x="1589.640625" xlink:href="#DejaVuSans-116"/>
     <use x="1628.849609" xlink:href="#DejaVuSans-115"/>
     <use x="1680.949219" xlink:href="#DejaVuSans-32"/>
     <use x="1712.736328" xlink:href="#DejaVuSans-98"/>
     <use x="1776.212891" xlink:href="#DejaVuSans-121"/>
     <use x="1835.392578" xlink:href="#DejaVuSans-32"/>
     <use x="1867.179688" xlink:href="#DejaVuSans-85"/>
     <use x="1940.373047" xlink:href="#DejaVuSans-46"/>
     <use x="1972.160156" xlink:href="#DejaVuSans-83"/>
     <use x="2035.636719" xlink:href="#DejaVuSans-46"/>
     <use x="2067.423828" xlink:href="#DejaVuSans-32"/>
     <use x="2099.210938" xlink:href="#DejaVuSans-83"/>
     <use x="2162.6875" xlink:href="#DejaVuSans-116"/>
     <use x="2201.896484" xlink:href="#DejaVuSans-97"/>
     <use x="2263.175781" xlink:href="#DejaVuSans-116"/>
     <use x="2302.384766" xlink:href="#DejaVuSans-101"/>
     <use x="2363.908203" xlink:href="#DejaVuSans-32"/>
     <use x="2395.695312" xlink:href="#DejaVuSans-40"/>
     <use x="2434.708984" xlink:href="#DejaVuSans-50"/>
     <use x="2498.332031" xlink:href="#DejaVuSans-48"/>
     <use x="2561.955078" xlink:href="#DejaVuSans-49"/>
     <use x="2625.578125" xlink:href="#DejaVuSans-54"/>
     <use x="2689.201172" xlink:href="#DejaVuSans-41"/>
    </g>
   </g>
   <g id="legend_1">
    <g id="patch_31">
     <path d="M 234.0575 74.3525 
L 409.02 74.3525 
Q 411.02 74.3525 411.02 72.3525 
L 411.02 29.318125 
Q 411.02 27.318125 409.02 27.318125 
L 234.0575 27.318125 
Q 232.0575 27.318125 232.0575 29.318125 
L 232.0575 72.3525 
Q 232.0575 74.3525 234.0575 74.3525 
z
" style="fill:#ffffff;opacity:0.8;stroke:#cccccc;stroke-linejoin:miter;"/>
    </g>
    <g id="patch_32">
     <path d="M 236.0575 38.916562 
L 256.0575 38.916562 
L 256.0575 31.916562 
L 236.0575 31.916562 
z
" style="fill:#008000;"/>
    </g>
    <g id="text_29">
     <!-- Immigrants/Population (Left) -->
     <defs>
      <path d="M 25.390625 72.90625 
L 33.6875 72.90625 
L 8.296875 -9.28125 
L 0 -9.28125 
z
" id="DejaVuSans-47"/>
      <path d="M 9.8125 72.90625 
L 19.671875 72.90625 
L 19.671875 8.296875 
L 55.171875 8.296875 
L 55.171875 0 
L 9.8125 0 
z
" id="DejaVuSans-76"/>
     </defs>
     <g transform="translate(264.0575 38.916562)scale(0.1 -0.1)">
      <use xlink:href="#DejaVuSans-73"/>
      <use x="29.492188" xlink:href="#DejaVuSans-109"/>
      <use x="126.904297" xlink:href="#DejaVuSans-109"/>
      <use x="224.316406" xlink:href="#DejaVuSans-105"/>
      <use x="252.099609" xlink:href="#DejaVuSans-103"/>
      <use x="315.576172" xlink:href="#DejaVuSans-114"/>
      <use x="356.689453" xlink:href="#DejaVuSans-97"/>
      <use x="417.96875" xlink:href="#DejaVuSans-110"/>
      <use x="481.347656" xlink:href="#DejaVuSans-116"/>
      <use x="520.556641" xlink:href="#DejaVuSans-115"/>
      <use x="572.65625" xlink:href="#DejaVuSans-47"/>
      <use x="606.347656" xlink:href="#DejaVuSans-80"/>
      <use x="663.025391" xlink:href="#DejaVuSans-111"/>
      <use x="724.207031" xlink:href="#DejaVuSans-112"/>
      <use x="787.683594" xlink:href="#DejaVuSans-117"/>
      <use x="851.0625" xlink:href="#DejaVuSans-108"/>
      <use x="878.845703" xlink:href="#DejaVuSans-97"/>
      <use x="940.125" xlink:href="#DejaVuSans-116"/>
      <use x="979.333984" xlink:href="#DejaVuSans-105"/>
      <use x="1007.117188" xlink:href="#DejaVuSans-111"/>
      <use x="1068.298828" xlink:href="#DejaVuSans-110"/>
      <use x="1131.677734" xlink:href="#DejaVuSans-32"/>
      <use x="1163.464844" xlink:href="#DejaVuSans-40"/>
      <use x="1202.478516" xlink:href="#DejaVuSans-76"/>
      <use x="1256.441406" xlink:href="#DejaVuSans-101"/>
      <use x="1317.964844" xlink:href="#DejaVuSans-102"/>
      <use x="1351.419922" xlink:href="#DejaVuSans-116"/>
      <use x="1390.628906" xlink:href="#DejaVuSans-41"/>
     </g>
    </g>
    <g id="patch_33">
     <path d="M 236.0575 53.594687 
L 256.0575 53.594687 
L 256.0575 46.594687 
L 236.0575 46.594687 
z
" style="fill:#191970;"/>
    </g>
    <g id="text_30">
     <!-- Metro Area Arrests/Million -->
     <g transform="translate(264.0575 53.594687)scale(0.1 -0.1)">
      <use xlink:href="#DejaVuSans-77"/>
      <use x="86.279297" xlink:href="#DejaVuSans-101"/>
      <use x="147.802734" xlink:href="#DejaVuSans-116"/>
      <use x="187.011719" xlink:href="#DejaVuSans-114"/>
      <use x="225.875" xlink:href="#DejaVuSans-111"/>
      <use x="287.056641" xlink:href="#DejaVuSans-32"/>
      <use x="318.84375" xlink:href="#DejaVuSans-65"/>
      <use x="387.251953" xlink:href="#DejaVuSans-114"/>
      <use x="426.115234" xlink:href="#DejaVuSans-101"/>
      <use x="487.638672" xlink:href="#DejaVuSans-97"/>
      <use x="548.917969" xlink:href="#DejaVuSans-32"/>
      <use x="580.705078" xlink:href="#DejaVuSans-65"/>
      <use x="649.113281" xlink:href="#DejaVuSans-114"/>
      <use x="688.476562" xlink:href="#DejaVuSans-114"/>
      <use x="727.339844" xlink:href="#DejaVuSans-101"/>
      <use x="788.863281" xlink:href="#DejaVuSans-115"/>
      <use x="840.962891" xlink:href="#DejaVuSans-116"/>
      <use x="880.171875" xlink:href="#DejaVuSans-115"/>
      <use x="932.271484" xlink:href="#DejaVuSans-47"/>
      <use x="965.962891" xlink:href="#DejaVuSans-77"/>
      <use x="1052.242188" xlink:href="#DejaVuSans-105"/>
      <use x="1080.025391" xlink:href="#DejaVuSans-108"/>
      <use x="1107.808594" xlink:href="#DejaVuSans-108"/>
      <use x="1135.591797" xlink:href="#DejaVuSans-105"/>
      <use x="1163.375" xlink:href="#DejaVuSans-111"/>
      <use x="1224.556641" xlink:href="#DejaVuSans-110"/>
     </g>
    </g>
    <g id="patch_34">
     <path d="M 236.0575 68.272812 
L 256.0575 68.272812 
L 256.0575 61.272812 
L 236.0575 61.272812 
z
" style="fill:#afeeee;"/>
    </g>
    <g id="text_31">
     <!-- Southern Border States -->
     <defs>
      <path d="M 19.671875 34.8125 
L 19.671875 8.109375 
L 35.5 8.109375 
Q 43.453125 8.109375 47.28125 11.40625 
Q 51.125 14.703125 51.125 21.484375 
Q 51.125 28.328125 47.28125 31.5625 
Q 43.453125 34.8125 35.5 34.8125 
z
M 19.671875 64.796875 
L 19.671875 42.828125 
L 34.28125 42.828125 
Q 41.5 42.828125 45.03125 45.53125 
Q 48.578125 48.25 48.578125 53.8125 
Q 48.578125 59.328125 45.03125 62.0625 
Q 41.5 64.796875 34.28125 64.796875 
z
M 9.8125 72.90625 
L 35.015625 72.90625 
Q 46.296875 72.90625 52.390625 68.21875 
Q 58.5 63.53125 58.5 54.890625 
Q 58.5 48.1875 55.375 44.234375 
Q 52.25 40.28125 46.1875 39.3125 
Q 53.46875 37.75 57.5 32.78125 
Q 61.53125 27.828125 61.53125 20.40625 
Q 61.53125 10.640625 54.890625 5.3125 
Q 48.25 0 35.984375 0 
L 9.8125 0 
z
" id="DejaVuSans-66"/>
     </defs>
     <g transform="translate(264.0575 68.272812)scale(0.1 -0.1)">
      <use xlink:href="#DejaVuSans-83"/>
      <use x="63.476562" xlink:href="#DejaVuSans-111"/>
      <use x="124.658203" xlink:href="#DejaVuSans-117"/>
      <use x="188.037109" xlink:href="#DejaVuSans-116"/>
      <use x="227.246094" xlink:href="#DejaVuSans-104"/>
      <use x="290.625" xlink:href="#DejaVuSans-101"/>
      <use x="352.148438" xlink:href="#DejaVuSans-114"/>
      <use x="391.511719" xlink:href="#DejaVuSans-110"/>
      <use x="454.890625" xlink:href="#DejaVuSans-32"/>
      <use x="486.677734" xlink:href="#DejaVuSans-66"/>
      <use x="555.28125" xlink:href="#DejaVuSans-111"/>
      <use x="616.462891" xlink:href="#DejaVuSans-114"/>
      <use x="655.826172" xlink:href="#DejaVuSans-100"/>
      <use x="719.302734" xlink:href="#DejaVuSans-101"/>
      <use x="780.826172" xlink:href="#DejaVuSans-114"/>
      <use x="821.939453" xlink:href="#DejaVuSans-32"/>
      <use x="853.726562" xlink:href="#DejaVuSans-83"/>
      <use x="917.203125" xlink:href="#DejaVuSans-116"/>
      <use x="956.412109" xlink:href="#DejaVuSans-97"/>
      <use x="1017.691406" xlink:href="#DejaVuSans-116"/>
      <use x="1056.900391" xlink:href="#DejaVuSans-101"/>
      <use x="1118.423828" xlink:href="#DejaVuSans-115"/>
     </g>
    </g>
   </g>
  </g>
  <g id="axes_2">
   <g id="patch_35">
    <path clip-path="url(#p443232b16a)" d="M 75.666765 294.118125 
L 83.431143 294.118125 
L 83.431143 144.647586 
L 75.666765 144.647586 
z
" style="fill:#191970;"/>
   </g>
   <g id="patch_36">
    <path clip-path="url(#p443232b16a)" d="M 101.548026 294.118125 
L 109.312405 294.118125 
L 109.312405 205.173527 
L 101.548026 205.173527 
z
" style="fill:#191970;"/>
   </g>
   <g id="patch_37">
    <path clip-path="url(#p443232b16a)" d="M 127.429288 294.118125 
L 135.193667 294.118125 
L 135.193667 198.004623 
L 127.429288 198.004623 
z
" style="fill:#191970;"/>
   </g>
   <g id="patch_38">
    <path clip-path="url(#p443232b16a)" d="M 153.31055 294.118125 
L 161.074928 294.118125 
L 161.074928 138.384096 
L 153.31055 138.384096 
z
" style="fill:#191970;"/>
   </g>
   <g id="patch_39">
    <path clip-path="url(#p443232b16a)" d="M 179.191811 294.118125 
L 186.95619 294.118125 
L 186.95619 124.413874 
L 179.191811 124.413874 
z
" style="fill:#191970;"/>
   </g>
   <g id="patch_40">
    <path clip-path="url(#p443232b16a)" d="M 205.073073 294.118125 
L 212.837451 294.118125 
L 212.837451 122.144211 
L 205.073073 122.144211 
z
" style="fill:#191970;"/>
   </g>
   <g id="patch_41">
    <path clip-path="url(#p443232b16a)" d="M 230.954334 294.118125 
L 238.718713 294.118125 
L 238.718713 199.633126 
L 230.954334 199.633126 
z
" style="fill:#191970;"/>
   </g>
   <g id="patch_42">
    <path clip-path="url(#p443232b16a)" d="M 256.835596 294.118125 
L 264.599974 294.118125 
L 264.599974 129.404676 
L 256.835596 129.404676 
z
" style="fill:#191970;"/>
   </g>
   <g id="patch_43">
    <path clip-path="url(#p443232b16a)" d="M 282.716858 294.118125 
L 290.481236 294.118125 
L 290.481236 169.089421 
L 282.716858 169.089421 
z
" style="fill:#191970;"/>
   </g>
   <g id="patch_44">
    <path clip-path="url(#p443232b16a)" d="M 308.598119 294.118125 
L 316.362498 294.118125 
L 316.362498 99.885906 
L 308.598119 99.885906 
z
" style="fill:#191970;"/>
   </g>
   <g id="patch_45">
    <path clip-path="url(#p443232b16a)" d="M 334.479381 294.118125 
L 342.243759 294.118125 
L 342.243759 180.352827 
L 334.479381 180.352827 
z
" style="fill:#191970;"/>
   </g>
   <g id="patch_46">
    <path clip-path="url(#p443232b16a)" d="M 360.360642 294.118125 
L 368.125021 294.118125 
L 368.125021 168.135129 
L 360.360642 168.135129 
z
" style="fill:#191970;"/>
   </g>
   <g id="patch_47">
    <path clip-path="url(#p443232b16a)" d="M 386.241904 294.118125 
L 394.006282 294.118125 
L 394.006282 124.80105 
L 386.241904 124.80105 
z
" style="fill:#191970;"/>
   </g>
   <g id="patch_48">
    <path clip-path="url(#p443232b16a)" d="M 412.123166 294.118125 
L 419.887544 294.118125 
L 419.887544 188.038857 
L 412.123166 188.038857 
z
" style="fill:#191970;"/>
   </g>
   <g id="patch_49">
    <path clip-path="url(#p443232b16a)" d="M 438.004427 294.118125 
L 445.768806 294.118125 
L 445.768806 187.81382 
L 438.004427 187.81382 
z
" style="fill:#191970;"/>
   </g>
   <g id="patch_50">
    <path clip-path="url(#p443232b16a)" d="M 463.885689 294.118125 
L 471.650067 294.118125 
L 471.650067 131.5826 
L 463.885689 131.5826 
z
" style="fill:#191970;"/>
   </g>
   <g id="patch_51">
    <path clip-path="url(#p443232b16a)" d="M 489.76695 294.118125 
L 497.531329 294.118125 
L 497.531329 121.589311 
L 489.76695 121.589311 
z
" style="fill:#191970;"/>
   </g>
   <g id="patch_52">
    <path clip-path="url(#p443232b16a)" d="M 515.648212 294.118125 
L 523.41259 294.118125 
L 523.41259 132.528103 
L 515.648212 132.528103 
z
" style="fill:#191970;"/>
   </g>
   <g id="patch_53">
    <path clip-path="url(#p443232b16a)" d="M 541.529474 294.118125 
L 549.293852 294.118125 
L 549.293852 35.260982 
L 541.529474 35.260982 
z
" style="fill:#191970;"/>
   </g>
   <g id="patch_54">
    <path clip-path="url(#p443232b16a)" d="M 567.410735 294.118125 
L 575.175114 294.118125 
L 575.175114 131.344646 
L 567.410735 131.344646 
z
" style="fill:#191970;"/>
   </g>
   <g id="matplotlib.axis_3">
    <g id="ytick_7">
     <g id="line2d_27">
      <defs>
       <path d="M 0 0 
L 3.5 0 
" id="m06a001364e" style="stroke:#000000;stroke-width:0.8;"/>
      </defs>
      <g>
       <use style="stroke:#000000;stroke-width:0.8;" x="600.53875" xlink:href="#m06a001364e" y="294.118125"/>
      </g>
     </g>
     <g id="text_32">
      <!-- 0 -->
      <g transform="translate(607.53875 297.917344)scale(0.1 -0.1)">
       <use xlink:href="#DejaVuSans-48"/>
      </g>
     </g>
    </g>
    <g id="ytick_8">
     <g id="line2d_28">
      <g>
       <use style="stroke:#000000;stroke-width:0.8;" x="600.53875" xlink:href="#m06a001364e" y="244.584489"/>
      </g>
     </g>
     <g id="text_33">
      <!-- 10000 -->
      <g transform="translate(607.53875 248.383708)scale(0.1 -0.1)">
       <use xlink:href="#DejaVuSans-49"/>
       <use x="63.623047" xlink:href="#DejaVuSans-48"/>
       <use x="127.246094" xlink:href="#DejaVuSans-48"/>
       <use x="190.869141" xlink:href="#DejaVuSans-48"/>
       <use x="254.492188" xlink:href="#DejaVuSans-48"/>
      </g>
     </g>
    </g>
    <g id="ytick_9">
     <g id="line2d_29">
      <g>
       <use style="stroke:#000000;stroke-width:0.8;" x="600.53875" xlink:href="#m06a001364e" y="195.050854"/>
      </g>
     </g>
     <g id="text_34">
      <!-- 20000 -->
      <g transform="translate(607.53875 198.850073)scale(0.1 -0.1)">
       <use xlink:href="#DejaVuSans-50"/>
       <use x="63.623047" xlink:href="#DejaVuSans-48"/>
       <use x="127.246094" xlink:href="#DejaVuSans-48"/>
       <use x="190.869141" xlink:href="#DejaVuSans-48"/>
       <use x="254.492188" xlink:href="#DejaVuSans-48"/>
      </g>
     </g>
    </g>
    <g id="ytick_10">
     <g id="line2d_30">
      <g>
       <use style="stroke:#000000;stroke-width:0.8;" x="600.53875" xlink:href="#m06a001364e" y="145.517218"/>
      </g>
     </g>
     <g id="text_35">
      <!-- 30000 -->
      <defs>
       <path d="M 40.578125 39.3125 
Q 47.65625 37.796875 51.625 33 
Q 55.609375 28.21875 55.609375 21.1875 
Q 55.609375 10.40625 48.1875 4.484375 
Q 40.765625 -1.421875 27.09375 -1.421875 
Q 22.515625 -1.421875 17.65625 -0.515625 
Q 12.796875 0.390625 7.625 2.203125 
L 7.625 11.71875 
Q 11.71875 9.328125 16.59375 8.109375 
Q 21.484375 6.890625 26.8125 6.890625 
Q 36.078125 6.890625 40.9375 10.546875 
Q 45.796875 14.203125 45.796875 21.1875 
Q 45.796875 27.640625 41.28125 31.265625 
Q 36.765625 34.90625 28.71875 34.90625 
L 20.21875 34.90625 
L 20.21875 43.015625 
L 29.109375 43.015625 
Q 36.375 43.015625 40.234375 45.921875 
Q 44.09375 48.828125 44.09375 54.296875 
Q 44.09375 59.90625 40.109375 62.90625 
Q 36.140625 65.921875 28.71875 65.921875 
Q 24.65625 65.921875 20.015625 65.03125 
Q 15.375 64.15625 9.8125 62.3125 
L 9.8125 71.09375 
Q 15.4375 72.65625 20.34375 73.4375 
Q 25.25 74.21875 29.59375 74.21875 
Q 40.828125 74.21875 47.359375 69.109375 
Q 53.90625 64.015625 53.90625 55.328125 
Q 53.90625 49.265625 50.4375 45.09375 
Q 46.96875 40.921875 40.578125 39.3125 
z
" id="DejaVuSans-51"/>
      </defs>
      <g transform="translate(607.53875 149.316437)scale(0.1 -0.1)">
       <use xlink:href="#DejaVuSans-51"/>
       <use x="63.623047" xlink:href="#DejaVuSans-48"/>
       <use x="127.246094" xlink:href="#DejaVuSans-48"/>
       <use x="190.869141" xlink:href="#DejaVuSans-48"/>
       <use x="254.492188" xlink:href="#DejaVuSans-48"/>
      </g>
     </g>
    </g>
    <g id="ytick_11">
     <g id="line2d_31">
      <g>
       <use style="stroke:#000000;stroke-width:0.8;" x="600.53875" xlink:href="#m06a001364e" y="95.983583"/>
      </g>
     </g>
     <g id="text_36">
      <!-- 40000 -->
      <defs>
       <path d="M 37.796875 64.3125 
L 12.890625 25.390625 
L 37.796875 25.390625 
z
M 35.203125 72.90625 
L 47.609375 72.90625 
L 47.609375 25.390625 
L 58.015625 25.390625 
L 58.015625 17.1875 
L 47.609375 17.1875 
L 47.609375 0 
L 37.796875 0 
L 37.796875 17.1875 
L 4.890625 17.1875 
L 4.890625 26.703125 
z
" id="DejaVuSans-52"/>
      </defs>
      <g transform="translate(607.53875 99.782802)scale(0.1 -0.1)">
       <use xlink:href="#DejaVuSans-52"/>
       <use x="63.623047" xlink:href="#DejaVuSans-48"/>
       <use x="127.246094" xlink:href="#DejaVuSans-48"/>
       <use x="190.869141" xlink:href="#DejaVuSans-48"/>
       <use x="254.492188" xlink:href="#DejaVuSans-48"/>
      </g>
     </g>
    </g>
    <g id="ytick_12">
     <g id="line2d_32">
      <g>
       <use style="stroke:#000000;stroke-width:0.8;" x="600.53875" xlink:href="#m06a001364e" y="46.449947"/>
      </g>
     </g>
     <g id="text_37">
      <!-- 50000 -->
      <g transform="translate(607.53875 50.249166)scale(0.1 -0.1)">
       <use xlink:href="#DejaVuSans-53"/>
       <use x="63.623047" xlink:href="#DejaVuSans-48"/>
       <use x="127.246094" xlink:href="#DejaVuSans-48"/>
       <use x="190.869141" xlink:href="#DejaVuSans-48"/>
       <use x="254.492188" xlink:href="#DejaVuSans-48"/>
      </g>
     </g>
    </g>
    <g id="text_38">
     <!-- Metro Area Arrests/Million -->
     <g transform="translate(652.469375 235.4925)rotate(-90)scale(0.12 -0.12)">
      <use xlink:href="#DejaVuSans-77"/>
      <use x="86.279297" xlink:href="#DejaVuSans-101"/>
      <use x="147.802734" xlink:href="#DejaVuSans-116"/>
      <use x="187.011719" xlink:href="#DejaVuSans-114"/>
      <use x="225.875" xlink:href="#DejaVuSans-111"/>
      <use x="287.056641" xlink:href="#DejaVuSans-32"/>
      <use x="318.84375" xlink:href="#DejaVuSans-65"/>
      <use x="387.251953" xlink:href="#DejaVuSans-114"/>
      <use x="426.115234" xlink:href="#DejaVuSans-101"/>
      <use x="487.638672" xlink:href="#DejaVuSans-97"/>
      <use x="548.917969" xlink:href="#DejaVuSans-32"/>
      <use x="580.705078" xlink:href="#DejaVuSans-65"/>
      <use x="649.113281" xlink:href="#DejaVuSans-114"/>
      <use x="688.476562" xlink:href="#DejaVuSans-114"/>
      <use x="727.339844" xlink:href="#DejaVuSans-101"/>
      <use x="788.863281" xlink:href="#DejaVuSans-115"/>
      <use x="840.962891" xlink:href="#DejaVuSans-116"/>
      <use x="880.171875" xlink:href="#DejaVuSans-115"/>
      <use x="932.271484" xlink:href="#DejaVuSans-47"/>
      <use x="965.962891" xlink:href="#DejaVuSans-77"/>
      <use x="1052.242188" xlink:href="#DejaVuSans-105"/>
      <use x="1080.025391" xlink:href="#DejaVuSans-108"/>
      <use x="1107.808594" xlink:href="#DejaVuSans-108"/>
      <use x="1135.591797" xlink:href="#DejaVuSans-105"/>
      <use x="1163.375" xlink:href="#DejaVuSans-111"/>
      <use x="1224.556641" xlink:href="#DejaVuSans-110"/>
     </g>
    </g>
   </g>
   <g id="patch_55">
    <path d="M 42.53875 294.118125 
L 42.53875 22.318125 
" style="fill:none;stroke:#000000;stroke-linecap:square;stroke-linejoin:miter;stroke-width:0.8;"/>
   </g>
   <g id="patch_56">
    <path d="M 600.53875 294.118125 
L 600.53875 22.318125 
" style="fill:none;stroke:#000000;stroke-linecap:square;stroke-linejoin:miter;stroke-width:0.8;"/>
   </g>
   <g id="patch_57">
    <path d="M 42.53875 294.118125 
L 600.53875 294.118125 
" style="fill:none;stroke:#000000;stroke-linecap:square;stroke-linejoin:miter;stroke-width:0.8;"/>
   </g>
   <g id="patch_58">
    <path d="M 42.53875 22.318125 
L 600.53875 22.318125 
" style="fill:none;stroke:#000000;stroke-linecap:square;stroke-linejoin:miter;stroke-width:0.8;"/>
   </g>
  </g>
 </g>
 <defs>
  <clipPath id="p443232b16a">
   <rect height="271.8" width="558" x="42.53875" y="22.318125"/>
  </clipPath>
 </defs>
</svg>
