<?xml version="1.0" encoding="utf-8" standalone="no"?>
<!DOCTYPE svg PUBLIC "-//W3C//DTD SVG 1.1//EN"
  "http://www.w3.org/Graphics/SVG/1.1/DTD/svg11.dtd">
<!-- Created with matplotlib (https://matplotlib.org/) -->
<svg height="372.35625pt" version="1.1" viewBox="0 0 750.968437 372.35625" width="750.968437pt" xmlns="http://www.w3.org/2000/svg" xmlns:xlink="http://www.w3.org/1999/xlink">
 <defs>
  <style type="text/css">
*{stroke-linecap:butt;stroke-linejoin:round;}
  </style>
 </defs>
 <g id="figure_1">
  <g id="patch_1">
   <path d="M 0 372.35625 
L 750.968437 372.35625 
L 750.968437 0 
L 0 0 
z
" style="fill:#ffffff;"/>
  </g>
  <g id="axes_1">
   <g id="patch_2">
    <path d="M 43.78125 348.478125 
L 512.50125 348.478125 
L 512.50125 22.318125 
L 43.78125 22.318125 
z
" style="fill:#ffffff;"/>
   </g>
   <g id="patch_3">
    <path clip-path="url(#p21a1ec7fca)" d="M 65.086705 348.478125 
L 82.947565 348.478125 
L 82.947565 290.212649 
L 65.086705 290.212649 
z
" style="fill:#ff0000;"/>
   </g>
   <g id="patch_4">
    <path clip-path="url(#p21a1ec7fca)" d="M 116.117733 348.478125 
L 133.978593 348.478125 
L 133.978593 289.176307 
L 116.117733 289.176307 
z
" style="fill:#ff0000;"/>
   </g>
   <g id="patch_5">
    <path clip-path="url(#p21a1ec7fca)" d="M 167.148762 348.478125 
L 185.009622 348.478125 
L 185.009622 301.20856 
L 167.148762 301.20856 
z
" style="fill:#ff0000;"/>
   </g>
   <g id="patch_6">
    <path clip-path="url(#p21a1ec7fca)" d="M 218.179791 348.478125 
L 236.040651 348.478125 
L 236.040651 289.791897 
L 218.179791 289.791897 
z
" style="fill:#ff0000;"/>
   </g>
   <g id="patch_7">
    <path clip-path="url(#p21a1ec7fca)" d="M 269.21082 348.478125 
L 287.07168 348.478125 
L 287.07168 286.853425 
L 269.21082 286.853425 
z
" style="fill:#ff0000;"/>
   </g>
   <g id="patch_8">
    <path clip-path="url(#p21a1ec7fca)" d="M 320.241849 348.478125 
L 338.102709 348.478125 
L 338.102709 278.228279 
L 320.241849 278.228279 
z
" style="fill:#ff0000;"/>
   </g>
   <g id="patch_9">
    <path clip-path="url(#p21a1ec7fca)" d="M 371.272878 348.478125 
L 389.133738 348.478125 
L 389.133738 301.883839 
L 371.272878 301.883839 
z
" style="fill:#ff0000;"/>
   </g>
   <g id="patch_10">
    <path clip-path="url(#p21a1ec7fca)" d="M 422.303907 348.478125 
L 440.164767 348.478125 
L 440.164767 303.825268 
L 422.303907 303.825268 
z
" style="fill:#ff0000;"/>
   </g>
   <g id="patch_11">
    <path clip-path="url(#p21a1ec7fca)" d="M 473.334935 348.478125 
L 491.195795 348.478125 
L 491.195795 298.299663 
L 473.334935 298.299663 
z
" style="fill:#ff0000;"/>
   </g>
   <g id="patch_12">
    <path clip-path="url(#p21a1ec7fca)" d="M 65.086705 290.212649 
L 82.947565 290.212649 
L 82.947565 268.679756 
L 65.086705 268.679756 
z
" style="fill:#eba134;"/>
   </g>
   <g id="patch_13">
    <path clip-path="url(#p21a1ec7fca)" d="M 116.117733 289.176307 
L 133.978593 289.176307 
L 133.978593 272.23293 
L 116.117733 272.23293 
z
" style="fill:#eba134;"/>
   </g>
   <g id="patch_14">
    <path clip-path="url(#p21a1ec7fca)" d="M 167.148762 301.20856 
L 185.009622 301.20856 
L 185.009622 279.46456 
L 167.148762 279.46456 
z
" style="fill:#eba134;"/>
   </g>
   <g id="patch_15">
    <path clip-path="url(#p21a1ec7fca)" d="M 218.179791 289.791897 
L 236.040651 289.791897 
L 236.040651 255.934457 
L 218.179791 255.934457 
z
" style="fill:#eba134;"/>
   </g>
   <g id="patch_16">
    <path clip-path="url(#p21a1ec7fca)" d="M 269.21082 286.853425 
L 287.07168 286.853425 
L 287.07168 255.289554 
L 269.21082 255.289554 
z
" style="fill:#eba134;"/>
   </g>
   <g id="patch_17">
    <path clip-path="url(#p21a1ec7fca)" d="M 320.241849 278.228279 
L 338.102709 278.228279 
L 338.102709 253.139048 
L 320.241849 253.139048 
z
" style="fill:#eba134;"/>
   </g>
   <g id="patch_18">
    <path clip-path="url(#p21a1ec7fca)" d="M 371.272878 301.883839 
L 389.133738 301.883839 
L 389.133738 279.390046 
L 371.272878 279.390046 
z
" style="fill:#eba134;"/>
   </g>
   <g id="patch_19">
    <path clip-path="url(#p21a1ec7fca)" d="M 422.303907 303.825268 
L 440.164767 303.825268 
L 440.164767 272.762411 
L 422.303907 272.762411 
z
" style="fill:#eba134;"/>
   </g>
   <g id="patch_20">
    <path clip-path="url(#p21a1ec7fca)" d="M 473.334935 298.299663 
L 491.195795 298.299663 
L 491.195795 238.08551 
L 473.334935 238.08551 
z
" style="fill:#eba134;"/>
   </g>
   <g id="patch_21">
    <path clip-path="url(#p21a1ec7fca)" d="M 65.086705 268.679756 
L 82.947565 268.679756 
L 82.947565 242.71362 
L 65.086705 242.71362 
z
" style="fill:#e8eb34;"/>
   </g>
   <g id="patch_22">
    <path clip-path="url(#p21a1ec7fca)" d="M 116.117733 272.23293 
L 133.978593 272.23293 
L 133.978593 255.289554 
L 116.117733 255.289554 
z
" style="fill:#e8eb34;"/>
   </g>
   <g id="patch_23">
    <path clip-path="url(#p21a1ec7fca)" d="M 167.148762 279.46456 
L 185.009622 279.46456 
L 185.009622 254.884386 
L 167.148762 254.884386 
z
" style="fill:#e8eb34;"/>
   </g>
   <g id="patch_24">
    <path clip-path="url(#p21a1ec7fca)" d="M 218.179791 255.934457 
L 236.040651 255.934457 
L 236.040651 231.105668 
L 218.179791 231.105668 
z
" style="fill:#e8eb34;"/>
   </g>
   <g id="patch_25">
    <path clip-path="url(#p21a1ec7fca)" d="M 269.21082 255.289554 
L 287.07168 255.289554 
L 287.07168 232.743931 
L 269.21082 232.743931 
z
" style="fill:#e8eb34;"/>
   </g>
   <g id="patch_26">
    <path clip-path="url(#p21a1ec7fca)" d="M 320.241849 253.139048 
L 338.102709 253.139048 
L 338.102709 223.031971 
L 320.241849 223.031971 
z
" style="fill:#e8eb34;"/>
   </g>
   <g id="patch_27">
    <path clip-path="url(#p21a1ec7fca)" d="M 371.272878 279.390046 
L 389.133738 279.390046 
L 389.133738 248.862756 
L 371.272878 248.862756 
z
" style="fill:#e8eb34;"/>
   </g>
   <g id="patch_28">
    <path clip-path="url(#p21a1ec7fca)" d="M 422.303907 272.762411 
L 440.164767 272.762411 
L 440.164767 233.933839 
L 422.303907 233.933839 
z
" style="fill:#e8eb34;"/>
   </g>
   <g id="patch_29">
    <path clip-path="url(#p21a1ec7fca)" d="M 473.334935 238.08551 
L 491.195795 238.08551 
L 491.195795 207.978433 
L 473.334935 207.978433 
z
" style="fill:#e8eb34;"/>
   </g>
   <g id="patch_30">
    <path clip-path="url(#p21a1ec7fca)" d="M 65.086705 242.71362 
L 82.947565 242.71362 
L 82.947565 224.980649 
L 65.086705 224.980649 
z
" style="fill:#34ebd5;"/>
   </g>
   <g id="patch_31">
    <path clip-path="url(#p21a1ec7fca)" d="M 116.117733 255.289554 
L 133.978593 255.289554 
L 133.978593 219.284878 
L 116.117733 219.284878 
z
" style="fill:#34ebd5;"/>
   </g>
   <g id="patch_32">
    <path clip-path="url(#p21a1ec7fca)" d="M 167.148762 254.884386 
L 185.009622 254.884386 
L 185.009622 234.085777 
L 167.148762 234.085777 
z
" style="fill:#34ebd5;"/>
   </g>
   <g id="patch_33">
    <path clip-path="url(#p21a1ec7fca)" d="M 218.179791 231.105668 
L 236.040651 231.105668 
L 236.040651 210.791205 
L 218.179791 210.791205 
z
" style="fill:#34ebd5;"/>
   </g>
   <g id="patch_34">
    <path clip-path="url(#p21a1ec7fca)" d="M 269.21082 232.743931 
L 287.07168 232.743931 
L 287.07168 211.701351 
L 269.21082 211.701351 
z
" style="fill:#34ebd5;"/>
   </g>
   <g id="patch_35">
    <path clip-path="url(#p21a1ec7fca)" d="M 320.241849 223.031971 
L 338.102709 223.031971 
L 338.102709 201.287971 
L 320.241849 201.287971 
z
" style="fill:#34ebd5;"/>
   </g>
   <g id="patch_36">
    <path clip-path="url(#p21a1ec7fca)" d="M 371.272878 248.862756 
L 389.133738 248.862756 
L 389.133738 208.695268 
L 371.272878 208.695268 
z
" style="fill:#34ebd5;"/>
   </g>
   <g id="patch_37">
    <path clip-path="url(#p21a1ec7fca)" d="M 422.303907 233.933839 
L 440.164767 233.933839 
L 440.164767 202.870982 
L 422.303907 202.870982 
z
" style="fill:#34ebd5;"/>
   </g>
   <g id="patch_38">
    <path clip-path="url(#p21a1ec7fca)" d="M 473.334935 207.978433 
L 491.195795 207.978433 
L 491.195795 197.94274 
L 473.334935 197.94274 
z
" style="fill:#34ebd5;"/>
   </g>
   <g id="patch_39">
    <path clip-path="url(#p21a1ec7fca)" d="M 65.086705 224.980649 
L 82.947565 224.980649 
L 82.947565 193.31463 
L 65.086705 193.31463 
z
" style="fill:#92eb34;"/>
   </g>
   <g id="patch_40">
    <path clip-path="url(#p21a1ec7fca)" d="M 116.117733 219.284878 
L 133.978593 219.284878 
L 133.978593 193.869813 
L 116.117733 193.869813 
z
" style="fill:#92eb34;"/>
   </g>
   <g id="patch_41">
    <path clip-path="url(#p21a1ec7fca)" d="M 167.148762 234.085777 
L 185.009622 234.085777 
L 185.009622 201.942473 
L 167.148762 201.942473 
z
" style="fill:#92eb34;"/>
   </g>
   <g id="patch_42">
    <path clip-path="url(#p21a1ec7fca)" d="M 218.179791 210.791205 
L 236.040651 210.791205 
L 236.040651 183.705253 
L 218.179791 183.705253 
z
" style="fill:#92eb34;"/>
   </g>
   <g id="patch_43">
    <path clip-path="url(#p21a1ec7fca)" d="M 269.21082 211.701351 
L 287.07168 211.701351 
L 287.07168 183.143563 
L 269.21082 183.143563 
z
" style="fill:#92eb34;"/>
   </g>
   <g id="patch_44">
    <path clip-path="url(#p21a1ec7fca)" d="M 320.241849 201.287971 
L 338.102709 201.287971 
L 338.102709 184.561817 
L 320.241849 184.561817 
z
" style="fill:#92eb34;"/>
   </g>
   <g id="patch_45">
    <path clip-path="url(#p21a1ec7fca)" d="M 371.272878 208.695268 
L 389.133738 208.695268 
L 389.133738 178.167977 
L 371.272878 178.167977 
z
" style="fill:#92eb34;"/>
   </g>
   <g id="patch_46">
    <path clip-path="url(#p21a1ec7fca)" d="M 422.303907 202.870982 
L 440.164767 202.870982 
L 440.164767 179.573839 
L 422.303907 179.573839 
z
" style="fill:#92eb34;"/>
   </g>
   <g id="patch_47">
    <path clip-path="url(#p21a1ec7fca)" d="M 473.334935 197.94274 
L 491.195795 197.94274 
L 491.195795 187.907048 
L 473.334935 187.907048 
z
" style="fill:#92eb34;"/>
   </g>
   <g id="patch_48">
    <path clip-path="url(#p21a1ec7fca)" d="M 65.086705 193.31463 
L 82.947565 193.31463 
L 82.947565 22.318125 
L 65.086705 22.318125 
z
" style="fill:#34eb4c;"/>
   </g>
   <g id="patch_49">
    <path clip-path="url(#p21a1ec7fca)" d="M 116.117733 193.869813 
L 133.978593 193.869813 
L 133.978593 22.318125 
L 116.117733 22.318125 
z
" style="fill:#34eb4c;"/>
   </g>
   <g id="patch_50">
    <path clip-path="url(#p21a1ec7fca)" d="M 167.148762 201.942473 
L 185.009622 201.942473 
L 185.009622 22.318125 
L 167.148762 22.318125 
z
" style="fill:#34eb4c;"/>
   </g>
   <g id="patch_51">
    <path clip-path="url(#p21a1ec7fca)" d="M 218.179791 183.705253 
L 236.040651 183.705253 
L 236.040651 22.318125 
L 218.179791 22.318125 
z
" style="fill:#34eb4c;"/>
   </g>
   <g id="patch_52">
    <path clip-path="url(#p21a1ec7fca)" d="M 269.21082 183.143563 
L 287.07168 183.143563 
L 287.07168 22.318125 
L 269.21082 22.318125 
z
" style="fill:#34eb4c;"/>
   </g>
   <g id="patch_53">
    <path clip-path="url(#p21a1ec7fca)" d="M 320.241849 184.561817 
L 338.102709 184.561817 
L 338.102709 22.318125 
L 320.241849 22.318125 
z
" style="fill:#34eb4c;"/>
   </g>
   <g id="patch_54">
    <path clip-path="url(#p21a1ec7fca)" d="M 371.272878 178.167977 
L 389.133738 178.167977 
L 389.133738 22.318125 
L 371.272878 22.318125 
z
" style="fill:#34eb4c;"/>
   </g>
   <g id="patch_55">
    <path clip-path="url(#p21a1ec7fca)" d="M 422.303907 179.573839 
L 440.164767 179.573839 
L 440.164767 22.318125 
L 422.303907 22.318125 
z
" style="fill:#34eb4c;"/>
   </g>
   <g id="patch_56">
    <path clip-path="url(#p21a1ec7fca)" d="M 473.334935 187.907048 
L 491.195795 187.907048 
L 491.195795 22.318125 
L 473.334935 22.318125 
z
" style="fill:#34eb4c;"/>
   </g>
   <g id="matplotlib.axis_1">
    <g id="xtick_1">
     <g id="line2d_1">
      <defs>
       <path d="M 0 0 
L 0 3.5 
" id="m055daa2429" style="stroke:#000000;stroke-width:0.8;"/>
      </defs>
      <g>
       <use style="stroke:#000000;stroke-width:0.8;" x="74.017135" xlink:href="#m055daa2429" y="348.478125"/>
      </g>
     </g>
     <g id="text_1">
      <!-- Thriller -->
      <defs>
       <path d="M -0.296875 72.90625 
L 61.375 72.90625 
L 61.375 64.59375 
L 35.5 64.59375 
L 35.5 0 
L 25.59375 0 
L 25.59375 64.59375 
L -0.296875 64.59375 
z
" id="DejaVuSans-84"/>
       <path d="M 54.890625 33.015625 
L 54.890625 0 
L 45.90625 0 
L 45.90625 32.71875 
Q 45.90625 40.484375 42.875 44.328125 
Q 39.84375 48.1875 33.796875 48.1875 
Q 26.515625 48.1875 22.3125 43.546875 
Q 18.109375 38.921875 18.109375 30.90625 
L 18.109375 0 
L 9.078125 0 
L 9.078125 75.984375 
L 18.109375 75.984375 
L 18.109375 46.1875 
Q 21.34375 51.125 25.703125 53.5625 
Q 30.078125 56 35.796875 56 
Q 45.21875 56 50.046875 50.171875 
Q 54.890625 44.34375 54.890625 33.015625 
z
" id="DejaVuSans-104"/>
       <path d="M 41.109375 46.296875 
Q 39.59375 47.171875 37.8125 47.578125 
Q 36.03125 48 33.890625 48 
Q 26.265625 48 22.1875 43.046875 
Q 18.109375 38.09375 18.109375 28.8125 
L 18.109375 0 
L 9.078125 0 
L 9.078125 54.6875 
L 18.109375 54.6875 
L 18.109375 46.1875 
Q 20.953125 51.171875 25.484375 53.578125 
Q 30.03125 56 36.53125 56 
Q 37.453125 56 38.578125 55.875 
Q 39.703125 55.765625 41.0625 55.515625 
z
" id="DejaVuSans-114"/>
       <path d="M 9.421875 54.6875 
L 18.40625 54.6875 
L 18.40625 0 
L 9.421875 0 
z
M 9.421875 75.984375 
L 18.40625 75.984375 
L 18.40625 64.59375 
L 9.421875 64.59375 
z
" id="DejaVuSans-105"/>
       <path d="M 9.421875 75.984375 
L 18.40625 75.984375 
L 18.40625 0 
L 9.421875 0 
z
" id="DejaVuSans-108"/>
       <path d="M 56.203125 29.59375 
L 56.203125 25.203125 
L 14.890625 25.203125 
Q 15.484375 15.921875 20.484375 11.0625 
Q 25.484375 6.203125 34.421875 6.203125 
Q 39.59375 6.203125 44.453125 7.46875 
Q 49.3125 8.734375 54.109375 11.28125 
L 54.109375 2.78125 
Q 49.265625 0.734375 44.1875 -0.34375 
Q 39.109375 -1.421875 33.890625 -1.421875 
Q 20.796875 -1.421875 13.15625 6.1875 
Q 5.515625 13.8125 5.515625 26.8125 
Q 5.515625 40.234375 12.765625 48.109375 
Q 20.015625 56 32.328125 56 
Q 43.359375 56 49.78125 48.890625 
Q 56.203125 41.796875 56.203125 29.59375 
z
M 47.21875 32.234375 
Q 47.125 39.59375 43.09375 43.984375 
Q 39.0625 48.390625 32.421875 48.390625 
Q 24.90625 48.390625 20.390625 44.140625 
Q 15.875 39.890625 15.1875 32.171875 
z
" id="DejaVuSans-101"/>
      </defs>
      <g transform="translate(56.439791 363.076563)scale(0.1 -0.1)">
       <use xlink:href="#DejaVuSans-84"/>
       <use x="61.083984" xlink:href="#DejaVuSans-104"/>
       <use x="124.462891" xlink:href="#DejaVuSans-114"/>
       <use x="165.576172" xlink:href="#DejaVuSans-105"/>
       <use x="193.359375" xlink:href="#DejaVuSans-108"/>
       <use x="221.142578" xlink:href="#DejaVuSans-108"/>
       <use x="248.925781" xlink:href="#DejaVuSans-101"/>
       <use x="310.449219" xlink:href="#DejaVuSans-114"/>
      </g>
     </g>
    </g>
    <g id="xtick_2">
     <g id="line2d_2">
      <g>
       <use style="stroke:#000000;stroke-width:0.8;" x="125.048163" xlink:href="#m055daa2429" y="348.478125"/>
      </g>
     </g>
     <g id="text_2">
      <!-- Pure Horror -->
      <defs>
       <path d="M 19.671875 64.796875 
L 19.671875 37.40625 
L 32.078125 37.40625 
Q 38.96875 37.40625 42.71875 40.96875 
Q 46.484375 44.53125 46.484375 51.125 
Q 46.484375 57.671875 42.71875 61.234375 
Q 38.96875 64.796875 32.078125 64.796875 
z
M 9.8125 72.90625 
L 32.078125 72.90625 
Q 44.34375 72.90625 50.609375 67.359375 
Q 56.890625 61.8125 56.890625 51.125 
Q 56.890625 40.328125 50.609375 34.8125 
Q 44.34375 29.296875 32.078125 29.296875 
L 19.671875 29.296875 
L 19.671875 0 
L 9.8125 0 
z
" id="DejaVuSans-80"/>
       <path d="M 8.5 21.578125 
L 8.5 54.6875 
L 17.484375 54.6875 
L 17.484375 21.921875 
Q 17.484375 14.15625 20.5 10.265625 
Q 23.53125 6.390625 29.59375 6.390625 
Q 36.859375 6.390625 41.078125 11.03125 
Q 45.3125 15.671875 45.3125 23.6875 
L 45.3125 54.6875 
L 54.296875 54.6875 
L 54.296875 0 
L 45.3125 0 
L 45.3125 8.40625 
Q 42.046875 3.421875 37.71875 1 
Q 33.40625 -1.421875 27.6875 -1.421875 
Q 18.265625 -1.421875 13.375 4.4375 
Q 8.5 10.296875 8.5 21.578125 
z
M 31.109375 56 
z
" id="DejaVuSans-117"/>
       <path id="DejaVuSans-32"/>
       <path d="M 9.8125 72.90625 
L 19.671875 72.90625 
L 19.671875 43.015625 
L 55.515625 43.015625 
L 55.515625 72.90625 
L 65.375 72.90625 
L 65.375 0 
L 55.515625 0 
L 55.515625 34.71875 
L 19.671875 34.71875 
L 19.671875 0 
L 9.8125 0 
z
" id="DejaVuSans-72"/>
       <path d="M 30.609375 48.390625 
Q 23.390625 48.390625 19.1875 42.75 
Q 14.984375 37.109375 14.984375 27.296875 
Q 14.984375 17.484375 19.15625 11.84375 
Q 23.34375 6.203125 30.609375 6.203125 
Q 37.796875 6.203125 41.984375 11.859375 
Q 46.1875 17.53125 46.1875 27.296875 
Q 46.1875 37.015625 41.984375 42.703125 
Q 37.796875 48.390625 30.609375 48.390625 
z
M 30.609375 56 
Q 42.328125 56 49.015625 48.375 
Q 55.71875 40.765625 55.71875 27.296875 
Q 55.71875 13.875 49.015625 6.21875 
Q 42.328125 -1.421875 30.609375 -1.421875 
Q 18.84375 -1.421875 12.171875 6.21875 
Q 5.515625 13.875 5.515625 27.296875 
Q 5.515625 40.765625 12.171875 48.375 
Q 18.84375 56 30.609375 56 
z
" id="DejaVuSans-111"/>
      </defs>
      <g transform="translate(96.498163 363.076563)scale(0.1 -0.1)">
       <use xlink:href="#DejaVuSans-80"/>
       <use x="58.552734" xlink:href="#DejaVuSans-117"/>
       <use x="121.931641" xlink:href="#DejaVuSans-114"/>
       <use x="160.794922" xlink:href="#DejaVuSans-101"/>
       <use x="222.318359" xlink:href="#DejaVuSans-32"/>
       <use x="254.105469" xlink:href="#DejaVuSans-72"/>
       <use x="329.300781" xlink:href="#DejaVuSans-111"/>
       <use x="390.482422" xlink:href="#DejaVuSans-114"/>
       <use x="429.845703" xlink:href="#DejaVuSans-114"/>
       <use x="468.708984" xlink:href="#DejaVuSans-111"/>
       <use x="529.890625" xlink:href="#DejaVuSans-114"/>
      </g>
     </g>
    </g>
    <g id="xtick_3">
     <g id="line2d_3">
      <g>
       <use style="stroke:#000000;stroke-width:0.8;" x="176.079192" xlink:href="#m055daa2429" y="348.478125"/>
      </g>
     </g>
     <g id="text_3">
      <!-- Mystery -->
      <defs>
       <path d="M 9.8125 72.90625 
L 24.515625 72.90625 
L 43.109375 23.296875 
L 61.8125 72.90625 
L 76.515625 72.90625 
L 76.515625 0 
L 66.890625 0 
L 66.890625 64.015625 
L 48.09375 14.015625 
L 38.1875 14.015625 
L 19.390625 64.015625 
L 19.390625 0 
L 9.8125 0 
z
" id="DejaVuSans-77"/>
       <path d="M 32.171875 -5.078125 
Q 28.375 -14.84375 24.75 -17.8125 
Q 21.140625 -20.796875 15.09375 -20.796875 
L 7.90625 -20.796875 
L 7.90625 -13.28125 
L 13.1875 -13.28125 
Q 16.890625 -13.28125 18.9375 -11.515625 
Q 21 -9.765625 23.484375 -3.21875 
L 25.09375 0.875 
L 2.984375 54.6875 
L 12.5 54.6875 
L 29.59375 11.921875 
L 46.6875 54.6875 
L 56.203125 54.6875 
z
" id="DejaVuSans-121"/>
       <path d="M 44.28125 53.078125 
L 44.28125 44.578125 
Q 40.484375 46.53125 36.375 47.5 
Q 32.28125 48.484375 27.875 48.484375 
Q 21.1875 48.484375 17.84375 46.4375 
Q 14.5 44.390625 14.5 40.28125 
Q 14.5 37.15625 16.890625 35.375 
Q 19.28125 33.59375 26.515625 31.984375 
L 29.59375 31.296875 
Q 39.15625 29.25 43.1875 25.515625 
Q 47.21875 21.78125 47.21875 15.09375 
Q 47.21875 7.46875 41.1875 3.015625 
Q 35.15625 -1.421875 24.609375 -1.421875 
Q 20.21875 -1.421875 15.453125 -0.5625 
Q 10.6875 0.296875 5.421875 2 
L 5.421875 11.28125 
Q 10.40625 8.6875 15.234375 7.390625 
Q 20.0625 6.109375 24.8125 6.109375 
Q 31.15625 6.109375 34.5625 8.28125 
Q 37.984375 10.453125 37.984375 14.40625 
Q 37.984375 18.0625 35.515625 20.015625 
Q 33.0625 21.96875 24.703125 23.78125 
L 21.578125 24.515625 
Q 13.234375 26.265625 9.515625 29.90625 
Q 5.8125 33.546875 5.8125 39.890625 
Q 5.8125 47.609375 11.28125 51.796875 
Q 16.75 56 26.8125 56 
Q 31.78125 56 36.171875 55.265625 
Q 40.578125 54.546875 44.28125 53.078125 
z
" id="DejaVuSans-115"/>
       <path d="M 18.3125 70.21875 
L 18.3125 54.6875 
L 36.8125 54.6875 
L 36.8125 47.703125 
L 18.3125 47.703125 
L 18.3125 18.015625 
Q 18.3125 11.328125 20.140625 9.421875 
Q 21.96875 7.515625 27.59375 7.515625 
L 36.8125 7.515625 
L 36.8125 0 
L 27.59375 0 
Q 17.1875 0 13.234375 3.875 
Q 9.28125 7.765625 9.28125 18.015625 
L 9.28125 47.703125 
L 2.6875 47.703125 
L 2.6875 54.6875 
L 9.28125 54.6875 
L 9.28125 70.21875 
z
" id="DejaVuSans-116"/>
      </defs>
      <g transform="translate(156.149505 363.076563)scale(0.1 -0.1)">
       <use xlink:href="#DejaVuSans-77"/>
       <use x="86.279297" xlink:href="#DejaVuSans-121"/>
       <use x="145.458984" xlink:href="#DejaVuSans-115"/>
       <use x="197.558594" xlink:href="#DejaVuSans-116"/>
       <use x="236.767578" xlink:href="#DejaVuSans-101"/>
       <use x="298.291016" xlink:href="#DejaVuSans-114"/>
       <use x="339.404297" xlink:href="#DejaVuSans-121"/>
      </g>
     </g>
    </g>
    <g id="xtick_4">
     <g id="line2d_4">
      <g>
       <use style="stroke:#000000;stroke-width:0.8;" x="227.110221" xlink:href="#m055daa2429" y="348.478125"/>
      </g>
     </g>
     <g id="text_4">
      <!-- Drama -->
      <defs>
       <path d="M 19.671875 64.796875 
L 19.671875 8.109375 
L 31.59375 8.109375 
Q 46.6875 8.109375 53.6875 14.9375 
Q 60.6875 21.78125 60.6875 36.53125 
Q 60.6875 51.171875 53.6875 57.984375 
Q 46.6875 64.796875 31.59375 64.796875 
z
M 9.8125 72.90625 
L 30.078125 72.90625 
Q 51.265625 72.90625 61.171875 64.09375 
Q 71.09375 55.28125 71.09375 36.53125 
Q 71.09375 17.671875 61.125 8.828125 
Q 51.171875 0 30.078125 0 
L 9.8125 0 
z
" id="DejaVuSans-68"/>
       <path d="M 34.28125 27.484375 
Q 23.390625 27.484375 19.1875 25 
Q 14.984375 22.515625 14.984375 16.5 
Q 14.984375 11.71875 18.140625 8.90625 
Q 21.296875 6.109375 26.703125 6.109375 
Q 34.1875 6.109375 38.703125 11.40625 
Q 43.21875 16.703125 43.21875 25.484375 
L 43.21875 27.484375 
z
M 52.203125 31.203125 
L 52.203125 0 
L 43.21875 0 
L 43.21875 8.296875 
Q 40.140625 3.328125 35.546875 0.953125 
Q 30.953125 -1.421875 24.3125 -1.421875 
Q 15.921875 -1.421875 10.953125 3.296875 
Q 6 8.015625 6 15.921875 
Q 6 25.140625 12.171875 29.828125 
Q 18.359375 34.515625 30.609375 34.515625 
L 43.21875 34.515625 
L 43.21875 35.40625 
Q 43.21875 41.609375 39.140625 45 
Q 35.0625 48.390625 27.6875 48.390625 
Q 23 48.390625 18.546875 47.265625 
Q 14.109375 46.140625 10.015625 43.890625 
L 10.015625 52.203125 
Q 14.9375 54.109375 19.578125 55.046875 
Q 24.21875 56 28.609375 56 
Q 40.484375 56 46.34375 49.84375 
Q 52.203125 43.703125 52.203125 31.203125 
z
" id="DejaVuSans-97"/>
       <path d="M 52 44.1875 
Q 55.375 50.25 60.0625 53.125 
Q 64.75 56 71.09375 56 
Q 79.640625 56 84.28125 50.015625 
Q 88.921875 44.046875 88.921875 33.015625 
L 88.921875 0 
L 79.890625 0 
L 79.890625 32.71875 
Q 79.890625 40.578125 77.09375 44.375 
Q 74.3125 48.1875 68.609375 48.1875 
Q 61.625 48.1875 57.5625 43.546875 
Q 53.515625 38.921875 53.515625 30.90625 
L 53.515625 0 
L 44.484375 0 
L 44.484375 32.71875 
Q 44.484375 40.625 41.703125 44.40625 
Q 38.921875 48.1875 33.109375 48.1875 
Q 26.21875 48.1875 22.15625 43.53125 
Q 18.109375 38.875 18.109375 30.90625 
L 18.109375 0 
L 9.078125 0 
L 9.078125 54.6875 
L 18.109375 54.6875 
L 18.109375 46.1875 
Q 21.1875 51.21875 25.484375 53.609375 
Q 29.78125 56 35.6875 56 
Q 41.65625 56 45.828125 52.96875 
Q 50 49.953125 52 44.1875 
z
" id="DejaVuSans-109"/>
      </defs>
      <g transform="translate(210.206315 363.076563)scale(0.1 -0.1)">
       <use xlink:href="#DejaVuSans-68"/>
       <use x="77.001953" xlink:href="#DejaVuSans-114"/>
       <use x="118.115234" xlink:href="#DejaVuSans-97"/>
       <use x="179.394531" xlink:href="#DejaVuSans-109"/>
       <use x="276.806641" xlink:href="#DejaVuSans-97"/>
      </g>
     </g>
    </g>
    <g id="xtick_5">
     <g id="line2d_5">
      <g>
       <use style="stroke:#000000;stroke-width:0.8;" x="278.14125" xlink:href="#m055daa2429" y="348.478125"/>
      </g>
     </g>
     <g id="text_5">
      <!-- Sci-Fi -->
      <defs>
       <path d="M 53.515625 70.515625 
L 53.515625 60.890625 
Q 47.90625 63.578125 42.921875 64.890625 
Q 37.9375 66.21875 33.296875 66.21875 
Q 25.25 66.21875 20.875 63.09375 
Q 16.5 59.96875 16.5 54.203125 
Q 16.5 49.359375 19.40625 46.890625 
Q 22.3125 44.4375 30.421875 42.921875 
L 36.375 41.703125 
Q 47.40625 39.59375 52.65625 34.296875 
Q 57.90625 29 57.90625 20.125 
Q 57.90625 9.515625 50.796875 4.046875 
Q 43.703125 -1.421875 29.984375 -1.421875 
Q 24.8125 -1.421875 18.96875 -0.25 
Q 13.140625 0.921875 6.890625 3.21875 
L 6.890625 13.375 
Q 12.890625 10.015625 18.65625 8.296875 
Q 24.421875 6.59375 29.984375 6.59375 
Q 38.421875 6.59375 43.015625 9.90625 
Q 47.609375 13.234375 47.609375 19.390625 
Q 47.609375 24.75 44.3125 27.78125 
Q 41.015625 30.8125 33.5 32.328125 
L 27.484375 33.5 
Q 16.453125 35.6875 11.515625 40.375 
Q 6.59375 45.0625 6.59375 53.421875 
Q 6.59375 63.09375 13.40625 68.65625 
Q 20.21875 74.21875 32.171875 74.21875 
Q 37.3125 74.21875 42.625 73.28125 
Q 47.953125 72.359375 53.515625 70.515625 
z
" id="DejaVuSans-83"/>
       <path d="M 48.78125 52.59375 
L 48.78125 44.1875 
Q 44.96875 46.296875 41.140625 47.34375 
Q 37.3125 48.390625 33.40625 48.390625 
Q 24.65625 48.390625 19.8125 42.84375 
Q 14.984375 37.3125 14.984375 27.296875 
Q 14.984375 17.28125 19.8125 11.734375 
Q 24.65625 6.203125 33.40625 6.203125 
Q 37.3125 6.203125 41.140625 7.25 
Q 44.96875 8.296875 48.78125 10.40625 
L 48.78125 2.09375 
Q 45.015625 0.34375 40.984375 -0.53125 
Q 36.96875 -1.421875 32.421875 -1.421875 
Q 20.0625 -1.421875 12.78125 6.34375 
Q 5.515625 14.109375 5.515625 27.296875 
Q 5.515625 40.671875 12.859375 48.328125 
Q 20.21875 56 33.015625 56 
Q 37.15625 56 41.109375 55.140625 
Q 45.0625 54.296875 48.78125 52.59375 
z
" id="DejaVuSans-99"/>
       <path d="M 4.890625 31.390625 
L 31.203125 31.390625 
L 31.203125 23.390625 
L 4.890625 23.390625 
z
" id="DejaVuSans-45"/>
       <path d="M 9.8125 72.90625 
L 51.703125 72.90625 
L 51.703125 64.59375 
L 19.671875 64.59375 
L 19.671875 43.109375 
L 48.578125 43.109375 
L 48.578125 34.8125 
L 19.671875 34.8125 
L 19.671875 0 
L 9.8125 0 
z
" id="DejaVuSans-70"/>
      </defs>
      <g transform="translate(265.1225 363.076563)scale(0.1 -0.1)">
       <use xlink:href="#DejaVuSans-83"/>
       <use x="63.476562" xlink:href="#DejaVuSans-99"/>
       <use x="118.457031" xlink:href="#DejaVuSans-105"/>
       <use x="146.240234" xlink:href="#DejaVuSans-45"/>
       <use x="182.324219" xlink:href="#DejaVuSans-70"/>
       <use x="232.59375" xlink:href="#DejaVuSans-105"/>
      </g>
     </g>
    </g>
    <g id="xtick_6">
     <g id="line2d_6">
      <g>
       <use style="stroke:#000000;stroke-width:0.8;" x="329.172279" xlink:href="#m055daa2429" y="348.478125"/>
      </g>
     </g>
     <g id="text_6">
      <!-- Comedy -->
      <defs>
       <path d="M 64.40625 67.28125 
L 64.40625 56.890625 
Q 59.421875 61.53125 53.78125 63.8125 
Q 48.140625 66.109375 41.796875 66.109375 
Q 29.296875 66.109375 22.65625 58.46875 
Q 16.015625 50.828125 16.015625 36.375 
Q 16.015625 21.96875 22.65625 14.328125 
Q 29.296875 6.6875 41.796875 6.6875 
Q 48.140625 6.6875 53.78125 8.984375 
Q 59.421875 11.28125 64.40625 15.921875 
L 64.40625 5.609375 
Q 59.234375 2.09375 53.4375 0.328125 
Q 47.65625 -1.421875 41.21875 -1.421875 
Q 24.65625 -1.421875 15.125 8.703125 
Q 5.609375 18.84375 5.609375 36.375 
Q 5.609375 53.953125 15.125 64.078125 
Q 24.65625 74.21875 41.21875 74.21875 
Q 47.75 74.21875 53.53125 72.484375 
Q 59.328125 70.75 64.40625 67.28125 
z
" id="DejaVuSans-67"/>
       <path d="M 45.40625 46.390625 
L 45.40625 75.984375 
L 54.390625 75.984375 
L 54.390625 0 
L 45.40625 0 
L 45.40625 8.203125 
Q 42.578125 3.328125 38.25 0.953125 
Q 33.9375 -1.421875 27.875 -1.421875 
Q 17.96875 -1.421875 11.734375 6.484375 
Q 5.515625 14.40625 5.515625 27.296875 
Q 5.515625 40.1875 11.734375 48.09375 
Q 17.96875 56 27.875 56 
Q 33.9375 56 38.25 53.625 
Q 42.578125 51.265625 45.40625 46.390625 
z
M 14.796875 27.296875 
Q 14.796875 17.390625 18.875 11.75 
Q 22.953125 6.109375 30.078125 6.109375 
Q 37.203125 6.109375 41.296875 11.75 
Q 45.40625 17.390625 45.40625 27.296875 
Q 45.40625 37.203125 41.296875 42.84375 
Q 37.203125 48.484375 30.078125 48.484375 
Q 22.953125 48.484375 18.875 42.84375 
Q 14.796875 37.203125 14.796875 27.296875 
z
" id="DejaVuSans-100"/>
      </defs>
      <g transform="translate(308.541029 363.076563)scale(0.1 -0.1)">
       <use xlink:href="#DejaVuSans-67"/>
       <use x="69.824219" xlink:href="#DejaVuSans-111"/>
       <use x="131.005859" xlink:href="#DejaVuSans-109"/>
       <use x="228.417969" xlink:href="#DejaVuSans-101"/>
       <use x="289.941406" xlink:href="#DejaVuSans-100"/>
       <use x="353.417969" xlink:href="#DejaVuSans-121"/>
      </g>
     </g>
    </g>
    <g id="xtick_7">
     <g id="line2d_7">
      <g>
       <use style="stroke:#000000;stroke-width:0.8;" x="380.203308" xlink:href="#m055daa2429" y="348.478125"/>
      </g>
     </g>
     <g id="text_7">
      <!-- Fantasy -->
      <defs>
       <path d="M 54.890625 33.015625 
L 54.890625 0 
L 45.90625 0 
L 45.90625 32.71875 
Q 45.90625 40.484375 42.875 44.328125 
Q 39.84375 48.1875 33.796875 48.1875 
Q 26.515625 48.1875 22.3125 43.546875 
Q 18.109375 38.921875 18.109375 30.90625 
L 18.109375 0 
L 9.078125 0 
L 9.078125 54.6875 
L 18.109375 54.6875 
L 18.109375 46.1875 
Q 21.34375 51.125 25.703125 53.5625 
Q 30.078125 56 35.796875 56 
Q 45.21875 56 50.046875 50.171875 
Q 54.890625 44.34375 54.890625 33.015625 
z
" id="DejaVuSans-110"/>
      </defs>
      <g transform="translate(360.962683 363.076563)scale(0.1 -0.1)">
       <use xlink:href="#DejaVuSans-70"/>
       <use x="48.394531" xlink:href="#DejaVuSans-97"/>
       <use x="109.673828" xlink:href="#DejaVuSans-110"/>
       <use x="173.052734" xlink:href="#DejaVuSans-116"/>
       <use x="212.261719" xlink:href="#DejaVuSans-97"/>
       <use x="273.541016" xlink:href="#DejaVuSans-115"/>
       <use x="325.640625" xlink:href="#DejaVuSans-121"/>
      </g>
     </g>
    </g>
    <g id="xtick_8">
     <g id="line2d_8">
      <g>
       <use style="stroke:#000000;stroke-width:0.8;" x="431.234337" xlink:href="#m055daa2429" y="348.478125"/>
      </g>
     </g>
     <g id="text_8">
      <!-- Action -->
      <defs>
       <path d="M 34.1875 63.1875 
L 20.796875 26.90625 
L 47.609375 26.90625 
z
M 28.609375 72.90625 
L 39.796875 72.90625 
L 67.578125 0 
L 57.328125 0 
L 50.6875 18.703125 
L 17.828125 18.703125 
L 11.1875 0 
L 0.78125 0 
z
" id="DejaVuSans-65"/>
      </defs>
      <g transform="translate(415.574962 363.076563)scale(0.1 -0.1)">
       <use xlink:href="#DejaVuSans-65"/>
       <use x="66.658203" xlink:href="#DejaVuSans-99"/>
       <use x="121.638672" xlink:href="#DejaVuSans-116"/>
       <use x="160.847656" xlink:href="#DejaVuSans-105"/>
       <use x="188.630859" xlink:href="#DejaVuSans-111"/>
       <use x="249.8125" xlink:href="#DejaVuSans-110"/>
      </g>
     </g>
    </g>
    <g id="xtick_9">
     <g id="line2d_9">
      <g>
       <use style="stroke:#000000;stroke-width:0.8;" x="482.265365" xlink:href="#m055daa2429" y="348.478125"/>
      </g>
     </g>
     <g id="text_9">
      <!-- Crime -->
      <g transform="translate(467.382553 363.076563)scale(0.1 -0.1)">
       <use xlink:href="#DejaVuSans-67"/>
       <use x="69.824219" xlink:href="#DejaVuSans-114"/>
       <use x="110.9375" xlink:href="#DejaVuSans-105"/>
       <use x="138.720703" xlink:href="#DejaVuSans-109"/>
       <use x="236.132812" xlink:href="#DejaVuSans-101"/>
      </g>
     </g>
    </g>
   </g>
   <g id="matplotlib.axis_2">
    <g id="ytick_1">
     <g id="line2d_10">
      <defs>
       <path d="M 0 0 
L -3.5 0 
" id="m98b5bfe872" style="stroke:#000000;stroke-width:0.8;"/>
      </defs>
      <g>
       <use style="stroke:#000000;stroke-width:0.8;" x="43.78125" xlink:href="#m98b5bfe872" y="348.478125"/>
      </g>
     </g>
     <g id="text_10">
      <!-- 0.0 -->
      <defs>
       <path d="M 31.78125 66.40625 
Q 24.171875 66.40625 20.328125 58.90625 
Q 16.5 51.421875 16.5 36.375 
Q 16.5 21.390625 20.328125 13.890625 
Q 24.171875 6.390625 31.78125 6.390625 
Q 39.453125 6.390625 43.28125 13.890625 
Q 47.125 21.390625 47.125 36.375 
Q 47.125 51.421875 43.28125 58.90625 
Q 39.453125 66.40625 31.78125 66.40625 
z
M 31.78125 74.21875 
Q 44.046875 74.21875 50.515625 64.515625 
Q 56.984375 54.828125 56.984375 36.375 
Q 56.984375 17.96875 50.515625 8.265625 
Q 44.046875 -1.421875 31.78125 -1.421875 
Q 19.53125 -1.421875 13.0625 8.265625 
Q 6.59375 17.96875 6.59375 36.375 
Q 6.59375 54.828125 13.0625 64.515625 
Q 19.53125 74.21875 31.78125 74.21875 
z
" id="DejaVuSans-48"/>
       <path d="M 10.6875 12.40625 
L 21 12.40625 
L 21 0 
L 10.6875 0 
z
" id="DejaVuSans-46"/>
      </defs>
      <g transform="translate(20.878125 352.277344)scale(0.1 -0.1)">
       <use xlink:href="#DejaVuSans-48"/>
       <use x="63.623047" xlink:href="#DejaVuSans-46"/>
       <use x="95.410156" xlink:href="#DejaVuSans-48"/>
      </g>
     </g>
    </g>
    <g id="ytick_2">
     <g id="line2d_11">
      <g>
       <use style="stroke:#000000;stroke-width:0.8;" x="43.78125" xlink:href="#m98b5bfe872" y="283.246125"/>
      </g>
     </g>
     <g id="text_11">
      <!-- 0.2 -->
      <defs>
       <path d="M 19.1875 8.296875 
L 53.609375 8.296875 
L 53.609375 0 
L 7.328125 0 
L 7.328125 8.296875 
Q 12.9375 14.109375 22.625 23.890625 
Q 32.328125 33.6875 34.8125 36.53125 
Q 39.546875 41.84375 41.421875 45.53125 
Q 43.3125 49.21875 43.3125 52.78125 
Q 43.3125 58.59375 39.234375 62.25 
Q 35.15625 65.921875 28.609375 65.921875 
Q 23.96875 65.921875 18.8125 64.3125 
Q 13.671875 62.703125 7.8125 59.421875 
L 7.8125 69.390625 
Q 13.765625 71.78125 18.9375 73 
Q 24.125 74.21875 28.421875 74.21875 
Q 39.75 74.21875 46.484375 68.546875 
Q 53.21875 62.890625 53.21875 53.421875 
Q 53.21875 48.921875 51.53125 44.890625 
Q 49.859375 40.875 45.40625 35.40625 
Q 44.1875 33.984375 37.640625 27.21875 
Q 31.109375 20.453125 19.1875 8.296875 
z
" id="DejaVuSans-50"/>
      </defs>
      <g transform="translate(20.878125 287.045344)scale(0.1 -0.1)">
       <use xlink:href="#DejaVuSans-48"/>
       <use x="63.623047" xlink:href="#DejaVuSans-46"/>
       <use x="95.410156" xlink:href="#DejaVuSans-50"/>
      </g>
     </g>
    </g>
    <g id="ytick_3">
     <g id="line2d_12">
      <g>
       <use style="stroke:#000000;stroke-width:0.8;" x="43.78125" xlink:href="#m98b5bfe872" y="218.014125"/>
      </g>
     </g>
     <g id="text_12">
      <!-- 0.4 -->
      <defs>
       <path d="M 37.796875 64.3125 
L 12.890625 25.390625 
L 37.796875 25.390625 
z
M 35.203125 72.90625 
L 47.609375 72.90625 
L 47.609375 25.390625 
L 58.015625 25.390625 
L 58.015625 17.1875 
L 47.609375 17.1875 
L 47.609375 0 
L 37.796875 0 
L 37.796875 17.1875 
L 4.890625 17.1875 
L 4.890625 26.703125 
z
" id="DejaVuSans-52"/>
      </defs>
      <g transform="translate(20.878125 221.813344)scale(0.1 -0.1)">
       <use xlink:href="#DejaVuSans-48"/>
       <use x="63.623047" xlink:href="#DejaVuSans-46"/>
       <use x="95.410156" xlink:href="#DejaVuSans-52"/>
      </g>
     </g>
    </g>
    <g id="ytick_4">
     <g id="line2d_13">
      <g>
       <use style="stroke:#000000;stroke-width:0.8;" x="43.78125" xlink:href="#m98b5bfe872" y="152.782125"/>
      </g>
     </g>
     <g id="text_13">
      <!-- 0.6 -->
      <defs>
       <path d="M 33.015625 40.375 
Q 26.375 40.375 22.484375 35.828125 
Q 18.609375 31.296875 18.609375 23.390625 
Q 18.609375 15.53125 22.484375 10.953125 
Q 26.375 6.390625 33.015625 6.390625 
Q 39.65625 6.390625 43.53125 10.953125 
Q 47.40625 15.53125 47.40625 23.390625 
Q 47.40625 31.296875 43.53125 35.828125 
Q 39.65625 40.375 33.015625 40.375 
z
M 52.59375 71.296875 
L 52.59375 62.3125 
Q 48.875 64.0625 45.09375 64.984375 
Q 41.3125 65.921875 37.59375 65.921875 
Q 27.828125 65.921875 22.671875 59.328125 
Q 17.53125 52.734375 16.796875 39.40625 
Q 19.671875 43.65625 24.015625 45.921875 
Q 28.375 48.1875 33.59375 48.1875 
Q 44.578125 48.1875 50.953125 41.515625 
Q 57.328125 34.859375 57.328125 23.390625 
Q 57.328125 12.15625 50.6875 5.359375 
Q 44.046875 -1.421875 33.015625 -1.421875 
Q 20.359375 -1.421875 13.671875 8.265625 
Q 6.984375 17.96875 6.984375 36.375 
Q 6.984375 53.65625 15.1875 63.9375 
Q 23.390625 74.21875 37.203125 74.21875 
Q 40.921875 74.21875 44.703125 73.484375 
Q 48.484375 72.75 52.59375 71.296875 
z
" id="DejaVuSans-54"/>
      </defs>
      <g transform="translate(20.878125 156.581344)scale(0.1 -0.1)">
       <use xlink:href="#DejaVuSans-48"/>
       <use x="63.623047" xlink:href="#DejaVuSans-46"/>
       <use x="95.410156" xlink:href="#DejaVuSans-54"/>
      </g>
     </g>
    </g>
    <g id="ytick_5">
     <g id="line2d_14">
      <g>
       <use style="stroke:#000000;stroke-width:0.8;" x="43.78125" xlink:href="#m98b5bfe872" y="87.550125"/>
      </g>
     </g>
     <g id="text_14">
      <!-- 0.8 -->
      <defs>
       <path d="M 31.78125 34.625 
Q 24.75 34.625 20.71875 30.859375 
Q 16.703125 27.09375 16.703125 20.515625 
Q 16.703125 13.921875 20.71875 10.15625 
Q 24.75 6.390625 31.78125 6.390625 
Q 38.8125 6.390625 42.859375 10.171875 
Q 46.921875 13.96875 46.921875 20.515625 
Q 46.921875 27.09375 42.890625 30.859375 
Q 38.875 34.625 31.78125 34.625 
z
M 21.921875 38.8125 
Q 15.578125 40.375 12.03125 44.71875 
Q 8.5 49.078125 8.5 55.328125 
Q 8.5 64.0625 14.71875 69.140625 
Q 20.953125 74.21875 31.78125 74.21875 
Q 42.671875 74.21875 48.875 69.140625 
Q 55.078125 64.0625 55.078125 55.328125 
Q 55.078125 49.078125 51.53125 44.71875 
Q 48 40.375 41.703125 38.8125 
Q 48.828125 37.15625 52.796875 32.3125 
Q 56.78125 27.484375 56.78125 20.515625 
Q 56.78125 9.90625 50.3125 4.234375 
Q 43.84375 -1.421875 31.78125 -1.421875 
Q 19.734375 -1.421875 13.25 4.234375 
Q 6.78125 9.90625 6.78125 20.515625 
Q 6.78125 27.484375 10.78125 32.3125 
Q 14.796875 37.15625 21.921875 38.8125 
z
M 18.3125 54.390625 
Q 18.3125 48.734375 21.84375 45.5625 
Q 25.390625 42.390625 31.78125 42.390625 
Q 38.140625 42.390625 41.71875 45.5625 
Q 45.3125 48.734375 45.3125 54.390625 
Q 45.3125 60.0625 41.71875 63.234375 
Q 38.140625 66.40625 31.78125 66.40625 
Q 25.390625 66.40625 21.84375 63.234375 
Q 18.3125 60.0625 18.3125 54.390625 
z
" id="DejaVuSans-56"/>
      </defs>
      <g transform="translate(20.878125 91.349344)scale(0.1 -0.1)">
       <use xlink:href="#DejaVuSans-48"/>
       <use x="63.623047" xlink:href="#DejaVuSans-46"/>
       <use x="95.410156" xlink:href="#DejaVuSans-56"/>
      </g>
     </g>
    </g>
    <g id="ytick_6">
     <g id="line2d_15">
      <g>
       <use style="stroke:#000000;stroke-width:0.8;" x="43.78125" xlink:href="#m98b5bfe872" y="22.318125"/>
      </g>
     </g>
     <g id="text_15">
      <!-- 1.0 -->
      <defs>
       <path d="M 12.40625 8.296875 
L 28.515625 8.296875 
L 28.515625 63.921875 
L 10.984375 60.40625 
L 10.984375 69.390625 
L 28.421875 72.90625 
L 38.28125 72.90625 
L 38.28125 8.296875 
L 54.390625 8.296875 
L 54.390625 0 
L 12.40625 0 
z
" id="DejaVuSans-49"/>
      </defs>
      <g transform="translate(20.878125 26.117344)scale(0.1 -0.1)">
       <use xlink:href="#DejaVuSans-49"/>
       <use x="63.623047" xlink:href="#DejaVuSans-46"/>
       <use x="95.410156" xlink:href="#DejaVuSans-48"/>
      </g>
     </g>
    </g>
    <g id="text_16">
     <!-- Proportion -->
     <defs>
      <path d="M 18.109375 8.203125 
L 18.109375 -20.796875 
L 9.078125 -20.796875 
L 9.078125 54.6875 
L 18.109375 54.6875 
L 18.109375 46.390625 
Q 20.953125 51.265625 25.265625 53.625 
Q 29.59375 56 35.59375 56 
Q 45.5625 56 51.78125 48.09375 
Q 58.015625 40.1875 58.015625 27.296875 
Q 58.015625 14.40625 51.78125 6.484375 
Q 45.5625 -1.421875 35.59375 -1.421875 
Q 29.59375 -1.421875 25.265625 0.953125 
Q 20.953125 3.328125 18.109375 8.203125 
z
M 48.6875 27.296875 
Q 48.6875 37.203125 44.609375 42.84375 
Q 40.53125 48.484375 33.40625 48.484375 
Q 26.265625 48.484375 22.1875 42.84375 
Q 18.109375 37.203125 18.109375 27.296875 
Q 18.109375 17.390625 22.1875 11.75 
Q 26.265625 6.109375 33.40625 6.109375 
Q 40.53125 6.109375 44.609375 11.75 
Q 48.6875 17.390625 48.6875 27.296875 
z
" id="DejaVuSans-112"/>
     </defs>
     <g transform="translate(14.798438 211.194219)rotate(-90)scale(0.1 -0.1)">
      <use xlink:href="#DejaVuSans-80"/>
      <use x="58.552734" xlink:href="#DejaVuSans-114"/>
      <use x="97.416016" xlink:href="#DejaVuSans-111"/>
      <use x="158.597656" xlink:href="#DejaVuSans-112"/>
      <use x="222.074219" xlink:href="#DejaVuSans-111"/>
      <use x="283.255859" xlink:href="#DejaVuSans-114"/>
      <use x="324.369141" xlink:href="#DejaVuSans-116"/>
      <use x="363.578125" xlink:href="#DejaVuSans-105"/>
      <use x="391.361328" xlink:href="#DejaVuSans-111"/>
      <use x="452.542969" xlink:href="#DejaVuSans-110"/>
     </g>
    </g>
   </g>
   <g id="patch_57">
    <path d="M 43.78125 348.478125 
L 43.78125 22.318125 
" style="fill:none;stroke:#000000;stroke-linecap:square;stroke-linejoin:miter;stroke-width:0.8;"/>
   </g>
   <g id="patch_58">
    <path d="M 43.78125 348.478125 
L 512.50125 348.478125 
" style="fill:none;stroke:#000000;stroke-linecap:square;stroke-linejoin:miter;stroke-width:0.8;"/>
   </g>
   <g id="text_17">
    <!-- Proportion of Horror Movies gaining or losing money by Genre Pairing -->
    <defs>
     <path d="M 37.109375 75.984375 
L 37.109375 68.5 
L 28.515625 68.5 
Q 23.6875 68.5 21.796875 66.546875 
Q 19.921875 64.59375 19.921875 59.515625 
L 19.921875 54.6875 
L 34.71875 54.6875 
L 34.71875 47.703125 
L 19.921875 47.703125 
L 19.921875 0 
L 10.890625 0 
L 10.890625 47.703125 
L 2.296875 47.703125 
L 2.296875 54.6875 
L 10.890625 54.6875 
L 10.890625 58.5 
Q 10.890625 67.625 15.140625 71.796875 
Q 19.390625 75.984375 28.609375 75.984375 
z
" id="DejaVuSans-102"/>
     <path d="M 2.984375 54.6875 
L 12.5 54.6875 
L 29.59375 8.796875 
L 46.6875 54.6875 
L 56.203125 54.6875 
L 35.6875 0 
L 23.484375 0 
z
" id="DejaVuSans-118"/>
     <path d="M 45.40625 27.984375 
Q 45.40625 37.75 41.375 43.109375 
Q 37.359375 48.484375 30.078125 48.484375 
Q 22.859375 48.484375 18.828125 43.109375 
Q 14.796875 37.75 14.796875 27.984375 
Q 14.796875 18.265625 18.828125 12.890625 
Q 22.859375 7.515625 30.078125 7.515625 
Q 37.359375 7.515625 41.375 12.890625 
Q 45.40625 18.265625 45.40625 27.984375 
z
M 54.390625 6.78125 
Q 54.390625 -7.171875 48.1875 -13.984375 
Q 42 -20.796875 29.203125 -20.796875 
Q 24.46875 -20.796875 20.265625 -20.09375 
Q 16.0625 -19.390625 12.109375 -17.921875 
L 12.109375 -9.1875 
Q 16.0625 -11.328125 19.921875 -12.34375 
Q 23.78125 -13.375 27.78125 -13.375 
Q 36.625 -13.375 41.015625 -8.765625 
Q 45.40625 -4.15625 45.40625 5.171875 
L 45.40625 9.625 
Q 42.625 4.78125 38.28125 2.390625 
Q 33.9375 0 27.875 0 
Q 17.828125 0 11.671875 7.65625 
Q 5.515625 15.328125 5.515625 27.984375 
Q 5.515625 40.671875 11.671875 48.328125 
Q 17.828125 56 27.875 56 
Q 33.9375 56 38.28125 53.609375 
Q 42.625 51.21875 45.40625 46.390625 
L 45.40625 54.6875 
L 54.390625 54.6875 
z
" id="DejaVuSans-103"/>
     <path d="M 48.6875 27.296875 
Q 48.6875 37.203125 44.609375 42.84375 
Q 40.53125 48.484375 33.40625 48.484375 
Q 26.265625 48.484375 22.1875 42.84375 
Q 18.109375 37.203125 18.109375 27.296875 
Q 18.109375 17.390625 22.1875 11.75 
Q 26.265625 6.109375 33.40625 6.109375 
Q 40.53125 6.109375 44.609375 11.75 
Q 48.6875 17.390625 48.6875 27.296875 
z
M 18.109375 46.390625 
Q 20.953125 51.265625 25.265625 53.625 
Q 29.59375 56 35.59375 56 
Q 45.5625 56 51.78125 48.09375 
Q 58.015625 40.1875 58.015625 27.296875 
Q 58.015625 14.40625 51.78125 6.484375 
Q 45.5625 -1.421875 35.59375 -1.421875 
Q 29.59375 -1.421875 25.265625 0.953125 
Q 20.953125 3.328125 18.109375 8.203125 
L 18.109375 0 
L 9.078125 0 
L 9.078125 75.984375 
L 18.109375 75.984375 
z
" id="DejaVuSans-98"/>
     <path d="M 59.515625 10.40625 
L 59.515625 29.984375 
L 43.40625 29.984375 
L 43.40625 38.09375 
L 69.28125 38.09375 
L 69.28125 6.78125 
Q 63.578125 2.734375 56.6875 0.65625 
Q 49.8125 -1.421875 42 -1.421875 
Q 24.90625 -1.421875 15.25 8.5625 
Q 5.609375 18.5625 5.609375 36.375 
Q 5.609375 54.25 15.25 64.234375 
Q 24.90625 74.21875 42 74.21875 
Q 49.125 74.21875 55.546875 72.453125 
Q 61.96875 70.703125 67.390625 67.28125 
L 67.390625 56.78125 
Q 61.921875 61.421875 55.765625 63.765625 
Q 49.609375 66.109375 42.828125 66.109375 
Q 29.4375 66.109375 22.71875 58.640625 
Q 16.015625 51.171875 16.015625 36.375 
Q 16.015625 21.625 22.71875 14.15625 
Q 29.4375 6.6875 42.828125 6.6875 
Q 48.046875 6.6875 52.140625 7.59375 
Q 56.25 8.5 59.515625 10.40625 
z
" id="DejaVuSans-71"/>
    </defs>
    <g transform="translate(69.796875 16.318125)scale(0.12 -0.12)">
     <use xlink:href="#DejaVuSans-80"/>
     <use x="58.552734" xlink:href="#DejaVuSans-114"/>
     <use x="97.416016" xlink:href="#DejaVuSans-111"/>
     <use x="158.597656" xlink:href="#DejaVuSans-112"/>
     <use x="222.074219" xlink:href="#DejaVuSans-111"/>
     <use x="283.255859" xlink:href="#DejaVuSans-114"/>
     <use x="324.369141" xlink:href="#DejaVuSans-116"/>
     <use x="363.578125" xlink:href="#DejaVuSans-105"/>
     <use x="391.361328" xlink:href="#DejaVuSans-111"/>
     <use x="452.542969" xlink:href="#DejaVuSans-110"/>
     <use x="515.921875" xlink:href="#DejaVuSans-32"/>
     <use x="547.708984" xlink:href="#DejaVuSans-111"/>
     <use x="608.890625" xlink:href="#DejaVuSans-102"/>
     <use x="644.095703" xlink:href="#DejaVuSans-32"/>
     <use x="675.882812" xlink:href="#DejaVuSans-72"/>
     <use x="751.078125" xlink:href="#DejaVuSans-111"/>
     <use x="812.259766" xlink:href="#DejaVuSans-114"/>
     <use x="851.623047" xlink:href="#DejaVuSans-114"/>
     <use x="890.486328" xlink:href="#DejaVuSans-111"/>
     <use x="951.667969" xlink:href="#DejaVuSans-114"/>
     <use x="992.78125" xlink:href="#DejaVuSans-32"/>
     <use x="1024.568359" xlink:href="#DejaVuSans-77"/>
     <use x="1110.847656" xlink:href="#DejaVuSans-111"/>
     <use x="1172.029297" xlink:href="#DejaVuSans-118"/>
     <use x="1231.208984" xlink:href="#DejaVuSans-105"/>
     <use x="1258.992188" xlink:href="#DejaVuSans-101"/>
     <use x="1320.515625" xlink:href="#DejaVuSans-115"/>
     <use x="1372.615234" xlink:href="#DejaVuSans-32"/>
     <use x="1404.402344" xlink:href="#DejaVuSans-103"/>
     <use x="1467.878906" xlink:href="#DejaVuSans-97"/>
     <use x="1529.158203" xlink:href="#DejaVuSans-105"/>
     <use x="1556.941406" xlink:href="#DejaVuSans-110"/>
     <use x="1620.320312" xlink:href="#DejaVuSans-105"/>
     <use x="1648.103516" xlink:href="#DejaVuSans-110"/>
     <use x="1711.482422" xlink:href="#DejaVuSans-103"/>
     <use x="1774.958984" xlink:href="#DejaVuSans-32"/>
     <use x="1806.746094" xlink:href="#DejaVuSans-111"/>
     <use x="1867.927734" xlink:href="#DejaVuSans-114"/>
     <use x="1909.041016" xlink:href="#DejaVuSans-32"/>
     <use x="1940.828125" xlink:href="#DejaVuSans-108"/>
     <use x="1968.611328" xlink:href="#DejaVuSans-111"/>
     <use x="2029.792969" xlink:href="#DejaVuSans-115"/>
     <use x="2081.892578" xlink:href="#DejaVuSans-105"/>
     <use x="2109.675781" xlink:href="#DejaVuSans-110"/>
     <use x="2173.054688" xlink:href="#DejaVuSans-103"/>
     <use x="2236.53125" xlink:href="#DejaVuSans-32"/>
     <use x="2268.318359" xlink:href="#DejaVuSans-109"/>
     <use x="2365.730469" xlink:href="#DejaVuSans-111"/>
     <use x="2426.912109" xlink:href="#DejaVuSans-110"/>
     <use x="2490.291016" xlink:href="#DejaVuSans-101"/>
     <use x="2551.814453" xlink:href="#DejaVuSans-121"/>
     <use x="2610.994141" xlink:href="#DejaVuSans-32"/>
     <use x="2642.78125" xlink:href="#DejaVuSans-98"/>
     <use x="2706.257812" xlink:href="#DejaVuSans-121"/>
     <use x="2765.4375" xlink:href="#DejaVuSans-32"/>
     <use x="2797.224609" xlink:href="#DejaVuSans-71"/>
     <use x="2874.714844" xlink:href="#DejaVuSans-101"/>
     <use x="2936.238281" xlink:href="#DejaVuSans-110"/>
     <use x="2999.617188" xlink:href="#DejaVuSans-114"/>
     <use x="3038.480469" xlink:href="#DejaVuSans-101"/>
     <use x="3100.003906" xlink:href="#DejaVuSans-32"/>
     <use x="3131.791016" xlink:href="#DejaVuSans-80"/>
     <use x="3187.59375" xlink:href="#DejaVuSans-97"/>
     <use x="3248.873047" xlink:href="#DejaVuSans-105"/>
     <use x="3276.65625" xlink:href="#DejaVuSans-114"/>
     <use x="3317.769531" xlink:href="#DejaVuSans-105"/>
     <use x="3345.552734" xlink:href="#DejaVuSans-110"/>
     <use x="3408.931641" xlink:href="#DejaVuSans-103"/>
    </g>
   </g>
   <g id="legend_1">
    <g id="patch_59">
     <path d="M 519.50125 116.7765 
L 741.768438 116.7765 
Q 743.768438 116.7765 743.768438 114.7765 
L 743.768438 27.70775 
Q 743.768438 25.70775 741.768438 25.70775 
L 519.50125 25.70775 
Q 517.50125 25.70775 517.50125 27.70775 
L 517.50125 114.7765 
Q 517.50125 116.7765 519.50125 116.7765 
z
" style="fill:#ffffff;opacity:0.8;stroke:#cccccc;stroke-linejoin:miter;"/>
    </g>
    <g id="patch_60">
     <path d="M 521.50125 37.306188 
L 541.50125 37.306188 
L 541.50125 30.306188 
L 521.50125 30.306188 
z
" style="fill:#ff0000;"/>
    </g>
    <g id="text_18">
     <!-- Lost 100% to 60% of budget -->
     <defs>
      <path d="M 9.8125 72.90625 
L 19.671875 72.90625 
L 19.671875 8.296875 
L 55.171875 8.296875 
L 55.171875 0 
L 9.8125 0 
z
" id="DejaVuSans-76"/>
      <path d="M 72.703125 32.078125 
Q 68.453125 32.078125 66.03125 28.46875 
Q 63.625 24.859375 63.625 18.40625 
Q 63.625 12.0625 66.03125 8.421875 
Q 68.453125 4.78125 72.703125 4.78125 
Q 76.859375 4.78125 79.265625 8.421875 
Q 81.6875 12.0625 81.6875 18.40625 
Q 81.6875 24.8125 79.265625 28.4375 
Q 76.859375 32.078125 72.703125 32.078125 
z
M 72.703125 38.28125 
Q 80.421875 38.28125 84.953125 32.90625 
Q 89.5 27.546875 89.5 18.40625 
Q 89.5 9.28125 84.9375 3.921875 
Q 80.375 -1.421875 72.703125 -1.421875 
Q 64.890625 -1.421875 60.34375 3.921875 
Q 55.8125 9.28125 55.8125 18.40625 
Q 55.8125 27.59375 60.375 32.9375 
Q 64.9375 38.28125 72.703125 38.28125 
z
M 22.3125 68.015625 
Q 18.109375 68.015625 15.6875 64.375 
Q 13.28125 60.75 13.28125 54.390625 
Q 13.28125 47.953125 15.671875 44.328125 
Q 18.0625 40.71875 22.3125 40.71875 
Q 26.5625 40.71875 28.96875 44.328125 
Q 31.390625 47.953125 31.390625 54.390625 
Q 31.390625 60.6875 28.953125 64.34375 
Q 26.515625 68.015625 22.3125 68.015625 
z
M 66.40625 74.21875 
L 74.21875 74.21875 
L 28.609375 -1.421875 
L 20.796875 -1.421875 
z
M 22.3125 74.21875 
Q 30.03125 74.21875 34.609375 68.875 
Q 39.203125 63.53125 39.203125 54.390625 
Q 39.203125 45.171875 34.640625 39.84375 
Q 30.078125 34.515625 22.3125 34.515625 
Q 14.546875 34.515625 10.03125 39.859375 
Q 5.515625 45.21875 5.515625 54.390625 
Q 5.515625 63.484375 10.046875 68.84375 
Q 14.59375 74.21875 22.3125 74.21875 
z
" id="DejaVuSans-37"/>
     </defs>
     <g transform="translate(549.50125 37.306188)scale(0.1 -0.1)">
      <use xlink:href="#DejaVuSans-76"/>
      <use x="53.962891" xlink:href="#DejaVuSans-111"/>
      <use x="115.144531" xlink:href="#DejaVuSans-115"/>
      <use x="167.244141" xlink:href="#DejaVuSans-116"/>
      <use x="206.453125" xlink:href="#DejaVuSans-32"/>
      <use x="238.240234" xlink:href="#DejaVuSans-49"/>
      <use x="301.863281" xlink:href="#DejaVuSans-48"/>
      <use x="365.486328" xlink:href="#DejaVuSans-48"/>
      <use x="429.109375" xlink:href="#DejaVuSans-37"/>
      <use x="524.128906" xlink:href="#DejaVuSans-32"/>
      <use x="555.916016" xlink:href="#DejaVuSans-116"/>
      <use x="595.125" xlink:href="#DejaVuSans-111"/>
      <use x="656.306641" xlink:href="#DejaVuSans-32"/>
      <use x="688.09375" xlink:href="#DejaVuSans-54"/>
      <use x="751.716797" xlink:href="#DejaVuSans-48"/>
      <use x="815.339844" xlink:href="#DejaVuSans-37"/>
      <use x="910.359375" xlink:href="#DejaVuSans-32"/>
      <use x="942.146484" xlink:href="#DejaVuSans-111"/>
      <use x="1003.328125" xlink:href="#DejaVuSans-102"/>
      <use x="1038.533203" xlink:href="#DejaVuSans-32"/>
      <use x="1070.320312" xlink:href="#DejaVuSans-98"/>
      <use x="1133.796875" xlink:href="#DejaVuSans-117"/>
      <use x="1197.175781" xlink:href="#DejaVuSans-100"/>
      <use x="1260.652344" xlink:href="#DejaVuSans-103"/>
      <use x="1324.128906" xlink:href="#DejaVuSans-101"/>
      <use x="1385.652344" xlink:href="#DejaVuSans-116"/>
     </g>
    </g>
    <g id="patch_61">
     <path d="M 521.50125 51.984313 
L 541.50125 51.984313 
L 541.50125 44.984313 
L 521.50125 44.984313 
z
" style="fill:#eba134;"/>
    </g>
    <g id="text_19">
     <!-- Lost 60% of budget to break even -->
     <defs>
      <path d="M 9.078125 75.984375 
L 18.109375 75.984375 
L 18.109375 31.109375 
L 44.921875 54.6875 
L 56.390625 54.6875 
L 27.390625 29.109375 
L 57.625 0 
L 45.90625 0 
L 18.109375 26.703125 
L 18.109375 0 
L 9.078125 0 
z
" id="DejaVuSans-107"/>
     </defs>
     <g transform="translate(549.50125 51.984313)scale(0.1 -0.1)">
      <use xlink:href="#DejaVuSans-76"/>
      <use x="53.962891" xlink:href="#DejaVuSans-111"/>
      <use x="115.144531" xlink:href="#DejaVuSans-115"/>
      <use x="167.244141" xlink:href="#DejaVuSans-116"/>
      <use x="206.453125" xlink:href="#DejaVuSans-32"/>
      <use x="238.240234" xlink:href="#DejaVuSans-54"/>
      <use x="301.863281" xlink:href="#DejaVuSans-48"/>
      <use x="365.486328" xlink:href="#DejaVuSans-37"/>
      <use x="460.505859" xlink:href="#DejaVuSans-32"/>
      <use x="492.292969" xlink:href="#DejaVuSans-111"/>
      <use x="553.474609" xlink:href="#DejaVuSans-102"/>
      <use x="588.679688" xlink:href="#DejaVuSans-32"/>
      <use x="620.466797" xlink:href="#DejaVuSans-98"/>
      <use x="683.943359" xlink:href="#DejaVuSans-117"/>
      <use x="747.322266" xlink:href="#DejaVuSans-100"/>
      <use x="810.798828" xlink:href="#DejaVuSans-103"/>
      <use x="874.275391" xlink:href="#DejaVuSans-101"/>
      <use x="935.798828" xlink:href="#DejaVuSans-116"/>
      <use x="975.007812" xlink:href="#DejaVuSans-32"/>
      <use x="1006.794922" xlink:href="#DejaVuSans-116"/>
      <use x="1046.003906" xlink:href="#DejaVuSans-111"/>
      <use x="1107.185547" xlink:href="#DejaVuSans-32"/>
      <use x="1138.972656" xlink:href="#DejaVuSans-98"/>
      <use x="1202.449219" xlink:href="#DejaVuSans-114"/>
      <use x="1241.3125" xlink:href="#DejaVuSans-101"/>
      <use x="1302.835938" xlink:href="#DejaVuSans-97"/>
      <use x="1364.115234" xlink:href="#DejaVuSans-107"/>
      <use x="1422.025391" xlink:href="#DejaVuSans-32"/>
      <use x="1453.8125" xlink:href="#DejaVuSans-101"/>
      <use x="1515.335938" xlink:href="#DejaVuSans-118"/>
      <use x="1574.515625" xlink:href="#DejaVuSans-101"/>
      <use x="1636.039062" xlink:href="#DejaVuSans-110"/>
     </g>
    </g>
    <g id="patch_62">
     <path d="M 521.50125 66.662438 
L 541.50125 66.662438 
L 541.50125 59.662438 
L 521.50125 59.662438 
z
" style="fill:#e8eb34;"/>
    </g>
    <g id="text_20">
     <!-- Break even to gained 100% of budget -->
     <defs>
      <path d="M 19.671875 34.8125 
L 19.671875 8.109375 
L 35.5 8.109375 
Q 43.453125 8.109375 47.28125 11.40625 
Q 51.125 14.703125 51.125 21.484375 
Q 51.125 28.328125 47.28125 31.5625 
Q 43.453125 34.8125 35.5 34.8125 
z
M 19.671875 64.796875 
L 19.671875 42.828125 
L 34.28125 42.828125 
Q 41.5 42.828125 45.03125 45.53125 
Q 48.578125 48.25 48.578125 53.8125 
Q 48.578125 59.328125 45.03125 62.0625 
Q 41.5 64.796875 34.28125 64.796875 
z
M 9.8125 72.90625 
L 35.015625 72.90625 
Q 46.296875 72.90625 52.390625 68.21875 
Q 58.5 63.53125 58.5 54.890625 
Q 58.5 48.1875 55.375 44.234375 
Q 52.25 40.28125 46.1875 39.3125 
Q 53.46875 37.75 57.5 32.78125 
Q 61.53125 27.828125 61.53125 20.40625 
Q 61.53125 10.640625 54.890625 5.3125 
Q 48.25 0 35.984375 0 
L 9.8125 0 
z
" id="DejaVuSans-66"/>
     </defs>
     <g transform="translate(549.50125 66.662438)scale(0.1 -0.1)">
      <use xlink:href="#DejaVuSans-66"/>
      <use x="68.603516" xlink:href="#DejaVuSans-114"/>
      <use x="107.466797" xlink:href="#DejaVuSans-101"/>
      <use x="168.990234" xlink:href="#DejaVuSans-97"/>
      <use x="230.269531" xlink:href="#DejaVuSans-107"/>
      <use x="288.179688" xlink:href="#DejaVuSans-32"/>
      <use x="319.966797" xlink:href="#DejaVuSans-101"/>
      <use x="381.490234" xlink:href="#DejaVuSans-118"/>
      <use x="440.669922" xlink:href="#DejaVuSans-101"/>
      <use x="502.193359" xlink:href="#DejaVuSans-110"/>
      <use x="565.572266" xlink:href="#DejaVuSans-32"/>
      <use x="597.359375" xlink:href="#DejaVuSans-116"/>
      <use x="636.568359" xlink:href="#DejaVuSans-111"/>
      <use x="697.75" xlink:href="#DejaVuSans-32"/>
      <use x="729.537109" xlink:href="#DejaVuSans-103"/>
      <use x="793.013672" xlink:href="#DejaVuSans-97"/>
      <use x="854.292969" xlink:href="#DejaVuSans-105"/>
      <use x="882.076172" xlink:href="#DejaVuSans-110"/>
      <use x="945.455078" xlink:href="#DejaVuSans-101"/>
      <use x="1006.978516" xlink:href="#DejaVuSans-100"/>
      <use x="1070.455078" xlink:href="#DejaVuSans-32"/>
      <use x="1102.242188" xlink:href="#DejaVuSans-49"/>
      <use x="1165.865234" xlink:href="#DejaVuSans-48"/>
      <use x="1229.488281" xlink:href="#DejaVuSans-48"/>
      <use x="1293.111328" xlink:href="#DejaVuSans-37"/>
      <use x="1388.130859" xlink:href="#DejaVuSans-32"/>
      <use x="1419.917969" xlink:href="#DejaVuSans-111"/>
      <use x="1481.099609" xlink:href="#DejaVuSans-102"/>
      <use x="1516.304688" xlink:href="#DejaVuSans-32"/>
      <use x="1548.091797" xlink:href="#DejaVuSans-98"/>
      <use x="1611.568359" xlink:href="#DejaVuSans-117"/>
      <use x="1674.947266" xlink:href="#DejaVuSans-100"/>
      <use x="1738.423828" xlink:href="#DejaVuSans-103"/>
      <use x="1801.900391" xlink:href="#DejaVuSans-101"/>
      <use x="1863.423828" xlink:href="#DejaVuSans-116"/>
     </g>
    </g>
    <g id="patch_63">
     <path d="M 521.50125 81.340563 
L 541.50125 81.340563 
L 541.50125 74.340563 
L 521.50125 74.340563 
z
" style="fill:#34ebd5;"/>
    </g>
    <g id="text_21">
     <!-- Gained 100% to 200% of budget -->
     <g transform="translate(549.50125 81.340563)scale(0.1 -0.1)">
      <use xlink:href="#DejaVuSans-71"/>
      <use x="77.490234" xlink:href="#DejaVuSans-97"/>
      <use x="138.769531" xlink:href="#DejaVuSans-105"/>
      <use x="166.552734" xlink:href="#DejaVuSans-110"/>
      <use x="229.931641" xlink:href="#DejaVuSans-101"/>
      <use x="291.455078" xlink:href="#DejaVuSans-100"/>
      <use x="354.931641" xlink:href="#DejaVuSans-32"/>
      <use x="386.71875" xlink:href="#DejaVuSans-49"/>
      <use x="450.341797" xlink:href="#DejaVuSans-48"/>
      <use x="513.964844" xlink:href="#DejaVuSans-48"/>
      <use x="577.587891" xlink:href="#DejaVuSans-37"/>
      <use x="672.607422" xlink:href="#DejaVuSans-32"/>
      <use x="704.394531" xlink:href="#DejaVuSans-116"/>
      <use x="743.603516" xlink:href="#DejaVuSans-111"/>
      <use x="804.785156" xlink:href="#DejaVuSans-32"/>
      <use x="836.572266" xlink:href="#DejaVuSans-50"/>
      <use x="900.195312" xlink:href="#DejaVuSans-48"/>
      <use x="963.818359" xlink:href="#DejaVuSans-48"/>
      <use x="1027.441406" xlink:href="#DejaVuSans-37"/>
      <use x="1122.460938" xlink:href="#DejaVuSans-32"/>
      <use x="1154.248047" xlink:href="#DejaVuSans-111"/>
      <use x="1215.429688" xlink:href="#DejaVuSans-102"/>
      <use x="1250.634766" xlink:href="#DejaVuSans-32"/>
      <use x="1282.421875" xlink:href="#DejaVuSans-98"/>
      <use x="1345.898438" xlink:href="#DejaVuSans-117"/>
      <use x="1409.277344" xlink:href="#DejaVuSans-100"/>
      <use x="1472.753906" xlink:href="#DejaVuSans-103"/>
      <use x="1536.230469" xlink:href="#DejaVuSans-101"/>
      <use x="1597.753906" xlink:href="#DejaVuSans-116"/>
     </g>
    </g>
    <g id="patch_64">
     <path d="M 521.50125 96.018688 
L 541.50125 96.018688 
L 541.50125 89.018688 
L 521.50125 89.018688 
z
" style="fill:#92eb34;"/>
    </g>
    <g id="text_22">
     <!-- Gained 200% to 500% of budget -->
     <defs>
      <path d="M 10.796875 72.90625 
L 49.515625 72.90625 
L 49.515625 64.59375 
L 19.828125 64.59375 
L 19.828125 46.734375 
Q 21.96875 47.46875 24.109375 47.828125 
Q 26.265625 48.1875 28.421875 48.1875 
Q 40.625 48.1875 47.75 41.5 
Q 54.890625 34.8125 54.890625 23.390625 
Q 54.890625 11.625 47.5625 5.09375 
Q 40.234375 -1.421875 26.90625 -1.421875 
Q 22.3125 -1.421875 17.546875 -0.640625 
Q 12.796875 0.140625 7.71875 1.703125 
L 7.71875 11.625 
Q 12.109375 9.234375 16.796875 8.0625 
Q 21.484375 6.890625 26.703125 6.890625 
Q 35.15625 6.890625 40.078125 11.328125 
Q 45.015625 15.765625 45.015625 23.390625 
Q 45.015625 31 40.078125 35.4375 
Q 35.15625 39.890625 26.703125 39.890625 
Q 22.75 39.890625 18.8125 39.015625 
Q 14.890625 38.140625 10.796875 36.28125 
z
" id="DejaVuSans-53"/>
     </defs>
     <g transform="translate(549.50125 96.018688)scale(0.1 -0.1)">
      <use xlink:href="#DejaVuSans-71"/>
      <use x="77.490234" xlink:href="#DejaVuSans-97"/>
      <use x="138.769531" xlink:href="#DejaVuSans-105"/>
      <use x="166.552734" xlink:href="#DejaVuSans-110"/>
      <use x="229.931641" xlink:href="#DejaVuSans-101"/>
      <use x="291.455078" xlink:href="#DejaVuSans-100"/>
      <use x="354.931641" xlink:href="#DejaVuSans-32"/>
      <use x="386.71875" xlink:href="#DejaVuSans-50"/>
      <use x="450.341797" xlink:href="#DejaVuSans-48"/>
      <use x="513.964844" xlink:href="#DejaVuSans-48"/>
      <use x="577.587891" xlink:href="#DejaVuSans-37"/>
      <use x="672.607422" xlink:href="#DejaVuSans-32"/>
      <use x="704.394531" xlink:href="#DejaVuSans-116"/>
      <use x="743.603516" xlink:href="#DejaVuSans-111"/>
      <use x="804.785156" xlink:href="#DejaVuSans-32"/>
      <use x="836.572266" xlink:href="#DejaVuSans-53"/>
      <use x="900.195312" xlink:href="#DejaVuSans-48"/>
      <use x="963.818359" xlink:href="#DejaVuSans-48"/>
      <use x="1027.441406" xlink:href="#DejaVuSans-37"/>
      <use x="1122.460938" xlink:href="#DejaVuSans-32"/>
      <use x="1154.248047" xlink:href="#DejaVuSans-111"/>
      <use x="1215.429688" xlink:href="#DejaVuSans-102"/>
      <use x="1250.634766" xlink:href="#DejaVuSans-32"/>
      <use x="1282.421875" xlink:href="#DejaVuSans-98"/>
      <use x="1345.898438" xlink:href="#DejaVuSans-117"/>
      <use x="1409.277344" xlink:href="#DejaVuSans-100"/>
      <use x="1472.753906" xlink:href="#DejaVuSans-103"/>
      <use x="1536.230469" xlink:href="#DejaVuSans-101"/>
      <use x="1597.753906" xlink:href="#DejaVuSans-116"/>
     </g>
    </g>
    <g id="patch_65">
     <path d="M 521.50125 110.696813 
L 541.50125 110.696813 
L 541.50125 103.696813 
L 521.50125 103.696813 
z
" style="fill:#34eb4c;"/>
    </g>
    <g id="text_23">
     <!-- Gained over 500% of budget -->
     <g transform="translate(549.50125 110.696813)scale(0.1 -0.1)">
      <use xlink:href="#DejaVuSans-71"/>
      <use x="77.490234" xlink:href="#DejaVuSans-97"/>
      <use x="138.769531" xlink:href="#DejaVuSans-105"/>
      <use x="166.552734" xlink:href="#DejaVuSans-110"/>
      <use x="229.931641" xlink:href="#DejaVuSans-101"/>
      <use x="291.455078" xlink:href="#DejaVuSans-100"/>
      <use x="354.931641" xlink:href="#DejaVuSans-32"/>
      <use x="386.71875" xlink:href="#DejaVuSans-111"/>
      <use x="447.900391" xlink:href="#DejaVuSans-118"/>
      <use x="507.080078" xlink:href="#DejaVuSans-101"/>
      <use x="568.603516" xlink:href="#DejaVuSans-114"/>
      <use x="609.716797" xlink:href="#DejaVuSans-32"/>
      <use x="641.503906" xlink:href="#DejaVuSans-53"/>
      <use x="705.126953" xlink:href="#DejaVuSans-48"/>
      <use x="768.75" xlink:href="#DejaVuSans-48"/>
      <use x="832.373047" xlink:href="#DejaVuSans-37"/>
      <use x="927.392578" xlink:href="#DejaVuSans-32"/>
      <use x="959.179688" xlink:href="#DejaVuSans-111"/>
      <use x="1020.361328" xlink:href="#DejaVuSans-102"/>
      <use x="1055.566406" xlink:href="#DejaVuSans-32"/>
      <use x="1087.353516" xlink:href="#DejaVuSans-98"/>
      <use x="1150.830078" xlink:href="#DejaVuSans-117"/>
      <use x="1214.208984" xlink:href="#DejaVuSans-100"/>
      <use x="1277.685547" xlink:href="#DejaVuSans-103"/>
      <use x="1341.162109" xlink:href="#DejaVuSans-101"/>
      <use x="1402.685547" xlink:href="#DejaVuSans-116"/>
     </g>
    </g>
   </g>
  </g>
 </g>
 <defs>
  <clipPath id="p21a1ec7fca">
   <rect height="326.16" width="468.72" x="43.78125" y="22.318125"/>
  </clipPath>
 </defs>
</svg>
